<?xml version="1.0" encoding="utf-8"?>
<!-- Generator: Adobe Illustrator 16.0.0, SVG Export Plug-In . SVG Version: 6.00 Build 0)  -->
<!DOCTYPE svg PUBLIC "-//W3C//DTD SVG 1.1//EN" "http://www.w3.org/Graphics/SVG/1.1/DTD/svg11.dtd">
<svg version="1.1" id="Layer_1" xmlns="http://www.w3.org/2000/svg" xmlns:xlink="http://www.w3.org/1999/xlink" x="0px" y="0px"
	 width="78px" height="111.5px" viewBox="0 0 78 111.5" enable-background="new 0 0 78 111.5" xml:space="preserve">
<g id="Group_4398" transform="translate(1645.398 12282.698)">
	<g id="Group_4397">
		<path id="Path_14469" fill="#FFFFFF" d="M-1598.171-12229.194h3.572c7.9,0.003,14.309-6.399,14.311-14.3c0-0.004,0-0.008,0-0.012
			v-21.299h-50.682v21.299c0.006,7.601,5.955,13.869,13.543,14.274v0.033h4.34c1.844,0.003,3.336,1.497,3.336,3.341v0.384
			c0,1.842-1.494,3.335-3.336,3.334h-4.34v0.04c-7.592,0.402-13.541,6.675-13.543,14.277v23.681h50.68v-23.681
			c0.002-7.904-6.406-14.313-14.311-14.313h-3.57c-1.842,0.002-3.336-1.49-3.336-3.333c0,0,0,0,0,0v-0.385
			C-1601.507-12227.697-1600.015-12229.192-1598.171-12229.194z"/>
		<path id="Path_14470" fill="#3B4350" d="M-1577.007-12271.356h-57.247c-1.197,0.002-2.168,0.974-2.168,2.172v2.213
			c0.002,1.198,0.971,2.169,2.168,2.173h57.247c1.199-0.004,2.168-0.975,2.172-2.173v-2.213
			C-1574.837-12270.383-1575.808-12271.354-1577.007-12271.356z"/>
		<path id="Path_14471" fill="#3B4350" d="M-1577.007-12184.141h-57.247c-1.197,0.005-2.166,0.976-2.168,2.172v2.216
			c0.002,1.196,0.971,2.167,2.168,2.172h57.247c1.197-0.006,2.168-0.975,2.172-2.172v-2.216
			C-1574.839-12183.166-1575.81-12184.136-1577.007-12184.141z"/>
		<path id="Path_14472" fill="#FFCE34" d="M-1580.289-12187.098l-23.801-23.807c-0.85-0.845-2.221-0.845-3.071,0l-23.801,23.807
			v2.957h50.682L-1580.289-12187.098z"/>
		<path id="Path_14473" fill="#FFCE34" d="M-1613.094-12229.193h-4.338v-0.033c-6.396-0.351-11.777-4.911-13.174-11.162h49.956
			c-1.455,6.54-7.254,11.193-13.955,11.195h-18.491H-1613.094z"/>
		<path id="Path_14474" fill="#272E38" d="M-1577.007-12271.356h-28.623v6.558h28.625c1.199-0.004,2.168-0.975,2.172-2.173v-2.213
			C-1574.835-12270.384-1575.808-12271.355-1577.007-12271.356z"/>
		<path id="Path_14475" fill="#272E38" d="M-1577.007-12184.141h-28.621v6.558h28.623c1.197-0.004,2.166-0.975,2.17-2.172v-2.215
			C-1574.839-12183.167-1575.81-12184.136-1577.007-12184.141z"/>
	</g>
</g>
</svg>
