<svg xmlns="http://www.w3.org/2000/svg" width="1546.584" height="257.141" viewBox="0 0 1546.584 257.141">
  <g id="Group_5127" data-name="Group 5127" transform="translate(-442.411 -1416.818)">
    <g id="Group_3178" data-name="Group 3178" transform="translate(442.411 1416.818)">
      <path id="Path_11881" data-name="Path 11881" d="M6074.353,4224.231c-19.233-.068-38.469-.175-57.706-.188-43.483-.029-86.97-.253-130.446.039-113.439.764-226.883.106-340.315.36-2.492,0-4.986.131-7.478.2l-93.064,0q-201.545,0-403.1.008-194.782.032-389.575.235c-7.733.01-9.337-1.166-9.318-5.395q.376-95.73.012-191.463c-.012-3.95,1.794-4.949,8.674-4.814q109.074,2.115,218.151,3.913,66.719,1.17,133.433,2.349,127.793,2.38,255.573,4.817c41.481.76,82.973,1.277,124.449,2.012q85.07,1.5,170.115,3.159,104.958,1.877,209.91,3.651,71.589,1.257,143.159,2.561,70.834,1.272,141.667,2.563c7.993.149,15.971.524,23.964.531,4.145,0,4.947.992,4.916,3.073q-.622,44.765-1.066,89.527c-.155,13.927-.351,27.852-.473,41.775-.12,12.509-.136,25.015-.3,37.522C6075.524,4221.861,6076.583,4223.248,6074.353,4224.231Z" transform="translate(-4581.606 -3997.78)" fill="#f50825"/>
      <path id="Path_11882" data-name="Path 11882" d="M5046.293,4027.7q71.4,1.664,142.8,3.306c33.586.741,67.174,1.336,100.759,2.013q19.772.4,39.529.867c1.958.047,5-.453,4.757,1.69-.193,1.723-2.815,1.718-5.042,1.669q-33.161-.711-66.321-1.384-51.334-1.113-102.661-2.269-72.053-1.583-144.11-3.155-67.6-1.444-135.2-2.824-58.343-1.242-116.682-2.56c-2.233-.051-5.465.377-5.287-1.905.183-2.4,3.586-1.493,5.6-1.451q98.848,2.087,197.689,4.283,42.082.915,84.168,1.793Z" transform="translate(-3868.175 -4002.169)" fill="#f50825"/>
      <path id="Path_11883" data-name="Path 11883" d="M5049.183,4086.409c-47,0-92.987.035-138.968-.01q-87.5-.082-175-.282c-4.888-.007-9.779-.182-14.667-.288-1.583-.036-3.019-.207-2.875-1.629.112-1.107,1.286-1.392,2.6-1.46,1.483-.077,2.98-.049,4.47-.045q161.906.215,323.827.438" transform="translate(-4162.219 -3845.176)" fill="#f50825"/>
      <path id="Path_11884" data-name="Path 11884" d="M4983.62,4023.31q50.024,1.2,100.049,2.407,46.195,1.107,92.4,2.2c.848.023,1.7.068,2.55.079,1.785.025,3.758.193,3.517,1.69-.194,1.263-1.945,1.655-3.864,1.612-7.651-.179-15.309-.275-22.953-.46q-64.043-1.543-128.084-3.12-78.379-1.948-156.747-3.948c-26.547-.66-53.1-1.241-79.656-1.894-2.116-.05-5.51.632-5.28-1.771.213-2.279,3.485-1.522,5.637-1.469q65,1.572,129.987,3.194,31.221.76,62.445,1.434Z" transform="translate(-3752.45 -4009.941)" fill="#f50825"/>
      <path id="Path_11885" data-name="Path 11885" d="M4715.509,4151.5c-22.983,0-45.97-.111-68.955.081-5.476.043-6.8-1.222-6.788-4.653.163-28.415.092-56.829.1-85.241a12.33,12.33,0,0,1,.133-2.554c.239-1.109,1.19-1.775,3.032-1.695,1.776.079,1.884.956,1.938,1.812.062.995.025,1.991.025,2.984,0,27.279.092,54.556-.107,81.835-.02,3.546,1.152,4.415,6.756,4.206,13.58-.5,27.224-.273,40.845-.338q46.611-.218,93.221-.432c1.7-.007,3.4.008,5.1.071,1.421.054,2.367.489,2.4,1.566.026,1.111-.917,1.455-2.383,1.5-2.55.083-5.094.277-7.642.281q-33.836.031-67.674.012Z" transform="translate(-4597.13 -3909.981)" fill="#f50825"/>
      <path id="Path_11886" data-name="Path 11886" d="M5011.716,4103.115c-5.006,12.628-10.193,25.227-14.9,37.907-1.356,3.641-3.434,4.959-9.432,4.877-44.794-.62-89.6-.937-134.391-1.354-1.063-.01-2.134-.154-3.185-.111-2,.085-4.451.111-4.483-1.5-.043-1.872,2.751-1.872,4.829-1.861,9.128.046,18.257.162,27.385.256,35.871.379,71.748.71,107.621,1.207,4.6.064,6.5-.807,7.724-3.884,9.945-25.127,20.207-50.2,30.375-75.291.338-.82.646-1.647,1.02-2.464.518-1.134,1.764-1.662,3.379-1.262,1.22.3,1.916,1.077,1.531,2.062-.219.549-.406,1.1-.625,1.655q-7.907,19.97-15.828,39.942Z" transform="translate(-3493.466 -3904.655)" fill="#f50825"/>
      <path id="Path_11887" data-name="Path 11887" d="M4822.085,4087.244h109.188c.85,0,1.7-.014,2.553.006,1.9.051,4.3-.062,4.15,1.754-.134,1.67-2.4,1.688-4.367,1.681q-16.914-.07-33.83-.136c-1.916-.009-3.823-.131-5.737-.134q-90.99-.231-181.982-.447c-1.276,0-2.553.008-3.83-.01-1.4-.018-2.527-.313-2.583-1.408-.06-.991.713-1.654,2.163-1.761,1.687-.122,3.4-.107,5.092-.111q54.593,0,109.182,0Z" transform="translate(-4235.484 -3834.946)" fill="#f50825"/>
      <path id="Path_11888" data-name="Path 11888" d="M4762.649,4016.079c8.13.061,14.516,5.668,14.447,12.688-.063,6.952-6.626,12.679-14.6,12.74-8.222.064-15-5.978-14.753-13.144C4747.992,4021.252,4754.351,4016.014,4762.649,4016.079Z" transform="translate(-4028.328 -4016.078)" fill="#f50825"/>
      <path id="Path_11890" data-name="Path 11890" d="M9.324,16.456c-5.347-.124-9.5-3.933-9.318-8.543C.185,3.36,4.794-.257,10.065.014c4.974.252,9.192,4.058,9.16,8.267C19.192,12.733,14.527,16.58,9.324,16.456Z" transform="matrix(1, 0.017, -0.017, 1, 0.287, 45.896)" fill="#f50825"/>
      <path id="Path_11891" data-name="Path 11891" d="M4654.644,4016.993c54.07,1.1,107.017,2.15,159.96,3.267q57.4,1.2,114.8,2.534,80.05,1.735,160.089,3.428c12.973.275,25.941.535,38.914.87,2.154.057,5.652-.417,5.619,1.622-.033,2.107-3.376,2.093-6.019,2.038q-57.389-1.274-114.786-2.525-80.05-1.728-160.1-3.435-57.408-1.24-114.809-2.531-40.813-.887-81.64-1.723a4.639,4.639,0,0,1-1.262-.046c-2.171-.781-6.75.72-6.481-2.062C4649.194,4015.742,4653.453,4017.418,4654.644,4016.993Z" transform="translate(-4557.479 -4014.068)" fill="#f50825"/>
      <path id="Path_11892" data-name="Path 11892" d="M4767.8,4023.531c-.142,3.454-4.838,6.41-9.976,6.278-5.062-.128-9.4-3.373-9.107-6.809s4.442-6.035,9.58-6C4763.614,4017.038,4767.944,4020.007,4767.8,4023.531Z" transform="translate(-4024.094 -4013.708)" fill="#f50825"/>
      <path id="Path_11893" data-name="Path 11893" d="M4880.629,4051.963c3.157-1.134,5.7-2.053,8.252-2.961.512-.181,1.068-.317,2.033-.6v7.356A41.489,41.489,0,0,1,4880.629,4051.963Z" transform="translate(-3344.329 -3934.397)" fill="#f50825"/>
      <path id="Path_11894" data-name="Path 11894" d="M4700.738,4089.927l-10.558,4.1v-8.109Z" transform="translate(-4328.551 -3836.885)" fill="#f50825"/>
    </g>
  </g>
</svg>
