<?xml version="1.0" encoding="utf-8"?>
<!-- Generator: Adobe Illustrator 16.0.0, SVG Export Plug-In . SVG Version: 6.00 Build 0)  -->
<!DOCTYPE svg PUBLIC "-//W3C//DTD SVG 1.1//EN" "http://www.w3.org/Graphics/SVG/1.1/DTD/svg11.dtd">
<svg version="1.1" id="Layer_1" xmlns="http://www.w3.org/2000/svg" xmlns:xlink="http://www.w3.org/1999/xlink" x="0px" y="0px"
	 width="91px" height="127.5px" viewBox="0 0 91 127.5" enable-background="new 0 0 91 127.5" xml:space="preserve">
<g id="Group_4401" transform="translate(1634.398 12501.151)">
	<g id="Group_4400">
		<path id="Path_14478" fill="#3B4350" d="M-1579.156-12430.29l32.484,32.034c0.002,1.271-0.977,2.328-2.244,2.426l-32.252-28.271
			L-1579.156-12430.29z"/>
		<g id="Group_4399" transform="translate(22.165)">
			<path id="Path_14479" fill="#DFF2F1" d="M-1623.839-12447.577c-7.893,25.399-5.586,48.691,5.154,52.023
				c9.27,2.883,21.792-10.064,30.124-30.01c1.311-3.141-8.822-4.062-6.047-12.931c3.053-9.783,11.639-4.006,12.34-7.4
				c4.393-21.082,1.393-38.76-7.85-41.634C-1600.858-12490.858-1615.958-12472.975-1623.839-12447.577z M-1600.588-12426.877
				c-1.35,4.326-3.922,7.381-5.758,6.813s-2.213-4.542-0.879-8.883c1.352-4.328,3.922-7.375,5.752-6.806
				c1.83,0.568,2.234,4.53,0.885,8.87V-12426.877z"/>
			<path id="Path_14480" fill="#FFFCF5" d="M-1625.233-12448.009c-7.893,25.4-5.584,48.688,5.148,52.023
				c9.276,2.887,21.801-10.064,30.135-30.006c1.311-3.148-8.828-4.072-6.055-12.935c3.059-9.788,11.639-4.011,12.348-7.399
				c4.387-21.089,1.391-38.757-7.854-41.634C-1602.249-12491.293-1617.349-12473.405-1625.233-12448.009z M-1601.983-12427.318
				c-1.344,4.331-3.924,7.384-5.756,6.817c-1.832-0.567-2.225-4.542-0.879-8.881c1.346-4.338,3.924-7.384,5.756-6.817
				C-1601.03-12435.634-1600.637-12431.655-1601.983-12427.318L-1601.983-12427.318z"/>
			<path id="Path_14481" fill="#1AA3A3" d="M-1593.19-12484.904c2.184,0.682,2.99,4.365,1.785,8.24
				c-1.203,3.875-3.961,6.465-6.146,5.783c-2.186-0.681-2.988-4.367-1.785-8.246S-1595.389-12485.586-1593.19-12484.904z"/>
			<path id="Path_14482" fill="#EAB234" d="M-1607.694-12473.52c2.184,0.676,2.982,4.368,1.781,8.243s-3.951,6.463-6.135,5.781
				c-2.2-0.687-3-4.368-1.792-8.243C-1612.629-12471.613-1609.893-12474.203-1607.694-12473.52z"/>
			<path id="Path_14483" fill="#AFB2BA" d="M-1617.747-12452.24c2.189,0.68,2.984,4.368,1.783,8.253
				c-1.199,3.885-3.953,6.459-6.145,5.777c-2.191-0.683-2.992-4.377-1.789-8.25
				C-1622.696-12450.334-1619.942-12452.925-1617.747-12452.24z"/>
			<path id="Path_14484" fill="#D84923" d="M-1621.179-12430.114c2.193,0.676,2.988,4.369,1.787,8.25s-3.957,6.454-6.146,5.774
				c-2.189-0.679-2.99-4.365-1.779-8.24C-1626.104-12428.205-1623.366-12430.797-1621.179-12430.114z"/>
			<path id="Path_14485" fill="#272E38" d="M-1616.444-12413.49c2.189,0.679,2.98,4.367,1.787,8.245
				c-1.195,3.878-3.963,6.459-6.148,5.782c-2.186-0.676-2.986-4.372-1.785-8.243S-1618.636-12414.171-1616.444-12413.49z"/>
			<path id="Path_14486" fill="#27BEC5" d="M-1593.54-12485.433c2.191,0.685,2.982,4.378,1.783,8.249
				c-1.197,3.872-3.951,6.463-6.141,5.783c-2.191-0.68-2.99-4.374-1.789-8.245S-1595.727-12486.109-1593.54-12485.433z"/>
			<path id="Path_14487" fill="#FFCE34" d="M-1608.051-12474.045c2.195,0.683,3,4.373,1.791,8.246s-3.949,6.463-6.141,5.784
				c-2.194-0.679-2.989-4.376-1.786-8.253C-1612.985-12472.145-1610.233-12474.721-1608.051-12474.045z"/>
			<path id="Path_14488" fill="#C1C2C6" d="M-1618.097-12452.76c2.193,0.683,2.986,4.367,1.787,8.243s-3.953,6.467-6.146,5.782
				s-2.99-4.372-1.785-8.245C-1623.038-12450.853-1620.282-12453.44-1618.097-12452.76z"/>
			<path id="Path_14489" fill="#FF642E" d="M-1621.528-12430.641c2.201,0.687,2.984,4.373,1.785,8.25s-3.947,6.459-6.137,5.78
				s-3-4.369-1.787-8.245S-1623.716-12431.317-1621.528-12430.641z"/>
			<path id="Path_14490" fill="#3B4350" d="M-1616.796-12414.008c2.188,0.678,2.986,4.372,1.787,8.245
				c-1.197,3.873-3.955,6.457-6.141,5.775c-2.188-0.682-2.992-4.364-1.787-8.236
				C-1621.729-12412.096-1618.978-12414.686-1616.796-12414.008z"/>
		</g>
		<path id="Path_14491" fill="#3B4350" d="M-1581.167-12424.102l-19.391-17l4.994-5.366l16.411,16.18L-1581.167-12424.102z"/>
		<path id="Path_14492" fill="#3B4350" d="M-1597.551-12448.325l-5,5.373l1.99,1.848l4.994-5.366L-1597.551-12448.325z"/>
		<path id="Path_14493" fill="#3B4350" d="M-1613.869-12461.689l-3.529,3.789l14.848,14.947l5-5.373L-1613.869-12461.689z"/>
		<path id="Path_14494" fill="#FFFCF5" d="M-1617.398-12457.899c0,0-3.613,2.335-6.648-3.356c-2.09-3.918,0.576-5.912-5.875-8.822
			c0,0,15.6-1.641,16.055,8.389L-1617.398-12457.899z"/>
	</g>
</g>
</svg>
