<?xml version="1.0" encoding="utf-8"?>
<!-- Generator: Adobe Illustrator 16.0.0, SVG Export Plug-In . SVG Version: 6.00 Build 0)  -->
<!DOCTYPE svg PUBLIC "-//W3C//DTD SVG 1.1//EN" "http://www.w3.org/Graphics/SVG/1.1/DTD/svg11.dtd">
<svg version="1.1" id="Layer_1" xmlns="http://www.w3.org/2000/svg" xmlns:xlink="http://www.w3.org/1999/xlink" x="0px" y="0px"
	 width="106px" height="77px" viewBox="0 0 106 77" enable-background="new 0 0 106 77" xml:space="preserve">
<g id="Group_4410" transform="translate(1629.398 12746.151)">
	<g id="Group_4409">
		<rect id="Rectangle_666" x="-1619.627" y="-12696.819" fill="#FD6120" width="4.471" height="7.059"/>
		<rect id="Rectangle_667" x="-1564.291" y="-12696.819" fill="#FD6120" width="4.471" height="7.059"/>
		<path id="Path_14496" fill="#EDBB3E" d="M-1559.824-12690.026c0,6.732-13.385,12.199-29.901,12.199
			c-16.514,0-29.9-5.465-29.9-12.199c0-6.736,13.387-12.201,29.9-12.201C-1573.21-12702.228-1559.824-12696.765-1559.824-12690.026z
			"/>
		<path id="Path_14497" fill="#3B4350" d="M-1559.824-12696.628c0,6.736-13.385,12.201-29.901,12.201
			c-16.514,0-29.9-5.461-29.9-12.201c0-6.738,13.387-12.199,29.9-12.199C-1573.21-12708.827-1559.824-12703.362-1559.824-12696.628z
			"/>
		<path id="Path_14498" fill="#FFCE34" d="M-1566.171-12698.347c0,4.35-10.545,7.881-23.551,7.881
			c-13.004,0-23.549-3.531-23.549-7.881c0-4.348,10.545-7.884,23.549-7.884
			C-1576.717-12706.23-1566.171-12702.702-1566.171-12698.347z"/>
		<g id="Group_4403" transform="translate(0 14.737)">
			<rect id="Rectangle_668" x="-1622.922" y="-12722.855" fill="#FD6120" width="4.471" height="7.061"/>
			<rect id="Rectangle_669" x="-1567.585" y="-12722.855" fill="#FD6120" width="4.471" height="7.061"/>
			<path id="Path_14499" fill="#EDBB3E" d="M-1563.115-12716.063c0,6.736-13.387,12.199-29.901,12.199s-29.904-5.463-29.904-12.199
				c0-6.739,13.387-12.201,29.904-12.201C-1576.496-12728.264-1563.115-12722.795-1563.115-12716.063z"/>
			<path id="Path_14500" fill="#3B4350" d="M-1563.115-12722.66c0,6.738-13.387,12.199-29.901,12.199s-29.904-5.459-29.904-12.199
				c0-6.741,13.387-12.2,29.904-12.2C-1576.496-12734.86-1563.115-12729.396-1563.115-12722.66z"/>
			<path id="Path_14501" fill="#3B4350" d="M-1569.47-12724.385c0,4.354-10.545,7.885-23.547,7.885c-13,0-23.547-3.527-23.547-7.885
				s10.541-7.878,23.549-7.878C-1580.006-12732.263-1569.47-12728.736-1569.47-12724.385z"/>
		</g>
		<g id="Group_4404" transform="translate(4.235 3.907)">
			<rect id="Rectangle_670" x="-1622.923" y="-12722.854" fill="#FD6120" width="4.475" height="7.063"/>
			<rect id="Rectangle_671" x="-1567.584" y="-12722.854" fill="#FD6120" width="4.473" height="7.063"/>
			<path id="Path_14502" fill="#EDBB3E" d="M-1563.112-12716.059c0,6.736-13.391,12.201-29.901,12.201
				c-16.51,0-29.908-5.465-29.908-12.201s13.391-12.2,29.908-12.2C-1576.494-12728.259-1563.112-12722.797-1563.112-12716.059z"/>
			<path id="Path_14503" fill="#3B4350" d="M-1563.112-12722.656c0,6.733-13.391,12.199-29.901,12.199
				c-16.51,0-29.908-5.464-29.908-12.199c0-6.736,13.391-12.2,29.908-12.2
				C-1576.494-12734.856-1563.112-12729.393-1563.112-12722.656z"/>
			<path id="Path_14504" fill="#FFCE34" d="M-1569.469-12724.382c0,4.351-10.54,7.884-23.545,7.884
				c-13.004,0-23.549-3.533-23.549-7.884c0-4.35,10.541-7.883,23.549-7.883S-1569.469-12728.733-1569.469-12724.382z"/>
		</g>
		<g id="Group_4408" transform="translate(33.738)">
			<g id="Group_4405">
				<path id="Path_14505" fill="#3B4350" d="M-1602.806-12677.177c-15.497-5.254-23.799-22.074-18.545-37.569
					s22.073-23.798,37.569-18.544c15.494,5.252,23.797,22.069,18.545,37.564
					C-1570.509-12680.247-1587.312-12671.95-1602.806-12677.177z"/>
				<path id="Path_14506" fill="#FFCE34" d="M-1566.812-12697.964c-4.859,14.344-20.428,22.031-34.77,17.172
					c-14.344-4.859-22.032-20.428-17.172-34.771c4.859-14.341,20.424-22.029,34.766-17.172
					c14.338,4.843,22.033,20.392,17.191,34.729C-1566.802-12697.993-1566.806-12697.978-1566.812-12697.964z"/>
			</g>
			<g id="Group_4407" transform="translate(14.704 7.57)">
				<g id="Group_4406">
					<path id="Path_14507" fill="#FF642E" d="M-1599.358-12732.792l-1.238,3.644c-1.314-0.563-2.699-0.946-4.117-1.142l1.307-3.882
						l-2.008-0.687l-1.465,4.343c-5.01,0.018-8.174,1.972-9.488,5.865c-0.67,2.028-0.561,4.233,0.309,6.186
						c0.893,1.934,1.971,3.776,3.221,5.5l-4.016,11.892c-2.801-1.729-4.133-3.9-3.961-6.512l-2.096-0.201
						c-0.176,3.771,1.616,6.682,5.375,8.729l-0.99,2.93l2.01,0.688l0.918-2.709l0.895,0.309c1.055,0.344,2.129,0.623,3.219,0.834
						l-0.988,2.932l2.016,0.686l1.119-3.301c5.678,0.625,9.311-1.42,10.9-6.135c0.725-2.24,0.535-4.676-0.525-6.777
						c-1.08-2.154-2.414-4.173-3.975-6.011l3.676-10.84c3.223,1.6,4.775,3.761,4.635,6.482l2.082,0.206
						c0.201-3.813-1.82-6.693-6.061-8.64l1.258-3.713L-1599.358-12732.792z M-1613.936-12699.829l-0.979-0.338l3.6-10.607
						c1.949,2.928,2.539,5.635,1.766,8.094C-1610.383-12700.089-1611.842-12699.122-1613.936-12699.829L-1613.936-12699.829z
						 M-1604.52-12717.558c-0.279-0.512-0.586-1.008-0.922-1.485c-1.291-1.567-1.701-3.681-1.092-5.616
						c0.156-0.457,0.385-0.885,0.676-1.268c1.064-1.527,2.602-1.959,4.607-1.284L-1604.52-12717.558z"/>
				</g>
			</g>
		</g>
	</g>
</g>
</svg>
