<svg xmlns="http://www.w3.org/2000/svg" width="1920.446" height="1484.131" viewBox="0 0 1920.446 1484.131">
  <g id="Group_5149" data-name="Group 5149" transform="translate(0.446 -7658.128)">
    <path id="Union_10" data-name="Union 10" d="M402.327,1475.97c-65.059-5.419-117.207-10.839-175.208-6.7C108.7,1477.72,63.228,1470.161,0,1461.1v-65.534H0v-1307H0V23.033a1842.055,1842.055,0,0,0,199.071,7.474c145.527-2.6,177.773-21.739,296.1-23.44C633.255,5.081,651.028,32.023,829.741,37.3c184.015,5.436,187.73-21.9,389.776-33.631,134.4-7.8,224.81-1.654,298.606,4.493,65.057,5.419,117.2,10.838,175.2,6.7,118.424-8.45,163.891-.891,227.118,8.17v154.1H1920V1307h.446v154.1a1842.27,1842.27,0,0,0-199.072-7.475c-145.527,2.6-177.773,21.74-296.1,23.441-138.088,1.985-155.86-24.956-334.572-30.235-184.016-5.435-187.731,21.9-389.777,33.632-45.183,2.622-85.375,3.668-121.655,3.668C507.638,1484.131,451.313,1480.051,402.327,1475.97Z" transform="translate(-0.446 7658.128)" fill="#fff"/>
    <g id="Group_3353" data-name="Group 3353" transform="translate(1021.242 8027.451) rotate(-13)">
      <rect id="Rectangle_84" data-name="Rectangle 84" width="100.703" height="103.225" transform="translate(677.36 158.533)" fill="#2b83fd"/>
      <g id="Group_669" data-name="Group 669" transform="translate(701.402 186.321)">
        <path id="Path_1624" data-name="Path 1624" d="M715.5,178.717H698.2a36.378,36.378,0,0,0,2.071-5.581,23.434,23.434,0,0,0,0-4.226,4.06,4.06,0,0,0-4.059-4.059H694.19v6.266s-7.1,8.272-7.1,11.654v19.776a4.059,4.059,0,0,0,4.054,4.059h14.2a6.41,6.41,0,0,0,5.536-4.059l7.2-19.776C718.891,180.529,717.734,178.717,715.5,178.717Z" transform="translate(-668.352 -164.852)" fill="#fff"/>
        <rect id="Rectangle_85" data-name="Rectangle 85" width="5.406" height="22.144" transform="translate(15.867 17.073)" fill="#fff"/>
        <rect id="Rectangle_86" data-name="Rectangle 86" width="9.637" height="27.891" transform="translate(0 13.865)" fill="#fff"/>
      </g>
    </g>
    <g id="ICON_11" data-name="ICON 11" transform="matrix(0.966, -0.259, 0.259, 0.966, 223.614, 8284.576)">
      <g id="Group_672" data-name="Group 672" transform="translate(-125 -73)">
        <path id="Path_1628" data-name="Path 1628" d="M709.626,129.5c24.561,32.183,54.2,51,86.085,51s61.531-18.817,86.1-51c-24.569-32.205-54.211-51.03-86.1-51.03S734.188,97.294,709.626,129.5Z" transform="translate(-709.626 -78.47)" fill="#2c7eea"/>
        <path id="Path_1629" data-name="Path 1629" d="M719.858,81.5v55.554l34.279-27.782Z" transform="translate(-642.723 -58.665)" fill="#fff"/>
      </g>
    </g>
    <path id="Path_12342" data-name="Path 12342" d="M1950.971,764.467l25.044,5.366a22.688,22.688,0,0,1,17.432,17.431l5.365,25.044,5.366-25.044a22.69,22.69,0,0,1,17.431-17.431l25.044-5.366-25.044-5.366a22.687,22.687,0,0,1-17.431-17.431l-5.366-25.043-5.366,25.043a22.685,22.685,0,0,1-17.431,17.431Z" transform="translate(-281.908 7532.661)" fill="#ffb700"/>
    <path id="Path_12341" data-name="Path 12341" d="M4930.438,2097.482l25.043,5.365a22.69,22.69,0,0,1,17.432,17.432l5.366,25.043,5.365-25.044a22.69,22.69,0,0,1,17.432-17.431l25.043-5.365-25.043-5.366a22.69,22.69,0,0,1-17.432-17.432l-5.365-25.043-5.366,25.043a22.69,22.69,0,0,1-17.431,17.432Z" transform="translate(-5106.391 6603.714) rotate(-9)" fill="#d10f0f"/>
  </g>
</svg>
