<?xml version="1.0" encoding="utf-8"?>
<!-- Generator: Adobe Illustrator 16.0.0, SVG Export Plug-In . SVG Version: 6.00 Build 0)  -->
<!DOCTYPE svg PUBLIC "-//W3C//DTD SVG 1.1//EN" "http://www.w3.org/Graphics/SVG/1.1/DTD/svg11.dtd">
<svg version="1.1" id="Layer_1" xmlns="http://www.w3.org/2000/svg" xmlns:xlink="http://www.w3.org/1999/xlink" x="0px" y="0px"
	 width="116.5px" height="109px" viewBox="0 0 116.5 109" enable-background="new 0 0 116.5 109" xml:space="preserve">
<g id="Group_4421" transform="translate(1626.398 12965.153)">
	<g id="Group_4414">
		<g id="Group_4413">
			<path id="Path_14511" fill="#C1C2C6" d="M-1555.535-12884.861h-27.429l-2.021,10.344h31.468L-1555.535-12884.861z"/>
			<g id="Group_4411" transform="translate(27.057 76.022)">
				<path id="Rectangle_672" fill="#FFFFFF" d="M-1617.171-12950.538h41.726c0.323,0,0.587,0.262,0.587,0.586l0,0v3.253
					c0,0.319-0.262,0.581-0.583,0.581h-41.736c-0.321,0-0.581-0.262-0.581-0.581l0,0v-3.251
					C-1617.758-12950.276-1617.494-12950.538-1617.171-12950.538z"/>
			</g>
			<path id="Path_14512" fill="#FFFFFF" d="M-1519.972-12954.719h-98.556c-0.396,0-0.715,0.32-0.717,0.715v59.061h99.992v-59.061
				C-1519.257-12954.398-1519.579-12954.719-1519.972-12954.719z"/>
			<path id="Path_14513" fill="#E8E9EA" d="M-1619.245-12885.44c-0.002,0.396,0.317,0.718,0.713,0.72c0.002,0,0.002,0,0.002,0
				h98.556c0.397,0,0.719-0.321,0.721-0.72v-9.503h-99.992V-12885.44z"/>
			<g id="Group_4412" transform="translate(2.706 2.714)">
				
					<linearGradient id="Path_14514_1_" gradientUnits="userSpaceOnUse" x1="-2252.4629" y1="-12640.1396" x2="-2251.4077" y2="-12640.1396" gradientTransform="matrix(89.363 0 0 -51.234 199667.7656 -660532.5)">
					<stop  offset="0" style="stop-color:#0099B9"/>
					<stop  offset="1" style="stop-color:#008DA0"/>
				</linearGradient>
				<path id="Path_14514" fill="url(#Path_14514_1_)" d="M-1618.376-12900.517c-0.396,0.002-0.717-0.317-0.721-0.711
					c0-0.004,0-0.006,0-0.011v-52.619c0.002-0.394,0.321-0.711,0.715-0.711c0.002,0,0.004,0,0.006,0h92.838
					c0.394-0.002,0.715,0.315,0.718,0.709c0,0.002,0,0.002,0,0.002v52.619c0.002,0.396-0.317,0.72-0.713,0.722
					c-0.003,0-0.005,0-0.005,0H-1618.376z"/>
			</g>
			
				<linearGradient id="Path_14515_1_" gradientUnits="userSpaceOnUse" x1="-2249.7563" y1="-12620.6973" x2="-2248.7012" y2="-12620.6973" gradientTransform="matrix(89.363 0 0 -18.1809 199428.6406 -242363.1406)">
				<stop  offset="0" style="stop-color:#0099B9"/>
				<stop  offset="1" style="stop-color:#008DA0"/>
			</linearGradient>
			<path id="Path_14515" fill="url(#Path_14515_1_)" d="M-1538.76-12905.33c-17.54,0-24.705-9.319-37.685-11.233
				c-1.887-0.28-3.793-0.422-5.701-0.424c-13.067,0-24.396,6.372-34.245,10.367v8.096c-0.002,0.396,0.317,0.718,0.71,0.72
				c0.004,0,0.006,0,0.01,0h92.838c0.396,0.002,0.718-0.319,0.718-0.715c0,0,0-0.003,0-0.005v-9.138
				C-1527.544-12906.195-1533.134-12905.412-1538.76-12905.33z"/>
			
				<linearGradient id="Path_14516_1_" gradientUnits="userSpaceOnUse" x1="-2249.7563" y1="-12630.4219" x2="-2248.7012" y2="-12630.4219" gradientTransform="matrix(89.363 0 0 -29.092 199428.6406 -380357.9063)">
				<stop  offset="0" style="stop-color:#0099B9"/>
				<stop  offset="1" style="stop-color:#008DA0"/>
			</linearGradient>
			<path id="Path_14516" fill="url(#Path_14516_1_)" d="M-1532.63-12928.496c-3.515,0.01-7.014,0.492-10.4,1.43
				c-13.806,3.744-24.908,20.611-44.169,20.611c-8.038,0-17.506-2.946-29.191-11.014v18.944c-0.002,0.396,0.317,0.718,0.71,0.722
				c0.004,0,0.006,0,0.01,0h92.838c0.396,0,0.718-0.319,0.718-0.715c0-0.002,0-0.005,0-0.007v-28.47
				C-1525.532-12927.983-1529.072-12928.488-1532.63-12928.496z"/>
		</g>
	</g>
	<g id="Group_4420" transform="translate(74.532 34.404)">
		<g id="Group_4419">
			<path id="Path_14517" fill="#FFFFFF" d="M-1595.226-12952.827h-14.896c-2.773,0-5.024,2.249-5.026,5.024c0,0.002,0,0.004,0,0.006
				v40.005c-0.004,2.773,2.242,5.027,5.016,5.031c0.004,0,0.008,0,0.011,0h14.896c2.782-0.002,5.034-2.252,5.04-5.031v-40.005
				C-1590.192-12950.574-1592.446-12952.825-1595.226-12952.827z"/>
			<path id="Path_14518" fill="#3B4350" d="M-1605.388-12949.247h5.428c0.307-0.002,0.561,0.243,0.566,0.552
				c-0.011,0.307-0.258,0.555-0.566,0.563h-5.428c-0.309-0.002-0.556-0.256-0.554-0.563c-0.005-0.301,0.236-0.548,0.537-0.552
				C-1605.398-12949.247-1605.392-12949.247-1605.388-12949.247z"/>
			<path id="Path_14519" fill="#3B4350" d="M-1599.824-12906.377c-0.013,0.956-0.789,1.725-1.745,1.725h-2.198
				c-0.959,0.004-1.739-0.767-1.75-1.725v-2.168c0.013-0.956,0.794-1.722,1.75-1.716h2.198c0.954,0,1.73,0.765,1.745,1.716
				V-12906.377z"/>
			<g id="Group_4418" transform="translate(1.103 5.678)">
				<g id="Group_4416">
					<g id="Group_4415">
						<path id="Path_14520" fill="#C1C2C6" d="M-1614.58-12917.602c-0.269,0.011-0.493-0.195-0.508-0.462v-33.989
							c0.015-0.266,0.239-0.472,0.508-0.462h21.607c0.269-0.01,0.495,0.196,0.51,0.462v33.989c-0.017,0.269-0.241,0.473-0.51,0.462
							H-1614.58z"/>
					</g>
				</g>
				<g id="Group_4417" transform="translate(0 25.883)">
					<path id="Path_14521" fill="#9EA6A8" d="M-1614.58-12943.484h21.607c0.28-0.002,0.508-0.229,0.51-0.509v-2.594
						c-9.707,1.393-12.66-3.441-18.71-4.325c-1.298-0.189-2.612-0.221-3.915-0.089v7.018
						C-1615.081-12943.707-1614.856-12943.486-1614.58-12943.484z"/>
				</g>
				<path id="Path_14522" fill="#9EA6A8" d="M-1593.318-12929.904c-1.426,0.006-2.846,0.199-4.22,0.574
					c-5.516,1.496-9.977,8.14-17.543,8.407v2.813c0,0.28,0.225,0.509,0.505,0.511h21.61c0.28-0.002,0.507-0.23,0.507-0.511v-11.768
					C-1592.743-12929.898-1593.03-12929.904-1593.318-12929.904z"/>
			</g>
		</g>
	</g>
</g>
</svg>
