<?xml version="1.0" encoding="utf-8"?>
<!-- Generator: Adobe Illustrator 16.0.0, SVG Export Plug-In . SVG Version: 6.00 Build 0)  -->
<!DOCTYPE svg PUBLIC "-//W3C//DTD SVG 1.1//EN" "http://www.w3.org/Graphics/SVG/1.1/DTD/svg11.dtd">
<svg version="1.1" id="Layer_1" xmlns="http://www.w3.org/2000/svg" xmlns:xlink="http://www.w3.org/1999/xlink" x="0px" y="0px"
	 width="116.5px" height="109px" viewBox="0 0 116.5 109" enable-background="new 0 0 116.5 109" xml:space="preserve">
<g id="Group_4425" transform="translate(1625.398 13158.152)">
	<g id="Group_4424">
		<g id="Group_4423">
			<g id="Group_4422" transform="translate(51.718)">
				<path id="Path_14525" fill="#FFFFFF" d="M-1576.666-13118.295c4.027-11.996-2.43-24.988-14.426-29.016
					c-9.824-3.299-20.637,0.404-26.375,9.031h0.1c14.266-0.002,25.834,11.561,25.836,25.828c0,2.01-0.234,4.012-0.699,5.967
					c4.787,3.415,7.627,8.935,7.621,14.815c-0.002,0.719-0.045,1.438-0.133,2.15h1.756c0.342,0,0.684-0.041,1.016-0.117
					c8.375-1.027,14.332-8.648,13.305-17.026c-0.607-4.949-3.592-9.293-7.996-11.631L-1576.666-13118.295z"/>
			</g>
			<path id="Path_14526" fill="#FFFFFF" d="M-1544.879-13104.194c4.023-12.001-2.443-24.991-14.443-29.015
				c-10.75-3.604-22.52,1.195-27.686,11.289c-7.484-3.898-16.713-0.99-20.611,6.496c-1.756,3.375-2.191,7.285-1.219,10.966
				c-7.596,3.678-10.771,12.816-7.094,20.412c2.551,5.273,7.893,8.623,13.75,8.623h0.076h0.037h50.864
				c0.344-0.002,0.686-0.041,1.021-0.117c8.373-1.029,14.328-8.652,13.301-17.025
				C-1537.491-13097.515-1540.475-13101.854-1544.879-13104.194z"/>
		</g>
		<path id="Path_14527" fill="#FFCE34" d="M-1596.239-13081.724l7.924,8.41c0.824,0.879,2.178,2.314,3,3.189l7.924,8.412
			c0.766,0.828,2.061,0.879,2.889,0.111c0.037-0.035,0.074-0.072,0.111-0.111l7.924-8.412l3-3.189l7.924-8.41
			c0.824-0.879,0.512-1.6-0.689-1.6h-9.623v-20.234c-0.006-1.207-0.982-2.186-2.192-2.189h-15.691
			c-1.209,0.004-2.188,0.982-2.191,2.189v20.238h-9.623C-1596.755-13083.319-1597.067-13082.603-1596.239-13081.724z"/>
		<path id="Path_14528" fill="#EAB234" d="M-1596.239-13081.718l7.924,8.414l3,3.189l7.924,8.412
			c0.426,0.457,1.037,0.693,1.66,0.639v-44.672h-8.008c-1.209,0.004-2.186,0.98-2.191,2.189v20.236h-9.623
			C-1596.755-13083.31-1597.067-13082.593-1596.239-13081.718z"/>
	</g>
</g>
</svg>
