<?xml version="1.0" encoding="utf-8"?>
<!-- Generator: Adobe Illustrator 16.0.0, SVG Export Plug-In . SVG Version: 6.00 Build 0)  -->
<!DOCTYPE svg PUBLIC "-//W3C//DTD SVG 1.1//EN" "http://www.w3.org/Graphics/SVG/1.1/DTD/svg11.dtd">
<svg version="1.1" id="Layer_1" xmlns="http://www.w3.org/2000/svg" xmlns:xlink="http://www.w3.org/1999/xlink" x="0px" y="0px"
	 width="707.43px" height="545.535px" viewBox="184.43 0 707.43 545.535" enable-background="new 184.43 0 707.43 545.535"
	 xml:space="preserve">
<path id="Union_6-2" fill="#006BA2" d="M731.874,517.849H340.819c-17.865-0.003-35.222-5.948-49.338-16.899
	c-0.345,0.061-0.695,0.116-1.049,0.169c-22.224,3.282-47.3-12.367-66.138-28.016c-10.442-8.68-20.159-18.195-29.054-28.453
	c0.449,0.455,28.206,3.61,55.844,2.213c3.01-0.152,5.981-0.4,8.894-0.713c-0.454-3.52-0.681-7.065-0.68-10.614V87.31
	c0.002-45.275,36.68-82.315,81.521-82.315h426.17c60.237,0,109.081,49.315,109.081,110.127v320.417
	c0,45.271-36.685,82.312-81.526,82.312L731.874,517.849z"/>
<path id="Union_3-2" fill="#FFFFFF" d="M728.019,508.849H345.497c-17.451,0.006-34.417-5.748-48.263-16.369
	c-0.338,0.058-0.68,0.112-1.026,0.164c-21.875,3.199-48.063-9.858-67.934-22.918c-10.729-7.061-20.939-14.88-30.552-23.399
	c0.753,0.5,33.112,6.784,60.014,5.437c3.672-0.19,7.328-0.625,10.943-1.299c-1.944-6.955-2.928-14.143-2.924-21.363V91.742
	c0.125-43.989,35.753-79.62,79.742-79.747H762.37c58.924,0.003,106.692,47.767,106.7,106.691v310.42
	c-0.13,43.989-35.76,79.616-79.748,79.742H728.019z M197.712,446.322l0.009,0.007L197.712,446.322z"/>
<g id="Group_5073">
	<rect id="Rectangle_857" x="362.34" y="450.8" fill="#006BA2" width="424.317" height="5.337"/>
	<g id="Group_5071" transform="translate(0 28.196)">
		<path id="Path_14949" fill="#006BA2" d="M629.252,40.704h157.4v5.336H630.287C630.052,44.242,629.707,42.46,629.252,40.704z"/>
		<path id="Path_14950" fill="#006BA2" d="M528.959,40.704c-1.178,1.664-2.166,3.454-2.947,5.336H362.339v-5.336H528.959z"/>
	</g>
	<g id="Group_5072" transform="translate(174.621)">
		<path id="Path_14951" fill="#006BA2" d="M400.522,40.705v4.05c-12.079,6.95-19.533,15.761-22.361,26.434
			c3.063-1.991,5.849-2.987,8.355-2.989c4.122-0.031,8.028,1.837,10.592,5.065c2.911,3.461,4.448,7.871,4.322,12.391
			c0.113,5.134-1.951,10.077-5.681,13.607c-3.725,3.641-8.761,5.625-13.968,5.5c-5.527,0-10.149-2.333-13.867-7
			s-5.576-10.469-5.575-17.408c0-9.779,3.739-18.542,11.218-26.29C380.647,46.514,390.22,41.771,400.522,40.705z M448.038,40.705
			v4.05c-12.078,6.95-19.532,15.761-22.362,26.434c3.063-1.989,5.872-2.985,8.427-2.989c4.1-0.018,7.979,1.85,10.522,5.065
			c2.908,3.462,4.444,7.871,4.316,12.391c0.117,5.126-1.929,10.066-5.639,13.607c-3.709,3.644-8.737,5.628-13.936,5.5
			c-5.569,0-10.203-2.333-13.9-7s-5.545-10.469-5.543-17.408c0-9.779,3.729-18.542,11.187-26.29
			C428.182,46.511,437.744,41.766,448.038,40.705z"/>
	</g>
</g>
</svg>
