<?xml version="1.0" encoding="utf-8"?>
<!-- Generator: Adobe Illustrator 16.0.0, SVG Export Plug-In . SVG Version: 6.00 Build 0)  -->
<!DOCTYPE svg PUBLIC "-//W3C//DTD SVG 1.1//EN" "http://www.w3.org/Graphics/SVG/1.1/DTD/svg11.dtd">
<svg version="1.1" id="Layer_1" xmlns="http://www.w3.org/2000/svg" xmlns:xlink="http://www.w3.org/1999/xlink" x="0px" y="0px"
	 width="702px" height="539.885px" viewBox="0 0 702 539.885" enable-background="new 0 0 702 539.885" xml:space="preserve">
<path id="Union_7-2" fill="#FF003C" d="M544.25,6.002c44.842,0,81.52,37.039,81.52,82.316v348.229c0.002,4-0.287,7.994-0.862,11.952
	c3.337,0.412,6.745,0.719,10.193,0.894c27.642,1.398,51.959-2.281,52.409-2.735c-8.505,10.092-17.85,19.444-27.935,27.958
	c-18.235,15.399-42.7,30.8-64.938,27.513c-0.353-0.052-0.702-0.108-1.048-0.169c-14.116,10.951-31.474,16.896-49.34,16.898H90.525
	c-44.842,0-81.526-37.04-81.526-82.311V116.129C8.999,55.318,57.84,6.002,118.08,6.002H544.25z"/>
<path id="Union_8-2" fill="#FFFFFF" d="M539.571,13.003c43.989,0.127,79.617,35.758,79.742,79.747v337.365
	c0.004,7.221-0.98,14.408-2.925,21.363c3.615,0.675,7.271,1.108,10.943,1.3c26.938,1.35,56.577-3.856,57.229-4.329
	c-9.15,8.336-18.915,15.972-29.211,22.844c-19.147,12.781-44.593,25.564-66.489,22.357c-0.347-0.051-0.688-0.105-1.026-0.164
	c-13.847,10.622-30.812,16.376-48.263,16.371H95.744c-43.989-0.127-79.618-35.754-79.747-79.742V119.693
	c0.005-58.925,47.775-106.69,106.7-106.69H539.571z M684.567,448.439l-0.007,0.005l0.01-0.008L684.567,448.439z"/>
<g id="Group_5073" transform="translate(0)">
	<rect id="Rectangle_857" x="98.411" y="451.802" fill="#FF003C" width="424.317" height="5.337"/>
	<g id="Group_5071" transform="translate(0.001 28.196)">
		<path id="Path_14949" fill="#FF003C" d="M255.814,41.706h-157.4v5.336h156.365C255.014,45.244,255.359,43.462,255.814,41.706z"/>
		<path id="Path_14950" fill="#FF003C" d="M356.108,41.706c1.178,1.664,2.166,3.454,2.947,5.336h163.672v-5.336H356.108z"/>
	</g>
	<g id="Group_5072" transform="translate(166.09)">
		<path id="Path_14951" fill="#FF003C" d="M136.594,41.707v4.05c-12.08,6.95-19.534,15.761-22.362,26.434
			c3.063-1.991,5.849-2.987,8.355-2.989c4.122-0.031,8.028,1.837,10.592,5.065c2.91,3.461,4.448,7.871,4.322,12.391
			c0.113,5.134-1.951,10.077-5.681,13.607c-3.725,3.641-8.761,5.625-13.968,5.5c-5.526,0-10.149-2.333-13.867-7
			c-3.718-4.667-5.577-10.469-5.575-17.408c0-9.779,3.739-18.542,11.218-26.29C116.719,47.516,126.292,42.773,136.594,41.707z
			 M184.11,41.707v4.05c-12.078,6.95-19.532,15.761-22.362,26.434c3.063-1.989,5.873-2.985,8.427-2.989
			c4.099-0.018,7.979,1.85,10.522,5.065c2.908,3.462,4.444,7.871,4.316,12.391c0.118,5.126-1.928,10.066-5.638,13.607
			c-3.709,3.644-8.738,5.628-13.936,5.5c-5.569,0-10.203-2.333-13.9-7s-5.545-10.469-5.543-17.408
			c0-9.779,3.729-18.542,11.186-26.29C164.254,47.513,173.817,42.768,184.11,41.707z"/>
	</g>
</g>
</svg>
