<?xml version="1.0" encoding="utf-8"?>
<!-- Generator: Adobe Illustrator 24.1.1, SVG Export Plug-In . SVG Version: 6.00 Build 0)  -->
<svg version="1.1" id="Background" xmlns="http://www.w3.org/2000/svg" xmlns:xlink="http://www.w3.org/1999/xlink" x="0px" y="0px"
	 viewBox="0 0 1920 2149.3" style="enable-background:new 0 0 1920 2149.3;" xml:space="preserve">
<style type="text/css">
	.st0{fill:url(#Rectangle-2_2_);}
	.st1{clip-path:url(#SVGID_2_);}
	.st2{fill:url(#Rectangle-3_2_);}
	.st3{fill:url(#Rectangle-4_2_);}
	.st4{display:none;}
	.st5{display:inline;}
	.st6{fill:#D6E1FB;}
	.st7{fill:#86A7F3;}
	.st8{fill:#C1D2F9;}
	.st9{fill:#4A7CED;}
	.st10{display:inline;fill:none;stroke:#6B94F0;stroke-linecap:square;stroke-miterlimit:10;}
	.st11{fill:none;stroke:#6B94F0;stroke-linecap:square;stroke-miterlimit:10;}
</style>
<linearGradient id="Rectangle-2_2_" gradientUnits="userSpaceOnUse" x1="639.6667" y1="692.5343" x2="640.6667" y2="692.5343" gradientTransform="matrix(1920 0 0 763.1631 -1228160 -528135)">
	<stop  offset="0" style="stop-color:#5355EE"/>
	<stop  offset="1" style="stop-color:#30B2EA"/>
</linearGradient>
<path id="Rectangle-2" class="st0" d="M0,0h1920v762.5c0,0-75.6,4.5-150.6-9.2c-111.1-20.3-233-59.5-399.7-95
	c-74.7-15.9-138.4-19-207.1-15.9c-69.4,3-140.8,12.3-227.7,33.9c-182.2,45.3-336.9,70.8-433.7,77.1C255.5,769.2,0,711,0,711V0z"/>
<g>
	<g>
		<defs>
			<path id="SVGID_1_" d="M0,0h1920v762.5c0,0-75.6,4.5-150.6-9.2c-111.1-20.3-233-59.5-399.7-95c-74.7-15.9-138.4-19-207.1-15.9
				c-69.4,3-140.8,12.3-227.7,33.9c-182.2,45.3-336.9,70.8-433.7,77.1C255.5,769.2,0,711,0,711V0z"/>
		</defs>
		<clipPath id="SVGID_2_">
			<use xlink:href="#SVGID_1_"  style="overflow:visible;"/>
		</clipPath>
		<g id="Background-2" class="st1">
			
				<linearGradient id="Rectangle-3_2_" gradientUnits="userSpaceOnUse" x1="639.6667" y1="691.2345" x2="640.6667" y2="691.2345" gradientTransform="matrix(1920 0 0 325.3098 -1228160 -224163.2031)">
				<stop  offset="0" style="stop-color:#7EB2F2"/>
				<stop  offset="1" style="stop-color:#78C4F2"/>
			</linearGradient>
			<path id="Rectangle-3" class="st2" d="M0,864.8h1920V599.4c0,0-164.5-47.4-257.2-55.1c-92.7-7.7-182.7-5.4-268.1,1.7
				C1230.9,559.7,999,638.5,912,660.1c-182.2,45.3-331.8,85.1-410.9,93C231.7,780,0,711,0,711V864.8z"/>
			
				<linearGradient id="Rectangle-4_2_" gradientUnits="userSpaceOnUse" x1="639.6667" y1="691.0801" x2="640.6667" y2="691.0801" gradientTransform="matrix(1920 0 0 304.524 -1228160 -209717.9844)">
				<stop  offset="0" style="stop-color:#C0D1F9"/>
				<stop  offset="1" style="stop-color:#D0ECFA"/>
			</linearGradient>
			<path id="Rectangle-4" class="st3" d="M0,884.7h1920V641.6c0,0-37.6,3.2-82.3-19.3c-44.6-22.5-89.2-38.2-129.2-41
				c-101.3-7-180.1,22.4-272.1,53.3c-15.2,5.1-100.4,31-155.6,38.4c-179.1,23.8-462.1,36.3-532,50.6
				c-131.9,27.1-293.1-48.1-445.6-84.2c-57-13.5-97.2-17.9-137.9-19.4C82,616.8,0,651.5,0,651.5V884.7z"/>
		</g>
	</g>
</g>
<g id="TEXTURE_2" transform="translate(0 -1460.547)">
	<g id="Footer" transform="translate(1920 2058.671) rotate(180)" class="st4">
		<g id="Shape" transform="translate(0 -224)" class="st5">
			<path id="Rectangle" class="st6" d="M0-1401.9c40-6.5,79.7-15.2,118.7-26.1c64.8-18.1,184.7-28.3,218-30.6
				c58.1-4,335.7,58.6,347.4,60.5c92.4,15.2,210.9,8.6,349.9-21.3c18.7-4,89-18.1,109.6-19.9c10.1-0.9,108.6-12.9,203.4-15.9
				c95.4-3,344.9,38.8,344.9,38.8s22.6,5,38.7,7c37.9,4.7,45.5,6.3,77.8,7.5c39.4,1.5,111.6-1.1,111.6-1.1v646.3H0V-1401.9z"/>
			<path id="Rectangle-2_1_" class="st7" d="M0-1352.2l37.5-5.5c0,0,24.3,1.5,35.1,1.5c5.9,0,55.8,0.7,100.8-6.3
				c37.1-5.8,70.5-18,72.9-18.8c25-8.4,47-11.5,59.9-11.5s21.8,1.2,32.8,4.6c51.5,15.7,83.6,46.4,217.3,19.9
				c14.8-2.9,116.2-35.3,127.8-33.4c92.4,15.3,210.9,8.7,349.9-21.4c18.7-4,89-18.2,109.6-20c10.1-0.9,33.8,1.8,33.8,1.8
				s59.4,4.6,156.9,32.2c87.2,24.7,156.2,28.9,181.8,28.9c55.8,0,175.8-39.9,175.8-39.9s22.6,5,38.7,7c37.9,4.7,45.5,6.3,77.8,7.6
				c39.4,1.5,111.6-1.2,111.6-1.2v650H0"/>
			<path id="Rectangle-3_1_" class="st8" d="M0-1349.5l37.5-5.4c0,0,24.3,1.4,35.1,1.4c5.9,0,55.8,0.7,100.8-6.3
				c37.1-5.8,70.3-19.4,72.9-18.7c113.4,29,203.7,52.2,376.9,46c16.9-0.6,103.3-9.1,129.1-14.5c59.9-12.6,158.8-36.1,297.8-66
				c38.8-8.4,127.3-25.3,127.3-25.3s93.8-22.4,217.8-16.7c178.4,8.2,275.7,44.1,275.7,44.1s25,9.2,36.2,13.8
				c43.2,17.7,76.5,30.8,101.3,37.3c46.9,12.2,111.6,14,111.6,14v588.9H0"/>
			<path id="Rectangle-4_1_" class="st9" d="M0-1352.6l37.5-5.5c0,0,24.3,1.5,35.1,1.5c5.9,0,55.8,0.7,100.8-6.3
				c37.1-5.8,70.3-19.5,72.9-18.8c113.4,29.2,203.7,52.4,376.9,46.3c16.9-0.6,103.3-9.1,129.1-14.6c59.9-12.7,158.8-36.2,297.8-66.3
				c38.8-8.4,127.3-25.4,127.3-25.4s59.4,4.6,156.9,32.2c87.2,24.7,156.2,28.9,181.8,28.9c55.8,0,154.9-33.6,154.9-33.6
				s25,9.3,36.2,13.9c43.2,17.8,76.5,31,101.3,37.5c46.9,12.3,111.6,14.1,111.6,14.1v592H0"/>
		</g>
		<path id="Line_2" class="st10" d="M165.5-980.8h1589"/>
	</g>
	<g id="Footer-2" transform="translate(0 1684.547)">
		<g id="Shape-2" transform="translate(0 -224)">
			<path id="Rectangle-5" class="st6" d="M0,1514.7c40-6.4,79.7-14.9,118.7-25.6c64.8-17.8,184.7-27.8,218-30.1
				c58.1-3.9,335.7,57.6,347.4,59.5c92.4,15,210.9,8.5,349.9-20.9c18.7-4,89-17.8,109.6-19.5c10.1-0.9,108.6-12.7,203.4-15.7
				c95.4-3,344.9,38.1,344.9,38.1s22.6,4.9,38.7,6.9c37.9,4.6,45.5,6.2,77.8,7.4c39.4,1.4,111.6-1.1,111.6-1.1v635.8H0V1514.7z"/>
			<path id="Rectangle-6" class="st7" d="M0,1563.8l37.5-5.4c0,0,24.3,1.4,35.1,1.4c5.9,0,55.8,0.7,100.8-6.2
				c37.1-5.7,70.5-17.7,72.9-18.5c25-8.2,47-11.3,59.9-11.3s21.8,1.2,32.8,4.5c51.5,15.4,83.6,45.7,217.3,19.6
				c14.8-2.9,116.2-34.7,127.8-32.8c92.4,15.1,210.9,8.5,349.9-21c18.7-4,89-17.9,109.6-19.7c10.1-0.9,33.8,1.8,33.8,1.8
				s59.4,4.5,156.9,31.6c87.2,24.3,156.2,28.4,181.8,28.4c55.8,0,175.8-39.3,175.8-39.3s22.6,4.9,38.7,6.9
				c37.9,4.6,45.5,6.2,77.8,7.4c39.4,1.5,111.6-1.1,111.6-1.1v639.2H0"/>
			<path id="Rectangle-7" class="st8" d="M0,1566.3l37.5-5.3c0,0,24.3,1.4,35.1,1.4c5.9,0,55.8,0.7,100.8-6.2
				c37.1-5.7,70.3-19.1,72.9-18.4c113.4,28.5,203.7,51.3,376.9,45.3c16.9-0.6,103.3-8.9,129.1-14.3c59.9-12.4,158.8-35.5,297.8-64.9
				c38.8-8.2,127.3-24.8,127.3-24.8s93.8-22,217.8-16.4c178.4,8.1,275.7,43.3,275.7,43.3s25,9.1,36.2,13.6
				c43.2,17.4,76.5,30.3,101.3,36.7c46.9,12,111.6,13.8,111.6,13.8v579.3H0"/>
			<path id="Rectangle-8" class="st9" d="M0,1563.5l37.5-5.4c0,0,24.3,1.4,35.1,1.4c5.9,0,55.8,0.7,100.8-6.2
				c37.1-5.7,70.3-19.2,72.9-18.5c113.4,28.7,203.7,51.6,376.9,45.5c16.9-0.6,103.3-9,129.1-14.3c59.9-12.5,158.8-35.6,297.8-65.2
				c38.8-8.3,127.3-25,127.3-25s59.4,4.5,156.9,31.6c87.2,24.3,156.2,28.5,181.8,28.5c55.8,0,154.9-33,154.9-33s25,9.1,36.2,13.6
				c43.2,17.5,76.5,30.4,101.3,36.8c46.9,12.1,111.6,13.8,111.6,13.8v582.2H0"/>
		</g>
		<path id="Line_2-2" class="st11" d="M165.5,1925.3h1589"/>
	</g>
</g>
</svg>
