<svg xmlns="http://www.w3.org/2000/svg" xmlns:xlink="http://www.w3.org/1999/xlink" width="1921.4" height="1488.67" viewBox="0 0 1921.4 1488.67">
  <defs>
    <clipPath id="clip-path">
      <path id="Rectangle" d="M0,1.494S190.891-13.268,502.522,85.757c142.687,45.341,347.513,30.649,453.15,0,163.5-47.438,344.02-62.267,394.141-72.342s234.042-10.076,349.571,0S1921.4,49.972,1921.4,49.972V1486.9s-142.2,25-480.421-83.656c-108.446-34.84-341.15-54.118-553.81,12.646-79.189,24.861-289.2,65.547-459.531,65.547C172.447,1481.439,0,1436.1,0,1436.1Z" transform="translate(0 -0.715)" fill="#4a7ced"/>
    </clipPath>
    <linearGradient id="linear-gradient" x1="0.224" y1="0.5" x2="0.78" y2="0.363" gradientUnits="objectBoundingBox">
      <stop offset="0" stop-color="#86a7f3"/>
      <stop offset="1" stop-color="#86a7f3"/>
    </linearGradient>
    <linearGradient id="linear-gradient-2" x1="0.778" y1="-0.963" x2="0.221" y2="-0.963" gradientUnits="objectBoundingBox">
      <stop offset="0" stop-color="#c1d2f9"/>
      <stop offset="1" stop-color="#d6e1fb"/>
    </linearGradient>
    <linearGradient id="linear-gradient-3" x1="0.219" y1="1" x2="0.78" y2="0.85" xlink:href="#linear-gradient"/>
  </defs>
  <g id="Background" transform="translate(0)">
    <path id="Rectangle-2" data-name="Rectangle" d="M0,1.494S190.891-13.268,502.522,85.757c142.687,45.341,347.513,30.649,453.15,0,163.5-47.438,344.02-62.267,394.141-72.342s234.042-10.076,349.571,0S1921.4,49.972,1921.4,49.972V1486.9s-142.2,25-480.421-83.656c-108.446-34.84-341.15-54.118-553.81,12.646-79.189,24.861-289.2,65.547-459.531,65.547C172.447,1481.439,0,1436.1,0,1436.1Z" transform="translate(0 -0.715)" fill="#4a7ced"/>
    <g id="Background-2" data-name="Background" transform="translate(0 0)" clip-path="url(#clip-path)">
      <g id="wave2" transform="translate(2747.962 1567.09) rotate(180)">
        <path id="Path" d="M1668.825,209.6c-719.394,275-928.262-105.888-1130.073,0C232.859,370.918,0,185.926,0,185.926V0H3528.171V185.926s-219.1,81.284-334.823,91.25c-115.724,10.277-221.569-38.306-267.435-68.827-82.206-53.878-296.366-181.255-474.186-193.712S1737.271,183.746,1668.825,209.6Z" transform="translate(0 0)" opacity="0.33" fill="url(#linear-gradient)"/>
        <path id="Path-2" data-name="Path" d="M2589.677,208.748c-160.531,0-272.375-71.961-455.487-121.278-100.906-26.985-530.284-31.328-896.155,121.278s-323.533-106.7-526.4,0C408.209,366.937,0,123.449,0,123.449V0H3528.171V113.214s-99.494-57.382-324.945-57.382C2858.524,56.142,2736.8,208.748,2589.677,208.748Z" transform="translate(0 1.589)" opacity="0.66" fill="url(#linear-gradient-2)"/>
        <path id="Path-3" data-name="Path" d="M2702.932,90.379c-705.634-179.82-938.493,204.839-1393.98,60.982C853.817,5.629,853.817,16.887,652.006,64.423c-200.4,47.535-185.229,75.994-334.823,99.761C100.906,199.209,0,0,0,0H3528.171s-34.929,127.907-294.955,150.423S2926.97,146.983,2702.932,90.379Z" transform="translate(0 0)"/>
      </g>
      <g id="wave2-2" data-name="wave2" transform="translate(-740.94 -32.013)">
        <path id="Path-4" data-name="Path" d="M1611.455,141.156c-694.663,185.2-896.351-71.312-1091.224,0C224.854,249.8,0,125.216,0,125.216V0H3406.883V125.216s-211.568,54.743-323.313,61.454c-111.746,6.921-213.953-25.8-258.242-46.353-79.38-36.285-286.178-122.07-457.885-130.459S1677.549,123.748,1611.455,141.156Z" transform="translate(0 1.589)" opacity="0.33" fill="url(#linear-gradient-3)"/>
        <path id="Path-5" data-name="Path" d="M2610.013,61.551c-681.376-122.464-906.231,139.5-1346.059,41.531C824.466,3.834,824.466,11.5,629.592,43.874,436.081,76.247,450.731,95.628,306.279,111.815,97.437,135.668,0,0,0,0H3406.883s-33.728,87.109-284.815,102.444S2826.35,100.1,2610.013,61.551Z" transform="translate(0 0)"/>
      </g>
    </g>
  </g>
</svg>
