<?xml version="1.0" encoding="utf-8"?>
<!-- Generator: Adobe Illustrator 16.0.0, SVG Export Plug-In . SVG Version: 6.00 Build 0)  -->
<!DOCTYPE svg PUBLIC "-//W3C//DTD SVG 1.1//EN" "http://www.w3.org/Graphics/SVG/1.1/DTD/svg11.dtd">
<svg version="1.1" id="Layer_1" xmlns="http://www.w3.org/2000/svg" xmlns:xlink="http://www.w3.org/1999/xlink" x="0px" y="0px"
	 width="178.841px" height="26.232px" viewBox="0 0 178.841 26.232" enable-background="new 0 0 178.841 26.232"
	 xml:space="preserve">
<g id="Group_5343" transform="translate(172.756 20332.254)">
	<g id="Group_3329" transform="translate(2 24)">
		<path id="Path_12112" fill="#F8E71C" d="M-174.38-20330.098c2.398-0.008,4.798-0.02,7.196-0.021
			c5.424-0.004,10.847-0.031,16.269,0.004c14.147,0.09,28.296,0.014,42.442,0.041c0.312,0,0.623,0.016,0.934,0.023h11.606
			c16.758,0,33.514,0,50.272,0c16.195,0.004,32.391,0.012,48.584,0.029c0.966,0,1.166-0.137,1.162-0.633
			c-0.029-7.48-0.03-14.959,0-22.439c0-0.465-0.223-0.58-1.083-0.564c-9.067,0.166-18.136,0.318-27.206,0.459
			c-5.546,0.09-11.093,0.184-16.642,0.273c-10.625,0.188-21.248,0.375-31.872,0.566c-5.173,0.09-10.349,0.15-15.521,0.234
			c-7.073,0.119-14.145,0.242-21.216,0.371c-8.725,0.148-17.452,0.291-26.179,0.43c-5.952,0.098-11.902,0.197-17.854,0.299
			c-5.889,0.1-11.779,0.201-17.667,0.303c-0.998,0.018-1.992,0.061-2.989,0.063c-0.517,0-0.617,0.115-0.613,0.359
			c0.051,3.498,0.096,6.996,0.133,10.492c0.02,1.633,0.044,3.266,0.06,4.896c0.014,1.467,0.016,2.932,0.036,4.398
			C-174.526-20330.375-174.657-20330.211-174.38-20330.098z"/>
	</g>
</g>
</svg>
