<?xml version="1.0" encoding="utf-8"?>
<!-- Generator: Adobe Illustrator 16.0.0, SVG Export Plug-In . SVG Version: 6.00 Build 0)  -->
<!DOCTYPE svg PUBLIC "-//W3C//DTD SVG 1.1//EN" "http://www.w3.org/Graphics/SVG/1.1/DTD/svg11.dtd">
<svg version="1.1" id="Footer" xmlns="http://www.w3.org/2000/svg" xmlns:xlink="http://www.w3.org/1999/xlink" x="0px" y="0px"
	 width="1920px" height="590.775px" viewBox="0 0 1920 590.775" enable-background="new 0 0 1920 590.775" xml:space="preserve">
<path id="Rectangle" fill="#D6E1FB" d="M0,61.963c40.119-7.064,79.771-16.557,118.74-28.425C183.521,13.826,303.424,2.7,336.7,0.2
	c58.079-4.362,335.717,63.857,347.381,65.953c92.353,16.6,210.908,9.414,349.93-23.2c18.67-4.38,89-19.723,109.589-21.668
	c10.055-0.95,108.575-14.116,203.359-17.37c95.382-3.274,344.911,42.256,344.911,42.256s22.6,5.429,38.738,7.6
	c37.874,5.09,45.456,6.878,77.823,8.194c39.385,1.6,111.569-1.253,111.569-1.253v704.68H0V61.963z"/>
<path id="Rectangle-2" fill="#86A7F3" d="M0,117.639l37.47-5.941c0,0,24.267,1.579,35.072,1.579c5.923,0,55.812,0.774,100.79-6.878
	c37.08-6.308,70.514-19.612,72.851-20.463c24.968-9.093,47.029-12.515,59.947-12.515s21.784,1.32,32.809,4.964
	c51.515,17.028,83.644,50.524,217.331,21.655c14.841-3.2,116.151-38.425,127.815-36.322c92.353,16.655,210.908,9.447,349.93-23.28
	c18.671-4.395,89-19.792,109.589-21.744c10.055-0.953,33.76,1.952,33.76,1.952s59.409,4.97,156.884,34.991
	c87.206,26.859,156.228,31.469,181.812,31.469c55.759,0,175.813-43.44,175.813-43.44s22.6,5.448,38.738,7.625
	c37.875,5.108,45.457,6.9,77.824,8.222C1847.816,61.121,1920,58.257,1920,58.257v707.135H0"/>
<path id="Rectangle-3" fill="#C1D2F9" d="M0,119.462l37.47-5.924c0,0,24.267,1.575,35.072,1.575c5.923,0,55.812,0.772,100.79-6.859
	c37.08-6.29,70.251-21.13,72.851-20.405c113.43,31.613,203.692,56.851,376.939,50.179c16.89-0.65,103.321-9.908,129.084-15.821
	c59.892-13.746,158.8-39.3,297.825-71.931c38.81-9.111,127.332-27.533,127.332-27.533s93.847-24.394,217.844-18.157
	c178.375,8.978,275.707,48.014,275.707,48.014s24.979,10.049,36.178,15.041c43.195,19.253,76.49,33.567,101.34,40.61
	c46.941,13.3,111.569,15.238,111.569,15.238v641.9H0"/>
<path id="Rectangle-4" fill="#4A7CED" d="M0,117.403l37.47-5.943c0,0,24.267,1.58,35.072,1.58c5.923,0,55.812,0.774,100.79-6.88
	c37.08-6.31,70.251-21.2,72.851-20.47c113.43,31.714,203.692,57.032,376.939,50.339c16.89-0.653,103.321-9.94,129.084-15.872
	c59.892-13.79,158.8-39.421,297.825-72.16c38.81-9.14,127.331-27.621,127.331-27.621s59.409,4.972,156.884,35
	c87.206,26.868,156.229,31.481,181.813,31.481c55.758,0,154.854-36.529,154.854-36.529s24.978,10.081,36.178,15.089
	c43.195,19.314,76.49,33.674,101.341,40.739C1855.373,119.505,1920,121.447,1920,121.447v643.945H0"/>
<path id="Path_14130" fill="#FFFFFF" d="M471.722,279.604c0-0.359,0-0.718,0-1.077C471.868,278.871,471.868,279.26,471.722,279.604z
	"/>
<path id="Line_2" fill="none" stroke="#6B94F0" stroke-linecap="square" stroke-miterlimit="10" d="M198.6,499.78h1522.8"/>
</svg>
