<svg xmlns="http://www.w3.org/2000/svg" width="437.832" height="525.407" viewBox="0 0 437.832 525.407">
  <g id="Group_5133" data-name="Group 5133" transform="translate(-968.88 238.867) rotate(-19)">
    <g id="Group_3236" data-name="Group 3236" transform="translate(950.611 168.346)">
      <path id="Path_11917" data-name="Path 11917" d="M1110.33,276.472s-75.137,28.415-85.029,46.137-34.278,129.768-34.278,129.768-36.562,21.949-38.908,30.34-3.508,12.775,8.779,17.7,67.375,14.46,79.335,4.322,41.571-130.674,48-135.726S1161.3,347,1161.3,347C1178.8,339.382,1123.678,263.234,1110.33,276.472Z" transform="translate(-950.611 -62.314)" fill="#006bbd"/>
      <path id="Path_11918" data-name="Path 11918" d="M1030.929,364.172c-11.405-2.162-23.654-6.925-32.326-14.966-4.461,19.229-7.582,33.569-7.582,33.569s-36.562,21.949-38.908,30.34-3.508,12.775,8.779,17.7,67.375,14.46,79.335,4.322c5.895-5,16.076-36.808,25.656-68.394-1.427-.271-2.851-.568-4.273-.876A115.03,115.03,0,0,1,1030.929,364.172Z" transform="translate(-950.611 7.287)" fill="#006bbd"/>
      <path id="Path_11919" data-name="Path 11919" d="M1231.7,248.32c-1,10.741-5.333,46.9-20.537,84.212-15.566,38.2-48.03,80.973-57.047,92.491a6.357,6.357,0,0,1-6.22,2.278,216.2,216.2,0,0,1-27.16-7.384c-24.618-8.327-50.432-21.058-67.759-34.042l92.3-179.556,2.288-4.448c26.92,7.442,59.437,23.851,81.81,41.2A5.947,5.947,0,0,1,1231.7,248.32Z" transform="translate(-854.683 -130.776)" fill="#006bbd"/>
      <path id="Path_11920" data-name="Path 11920" d="M1193.3,338.886a253.314,253.314,0,0,1-16.911-25.323c-17.929-30.373-31.71-63.1-44.568-95.875l-78.839,153.365c17.327,12.984,43.14,25.715,67.759,34.042a216.193,216.193,0,0,0,27.16,7.384,6.357,6.357,0,0,0,6.22-2.278c6.89-8.8,27.466-35.847,43.735-65.157A28.286,28.286,0,0,1,1193.3,338.886Z" transform="translate(-854.683 -115.954)" fill="#006bbd"/>
      <path id="Path_11921" data-name="Path 11921" d="M1199.662,239.8c-1,10.747-5.331,46.9-20.535,84.218-15.566,38.189-48.03,80.967-57.041,92.485a6.045,6.045,0,0,1-1.346,1.265c-24.618-8.327-50.432-21.058-67.759-34.042l92.3-179.556c18.755,8.267,37.542,19.123,52.057,30.377A5.943,5.943,0,0,1,1199.662,239.8Z" transform="translate(-854.683 -128.624)" fill="#006bbd"/>
      <path id="Path_11922" data-name="Path 11922" d="M1181.744,238.326c-.062,32.409-27.5,58.616-61.223,58.474-33.657-.143-60.745-26.486-60.56-58.78.184-32.231,27.471-58.29,61.008-58.261C1154.571,179.786,1181.808,205.981,1181.744,238.326Z" transform="translate(-848.144 -151.496)" fill="#006bbd"/>
      <path id="Path_11923" data-name="Path 11923" d="M1032.711,363.2c-4.692,7.289-7.607,13.561-7.436,17.734.8,19.464,38.034,123.228,38.034,123.228s-19.7,34.123-17.385,41.976,3.574,11.913,16.457,10.631c12.977-1.292,65.554-17.571,70.794-31.332,5.275-13.846-31.905-128.883-28.887-136.28,3.028-7.425,60.08-57.337,60.08-57.337,33.8-32.287-59.3-44.167-72.832-36.229,0,0-41.513,40.723-58.825,67.609Z" transform="translate(-880.653 -45.183)" fill="#006bbd"/>
      <path id="Path_11924" data-name="Path 11924" d="M1091.07,388.64c-6.54,4.145-14.224,7.816-21.873,9.279-8.432,1.61-16.459,1.261-24.943,1.164-.306,0-.609-.014-.911-.031,5.736,16.67,10.065,28.734,10.065,28.734s-19.7,34.123-17.385,41.976,3.574,11.913,16.457,10.631c12.977-1.292,65.554-17.571,70.794-31.332,2.745-7.2-6-41.775-14.594-74.341A120.728,120.728,0,0,1,1091.07,388.64Z" transform="translate(-870.752 31.195)" fill="#006bbd"/>
      <path id="Path_11925" data-name="Path 11925" d="M1032.328,344.752s16.05-68.466,24.419-83.921c5.976-11.037,13.306-21.833,22.212-30.885,9.695-9.85,18.753-13.131,32.661-9.511,21.649,5.633,42.805,13.862,61.657,25.788,17.569,11.119,37.885,27.041,38.565,49.134.43,13.937-9.687,26.317-16.42,37.895-10.883,18.71-22.523,37.033-34.416,55.179q-1.159,1.767-2.322,3.529s-71.592-5.658-80.284-8.488S1032.328,344.752,1032.328,344.752Z" transform="translate(-874.037 -114.72)" fill="#006bbd"/>
      <path id="Path_11926" data-name="Path 11926" d="M1090.984,275.847c-.043.552-.066,1.1-.068,1.635-.073,19.388,26.658,28.337,42.77,28.444,6.859.045,28.576-3.248,28.587-9.732l-6.929-12.831c-1.633-2.828-5.083-1.12-6.532-2.76a33.832,33.832,0,0,0-18.863-10.989c-4.86-4.473-11.1-9.883-19.423-9.927C1100.9,259.636,1091.676,266.878,1090.984,275.847Z" transform="translate(-819.136 -76.599)" fill="#006bbd"/>
      <path id="Path_11927" data-name="Path 11927" d="M1088.339,276.946a16.392,16.392,0,0,0-.186,2.423c-.035,8.267,5.741,17.488,14.328,17.54,6.977.045,12.517-5.311,12.548-14.34.023-7.049-10.216-29.827-23.055-29.889-7-.035-11.066,4.539-11.091,10.181-.033,7.481,7.551,9.126,7.533,13.122A6.478,6.478,0,0,1,1088.339,276.946Z" transform="translate(-828.538 -83.164)" fill="#006bbd"/>
      <path id="Path_11928" data-name="Path 11928" d="M1097.871,332.424c.019-2.689-4.479-27.055-4.479-27.055s-10.65-9.5-15.28-13.124-69.368-45.98-69.368-45.98l-21.91-12.018-6.59-29.8,23.148-14.991,12.719,5.371,27.832,13.449,61.091,29.256L1151.126,248Z" transform="translate(-922.843 -142.41)" fill="#006bbd"/>
      <path id="Path_11929" data-name="Path 11929" d="M990.516,175.178s-29.165-1.065-31.39,3.481-1.4,8.461,1.393,10.8,17.689.017,17.689.017l16.426,2.7Z" transform="translate(-943.83 -155.891)" fill="#006bbd"/>
      <path id="Path_11930" data-name="Path 11930" d="M990.2,179.664s-28.655,5.767-29.685,10.693.751,8.527,4.062,10.137,17.224-4.11,17.224-4.11l16.663-1.213Z" transform="translate(-941.604 -151.585)" fill="#006bbd"/>
      <path id="Path_11931" data-name="Path 11931" d="M991.837,182.518s-27.894,8.692-28.372,13.693,1.695,8.4,5.17,9.654S985.33,200,985.33,200l16.459-2.927Z" transform="translate(-938.628 -148.911)" fill="#006bbd"/>
      <path id="Path_11932" data-name="Path 11932" d="M1012.371,255.9c7.69-6.146,13.5-37.79,10.569-43.687-6.3-12.67-17.466-30.145-20.573-31.954-4.51-2.629-34.247-17.676-38.083-14.7s-6.962,7.165-3.206,11.012,18.007,9.633,18.007,9.633l11.727,22.439s2.675,21.592,12.833,23.543C1007.646,232.951,1009.089,258.523,1012.371,255.9Z" transform="translate(-942.391 -165.168)" fill="#006bbd"/>
      <path id="Path_11933" data-name="Path 11933" d="M994.918,241.455a22.233,22.233,0,0,1-7.81-3.438c-3.216-2.073-6.369-4.757-7.828-8.31-3.216-7.822-2.435-18.979-3.229-21.689s-6.392-18.16-3.713-22.135,9.792-6.832,14.168.014,3.334,12.424,5.286,14.817c3.285,4.021,7.382,7.105,10,11.7,3.413,6.007,3.971,14.02,2.815,20.723-.589,3.407-2.055,7.285-5.906,8.238A9.161,9.161,0,0,1,994.918,241.455Z" transform="translate(-930.927 -149.617)" fill="#006bbd"/>
      <path id="Path_11934" data-name="Path 11934" d="M1097.379,271.269c.153,0,.261.035.38.037,4.169.021,4.213-20.653,17.281-20.591,4.577.021,9,3.035,8.984,7.766-.01,4.155-3.177,8.4-3.188,12.682-.006,2.255.775,4.852,3.25,4.866,4.457.025,5.941-15.527,16.7-15.473,4.874.025,7.69,3.522,7.682,7.828-.01,4.721-8.167,12.728-8.172,15.487a1.728,1.728,0,0,0,1.557,1.9c3.878.021,10.739-7.524,16.248-7.493,3.857.021,7.286,3.6,7.282,6.919-.008,5.5-12.091,8.314-12.1,11.363,0,.672.671.924,1.375.928,1.945.012,5.341-1.577,8.231-1.559,3.816.023,7.57,2.766,7.566,6.361-.01,7.283-14.784,8.957-19.841,8.922-32.779-.213.182-23.072-46.122-35.138A13.9,13.9,0,0,1,1097.379,271.269Z" transform="translate(-813.08 -85.006)" fill="#006bbd"/>
      <path id="Path_11935" data-name="Path 11935" d="M1121.145,281.144a40.88,40.88,0,0,1-16.7-1.294c-20.291-5.313-40.807-21.486-40.807-21.486s-8.513-11.6-2.629-38.23c3.373-15.235,13.525-25.11,21.581-30.766a56.281,56.281,0,0,1,10.842-6.09,158.317,158.317,0,0,1,28.033,16.951c14.125,10.76,24.912,25.052,28.961,41.827C1154.468,258.86,1144.919,277.292,1121.145,281.144Z" transform="translate(-849.107 -148.198)" fill="#006bbd"/>
      <path id="Path_11936" data-name="Path 11936" d="M1104.44,276.9c-20.291-5.313-40.807-21.486-40.807-21.486s-8.513-11.6-2.629-38.23c3.373-15.235,13.525-25.11,21.581-30.766a156.777,156.777,0,0,1,16.4,10.861c14.133,10.76,24.918,25.052,28.961,41.827C1131.654,254.481,1123.979,271.217,1104.44,276.9Z" transform="translate(-849.107 -145.252)" fill="#006bbd"/>
      <path id="Path_11937" data-name="Path 11937" d="M1059.227,240.005l25.256,12.6-21.34,55.436-23.8-12.693Z" transform="translate(-867.458 -95.041)" fill="#006bbd"/>
      <path id="Path_11938" data-name="Path 11938" d="M1073.606,248.057l25.32,12.636-21.337,55.525-23.856-12.726Z" transform="translate(-853.978 -87.496)" fill="#006bbd"/>
      <g id="Group_3194" data-name="Group 3194" transform="translate(3.124 424.327)">
        <path id="Path_11939" data-name="Path 11939" d="M1012.791,402.215q-.622,0-1.244-.008c-18.094-.232-37.769-5.344-58.48-15.194a1.455,1.455,0,0,1-.693-1.96,1.507,1.507,0,0,1,2-.68c20.312,9.662,39.563,14.675,57.215,14.9a83.843,83.843,0,0,0,22.941-2.762,1.5,1.5,0,0,1,1.838,1.025,1.465,1.465,0,0,1-1.044,1.8A86.4,86.4,0,0,1,1012.791,402.215Z" transform="translate(-952.224 -384.225)" fill="#006bbd"/>
      </g>
      <g id="Group_3195" data-name="Group 3195" transform="translate(172.513 476.961)">
        <path id="Path_11940" data-name="Path 11940" d="M1041.163,441.71a1.489,1.489,0,0,1-1.469-1.2,1.469,1.469,0,0,1,1.2-1.707c14.615-2.636,45.626-12.051,71.164-27.191a1.507,1.507,0,0,1,2.051.5,1.454,1.454,0,0,1-.506,2.015c-25.881,15.343-57.339,24.891-72.169,27.564A1.457,1.457,0,0,1,1041.163,441.71Z" transform="translate(-1039.67 -411.397)" fill="#006bbd"/>
      </g>
      <g id="Group_3196" data-name="Group 3196" transform="translate(211.495 339.063)">
        <path id="Path_11941" data-name="Path 11941" d="M1066.891,343.838a1.487,1.487,0,0,1-.26-.023l-.744-.13a27.331,27.331,0,0,0-4.614-.542,1.468,1.468,0,1,1,.029-2.935,30.288,30.288,0,0,1,5.11.589l.734.128a1.471,1.471,0,0,1,1.215,1.7A1.487,1.487,0,0,1,1066.891,343.838Z" transform="translate(-1059.794 -340.208)" fill="#006bbd"/>
      </g>
      <g id="Group_3197" data-name="Group 3197" transform="translate(212.292 328.684)">
        <path id="Path_11942" data-name="Path 11942" d="M1068.5,346.32a1.508,1.508,0,0,1-1.17-.552c-.318-.391-.827-.986-1.427-1.687a52.671,52.671,0,0,1-5.536-7.109,1.454,1.454,0,0,1,.67-1.966,1.506,1.506,0,0,1,2,.657,58.149,58.149,0,0,0,5.149,6.53c.622.726,1.149,1.34,1.478,1.745a1.449,1.449,0,0,1-.236,2.061A1.5,1.5,0,0,1,1068.5,346.32Z" transform="translate(-1060.206 -334.85)" fill="#006bbd"/>
      </g>
      <g id="Group_3198" data-name="Group 3198" transform="translate(125.024 299.976)">
        <path id="Path_11943" data-name="Path 11943" d="M1021.538,325.871a1.521,1.521,0,0,1-.775-.211,17.183,17.183,0,0,1-1.708-1.215,6.407,6.407,0,0,0-2.662-1.5,1.469,1.469,0,0,1-1.216-1.7,1.489,1.489,0,0,1,1.728-1.193,8.951,8.951,0,0,1,4.006,2.092,14.083,14.083,0,0,0,1.4,1.005,1.45,1.45,0,0,1,.5,2.015A1.5,1.5,0,0,1,1021.538,325.871Z" transform="translate(-1015.154 -320.029)" fill="#006bbd"/>
      </g>
      <g id="Group_3199" data-name="Group 3199" transform="translate(130.289 297.159)">
        <path id="Path_11944" data-name="Path 11944" d="M1020.985,324.068a1.512,1.512,0,0,1-1.06-.432,8.35,8.35,0,0,1-1.978-3.138,1.459,1.459,0,0,1,.953-1.85,1.5,1.5,0,0,1,1.887.936,5.468,5.468,0,0,0,1.257,1.984,1.446,1.446,0,0,1-.006,2.075A1.509,1.509,0,0,1,1020.985,324.068Z" transform="translate(-1017.872 -318.575)" fill="#006bbd"/>
      </g>
      <g id="Group_3200" data-name="Group 3200" transform="translate(161.689 249.934)">
        <path id="Path_11945" data-name="Path 11945" d="M1035.576,347.493a1.508,1.508,0,0,1-.942-.329,1.445,1.445,0,0,1-.215-2.063c12.44-14.985,32.634-37.215,48.6-50.555a1.514,1.514,0,0,1,2.108.167,1.448,1.448,0,0,1-.168,2.067c-15.816,13.213-35.863,35.286-48.225,50.174A1.5,1.5,0,0,1,1035.576,347.493Z" transform="translate(-1034.082 -294.195)" fill="#006bbd"/>
      </g>
      <g id="Group_3201" data-name="Group 3201" transform="translate(273.828 139.518)">
        <path id="Path_11946" data-name="Path 11946" d="M1093.468,263.784a1.523,1.523,0,0,1-.612-.128,1.457,1.457,0,0,1-.751-1.939,46.076,46.076,0,0,1,28.384-24.457,1.5,1.5,0,0,1,1.867.972,1.462,1.462,0,0,1-.992,1.832,43.062,43.062,0,0,0-26.532,22.854A1.493,1.493,0,0,1,1093.468,263.784Z" transform="translate(-1091.973 -237.194)" fill="#006bbd"/>
      </g>
      <g id="Group_3202" data-name="Group 3202" transform="translate(189.743 103.48)">
        <path id="Path_11947" data-name="Path 11947" d="M1050.061,250.545a1.5,1.5,0,0,1-.5-.085,1.462,1.462,0,0,1-.911-1.873c3.773-10.439,8.667-22.207,19.036-29.711a1.513,1.513,0,0,1,2.09.31,1.449,1.449,0,0,1-.314,2.051c-9.691,7.012-14.369,18.3-17.994,28.33A1.5,1.5,0,0,1,1050.061,250.545Z" transform="translate(-1048.565 -218.589)" fill="#006bbd"/>
      </g>
      <g id="Group_3203" data-name="Group 3203" transform="translate(200.174 112.022)">
        <path id="Path_11948" data-name="Path 11948" d="M1055.446,233.614a1.5,1.5,0,0,1-.409-.056,1.464,1.464,0,0,1-1.031-1.811c1-3.462,3.237-5.9,5.4-8.262a1.519,1.519,0,0,1,2.114-.11,1.447,1.447,0,0,1,.112,2.071c-2.026,2.21-3.936,4.3-4.748,7.1A1.493,1.493,0,0,1,1055.446,233.614Z" transform="translate(-1053.95 -222.999)" fill="#006bbd"/>
      </g>
      <g id="Group_3204" data-name="Group 3204" transform="translate(211.169 111.755)">
        <path id="Path_11949" data-name="Path 11949" d="M1125.263,251.392h-.422c-25.707-.1-49.331-9.6-64.82-26.069a1.45,1.45,0,0,1,.086-2.073,1.516,1.516,0,0,1,2.113.083c14.923,15.867,37.754,25.025,62.633,25.124a99.9,99.9,0,0,0,25.719-3.223,1.5,1.5,0,0,1,1.828,1.04,1.462,1.462,0,0,1-1.06,1.794A103.081,103.081,0,0,1,1125.263,251.392Z" transform="translate(-1059.626 -222.861)" fill="#006bbd"/>
      </g>
      <g id="Group_3205" data-name="Group 3205" transform="translate(212.015 118.888)">
        <path id="Path_11950" data-name="Path 11950" d="M1120.178,253.7a1.431,1.431,0,0,1-.312-.033l-2.693-.556c-20.649-4.265-42-8.678-56.708-24.1a1.448,1.448,0,0,1,.072-2.075,1.511,1.511,0,0,1,2.111.07c14.061,14.749,34.945,19.063,55.141,23.235l2.7.558a1.466,1.466,0,0,1,1.152,1.738A1.488,1.488,0,0,1,1120.178,253.7Z" transform="translate(-1060.063 -226.544)" fill="#006bbd"/>
      </g>
      <g id="Group_3206" data-name="Group 3206" transform="translate(303.817 96.599)">
        <path id="Path_11951" data-name="Path 11951" d="M1114.167,237.23c-3.785-.014-6.724-3.219-6.712-7.3.012-4.858,4.19-10.425,8.31-13.412a8.5,8.5,0,0,1,4.909-1.482c4.362.014,6.944,2.8,6.934,7.452-.008,3.539-1.925,7.518-5.127,10.642C1119.81,235.736,1116.782,237.23,1114.167,237.23Zm6.507-19.258a5.5,5.5,0,0,0-3.133.907c-3.432,2.489-7.087,7.214-7.1,11.061-.006,2.09,1.412,4.349,3.711,4.356,1.788,0,4.165-1.242,6.218-3.245,2.613-2.549,4.24-5.832,4.246-8.568.01-4.5-2.954-4.509-3.928-4.511Z" transform="translate(-1107.455 -215.037)" fill="#006bbd"/>
      </g>
      <g id="Group_3207" data-name="Group 3207" transform="translate(262.049 203.948)">
        <path id="Path_11952" data-name="Path 11952" d="M1132.925,297.4h-.228c-14.4-.1-26.09-9.145-33.629-15.944a13.786,13.786,0,0,0-4.428-2.069c-3.405-1.18-7.642-2.646-8.707-7.136a1.465,1.465,0,0,1,1.116-1.761,1.5,1.5,0,0,1,1.8,1.1c.694,2.923,3.655,3.948,6.789,5.034a15.619,15.619,0,0,1,5.457,2.675c11.558,10.421,21.311,15.1,31.626,15.169.934.008,1.877-.027,2.811-.1a1.467,1.467,0,1,1,.238,2.923C1134.824,297.366,1133.869,297.4,1132.925,297.4Z" transform="translate(-1085.893 -270.455)" fill="#006bbd"/>
      </g>
      <g id="Group_3208" data-name="Group 3208" transform="translate(290.528 146.396)">
        <path id="Path_11953" data-name="Path 11953" d="M1102.089,250.5a1.511,1.511,0,0,1-.972-.353,1.45,1.45,0,0,1-.163-2.069,22.487,22.487,0,0,1,12.486-7.311,1.491,1.491,0,0,1,1.751,1.164,1.47,1.47,0,0,1-1.187,1.716,19.448,19.448,0,0,0-10.778,6.338A1.5,1.5,0,0,1,1102.089,250.5Z" transform="translate(-1100.595 -240.745)" fill="#006bbd"/>
      </g>
      <g id="Group_3209" data-name="Group 3209" transform="translate(257.971 180.899)">
        <path id="Path_11954" data-name="Path 11954" d="M1091.868,267.555h-.078a11.15,11.15,0,0,1-7.529-2.758,1.446,1.446,0,0,1-.07-2.073,1.514,1.514,0,0,1,2.112-.07,8.15,8.15,0,0,0,5.505,1.966c2.509,0,7.214-1,7.719-4.788a1.5,1.5,0,0,1,1.676-1.263,1.47,1.47,0,0,1,1.288,1.645C1101.817,265.266,1096.527,267.555,1091.868,267.555Z" transform="translate(-1083.788 -258.556)" fill="#006bbd"/>
      </g>
      <g id="Group_3210" data-name="Group 3210" transform="translate(292.753 176.212)">
        <path id="Path_11955" data-name="Path 11955" d="M1108.993,261.745h-.064c-3.2-.017-5.616-1.185-6.97-3.38a1.45,1.45,0,0,1,.5-2.015,1.51,1.51,0,0,1,2.054.494c.8,1.294,2.29,1.956,4.43,1.968a12.39,12.39,0,0,0,3.023-.387,1.5,1.5,0,0,1,1.821,1.056,1.466,1.466,0,0,1-1.077,1.786A15.509,15.509,0,0,1,1108.993,261.745Z" transform="translate(-1101.743 -256.137)" fill="#006bbd"/>
      </g>
      <g id="Group_3211" data-name="Group 3211" transform="translate(154.344 213.582)">
        <path id="Path_11956" data-name="Path 11956" d="M1063.919,322.293a1.485,1.485,0,0,1-1.476-1.253c-3.909-26.143-25.461-40.514-29.72-42.5a1.515,1.515,0,0,1-1.426.242,1.461,1.461,0,0,1-.924-1.865,2.191,2.191,0,0,1,2.125-1.484c2.813.017,28.508,15.793,32.9,45.184a1.471,1.471,0,0,1-1.263,1.664A1.7,1.7,0,0,1,1063.919,322.293Z" transform="translate(-1030.291 -275.429)" fill="#006bbd"/>
      </g>
      <g id="Group_3212" data-name="Group 3212" transform="translate(158.938 210.109)">
        <path id="Path_11957" data-name="Path 11957" d="M1070.049,313.689a1.5,1.5,0,0,1-1.273-.7c-8.269-13.149-18.563-29.513-35.21-36.543a1.457,1.457,0,0,1-.783-1.927,1.5,1.5,0,0,1,1.964-.767c17.513,7.394,28.082,24.2,36.572,37.7a1.448,1.448,0,0,1-.486,2.018A1.5,1.5,0,0,1,1070.049,313.689Z" transform="translate(-1032.662 -273.636)" fill="#006bbd"/>
      </g>
      <g id="Group_3213" data-name="Group 3213" transform="translate(213.762 256.395)">
        <path id="Path_11958" data-name="Path 11958" d="M1114.982,346.9c-.046,0-.093,0-.139-.006a1.478,1.478,0,0,1-1.35-1.6c.079-.835.122-1.685.126-2.528.095-23.806-32.655-42.183-49.079-42.305-.659,0-1.335.012-1.991.05a1.467,1.467,0,1,1-.178-2.929c.723-.043,1.459-.058,2.191-.056,9.416.072,22.262,5.193,32.73,13.048,12.5,9.379,19.361,20.818,19.316,32.206,0,.928-.051,1.867-.138,2.787A1.487,1.487,0,0,1,1114.982,346.9Z" transform="translate(-1060.965 -297.531)" fill="#006bbd"/>
      </g>
      <g id="Group_3214" data-name="Group 3214" transform="translate(220.562 251.006)">
        <path id="Path_11959" data-name="Path 11959" d="M1113.1,326.4a1.5,1.5,0,0,1-1.368-.875c-7.43-16.512-25.6-27.7-45.205-27.845l-.55,0a1.467,1.467,0,1,1-.016-2.933h.587c20.763.153,40.02,12.045,47.917,29.595a1.457,1.457,0,0,1-.763,1.935A1.506,1.506,0,0,1,1113.1,326.4Z" transform="translate(-1064.475 -294.749)" fill="#006bbd"/>
      </g>
      <g id="Group_3215" data-name="Group 3215" transform="translate(228.085 232.263)">
        <path id="Path_11960" data-name="Path 11960" d="M1122.711,308.883a1.572,1.572,0,0,1-.25-.019c-19.847-3.268-38.108-12.477-53.353-21.052a1.454,1.454,0,0,1-.552-2,1.511,1.511,0,0,1,2.04-.542c15.014,8.448,32.976,17.513,52.361,20.7a1.465,1.465,0,0,1-.246,2.913Z" transform="translate(-1068.359 -285.073)" fill="#006bbd"/>
      </g>
      <g id="Group_3216" data-name="Group 3216" transform="translate(232.054 224.691)">
        <path id="Path_11961" data-name="Path 11961" d="M1081.62,288.715a50.875,50.875,0,0,1-10.546-4.864,1.448,1.448,0,0,1-.416-2.032,1.515,1.515,0,0,1,2.073-.411,47.813,47.813,0,0,0,9.937,4.56Z" transform="translate(-1070.408 -281.164)" fill="#006bbd"/>
      </g>
      <g id="Group_3217" data-name="Group 3217" transform="translate(171.895 104.778)">
        <path id="Path_11962" data-name="Path 11962" d="M1041.125,276.017a1.484,1.484,0,0,1-1.489-1.366c-.207-2.966-.3-5.918-.283-8.775.132-19.287,5.352-34.805,15.514-46.12a1.515,1.515,0,0,1,2.109-.132,1.449,1.449,0,0,1,.132,2.071c-9.67,10.77-14.638,25.641-14.766,44.2-.02,2.784.073,5.662.277,8.554a1.479,1.479,0,0,1-1.389,1.565C1041.2,276.017,1041.161,276.017,1041.125,276.017Z" transform="translate(-1039.351 -219.259)" fill="#006bbd"/>
      </g>
      <g id="Group_3218" data-name="Group 3218" transform="translate(116.414 107.707)">
        <path id="Path_11963" data-name="Path 11963" d="M1012.206,231.719a1.434,1.434,0,0,1-.2-.014,1.473,1.473,0,0,1-1.28-1.65,22.24,22.24,0,0,1,2.789-8.564,1.516,1.516,0,0,1,2.048-.517,1.451,1.451,0,0,1,.527,2.009,19.48,19.48,0,0,0-2.4,7.465A1.485,1.485,0,0,1,1012.206,231.719Z" transform="translate(-1010.709 -220.771)" fill="#006bbd"/>
      </g>
      <g id="Group_3219" data-name="Group 3219" transform="translate(122.544 110.52)">
        <path id="Path_11964" data-name="Path 11964" d="M1015.37,231.427a1.51,1.51,0,0,1-.43-.064,1.461,1.461,0,0,1-1-1.825,18.838,18.838,0,0,1,3.142-5.664c.238-.331.48-.668.723-1.015a1.512,1.512,0,0,1,2.079-.378,1.451,1.451,0,0,1,.385,2.04c-.25.356-.5.705-.746,1.046a16.378,16.378,0,0,0-2.718,4.812A1.494,1.494,0,0,1,1015.37,231.427Z" transform="translate(-1013.874 -222.224)" fill="#006bbd"/>
      </g>
      <g id="Group_3220" data-name="Group 3220" transform="translate(74.946 261.906)">
        <path id="Path_11965" data-name="Path 11965" d="M1006.283,311.874a1.505,1.505,0,0,1-1.059-.434c-2.406-2.379-5.474-3.708-8.723-5.118a46.133,46.133,0,0,1-6.518-3.248,1.453,1.453,0,0,1-.44-2.03,1.512,1.512,0,0,1,2.067-.432,43.007,43.007,0,0,0,6.1,3.028c3.359,1.457,6.832,2.964,9.635,5.734a1.449,1.449,0,0,1-.008,2.075A1.5,1.5,0,0,1,1006.283,311.874Z" transform="translate(-989.302 -300.376)" fill="#006bbd"/>
      </g>
      <g id="Group_3221" data-name="Group 3221" transform="translate(80.06 257.022)">
        <path id="Path_11966" data-name="Path 11966" d="M1004.956,307.91a1.507,1.507,0,0,1-1.172-.554c-1.662-2.057-4.13-3.233-6.741-4.477a42.186,42.186,0,0,1-4.413-2.325,1.449,1.449,0,0,1-.451-2.026,1.512,1.512,0,0,1,2.065-.442,39.9,39.9,0,0,0,4.1,2.152c2.8,1.335,5.691,2.714,7.777,5.292a1.448,1.448,0,0,1-.242,2.061A1.5,1.5,0,0,1,1004.956,307.91Z" transform="translate(-991.942 -297.855)" fill="#006bbd"/>
      </g>
      <g id="Group_3222" data-name="Group 3222" transform="translate(149.832 332.918)">
        <path id="Path_11967" data-name="Path 11967" d="M1029.7,341.587c-.089,0-.176,0-.263,0a1.467,1.467,0,1,1,.014-2.933l.256,0a47.993,47.993,0,0,0,7.529-.79,48.14,48.14,0,0,1,8.275-.825,1.467,1.467,0,1,1-.029,2.933,46.267,46.267,0,0,0-7.772.79A51.369,51.369,0,0,1,1029.7,341.587Z" transform="translate(-1027.961 -337.036)" fill="#006bbd"/>
      </g>
      <g id="Group_3223" data-name="Group 3223" transform="translate(151.355 324.027)">
        <path id="Path_11968" data-name="Path 11968" d="M1030.244,336.7a1.5,1.5,0,0,1-1.294-.73,1.451,1.451,0,0,1,.542-2,13.482,13.482,0,0,1,7.161-1.517c.533.006,1.067.021,1.6.037.521.015,1.046.033,1.571.037.761.006,1.385-.01,1.962-.056a1.491,1.491,0,0,1,1.61,1.346,1.475,1.475,0,0,1-1.371,1.579c-.666.052-1.375.07-2.23.066-.546-.006-1.09-.023-1.633-.039-.517-.016-1.031-.031-1.542-.035a10.623,10.623,0,0,0-5.631,1.118A1.5,1.5,0,0,1,1030.244,336.7Z" transform="translate(-1028.747 -332.446)" fill="#006bbd"/>
      </g>
      <g id="Group_3224" data-name="Group 3224" transform="translate(174.719 410.054)">
        <path id="Path_11969" data-name="Path 11969" d="M1042.3,397.594a1.468,1.468,0,1,1-.008-2.935c25.5-.118,45.3-5.987,58.848-17.447a1.516,1.516,0,0,1,2.109.155,1.448,1.448,0,0,1-.157,2.069c-14.1,11.927-34.555,18.036-60.787,18.158Z" transform="translate(-1040.809 -376.857)" fill="#006bbd"/>
      </g>
      <g id="Group_3225" data-name="Group 3225" transform="translate(47.893 357.91)">
        <path id="Path_11970" data-name="Path 11970" d="M1039.5,368.408c-.029,0-.06,0-.091,0a176.861,176.861,0,0,1-63.218-15.675,1.457,1.457,0,0,1-.711-1.954,1.509,1.509,0,0,1,1.99-.7,173.763,173.763,0,0,0,62.122,15.4,1.466,1.466,0,0,1-.091,2.931Z" transform="translate(-975.336 -349.938)" fill="#006bbd"/>
      </g>
      <g id="Group_3226" data-name="Group 3226" transform="translate(288.984 189.157)">
        <path id="Path_11971" data-name="Path 11971" d="M1132.331,286.309a1.506,1.506,0,0,1-.715-.18c-3.458-1.856-5.916-4.626-8.294-7.307-.662-.748-1.331-1.5-2.024-2.239-2.026-2.156-5.441-2.782-9.058-3.444-5.213-.955-11.119-2.036-12.415-8.572a1.469,1.469,0,0,1,1.182-1.72,1.5,1.5,0,0,1,1.753,1.16c.847,4.269,4.354,5.209,10.028,6.247,3.936.721,8.006,1.466,10.706,4.339.715.759,1.4,1.532,2.082,2.3,2.307,2.6,4.484,5.054,7.473,6.658a1.453,1.453,0,0,1,.595,1.991A1.5,1.5,0,0,1,1132.331,286.309Z" transform="translate(-1099.798 -262.82)" fill="#006bbd"/>
      </g>
      <g id="Group_3227" data-name="Group 3227" transform="translate(319.833 182.938)">
        <path id="Path_11972" data-name="Path 11972" d="M1121.61,267a1.536,1.536,0,0,1-.4-.052c-4.548-1.22-5.5-3.566-5.492-5.321a5.089,5.089,0,0,1,.064-.783,1.5,1.5,0,0,1,1.71-1.218,1.471,1.471,0,0,1,1.244,1.677,1.964,1.964,0,0,0-.029.327c0,1.325,1.788,2.084,3.291,2.487a1.466,1.466,0,0,1,1.048,1.8A1.494,1.494,0,0,1,1121.61,267Z" transform="translate(-1115.723 -259.609)" fill="#006bbd"/>
      </g>
      <g id="Group_3228" data-name="Group 3228" transform="translate(336.242 198.212)">
        <path id="Path_11973" data-name="Path 11973" d="M1130.669,274.458a1.5,1.5,0,0,1-.43-.062c-1.48-.436-5.406-1.594-6.024-5.189a1.473,1.473,0,0,1,1.226-1.691,1.5,1.5,0,0,1,1.722,1.2c.217,1.261,1.393,2.117,3.936,2.867a1.464,1.464,0,0,1,1,1.827A1.494,1.494,0,0,1,1130.669,274.458Z" transform="translate(-1124.194 -267.494)" fill="#006bbd"/>
      </g>
      <g id="Group_3229" data-name="Group 3229" transform="translate(344.114 213.863)">
        <path id="Path_11974" data-name="Path 11974" d="M1133.488,282.536a1.545,1.545,0,0,1-.473-.076c-3.072-1.007-4.763-2.933-4.757-5.422a1.495,1.495,0,0,1,2.989,0c0,1.158.91,2.044,2.714,2.634a1.461,1.461,0,0,1,.945,1.856A1.5,1.5,0,0,1,1133.488,282.536Z" transform="translate(-1128.258 -275.574)" fill="#006bbd"/>
      </g>
      <g id="Group_3230" data-name="Group 3230" transform="translate(329.563 215.974)">
        <path id="Path_11975" data-name="Path 11975" d="M1124.589,284.027a1.506,1.506,0,0,1-.786-.221,7.061,7.061,0,0,1-3.045-5.493,1.477,1.477,0,0,1,1.3-1.639,1.494,1.494,0,0,1,1.67,1.275c.225,1.767.734,2.8,1.654,3.365a1.451,1.451,0,0,1,.48,2.02A1.5,1.5,0,0,1,1124.589,284.027Z" transform="translate(-1120.746 -276.664)" fill="#006bbd"/>
      </g>
      <g id="Group_3231" data-name="Group 3231" transform="translate(68.755 55.436)">
        <path id="Path_11976" data-name="Path 11976" d="M989.915,231.643a1.5,1.5,0,0,1-1.315-.769,1.452,1.452,0,0,1,.6-1.987c4.6-2.447,6.292-9.319,6.342-14.464.072-7.177-4.312-12.984-9.06-18.189a1.451,1.451,0,0,1,.116-2.073,1.517,1.517,0,0,1,2.111.114c5.149,5.647,9.9,12,9.821,20.176-.058,5.941-2.163,13.96-7.909,17.013A1.512,1.512,0,0,1,989.915,231.643Z" transform="translate(-986.106 -193.787)" fill="#006bbd"/>
      </g>
      <g id="Group_3232" data-name="Group 3232" transform="translate(39.101 30.882)">
        <path id="Path_11977" data-name="Path 11977" d="M975.557,209.439a1.483,1.483,0,0,1-1.482-1.3,57.5,57.5,0,0,0-1.883-8.847A28.01,28.01,0,0,1,970.8,191.6a10.519,10.519,0,0,1,10.586-10.493c8.254.008,9.336,5.618,10.383,11.041.841,4.353,1.792,9.288,6.2,13.056a1.447,1.447,0,0,1,.145,2.069,1.512,1.512,0,0,1-2.109.143c-5.191-4.434-6.291-10.139-7.177-14.724-1.125-5.838-1.912-8.647-7.438-8.651a7.492,7.492,0,0,0-7.6,7.591,26.057,26.057,0,0,0,1.294,6.9,60.083,60.083,0,0,1,1.964,9.271,1.472,1.472,0,0,1-1.313,1.625A1.315,1.315,0,0,1,975.557,209.439Z" transform="translate(-970.797 -181.111)" fill="#006bbd"/>
      </g>
      <g id="Group_3233" data-name="Group 3233" transform="translate(21.041 15.155)">
        <path id="Path_11978" data-name="Path 11978" d="M981.035,182.489a1.49,1.49,0,0,1-.438-.066c-2.846-.854-5.577-1.98-8.219-3.068a71.023,71.023,0,0,0-9.776-3.475,1.463,1.463,0,0,1-1.083-1.78,1.5,1.5,0,0,1,1.815-1.063,72.886,72.886,0,0,1,10.2,3.615c2.574,1.06,5.236,2.156,7.938,2.968a1.465,1.465,0,0,1,.992,1.832A1.5,1.5,0,0,1,981.035,182.489Z" transform="translate(-961.473 -172.992)" fill="#006bbd"/>
      </g>
      <g id="Group_3234" data-name="Group 3234" transform="translate(17.873 32.26)">
        <path id="Path_11979" data-name="Path 11979" d="M961.33,186.6a1.466,1.466,0,0,1-.2-2.921l13.887-1.838a1.49,1.49,0,0,1,1.682,1.257,1.471,1.471,0,0,1-1.283,1.648l-13.887,1.84A1.759,1.759,0,0,1,961.33,186.6Z" transform="translate(-959.838 -181.822)" fill="#006bbd"/>
      </g>
      <g id="Group_3235" data-name="Group 3235" transform="translate(20.802 42.248)">
        <path id="Path_11980" data-name="Path 11980" d="M962.845,196.171a1.494,1.494,0,0,1-1.375-.891,1.459,1.459,0,0,1,.788-1.925l14.979-6.257a1.5,1.5,0,0,1,1.962.775,1.459,1.459,0,0,1-.791,1.925l-14.979,6.257A1.522,1.522,0,0,1,962.845,196.171Z" transform="translate(-961.35 -186.979)" fill="#006bbd"/>
      </g>
      <path id="Path_11981" data-name="Path 11981" d="M1097.134,187.683a59.11,59.11,0,0,0-9.953,5.693c-7.934,5.571-17.937,15.3-21.257,30.307-3.024,13.674-2.191,23.326-.7,29.436-.087-.072-.135-.108-.135-.108s-7.7-10.487-2.377-34.553c3.049-13.771,12.225-22.7,19.506-27.807a50.971,50.971,0,0,1,9.8-5.505S1093.974,186.024,1097.134,187.683Z" transform="translate(-847.324 -146.449)" fill="#006bbd"/>
    </g>
    <g id="Group_3323" data-name="Group 3323" transform="translate(952.01 161.778)">
      <g id="Group_3279" data-name="Group 3279">
        <path id="Path_11982" data-name="Path 11982" d="M1111.051,273.082s-75.137,28.415-85.03,46.135-34.278,129.768-34.278,129.768-36.562,21.951-38.908,30.342-3.508,12.775,8.781,17.7,67.373,14.458,79.333,4.322,41.571-130.674,48-135.726,73.074-22.011,73.074-22.011C1179.521,335.99,1124.4,259.844,1111.051,273.082Z" transform="translate(-951.333 -58.923)" fill="#006bbd"/>
        <path id="Path_11983" data-name="Path 11983" d="M1031.651,360.782c-11.406-2.164-23.654-6.925-32.326-14.966-4.461,19.227-7.582,33.567-7.582,33.567s-36.562,21.951-38.908,30.342-3.508,12.775,8.781,17.7,67.373,14.458,79.333,4.322c5.894-5,16.076-36.808,25.658-68.4-1.43-.271-2.853-.568-4.273-.876A114.961,114.961,0,0,1,1031.651,360.782Z" transform="translate(-951.333 10.678)" fill="#006bbd"/>
        <path id="Path_11984" data-name="Path 11984" d="M1232.426,244.931c-1,10.739-5.331,46.9-20.537,84.21-15.564,38.2-48.027,80.975-57.047,92.493a6.357,6.357,0,0,1-6.22,2.278,216.857,216.857,0,0,1-27.16-7.384c-24.618-8.327-50.431-21.058-67.759-34.042l92.3-179.556,2.288-4.449c26.92,7.444,59.437,23.853,81.81,41.2A5.945,5.945,0,0,1,1232.426,244.931Z" transform="translate(-855.406 -127.385)" fill="#006bbd"/>
        <path id="Path_11985" data-name="Path 11985" d="M1194.021,335.5a253.238,253.238,0,0,1-16.911-25.321c-17.929-30.373-31.71-63.1-44.566-95.877L1053.7,367.664c17.327,12.984,43.14,25.715,67.759,34.042a216.858,216.858,0,0,0,27.16,7.384,6.357,6.357,0,0,0,6.22-2.278c6.89-8.8,27.466-35.847,43.735-65.159A28.2,28.2,0,0,1,1194.021,335.5Z" transform="translate(-855.406 -112.564)" fill="#006bbd"/>
        <path id="Path_11986" data-name="Path 11986" d="M1200.386,236.407c-1,10.747-5.332,46.9-20.536,84.216-15.566,38.189-48.03,80.969-57.041,92.485a6.01,6.01,0,0,1-1.346,1.267c-24.618-8.327-50.431-21.058-67.759-34.042l92.3-179.556c18.755,8.267,37.542,19.121,52.057,30.377A5.948,5.948,0,0,1,1200.386,236.407Z" transform="translate(-855.406 -125.233)" fill="#006bbd"/>
        <path id="Path_11987" data-name="Path 11987" d="M1182.465,234.937c-.062,32.409-27.5,58.614-61.223,58.472-33.657-.141-60.743-26.484-60.559-58.778.182-32.231,27.47-58.29,61.006-58.263C1155.292,176.4,1182.529,202.592,1182.465,234.937Z" transform="translate(-848.866 -148.106)" fill="#006bbd"/>
        <path id="Path_11988" data-name="Path 11988" d="M1033.434,359.81c-4.693,7.289-7.609,13.563-7.436,17.736.8,19.464,38.032,123.226,38.032,123.226s-19.7,34.125-17.385,41.978,3.574,11.913,16.457,10.629c12.976-1.292,65.554-17.569,70.8-31.33,5.273-13.846-31.906-128.885-28.889-136.282,3.028-7.423,60.08-57.335,60.08-57.335,33.8-32.287-59.3-44.167-72.832-36.229,0,0-41.513,40.723-58.823,67.607Z" transform="translate(-881.375 -41.791)" fill="#006bbd"/>
        <path id="Path_11989" data-name="Path 11989" d="M1091.792,385.248c-6.54,4.147-14.224,7.818-21.874,9.278-8.43,1.61-16.457,1.263-24.943,1.166-.3,0-.608-.016-.911-.031,5.736,16.67,10.065,28.733,10.065,28.733s-19.7,34.125-17.385,41.978,3.574,11.913,16.457,10.629c12.977-1.292,65.554-17.569,70.8-31.33,2.743-7.2-6-41.775-14.594-74.341A120.727,120.727,0,0,1,1091.792,385.248Z" transform="translate(-871.475 34.587)" fill="#006bbd"/>
        <path id="Path_11990" data-name="Path 11990" d="M1033.051,341.363s16.049-68.468,24.417-83.921c5.978-11.037,13.306-21.835,22.213-30.885,9.695-9.852,18.753-13.131,32.661-9.513,21.649,5.635,42.805,13.864,61.657,25.79,17.569,11.117,37.885,27.04,38.567,49.132.43,13.939-9.687,26.319-16.422,37.9-10.882,18.71-22.522,37.033-34.416,55.179q-1.156,1.767-2.322,3.529s-71.592-5.66-80.284-8.488S1033.051,341.363,1033.051,341.363Z" transform="translate(-874.759 -111.329)" fill="#006bbd"/>
        <path id="Path_11991" data-name="Path 11991" d="M1091.706,272.455c-.042.554-.064,1.1-.068,1.637-.074,19.388,26.66,28.335,42.77,28.442,6.859.047,28.577-3.247,28.587-9.73l-6.927-12.831c-1.635-2.828-5.085-1.12-6.534-2.76a33.807,33.807,0,0,0-18.863-10.989c-4.86-4.473-11.1-9.885-19.423-9.927C1101.622,256.244,1092.4,263.489,1091.706,272.455Z" transform="translate(-819.859 -73.208)" fill="#006bbd"/>
        <path id="Path_11992" data-name="Path 11992" d="M1089.061,273.557a16.655,16.655,0,0,0-.186,2.421c-.033,8.269,5.741,17.49,14.33,17.542,6.976.043,12.518-5.311,12.547-14.34.025-7.049-10.216-29.827-23.055-29.891-6.995-.035-11.066,4.541-11.092,10.183-.033,7.481,7.551,9.125,7.535,13.122A6.742,6.742,0,0,1,1089.061,273.557Z" transform="translate(-829.26 -79.774)" fill="#006bbd"/>
        <path id="Path_11993" data-name="Path 11993" d="M1098.592,329.035c.02-2.691-4.478-27.055-4.478-27.055s-10.648-9.5-15.28-13.124-69.366-45.98-69.366-45.98l-21.912-12.02-6.59-29.8,23.148-14.993,12.719,5.373,27.832,13.449,61.091,29.255,46.092,10.464Z" transform="translate(-923.566 -139.02)" fill="#006bbd"/>
        <path id="Path_11994" data-name="Path 11994" d="M991.24,171.788s-29.167-1.067-31.392,3.481-1.4,8.459,1.395,10.8,17.687.017,17.687.017l16.426,2.7Z" transform="translate(-944.553 -152.5)" fill="#006bbd"/>
        <path id="Path_11995" data-name="Path 11995" d="M990.921,176.274s-28.655,5.767-29.684,10.693.75,8.525,4.06,10.137,17.224-4.11,17.224-4.11l16.665-1.213Z" transform="translate(-942.327 -148.194)" fill="#006bbd"/>
        <path id="Path_11996" data-name="Path 11996" d="M992.561,179.127s-27.9,8.692-28.374,13.693,1.695,8.4,5.17,9.656,16.7-5.865,16.7-5.865l16.457-2.927Z" transform="translate(-939.351 -145.52)" fill="#006bbd"/>
        <path id="Path_11997" data-name="Path 11997" d="M1013.093,252.51c7.69-6.146,13.5-37.792,10.569-43.689-6.3-12.668-17.466-30.143-20.574-31.954-4.508-2.627-34.247-17.674-38.083-14.7s-6.962,7.167-3.206,11.014,18.007,9.631,18.007,9.631l11.729,22.441s2.673,21.591,12.831,23.543C1008.368,229.562,1009.813,255.133,1013.093,252.51Z" transform="translate(-943.114 -161.778)" fill="#006bbd"/>
        <path id="Path_11998" data-name="Path 11998" d="M995.64,238.063a22.23,22.23,0,0,1-7.81-3.436c-3.216-2.073-6.369-4.757-7.828-8.31-3.215-7.824-2.435-18.979-3.229-21.691s-6.392-18.16-3.713-22.135,9.792-6.83,14.169.016,3.332,12.424,5.286,14.817c3.283,4.021,7.382,7.105,10,11.7,3.413,6.007,3.971,14.019,2.815,20.721-.587,3.407-2.053,7.285-5.906,8.24A9.161,9.161,0,0,1,995.64,238.063Z" transform="translate(-931.65 -146.226)" fill="#006bbd"/>
        <path id="Path_11999" data-name="Path 11999" d="M1098.1,267.879c.153,0,.261.035.382.035,4.167.023,4.211-20.653,17.281-20.589,4.575.021,9,3.035,8.984,7.764-.012,4.157-3.179,8.4-3.191,12.684-.006,2.255.775,4.852,3.25,4.866,4.459.025,5.943-15.528,16.7-15.473,4.874.025,7.69,3.522,7.682,7.828-.01,4.721-8.167,12.728-8.173,15.487a1.726,1.726,0,0,0,1.558,1.9c3.878.023,10.739-7.522,16.248-7.491,3.857.021,7.285,3.6,7.281,6.919-.008,5.5-12.091,8.314-12.1,11.363,0,.67.67.924,1.375.928,1.945.012,5.343-1.579,8.232-1.559,3.814.023,7.568,2.764,7.564,6.359-.008,7.285-14.784,8.957-19.841,8.924-32.779-.213.182-23.072-46.12-35.138A13.9,13.9,0,0,1,1098.1,267.879Z" transform="translate(-813.803 -81.614)" fill="#006bbd"/>
        <path id="Path_12000" data-name="Path 12000" d="M1121.869,277.752a40.854,40.854,0,0,1-16.707-1.292c-20.291-5.313-40.806-21.486-40.806-21.486s-8.513-11.6-2.629-38.23c3.372-15.235,13.525-25.112,21.581-30.766a56.287,56.287,0,0,1,10.842-6.09,158.319,158.319,0,0,1,28.033,16.951c14.125,10.76,24.913,25.05,28.961,41.827C1155.192,255.47,1145.64,273.9,1121.869,277.752Z" transform="translate(-849.83 -144.807)" fill="#006bbd"/>
        <path id="Path_12001" data-name="Path 12001" d="M1105.162,273.514c-20.291-5.313-40.806-21.486-40.806-21.486s-8.513-11.6-2.629-38.23c3.372-15.235,13.525-25.112,21.581-30.766a156.752,156.752,0,0,1,16.4,10.861c14.133,10.76,24.92,25.05,28.961,41.827C1132.376,251.089,1124.7,267.825,1105.162,273.514Z" transform="translate(-849.83 -141.861)" fill="#006bbd"/>
        <path id="Path_12002" data-name="Path 12002" d="M1059.949,236.615l25.256,12.6-21.34,55.436-23.8-12.693Z" transform="translate(-868.181 -91.65)" fill="#006bbd"/>
        <path id="Path_12003" data-name="Path 12003" d="M1074.329,244.667l25.32,12.636-21.337,55.525L1054.457,300.1Z" transform="translate(-854.701 -84.105)" fill="#006bbd"/>
        <g id="Group_3237" data-name="Group 3237" transform="translate(3.124 424.328)">
          <path id="Path_12004" data-name="Path 12004" d="M1013.512,398.825c-.415,0-.827,0-1.244-.008-18.094-.233-37.769-5.344-58.48-15.194a1.457,1.457,0,0,1-.693-1.96,1.506,1.506,0,0,1,2-.68c20.314,9.66,39.563,14.673,57.215,14.9a83.846,83.846,0,0,0,22.941-2.762,1.5,1.5,0,0,1,1.838,1.025,1.465,1.465,0,0,1-1.044,1.8A86.479,86.479,0,0,1,1013.512,398.825Z" transform="translate(-952.946 -380.835)" fill="#006bbd"/>
        </g>
        <g id="Group_3238" data-name="Group 3238" transform="translate(172.513 476.962)">
          <path id="Path_12005" data-name="Path 12005" d="M1041.885,438.32a1.49,1.49,0,0,1-1.468-1.2,1.469,1.469,0,0,1,1.2-1.707c14.615-2.636,45.628-12.052,71.164-27.193a1.512,1.512,0,0,1,2.053.5,1.453,1.453,0,0,1-.507,2.015c-25.881,15.344-57.339,24.889-72.169,27.564A1.628,1.628,0,0,1,1041.885,438.32Z" transform="translate(-1040.392 -408.007)" fill="#006bbd"/>
        </g>
        <g id="Group_3239" data-name="Group 3239" transform="translate(211.494 339.065)">
          <path id="Path_12006" data-name="Path 12006" d="M1067.614,340.446a1.687,1.687,0,0,1-.26-.021l-.744-.13a27.338,27.338,0,0,0-4.612-.544,1.467,1.467,0,1,1,.029-2.933,29.877,29.877,0,0,1,5.108.589l.734.128a1.468,1.468,0,0,1,1.214,1.7A1.487,1.487,0,0,1,1067.614,340.446Z" transform="translate(-1060.516 -336.818)" fill="#006bbd"/>
        </g>
        <g id="Group_3240" data-name="Group 3240" transform="translate(212.291 328.684)">
          <path id="Path_12007" data-name="Path 12007" d="M1069.219,342.928a1.5,1.5,0,0,1-1.17-.552c-.318-.391-.827-.984-1.428-1.685a52.646,52.646,0,0,1-5.536-7.109,1.456,1.456,0,0,1,.67-1.968,1.506,1.506,0,0,1,2,.659,58.514,58.514,0,0,0,5.149,6.53c.622.724,1.149,1.34,1.478,1.745a1.448,1.448,0,0,1-.236,2.061A1.509,1.509,0,0,1,1069.219,342.928Z" transform="translate(-1060.928 -331.459)" fill="#006bbd"/>
        </g>
        <g id="Group_3241" data-name="Group 3241" transform="translate(125.024 299.977)">
          <path id="Path_12008" data-name="Path 12008" d="M1022.26,322.481a1.493,1.493,0,0,1-.773-.213,16.409,16.409,0,0,1-1.71-1.215,6.378,6.378,0,0,0-2.662-1.5,1.47,1.47,0,0,1-1.216-1.7,1.486,1.486,0,0,1,1.728-1.193,8.971,8.971,0,0,1,4.008,2.092,14.039,14.039,0,0,0,1.4,1.005,1.452,1.452,0,0,1,.505,2.015A1.5,1.5,0,0,1,1022.26,322.481Z" transform="translate(-1015.877 -316.639)" fill="#006bbd"/>
        </g>
        <g id="Group_3242" data-name="Group 3242" transform="translate(130.288 297.159)">
          <path id="Path_12009" data-name="Path 12009" d="M1021.707,320.679a1.511,1.511,0,0,1-1.059-.432,8.376,8.376,0,0,1-1.978-3.138,1.462,1.462,0,0,1,.953-1.852,1.5,1.5,0,0,1,1.887.938,5.452,5.452,0,0,0,1.257,1.982,1.445,1.445,0,0,1-.006,2.075A1.5,1.5,0,0,1,1021.707,320.679Z" transform="translate(-1018.594 -315.184)" fill="#006bbd"/>
        </g>
        <g id="Group_3243" data-name="Group 3243" transform="translate(161.689 249.935)">
          <path id="Path_12010" data-name="Path 12010" d="M1036.3,344.1a1.509,1.509,0,0,1-.944-.329,1.449,1.449,0,0,1-.215-2.065c12.442-14.983,32.636-37.213,48.6-50.554a1.514,1.514,0,0,1,2.108.167,1.446,1.446,0,0,1-.169,2.067c-15.816,13.213-35.863,35.286-48.223,50.174A1.5,1.5,0,0,1,1036.3,344.1Z" transform="translate(-1034.805 -290.805)" fill="#006bbd"/>
        </g>
        <g id="Group_3244" data-name="Group 3244" transform="translate(273.828 139.52)">
          <path id="Path_12011" data-name="Path 12011" d="M1094.19,260.394a1.526,1.526,0,0,1-.612-.13,1.455,1.455,0,0,1-.75-1.939,46.057,46.057,0,0,1,28.384-24.455,1.5,1.5,0,0,1,1.867.972,1.463,1.463,0,0,1-.992,1.831,43.062,43.062,0,0,0-26.534,22.855A1.5,1.5,0,0,1,1094.19,260.394Z" transform="translate(-1092.696 -233.804)" fill="#006bbd"/>
        </g>
        <g id="Group_3245" data-name="Group 3245" transform="translate(189.742 103.481)">
          <path id="Path_12012" data-name="Path 12012" d="M1050.783,247.153a1.544,1.544,0,0,1-.5-.083,1.461,1.461,0,0,1-.911-1.873c3.773-10.441,8.667-22.207,19.038-29.711a1.513,1.513,0,0,1,2.09.31,1.449,1.449,0,0,1-.316,2.049c-9.691,7.014-14.369,18.3-17.993,28.332A1.5,1.5,0,0,1,1050.783,247.153Z" transform="translate(-1049.287 -215.199)" fill="#006bbd"/>
        </g>
        <g id="Group_3246" data-name="Group 3246" transform="translate(200.175 112.023)">
          <path id="Path_12013" data-name="Path 12013" d="M1056.169,230.224a1.563,1.563,0,0,1-.409-.056,1.465,1.465,0,0,1-1.031-1.811c1-3.462,3.235-5.9,5.4-8.262a1.515,1.515,0,0,1,2.111-.11,1.446,1.446,0,0,1,.112,2.071c-2.024,2.21-3.936,4.3-4.746,7.1A1.5,1.5,0,0,1,1056.169,230.224Z" transform="translate(-1054.673 -219.609)" fill="#006bbd"/>
        </g>
        <g id="Group_3247" data-name="Group 3247" transform="translate(211.169 111.756)">
          <path id="Path_12014" data-name="Path 12014" d="M1125.987,248h-.422c-25.708-.1-49.333-9.606-64.82-26.069a1.448,1.448,0,0,1,.083-2.073,1.516,1.516,0,0,1,2.113.083c14.925,15.867,37.755,25.025,62.635,25.124a99.9,99.9,0,0,0,25.717-3.223,1.5,1.5,0,0,1,1.828,1.038,1.463,1.463,0,0,1-1.06,1.8A103.076,103.076,0,0,1,1125.987,248Z" transform="translate(-1060.348 -219.471)" fill="#006bbd"/>
        </g>
        <g id="Group_3248" data-name="Group 3248" transform="translate(212.015 118.889)">
          <path id="Path_12015" data-name="Path 12015" d="M1120.9,250.314a1.568,1.568,0,0,1-.312-.033l-2.693-.558c-20.649-4.265-42-8.676-56.707-24.1a1.446,1.446,0,0,1,.072-2.073,1.516,1.516,0,0,1,2.113.068c14.061,14.751,34.943,19.065,55.139,23.235l2.7.56a1.466,1.466,0,0,1,1.152,1.738A1.488,1.488,0,0,1,1120.9,250.314Z" transform="translate(-1060.785 -223.153)" fill="#006bbd"/>
        </g>
        <g id="Group_3249" data-name="Group 3249" transform="translate(303.816 96.6)">
          <path id="Path_12016" data-name="Path 12016" d="M1114.889,233.84c-3.785-.014-6.724-3.219-6.712-7.3.014-4.858,4.19-10.425,8.31-13.412a8.5,8.5,0,0,1,4.908-1.482c4.362.012,6.946,2.8,6.935,7.452-.008,3.539-1.925,7.516-5.127,10.64C1120.534,232.346,1117.5,233.84,1114.889,233.84Zm6.507-19.26a5.515,5.515,0,0,0-3.132.907c-3.432,2.491-7.088,7.214-7.1,11.063-.006,2.09,1.412,4.349,3.712,4.357,1.79,0,4.165-1.242,6.218-3.245,2.613-2.551,4.24-5.833,4.246-8.568.01-4.5-2.954-4.509-3.928-4.513Z" transform="translate(-1108.177 -211.647)" fill="#006bbd"/>
        </g>
        <g id="Group_3250" data-name="Group 3250" transform="translate(262.048 203.949)">
          <path id="Path_12017" data-name="Path 12017" d="M1133.647,294.013l-.229,0c-14.4-.095-26.09-9.145-33.627-15.942a13.822,13.822,0,0,0-4.43-2.069c-3.406-1.18-7.642-2.646-8.707-7.136a1.464,1.464,0,0,1,1.116-1.761,1.5,1.5,0,0,1,1.8,1.094c.693,2.925,3.655,3.95,6.789,5.034a15.7,15.7,0,0,1,5.459,2.675c11.557,10.423,21.309,15.1,31.624,15.171.934.008,1.877-.029,2.811-.1a1.467,1.467,0,1,1,.238,2.923C1135.546,293.974,1134.591,294.013,1133.647,294.013Z" transform="translate(-1086.615 -267.065)" fill="#006bbd"/>
        </g>
        <g id="Group_3251" data-name="Group 3251" transform="translate(290.527 146.398)">
          <path id="Path_12018" data-name="Path 12018" d="M1102.811,247.114a1.506,1.506,0,0,1-.97-.353,1.448,1.448,0,0,1-.165-2.069,22.494,22.494,0,0,1,12.488-7.31,1.489,1.489,0,0,1,1.749,1.164,1.471,1.471,0,0,1-1.188,1.716,19.441,19.441,0,0,0-10.778,6.338A1.509,1.509,0,0,1,1102.811,247.114Z" transform="translate(-1101.317 -237.355)" fill="#006bbd"/>
        </g>
        <g id="Group_3252" data-name="Group 3252" transform="translate(257.971 180.898)">
          <path id="Path_12019" data-name="Path 12019" d="M1092.59,264.164h-.078a11.152,11.152,0,0,1-7.529-2.756,1.446,1.446,0,0,1-.07-2.073,1.513,1.513,0,0,1,2.111-.072,8.143,8.143,0,0,0,5.505,1.968c2.508,0,7.214-1,7.721-4.788a1.5,1.5,0,0,1,1.676-1.265,1.475,1.475,0,0,1,1.288,1.647C1102.541,261.877,1097.251,264.164,1092.59,264.164Z" transform="translate(-1084.51 -255.165)" fill="#006bbd"/>
        </g>
        <g id="Group_3253" data-name="Group 3253" transform="translate(292.752 176.213)">
          <path id="Path_12020" data-name="Path 12020" d="M1109.716,258.355h-.062c-3.206-.017-5.616-1.185-6.972-3.382a1.448,1.448,0,0,1,.5-2.013,1.51,1.51,0,0,1,2.053.494c.8,1.294,2.29,1.955,4.43,1.966a12.218,12.218,0,0,0,3.026-.387,1.5,1.5,0,0,1,1.819,1.058,1.464,1.464,0,0,1-1.077,1.784A15.414,15.414,0,0,1,1109.716,258.355Z" transform="translate(-1102.465 -252.747)" fill="#006bbd"/>
        </g>
        <g id="Group_3254" data-name="Group 3254" transform="translate(154.344 213.584)">
          <path id="Path_12021" data-name="Path 12021" d="M1064.641,318.9a1.486,1.486,0,0,1-1.476-1.255c-3.909-26.141-25.461-40.512-29.718-42.5a1.512,1.512,0,0,1-1.426.244,1.461,1.461,0,0,1-.926-1.865,2.191,2.191,0,0,1,2.125-1.484c2.813.017,28.508,15.793,32.9,45.182a1.47,1.47,0,0,1-1.263,1.664A1.38,1.38,0,0,1,1064.641,318.9Z" transform="translate(-1031.013 -272.039)" fill="#006bbd"/>
        </g>
        <g id="Group_3255" data-name="Group 3255" transform="translate(158.938 210.108)">
          <path id="Path_12022" data-name="Path 12022" d="M1070.773,310.3a1.5,1.5,0,0,1-1.273-.7c-8.271-13.149-18.565-29.511-35.212-36.541a1.459,1.459,0,0,1-.782-1.927,1.5,1.5,0,0,1,1.964-.769c17.513,7.4,28.082,24.2,36.574,37.7a1.451,1.451,0,0,1-.486,2.018A1.525,1.525,0,0,1,1070.773,310.3Z" transform="translate(-1033.384 -270.245)" fill="#006bbd"/>
        </g>
        <g id="Group_3256" data-name="Group 3256" transform="translate(213.761 256.396)">
          <path id="Path_12023" data-name="Path 12023" d="M1115.706,343.513a1.167,1.167,0,0,1-.141-.008,1.475,1.475,0,0,1-1.35-1.6c.081-.835.122-1.685.126-2.528.095-23.807-32.653-42.184-49.08-42.305-.658-.006-1.334.012-1.991.05a1.467,1.467,0,1,1-.178-2.929c.723-.043,1.459-.058,2.193-.056,9.414.07,22.261,5.191,32.731,13.048,12.5,9.379,19.361,20.816,19.316,32.2,0,.93-.052,1.869-.14,2.789A1.485,1.485,0,0,1,1115.706,343.513Z" transform="translate(-1061.687 -294.141)" fill="#006bbd"/>
        </g>
        <g id="Group_3257" data-name="Group 3257" transform="translate(220.561 251.006)">
          <path id="Path_12024" data-name="Path 12024" d="M1113.821,323.014a1.5,1.5,0,0,1-1.368-.874c-7.431-16.512-25.6-27.7-45.205-27.847h-.548a1.468,1.468,0,1,1-.015-2.935l.587,0c20.761.151,40.02,12.045,47.915,29.594a1.453,1.453,0,0,1-.763,1.933A1.507,1.507,0,0,1,1113.821,323.014Z" transform="translate(-1065.197 -291.358)" fill="#006bbd"/>
        </g>
        <g id="Group_3258" data-name="Group 3258" transform="translate(228.084 232.263)">
          <path id="Path_12025" data-name="Path 12025" d="M1123.433,305.494a1.527,1.527,0,0,1-.248-.019c-19.849-3.27-38.108-12.477-53.352-21.054a1.451,1.451,0,0,1-.554-2,1.508,1.508,0,0,1,2.04-.542c15.016,8.446,32.979,17.511,52.361,20.7a1.47,1.47,0,0,1,1.226,1.689A1.487,1.487,0,0,1,1123.433,305.494Z" transform="translate(-1069.081 -281.682)" fill="#006bbd"/>
        </g>
        <g id="Group_3259" data-name="Group 3259" transform="translate(232.053 224.691)">
          <path id="Path_12026" data-name="Path 12026" d="M1082.342,285.325a51.022,51.022,0,0,1-10.545-4.864,1.45,1.45,0,0,1-.416-2.034,1.512,1.512,0,0,1,2.073-.409,47.93,47.93,0,0,0,9.939,4.558Z" transform="translate(-1071.13 -277.773)" fill="#006bbd"/>
        </g>
        <g id="Group_3260" data-name="Group 3260" transform="translate(171.894 104.779)">
          <path id="Path_12027" data-name="Path 12027" d="M1041.848,272.627a1.481,1.481,0,0,1-1.488-1.368c-.209-2.964-.3-5.916-.285-8.773.131-19.289,5.352-34.805,15.514-46.122a1.517,1.517,0,0,1,2.109-.13,1.447,1.447,0,0,1,.132,2.071c-9.67,10.768-14.638,25.639-14.766,44.2-.017,2.784.074,5.662.277,8.554a1.476,1.476,0,0,1-1.389,1.563C1041.917,272.625,1041.883,272.627,1041.848,272.627Z" transform="translate(-1040.073 -215.869)" fill="#006bbd"/>
        </g>
        <g id="Group_3261" data-name="Group 3261" transform="translate(116.413 107.707)">
          <path id="Path_12028" data-name="Path 12028" d="M1012.928,228.329a1.8,1.8,0,0,1-.2-.014,1.474,1.474,0,0,1-1.28-1.65,22.224,22.224,0,0,1,2.789-8.564,1.514,1.514,0,0,1,2.047-.517,1.453,1.453,0,0,1,.529,2.009,19.444,19.444,0,0,0-2.4,7.465A1.485,1.485,0,0,1,1012.928,228.329Z" transform="translate(-1011.431 -217.381)" fill="#006bbd"/>
        </g>
        <g id="Group_3262" data-name="Group 3262" transform="translate(122.543 110.52)">
          <path id="Path_12029" data-name="Path 12029" d="M1016.092,228.036a1.487,1.487,0,0,1-.428-.062,1.462,1.462,0,0,1-1.005-1.825,18.856,18.856,0,0,1,3.142-5.664c.238-.333.48-.668.724-1.015a1.512,1.512,0,0,1,2.078-.38,1.451,1.451,0,0,1,.385,2.04c-.252.358-.5.705-.748,1.048a16.352,16.352,0,0,0-2.718,4.812A1.492,1.492,0,0,1,1016.092,228.036Z" transform="translate(-1014.596 -218.833)" fill="#006bbd"/>
        </g>
        <g id="Group_3263" data-name="Group 3263" transform="translate(74.945 261.907)">
          <path id="Path_12030" data-name="Path 12030" d="M1007.007,308.483a1.5,1.5,0,0,1-1.062-.432c-2.406-2.379-5.474-3.71-8.723-5.118a46.027,46.027,0,0,1-6.516-3.25,1.449,1.449,0,0,1-.441-2.028,1.514,1.514,0,0,1,2.069-.434,42.961,42.961,0,0,0,6.1,3.03c3.359,1.457,6.832,2.962,9.635,5.734a1.446,1.446,0,0,1-.008,2.075A1.5,1.5,0,0,1,1007.007,308.483Z" transform="translate(-990.024 -296.986)" fill="#006bbd"/>
        </g>
        <g id="Group_3264" data-name="Group 3264" transform="translate(80.059 257.023)">
          <path id="Path_12031" data-name="Path 12031" d="M1005.678,304.521a1.5,1.5,0,0,1-1.17-.556c-1.664-2.055-4.13-3.231-6.743-4.475a42.755,42.755,0,0,1-4.413-2.324,1.45,1.45,0,0,1-.451-2.026,1.514,1.514,0,0,1,2.065-.444,40.162,40.162,0,0,0,4.1,2.154c2.8,1.335,5.691,2.712,7.778,5.292a1.45,1.45,0,0,1-.24,2.061A1.514,1.514,0,0,1,1005.678,304.521Z" transform="translate(-992.664 -294.465)" fill="#006bbd"/>
        </g>
        <g id="Group_3265" data-name="Group 3265" transform="translate(149.831 332.919)">
          <path id="Path_12032" data-name="Path 12032" d="M1030.426,338.2c-.089,0-.176,0-.263,0a1.466,1.466,0,1,1,.014-2.933h.256a48.2,48.2,0,0,0,7.529-.788,47.944,47.944,0,0,1,8.275-.825,1.467,1.467,0,1,1-.029,2.933,46.244,46.244,0,0,0-7.771.788A51.1,51.1,0,0,1,1030.426,338.2Z" transform="translate(-1028.683 -333.646)" fill="#006bbd"/>
        </g>
        <g id="Group_3266" data-name="Group 3266" transform="translate(151.355 324.029)">
          <path id="Path_12033" data-name="Path 12033" d="M1030.966,333.31a1.5,1.5,0,0,1-1.294-.73,1.451,1.451,0,0,1,.542-2,13.452,13.452,0,0,1,7.163-1.517c.531.006,1.065.021,1.6.037.521.016,1.046.031,1.571.037.761.006,1.387-.01,1.964-.056a1.467,1.467,0,1,1,.237,2.925c-.667.052-1.376.07-2.23.064-.546,0-1.09-.021-1.633-.037-.515-.015-1.031-.031-1.54-.037a10.609,10.609,0,0,0-5.633,1.12A1.5,1.5,0,0,1,1030.966,333.31Z" transform="translate(-1029.469 -329.056)" fill="#006bbd"/>
        </g>
        <g id="Group_3267" data-name="Group 3267" transform="translate(174.719 410.055)">
          <path id="Path_12034" data-name="Path 12034" d="M1043.026,394.2a1.467,1.467,0,1,1-.008-2.933c25.5-.118,45.3-5.987,58.85-17.447a1.514,1.514,0,0,1,2.108.153,1.448,1.448,0,0,1-.157,2.069c-14.1,11.928-34.553,18.038-60.787,18.158Z" transform="translate(-1041.531 -373.466)" fill="#006bbd"/>
        </g>
        <g id="Group_3268" data-name="Group 3268" transform="translate(47.892 357.911)">
          <path id="Path_12035" data-name="Path 12035" d="M1040.224,365.019c-.031,0-.062,0-.093,0a176.831,176.831,0,0,1-63.218-15.675,1.455,1.455,0,0,1-.711-1.953,1.507,1.507,0,0,1,1.989-.7,173.774,173.774,0,0,0,62.122,15.4,1.466,1.466,0,0,1-.089,2.931Z" transform="translate(-976.058 -346.547)" fill="#006bbd"/>
        </g>
        <g id="Group_3269" data-name="Group 3269" transform="translate(288.984 189.158)">
          <path id="Path_12036" data-name="Path 12036" d="M1133.055,282.919a1.514,1.514,0,0,1-.717-.18c-3.458-1.856-5.916-4.628-8.292-7.307-.664-.75-1.333-1.5-2.026-2.239-2.026-2.158-5.441-2.782-9.058-3.444-5.211-.955-11.119-2.038-12.415-8.571a1.469,1.469,0,0,1,1.183-1.72,1.493,1.493,0,0,1,1.751,1.158c.847,4.271,4.355,5.209,10.03,6.249,3.936.721,8.006,1.466,10.706,4.339.713.759,1.4,1.532,2.082,2.3,2.305,2.6,4.485,5.054,7.472,6.658a1.453,1.453,0,0,1,.595,1.991A1.5,1.5,0,0,1,1133.055,282.919Z" transform="translate(-1100.52 -259.43)" fill="#006bbd"/>
        </g>
        <g id="Group_3270" data-name="Group 3270" transform="translate(319.832 182.939)">
          <path id="Path_12037" data-name="Path 12037" d="M1122.332,263.611a1.456,1.456,0,0,1-.4-.052c-4.548-1.218-5.5-3.566-5.492-5.319a4.867,4.867,0,0,1,.066-.783,1.493,1.493,0,0,1,1.708-1.218,1.47,1.47,0,0,1,1.244,1.678,1.945,1.945,0,0,0-.029.327c0,1.325,1.788,2.082,3.291,2.487a1.464,1.464,0,0,1,1.048,1.8A1.492,1.492,0,0,1,1122.332,263.611Z" transform="translate(-1116.445 -256.219)" fill="#006bbd"/>
        </g>
        <g id="Group_3271" data-name="Group 3271" transform="translate(336.241 198.213)">
          <path id="Path_12038" data-name="Path 12038" d="M1131.393,271.068a1.517,1.517,0,0,1-.432-.064c-1.48-.436-5.406-1.594-6.024-5.189a1.471,1.471,0,0,1,1.226-1.689,1.5,1.5,0,0,1,1.724,1.2c.215,1.259,1.391,2.117,3.934,2.867a1.461,1.461,0,0,1,1,1.827A1.492,1.492,0,0,1,1131.393,271.068Z" transform="translate(-1124.916 -264.104)" fill="#006bbd"/>
        </g>
        <g id="Group_3272" data-name="Group 3272" transform="translate(344.113 213.864)">
          <path id="Path_12039" data-name="Path 12039" d="M1134.21,279.146a1.489,1.489,0,0,1-.473-.077c-3.072-1.005-4.763-2.931-4.758-5.42a1.495,1.495,0,0,1,2.989,0c0,1.156.911,2.044,2.714,2.634a1.46,1.46,0,0,1,.945,1.856A1.5,1.5,0,0,1,1134.21,279.146Z" transform="translate(-1128.98 -272.184)" fill="#006bbd"/>
        </g>
        <g id="Group_3273" data-name="Group 3273" transform="translate(329.563 215.975)">
          <path id="Path_12040" data-name="Path 12040" d="M1125.31,280.635a1.494,1.494,0,0,1-.786-.221,7.049,7.049,0,0,1-3.043-5.494,1.472,1.472,0,0,1,1.3-1.637,1.492,1.492,0,0,1,1.67,1.273c.224,1.769.736,2.807,1.654,3.367a1.451,1.451,0,0,1,.482,2.018A1.505,1.505,0,0,1,1125.31,280.635Z" transform="translate(-1121.469 -273.274)" fill="#006bbd"/>
        </g>
        <g id="Group_3274" data-name="Group 3274" transform="translate(68.754 55.436)">
          <path id="Path_12041" data-name="Path 12041" d="M990.639,228.254a1.5,1.5,0,0,1-1.317-.769,1.456,1.456,0,0,1,.6-1.989c4.6-2.445,6.292-9.319,6.342-14.462.072-7.177-4.312-12.984-9.06-18.191a1.447,1.447,0,0,1,.118-2.071,1.511,1.511,0,0,1,2.109.114c5.149,5.647,9.9,12,9.823,20.176-.06,5.939-2.166,13.96-7.911,17.013A1.5,1.5,0,0,1,990.639,228.254Z" transform="translate(-986.828 -190.396)" fill="#006bbd"/>
        </g>
        <g id="Group_3275" data-name="Group 3275" transform="translate(39.1 30.883)">
          <path id="Path_12042" data-name="Path 12042" d="M976.279,206.049a1.485,1.485,0,0,1-1.482-1.3,57.445,57.445,0,0,0-1.883-8.845,28.02,28.02,0,0,1-1.395-7.692,10.518,10.518,0,0,1,10.586-10.493c8.254.008,9.337,5.616,10.383,11.039.841,4.355,1.792,9.29,6.2,13.058a1.447,1.447,0,0,1,.145,2.069,1.515,1.515,0,0,1-2.109.143c-5.191-4.434-6.292-10.141-7.175-14.724-1.127-5.84-1.914-8.647-7.44-8.653a7.491,7.491,0,0,0-7.6,7.591,26.069,26.069,0,0,0,1.292,6.9,59.83,59.83,0,0,1,1.964,9.269,1.473,1.473,0,0,1-1.313,1.627C976.395,206.045,976.337,206.049,976.279,206.049Z" transform="translate(-971.518 -177.721)" fill="#006bbd"/>
        </g>
        <g id="Group_3276" data-name="Group 3276" transform="translate(21.04 15.157)">
          <path id="Path_12043" data-name="Path 12043" d="M981.759,179.1a1.5,1.5,0,0,1-.44-.064c-2.846-.854-5.577-1.98-8.217-3.068a70.87,70.87,0,0,0-9.778-3.475,1.466,1.466,0,0,1-1.083-1.782,1.5,1.5,0,0,1,1.817-1.062,72.949,72.949,0,0,1,10.2,3.615c2.574,1.06,5.236,2.156,7.938,2.968a1.462,1.462,0,0,1,.992,1.832A1.491,1.491,0,0,1,981.759,179.1Z" transform="translate(-962.195 -169.602)" fill="#006bbd"/>
        </g>
        <g id="Group_3277" data-name="Group 3277" transform="translate(17.872 32.26)">
          <path id="Path_12044" data-name="Path 12044" d="M962.054,183.205a1.465,1.465,0,0,1-.2-2.919l13.889-1.84a1.491,1.491,0,0,1,1.679,1.257,1.47,1.47,0,0,1-1.28,1.65l-13.889,1.84A1.719,1.719,0,0,1,962.054,183.205Z" transform="translate(-960.56 -178.432)" fill="#006bbd"/>
        </g>
        <g id="Group_3278" data-name="Group 3278" transform="translate(20.801 42.25)">
          <path id="Path_12045" data-name="Path 12045" d="M963.569,192.78a1.5,1.5,0,0,1-1.377-.893,1.456,1.456,0,0,1,.79-1.923l14.979-6.257a1.5,1.5,0,0,1,1.96.775,1.456,1.456,0,0,1-.79,1.923l-14.977,6.259A1.528,1.528,0,0,1,963.569,192.78Z" transform="translate(-962.072 -183.589)" fill="#006bbd"/>
        </g>
        <path id="Path_12046" data-name="Path 12046" d="M1097.857,184.293a59.122,59.122,0,0,0-9.955,5.691c-7.934,5.573-17.937,15.3-21.257,30.309-3.024,13.674-2.191,23.326-.7,29.436-.087-.074-.136-.108-.136-.108s-7.694-10.489-2.375-34.553c3.047-13.771,12.223-22.7,19.5-27.807a50.818,50.818,0,0,1,9.8-5.505S1094.7,182.632,1097.857,184.293Z" transform="translate(-848.046 -143.058)" fill="#006bbd"/>
      </g>
      <g id="Group_3322" data-name="Group 3322" transform="translate(5.163 3.184)">
        <path id="Path_12047" data-name="Path 12047" d="M1109.089,273.554s-72.96,28.116-82.565,45.651-33.285,128.4-33.285,128.4-35.5,21.718-37.781,30.021-3.407,12.641,8.525,17.511,65.422,14.305,77.035,4.275,40.367-129.3,46.608-134.3,70.955-21.778,70.955-21.778C1175.574,335.8,1122.051,260.456,1109.089,273.554Z" transform="translate(-953.999 -61.65)" fill="#fff"/>
        <path id="Path_12048" data-name="Path 12048" d="M1031.989,360.332c-11.076-2.139-22.969-6.851-31.39-14.809-4.331,19.026-7.361,33.217-7.361,33.217s-35.5,21.718-37.781,30.021-3.407,12.641,8.525,17.511,65.422,14.305,77.035,4.275c5.724-4.943,15.611-36.421,24.915-67.675-1.387-.269-2.77-.562-4.149-.868A109.6,109.6,0,0,1,1031.989,360.332Z" transform="translate(-953.999 7.22)" fill="#d0e5f5"/>
        <path id="Path_12049" data-name="Path 12049" d="M1226.947,245.7c-.974,10.627-5.177,46.406-19.94,83.325-15.115,37.794-46.639,80.123-55.4,91.519a6.1,6.1,0,0,1-6.04,2.255,206.785,206.785,0,0,1-26.371-7.307c-23.905-8.24-48.971-20.835-65.8-33.684l89.63-177.668,2.22-4.4c26.141,7.365,57.715,23.6,79.441,40.764A5.932,5.932,0,0,1,1226.947,245.7Z" transform="translate(-860.851 -129.391)" fill="#006bbd"/>
        <path id="Path_12050" data-name="Path 12050" d="M1189.654,335.311a250.906,250.906,0,0,1-16.419-25.054c-17.41-30.055-30.793-62.434-43.276-94.868L1053.4,367.141c16.825,12.849,41.891,25.443,65.8,33.684a206.785,206.785,0,0,0,26.371,7.307,6.1,6.1,0,0,0,6.04-2.255c6.69-8.707,26.669-35.47,42.468-64.471A27.915,27.915,0,0,1,1189.654,335.311Z" transform="translate(-860.851 -114.725)" fill="#006bbd"/>
        <path id="Path_12051" data-name="Path 12051" d="M1195.836,237.267c-.974,10.633-5.178,46.4-19.942,83.331-15.115,37.788-46.637,80.115-55.388,91.513a5.825,5.825,0,0,1-1.305,1.251c-23.905-8.24-48.971-20.835-65.8-33.684l89.63-177.668c18.21,8.182,36.454,18.921,50.548,30.057A5.932,5.932,0,0,1,1195.836,237.267Z" transform="translate(-860.851 -127.261)" fill="#006bbd"/>
        <path id="Path_12052" data-name="Path 12052" d="M1178.435,235.811c-.062,32.068-26.7,58-59.451,57.858-32.68-.141-58.984-26.207-58.8-58.16.178-31.892,26.675-57.678,59.239-57.651C1152.048,177.887,1178.495,203.807,1178.435,235.811Z" transform="translate(-854.5 -149.894)" fill="#fff"/>
        <path id="Path_12053" data-name="Path 12053" d="M1033.719,359.371c-4.556,7.212-7.388,13.42-7.219,17.548.779,19.258,36.93,121.931,36.93,121.931s-19.129,33.765-16.88,41.536,3.469,11.787,15.979,10.518c12.6-1.278,63.656-17.385,68.745-31,5.122-13.7-30.981-127.529-28.051-134.849,2.939-7.345,58.339-56.733,58.339-56.733,32.824-31.948-57.577-43.7-70.722-35.847,0,0-40.311,40.293-57.12,66.9Z" transform="translate(-886.068 -44.697)" fill="#fff"/>
        <path id="Path_12054" data-name="Path 12054" d="M1090.387,384.542c-6.35,4.1-13.811,7.735-21.24,9.18-8.186,1.594-15.981,1.249-24.221,1.154-.3,0-.591-.016-.883-.031,5.569,16.494,9.773,28.43,9.773,28.43s-19.129,33.765-16.88,41.536,3.469,11.787,15.979,10.518c12.6-1.278,63.656-17.385,68.745-31,2.663-7.126-5.825-41.337-14.171-73.56A117.651,117.651,0,0,1,1090.387,384.542Z" transform="translate(-876.453 30.877)" fill="#d0e5f5"/>
        <path id="Path_12055" data-name="Path 12055" d="M1033.348,341.116s15.586-67.745,23.711-83.038c5.8-10.921,12.918-21.6,21.568-30.559,9.414-9.747,18.21-12.994,31.715-9.412,21.021,5.575,41.564,13.716,59.869,25.519,17.062,11,36.787,26.755,37.449,48.615.418,13.792-9.406,26.042-15.946,37.5-10.567,18.513-21.87,36.643-33.418,54.6q-1.125,1.746-2.255,3.493s-69.517-5.6-77.957-8.4S1033.348,341.116,1033.348,341.116Z" transform="translate(-879.643 -113.504)" fill="#fff"/>
        <path id="Path_12056" data-name="Path 12056" d="M1090.3,272.936q-.061.822-.064,1.617c-.073,19.185,25.885,28.039,41.531,28.146,6.66.045,27.749-3.214,27.758-9.629l-6.728-12.7c-1.586-2.8-4.936-1.11-6.344-2.733a32.667,32.667,0,0,0-18.317-10.873c-4.719-4.426-10.78-9.78-18.859-9.823C1099.932,256.895,1090.975,264.062,1090.3,272.936Z" transform="translate(-826.333 -75.784)" fill="#d0e5f5"/>
        <path id="Path_12057" data-name="Path 12057" d="M1087.735,274.024a16.627,16.627,0,0,0-.178,2.4c-.035,8.18,5.573,17.3,13.912,17.356,6.776.043,12.155-5.255,12.184-14.189.023-6.975-9.92-29.515-22.387-29.577-6.793-.033-10.745,4.492-10.77,10.077-.033,7.4,7.332,9.029,7.316,12.982A6.582,6.582,0,0,1,1087.735,274.024Z" transform="translate(-835.462 -82.281)" fill="#d0e5f5"/>
        <path id="Path_12058" data-name="Path 12058" d="M1096.992,328.917c.017-2.66-4.349-26.77-4.349-26.77s-10.342-9.4-14.838-12.984-67.358-45.5-67.358-45.5l-21.277-11.894-6.4-29.486,22.476-14.834,12.351,5.315,27.026,13.308,59.321,28.948,44.758,10.354Z" transform="translate(-927.035 -140.902)" fill="#fff"/>
        <path id="Path_12059" data-name="Path 12059" d="M992.749,173.326s-28.322-1.056-30.483,3.444-1.364,8.37,1.354,10.683,17.176.017,17.176.017l15.952,2.675Z" transform="translate(-947.415 -154.241)" fill="#d0e5f5"/>
        <path id="Path_12060" data-name="Path 12060" d="M992.438,177.765s-27.824,5.707-28.823,10.58.728,8.436,3.942,10.03,16.727-4.068,16.727-4.068l16.18-1.2Z" transform="translate(-945.253 -149.981)" fill="#d0e5f5"/>
        <path id="Path_12061" data-name="Path 12061" d="M994.031,180.589s-27.086,8.6-27.551,13.548,1.645,8.308,5.019,9.554,16.213-5.8,16.213-5.8l15.983-2.9Z" transform="translate(-942.363 -147.334)" fill="#d0e5f5"/>
        <path id="Path_12062" data-name="Path 12062" d="M1013.97,253.2c7.466-6.082,13.106-37.4,10.261-43.228-6.113-12.537-16.959-29.827-19.975-31.619-4.38-2.6-33.258-17.49-36.981-14.549s-6.76,7.09-3.113,10.9,17.484,9.53,17.484,9.53l11.388,22.2s2.6,21.364,12.461,23.3C1009.383,230.492,1010.783,255.8,1013.97,253.2Z" transform="translate(-946.017 -163.421)" fill="#d0e5f5"/>
        <path id="Path_12063" data-name="Path 12063" d="M997.021,238.9a21.382,21.382,0,0,1-7.584-3.4c-3.123-2.049-6.185-4.707-7.6-8.221-3.123-7.741-2.363-18.782-3.136-21.463s-6.206-17.97-3.6-21.9,9.509-6.758,13.757.015,3.237,12.293,5.133,14.66c3.19,3.979,7.169,7.03,9.707,11.582,3.314,5.943,3.857,13.871,2.733,20.5-.57,3.372-1.993,7.21-5.736,8.153A8.733,8.733,0,0,1,997.021,238.9Z" transform="translate(-934.885 -148.034)" fill="#d0e5f5"/>
        <path id="Path_12064" data-name="Path 12064" d="M1096.514,268.407c.149,0,.254.035.37.035,4.046.023,4.091-20.436,16.779-20.374,4.444.023,8.736,3,8.724,7.684-.012,4.112-3.086,8.312-3.1,12.548-.006,2.232.754,4.8,3.156,4.816,4.329.025,5.771-15.365,16.217-15.311,4.73.025,7.468,3.485,7.46,7.746-.01,4.67-7.93,12.595-7.936,15.322a1.7,1.7,0,0,0,1.513,1.883c3.766.021,10.427-7.444,15.776-7.413,3.746.021,7.076,3.566,7.072,6.846-.008,5.437-11.74,8.227-11.746,11.243,0,.664.651.914,1.335.918,1.889.014,5.187-1.559,7.994-1.542,3.7.023,7.349,2.737,7.345,6.294-.01,7.208-14.356,8.862-19.266,8.829-31.83-.211.176-22.83-44.785-34.768A13.5,13.5,0,0,1,1096.514,268.407Z" transform="translate(-820.453 -84.102)" fill="#d0e5f5"/>
        <path id="Path_12065" data-name="Path 12065" d="M1119.593,278.177a38.969,38.969,0,0,1-16.223-1.278c-19.7-5.257-39.623-21.261-39.623-21.261s-8.267-11.483-2.553-37.827c3.276-15.076,13.133-24.847,20.955-30.443a54.4,54.4,0,0,1,10.528-6.026,152.981,152.981,0,0,1,27.22,16.773c13.716,10.646,24.192,24.787,28.122,41.387C1151.951,256.127,1142.677,274.365,1119.593,278.177Z" transform="translate(-855.436 -146.63)" fill="#ff576d"/>
        <path id="Path_12066" data-name="Path 12066" d="M1103.37,273.983c-19.7-5.257-39.623-21.261-39.623-21.261s-8.267-11.483-2.553-37.827c3.276-15.076,13.133-24.847,20.955-30.443a151.838,151.838,0,0,1,15.925,10.747c13.722,10.646,24.2,24.787,28.122,41.387C1129.8,251.794,1122.343,268.354,1103.37,273.983Z" transform="translate(-855.436 -143.714)" fill="#ff7f40"/>
        <path id="Path_12067" data-name="Path 12067" d="M1059.467,237.471l24.524,12.47-20.721,54.853-23.106-12.559Z" transform="translate(-873.256 -94.032)" fill="#d0e5f5"/>
        <path id="Path_12068" data-name="Path 12068" d="M1073.431,245.439l24.586,12.5L1077.3,312.883l-23.165-12.592Z" transform="translate(-860.166 -86.566)" fill="#d0e5f5"/>
        <g id="Group_3280" data-name="Group 3280" transform="translate(3.033 419.864)">
          <path id="Path_12069" data-name="Path 12069" d="M1014.377,397.974c-.4,0-.8,0-1.209-.006-17.569-.231-36.675-5.29-56.785-15.036a1.451,1.451,0,1,1,1.267-2.611c19.723,9.557,38.416,14.518,55.557,14.743a79.886,79.886,0,0,0,22.274-2.733,1.452,1.452,0,1,1,.771,2.8A82.448,82.448,0,0,1,1014.377,397.974Z" transform="translate(-955.564 -380.174)" fill="#3d7cb3"/>
        </g>
        <g id="Group_3281" data-name="Group 3281" transform="translate(167.515 471.945)">
          <path id="Path_12070" data-name="Path 12070" d="M1041.927,437.053a1.451,1.451,0,0,1-.261-2.878c14.193-2.607,44.307-11.925,69.1-26.9a1.451,1.451,0,1,1,1.5,2.483c-25.131,15.183-55.677,24.63-70.077,27.276A1.551,1.551,0,0,1,1041.927,437.053Z" transform="translate(-1040.478 -407.061)" fill="#3d7cb3"/>
        </g>
        <g id="Group_3282" data-name="Group 3282" transform="translate(205.366 335.497)">
          <path id="Path_12071" data-name="Path 12071" d="M1066.91,340.211a1.387,1.387,0,0,1-.252-.023l-.724-.128a26.142,26.142,0,0,0-4.478-.537,1.452,1.452,0,1,1,.029-2.9,28.794,28.794,0,0,1,4.961.583l.713.126a1.452,1.452,0,0,1-.248,2.882Z" transform="translate(-1060.018 -336.62)" fill="#3d7cb3"/>
        </g>
        <g id="Group_3283" data-name="Group 3283" transform="translate(206.14 325.227)">
          <path id="Path_12072" data-name="Path 12072" d="M1068.469,342.667a1.451,1.451,0,0,1-1.135-.546c-.308-.387-.8-.974-1.389-1.668a52.266,52.266,0,0,1-5.375-7.035,1.452,1.452,0,0,1,2.6-1.3,57.438,57.438,0,0,0,5,6.462c.6.717,1.116,1.325,1.436,1.726a1.452,1.452,0,0,1-1.133,2.357Z" transform="translate(-1060.418 -331.318)" fill="#3d7cb3"/>
        </g>
        <g id="Group_3284" data-name="Group 3284" transform="translate(121.402 296.821)">
          <path id="Path_12073" data-name="Path 12073" d="M1022.871,322.435a1.435,1.435,0,0,1-.752-.211,16.281,16.281,0,0,1-1.66-1.2,6.169,6.169,0,0,0-2.584-1.486,1.452,1.452,0,0,1,.5-2.861,8.666,8.666,0,0,1,3.892,2.071,13.866,13.866,0,0,0,1.36,1,1.451,1.451,0,0,1-.751,2.693Z" transform="translate(-1016.672 -316.654)" fill="#3d7cb3"/>
        </g>
        <g id="Group_3285" data-name="Group 3285" transform="translate(126.513 294.033)">
          <path id="Path_12074" data-name="Path 12074" d="M1022.333,320.651a1.448,1.448,0,0,1-1.029-.428,8.3,8.3,0,0,1-1.922-3.105,1.451,1.451,0,0,1,2.758-.9,5.428,5.428,0,0,0,1.22,1.962,1.451,1.451,0,0,1-1.029,2.476Z" transform="translate(-1019.31 -315.214)" fill="#3d7cb3"/>
        </g>
        <g id="Group_3286" data-name="Group 3286" transform="translate(157.004 247.305)">
          <path id="Path_12075" data-name="Path 12075" d="M1036.5,343.829a1.452,1.452,0,0,1-1.124-2.369c12.08-14.826,31.689-36.824,47.195-50.023a1.452,1.452,0,1,1,1.883,2.21c-15.359,13.073-34.825,34.916-46.827,49.647A1.45,1.45,0,0,1,1036.5,343.829Z" transform="translate(-1035.051 -291.091)" fill="#002954"/>
        </g>
        <g id="Group_3287" data-name="Group 3287" transform="translate(265.894 138.051)">
          <path id="Path_12076" data-name="Path 12076" d="M1092.716,261a1.449,1.449,0,0,1-1.323-2.046,45,45,0,0,1,27.56-24.2,1.452,1.452,0,1,1,.851,2.776,42.059,42.059,0,0,0-25.763,22.613A1.449,1.449,0,0,1,1092.716,261Z" transform="translate(-1091.265 -234.69)" fill="#002954"/>
        </g>
        <g id="Group_3288" data-name="Group 3288" transform="translate(184.244 102.391)">
          <path id="Path_12077" data-name="Path 12077" d="M1050.567,247.9a1.431,1.431,0,0,1-.486-.085,1.451,1.451,0,0,1-.883-1.852c3.663-10.33,8.417-21.974,18.485-29.4a1.451,1.451,0,1,1,1.722,2.336c-9.408,6.939-13.951,18.108-17.471,28.033A1.452,1.452,0,0,1,1050.567,247.9Z" transform="translate(-1049.114 -216.28)" fill="#002954"/>
        </g>
        <g id="Group_3289" data-name="Group 3289" transform="translate(194.374 110.844)">
          <path id="Path_12078" data-name="Path 12078" d="M1055.8,231.147a1.427,1.427,0,0,1-.4-.056,1.45,1.45,0,0,1-1-1.792c.971-3.423,3.142-5.838,5.242-8.172a1.451,1.451,0,1,1,2.16,1.939c-1.966,2.187-3.822,4.25-4.608,7.026A1.453,1.453,0,0,1,1055.8,231.147Z" transform="translate(-1054.343 -220.644)" fill="#002954"/>
        </g>
        <g id="Group_3290" data-name="Group 3290" transform="translate(205.05 110.58)">
          <path id="Path_12079" data-name="Path 12079" d="M1123.59,248.739c-.136,0-.273,0-.409,0-24.963-.1-47.9-9.5-62.943-25.794a1.452,1.452,0,0,1,2.135-1.968c14.491,15.7,36.661,24.762,60.82,24.86a95.383,95.383,0,0,0,24.973-3.19,1.451,1.451,0,0,1,.746,2.8A98.339,98.339,0,0,1,1123.59,248.739Z" transform="translate(-1059.855 -220.508)" fill="#002954"/>
        </g>
        <g id="Group_3291" data-name="Group 3291" transform="translate(205.872 117.638)">
          <path id="Path_12080" data-name="Path 12080" d="M1118.652,251.025a1.451,1.451,0,0,1-.3-.031l-2.615-.552c-20.051-4.221-40.785-8.585-55.065-23.847a1.452,1.452,0,0,1,2.121-1.983c13.654,14.594,33.932,18.863,53.541,22.991l2.619.552a1.451,1.451,0,0,1-.3,2.871Z" transform="translate(-1060.279 -224.152)" fill="#002954"/>
        </g>
        <g id="Group_3292" data-name="Group 3292" transform="translate(295.014 95.584)">
          <path id="Path_12081" data-name="Path 12081" d="M1112.816,234.725c-3.677-.012-6.53-3.185-6.518-7.221.012-4.806,4.07-10.315,8.068-13.271a8.144,8.144,0,0,1,4.767-1.466c4.236.012,6.745,2.768,6.734,7.374-.006,3.5-1.867,7.436-4.979,10.528C1118.3,233.247,1115.354,234.725,1112.816,234.725Zm6.317-19.057a5.285,5.285,0,0,0-3.041.9c-3.334,2.466-6.882,7.138-6.89,10.946-.006,2.067,1.37,4.3,3.6,4.312,1.737,0,4.043-1.23,6.038-3.212,2.536-2.524,4.116-5.772,4.122-8.479.01-4.453-2.869-4.461-3.814-4.465Z" transform="translate(-1106.298 -212.766)" fill="#002954"/>
        </g>
        <g id="Group_3293" data-name="Group 3293" transform="translate(254.456 201.802)">
          <path id="Path_12082" data-name="Path 12082" d="M1131.03,294.265h-.221c-13.987-.1-25.335-9.048-32.655-15.776a13.32,13.32,0,0,0-4.3-2.047c-3.307-1.166-7.421-2.617-8.455-7.061a1.451,1.451,0,1,1,2.826-.659c.674,2.894,3.551,3.907,6.594,4.982a15.123,15.123,0,0,1,5.3,2.646c11.223,10.315,20.694,14.942,30.71,15.012.9.006,1.823-.029,2.727-.1a1.451,1.451,0,1,1,.232,2.892C1132.874,294.228,1131.946,294.265,1131.03,294.265Z" transform="translate(-1085.36 -267.601)" fill="#002954"/>
        </g>
        <g id="Group_3294" data-name="Group 3294" transform="translate(282.109 144.856)">
          <path id="Path_12083" data-name="Path 12083" d="M1101.087,247.861a1.451,1.451,0,0,1-1.1-2.4,21.757,21.757,0,0,1,12.124-7.235,1.452,1.452,0,0,1,.546,2.851,18.8,18.8,0,0,0-10.466,6.272A1.45,1.45,0,0,1,1101.087,247.861Z" transform="translate(-1099.636 -238.203)" fill="#002954"/>
        </g>
        <g id="Group_3295" data-name="Group 3295" transform="translate(250.496 178.995)">
          <path id="Path_12084" data-name="Path 12084" d="M1091.163,264.732h-.075a10.713,10.713,0,0,1-7.311-2.729,1.451,1.451,0,1,1,1.982-2.121,7.817,7.817,0,0,0,5.344,1.947c2.439,0,7.006-.984,7.5-4.738a1.452,1.452,0,1,1,2.879.378C1100.823,262.466,1095.688,264.732,1091.163,264.732Z" transform="translate(-1083.316 -255.827)" fill="#002954"/>
        </g>
        <g id="Group_3296" data-name="Group 3296" transform="translate(284.27 174.359)">
          <path id="Path_12085" data-name="Path 12085" d="M1107.792,258.982h-.06c-3.113-.017-5.455-1.174-6.77-3.345a1.452,1.452,0,0,1,2.483-1.505c.775,1.282,2.224,1.937,4.3,1.949a11.9,11.9,0,0,0,2.938-.384,1.451,1.451,0,1,1,.722,2.811A14.75,14.75,0,0,1,1107.792,258.982Z" transform="translate(-1100.752 -253.433)" fill="#002954"/>
        </g>
        <g id="Group_3297" data-name="Group 3297" transform="translate(149.873 211.337)">
          <path id="Path_12086" data-name="Path 12086" d="M1064.023,318.892a1.453,1.453,0,0,1-1.436-1.242c-3.795-25.866-24.721-40.086-28.856-42.056a1.452,1.452,0,0,1-2.282-1.606,2.128,2.128,0,0,1,2.063-1.466c2.731.017,27.681,15.626,31.948,44.707a1.451,1.451,0,0,1-1.224,1.646A1.6,1.6,0,0,1,1064.023,318.892Z" transform="translate(-1031.37 -272.523)" fill="#002954"/>
        </g>
        <g id="Group_3298" data-name="Group 3298" transform="translate(154.332 207.898)">
          <path id="Path_12087" data-name="Path 12087" d="M1069.976,310.381a1.448,1.448,0,0,1-1.236-.69c-8.031-13.009-18.025-29.2-34.191-36.157a1.452,1.452,0,0,1,1.149-2.667c17.005,7.318,27.268,23.942,35.512,37.3a1.452,1.452,0,0,1-1.234,2.214Z" transform="translate(-1033.672 -270.748)" fill="#002954"/>
        </g>
        <g id="Group_3299" data-name="Group 3299" transform="translate(207.568 253.698)">
          <path id="Path_12088" data-name="Path 12088" d="M1113.609,343.245a1.076,1.076,0,0,1-.138-.008,1.45,1.45,0,0,1-1.309-1.581c.077-.825.118-1.666.122-2.5.091-23.557-31.71-41.74-47.658-41.862-.641,0-1.3.012-1.935.05a1.452,1.452,0,0,1-.172-2.9c.7-.043,1.416-.058,2.129-.056,9.141.07,21.615,5.137,31.781,12.911,12.14,9.28,18.8,20.6,18.756,31.867,0,.92-.048,1.848-.135,2.758A1.452,1.452,0,0,1,1113.609,343.245Z" transform="translate(-1061.155 -294.392)" fill="#002954"/>
        </g>
        <g id="Group_3300" data-name="Group 3300" transform="translate(214.17 248.366)">
          <path id="Path_12089" data-name="Path 12089" d="M1111.779,322.961a1.451,1.451,0,0,1-1.329-.866c-7.214-16.337-24.854-27.411-43.9-27.553l-.532,0a1.451,1.451,0,1,1-.014-2.9h.57c20.161.151,38.859,11.919,46.528,29.285a1.452,1.452,0,0,1-1.327,2.038Z" transform="translate(-1064.563 -291.639)" fill="#002954"/>
        </g>
        <g id="Group_3301" data-name="Group 3301" transform="translate(221.475 229.82)">
          <path id="Path_12090" data-name="Path 12090" d="M1121.113,305.626a1.451,1.451,0,0,1-.242-.019c-19.272-3.235-37-12.345-51.807-20.831a1.451,1.451,0,1,1,1.443-2.518c14.58,8.358,32.024,17.329,50.844,20.486a1.451,1.451,0,0,1-.238,2.882Z" transform="translate(-1068.334 -282.065)" fill="#002954"/>
        </g>
        <g id="Group_3302" data-name="Group 3302" transform="translate(225.33 222.328)">
          <path id="Path_12091" data-name="Path 12091" d="M1081.212,285.668a49.039,49.039,0,0,1-10.241-4.812,1.452,1.452,0,0,1,1.61-2.417,46.055,46.055,0,0,0,9.65,4.511Z" transform="translate(-1070.324 -278.197)" fill="#002954"/>
        </g>
        <g id="Group_3303" data-name="Group 3303" transform="translate(166.913 103.676)">
          <path id="Path_12092" data-name="Path 12092" d="M1041.891,273.1a1.45,1.45,0,0,1-1.447-1.352c-.2-2.933-.295-5.854-.275-8.682.128-19.084,5.2-34.439,15.065-45.635a1.451,1.451,0,1,1,2.177,1.92c-9.391,10.656-14.216,25.372-14.34,43.735-.017,2.754.074,5.6.269,8.465a1.452,1.452,0,0,1-1.348,1.548C1041.957,273.1,1041.924,273.1,1041.891,273.1Z" transform="translate(-1040.167 -216.944)" fill="#002954"/>
        </g>
        <g id="Group_3304" data-name="Group 3304" transform="translate(113.04 106.574)">
          <path id="Path_12093" data-name="Path 12093" d="M1013.808,229.273a1.342,1.342,0,0,1-.2-.014,1.451,1.451,0,0,1-1.244-1.633,22.316,22.316,0,0,1,2.708-8.473,1.452,1.452,0,1,1,2.5,1.474,19.512,19.512,0,0,0-2.332,7.388A1.452,1.452,0,0,1,1013.808,229.273Z" transform="translate(-1012.355 -218.439)" fill="#002954"/>
        </g>
        <g id="Group_3305" data-name="Group 3305" transform="translate(118.992 109.358)">
          <path id="Path_12094" data-name="Path 12094" d="M1016.881,228.983a1.484,1.484,0,0,1-.416-.062,1.452,1.452,0,0,1-.976-1.805,18.8,18.8,0,0,1,3.051-5.606c.232-.327.469-.661.7-1a1.451,1.451,0,1,1,2.392,1.643c-.242.354-.486.7-.724,1.036a16.234,16.234,0,0,0-2.638,4.761A1.454,1.454,0,0,1,1016.881,228.983Z" transform="translate(-1015.428 -219.877)" fill="#002954"/>
        </g>
        <g id="Group_3306" data-name="Group 3306" transform="translate(72.775 259.151)">
          <path id="Path_12095" data-name="Path 12095" d="M1008.058,308.583a1.449,1.449,0,0,1-1.031-.428c-2.336-2.354-5.315-3.669-8.469-5.064a44.405,44.405,0,0,1-6.328-3.216,1.452,1.452,0,0,1,1.579-2.437,41.358,41.358,0,0,0,5.924,3c3.26,1.443,6.632,2.933,9.356,5.674a1.451,1.451,0,0,1-1.03,2.474Z" transform="translate(-991.568 -297.207)" fill="#002954"/>
        </g>
        <g id="Group_3307" data-name="Group 3307" transform="translate(77.74 254.319)">
          <path id="Path_12096" data-name="Path 12096" d="M1006.77,304.662a1.452,1.452,0,0,1-1.139-.548c-1.616-2.036-4.01-3.2-6.545-4.43a40.8,40.8,0,0,1-4.287-2.3,1.451,1.451,0,1,1,1.567-2.443,39.081,39.081,0,0,0,3.987,2.131c2.718,1.319,5.526,2.685,7.552,5.236a1.451,1.451,0,0,1-1.135,2.353Z" transform="translate(-994.132 -294.713)" fill="#002954"/>
        </g>
        <g id="Group_3308" data-name="Group 3308" transform="translate(145.49 329.416)">
          <path id="Path_12097" data-name="Path 12097" d="M1030.8,337.985c-.085,0-.171,0-.256,0a1.451,1.451,0,0,1,.014-2.9h.248a45.951,45.951,0,0,0,7.313-.781,45.8,45.8,0,0,1,8.035-.817,1.452,1.452,0,1,1-.029,2.9,44.044,44.044,0,0,0-7.547.781A48.911,48.911,0,0,1,1030.8,337.985Z" transform="translate(-1029.107 -333.481)" fill="#002954"/>
        </g>
        <g id="Group_3309" data-name="Group 3309" transform="translate(146.97 320.62)">
          <path id="Path_12098" data-name="Path 12098" d="M1031.324,333.147a1.451,1.451,0,0,1-.73-2.706,12.881,12.881,0,0,1,6.956-1.5c.515,0,1.035.019,1.556.037s1.015.031,1.527.035c.738.006,1.346-.01,1.906-.054a1.452,1.452,0,0,1,.231,2.894c-.647.05-1.337.07-2.166.064-.529-.006-1.059-.021-1.586-.037-.5-.015-1-.031-1.5-.037a10.15,10.15,0,0,0-5.468,1.108A1.437,1.437,0,0,1,1031.324,333.147Z" transform="translate(-1029.871 -328.94)" fill="#002954"/>
        </g>
        <g id="Group_3310" data-name="Group 3310" transform="translate(169.656 405.741)">
          <path id="Path_12099" data-name="Path 12099" d="M1043.034,393.4a1.451,1.451,0,0,1-.006-2.9c24.76-.116,43.987-5.925,57.143-17.263a1.452,1.452,0,1,1,1.9,2.2c-13.7,11.8-33.554,17.846-59.026,17.966Z" transform="translate(-1041.583 -372.883)" fill="#002954"/>
        </g>
        <g id="Group_3311" data-name="Group 3311" transform="translate(46.505 354.145)">
          <path id="Path_12100" data-name="Path 12100" d="M1040.313,364.523c-.029,0-.06,0-.091,0a169.149,169.149,0,0,1-61.386-15.51,1.452,1.452,0,0,1,1.242-2.625,166.222,166.222,0,0,0,60.322,15.237,1.451,1.451,0,0,1-.087,2.9Z" transform="translate(-978.007 -346.247)" fill="#002954"/>
        </g>
        <g id="Group_3312" data-name="Group 3312" transform="translate(280.611 187.168)">
          <path id="Path_12101" data-name="Path 12101" d="M1130.455,283.289a1.452,1.452,0,0,1-.7-.178c-3.357-1.836-5.745-4.579-8.052-7.231-.645-.74-1.294-1.484-1.968-2.216-1.968-2.133-5.283-2.753-8.795-3.407-5.061-.945-10.8-2.014-12.054-8.48a1.452,1.452,0,0,1,2.85-.556c.821,4.225,4.227,5.155,9.738,6.183,3.822.713,7.773,1.451,10.4,4.293.691.752,1.36,1.517,2.022,2.278,2.239,2.574,4.355,5,7.256,6.59a1.452,1.452,0,0,1-.7,2.725Z" transform="translate(-1098.863 -260.046)" fill="#002954"/>
        </g>
        <g id="Group_3313" data-name="Group 3313" transform="translate(310.564 181.015)">
          <path id="Path_12102" data-name="Path 12102" d="M1120.042,264.183a1.46,1.46,0,0,1-.384-.05c-4.414-1.209-5.337-3.529-5.333-5.265a4.992,4.992,0,0,1,.064-.775,1.451,1.451,0,0,1,2.867.455,2.105,2.105,0,0,0-.027.324c0,1.311,1.736,2.061,3.194,2.46a1.451,1.451,0,0,1-.382,2.851Z" transform="translate(-1114.326 -256.869)" fill="#002954"/>
        </g>
        <g id="Group_3314" data-name="Group 3314" transform="translate(326.5 196.127)">
          <path id="Path_12103" data-name="Path 12103" d="M1128.841,271.561a1.444,1.444,0,0,1-.42-.062c-1.436-.432-5.25-1.577-5.848-5.135a1.452,1.452,0,0,1,2.863-.482c.209,1.247,1.352,2.1,3.822,2.838a1.452,1.452,0,0,1-.417,2.842Z" transform="translate(-1122.553 -264.671)" fill="#002954"/>
        </g>
        <g id="Group_3315" data-name="Group 3315" transform="translate(334.142 211.614)">
          <path id="Path_12104" data-name="Path 12104" d="M1131.577,279.554a1.468,1.468,0,0,1-.459-.075c-2.983-1-4.624-2.9-4.62-5.364a1.452,1.452,0,0,1,2.9,0c0,1.145.883,2.022,2.634,2.607a1.451,1.451,0,0,1-.459,2.828Z" transform="translate(-1126.498 -272.666)" fill="#002954"/>
        </g>
        <g id="Group_3316" data-name="Group 3316" transform="translate(320.014 213.703)">
          <path id="Path_12105" data-name="Path 12105" d="M1122.937,281.029a1.437,1.437,0,0,1-.765-.219c-2.21-1.371-2.745-3.76-2.956-5.435a1.452,1.452,0,0,1,2.881-.36c.219,1.749.715,2.776,1.606,3.33a1.451,1.451,0,0,1-.765,2.685Z" transform="translate(-1119.204 -273.745)" fill="#002954"/>
        </g>
        <g id="Group_3317" data-name="Group 3317" transform="translate(66.762 54.854)">
          <path id="Path_12106" data-name="Path 12106" d="M992.164,229.2a1.453,1.453,0,0,1-.692-2.729c4.469-2.419,6.111-9.22,6.16-14.311.07-7.1-4.188-12.847-8.8-18A1.452,1.452,0,1,1,991,192.223c5,5.587,9.616,11.872,9.536,19.963-.056,5.879-2.1,13.815-7.679,16.835A1.463,1.463,0,0,1,992.164,229.2Z" transform="translate(-988.464 -191.739)" fill="#002954"/>
        </g>
        <g id="Group_3318" data-name="Group 3318" transform="translate(37.968 30.558)">
          <path id="Path_12107" data-name="Path 12107" d="M978.222,207.226a1.452,1.452,0,0,1-1.441-1.282,57.554,57.554,0,0,0-1.827-8.754,28.134,28.134,0,0,1-1.354-7.611A10.3,10.3,0,0,1,983.879,179.2c8.016.008,9.066,5.557,10.083,10.923.815,4.308,1.739,9.191,6.022,12.92a1.452,1.452,0,1,1-1.908,2.189c-5.04-4.387-6.108-10.032-6.968-14.569-1.094-5.778-1.858-8.556-7.223-8.562a7.342,7.342,0,0,0-7.382,7.512,26.253,26.253,0,0,0,1.255,6.826,60.145,60.145,0,0,1,1.908,9.17,1.452,1.452,0,0,1-1.275,1.61A1.25,1.25,0,0,1,978.222,207.226Z" transform="translate(-973.6 -179.197)" fill="#002954"/>
        </g>
        <g id="Group_3319" data-name="Group 3319" transform="translate(20.43 14.997)">
          <path id="Path_12108" data-name="Path 12108" d="M983.541,180.559a1.432,1.432,0,0,1-.426-.064,85.053,85.053,0,0,1-7.979-3.035,67.754,67.754,0,0,0-9.5-3.438,1.452,1.452,0,0,1,.713-2.815,69.777,69.777,0,0,1,9.9,3.576,82.467,82.467,0,0,0,7.708,2.937,1.451,1.451,0,0,1-.424,2.84Z" transform="translate(-964.546 -171.163)" fill="#002954"/>
        </g>
        <g id="Group_3320" data-name="Group 3320" transform="translate(17.355 31.921)">
          <path id="Path_12109" data-name="Path 12109" d="M964.407,184.624a1.452,1.452,0,0,1-.192-2.89l13.484-1.819a1.451,1.451,0,1,1,.387,2.877L964.6,184.61A1.344,1.344,0,0,1,964.407,184.624Z" transform="translate(-962.958 -179.901)" fill="#002954"/>
        </g>
        <g id="Group_3321" data-name="Group 3321" transform="translate(20.199 41.804)">
          <path id="Path_12110" data-name="Path 12110" d="M965.878,194.1a1.452,1.452,0,0,1-.569-2.787l14.545-6.191a1.452,1.452,0,1,1,1.137,2.671l-14.545,6.191A1.438,1.438,0,0,1,965.878,194.1Z" transform="translate(-964.427 -185.003)" fill="#002954"/>
        </g>
        <path id="Path_12111" data-name="Path 12111" d="M1096.276,185.7a57.026,57.026,0,0,0-9.664,5.631c-7.705,5.513-17.418,15.142-20.641,29.99-2.937,13.53-2.127,23.08-.683,29.126-.084-.072-.132-.107-.132-.107s-7.471-10.379-2.307-34.189c2.96-13.625,11.87-22.458,18.941-27.516a49.144,49.144,0,0,1,9.515-5.445S1093.21,184.057,1096.276,185.7Z" transform="translate(-853.705 -144.898)" fill="#fff"/>
      </g>
    </g>
  </g>
</svg>
