<svg xmlns="http://www.w3.org/2000/svg" width="1204.229" height="212.539" viewBox="0 0 1204.229 212.539">
  <g id="Group_5400" data-name="Group 5400" transform="translate(-327.538 -370.563)">
    <g id="Group_62" data-name="Group 62" transform="translate(327.538 370.563)">
      <g id="Group_55" data-name="Group 55" transform="translate(0 0)">
        <path id="Path_189" data-name="Path 189" d="M408.082,559.654c.136-2.146.389-4.292.39-6.438.024-39.416.109-78.833-.108-118.247-.025-4.548,1.421-5.408,6.021-5.407q571.145.15,1142.29.111c1.761,0,3.6-.4,5.277.486,1.022,1.722.514,3.589.515,5.381q.05,59.357.047,118.715c0,1.8-.434,3.66.454,5.408l.042.015c2.335,1.592,2.427,3.96,2.443,6.3.116,17.122.249,34.246-.065,51.367-.114,6.238-1.774,7.634-8.444,7.648q-40.375.087-80.75.019a13.108,13.108,0,0,1-5.792-.825,43.887,43.887,0,0,0-6.45-.158q-479.242-.013-958.482.259-44.865.06-89.784.7c-8.852.116-9.968-.918-10.048-9.141-.158-16.3-.113-32.592-.006-48.887C405.649,564.335,405.4,561.551,408.082,559.654Z" transform="translate(-382.273 -412.487)" fill="#ffd837"/>
        <path id="Path_192" data-name="Path 192" d="M989.761,411.894h593.458c8.377,0,8.387,0,8.387,11.636q0,91.566-.07,183.131c-.006,3.779,1.676,10.085-3.025,10.244-5.085.173-3.551-6.375-3.556-10.456q-.125-88.527.054-177.053c.021-6.591-1.056-8.371-5.9-8.369q-589.391.265-1178.784-.009c-5.126,0-6.141,2.12-6.121,8.821.179,58.764.1,117.528.1,176.294,0,2.026.067,4.062-.052,6.076-.168,2.818-1.116,4.842-3.339,4.927-2.313.088-3.15-1.974-3.262-4.842-.071-1.769-.052-3.545-.052-5.317q0-92.328,0-184.652c0-10.419.024-10.43,7.621-10.43Z" transform="translate(-387.595 -411.894)" fill="#ee980f"/>
        <path id="Path_195" data-name="Path 195" d="M1480.021,630.3c-1.613-1.81-1.38-4.2-1.377-6.478q.062-96.833.154-193.665c1.487,2.578.738,5.49.74,8.226q.076,90.975.058,181.951C1479.6,623.658,1479.873,626.981,1480.021,630.3Z" transform="translate(-299.857 -417.764)" fill="#e7a40f"/>
        <path id="Path_196" data-name="Path 196" d="M1488.031,567.119c0,11.907-.165,23.816.088,35.721.087,4.135-1.795,5.756-7.461,5.729-27.214-.128-54.431-.05-81.646-.063-3.042,0-6.835.137-6.962-2.9-.141-3.4,3.818-3.276,7.113-3.277,24.839-.006,49.681-.113,74.518.084,5.151.041,6.472-1.071,6.43-4.843-.236-21.721-.115-43.444-.114-65.167,0-1.126.015-2.253.012-3.379,0-2.211,1.113-3.967,4.357-3.876,2.974.083,3.649,1.9,3.649,3.84q0,10.62.018,21.24Q1488.038,558.672,1488.031,567.119Z" transform="translate(-325.548 -409.383)" fill="#fefdfc"/>
        <path id="Path_197" data-name="Path 197" d="M476.4,609.173c-15.983,0-31.972-.143-47.95.072-6.006.08-7.849-1.6-7.8-5.955.222-20.273.093-40.549.106-60.824,0-2.228-.519-5.116,3.735-5.171,4.618-.06,4.243,2.925,4.243,5.354,0,18.666.147,37.333-.122,56-.053,3.706,1.46,4.566,6.2,4.541,28.943-.149,57.886-.074,86.83-.073,1.729,0,3.457.015,5.184.016,2.584,0,5.075.485,5.243,2.677.181,2.389-2.154,3.327-5.121,3.345-5.4.032-10.8.02-16.2.021Q493.572,609.177,476.4,609.173Z" transform="translate(-377.788 -409.791)" fill="#fefefd"/>
      </g>
    </g>
  </g>
</svg>
