<svg xmlns="http://www.w3.org/2000/svg" width="2094.221" height="2073.234" viewBox="0 0 2094.221 2073.234">
  <g id="Group_3465" data-name="Group 3465" transform="translate(86.61 -0.005)">
    <path id="Path_12548" data-name="Path 12548" d="M0,0H1921V1795.112H0Z" transform="translate(0 0.004)" fill="#430671"/>
    <path id="Path_12549" data-name="Path 12549" d="M2.124,1191.275c15.484,346.884,129.9,530.534,246.535,530.534,160.777,0,376.455-452.923,654.3-457.879,179.058-3.194,259.078,160.591,359.464,159.44,102.826-1.179,162.886-224.361,162.886-489.7,0-379.134-105.068-666.292-242.511-658.629-89.831,5.008-175.734,160.074-266.881,164.625C778.289,446.535,632.284-13.644,428.047.311,241.387,13.065,22.185,399.425,1.419,1011.159-.651,1072.161-.49,1132.737,2.124,1191.275Z" transform="translate(1836.925 177.684) rotate(90)" fill="#082054"/>
    <g id="Group_4441" data-name="Group 4441" transform="translate(2007.61 2073.239) rotate(180)">
      <path id="Path_14168" data-name="Path 14168" d="M2094.221,247.966V0H0V247.966C709.14,621.867,1385.081,621.867,2094.221,247.966Z" fill="#fff"/>
      <g id="Group_4078" data-name="Group 4078" transform="translate(47.368 197.961)">
        <path id="Path_14169" data-name="Path 14169" d="M88.7,93.521C39.583,79.841,0,47.749,0,23.893,0-.018,39.583-6.65,88.7,7.032c49.108,13.734,89.132,42.586,89.127,66.5C177.832,97.386,137.808,107.253,88.7,93.521Z" transform="translate(196.271 14.093)" fill="#afcded"/>
        <path id="Path_14170" data-name="Path 14170" d="M26.331,26.6C11.782,23.544,0,15.235,0,8.218S11.781-1.876,26.331,1.178s26.36,11.088,26.36,18.11S40.881,29.657,26.331,26.6Z" transform="translate(429.324 114.804)" fill="#afcded"/>
        <path id="Path_14171" data-name="Path 14171" d="M79.585,78.044C35.578,72.018,0,48.75,0,27.674,0,6.558,35.578-4.38,79.585,1.645c44,6.067,79.753,26.81,79.752,47.927C159.339,70.647,123.587,84.109,79.585,78.044Z" transform="translate(560.92 166.082)" fill="#afcded"/>
        <path id="Path_14172" data-name="Path 14172" d="M91.4,87.93C40.879,84.348,0,60.2,0,36.1,0,11.933,40.88-3.055,91.4.527,141.91,4.161,182.907,25,182.9,49.162,182.907,73.27,141.909,91.562,91.4,87.93Z" transform="translate(720.256 78.005)" fill="#afcded"/>
        <path id="Path_14173" data-name="Path 14173" d="M115.7,21.235c0,15.289-25.862,31.331-57.816,34.992C25.937,59.912,0,49.824,0,34.537,0,19.229,25.937,4.514,57.889.829,89.843-2.832,115.7,5.928,115.7,21.235Z" transform="translate(1240.892 177.2)" fill="#afcded"/>
        <path id="Path_14174" data-name="Path 14174" d="M82.445,86.412C37.01,99.046,0,89.979,0,67.907,0,45.794,37.01,19.044,82.445,6.41c45.441-12.586,82.078-6.291,82.08,15.826C164.523,44.3,127.886,73.823,82.445,86.412Z" transform="translate(1626.187 32.324)" fill="#afcded"/>
        <path id="Path_14175" data-name="Path 14175" d="M38.708,43.394C17.362,51.586,0,49.356,0,38.812S17.362,13.387,38.708,5.2,77.3-1.388,77.3,9.167,60.057,35.212,38.708,43.394Z" transform="translate(1920.004 20.933)" fill="#afcded"/>
        <path id="Path_14176" data-name="Path 14176" d="M38,37.98C17.027,41.967,0,36.721,0,26.63S17.027,5.4,38,1.415,75.943,2.1,75.943,12.2,58.971,34,38,37.98Z" transform="translate(1452.88 88.158)" fill="#afcded"/>
        <path id="Path_14177" data-name="Path 14177" d="M48.482,54.4C21.654,44.24,0,24.76,0,11.522S21.655-3.723,48.482,6.438C75.306,16.617,97.143,35.1,97.141,48.355,97.143,61.591,75.307,64.582,48.482,54.4Z" fill="#afcded"/>
        <path id="Path_14178" data-name="Path 14178" d="M64.763,63.161C29.021,67.739,0,56.724,0,39.614,0,22.476,29.022,5.724,64.763,1.146c35.743-4.553,64.661,4.8,64.661,21.937C129.423,40.193,100.505,58.609,64.763,63.161Z" transform="translate(1267.005 26.499)" fill="#afcded"/>
      </g>
      <g id="Group_4079" data-name="Group 4079" transform="translate(54.91 195.111)">
        <path id="Path_14179" data-name="Path 14179" d="M39.083,0C26.566,0,16.2,2.031,9.109,5.87,1.9,9.77,0,14.5,0,16.455,0,20.886,4.957,33.2,23.712,48.073,40.433,61.332,62.474,72.207,85.774,78.7a158.369,158.369,0,0,0,41.787,6.2c13.608,0,25.065-2.331,33.134-6.74,8.269-4.521,10.453-9.865,10.453-12.061,0-4.29-4.984-16.072-23.857-30.005-16.418-12.12-38.56-22.459-62.346-29.112C68.566,2.412,52.708,0,39.085,0Z" transform="translate(196.059 14.094)" fill="#fff"/>
        <path id="Path_14180" data-name="Path 14180" d="M10.135,0A24.448,24.448,0,0,0,0,1.768c3.584,3.4,10.81,7.815,21.131,9.981a49.018,49.018,0,0,0,10.027,1.1c5.065,0,8.434-.935,10.51-1.932C38.114,7.6,30.966,3.345,20.5,1.146A50.718,50.718,0,0,0,10.137,0Z" transform="translate(431.286 114.805)" fill="#fff"/>
        <path id="Path_14181" data-name="Path 14181" d="M52.93,0C37.108,0,23.023,2.563,13.27,7.213,2.438,12.38,0,18.5,0,20.233,0,22.912,3.835,33.015,20.872,43.91c14.958,9.566,34.7,16.408,55.578,19.266a151.276,151.276,0,0,0,20.593,1.448c16.263,0,30.99-2.9,41.468-8.172,11.746-5.907,14.146-12.8,14.146-14.318,0-2.6-3.838-12.279-20.9-22.42C117.076,10.983,97.287,4.56,76.038,1.63A171.27,171.27,0,0,0,52.936,0Z" transform="translate(560.708 166.082)" fill="#fff"/>
        <path id="Path_14182" data-name="Path 14182" d="M73.377,0C52.229,0,33.049,3.455,19.371,9.73,3.48,17.02,0,25.863,0,28.656c0,3.471,4.356,14.982,24.248,26.409,17.234,9.9,39.933,16.286,63.914,17.987,4.219.3,8.467.458,12.626.458,21.255,0,40.91-3.965,55.344-11.167,16.485-8.226,20.094-17.673,20.094-20.618,0-2.025-1.415-6.036-5.4-10.694-4.28-5-10.792-9.867-18.832-14.083C135.142,8.115,112.4,2.281,87.948.523,83.054.176,78.152,0,73.38,0Z" transform="translate(720.044 78.005)" fill="#fff"/>
        <path id="Path_14183" data-name="Path 14183" d="M68.623,0A123.3,123.3,0,0,0,54.632.82C40.094,2.5,26.327,6.554,15.868,12.246,3.313,19.08.521,25.44,0,27.024c.5,1.287,2.838,5.8,11.752,9.737,7.8,3.449,18.349,5.347,29.712,5.347a112.325,112.325,0,0,0,12.824-.751c14.406-1.651,28.177-5.93,38.778-12.049,12.523-7.23,15.272-13.779,15.782-15.407-.508-1.237-2.809-5.481-11.389-9.071C89.9,1.67,79.933,0,68.628,0Z" transform="translate(1240.769 177.201)" fill="#fff"/>
        <path id="Path_14184" data-name="Path 14184" d="M121.615,0c-12.535,0-27.092,2.2-42.1,6.354-21.97,6.109-42.434,15.653-57.623,26.873C3.932,46.5,0,57.388,0,60.465c0,1.415,1.741,6.391,9.481,10.613,7.444,4.061,18.027,6.207,30.606,6.207A147.107,147.107,0,0,0,78.692,71.59c21.556-5.972,41.933-15.975,57.377-28.164,17.863-14.1,21.776-25.447,21.777-28.631C157.845,11.863,151.394,0,121.621,0Z" transform="translate(1625.975 32.323)" fill="#fff"/>
        <path id="Path_14185" data-name="Path 14185" d="M58.752,0c-6.57,0-14.9,1.807-23.464,5.088A94.63,94.63,0,0,0,10.1,19.335C4.16,24.159,1.233,28.217,0,30.548c1.535,1.293,4.966,2.93,11.4,2.93,6.608,0,14.478-1.68,22.759-4.857a90.407,90.407,0,0,0,25.154-14.53C65.2,9.153,68.1,5.015,69.326,2.635,67.994,1.541,65.005,0,58.753,0Z" transform="translate(1920.439 20.934)" fill="#fff"/>
        <path id="Path_14186" data-name="Path 14186" d="M48.178,0A75.435,75.435,0,0,0,34.184,1.388,76.285,76.285,0,0,0,9.8,10.279c-5.886,3.532-8.6,6.669-9.8,8.5,2.407,2.422,8.8,5.656,20.31,5.656a71.571,71.571,0,0,0,13.307-1.313,73.013,73.013,0,0,0,24.369-9.142c5.537-3.44,8.438-6.692,9.759-8.723C65.552,3.13,59.821,0,48.179,0Z" transform="translate(1453.426 88.158)" fill="#fff"/>
        <path id="Path_14187" data-name="Path 14187" d="M14.817,0C5.336,0,1.244,2.9,0,4.6c.874,2.612,4.215,8.653,13.1,16.238a112.274,112.274,0,0,0,32.391,18.79c10.3,3.909,20.135,5.975,28.435,5.975,10.418,0,14.825-3.271,16.113-5.148-.886-2.552-4.267-8.449-13.224-15.8A118.661,118.661,0,0,0,44.37,6.332C33.434,2.19,23.215,0,14.821,0Z" fill="#fff"/>
        <path id="Path_14188" data-name="Path 14188" d="M78.946,0A138.045,138.045,0,0,0,61.6,1.134c-16.64,2.132-32.3,7-44.1,13.7C4.107,22.44.333,29.911,0,32.135.347,33.8,3.239,38.978,12.567,43.257c8.525,3.91,20.2,6.064,32.888,6.064a124.286,124.286,0,0,0,15.764-1.029c16.464-2.1,32.128-7.246,44.106-14.5,13.327-8.07,17.062-15.776,17.392-18.078-.216-.789-1.99-5.925-12.083-10.3C102.452,1.873,91.5,0,78.948,0Z" transform="translate(1266.806 26.498)" fill="#fff"/>
      </g>
      <g id="Group_4138" data-name="Group 4138" transform="translate(35.794 87.829)">
        <g id="Group_4080" data-name="Group 4080" transform="translate(561.77 277.273)">
          <path id="Path_14189" data-name="Path 14189" d="M1,0C.679,0,.362.349.168.994a4.181,4.181,0,0,0,.278,3.1c1.819,2.7,2.98,6.371,4.209,10.255.476,1.505.968,3.061,1.5,4.53.346.962.976,1.118,1.408.349a4.326,4.326,0,0,0,.157-3.138c-.49-1.363-.943-2.8-1.423-4.314C5.012,7.725,3.688,3.538,1.558.375A.707.707,0,0,0,1,0Z" fill="#afcded"/>
        </g>
        <g id="Group_4081" data-name="Group 4081" transform="translate(571.352 269.139)">
          <path id="Path_14190" data-name="Path 14190" d="M1,0A.557.557,0,0,0,.63.16a3.577,3.577,0,0,0-.558,2.9A48.875,48.875,0,0,0,1.7,9.331a29.8,29.8,0,0,1,1.51,6.556c.109,1.209.636,1.993,1.179,1.752s.894-1.418.786-2.627a36.847,36.847,0,0,0-1.83-8.228A42.519,42.519,0,0,1,1.932,1.4C1.776.531,1.4,0,1,0Z" fill="#afcded"/>
        </g>
        <g id="Group_4082" data-name="Group 4082" transform="translate(738.808 310.82)">
          <path id="Path_14191" data-name="Path 14191" d="M6.933,0a.557.557,0,0,0-.372.16C4.736,1.787,3.249,4.489,1.812,7.1,1.323,7.987.863,8.824.4,9.6a4.284,4.284,0,0,0-.2,3.125c.332.987.96,1.186,1.4.446.494-.826.993-1.732,1.475-2.608C4.4,8.161,5.764,5.679,7.306,4.305a3.576,3.576,0,0,0,.558-2.9C7.707.531,7.331,0,6.933,0Z" fill="#afcded"/>
        </g>
        <g id="Group_4083" data-name="Group 4083" transform="translate(632.765 264.356)">
          <path id="Path_14192" data-name="Path 14192" d="M12.089,0A66.33,66.33,0,0,0,.925.946C.374,1.041-.039,2.114,0,3.344S.526,5.5,1.079,5.4a65.364,65.364,0,0,1,11.01-.934C33.863,4.464,56.307,15.2,77,35.515c.506.5,1.1-.015,1.321-1.142A3.7,3.7,0,0,0,77.8,31.43C56.863,10.867,34.139,0,12.089,0Z" fill="#afcded"/>
        </g>
        <g id="Group_4084" data-name="Group 4084" transform="translate(715.563 304.507)">
          <path id="Path_14193" data-name="Path 14193" d="M1,0C.7,0,.4.309.2.894A4.28,4.28,0,0,0,.4,4.018a39.174,39.174,0,0,0,4.953,6.45c.5.549,1.1.1,1.344-1A3.859,3.859,0,0,0,6.25,6.475,36.559,36.559,0,0,1,1.6.448.756.756,0,0,0,1,0Z" fill="#afcded"/>
        </g>
        <g id="Group_4085" data-name="Group 4085" transform="translate(770.762 172.908)">
          <path id="Path_14194" data-name="Path 14194" d="M43.275,0A102.111,102.111,0,0,0,.8,9.555C.259,9.8-.09,10.981.021,12.188S.66,14.175,1.2,13.929A101.14,101.14,0,0,1,43.275,4.464c24.67,0,48.278,9.447,70.167,28.077.517.441,1.1-.138,1.293-1.289a3.521,3.521,0,0,0-.578-2.882C92.039,9.545,68.19,0,43.275,0Z" fill="#afcded"/>
        </g>
        <g id="Group_4086" data-name="Group 4086" transform="translate(895.959 210.934)">
          <path id="Path_14195" data-name="Path 14195" d="M1,0C.583,0,.191.591.052,1.527A3.354,3.354,0,0,0,.685,4.35,22.418,22.418,0,0,1,4.671,8.869c.852,1.142,1.733,2.323,2.683,3.382.5.55,1.1.1,1.344-1a3.862,3.862,0,0,0-.448-3C7.37,7.278,6.523,6.142,5.7,5.044A24.254,24.254,0,0,0,1.319.115.531.531,0,0,0,1,0Z" fill="#afcded"/>
        </g>
        <g id="Group_4087" data-name="Group 4087" transform="translate(718.363 178.852)">
          <path id="Path_14196" data-name="Path 14196" d="M1,0C.552,0,.144.678.03,1.691-.1,2.888.222,4.1.759,4.4c3.969,2.209,5.848,10.72,7.667,18.95.161.729.32,1.451.48,2.162.248,1.1.849,1.548,1.344,1a3.86,3.86,0,0,0,.448-3c-.157-.7-.315-1.417-.474-2.137C8.3,12.66,6.115,2.779,1.245.068A.492.492,0,0,0,1,0Z" fill="#afcded"/>
        </g>
        <g id="Group_4088" data-name="Group 4088" transform="translate(731.963 173.506)">
          <path id="Path_14197" data-name="Path 14197" d="M1,0A.754.754,0,0,0,.4.446,4.285,4.285,0,0,0,.2,3.572L3.8,14.265c.332.987.96,1.186,1.4.448a4.287,4.287,0,0,0,.2-3.126L1.8.892C1.607.308,1.306,0,1,0Z" fill="#afcded"/>
        </g>
        <g id="Group_4089" data-name="Group 4089" transform="translate(742.362 164.594)">
          <path id="Path_14198" data-name="Path 14198" d="M1,0A.524.524,0,0,0,.685.116,3.353,3.353,0,0,0,.052,2.939,32.869,32.869,0,0,0,.99,6.954a29.793,29.793,0,0,1,1.04,4.732c.134,1.195.678,1.921,1.215,1.623s.863-1.51.729-2.706A36.462,36.462,0,0,0,2.692,4.6a27.269,27.269,0,0,1-.739-3.07C1.813.591,1.422,0,1,0Z" fill="#afcded"/>
        </g>
        <g id="Group_4090" data-name="Group 4090" transform="translate(496.115 303.786)">
          <path id="Path_14199" data-name="Path 14199" d="M20.028,0A21.5,21.5,0,0,0,12.8,1.362,4.965,4.965,0,0,0,9.467.042c-2.958,0-5.246.561-6.8,1.669A7.038,7.038,0,0,0,0,7.663c0,7.432,8.4,14.726,16.958,14.726,4.9,0,8.978-1.046,11.8-3.026a10,10,0,0,0,4.374-8.491C33.128,4.267,27.986,0,20.028,0ZM12.686,5.9a.471.471,0,0,0,.165-.029,20.729,20.729,0,0,1,7.178-1.4c7.745,0,11.1,4.243,11.1,6.407,0,.742-.621,2.582-2.973,4.233-1.831,1.286-5.259,2.82-11.194,2.82C8.476,17.924,2,10.639,2,7.663c0-.627,1.328-3.157,7.463-3.157a3.968,3.968,0,0,1,2.824,1.212A.571.571,0,0,0,12.686,5.9Z" fill="#afcded"/>
        </g>
        <g id="Group_4091" data-name="Group 4091" transform="translate(218.539 115.059)">
          <path id="Path_14200" data-name="Path 14200" d="M41.978,0A156.438,156.438,0,0,0,.88,5.494C.331,5.644-.06,6.758.008,7.98s.566,2.095,1.116,1.945A155.518,155.518,0,0,1,41.978,4.464c37.322,0,75.707,13.109,114.088,38.962.529.354,1.089-.311,1.249-1.491a3.246,3.246,0,0,0-.669-2.783C118.076,13.172,79.5,0,41.978,0Z" fill="#afcded"/>
        </g>
        <g id="Group_4092" data-name="Group 4092" transform="translate(382.009 165.739)">
          <path id="Path_14201" data-name="Path 14201" d="M1,0C.448,0,0,1,0,2.232S.448,4.464,1,4.464c1.293,0,2.172,2.421,3.022,4.761.307.844.6,1.641.907,2.334.391.872,1.026.872,1.417,0a4.39,4.39,0,0,0,0-3.157c-.236-.527-.494-1.236-.766-1.985C4.6,3.708,3.251,0,1,0Z" fill="#afcded"/>
        </g>
        <g id="Group_4093" data-name="Group 4093" transform="translate(197.671 102.455)">
          <path id="Path_14202" data-name="Path 14202" d="M1,0C.517,0,.1.773.016,1.834A3.237,3.237,0,0,0,.65,4.323a6.686,6.686,0,0,1,.827.833,1.269,1.269,0,0,0,.39.5C4.769,9.7,5.818,18.038,6.756,25.5q.121.959.239,1.888c.152,1.186.706,1.868,1.239,1.533s.84-1.574.688-2.76q-.118-.917-.236-1.866C7.7,16.462,6.505,6.965,3.031,2.007,2.762.673,2.083,0,1,0Z" fill="#afcded"/>
        </g>
        <g id="Group_4094" data-name="Group 4094" transform="translate(0 86.956)">
          <path id="Path_14203" data-name="Path 14203" d="M1,0C.582,0,.192.591.052,1.527A3.359,3.359,0,0,0,.685,4.351C4.03,6.836,5.217,14.5,5.217,20.314c0,1.233.448,2.232,1,2.232s1-1,1-2.232c0-9.607-2.317-17.536-5.9-20.2A.533.533,0,0,0,1,0Z" fill="#afcded"/>
        </g>
        <g id="Group_4095" data-name="Group 4095" transform="translate(9.855 88.248)">
          <path id="Path_14204" data-name="Path 14204" d="M1,0C.745,0,.489.218.293.654a4.392,4.392,0,0,0,0,3.156A25.92,25.92,0,0,1,2.9,15.148c0,1.233.449,2.232,1,2.232s1-1,1-2.232A33.469,33.469,0,0,0,1.71.654C1.515.218,1.258,0,1,0Z" fill="#afcded"/>
        </g>
        <g id="Group_4096" data-name="Group 4096" transform="translate(116.515 144.669)">
          <path id="Path_14205" data-name="Path 14205" d="M4.883,0c-.257,0-.513.219-.708.655A82.088,82.088,0,0,0,.168,11.731a4.183,4.183,0,0,0,.278,3.1c.46.684,1.082.407,1.389-.619a77.133,77.133,0,0,1,3.756-10.4,4.393,4.393,0,0,0,0-3.157C5.4.219,5.139,0,4.883,0Z" fill="#afcded"/>
        </g>
        <g id="Group_4097" data-name="Group 4097" transform="translate(42.317 107.621)">
          <path id="Path_14206" data-name="Path 14206" d="M1,0C.5,0,.063.845.006,1.986-.055,3.211.341,4.315.891,4.451A67.036,67.036,0,0,0,9.135,5.765c8.118.953,16.512,1.937,23.219,11.276.469.653,1.087.335,1.381-.71a4.121,4.121,0,0,0-.319-3.076C26.269,3.3,17.612,2.289,9.24,1.307A65.4,65.4,0,0,1,1.113.014.438.438,0,0,0,1,0Z" fill="#afcded"/>
        </g>
        <g id="Group_4098" data-name="Group 4098" transform="translate(84.633 128.285)">
          <path id="Path_14207" data-name="Path 14207" d="M1,0C.533,0,.115.734.02,1.8-.089,3,.263,4.18.806,4.421,2.075,4.988,3.126,6.451,4.239,8c1.216,1.694,2.474,3.444,4.1,4.169.543.242,1.07-.542,1.179-1.75s-.243-2.384-.786-2.626C7.464,7.227,6.414,5.763,5.3,4.215,4.085,2.521,2.827.769,1.2.044A.486.486,0,0,0,1,0Z" fill="#afcded"/>
        </g>
        <g id="Group_4099" data-name="Group 4099" transform="translate(181.44 102.39)">
          <path id="Path_14208" data-name="Path 14208" d="M1.875,0A6.48,6.48,0,0,0,.936.07C.384.151-.034,1.215,0,2.444S.515,4.608,1.068,4.525a5.627,5.627,0,0,1,.807-.061c6.153,0,9.811,11.124,13.348,21.881C16,28.7,16.8,31.146,17.61,33.4c.346.961.976,1.119,1.408.348a4.323,4.323,0,0,0,.157-3.137c-.782-2.178-1.537-4.473-2.335-6.9C13.186,12.595,9.044,0,1.875,0Z" fill="#afcded"/>
        </g>
        <g id="Group_4100" data-name="Group 4100" transform="translate(397.66 165.738)">
          <path id="Path_14209" data-name="Path 14209" d="M7.378,0A.61.61,0,0,0,6.93.236c-.5.558-1.018,1.07-1.517,1.563A18.082,18.082,0,0,0,.2,9.933a4.284,4.284,0,0,0,.2,3.126c.442.738,1.071.54,1.4-.447A14.953,14.953,0,0,1,6.226,5.879c.52-.514,1.058-1.046,1.6-1.65a3.858,3.858,0,0,0,.448-2.994C8.1.452,7.745,0,7.378,0Z" fill="#afcded"/>
        </g>
        <g id="Group_4101" data-name="Group 4101" transform="translate(436.499 207.067)">
          <path id="Path_14210" data-name="Path 14210" d="M1,0C.679,0,.361.349.168.993a4.185,4.185,0,0,0,.278,3.1,34.308,34.308,0,0,1,4.069,9.229c.307,1.026.929,1.3,1.389.619a4.182,4.182,0,0,0,.278-3.1A38.863,38.863,0,0,0,1.558.374.706.706,0,0,0,1,0Z" fill="#afcded"/>
        </g>
        <g id="Group_4102" data-name="Group 4102" transform="translate(1234.535 298.444)">
          <path id="Path_14211" data-name="Path 14211" d="M1.736,0A4.387,4.387,0,0,0,.919.076C.367.178-.042,1.257,0,2.486S.536,4.644,1.086,4.524a3.533,3.533,0,0,1,.65-.06c3.834,0,7.687,6.556,9.161,15.587.189,1.161.764,1.757,1.284,1.336a3.461,3.461,0,0,0,.6-2.861C11,7.618,6.458,0,1.736,0Z" fill="#afcded"/>
        </g>
        <g id="Group_4103" data-name="Group 4103" transform="translate(1249.385 294.042)">
          <path id="Path_14212" data-name="Path 14212" d="M1,0C.679,0,.361.349.168.993a4.186,4.186,0,0,0,.278,3.1,25.571,25.571,0,0,1,2.933,6.534c.306,1.026.929,1.3,1.389.62a4.185,4.185,0,0,0,.278-3.1A30.394,30.394,0,0,0,1.558.375.7.7,0,0,0,1,0Z" fill="#afcded"/>
        </g>
        <g id="Group_4104" data-name="Group 4104" transform="translate(1277.478 283.673)">
          <path id="Path_14213" data-name="Path 14213" d="M27.868,0A126.1,126.1,0,0,0,.9,3.226c-.55.12-.953,1.212-.9,2.439S.549,7.8,1.1,7.669a125.252,125.252,0,0,1,26.768-3.2A76.245,76.245,0,0,1,62.191,12.1c.541.266,1.075-.5,1.194-1.7s-.223-2.4-.763-2.66A77.2,77.2,0,0,0,27.868,0Z" fill="#afcded"/>
        </g>
        <g id="Group_4105" data-name="Group 4105" transform="translate(1352.127 290.392)">
          <path id="Path_14214" data-name="Path 14214" d="M2.872,0c-.349,0-.693.02-1.025.04C1.554.057,1.27.074,1,.074c-.553,0-1,1-1,2.232S.449,4.538,1,4.538c.286,0,.586-.018.9-.036s.642-.038.972-.038c1.433,0,2.882.341,3.769,2.812.346.961.976,1.118,1.408.349a4.325,4.325,0,0,0,.157-3.138C6.777.51,4.605,0,2.872,0Z" transform="translate(0 0)" fill="#afcded"/>
        </g>
        <g id="Group_4106" data-name="Group 4106" transform="translate(1370.589 277.946)">
          <path id="Path_14215" data-name="Path 14215" d="M3.41,0C3.153,0,2.9.218,2.7.654.882,4.708.443,9.591.02,14.313-.089,15.522.263,16.7.805,16.94s1.071-.542,1.179-1.752c.382-4.256.743-8.279,2.134-11.378a4.391,4.391,0,0,0,0-3.156C3.923.218,3.667,0,3.41,0Z" fill="#afcded"/>
        </g>
        <g id="Group_4107" data-name="Group 4107" transform="translate(1323.231 132.024)">
          <path id="Path_14216" data-name="Path 14216" d="M35.265,0C27.492,0,19.55,1.435,11.871,2.821,8.269,3.473,4.545,4.146.939,4.648.387,4.725-.033,5.785,0,7.015S.515,9.185,1.064,9.1c3.624-.5,7.358-1.179,10.969-1.832,7.64-1.382,15.54-2.808,23.232-2.808,9.136,0,16.874,2.077,23.658,6.348.532.336,1.086-.354,1.236-1.541S60,6.851,59.468,6.516C52.5,2.131,44.588,0,35.265,0Z" fill="#afcded"/>
        </g>
        <g id="Group_4108" data-name="Group 4108" transform="translate(1392.261 138.458)">
          <path id="Path_14217" data-name="Path 14217" d="M1,0C.449,0,0,1,0,2.232S.449,4.464,1,4.464c2.244,0,4.55,2.7,6.308,5.047.475.634,1.09.292,1.374-.765A4.078,4.078,0,0,0,8.34,5.682C6.36,3.036,3.738,0,1,0Z" fill="#afcded"/>
        </g>
        <g id="Group_4109" data-name="Group 4109" transform="translate(1409.92 126.833)">
          <path id="Path_14218" data-name="Path 14218" d="M6.62,0a.735.735,0,0,0-.582.415A38.2,38.2,0,0,0,0,21.01c0,1.233.449,2.232,1,2.232s1-1,1-2.232A31.224,31.224,0,0,1,7.2,4.049,4.249,4.249,0,0,0,7.436.934C7.241.325,6.933,0,6.62,0Z" fill="#afcded"/>
        </g>
        <g id="Group_4110" data-name="Group 4110" transform="translate(1405.424 123.256)">
          <path id="Path_14219" data-name="Path 14219" d="M2.287,0c-.419,0-.81.591-.95,1.527-.1.638-.271,1.365-.457,2.137A24.827,24.827,0,0,0,0,9.725a17.911,17.911,0,0,0,.111,1.991c.134,1.2.679,1.923,1.215,1.624s.863-1.511.729-2.707A8.1,8.1,0,0,1,2,9.725a17.044,17.044,0,0,1,.641-3.948c.218-.9.443-1.836.593-2.84A3.353,3.353,0,0,0,2.6.115.525.525,0,0,0,2.287,0Z" fill="#afcded"/>
        </g>
        <g id="Group_4111" data-name="Group 4111" transform="translate(1267.445 155.446)">
          <path id="Path_14220" data-name="Path 14220" d="M1,0C.449,0,0,1,0,2.232S.449,4.465,1,4.465c2,0,3.281,2.978,4.635,6.132.225.524.448,1.041.67,1.536.391.872,1.025.872,1.417,0a4.388,4.388,0,0,0,0-3.156C7.512,8.5,7.3,8.01,7.085,7.509,5.648,4.164,3.859,0,1,0Z" fill="#afcded"/>
        </g>
        <g id="Group_4112" data-name="Group 4112" transform="translate(1455.672 214.237)">
          <path id="Path_14221" data-name="Path 14221" d="M2.029,0A2.978,2.978,0,0,0,.806.268C.263.509-.089,1.684.02,2.893S.658,4.884,1.2,4.645a2.036,2.036,0,0,1,.831-.181c1.157,0,2.705,1.1,3.26,4.185.205,1.146.789,1.7,1.3,1.243a3.577,3.577,0,0,0,.558-2.9C6.387,2.745,4.377,0,2.029,0Z" fill="#afcded"/>
        </g>
        <g id="Group_4113" data-name="Group 4113" transform="translate(1488.181 195.503)">
          <path id="Path_14222" data-name="Path 14222" d="M19.268,0A54.187,54.187,0,0,0,8.135,1.559C5.793,2.053,3.372,2.566.946,2.866.394,2.935-.029,3.987,0,5.218S.509,7.4,1.058,7.323C3.522,7.018,5.964,6.5,8.324,6A52.676,52.676,0,0,1,19.268,4.465a24.154,24.154,0,0,1,2.949.176c.555.074,1.025-.874,1.056-2.1S22.881.252,22.328.184A24.858,24.858,0,0,0,19.268,0Z" fill="#afcded"/>
        </g>
        <g id="Group_4114" data-name="Group 4114" transform="translate(1517.88 194.788)">
          <path id="Path_14223" data-name="Path 14223" d="M1,0C.552,0,.144.677.03,1.691-.1,2.888.222,4.1.759,4.4a2.741,2.741,0,0,0,1.387.335,8.053,8.053,0,0,0,1.135-.107,7.436,7.436,0,0,1,1.036-.1,1.8,1.8,0,0,1,1.454.6c.494.553,1.1.106,1.344-1a3.859,3.859,0,0,0-.448-3A2.964,2.964,0,0,0,4.317.062,8.283,8.283,0,0,0,3.153.17a7.384,7.384,0,0,1-1.007.1,1.782,1.782,0,0,1-.9-.2A.5.5,0,0,0,1,0Z" fill="#afcded"/>
        </g>
        <g id="Group_4115" data-name="Group 4115" transform="translate(1541.96 188.53)">
          <path id="Path_14224" data-name="Path 14224" d="M3.811,0C3.555,0,3.3.219,3.1.654,1.629,3.939.591,8.836.02,15.207c-.108,1.209.244,2.385.786,2.625s1.07-.541,1.179-1.751c.339-3.775,1.054-8.97,2.535-12.271a4.388,4.388,0,0,0,0-3.157C4.324.219,4.068,0,3.811,0Z" fill="#afcded"/>
        </g>
        <g id="Group_4116" data-name="Group 4116" transform="translate(1538.348 183.165)">
          <path id="Path_14225" data-name="Path 14225" d="M1,0C.449,0,0,1,0,2.232v8.048c0,1.233.449,2.232,1,2.232s1-1,1-2.232V2.232C2,1,1.555,0,1,0Z" fill="#afcded"/>
        </g>
        <g id="Group_4117" data-name="Group 4117" transform="translate(1627.445 192.61)">
          <path id="Path_14226" data-name="Path 14226" d="M3.091,0A3.422,3.422,0,0,0,.505,1.577,4.023,4.023,0,0,0,.132,4.624c.274,1.069.887,1.441,1.367.831a2.129,2.129,0,0,1,1.592-.991c1.726,0,3.354,3.383,4.3,6.55.306,1.027.928,1.3,1.389.619a4.182,4.182,0,0,0,.278-3.1C7.46,3.192,5.228,0,3.091,0Z" fill="#afcded"/>
        </g>
        <g id="Group_4118" data-name="Group 4118" transform="translate(1635.472 179.588)">
          <path id="Path_14227" data-name="Path 14227" d="M1,0C.745,0,.489.218.293.654a4.393,4.393,0,0,0,0,3.157A14.028,14.028,0,0,0,1.5,5.9,10.1,10.1,0,0,1,2.977,8.835c.307,1.027.928,1.3,1.389.619a4.183,4.183,0,0,0,.278-3.1A14.088,14.088,0,0,0,2.624,2.207,11.055,11.055,0,0,1,1.71.654C1.515.218,1.258,0,1,0Z" fill="#afcded"/>
        </g>
        <g id="Group_4119" data-name="Group 4119" transform="translate(1680.02 145.044)">
          <path id="Path_14228" data-name="Path 14228" d="M83.942,0C59.493,0,33.091,5.017.854,15.792c-.547.183-.925,1.319-.842,2.539S.6,20.389,1.15,20.206C33.288,9.467,59.6,4.464,83.942,4.464c4.634,0,9.258.191,13.745.564.548.038,1.018-.915,1.039-2.147S98.315.614,97.762.568C93.25.191,88.6,0,83.942,0Z" fill="#afcded"/>
        </g>
        <g id="Group_4120" data-name="Group 4120" transform="translate(1786.375 146.504)">
          <path id="Path_14229" data-name="Path 14229" d="M1,0C.449,0,0,1,0,2.232S.449,4.464,1,4.464c.749,0,1.588.843,2.478,1.734a10.433,10.433,0,0,0,2.1,1.775c.536.3,1.081-.428,1.214-1.624S6.6,3.942,6.061,3.643A9.19,9.19,0,0,1,4.3,2.127C3.259,1.082,2.18,0,1,0Z" fill="#afcded"/>
        </g>
        <g id="Group_4121" data-name="Group 4121" transform="translate(1797.607 151.726)">
          <path id="Path_14230" data-name="Path 14230" d="M1.746,0a2.217,2.217,0,0,0-.6.105A1.113,1.113,0,0,1,1,.144c-.553,0-1,1-1,2.231S.454,4.608,1.007,4.608A1.459,1.459,0,0,0,1.4,4.534c.074-.022.149-.043.22-.057.068,1.083.487,1.917.992,1.917.554,0,1-1,1-2.232C3.614,1.634,2.881,0,1.746,0Z" fill="#afcded"/>
        </g>
        <g id="Group_4122" data-name="Group 4122" transform="translate(1959.351 125.917)">
          <path id="Path_14231" data-name="Path 14231" d="M25.8,0C17.4,0,8.521.709.57,9.182A3.8,3.8,0,0,0,.1,12.158c.239,1.111.837,1.583,1.336,1.051C9.008,5.139,17.626,4.464,25.8,4.464c.759,0,1.515.006,2.267.011s1.489.01,2.228.01c.553,0,1-1,1-2.232S30.852.021,30.3.021q-1.1,0-2.222-.01T25.8,0Z" fill="#afcded"/>
        </g>
        <g id="Group_4123" data-name="Group 4123" transform="translate(2011.124 113.418)">
          <path id="Path_14232" data-name="Path 14232" d="M3.008,0c-.449,0-.857.678-.971,1.692a20.253,20.253,0,0,1-.865,3.774A27.48,27.48,0,0,0,.03,10.634c-.134,1.2.192,2.409.729,2.707s1.081-.428,1.215-1.624a20.253,20.253,0,0,1,.865-3.774A27.371,27.371,0,0,0,3.981,2.775c.134-1.2-.192-2.408-.729-2.707A.508.508,0,0,0,3.008,0Z" fill="#afcded"/>
        </g>
        <g id="Group_4124" data-name="Group 4124" transform="translate(2003.498 106.266)">
          <path id="Path_14233" data-name="Path 14233" d="M1,0C.449,0,0,1,0,2.232V9.385c0,1.233.449,2.232,1,2.232s1-1,1-2.232V2.232C2,1,1.555,0,1,0Z" fill="#afcded"/>
        </g>
        <g id="Group_4125" data-name="Group 4125" transform="translate(2033.599 143.821)">
          <path id="Path_14234" data-name="Path 14234" d="M21.872,0a.508.508,0,0,0-.283.092C16.3,3.558,10.7,4.853,5.28,6.107c-1.447.335-2.943.681-4.395,1.062C.336,7.312-.058,8.421.007,9.645s.566,2.1,1.112,1.957c1.438-.377,2.928-.721,4.367-1.054,5.508-1.274,11.2-2.592,16.668-6.174.531-.348.834-1.588.678-2.771C22.7.63,22.3,0,21.872,0Z" fill="#afcded"/>
        </g>
        <g id="Group_4126" data-name="Group 4126" transform="translate(2038.014 124.914)">
          <path id="Path_14235" data-name="Path 14235" d="M9.731,0a.652.652,0,0,0-.5.3c-1.66,2.115-3.477,2.15-5.4,2.187a10.273,10.273,0,0,0-2.974.352C.312,3.009-.068,4.139.01,5.36S.6,7.424,1.144,7.254a9.448,9.448,0,0,1,2.708-.308c2-.038,4.262-.082,6.377-2.775A4.025,4.025,0,0,0,10.6,1.126C10.417.406,10.079,0,9.731,0Z" fill="#afcded"/>
        </g>
        <g id="Group_4127" data-name="Group 4127" transform="translate(1791.592 234.132)">
          <path id="Path_14236" data-name="Path 14236" d="M72.04,0a.489.489,0,0,0-.2.046L.8,32.236C.26,32.482-.09,33.66.02,34.868S.658,36.857,1.2,36.61L72.239,4.42c.542-.246.893-1.424.782-2.632C72.924.73,72.507,0,72.04,0Z" fill="#afcded"/>
        </g>
        <g id="Group_4128" data-name="Group 4128" transform="translate(1873.465 227.874)">
          <path id="Path_14237" data-name="Path 14237" d="M5.015,0H1C.448,0,0,1,0,2.232S.448,4.464,1,4.464H5.015c.553,0,1-1,1-2.232S5.568,0,5.015,0Z" fill="#afcded"/>
        </g>
        <g id="Group_4129" data-name="Group 4129" transform="translate(1383.431 369.151)">
          <path id="Path_14238" data-name="Path 14238" d="M78.06,0a.456.456,0,0,0-.11.013L.893,18.791c-.55.135-.947,1.236-.887,2.462s.558,2.1,1.105,1.976L78.168,4.451c.55-.135.947-1.236.887-2.462C79,.847,78.564,0,78.06,0Z" fill="#afcded"/>
        </g>
        <g id="Group_4130" data-name="Group 4130" transform="translate(1469.719 369.151)">
          <path id="Path_14239" data-name="Path 14239" d="M7.825,0H1C.449,0,0,1,0,2.232S.449,4.464,1,4.464H7.825c.554,0,1-1,1-2.232S8.378,0,7.825,0Z" fill="#afcded"/>
        </g>
        <g id="Group_4131" data-name="Group 4131" transform="translate(711.993 400.448)">
          <path id="Path_14240" data-name="Path 14240" d="M1,0C.473,0,.032.919,0,2.106-.03,3.338.393,4.392.946,4.461L93.655,16.085c.551.061,1.025-.872,1.057-2.1s-.391-2.285-.944-2.355L1.058,0A.508.508,0,0,0,1,0Z" fill="#afcded"/>
        </g>
        <g id="Group_4132" data-name="Group 4132" transform="translate(813.933 412.072)">
          <path id="Path_14241" data-name="Path 14241" d="M7.423,0H1C.448,0,0,1,0,2.232S.448,4.464,1,4.464H7.423c.553,0,1-1,1-2.232S7.976,0,7.423,0Z" fill="#afcded"/>
        </g>
        <g id="Group_4133" data-name="Group 4133" transform="translate(663.732 28.955)">
          <path id="Path_14242" data-name="Path 14242" d="M38.54,0C28.421,0,18.894,2.579,11.715,7.264,4.051,12.264,0,18.993,0,26.726S4.051,41.187,11.715,46.188c7.178,4.684,16.705,7.264,26.825,7.264s19.646-2.58,26.825-7.264c7.664-5,11.715-11.731,11.715-19.462S73.029,12.264,65.365,7.264C58.186,2.579,48.659,0,38.54,0Zm0,48.987C17.009,48.987,2,37.255,2,26.726s15-22.262,36.536-22.262S75.076,16.2,75.076,26.726,60.071,48.987,38.54,48.987Z" fill="#afcded"/>
        </g>
        <g id="Group_4134" data-name="Group 4134" transform="translate(116.516 0)">
          <path id="Path_14243" data-name="Path 14243" d="M12.305,0C5.609,0,.436,2.4.025,8.5c-.663,9.838,11.787,18.583,23.634,22.547s24.9,3.747,25.563-6.092c.3-4.494-2.039-8.964-6.961-13.284A49.573,49.573,0,0,0,25.589,2.408,43.3,43.3,0,0,0,12.305,0ZM36.666,28.948a40.509,40.509,0,0,1-12.71-2.316C9.323,21.736,1.781,12.524,2.007,9.162s8.65-7.234,23.284-2.339a48.266,48.266,0,0,1,16.235,9c4.868,4.273,5.775,7.562,5.714,8.468C47.091,26.509,43.376,28.948,36.666,28.948Z" fill="#afcded"/>
        </g>
        <g id="Group_4135" data-name="Group 4135" transform="translate(1134.212 306.973)">
          <path id="Path_14244" data-name="Path 14244" d="M22.117,0C9.508,0,0,8.507,0,19.791S9.508,39.58,22.117,39.58s22.117-8.507,22.117-19.789S34.726,0,22.117,0Zm0,35.116C10.264,35.116,2,27.04,2,19.791S10.264,4.464,22.117,4.464s20.113,8.078,20.113,15.327S33.971,35.116,22.117,35.116Z" fill="#afcded"/>
        </g>
        <g id="Group_4136" data-name="Group 4136" transform="translate(1575.164 77.942)">
          <path id="Path_14245" data-name="Path 14245" d="M17.086,0C7.346,0,0,7.048,0,16.395S7.346,32.789,17.086,32.789s17.086-7.048,17.086-16.394S26.827,0,17.086,0Zm0,28.324C8.2,28.324,2,22.037,2,16.395S8.2,4.465,17.086,4.465s15.082,6.287,15.082,11.93S25.974,28.324,17.086,28.324Z" fill="#afcded"/>
        </g>
        <g id="Group_4137" data-name="Group 4137" transform="translate(1836.343 23.818)">
          <path id="Path_14246" data-name="Path 14246" d="M67.895,0C60.217,0,50.583,1.875,40.5,5.351,29.566,9.118,19.4,14.32,11.86,20-.542,29.349-.1,35.68.042,37.76s.585,8.412,13.674,8.976c7.954.333,18.355-1.545,29.285-5.312s21.1-8.97,28.637-14.65C84.039,17.427,83.6,11.1,83.455,9.014S82.871.6,69.782.039Q68.86,0,67.895,0ZM15.609,42.311q-.948,0-1.854-.039c-9.357-.4-11.641-3.886-11.732-5.194S3.637,30.912,12.5,24.229c7.43-5.6,17.481-10.738,28.3-14.466s21.1-5.6,28.94-5.259c9.356.4,11.641,3.886,11.732,5.194S79.86,15.864,71,22.546c-7.429,5.6-17.48,10.738-28.3,14.467C32.708,40.454,23.183,42.311,15.609,42.311Z" fill="#afcded"/>
        </g>
      </g>
    </g>
  </g>
</svg>
