<svg xmlns="http://www.w3.org/2000/svg" width="2094.221" height="5887.963" viewBox="0 0 2094.221 5887.963">
  <g id="Group_5156" data-name="Group 5156" transform="translate(87.11 -9012.013)">
    <g id="Rectangle_862" data-name="Rectangle 862" transform="translate(-87 11027)" fill="#fff" stroke="#707070" stroke-width="1">
      <rect width="2094" height="3514" stroke="none"/>
      <rect x="0.5" y="0.5" width="2093" height="3513" fill="none"/>
    </g>
    <g id="Group_3465" data-name="Group 3465" transform="translate(-0.5 9012.008)">
      <path id="Path_12548" data-name="Path 12548" d="M0,0H1921V1795.112H0Z" transform="translate(0 0.004)" fill="#430671"/>
      <path id="Path_12549" data-name="Path 12549" d="M2.124,1191.275c15.484,346.884,129.9,530.534,246.535,530.534,160.777,0,376.455-452.923,654.3-457.879,179.058-3.194,259.078,160.591,359.464,159.44,102.826-1.179,162.886-224.361,162.886-489.7,0-379.134-105.068-666.292-242.511-658.629-89.831,5.008-175.734,160.074-266.881,164.625C778.289,446.535,632.284-13.644,428.047.311,241.387,13.065,22.185,399.425,1.419,1011.159-.651,1072.161-.49,1132.737,2.124,1191.275Z" transform="translate(1836.925 177.684) rotate(90)" fill="#082054"/>
      <g id="Group_4441" data-name="Group 4441" transform="translate(2007.61 2073.239) rotate(180)">
        <path id="Path_14168" data-name="Path 14168" d="M2094.221,247.966V0H0V247.966C709.14,621.867,1385.081,621.867,2094.221,247.966Z" fill="#fff"/>
        <g id="Group_4078" data-name="Group 4078" transform="translate(47.368 197.961)">
          <path id="Path_14169" data-name="Path 14169" d="M88.7,93.521C39.583,79.841,0,47.749,0,23.893,0-.018,39.583-6.65,88.7,7.032c49.108,13.734,89.132,42.586,89.127,66.5C177.832,97.386,137.808,107.253,88.7,93.521Z" transform="translate(196.271 14.093)" fill="#afcded"/>
          <path id="Path_14170" data-name="Path 14170" d="M26.331,26.6C11.782,23.544,0,15.235,0,8.218S11.781-1.876,26.331,1.178s26.36,11.088,26.36,18.11S40.881,29.657,26.331,26.6Z" transform="translate(429.324 114.804)" fill="#afcded"/>
          <path id="Path_14171" data-name="Path 14171" d="M79.585,78.044C35.578,72.018,0,48.75,0,27.674,0,6.558,35.578-4.38,79.585,1.645c44,6.067,79.753,26.81,79.752,47.927C159.339,70.647,123.587,84.109,79.585,78.044Z" transform="translate(560.92 166.082)" fill="#afcded"/>
          <path id="Path_14172" data-name="Path 14172" d="M91.4,87.93C40.879,84.348,0,60.2,0,36.1,0,11.933,40.88-3.055,91.4.527,141.91,4.161,182.907,25,182.9,49.162,182.907,73.27,141.909,91.562,91.4,87.93Z" transform="translate(720.256 78.005)" fill="#afcded"/>
          <path id="Path_14173" data-name="Path 14173" d="M115.7,21.235c0,15.289-25.862,31.331-57.816,34.992C25.937,59.912,0,49.824,0,34.537,0,19.229,25.937,4.514,57.889.829,89.843-2.832,115.7,5.928,115.7,21.235Z" transform="translate(1240.892 177.2)" fill="#afcded"/>
          <path id="Path_14174" data-name="Path 14174" d="M82.445,86.412C37.01,99.046,0,89.979,0,67.907,0,45.794,37.01,19.044,82.445,6.41c45.441-12.586,82.078-6.291,82.08,15.826C164.523,44.3,127.886,73.823,82.445,86.412Z" transform="translate(1626.187 32.324)" fill="#afcded"/>
          <path id="Path_14175" data-name="Path 14175" d="M38.708,43.394C17.362,51.586,0,49.356,0,38.812S17.362,13.387,38.708,5.2,77.3-1.388,77.3,9.167,60.057,35.212,38.708,43.394Z" transform="translate(1920.004 20.933)" fill="#afcded"/>
          <path id="Path_14176" data-name="Path 14176" d="M38,37.98C17.027,41.967,0,36.721,0,26.63S17.027,5.4,38,1.415,75.943,2.1,75.943,12.2,58.971,34,38,37.98Z" transform="translate(1452.88 88.158)" fill="#afcded"/>
          <path id="Path_14177" data-name="Path 14177" d="M48.482,54.4C21.654,44.24,0,24.76,0,11.522S21.655-3.723,48.482,6.438C75.306,16.617,97.143,35.1,97.141,48.355,97.143,61.591,75.307,64.582,48.482,54.4Z" fill="#afcded"/>
          <path id="Path_14178" data-name="Path 14178" d="M64.763,63.161C29.021,67.739,0,56.724,0,39.614,0,22.476,29.022,5.724,64.763,1.146c35.743-4.553,64.661,4.8,64.661,21.937C129.423,40.193,100.505,58.609,64.763,63.161Z" transform="translate(1267.005 26.499)" fill="#afcded"/>
        </g>
        <g id="Group_4079" data-name="Group 4079" transform="translate(54.91 195.111)">
          <path id="Path_14179" data-name="Path 14179" d="M39.083,0C26.566,0,16.2,2.031,9.109,5.87,1.9,9.77,0,14.5,0,16.455,0,20.886,4.957,33.2,23.712,48.073,40.433,61.332,62.474,72.207,85.774,78.7a158.369,158.369,0,0,0,41.787,6.2c13.608,0,25.065-2.331,33.134-6.74,8.269-4.521,10.453-9.865,10.453-12.061,0-4.29-4.984-16.072-23.857-30.005-16.418-12.12-38.56-22.459-62.346-29.112C68.566,2.412,52.708,0,39.085,0Z" transform="translate(196.059 14.094)" fill="#fff"/>
          <path id="Path_14180" data-name="Path 14180" d="M10.135,0A24.448,24.448,0,0,0,0,1.768c3.584,3.4,10.81,7.815,21.131,9.981a49.018,49.018,0,0,0,10.027,1.1c5.065,0,8.434-.935,10.51-1.932C38.114,7.6,30.966,3.345,20.5,1.146A50.718,50.718,0,0,0,10.137,0Z" transform="translate(431.286 114.805)" fill="#fff"/>
          <path id="Path_14181" data-name="Path 14181" d="M52.93,0C37.108,0,23.023,2.563,13.27,7.213,2.438,12.38,0,18.5,0,20.233,0,22.912,3.835,33.015,20.872,43.91c14.958,9.566,34.7,16.408,55.578,19.266a151.276,151.276,0,0,0,20.593,1.448c16.263,0,30.99-2.9,41.468-8.172,11.746-5.907,14.146-12.8,14.146-14.318,0-2.6-3.838-12.279-20.9-22.42C117.076,10.983,97.287,4.56,76.038,1.63A171.27,171.27,0,0,0,52.936,0Z" transform="translate(560.708 166.082)" fill="#fff"/>
          <path id="Path_14182" data-name="Path 14182" d="M73.377,0C52.229,0,33.049,3.455,19.371,9.73,3.48,17.02,0,25.863,0,28.656c0,3.471,4.356,14.982,24.248,26.409,17.234,9.9,39.933,16.286,63.914,17.987,4.219.3,8.467.458,12.626.458,21.255,0,40.91-3.965,55.344-11.167,16.485-8.226,20.094-17.673,20.094-20.618,0-2.025-1.415-6.036-5.4-10.694-4.28-5-10.792-9.867-18.832-14.083C135.142,8.115,112.4,2.281,87.948.523,83.054.176,78.152,0,73.38,0Z" transform="translate(720.044 78.005)" fill="#fff"/>
          <path id="Path_14183" data-name="Path 14183" d="M68.623,0A123.3,123.3,0,0,0,54.632.82C40.094,2.5,26.327,6.554,15.868,12.246,3.313,19.08.521,25.44,0,27.024c.5,1.287,2.838,5.8,11.752,9.737,7.8,3.449,18.349,5.347,29.712,5.347a112.325,112.325,0,0,0,12.824-.751c14.406-1.651,28.177-5.93,38.778-12.049,12.523-7.23,15.272-13.779,15.782-15.407-.508-1.237-2.809-5.481-11.389-9.071C89.9,1.67,79.933,0,68.628,0Z" transform="translate(1240.769 177.201)" fill="#fff"/>
          <path id="Path_14184" data-name="Path 14184" d="M121.615,0c-12.535,0-27.092,2.2-42.1,6.354-21.97,6.109-42.434,15.653-57.623,26.873C3.932,46.5,0,57.388,0,60.465c0,1.415,1.741,6.391,9.481,10.613,7.444,4.061,18.027,6.207,30.606,6.207A147.107,147.107,0,0,0,78.692,71.59c21.556-5.972,41.933-15.975,57.377-28.164,17.863-14.1,21.776-25.447,21.777-28.631C157.845,11.863,151.394,0,121.621,0Z" transform="translate(1625.975 32.323)" fill="#fff"/>
          <path id="Path_14185" data-name="Path 14185" d="M58.752,0c-6.57,0-14.9,1.807-23.464,5.088A94.63,94.63,0,0,0,10.1,19.335C4.16,24.159,1.233,28.217,0,30.548c1.535,1.293,4.966,2.93,11.4,2.93,6.608,0,14.478-1.68,22.759-4.857a90.407,90.407,0,0,0,25.154-14.53C65.2,9.153,68.1,5.015,69.326,2.635,67.994,1.541,65.005,0,58.753,0Z" transform="translate(1920.439 20.934)" fill="#fff"/>
          <path id="Path_14186" data-name="Path 14186" d="M48.178,0A75.435,75.435,0,0,0,34.184,1.388,76.285,76.285,0,0,0,9.8,10.279c-5.886,3.532-8.6,6.669-9.8,8.5,2.407,2.422,8.8,5.656,20.31,5.656a71.571,71.571,0,0,0,13.307-1.313,73.013,73.013,0,0,0,24.369-9.142c5.537-3.44,8.438-6.692,9.759-8.723C65.552,3.13,59.821,0,48.179,0Z" transform="translate(1453.426 88.158)" fill="#fff"/>
          <path id="Path_14187" data-name="Path 14187" d="M14.817,0C5.336,0,1.244,2.9,0,4.6c.874,2.612,4.215,8.653,13.1,16.238a112.274,112.274,0,0,0,32.391,18.79c10.3,3.909,20.135,5.975,28.435,5.975,10.418,0,14.825-3.271,16.113-5.148-.886-2.552-4.267-8.449-13.224-15.8A118.661,118.661,0,0,0,44.37,6.332C33.434,2.19,23.215,0,14.821,0Z" fill="#fff"/>
          <path id="Path_14188" data-name="Path 14188" d="M78.946,0A138.045,138.045,0,0,0,61.6,1.134c-16.64,2.132-32.3,7-44.1,13.7C4.107,22.44.333,29.911,0,32.135.347,33.8,3.239,38.978,12.567,43.257c8.525,3.91,20.2,6.064,32.888,6.064a124.286,124.286,0,0,0,15.764-1.029c16.464-2.1,32.128-7.246,44.106-14.5,13.327-8.07,17.062-15.776,17.392-18.078-.216-.789-1.99-5.925-12.083-10.3C102.452,1.873,91.5,0,78.948,0Z" transform="translate(1266.806 26.498)" fill="#fff"/>
        </g>
        <g id="Group_4138" data-name="Group 4138" transform="translate(35.794 87.829)">
          <g id="Group_4080" data-name="Group 4080" transform="translate(561.77 277.273)">
            <path id="Path_14189" data-name="Path 14189" d="M1,0C.679,0,.362.349.168.994a4.181,4.181,0,0,0,.278,3.1c1.819,2.7,2.98,6.371,4.209,10.255.476,1.505.968,3.061,1.5,4.53.346.962.976,1.118,1.408.349a4.326,4.326,0,0,0,.157-3.138c-.49-1.363-.943-2.8-1.423-4.314C5.012,7.725,3.688,3.538,1.558.375A.707.707,0,0,0,1,0Z" fill="#afcded"/>
          </g>
          <g id="Group_4081" data-name="Group 4081" transform="translate(571.352 269.139)">
            <path id="Path_14190" data-name="Path 14190" d="M1,0A.557.557,0,0,0,.63.16a3.577,3.577,0,0,0-.558,2.9A48.875,48.875,0,0,0,1.7,9.331a29.8,29.8,0,0,1,1.51,6.556c.109,1.209.636,1.993,1.179,1.752s.894-1.418.786-2.627a36.847,36.847,0,0,0-1.83-8.228A42.519,42.519,0,0,1,1.932,1.4C1.776.531,1.4,0,1,0Z" fill="#afcded"/>
          </g>
          <g id="Group_4082" data-name="Group 4082" transform="translate(738.808 310.82)">
            <path id="Path_14191" data-name="Path 14191" d="M6.933,0a.557.557,0,0,0-.372.16C4.736,1.787,3.249,4.489,1.812,7.1,1.323,7.987.863,8.824.4,9.6a4.284,4.284,0,0,0-.2,3.125c.332.987.96,1.186,1.4.446.494-.826.993-1.732,1.475-2.608C4.4,8.161,5.764,5.679,7.306,4.305a3.576,3.576,0,0,0,.558-2.9C7.707.531,7.331,0,6.933,0Z" fill="#afcded"/>
          </g>
          <g id="Group_4083" data-name="Group 4083" transform="translate(632.765 264.356)">
            <path id="Path_14192" data-name="Path 14192" d="M12.089,0A66.33,66.33,0,0,0,.925.946C.374,1.041-.039,2.114,0,3.344S.526,5.5,1.079,5.4a65.364,65.364,0,0,1,11.01-.934C33.863,4.464,56.307,15.2,77,35.515c.506.5,1.1-.015,1.321-1.142A3.7,3.7,0,0,0,77.8,31.43C56.863,10.867,34.139,0,12.089,0Z" fill="#afcded"/>
          </g>
          <g id="Group_4084" data-name="Group 4084" transform="translate(715.563 304.507)">
            <path id="Path_14193" data-name="Path 14193" d="M1,0C.7,0,.4.309.2.894A4.28,4.28,0,0,0,.4,4.018a39.174,39.174,0,0,0,4.953,6.45c.5.549,1.1.1,1.344-1A3.859,3.859,0,0,0,6.25,6.475,36.559,36.559,0,0,1,1.6.448.756.756,0,0,0,1,0Z" fill="#afcded"/>
          </g>
          <g id="Group_4085" data-name="Group 4085" transform="translate(770.762 172.908)">
            <path id="Path_14194" data-name="Path 14194" d="M43.275,0A102.111,102.111,0,0,0,.8,9.555C.259,9.8-.09,10.981.021,12.188S.66,14.175,1.2,13.929A101.14,101.14,0,0,1,43.275,4.464c24.67,0,48.278,9.447,70.167,28.077.517.441,1.1-.138,1.293-1.289a3.521,3.521,0,0,0-.578-2.882C92.039,9.545,68.19,0,43.275,0Z" fill="#afcded"/>
          </g>
          <g id="Group_4086" data-name="Group 4086" transform="translate(895.959 210.934)">
            <path id="Path_14195" data-name="Path 14195" d="M1,0C.583,0,.191.591.052,1.527A3.354,3.354,0,0,0,.685,4.35,22.418,22.418,0,0,1,4.671,8.869c.852,1.142,1.733,2.323,2.683,3.382.5.55,1.1.1,1.344-1a3.862,3.862,0,0,0-.448-3C7.37,7.278,6.523,6.142,5.7,5.044A24.254,24.254,0,0,0,1.319.115.531.531,0,0,0,1,0Z" fill="#afcded"/>
          </g>
          <g id="Group_4087" data-name="Group 4087" transform="translate(718.363 178.852)">
            <path id="Path_14196" data-name="Path 14196" d="M1,0C.552,0,.144.678.03,1.691-.1,2.888.222,4.1.759,4.4c3.969,2.209,5.848,10.72,7.667,18.95.161.729.32,1.451.48,2.162.248,1.1.849,1.548,1.344,1a3.86,3.86,0,0,0,.448-3c-.157-.7-.315-1.417-.474-2.137C8.3,12.66,6.115,2.779,1.245.068A.492.492,0,0,0,1,0Z" fill="#afcded"/>
          </g>
          <g id="Group_4088" data-name="Group 4088" transform="translate(731.963 173.506)">
            <path id="Path_14197" data-name="Path 14197" d="M1,0A.754.754,0,0,0,.4.446,4.285,4.285,0,0,0,.2,3.572L3.8,14.265c.332.987.96,1.186,1.4.448a4.287,4.287,0,0,0,.2-3.126L1.8.892C1.607.308,1.306,0,1,0Z" fill="#afcded"/>
          </g>
          <g id="Group_4089" data-name="Group 4089" transform="translate(742.362 164.594)">
            <path id="Path_14198" data-name="Path 14198" d="M1,0A.524.524,0,0,0,.685.116,3.353,3.353,0,0,0,.052,2.939,32.869,32.869,0,0,0,.99,6.954a29.793,29.793,0,0,1,1.04,4.732c.134,1.195.678,1.921,1.215,1.623s.863-1.51.729-2.706A36.462,36.462,0,0,0,2.692,4.6a27.269,27.269,0,0,1-.739-3.07C1.813.591,1.422,0,1,0Z" fill="#afcded"/>
          </g>
          <g id="Group_4090" data-name="Group 4090" transform="translate(496.115 303.786)">
            <path id="Path_14199" data-name="Path 14199" d="M20.028,0A21.5,21.5,0,0,0,12.8,1.362,4.965,4.965,0,0,0,9.467.042c-2.958,0-5.246.561-6.8,1.669A7.038,7.038,0,0,0,0,7.663c0,7.432,8.4,14.726,16.958,14.726,4.9,0,8.978-1.046,11.8-3.026a10,10,0,0,0,4.374-8.491C33.128,4.267,27.986,0,20.028,0ZM12.686,5.9a.471.471,0,0,0,.165-.029,20.729,20.729,0,0,1,7.178-1.4c7.745,0,11.1,4.243,11.1,6.407,0,.742-.621,2.582-2.973,4.233-1.831,1.286-5.259,2.82-11.194,2.82C8.476,17.924,2,10.639,2,7.663c0-.627,1.328-3.157,7.463-3.157a3.968,3.968,0,0,1,2.824,1.212A.571.571,0,0,0,12.686,5.9Z" fill="#afcded"/>
          </g>
          <g id="Group_4091" data-name="Group 4091" transform="translate(218.539 115.059)">
            <path id="Path_14200" data-name="Path 14200" d="M41.978,0A156.438,156.438,0,0,0,.88,5.494C.331,5.644-.06,6.758.008,7.98s.566,2.095,1.116,1.945A155.518,155.518,0,0,1,41.978,4.464c37.322,0,75.707,13.109,114.088,38.962.529.354,1.089-.311,1.249-1.491a3.246,3.246,0,0,0-.669-2.783C118.076,13.172,79.5,0,41.978,0Z" fill="#afcded"/>
          </g>
          <g id="Group_4092" data-name="Group 4092" transform="translate(382.009 165.739)">
            <path id="Path_14201" data-name="Path 14201" d="M1,0C.448,0,0,1,0,2.232S.448,4.464,1,4.464c1.293,0,2.172,2.421,3.022,4.761.307.844.6,1.641.907,2.334.391.872,1.026.872,1.417,0a4.39,4.39,0,0,0,0-3.157c-.236-.527-.494-1.236-.766-1.985C4.6,3.708,3.251,0,1,0Z" fill="#afcded"/>
          </g>
          <g id="Group_4093" data-name="Group 4093" transform="translate(197.671 102.455)">
            <path id="Path_14202" data-name="Path 14202" d="M1,0C.517,0,.1.773.016,1.834A3.237,3.237,0,0,0,.65,4.323a6.686,6.686,0,0,1,.827.833,1.269,1.269,0,0,0,.39.5C4.769,9.7,5.818,18.038,6.756,25.5q.121.959.239,1.888c.152,1.186.706,1.868,1.239,1.533s.84-1.574.688-2.76q-.118-.917-.236-1.866C7.7,16.462,6.505,6.965,3.031,2.007,2.762.673,2.083,0,1,0Z" fill="#afcded"/>
          </g>
          <g id="Group_4094" data-name="Group 4094" transform="translate(0 86.956)">
            <path id="Path_14203" data-name="Path 14203" d="M1,0C.582,0,.192.591.052,1.527A3.359,3.359,0,0,0,.685,4.351C4.03,6.836,5.217,14.5,5.217,20.314c0,1.233.448,2.232,1,2.232s1-1,1-2.232c0-9.607-2.317-17.536-5.9-20.2A.533.533,0,0,0,1,0Z" fill="#afcded"/>
          </g>
          <g id="Group_4095" data-name="Group 4095" transform="translate(9.855 88.248)">
            <path id="Path_14204" data-name="Path 14204" d="M1,0C.745,0,.489.218.293.654a4.392,4.392,0,0,0,0,3.156A25.92,25.92,0,0,1,2.9,15.148c0,1.233.449,2.232,1,2.232s1-1,1-2.232A33.469,33.469,0,0,0,1.71.654C1.515.218,1.258,0,1,0Z" fill="#afcded"/>
          </g>
          <g id="Group_4096" data-name="Group 4096" transform="translate(116.515 144.669)">
            <path id="Path_14205" data-name="Path 14205" d="M4.883,0c-.257,0-.513.219-.708.655A82.088,82.088,0,0,0,.168,11.731a4.183,4.183,0,0,0,.278,3.1c.46.684,1.082.407,1.389-.619a77.133,77.133,0,0,1,3.756-10.4,4.393,4.393,0,0,0,0-3.157C5.4.219,5.139,0,4.883,0Z" fill="#afcded"/>
          </g>
          <g id="Group_4097" data-name="Group 4097" transform="translate(42.317 107.621)">
            <path id="Path_14206" data-name="Path 14206" d="M1,0C.5,0,.063.845.006,1.986-.055,3.211.341,4.315.891,4.451A67.036,67.036,0,0,0,9.135,5.765c8.118.953,16.512,1.937,23.219,11.276.469.653,1.087.335,1.381-.71a4.121,4.121,0,0,0-.319-3.076C26.269,3.3,17.612,2.289,9.24,1.307A65.4,65.4,0,0,1,1.113.014.438.438,0,0,0,1,0Z" fill="#afcded"/>
          </g>
          <g id="Group_4098" data-name="Group 4098" transform="translate(84.633 128.285)">
            <path id="Path_14207" data-name="Path 14207" d="M1,0C.533,0,.115.734.02,1.8-.089,3,.263,4.18.806,4.421,2.075,4.988,3.126,6.451,4.239,8c1.216,1.694,2.474,3.444,4.1,4.169.543.242,1.07-.542,1.179-1.75s-.243-2.384-.786-2.626C7.464,7.227,6.414,5.763,5.3,4.215,4.085,2.521,2.827.769,1.2.044A.486.486,0,0,0,1,0Z" fill="#afcded"/>
          </g>
          <g id="Group_4099" data-name="Group 4099" transform="translate(181.44 102.39)">
            <path id="Path_14208" data-name="Path 14208" d="M1.875,0A6.48,6.48,0,0,0,.936.07C.384.151-.034,1.215,0,2.444S.515,4.608,1.068,4.525a5.627,5.627,0,0,1,.807-.061c6.153,0,9.811,11.124,13.348,21.881C16,28.7,16.8,31.146,17.61,33.4c.346.961.976,1.119,1.408.348a4.323,4.323,0,0,0,.157-3.137c-.782-2.178-1.537-4.473-2.335-6.9C13.186,12.595,9.044,0,1.875,0Z" fill="#afcded"/>
          </g>
          <g id="Group_4100" data-name="Group 4100" transform="translate(397.66 165.738)">
            <path id="Path_14209" data-name="Path 14209" d="M7.378,0A.61.61,0,0,0,6.93.236c-.5.558-1.018,1.07-1.517,1.563A18.082,18.082,0,0,0,.2,9.933a4.284,4.284,0,0,0,.2,3.126c.442.738,1.071.54,1.4-.447A14.953,14.953,0,0,1,6.226,5.879c.52-.514,1.058-1.046,1.6-1.65a3.858,3.858,0,0,0,.448-2.994C8.1.452,7.745,0,7.378,0Z" fill="#afcded"/>
          </g>
          <g id="Group_4101" data-name="Group 4101" transform="translate(436.499 207.067)">
            <path id="Path_14210" data-name="Path 14210" d="M1,0C.679,0,.361.349.168.993a4.185,4.185,0,0,0,.278,3.1,34.308,34.308,0,0,1,4.069,9.229c.307,1.026.929,1.3,1.389.619a4.182,4.182,0,0,0,.278-3.1A38.863,38.863,0,0,0,1.558.374.706.706,0,0,0,1,0Z" fill="#afcded"/>
          </g>
          <g id="Group_4102" data-name="Group 4102" transform="translate(1234.535 298.444)">
            <path id="Path_14211" data-name="Path 14211" d="M1.736,0A4.387,4.387,0,0,0,.919.076C.367.178-.042,1.257,0,2.486S.536,4.644,1.086,4.524a3.533,3.533,0,0,1,.65-.06c3.834,0,7.687,6.556,9.161,15.587.189,1.161.764,1.757,1.284,1.336a3.461,3.461,0,0,0,.6-2.861C11,7.618,6.458,0,1.736,0Z" fill="#afcded"/>
          </g>
          <g id="Group_4103" data-name="Group 4103" transform="translate(1249.385 294.042)">
            <path id="Path_14212" data-name="Path 14212" d="M1,0C.679,0,.361.349.168.993a4.186,4.186,0,0,0,.278,3.1,25.571,25.571,0,0,1,2.933,6.534c.306,1.026.929,1.3,1.389.62a4.185,4.185,0,0,0,.278-3.1A30.394,30.394,0,0,0,1.558.375.7.7,0,0,0,1,0Z" fill="#afcded"/>
          </g>
          <g id="Group_4104" data-name="Group 4104" transform="translate(1277.478 283.673)">
            <path id="Path_14213" data-name="Path 14213" d="M27.868,0A126.1,126.1,0,0,0,.9,3.226c-.55.12-.953,1.212-.9,2.439S.549,7.8,1.1,7.669a125.252,125.252,0,0,1,26.768-3.2A76.245,76.245,0,0,1,62.191,12.1c.541.266,1.075-.5,1.194-1.7s-.223-2.4-.763-2.66A77.2,77.2,0,0,0,27.868,0Z" fill="#afcded"/>
          </g>
          <g id="Group_4105" data-name="Group 4105" transform="translate(1352.127 290.392)">
            <path id="Path_14214" data-name="Path 14214" d="M2.872,0c-.349,0-.693.02-1.025.04C1.554.057,1.27.074,1,.074c-.553,0-1,1-1,2.232S.449,4.538,1,4.538c.286,0,.586-.018.9-.036s.642-.038.972-.038c1.433,0,2.882.341,3.769,2.812.346.961.976,1.118,1.408.349a4.325,4.325,0,0,0,.157-3.138C6.777.51,4.605,0,2.872,0Z" transform="translate(0 0)" fill="#afcded"/>
          </g>
          <g id="Group_4106" data-name="Group 4106" transform="translate(1370.589 277.946)">
            <path id="Path_14215" data-name="Path 14215" d="M3.41,0C3.153,0,2.9.218,2.7.654.882,4.708.443,9.591.02,14.313-.089,15.522.263,16.7.805,16.94s1.071-.542,1.179-1.752c.382-4.256.743-8.279,2.134-11.378a4.391,4.391,0,0,0,0-3.156C3.923.218,3.667,0,3.41,0Z" fill="#afcded"/>
          </g>
          <g id="Group_4107" data-name="Group 4107" transform="translate(1323.231 132.024)">
            <path id="Path_14216" data-name="Path 14216" d="M35.265,0C27.492,0,19.55,1.435,11.871,2.821,8.269,3.473,4.545,4.146.939,4.648.387,4.725-.033,5.785,0,7.015S.515,9.185,1.064,9.1c3.624-.5,7.358-1.179,10.969-1.832,7.64-1.382,15.54-2.808,23.232-2.808,9.136,0,16.874,2.077,23.658,6.348.532.336,1.086-.354,1.236-1.541S60,6.851,59.468,6.516C52.5,2.131,44.588,0,35.265,0Z" fill="#afcded"/>
          </g>
          <g id="Group_4108" data-name="Group 4108" transform="translate(1392.261 138.458)">
            <path id="Path_14217" data-name="Path 14217" d="M1,0C.449,0,0,1,0,2.232S.449,4.464,1,4.464c2.244,0,4.55,2.7,6.308,5.047.475.634,1.09.292,1.374-.765A4.078,4.078,0,0,0,8.34,5.682C6.36,3.036,3.738,0,1,0Z" fill="#afcded"/>
          </g>
          <g id="Group_4109" data-name="Group 4109" transform="translate(1409.92 126.833)">
            <path id="Path_14218" data-name="Path 14218" d="M6.62,0a.735.735,0,0,0-.582.415A38.2,38.2,0,0,0,0,21.01c0,1.233.449,2.232,1,2.232s1-1,1-2.232A31.224,31.224,0,0,1,7.2,4.049,4.249,4.249,0,0,0,7.436.934C7.241.325,6.933,0,6.62,0Z" fill="#afcded"/>
          </g>
          <g id="Group_4110" data-name="Group 4110" transform="translate(1405.424 123.256)">
            <path id="Path_14219" data-name="Path 14219" d="M2.287,0c-.419,0-.81.591-.95,1.527-.1.638-.271,1.365-.457,2.137A24.827,24.827,0,0,0,0,9.725a17.911,17.911,0,0,0,.111,1.991c.134,1.2.679,1.923,1.215,1.624s.863-1.511.729-2.707A8.1,8.1,0,0,1,2,9.725a17.044,17.044,0,0,1,.641-3.948c.218-.9.443-1.836.593-2.84A3.353,3.353,0,0,0,2.6.115.525.525,0,0,0,2.287,0Z" fill="#afcded"/>
          </g>
          <g id="Group_4111" data-name="Group 4111" transform="translate(1267.445 155.446)">
            <path id="Path_14220" data-name="Path 14220" d="M1,0C.449,0,0,1,0,2.232S.449,4.465,1,4.465c2,0,3.281,2.978,4.635,6.132.225.524.448,1.041.67,1.536.391.872,1.025.872,1.417,0a4.388,4.388,0,0,0,0-3.156C7.512,8.5,7.3,8.01,7.085,7.509,5.648,4.164,3.859,0,1,0Z" fill="#afcded"/>
          </g>
          <g id="Group_4112" data-name="Group 4112" transform="translate(1455.672 214.237)">
            <path id="Path_14221" data-name="Path 14221" d="M2.029,0A2.978,2.978,0,0,0,.806.268C.263.509-.089,1.684.02,2.893S.658,4.884,1.2,4.645a2.036,2.036,0,0,1,.831-.181c1.157,0,2.705,1.1,3.26,4.185.205,1.146.789,1.7,1.3,1.243a3.577,3.577,0,0,0,.558-2.9C6.387,2.745,4.377,0,2.029,0Z" fill="#afcded"/>
          </g>
          <g id="Group_4113" data-name="Group 4113" transform="translate(1488.181 195.503)">
            <path id="Path_14222" data-name="Path 14222" d="M19.268,0A54.187,54.187,0,0,0,8.135,1.559C5.793,2.053,3.372,2.566.946,2.866.394,2.935-.029,3.987,0,5.218S.509,7.4,1.058,7.323C3.522,7.018,5.964,6.5,8.324,6A52.676,52.676,0,0,1,19.268,4.465a24.154,24.154,0,0,1,2.949.176c.555.074,1.025-.874,1.056-2.1S22.881.252,22.328.184A24.858,24.858,0,0,0,19.268,0Z" fill="#afcded"/>
          </g>
          <g id="Group_4114" data-name="Group 4114" transform="translate(1517.88 194.788)">
            <path id="Path_14223" data-name="Path 14223" d="M1,0C.552,0,.144.677.03,1.691-.1,2.888.222,4.1.759,4.4a2.741,2.741,0,0,0,1.387.335,8.053,8.053,0,0,0,1.135-.107,7.436,7.436,0,0,1,1.036-.1,1.8,1.8,0,0,1,1.454.6c.494.553,1.1.106,1.344-1a3.859,3.859,0,0,0-.448-3A2.964,2.964,0,0,0,4.317.062,8.283,8.283,0,0,0,3.153.17a7.384,7.384,0,0,1-1.007.1,1.782,1.782,0,0,1-.9-.2A.5.5,0,0,0,1,0Z" fill="#afcded"/>
          </g>
          <g id="Group_4115" data-name="Group 4115" transform="translate(1541.96 188.53)">
            <path id="Path_14224" data-name="Path 14224" d="M3.811,0C3.555,0,3.3.219,3.1.654,1.629,3.939.591,8.836.02,15.207c-.108,1.209.244,2.385.786,2.625s1.07-.541,1.179-1.751c.339-3.775,1.054-8.97,2.535-12.271a4.388,4.388,0,0,0,0-3.157C4.324.219,4.068,0,3.811,0Z" fill="#afcded"/>
          </g>
          <g id="Group_4116" data-name="Group 4116" transform="translate(1538.348 183.165)">
            <path id="Path_14225" data-name="Path 14225" d="M1,0C.449,0,0,1,0,2.232v8.048c0,1.233.449,2.232,1,2.232s1-1,1-2.232V2.232C2,1,1.555,0,1,0Z" fill="#afcded"/>
          </g>
          <g id="Group_4117" data-name="Group 4117" transform="translate(1627.445 192.61)">
            <path id="Path_14226" data-name="Path 14226" d="M3.091,0A3.422,3.422,0,0,0,.505,1.577,4.023,4.023,0,0,0,.132,4.624c.274,1.069.887,1.441,1.367.831a2.129,2.129,0,0,1,1.592-.991c1.726,0,3.354,3.383,4.3,6.55.306,1.027.928,1.3,1.389.619a4.182,4.182,0,0,0,.278-3.1C7.46,3.192,5.228,0,3.091,0Z" fill="#afcded"/>
          </g>
          <g id="Group_4118" data-name="Group 4118" transform="translate(1635.472 179.588)">
            <path id="Path_14227" data-name="Path 14227" d="M1,0C.745,0,.489.218.293.654a4.393,4.393,0,0,0,0,3.157A14.028,14.028,0,0,0,1.5,5.9,10.1,10.1,0,0,1,2.977,8.835c.307,1.027.928,1.3,1.389.619a4.183,4.183,0,0,0,.278-3.1A14.088,14.088,0,0,0,2.624,2.207,11.055,11.055,0,0,1,1.71.654C1.515.218,1.258,0,1,0Z" fill="#afcded"/>
          </g>
          <g id="Group_4119" data-name="Group 4119" transform="translate(1680.02 145.044)">
            <path id="Path_14228" data-name="Path 14228" d="M83.942,0C59.493,0,33.091,5.017.854,15.792c-.547.183-.925,1.319-.842,2.539S.6,20.389,1.15,20.206C33.288,9.467,59.6,4.464,83.942,4.464c4.634,0,9.258.191,13.745.564.548.038,1.018-.915,1.039-2.147S98.315.614,97.762.568C93.25.191,88.6,0,83.942,0Z" fill="#afcded"/>
          </g>
          <g id="Group_4120" data-name="Group 4120" transform="translate(1786.375 146.504)">
            <path id="Path_14229" data-name="Path 14229" d="M1,0C.449,0,0,1,0,2.232S.449,4.464,1,4.464c.749,0,1.588.843,2.478,1.734a10.433,10.433,0,0,0,2.1,1.775c.536.3,1.081-.428,1.214-1.624S6.6,3.942,6.061,3.643A9.19,9.19,0,0,1,4.3,2.127C3.259,1.082,2.18,0,1,0Z" fill="#afcded"/>
          </g>
          <g id="Group_4121" data-name="Group 4121" transform="translate(1797.607 151.726)">
            <path id="Path_14230" data-name="Path 14230" d="M1.746,0a2.217,2.217,0,0,0-.6.105A1.113,1.113,0,0,1,1,.144c-.553,0-1,1-1,2.231S.454,4.608,1.007,4.608A1.459,1.459,0,0,0,1.4,4.534c.074-.022.149-.043.22-.057.068,1.083.487,1.917.992,1.917.554,0,1-1,1-2.232C3.614,1.634,2.881,0,1.746,0Z" fill="#afcded"/>
          </g>
          <g id="Group_4122" data-name="Group 4122" transform="translate(1959.351 125.917)">
            <path id="Path_14231" data-name="Path 14231" d="M25.8,0C17.4,0,8.521.709.57,9.182A3.8,3.8,0,0,0,.1,12.158c.239,1.111.837,1.583,1.336,1.051C9.008,5.139,17.626,4.464,25.8,4.464c.759,0,1.515.006,2.267.011s1.489.01,2.228.01c.553,0,1-1,1-2.232S30.852.021,30.3.021q-1.1,0-2.222-.01T25.8,0Z" fill="#afcded"/>
          </g>
          <g id="Group_4123" data-name="Group 4123" transform="translate(2011.124 113.418)">
            <path id="Path_14232" data-name="Path 14232" d="M3.008,0c-.449,0-.857.678-.971,1.692a20.253,20.253,0,0,1-.865,3.774A27.48,27.48,0,0,0,.03,10.634c-.134,1.2.192,2.409.729,2.707s1.081-.428,1.215-1.624a20.253,20.253,0,0,1,.865-3.774A27.371,27.371,0,0,0,3.981,2.775c.134-1.2-.192-2.408-.729-2.707A.508.508,0,0,0,3.008,0Z" fill="#afcded"/>
          </g>
          <g id="Group_4124" data-name="Group 4124" transform="translate(2003.498 106.266)">
            <path id="Path_14233" data-name="Path 14233" d="M1,0C.449,0,0,1,0,2.232V9.385c0,1.233.449,2.232,1,2.232s1-1,1-2.232V2.232C2,1,1.555,0,1,0Z" fill="#afcded"/>
          </g>
          <g id="Group_4125" data-name="Group 4125" transform="translate(2033.599 143.821)">
            <path id="Path_14234" data-name="Path 14234" d="M21.872,0a.508.508,0,0,0-.283.092C16.3,3.558,10.7,4.853,5.28,6.107c-1.447.335-2.943.681-4.395,1.062C.336,7.312-.058,8.421.007,9.645s.566,2.1,1.112,1.957c1.438-.377,2.928-.721,4.367-1.054,5.508-1.274,11.2-2.592,16.668-6.174.531-.348.834-1.588.678-2.771C22.7.63,22.3,0,21.872,0Z" fill="#afcded"/>
          </g>
          <g id="Group_4126" data-name="Group 4126" transform="translate(2038.014 124.914)">
            <path id="Path_14235" data-name="Path 14235" d="M9.731,0a.652.652,0,0,0-.5.3c-1.66,2.115-3.477,2.15-5.4,2.187a10.273,10.273,0,0,0-2.974.352C.312,3.009-.068,4.139.01,5.36S.6,7.424,1.144,7.254a9.448,9.448,0,0,1,2.708-.308c2-.038,4.262-.082,6.377-2.775A4.025,4.025,0,0,0,10.6,1.126C10.417.406,10.079,0,9.731,0Z" fill="#afcded"/>
          </g>
          <g id="Group_4127" data-name="Group 4127" transform="translate(1791.592 234.132)">
            <path id="Path_14236" data-name="Path 14236" d="M72.04,0a.489.489,0,0,0-.2.046L.8,32.236C.26,32.482-.09,33.66.02,34.868S.658,36.857,1.2,36.61L72.239,4.42c.542-.246.893-1.424.782-2.632C72.924.73,72.507,0,72.04,0Z" fill="#afcded"/>
          </g>
          <g id="Group_4128" data-name="Group 4128" transform="translate(1873.465 227.874)">
            <path id="Path_14237" data-name="Path 14237" d="M5.015,0H1C.448,0,0,1,0,2.232S.448,4.464,1,4.464H5.015c.553,0,1-1,1-2.232S5.568,0,5.015,0Z" fill="#afcded"/>
          </g>
          <g id="Group_4129" data-name="Group 4129" transform="translate(1383.431 369.151)">
            <path id="Path_14238" data-name="Path 14238" d="M78.06,0a.456.456,0,0,0-.11.013L.893,18.791c-.55.135-.947,1.236-.887,2.462s.558,2.1,1.105,1.976L78.168,4.451c.55-.135.947-1.236.887-2.462C79,.847,78.564,0,78.06,0Z" fill="#afcded"/>
          </g>
          <g id="Group_4130" data-name="Group 4130" transform="translate(1469.719 369.151)">
            <path id="Path_14239" data-name="Path 14239" d="M7.825,0H1C.449,0,0,1,0,2.232S.449,4.464,1,4.464H7.825c.554,0,1-1,1-2.232S8.378,0,7.825,0Z" fill="#afcded"/>
          </g>
          <g id="Group_4131" data-name="Group 4131" transform="translate(711.993 400.448)">
            <path id="Path_14240" data-name="Path 14240" d="M1,0C.473,0,.032.919,0,2.106-.03,3.338.393,4.392.946,4.461L93.655,16.085c.551.061,1.025-.872,1.057-2.1s-.391-2.285-.944-2.355L1.058,0A.508.508,0,0,0,1,0Z" fill="#afcded"/>
          </g>
          <g id="Group_4132" data-name="Group 4132" transform="translate(813.933 412.072)">
            <path id="Path_14241" data-name="Path 14241" d="M7.423,0H1C.448,0,0,1,0,2.232S.448,4.464,1,4.464H7.423c.553,0,1-1,1-2.232S7.976,0,7.423,0Z" fill="#afcded"/>
          </g>
          <g id="Group_4133" data-name="Group 4133" transform="translate(663.732 28.955)">
            <path id="Path_14242" data-name="Path 14242" d="M38.54,0C28.421,0,18.894,2.579,11.715,7.264,4.051,12.264,0,18.993,0,26.726S4.051,41.187,11.715,46.188c7.178,4.684,16.705,7.264,26.825,7.264s19.646-2.58,26.825-7.264c7.664-5,11.715-11.731,11.715-19.462S73.029,12.264,65.365,7.264C58.186,2.579,48.659,0,38.54,0Zm0,48.987C17.009,48.987,2,37.255,2,26.726s15-22.262,36.536-22.262S75.076,16.2,75.076,26.726,60.071,48.987,38.54,48.987Z" fill="#afcded"/>
          </g>
          <g id="Group_4134" data-name="Group 4134" transform="translate(116.516 0)">
            <path id="Path_14243" data-name="Path 14243" d="M12.305,0C5.609,0,.436,2.4.025,8.5c-.663,9.838,11.787,18.583,23.634,22.547s24.9,3.747,25.563-6.092c.3-4.494-2.039-8.964-6.961-13.284A49.573,49.573,0,0,0,25.589,2.408,43.3,43.3,0,0,0,12.305,0ZM36.666,28.948a40.509,40.509,0,0,1-12.71-2.316C9.323,21.736,1.781,12.524,2.007,9.162s8.65-7.234,23.284-2.339a48.266,48.266,0,0,1,16.235,9c4.868,4.273,5.775,7.562,5.714,8.468C47.091,26.509,43.376,28.948,36.666,28.948Z" fill="#afcded"/>
          </g>
          <g id="Group_4135" data-name="Group 4135" transform="translate(1134.212 306.973)">
            <path id="Path_14244" data-name="Path 14244" d="M22.117,0C9.508,0,0,8.507,0,19.791S9.508,39.58,22.117,39.58s22.117-8.507,22.117-19.789S34.726,0,22.117,0Zm0,35.116C10.264,35.116,2,27.04,2,19.791S10.264,4.464,22.117,4.464s20.113,8.078,20.113,15.327S33.971,35.116,22.117,35.116Z" fill="#afcded"/>
          </g>
          <g id="Group_4136" data-name="Group 4136" transform="translate(1575.164 77.942)">
            <path id="Path_14245" data-name="Path 14245" d="M17.086,0C7.346,0,0,7.048,0,16.395S7.346,32.789,17.086,32.789s17.086-7.048,17.086-16.394S26.827,0,17.086,0Zm0,28.324C8.2,28.324,2,22.037,2,16.395S8.2,4.465,17.086,4.465s15.082,6.287,15.082,11.93S25.974,28.324,17.086,28.324Z" fill="#afcded"/>
          </g>
          <g id="Group_4137" data-name="Group 4137" transform="translate(1836.343 23.818)">
            <path id="Path_14246" data-name="Path 14246" d="M67.895,0C60.217,0,50.583,1.875,40.5,5.351,29.566,9.118,19.4,14.32,11.86,20-.542,29.349-.1,35.68.042,37.76s.585,8.412,13.674,8.976c7.954.333,18.355-1.545,29.285-5.312s21.1-8.97,28.637-14.65C84.039,17.427,83.6,11.1,83.455,9.014S82.871.6,69.782.039Q68.86,0,67.895,0ZM15.609,42.311q-.948,0-1.854-.039c-9.357-.4-11.641-3.886-11.732-5.194S3.637,30.912,12.5,24.229c7.43-5.6,17.481-10.738,28.3-14.466s21.1-5.6,28.94-5.259c9.356.4,11.641,3.886,11.732,5.194S79.86,15.864,71,22.546c-7.429,5.6-17.48,10.738-28.3,14.467C32.708,40.454,23.183,42.311,15.609,42.311Z" fill="#afcded"/>
          </g>
        </g>
      </g>
    </g>
    <g id="Group_4139" data-name="Group 4139" transform="translate(2007 16923.617) rotate(180)">
      <path id="Path_14168-2" data-name="Path 14168" d="M2094,2269.181l-2.886,225.054H0V2274.7C708.088,1943.657,1385.912,1938.142,2094,2269.181Z" transform="translate(0 0)" fill="#fff"/>
      <g id="Group_4078-2" data-name="Group 4078" transform="translate(47.298 2101.534)">
        <path id="Path_14169-2" data-name="Path 14169" d="M818.126,2323.018c-49.043,12.112-88.565,40.525-88.567,61.646,0,21.169,39.524,27.042,88.567,14.928,49.036-12.16,89-37.7,89-58.874C907.128,2319.6,867.162,2310.86,818.126,2323.018Z" transform="translate(-533.58 -2200.862)" fill="#afcded"/>
        <path id="Path_14170-2" data-name="Path 14170" d="M1453.712,2279.954c-14.528,2.7-26.292,10.059-26.292,16.271s11.764,8.937,26.292,6.233,26.321-9.817,26.321-16.034S1468.24,2277.245,1453.712,2279.954Z" transform="translate(-998.733 -2187.712)" fill="#afcded"/>
        <path id="Path_14171-2" data-name="Path 14171" d="M1900.942,2141.742c-43.941,5.335-79.465,25.936-79.466,44.6,0,18.7,35.526,28.379,79.466,23.045,43.938-5.372,79.635-23.737,79.633-42.433C1980.578,2148.29,1944.88,2136.371,1900.942,2141.742Z" transform="translate(-1261.388 -2140.448)" fill="#afcded"/>
        <path id="Path_14172-2" data-name="Path 14172" d="M2389.856,2247.29c-50.441,3.172-91.26,24.548-91.26,45.892,0,21.393,40.819,34.662,91.26,31.491,50.44-3.218,91.376-21.668,91.374-43.06C2481.233,2260.27,2440.3,2244.074,2389.856,2247.29Z" transform="translate(-1579.409 -2176.769)" fill="#afcded"/>
        <path id="Path_14173-2" data-name="Path 14173" d="M3973.138,2187.422c0-13.536-25.824-27.739-57.73-30.981-31.9-3.262-57.8,5.669-57.8,19.2,0,13.553,25.9,26.581,57.8,29.843C3947.314,2208.73,3973.137,2200.974,3973.138,2187.422Z" transform="translate(-2618.554 -2145.676)" fill="#afcded"/>
        <path id="Path_14174-2" data-name="Path 14174" d="M5093.666,2308.3c-45.367-11.186-82.326-3.158-82.322,16.383,0,19.578,36.955,43.262,82.322,54.447,45.374,11.143,81.957,5.57,81.958-14.012C5175.623,2345.581,5139.04,2319.446,5093.666,2308.3Z" transform="translate(-3387.569 -2195.991)" fill="#afcded"/>
        <path id="Path_14175-2" data-name="Path 14175" d="M5929.81,2381.786c-21.315-7.253-38.652-5.278-38.651,4.057s17.336,22.51,38.651,29.763,38.537,5.828,38.537-3.517S5951.126,2389.03,5929.81,2381.786Z" transform="translate(-3974.004 -2221.305)" fill="#afcded"/>
        <path id="Path_14176-2" data-name="Path 14176" d="M4530.33,2300.375c-20.939-3.53-37.941,1.115-37.941,10.049s17,18.795,37.941,22.324,37.889-.609,37.89-9.552S4551.272,2303.9,4530.33,2300.375Z" transform="translate(-3041.665 -2194.619)" fill="#afcded"/>
        <path id="Path_14177-2" data-name="Path 14177" d="M190.25,2394.612c-26.789,9-48.41,26.245-48.41,37.966s21.622,13.5,48.41,4.5c26.784-9.013,48.588-25.376,48.586-37.112C238.839,2388.249,217.035,2385.6,190.25,2394.612Z" transform="translate(-141.84 -2225.346)" fill="#afcded"/>
        <path id="Path_14178-2" data-name="Path 14178" d="M4000.464,2349.54c-35.688-4.054-64.667,5.7-64.667,20.848,0,15.173,28.979,30,64.667,34.058,35.69,4.031,64.565-4.249,64.565-19.422C4065.029,2369.875,4036.154,2353.57,4000.464,2349.54Z" transform="translate(-2670.673 -2211.488)" fill="#afcded"/>
      </g>
      <g id="Group_4079-2" data-name="Group 4079" transform="translate(54.828 2117.233)">
        <path id="Path_14179-2" data-name="Path 14179" d="M790.533,2416.474c-12.5,0-22.848-1.8-29.93-5.2-7.194-3.453-9.095-7.64-9.1-9.372,0-3.923,4.95-14.826,23.677-27.993,16.7-11.739,38.7-21.367,61.969-27.114a176.98,176.98,0,0,1,41.725-5.485c13.587,0,25.028,2.064,33.085,5.967,8.257,4,10.438,8.734,10.437,10.679,0,3.8-4.977,14.229-23.822,26.565-16.393,10.731-38.5,19.885-62.254,25.775-16.353,4.04-32.188,6.175-45.791,6.175Z" transform="translate(-555.74 -2224.694)" fill="#fff"/>
        <path id="Path_14180-2" data-name="Path 14180" d="M1466,2314.158a27.167,27.167,0,0,1-10.12-1.566c3.579-3.007,10.794-6.919,21.1-8.837a54.967,54.967,0,0,1,10.013-.976,27.08,27.08,0,0,1,10.494,1.71c-3.548,2.936-10.686,6.707-21.133,8.653a56.865,56.865,0,0,1-10.352,1.014Z" transform="translate(-1025.233 -2211.544)" fill="#fff"/>
        <path id="Path_14181-2" data-name="Path 14181" d="M1896.278,2221.5c-15.8,0-29.863-2.269-39.6-6.386-10.815-4.574-13.25-9.99-13.25-11.527,0-2.372,3.829-11.317,20.841-20.963,14.936-8.469,34.645-14.527,55.5-17.057a170.044,170.044,0,0,1,20.562-1.282c16.239,0,30.944,2.569,41.407,7.235,11.728,5.23,14.125,11.328,14.125,12.676,0,2.3-3.832,10.871-20.864,19.85-14.663,7.73-34.424,13.416-55.64,16.011a192.523,192.523,0,0,1-23.069,1.443Z" transform="translate(-1283.549 -2164.28)" fill="#fff"/>
        <path id="Path_14182-2" data-name="Path 14182" d="M2393.814,2335.8c-21.117,0-40.268-3.059-53.926-8.614-15.867-6.455-19.342-14.284-19.342-16.757,0-3.073,4.35-13.264,24.212-23.381,17.209-8.764,39.874-14.419,63.819-15.925,4.213-.27,8.454-.405,12.607-.405,21.223,0,40.849,3.511,55.262,9.887,16.46,7.283,20.064,15.647,20.064,18.255,0,1.792-1.413,5.344-5.4,9.468-4.274,4.424-10.776,8.736-18.8,12.468-16.822,7.82-39.532,12.985-63.946,14.542-4.887.307-9.782.463-14.547.463Z" transform="translate(-1601.57 -2200.601)" fill="#fff"/>
        <path id="Path_14183-2" data-name="Path 14183" d="M3948.342,2216.878a138.672,138.672,0,0,1-13.97-.726c-14.517-1.484-28.263-5.077-38.707-10.116-12.536-6.051-15.324-11.681-15.844-13.084.5-1.14,2.834-5.132,11.734-8.621,7.785-3.053,18.322-4.734,29.668-4.734a126.338,126.338,0,0,1,12.805.665c14.384,1.462,28.135,5.25,38.72,10.668,12.5,6.4,15.25,12.2,15.758,13.641-.506,1.1-2.8,4.852-11.372,8.031-7.543,2.8-17.5,4.276-28.788,4.276Z" transform="translate(-2640.892 -2169.507)" fill="#fff"/>
        <path id="Path_14184-2" data-name="Path 14184" d="M5154.728,2395.463c-12.517,0-27.052-1.947-42.035-5.626-21.937-5.409-42.371-13.859-57.538-23.792-17.936-11.748-21.862-21.391-21.862-24.116,0-1.253,1.739-5.658,9.467-9.4,7.433-3.6,18-5.5,30.561-5.5a164.406,164.406,0,0,1,38.547,5.042c21.524,5.288,41.871,14.143,57.292,24.936,17.837,12.482,21.744,22.53,21.745,25.349,0,2.6-6.443,13.1-36.172,13.1Z" transform="translate(-3409.73 -2219.822)" fill="#fff"/>
        <path id="Path_14185-2" data-name="Path 14185" d="M5973.71,2430.861c-6.561,0-14.881-1.6-23.429-4.5a98.263,98.263,0,0,1-25.155-12.614c-5.927-4.272-8.85-7.864-10.081-9.928,1.533-1.145,4.958-2.594,11.379-2.594,6.6,0,14.457,1.487,22.725,4.3a93.644,93.644,0,0,1,25.117,12.864c5.88,4.372,8.78,8.035,10,10.143-1.33.969-4.314,2.333-10.557,2.333Z" transform="translate(-3997.456 -2245.137)" fill="#fff"/>
        <path id="Path_14186-2" data-name="Path 14186" d="M4564.714,2344.657a84.645,84.645,0,0,1-13.973-1.229,82.546,82.546,0,0,1-24.344-7.872c-5.877-3.127-8.588-5.9-9.79-7.528,2.4-2.145,8.788-5.007,20.28-5.007a80.314,80.314,0,0,1,13.288,1.162,78.848,78.848,0,0,1,24.333,8.094c5.529,3.046,8.426,5.925,9.745,7.723-2.19,1.886-7.913,4.658-19.537,4.658Z" transform="translate(-3065.337 -2218.451)" fill="#fff"/>
        <path id="Path_14187-2" data-name="Path 14187" d="M179.218,2453.436c-9.467,0-13.553-2.566-14.795-4.074.872-2.313,4.209-7.661,13.08-14.376a116.211,116.211,0,0,1,32.343-16.636c10.288-3.461,20.105-5.29,28.393-5.29,10.4,0,14.8,2.9,16.089,4.558-.884,2.259-4.261,7.48-13.2,13.992-8.759,6.378-20.264,12.138-32.4,16.22-10.92,3.667-21.124,5.606-29.506,5.606Z" transform="translate(-164.423 -2249.178)" fill="#fff"/>
        <path id="Path_14188-2" data-name="Path 14188" d="M4036.614,2416.117a155.219,155.219,0,0,1-17.319-1c-16.615-1.887-32.253-6.194-44.032-12.127-13.376-6.736-17.146-13.351-17.478-15.319.346-1.475,3.234-6.059,12.548-9.847,8.512-3.462,20.174-5.369,32.839-5.369a139.757,139.757,0,0,1,15.741.911c16.439,1.855,32.08,6.415,44.041,12.838,13.308,7.145,17.036,13.967,17.366,16.006-.216.7-1.987,5.246-12.065,9.116-8.17,3.137-19.111,4.8-31.64,4.8Z" transform="translate(-2692.858 -2235.32)" fill="#fff"/>
      </g>
      <g id="Group_4138-2" data-name="Group 4138" transform="translate(35.741 2047.689)">
        <g id="Group_4080-2" data-name="Group 4080" transform="translate(560.937 105.846)">
          <path id="Path_14189-2" data-name="Path 14189" d="M1790.365,2236.84c-.323,0-.64-.309-.833-.88a3.326,3.326,0,0,1,.278-2.74c1.816-2.392,2.975-5.641,4.2-9.08.476-1.333.967-2.71,1.494-4.011.345-.852.975-.99,1.406-.309a3.432,3.432,0,0,1,.156,2.778c-.489,1.207-.942,2.476-1.421,3.819-1.279,3.584-2.6,7.29-4.728,10.091A.717.717,0,0,1,1790.365,2236.84Z" transform="translate(-1789.364 -2219.387)" fill="#afcded"/>
        </g>
        <g id="Group_4081-2" data-name="Group 4081" transform="translate(570.505 114.845)">
          <path id="Path_14190-2" data-name="Path 14190" d="M1819.057,2248.7a.593.593,0,0,1-.371-.142,2.888,2.888,0,0,1-.557-2.568,39.387,39.387,0,0,1,1.629-5.551,23.887,23.887,0,0,0,1.508-5.8c.109-1.071.635-1.764,1.177-1.551s.893,1.256.785,2.326a29.522,29.522,0,0,1-1.827,7.285,34.262,34.262,0,0,0-1.414,4.762C1819.83,2248.233,1819.454,2248.7,1819.057,2248.7Z" transform="translate(-1818.057 -2233.049)" fill="#afcded"/>
        </g>
        <g id="Group_4082-2" data-name="Group 4082" transform="translate(737.712 81.544)">
          <path id="Path_14191-2" data-name="Path 14191" d="M2326.415,2194.549a.594.594,0,0,1-.371-.142c-1.823-1.44-3.308-3.832-4.743-6.145-.488-.785-.947-1.526-1.409-2.209a3.4,3.4,0,0,1-.2-2.767c.331-.874.959-1.05,1.4-.395.494.731.991,1.533,1.473,2.309,1.319,2.124,2.682,4.321,4.221,5.538a2.886,2.886,0,0,1,.557,2.568C2327.188,2194.079,2326.812,2194.549,2326.415,2194.549Z" transform="translate(-2319.492 -2182.496)" fill="#afcded"/>
        </g>
        <g id="Group_4083-2" data-name="Group 4083" transform="translate(631.826 103.122)">
          <path id="Path_14192-2" data-name="Path 14192" d="M2014.023,2246.865a74.492,74.492,0,0,1-11.147-.838c-.551-.084-.963-1.034-.921-2.123s.522-1.907,1.074-1.818a73.41,73.41,0,0,0,10.994.827c21.741,0,44.152-9.506,64.811-27.491.506-.441,1.1.013,1.319,1.011a2.975,2.975,0,0,1-.513,2.6C2058.73,2237.243,2036.04,2246.865,2014.023,2246.865Z" transform="translate(-2001.952 -2215.253)" fill="#afcded"/>
        </g>
        <g id="Group_4084-2" data-name="Group 4084" transform="translate(714.502 89.71)">
          <path id="Path_14193-2" data-name="Path 14193" d="M2250.887,2204.369c-.3,0-.6-.273-.8-.792a3.4,3.4,0,0,1,.2-2.766,35.559,35.559,0,0,1,4.946-5.711c.495-.486,1.095-.091,1.342.885a3.093,3.093,0,0,1-.448,2.651,33.208,33.208,0,0,0-4.64,5.336A.756.756,0,0,1,2250.887,2204.369Z" transform="translate(-2249.886 -2194.893)" fill="#afcded"/>
        </g>
        <g id="Group_4085-2" data-name="Group 4085" transform="translate(769.619 186.758)">
          <path id="Path_14194-2" data-name="Path 14194" d="M2458.386,2371.156a112.978,112.978,0,0,1-42.41-8.459c-.541-.219-.89-1.263-.78-2.332s.638-1.759,1.18-1.541a111.906,111.906,0,0,0,42.01,8.38c24.634,0,48.206-8.364,70.063-24.859.517-.39,1.094.122,1.292,1.141a2.847,2.847,0,0,1-.578,2.551C2507.078,2362.705,2483.264,2371.156,2458.386,2371.156Z" transform="translate(-2415.176 -2342.215)" fill="#afcded"/>
        </g>
        <g id="Group_4086-2" data-name="Group 4086" transform="translate(894.63 170.978)">
          <path id="Path_14195-2" data-name="Path 14195" d="M2791.071,2329.315c-.419,0-.809-.523-.949-1.352a2.725,2.725,0,0,1,.633-2.5,20.858,20.858,0,0,0,3.979-4c.851-1.011,1.731-2.057,2.679-2.994.495-.487,1.1-.091,1.342.884a3.1,3.1,0,0,1-.447,2.652c-.878.867-1.725,1.872-2.542,2.844a22.579,22.579,0,0,1-4.379,4.364A.572.572,0,0,1,2791.071,2329.315Z" transform="translate(-2790.07 -2318.261)" fill="#afcded"/>
        </g>
        <g id="Group_4087-2" data-name="Group 4087" transform="translate(717.297 186.758)">
          <path id="Path_14196-2" data-name="Path 14196" d="M2259.27,2365.894c-.448,0-.856-.6-.97-1.5-.134-1.059.192-2.133.728-2.4,3.963-1.956,5.84-9.491,7.656-16.778.16-.645.32-1.285.479-1.914.247-.975.848-1.371,1.342-.884a3.094,3.094,0,0,1,.447,2.652c-.157.622-.315,1.254-.473,1.892-1.923,7.718-4.1,16.466-8.965,18.866A.54.54,0,0,1,2259.27,2365.894Z" transform="translate(-2258.27 -2342.216)" fill="#afcded"/>
        </g>
        <g id="Group_4088-2" data-name="Group 4088" transform="translate(730.877 201.749)">
          <path id="Path_14197-2" data-name="Path 14197" d="M2299.994,2378.393a.756.756,0,0,1-.6-.395,3.4,3.4,0,0,1-.2-2.767l3.594-9.467c.332-.874.958-1.05,1.4-.4a3.4,3.4,0,0,1,.2,2.768l-3.595,9.468C2300.6,2378.121,2300.3,2378.393,2299.994,2378.393Z" transform="translate(-2298.994 -2364.973)" fill="#afcded"/>
        </g>
        <g id="Group_4089-2" data-name="Group 4089" transform="translate(741.261 211.218)">
          <path id="Path_14198-2" data-name="Path 14198" d="M2331.135,2391.189a.567.567,0,0,1-.317-.1,2.725,2.725,0,0,1-.632-2.5,26.281,26.281,0,0,1,.937-3.555,23.844,23.844,0,0,0,1.038-4.19c.134-1.058.677-1.7,1.213-1.437s.862,1.337.728,2.4a29.123,29.123,0,0,1-1.28,5.318,21.916,21.916,0,0,0-.738,2.719C2331.945,2390.665,2331.554,2391.189,2331.135,2391.189Z" transform="translate(-2330.135 -2379.346)" fill="#afcded"/>
        </g>
        <g id="Group_4090-2" data-name="Group 4090" transform="translate(495.379 80.002)">
          <path id="Path_14199-2" data-name="Path 14199" d="M1612.764,2199.978a23.913,23.913,0,0,1-7.215-1.206,5.324,5.324,0,0,1-3.33,1.169,12.857,12.857,0,0,1-6.791-1.478,5.941,5.941,0,0,1-2.662-5.269c0-6.58,8.387-13.038,16.932-13.038,4.892,0,8.965.927,11.779,2.679a8.548,8.548,0,0,1,4.368,7.518C1625.844,2196.2,1620.71,2199.978,1612.764,2199.978Zm-7.332-5.222a.524.524,0,0,1,.164.026,23.039,23.039,0,0,0,7.167,1.243c7.734,0,11.08-3.756,11.08-5.672,0-.657-.62-2.286-2.969-3.747-1.828-1.139-5.252-2.5-11.177-2.5-8.469,0-14.932,6.45-14.932,9.085,0,.555,1.326,2.8,7.452,2.8a4.224,4.224,0,0,0,2.82-1.073A.606.606,0,0,1,1605.432,2194.756Z" transform="translate(-1592.765 -2180.156)" fill="#afcded"/>
        </g>
        <g id="Group_4091-2" data-name="Group 4091" transform="translate(218.215 228.385)">
          <path id="Path_14200-2" data-name="Path 14200" d="M803.5,2443.939a175.018,175.018,0,0,1-41.037-4.864c-.549-.133-.939-1.119-.872-2.2s.566-1.854,1.114-1.722a173.988,173.988,0,0,0,40.794,4.835c37.267,0,75.594-11.606,113.918-34.5.529-.313,1.087.275,1.247,1.32a2.647,2.647,0,0,1-.668,2.464C879.484,2432.277,840.961,2443.939,803.5,2443.939Z" transform="translate(-761.582 -2405.407)" fill="#afcded"/>
        </g>
        <g id="Group_4092-2" data-name="Group 4092" transform="translate(381.442 211.233)">
          <path id="Path_14201-2" data-name="Path 14201" d="M1252.081,2390.183c-.553,0-1-.884-1-1.976s.448-1.976,1-1.976c1.292,0,2.169-2.144,3.018-4.215.306-.748.6-1.453.905-2.066.391-.772,1.024-.772,1.415,0a3.477,3.477,0,0,1,0,2.795c-.236.466-.493,1.094-.765,1.757C1255.673,2386.9,1254.328,2390.183,1252.081,2390.183Z" transform="translate(-1251.081 -2379.37)" fill="#afcded"/>
        </g>
        <g id="Group_4093-2" data-name="Group 4093" transform="translate(197.377 252.399)">
          <path id="Path_14202-2" data-name="Path 14202" d="M700.094,2467.538c-.484,0-.9-.684-.984-1.624a2.639,2.639,0,0,1,.633-2.2,6.349,6.349,0,0,0,.826-.737,1.155,1.155,0,0,1,.39-.447c2.9-3.576,3.944-10.959,4.881-17.562q.12-.849.239-1.671c.152-1.05.705-1.654,1.237-1.357a2.6,2.6,0,0,1,.687,2.444q-.118.812-.236,1.652c-.983,6.931-2.177,15.34-5.646,19.729A1.966,1.966,0,0,1,700.094,2467.538Z" transform="translate(-699.094 -2441.86)" fill="#afcded"/>
        </g>
        <g id="Group_4094-2" data-name="Group 4094" transform="translate(0 271.836)">
          <path id="Path_14203-2" data-name="Path 14203" d="M108.182,2491.33c-.419,0-.809-.524-.949-1.352a2.729,2.729,0,0,1,.633-2.5c3.34-2.2,4.525-8.989,4.525-14.134,0-1.092.448-1.977,1-1.977s1,.885,1,1.977c0,8.506-2.313,15.526-5.893,17.884A.576.576,0,0,1,108.182,2491.33Z" transform="translate(-107.182 -2471.368)" fill="#afcded"/>
        </g>
        <g id="Group_4095-2" data-name="Group 4095" transform="translate(9.84 275.267)">
          <path id="Path_14204-2" data-name="Path 14204" d="M137.692,2491.963c-.256,0-.512-.193-.707-.579a3.479,3.479,0,0,1,0-2.794,20.818,20.818,0,0,0,2.6-10.038c0-1.092.448-1.976,1-1.976s1,.885,1,1.976a26.894,26.894,0,0,1-3.187,12.832C138.2,2491.77,137.948,2491.963,137.692,2491.963Z" transform="translate(-136.692 -2476.576)" fill="#afcded"/>
        </g>
        <g id="Group_4096-2" data-name="Group 4096" transform="translate(116.343 227.242)">
          <path id="Path_14205-2" data-name="Path 14205" d="M460.955,2417.131c-.256,0-.512-.194-.707-.58a67.528,67.528,0,0,1-4-9.807,3.328,3.328,0,0,1,.277-2.74c.46-.605,1.081-.36,1.387.548a63.448,63.448,0,0,0,3.75,9.2,3.48,3.48,0,0,1,0,2.8C461.467,2416.937,461.211,2417.131,460.955,2417.131Z" transform="translate(-456.08 -2403.672)" fill="#afcded"/>
        </g>
        <g id="Group_4097-2" data-name="Group 4097" transform="translate(42.254 258.115)">
          <path id="Path_14206-2" data-name="Path 14206" d="M234.9,2465.925c-.5,0-.936-.748-.993-1.758-.061-1.084.334-2.062.884-2.182a74.877,74.877,0,0,1,8.231-1.164c8.106-.844,16.487-1.715,23.184-9.983.469-.578,1.086-.3,1.379.629a3.283,3.283,0,0,1-.318,2.724c-7.135,8.809-15.78,9.708-24.14,10.578a73.044,73.044,0,0,0-8.115,1.145A.49.49,0,0,1,234.9,2465.925Z" transform="translate(-233.896 -2450.538)" fill="#afcded"/>
        </g>
        <g id="Group_4098-2" data-name="Group 4098" transform="translate(84.508 244.394)">
          <path id="Path_14207-2" data-name="Path 14207" d="M361.61,2440.522c-.467,0-.885-.65-.98-1.59-.108-1.069.243-2.111.785-2.325,1.268-.5,2.317-1.8,3.428-3.168,1.214-1.5,2.47-3.049,4.1-3.691.542-.214,1.069.48,1.177,1.55s-.243,2.111-.785,2.325c-1.268.5-2.317,1.8-3.428,3.168-1.214,1.5-2.47,3.051-4.1,3.693A.538.538,0,0,1,361.61,2440.522Z" transform="translate(-360.61 -2429.709)" fill="#afcded"/>
        </g>
        <g id="Group_4099-2" data-name="Group 4099" transform="translate(181.17 247.824)">
          <path id="Path_14208-2" data-name="Path 14208" d="M652.363,2465.226a7.282,7.282,0,0,1-.938-.062c-.551-.071-.969-1.013-.932-2.1s.512-1.916,1.064-1.842a6.324,6.324,0,0,0,.806.054c6.144,0,9.8-9.848,13.328-19.372.775-2.09,1.576-4.251,2.383-6.244.345-.851.975-.991,1.406-.308a3.429,3.429,0,0,1,.156,2.777c-.781,1.929-1.534,3.96-2.332,6.111C663.656,2454.075,659.521,2465.226,652.363,2465.226Z" transform="translate(-650.49 -2434.916)" fill="#afcded"/>
        </g>
        <g id="Group_4100-2" data-name="Group 4100" transform="translate(397.07 210.091)">
          <path id="Path_14209-2" data-name="Path 14209" d="M1305.315,2389.592a.637.637,0,0,1-.447-.209c-.5-.494-1.016-.947-1.515-1.384a16.012,16.012,0,0,1-5.2-7.2,3.4,3.4,0,0,1,.2-2.767c.442-.654,1.069-.478,1.4.4a13.274,13.274,0,0,0,4.416,5.961c.52.455,1.057.926,1.6,1.461a3.093,3.093,0,0,1,.447,2.651C1306.035,2389.191,1305.681,2389.592,1305.315,2389.592Z" transform="translate(-1297.948 -2377.635)" fill="#afcded"/>
        </g>
        <g id="Group_4101-2" data-name="Group 4101" transform="translate(435.851 172.785)">
          <path id="Path_14210-2" data-name="Path 14210" d="M1415.248,2333.675c-.323,0-.641-.309-.833-.879a3.329,3.329,0,0,1,.277-2.741,28.8,28.8,0,0,0,4.063-8.171c.307-.909.928-1.152,1.387-.548a3.326,3.326,0,0,1,.278,2.74,32.626,32.626,0,0,1-4.618,9.268A.717.717,0,0,1,1415.248,2333.675Z" transform="translate(-1414.247 -2321.003)" fill="#afcded"/>
        </g>
        <g id="Group_4102-2" data-name="Group 4102" transform="translate(1232.704 85.499)">
          <path id="Path_14211-2" data-name="Path 14211" d="M3805.646,2207.555a4.926,4.926,0,0,1-.816-.067c-.55-.09-.959-1.046-.914-2.134s.532-1.911,1.081-1.8a3.963,3.963,0,0,0,.649.053c3.828,0,7.675-5.8,9.147-13.8.189-1.028.763-1.555,1.282-1.183a2.8,2.8,0,0,1,.6,2.533C3814.9,2200.81,3810.361,2207.555,3805.646,2207.555Z" transform="translate(-3803.912 -2188.5)" fill="#afcded"/>
        </g>
        <g id="Group_4103-2" data-name="Group 4103" transform="translate(1247.531 98.166)">
          <path id="Path_14212-2" data-name="Path 14212" d="M3849.38,2218.015c-.323,0-.641-.309-.833-.879a3.332,3.332,0,0,1,.277-2.741,21.487,21.487,0,0,0,2.928-5.785c.306-.909.927-1.154,1.387-.549a3.329,3.329,0,0,1,.278,2.741,25.559,25.559,0,0,1-3.483,6.881A.715.715,0,0,1,3849.38,2218.015Z" transform="translate(-3848.379 -2207.729)" fill="#afcded"/>
        </g>
        <g id="Group_4104-2" data-name="Group 4104" transform="translate(1275.583 106.874)">
          <path id="Path_14213-2" data-name="Path 14213" d="M3960.329,2231.707a141.3,141.3,0,0,1-26.923-2.856c-.549-.106-.952-1.073-.9-2.16s.543-1.886,1.093-1.773a140.354,140.354,0,0,0,26.729,2.837A84.32,84.32,0,0,0,3994.6,2221c.54-.236,1.074.439,1.192,1.505s-.223,2.121-.762,2.355A85.377,85.377,0,0,1,3960.329,2231.707Z" transform="translate(-3932.502 -2220.948)" fill="#afcded"/>
        </g>
        <g id="Group_4105-2" data-name="Group 4105" transform="translate(1350.122 104.5)">
          <path id="Path_14214-2" data-name="Path 14214" d="M4158.9,2224.528c-.349,0-.692-.017-1.023-.035-.292-.015-.575-.031-.844-.031-.552,0-1-.883-1-1.976s.448-1.976,1-1.976c.285,0,.585.016.9.031s.641.034.971.034a3.552,3.552,0,0,0,3.763-2.49c.346-.851.975-.99,1.407-.309a3.432,3.432,0,0,1,.156,2.778C4162.8,2224.076,4160.632,2224.528,4158.9,2224.528Z" transform="translate(-4156.034 -2217.344)" fill="#afcded"/>
        </g>
        <g id="Group_4106-2" data-name="Group 4106" transform="translate(1368.555 107.666)">
          <path id="Path_14215-2" data-name="Path 14215" d="M4214.72,2237.187c-.256,0-.512-.193-.707-.579-1.817-3.589-2.255-7.913-2.678-12.093-.108-1.071.244-2.112.784-2.326s1.07.48,1.178,1.551c.381,3.768.742,7.33,2.131,10.073a3.478,3.478,0,0,1,0,2.794C4215.232,2236.994,4214.976,2237.187,4214.72,2237.187Z" transform="translate(-4211.315 -2222.15)" fill="#afcded"/>
        </g>
        <g id="Group_4107-2" data-name="Group 4107" transform="translate(1321.268 242.249)">
          <path id="Path_14216-2" data-name="Path 14216" d="M4104.719,2436.1c-7.761,0-15.691-1.271-23.359-2.5-3.6-.577-7.315-1.173-10.916-1.617-.552-.068-.971-1.006-.936-2.1s.512-1.922,1.061-1.85c3.619.447,7.347,1.044,10.953,1.622,7.628,1.223,15.517,2.486,23.2,2.486,9.123,0,16.85-1.839,23.623-5.62.531-.3,1.085.313,1.234,1.365a2.591,2.591,0,0,1-.69,2.439C4121.933,2434.213,4114.028,2436.1,4104.719,2436.1Z" transform="translate(-4069.506 -2426.452)" fill="#afcded"/>
        </g>
        <g id="Group_4108-2" data-name="Group 4108" transform="translate(1390.196 237.499)">
          <path id="Path_14217-2" data-name="Path 14217" d="M4277.212,2427.944c-.553,0-1-.884-1-1.976s.448-1.976,1-1.976c2.24,0,4.542-2.388,6.3-4.468.474-.562,1.088-.259,1.373.678a3.251,3.251,0,0,1-.343,2.712C4282.563,2425.255,4279.944,2427.944,4277.212,2427.944Z" transform="translate(-4276.211 -2419.241)" fill="#afcded"/>
        </g>
        <g id="Group_4109-2" data-name="Group 4109" transform="translate(1407.828 235.916)">
          <path id="Path_14218-2" data-name="Path 14218" d="M4335.7,2437.416a.741.741,0,0,1-.581-.367,31.09,31.09,0,0,1-6.029-18.234c0-1.092.448-1.976,1-1.976s1,.884,1,1.976c0,5.176,1.7,10.088,5.192,15.017a3.376,3.376,0,0,1,.232,2.758C4336.319,2437.128,4336.012,2437.416,4335.7,2437.416Z" transform="translate(-4329.09 -2416.839)" fill="#afcded"/>
        </g>
        <g id="Group_4110-2" data-name="Group 4110" transform="translate(1403.339 247.79)">
          <path id="Path_14219-2" data-name="Path 14219" d="M4317.911,2446.734c-.419,0-.81-.523-.949-1.352-.1-.564-.271-1.209-.457-1.892a19.681,19.681,0,0,1-.878-5.365,14.024,14.024,0,0,1,.111-1.762c.134-1.06.678-1.7,1.213-1.438s.861,1.337.728,2.4a6.344,6.344,0,0,0-.051.8,13.521,13.521,0,0,0,.64,3.5c.217.8.442,1.626.592,2.514a2.726,2.726,0,0,1-.633,2.5A.568.568,0,0,1,4317.911,2446.734Z" transform="translate(-4315.627 -2434.864)" fill="#afcded"/>
        </g>
        <g id="Group_4111-2" data-name="Group 4111" transform="translate(1265.565 219.839)">
          <path id="Path_14220-2" data-name="Path 14220" d="M3903.459,2403.754c-.552,0-1-.884-1-1.976s.448-1.977,1-1.977c2,0,3.276-2.637,4.629-5.429.225-.464.447-.921.668-1.36.391-.772,1.024-.772,1.415,0a3.476,3.476,0,0,1,0,2.794c-.212.419-.424.855-.638,1.3C3908.1,2400.068,3906.312,2403.754,3903.459,2403.754Z" transform="translate(-3902.459 -2392.434)" fill="#afcded"/>
        </g>
        <g id="Group_4112-2" data-name="Group 4112" transform="translate(1453.513 170.207)">
          <path id="Path_14221-2" data-name="Path 14221" d="M4468.118,2325.992a3.3,3.3,0,0,1-1.222-.237c-.542-.213-.893-1.254-.785-2.324s.637-1.763,1.177-1.551a2.254,2.254,0,0,0,.83.16c1.155,0,2.7-.971,3.255-3.705.2-1.014.788-1.507,1.3-1.1a2.883,2.883,0,0,1,.557,2.568C4472.469,2323.562,4470.463,2325.992,4468.118,2325.992Z" transform="translate(-4466.092 -2317.091)" fill="#afcded"/>
        </g>
        <g id="Group_4113-2" data-name="Group 4113" transform="translate(1485.973 189.208)">
          <path id="Path_14222-2" data-name="Path 14222" d="M4582.677,2352.421a60.605,60.605,0,0,1-11.117-1.38c-2.339-.438-4.756-.892-7.179-1.158-.551-.061-.974-.993-.943-2.082s.506-1.928,1.054-1.864c2.461.27,4.9.727,7.256,1.169a58.924,58.924,0,0,0,10.928,1.362,27.165,27.165,0,0,0,2.944-.156c.554-.066,1.023.773,1.054,1.863s-.392,2.023-.944,2.083A27.952,27.952,0,0,1,4582.677,2352.421Z" transform="translate(-4563.437 -2345.934)" fill="#afcded"/>
        </g>
        <g id="Group_4114-2" data-name="Group 4114" transform="translate(1515.628 191.582)">
          <path id="Path_14223-2" data-name="Path 14223" d="M4653.367,2354.283c-.448,0-.856-.6-.969-1.5-.134-1.059.191-2.131.728-2.4a3.017,3.017,0,0,1,1.384-.3,9.034,9.034,0,0,1,1.134.095,8.346,8.346,0,0,0,1.034.088,1.911,1.911,0,0,0,1.452-.528c.494-.49,1.1-.094,1.342.882a3.093,3.093,0,0,1-.447,2.652,3.15,3.15,0,0,1-2.348.946,9.31,9.31,0,0,1-1.162-.1,8.284,8.284,0,0,0-1.006-.087,1.962,1.962,0,0,0-.9.179A.555.555,0,0,1,4653.367,2354.283Z" transform="translate(-4652.368 -2349.538)" fill="#afcded"/>
        </g>
        <g id="Group_4115-2" data-name="Group 4115" transform="translate(1539.672 186.041)">
          <path id="Path_14224-2" data-name="Path 14224" d="M4728.28,2356.955c-.256,0-.512-.194-.708-.579-1.471-2.909-2.508-7.244-3.079-12.885-.108-1.07.244-2.111.785-2.324s1.068.479,1.177,1.55c.338,3.342,1.053,7.942,2.532,10.865a3.48,3.48,0,0,1,0,2.8C4728.792,2356.761,4728.536,2356.955,4728.28,2356.955Z" transform="translate(-4724.474 -2341.128)" fill="#afcded"/>
        </g>
        <g id="Group_4116-2" data-name="Group 4116" transform="translate(1536.066 195.542)">
          <path id="Path_14225-2" data-name="Path 14225" d="M4714.659,2366.626c-.552,0-1-.884-1-1.976v-7.125c0-1.092.448-1.976,1-1.976s1,.885,1,1.976v7.125C4715.66,2365.742,4715.211,2366.626,4714.659,2366.626Z" transform="translate(-4713.659 -2355.549)" fill="#afcded"/>
        </g>
        <g id="Group_4117-2" data-name="Group 4117" transform="translate(1625.031 187.623)">
          <path id="Path_14226-2" data-name="Path 14226" d="M4983.539,2354.161a3.516,3.516,0,0,1-2.581-1.4,3.212,3.212,0,0,1-.373-2.7c.274-.947.885-1.275,1.365-.736a2.184,2.184,0,0,0,1.589.877c1.725,0,3.35-3,4.3-5.8.306-.909.927-1.155,1.387-.548a3.326,3.326,0,0,1,.277,2.74C4987.9,2351.336,4985.673,2354.161,4983.539,2354.161Z" transform="translate(-4980.453 -2343.529)" fill="#afcded"/>
        </g>
        <g id="Group_4118-2" data-name="Group 4118" transform="translate(1633.046 201.082)">
          <path id="Path_14227-2" data-name="Path 14227" d="M5005.49,2372.663c-.256,0-.512-.193-.708-.579a3.487,3.487,0,0,1,0-2.795,12.246,12.246,0,0,1,1.205-1.853,8.592,8.592,0,0,0,1.476-2.6c.306-.909.927-1.155,1.387-.548a3.327,3.327,0,0,1,.278,2.741,12,12,0,0,1-2.018,3.676,9.544,9.544,0,0,0-.913,1.375C5006,2372.47,5005.746,2372.663,5005.49,2372.663Z" transform="translate(-5004.49 -2363.96)" fill="#afcded"/>
        </g>
        <g id="Group_4119-2" data-name="Group 4119" transform="translate(1677.528 222.457)">
          <path id="Path_14228-2" data-name="Path 14228" d="M5221.7,2414.32c-24.413,0-50.775-4.442-82.965-13.982-.546-.162-.923-1.168-.841-2.248s.592-1.822,1.138-1.66c32.09,9.508,58.358,13.938,82.669,13.938,4.627,0,9.244-.169,13.725-.5.547-.034,1.016.81,1.037,1.9s-.411,2.008-.963,2.048C5231,2414.151,5226.356,2414.32,5221.7,2414.32Z" transform="translate(-5137.887 -2396.408)" fill="#afcded"/>
        </g>
        <g id="Group_4120-2" data-name="Group 4120" transform="translate(1783.725 231.957)">
          <path id="Path_14229-2" data-name="Path 14229" d="M5457.358,2417.949c-.552,0-1-.885-1-1.977s.448-1.976,1-1.976c.748,0,1.586-.747,2.475-1.536a10.207,10.207,0,0,1,2.092-1.572c.535-.266,1.079.379,1.212,1.438s-.192,2.132-.728,2.4a8.966,8.966,0,0,0-1.756,1.342C5459.612,2416.991,5458.534,2417.949,5457.358,2417.949Z" transform="translate(-5456.358 -2410.829)" fill="#afcded"/>
        </g>
        <g id="Group_4121-2" data-name="Group 4121" transform="translate(1794.94 228.792)">
          <path id="Path_14230-2" data-name="Path 14230" d="M5491.734,2411.686a2.466,2.466,0,0,1-.6-.093,1.222,1.222,0,0,0-.15-.035c-.552,0-.994-.885-.994-1.976s.454-1.977,1.005-1.977a1.626,1.626,0,0,1,.394.065c.073.019.149.038.22.05.068-.959.486-1.7.99-1.7.553,0,1,.884,1,1.976C5493.6,2410.239,5492.868,2411.686,5491.734,2411.686Z" transform="translate(-5489.991 -2406.024)" fill="#afcded"/>
        </g>
        <g id="Group_4122-2" data-name="Group 4122" transform="translate(1956.445 245.415)">
          <path id="Path_14231-2" data-name="Path 14231" d="M6000.091,2443.148c-8.4,0-17.257-.627-25.2-8.129a3.052,3.052,0,0,1-.47-2.635c.238-.984.835-1.4,1.334-.93,7.562,7.145,16.167,7.742,24.333,7.742.758,0,1.513,0,2.264-.01s1.487-.009,2.225-.009c.552,0,1,.884,1,1.976s-.448,1.976-1,1.976q-1.1,0-2.218.009T6000.091,2443.148Z" transform="translate(-5974.325 -2431.259)" fill="#afcded"/>
        </g>
        <g id="Group_4123-2" data-name="Group 4123" transform="translate(2008.14 256.498)">
          <path id="Path_14232-2" data-name="Path 14232" d="M6132.357,2459.955c-.448,0-.856-.6-.97-1.5a16.235,16.235,0,0,0-.863-3.342,21.979,21.979,0,0,1-1.14-4.575c-.134-1.059.192-2.133.728-2.4s1.079.379,1.213,1.438a16.2,16.2,0,0,0,.864,3.342,21.99,21.99,0,0,1,1.14,4.575c.133,1.059-.192,2.132-.729,2.4A.553.553,0,0,1,6132.357,2459.955Z" transform="translate(-6129.354 -2448.084)" fill="#afcded"/>
        </g>
        <g id="Group_4124-2" data-name="Group 4124" transform="translate(2000.526 264.416)">
          <path id="Path_14233-2" data-name="Path 14233" d="M6107.521,2470.389c-.552,0-1-.885-1-1.976v-6.333c0-1.092.449-1.976,1-1.976s1,.884,1,1.976v6.333C6108.521,2469.5,6108.074,2470.389,6107.521,2470.389Z" transform="translate(-6106.52 -2460.104)" fill="#afcded"/>
        </g>
        <g id="Group_4125-2" data-name="Group 4125" transform="translate(2030.582 231.167)">
          <path id="Path_14234-2" data-name="Path 14234" d="M6218.493,2419.915a.554.554,0,0,1-.283-.081c-5.282-3.069-10.875-4.216-16.286-5.326-1.445-.3-2.938-.6-4.388-.94-.548-.126-.941-1.109-.877-2.192s.565-1.857,1.111-1.732c1.436.334,2.923.639,4.361.934,5.5,1.128,11.185,2.295,16.643,5.466a2.624,2.624,0,0,1,.677,2.454C6219.324,2419.357,6218.925,2419.915,6218.493,2419.915Z" transform="translate(-6196.653 -2409.63)" fill="#afcded"/>
        </g>
        <g id="Group_4126-2" data-name="Group 4126" transform="translate(2034.99 251.75)">
          <path id="Path_14235-2" data-name="Path 14235" d="M6219.589,2447.317a.674.674,0,0,1-.5-.262c-1.658-1.872-3.472-1.9-5.392-1.936a11.5,11.5,0,0,1-2.97-.311c-.547-.155-.927-1.156-.85-2.236s.588-1.827,1.132-1.677a10.582,10.582,0,0,0,2.7.272c2,.034,4.256.073,6.368,2.457a3.213,3.213,0,0,1,.373,2.7C6220.274,2446.958,6219.937,2447.317,6219.589,2447.317Z" transform="translate(-6209.873 -2440.876)" fill="#afcded"/>
        </g>
        <g id="Group_4127-2" data-name="Group 4127" transform="translate(1788.934 129.04)">
          <path id="Path_14236-2" data-name="Path 14236" d="M5543.914,2287.052a.545.545,0,0,1-.2-.041l-70.931-28.5c-.542-.218-.892-1.261-.781-2.33s.636-1.761,1.18-1.542l70.931,28.5c.542.218.891,1.261.781,2.33C5544.8,2286.405,5544.379,2287.052,5543.914,2287.052Z" transform="translate(-5471.98 -2254.598)" fill="#afcded"/>
        </g>
        <g id="Group_4128-2" data-name="Group 4128" transform="translate(1870.686 163.083)">
          <path id="Path_14237-2" data-name="Path 14237" d="M5722.152,2310.227h-4.007c-.552,0-1-.884-1-1.976s.448-1.976,1-1.976h4.007c.552,0,1,.885,1,1.976S5722.7,2310.227,5722.152,2310.227Z" transform="translate(-5717.145 -2306.275)" fill="#afcded"/>
        </g>
        <g id="Group_4129-2" data-name="Group 4129" transform="translate(1381.379 21.376)">
          <path id="Path_14238-2" data-name="Path 14238" d="M4327.716,2111.735a.508.508,0,0,1-.109-.012l-76.944-16.625c-.549-.119-.945-1.094-.885-2.18s.557-1.857,1.1-1.749l76.942,16.625c.549.119.946,1.094.886,2.18C4328.653,2110.985,4328.219,2111.735,4327.716,2111.735Z" transform="translate(-4249.771 -2091.159)" fill="#afcded"/>
        </g>
        <g id="Group_4130-2" data-name="Group 4130" transform="translate(1467.539 38)">
          <path id="Path_14239-2" data-name="Path 14239" d="M4515.968,2120.347h-6.812c-.552,0-1-.885-1-1.976s.448-1.976,1-1.976h6.813c.553,0,1,.884,1,1.976S4516.521,2120.347,4515.968,2120.347Z" transform="translate(-4508.155 -2116.395)" fill="#afcded"/>
        </g>
        <g id="Group_4131-2" data-name="Group 4131" transform="translate(710.937 0.001)">
          <path id="Path_14240-2" data-name="Path 14240" d="M2240.2,2072.953c-.527,0-.968-.813-1-1.865-.031-1.09.391-2.023.943-2.084l92.572-10.292c.55-.054,1.024.772,1.055,1.861s-.391,2.023-.942,2.085l-92.572,10.291C2240.234,2072.952,2240.215,2072.953,2240.2,2072.953Z" transform="translate(-2239.197 -2058.71)" fill="#afcded"/>
        </g>
        <g id="Group_4132-2" data-name="Group 4132" transform="translate(812.726 0)">
          <path id="Path_14241-2" data-name="Path 14241" d="M2551.861,2062.661h-6.412c-.552,0-1-.885-1-1.976s.448-1.976,1-1.976h6.412c.552,0,1,.885,1,1.976S2552.414,2062.661,2551.861,2062.661Z" transform="translate(-2544.449 -2058.709)" fill="#afcded"/>
        </g>
        <g id="Group_4133-2" data-name="Group 4133" transform="translate(662.747 295.826)">
          <path id="Path_14242-2" data-name="Path 14242" d="M2133.165,2555.109c-10.1,0-19.617-2.284-26.785-6.432-7.653-4.427-11.7-10.385-11.7-17.231s4.045-12.8,11.7-17.231c7.168-4.147,16.681-6.431,26.785-6.431s19.617,2.284,26.785,6.431c7.652,4.428,11.7,10.386,11.7,17.231s-4.045,12.8-11.7,17.231C2152.781,2552.825,2143.269,2555.109,2133.165,2555.109Zm0-43.372c-21.5,0-36.482,10.388-36.482,19.709s14.983,19.71,36.482,19.71,36.482-10.387,36.482-19.71S2154.664,2511.737,2133.165,2511.737Z" transform="translate(-2094.682 -2507.785)" fill="#afcded"/>
        </g>
        <g id="Group_4134-2" data-name="Group 4134" transform="translate(116.343 339.167)">
          <path id="Path_14243-2" data-name="Path 14243" d="M468.367,2603.2c-6.687,0-11.851-2.125-12.262-7.525-.662-8.71,11.769-16.453,23.6-19.962s24.864-3.318,25.526,5.394c.3,3.979-2.036,7.936-6.951,11.761a51.557,51.557,0,0,1-16.648,8.2A48.21,48.21,0,0,1,468.367,2603.2Zm24.325-25.629A45.117,45.117,0,0,0,480,2579.619c-14.612,4.334-22.143,12.49-21.917,15.467s8.638,6.4,23.25,2.071a50.209,50.209,0,0,0,16.211-7.969c4.86-3.783,5.766-6.695,5.705-7.5C503.1,2579.728,499.392,2577.568,492.692,2577.568Z" transform="translate(-456.08 -2573.579)" fill="#afcded"/>
        </g>
        <g id="Group_4135-2" data-name="Group 4135" transform="translate(1132.53 61.96)">
          <path id="Path_14244-2" data-name="Path 14244" d="M3525.587,2187.81c-12.59,0-22.085-7.532-22.085-17.522s9.494-17.521,22.085-17.521,22.084,7.532,22.084,17.521S3538.177,2187.81,3525.587,2187.81Zm0-31.09c-11.836,0-20.084,7.15-20.084,13.568s8.248,13.57,20.084,13.57,20.083-7.152,20.083-13.57S3537.423,2156.72,3525.587,2156.72Z" transform="translate(-3503.503 -2152.767)" fill="#afcded"/>
        </g>
        <g id="Group_4136-2" data-name="Group 4136" transform="translate(1572.827 270.749)">
          <path id="Path_14245-2" data-name="Path 14245" d="M4840.961,2498.747c-9.726,0-17.061-6.24-17.061-14.515s7.335-14.515,17.061-14.515,17.06,6.24,17.06,14.515S4850.688,2498.747,4840.961,2498.747Zm0-25.077c-8.875,0-15.06,5.566-15.06,10.562s6.185,10.563,15.06,10.563,15.06-5.566,15.06-10.562S4849.836,2473.67,4840.961,2473.67Z" transform="translate(-4823.9 -2469.717)" fill="#afcded"/>
        </g>
        <g id="Group_4137-2" data-name="Group 4137" transform="translate(1833.619 306.287)">
          <path id="Path_14246-2" data-name="Path 14246" d="M5673.779,2565.077c-7.667,0-17.286-1.66-27.357-4.737-10.915-3.335-21.069-7.941-28.594-12.971-12.383-8.276-11.944-13.882-11.8-15.723s.583-7.447,13.653-7.947c7.942-.295,18.328,1.368,29.242,4.7s21.07,7.941,28.595,12.97c12.382,8.276,11.944,13.881,11.8,15.724s-.583,7.447-13.652,7.946Q5674.743,2565.076,5673.779,2565.077Zm-52.208-37.461q-.948,0-1.851.035c-9.343.356-11.624,3.441-11.715,4.6s1.612,5.459,10.463,11.376c7.419,4.957,17.455,9.507,28.26,12.808s21.066,4.96,28.9,4.656c9.342-.356,11.624-3.441,11.715-4.6s-1.613-5.459-10.464-11.375c-7.418-4.958-17.454-9.507-28.259-12.808C5638.645,2529.26,5629.134,2527.616,5621.571,2527.616Z" transform="translate(-5605.985 -2523.665)" fill="#afcded"/>
        </g>
      </g>
    </g>
  </g>
</svg>
