<svg xmlns="http://www.w3.org/2000/svg" width="1708.664" height="1309.264" viewBox="0 0 1708.664 1309.264">
  <g id="Group_3549" data-name="Group 3549" transform="translate(-1248.434 -321.447)">
    <g id="Group_3544" data-name="Group 3544" transform="translate(1248.434 321.447)">
      <path id="Path_12523" data-name="Path 12523" d="M2646.454,1002.449a38.625,38.625,0,0,0,13.812,29.637,38.48,38.48,0,0,0,24.9,9.073c.887,0,1.762-.029,2.632-.087a38.893,38.893,0,0,0,27.35-14.162c.006-.006-.1-.006-.1-.012a38.3,38.3,0,0,0,8.542-24.321v-.128a37.694,37.694,0,0,0-11.417-27.659c-.041-.041-.042-.082-.083-.117a38.71,38.71,0,0,0-34.141-10.264,36.819,36.819,0,0,0-4.025.986c-.887.268-1.756.566-2.613.9a38.743,38.743,0,0,0-16.916,12.662c-.5.659-.992,1.336-1.453,2.031a38.646,38.646,0,0,0-4.417,8.94,37.693,37.693,0,0,0-1.389,5.263A38.666,38.666,0,0,0,2646.454,1002.449Z" transform="translate(-2646.454 -963.66)" fill="#0bf"/>
      <path id="Path_12524" data-name="Path 12524" d="M2784.612,964.409c2.993,3.163,9.5,4.814,13.5,4.814,3.863,0,5.911-1.587,7.948-2.784a38.918,38.918,0,0,0-21.444-2.031Z" transform="translate(-2753.113 -963.66)" fill="#fff"/>
      <path id="Path_12525" data-name="Path 12525" d="M2806.4,1164.784c-1.038-.04-2.1-.069-3.159-.069-9.674,0-15.006,3.435-15.006,6.042,0,.681,6.676,18.5,11.012,18.5,2.647,0,2.911-1.765,2.911-4.373,0-.189,0-.378,0-.566,0-5.691,4.429-4.9,8.642-12.533.023-.041,2.526-4.909,2.526-5.088,0-1.661-3.526-1.9-5.181-1.9h-.712C2807.074,1164.8,2806.728,1164.8,2806.4,1164.784Z" transform="translate(-2755.906 -1118.816)" fill="#9bd900"/>
      <path id="Path_12526" data-name="Path 12526" d="M2898.275,1039.273c.164.163.14.519.327.648a4.334,4.334,0,0,0,2.515.858c1.908,0,12.02-7.014,15.481-12.633a38.641,38.641,0,0,0-9.943-16.327c-.041-.041-.082-.082-.123-.116-5.135.928-7.271,12.067-7.271,13.964,0,2.515.537,5.147.537,7.726A10.542,10.542,0,0,1,2898.275,1039.273Z" transform="translate(-2840.862 -1000.689)" fill="#9bd900"/>
      <path id="Path_12527" data-name="Path 12527" d="M2681.288,987.611c1.266,2.328,3.979,4.446,9.26,5.894,1.8.5,1.791,6.716,5.952,6.716,1.861,0,3.25-2.089,4.68-3.215.834-.665,6.495.2,6.495-6.419a8.349,8.349,0,0,0-.9-3.793c-2.2-4.266-4.907-8.823-8.572-11.845A38.745,38.745,0,0,0,2681.288,987.611Z" transform="translate(-2673.346 -972.315)" fill="#9bd900"/>
      <path id="Path_12528" data-name="Path 12528" d="M2646.454,1091.127a38.624,38.624,0,0,0,13.812,29.637c9.657-8.2,1.873-18.93.63-24.49-.91-4.044,6.4-7.189,3.74-12.167-1.523-2.859-6.039-4.161-9.395-4.476-2.13-.2-4.429-.706-6.716-1.027A38.659,38.659,0,0,0,2646.454,1091.127Z" transform="translate(-2646.454 -1052.338)" fill="#9bd900"/>
      <path id="Path_12529" data-name="Path 12529" d="M2737.185,1274.142a38.576,38.576,0,0,0,18.025,4.44c.887,0,1.762-.029,2.632-.087-3.332-3.145-8.321-7.218-15.329-7.218C2740.8,1271.277,2738.714,1272.713,2737.185,1274.142Z" transform="translate(-2716.499 -1201.083)" fill="#fff"/>
      <path id="Path_12530" data-name="Path 12530" d="M2856.869,1018.616c-.312,2.026-1.741,4.459-3.642,4.459-1.509,0-7.375-3.309-7.375-7.215a4.321,4.321,0,0,1,4.311-4.243c1.4,0,6.892.885,6.892,4.991A13.366,13.366,0,0,1,2856.869,1018.616Z" transform="translate(-2800.391 -1000.623)" fill="#fff"/>
      <path id="Path_12531" data-name="Path 12531" d="M2783.485,1103.857v.076s29.5,17.453,29.55,17.651a17.225,17.225,0,0,0,7.93,10.819,38.558,38.558,0,0,0,8.7-24.4c-2.264,2.427-3.846,7.44-7.3,7.44-.286,0-10.97-7.1-19.145-7.1-.939,0-2.136.082-2.3.082-5.865,0-9.354-8.035-13.672-8.035A3.73,3.73,0,0,0,2783.485,1103.857Z" transform="translate(-2752.243 -1069.153)" fill="#fff"/>
      <path id="Path_12532" data-name="Path 12532" d="M2646.454,1108.95a39.025,39.025,0,0,0,.765,7.714c.233-.017.49-.035.793-.035,4.114,0,7.6,2.655,11.221,2.655,1.214,0,1.558-.28,3.239-.28,5.87,0,10.521,4.318,16.024,4.318.583,0,1.967.076,1.967-1.575,0-5.631-8.613-9.57-14.583-11.2-6.733-1.838-12.528-5.894-18.743-8.858A38.666,38.666,0,0,0,2646.454,1108.95Z" transform="translate(-2646.454 -1070.161)" fill="#fff"/>
      <path id="Path_12533" data-name="Path 12533" d="M2833.624,1210.609c0,.408,4.563,9.657,13.2,16.129a38.692,38.692,0,0,0,9.1-6.291c-8.747-4.277-5.847-1.243-17.582-10.562a2.747,2.747,0,0,0-1.757-.572C2835.865,1209.314,2833.624,1209.7,2833.624,1210.609Z" transform="translate(-2790.951 -1153.247)" fill="#fff"/>
      <g id="Group_3543" data-name="Group 3543" transform="translate(0.216 0)" opacity="0.3" style="mix-blend-mode: multiply;isolation: isolate">
        <path id="Path_12534" data-name="Path 12534" d="M2719.176,981.99A38.585,38.585,0,0,1,2723,990.4a35.364,35.364,0,0,1,1.12,4.488c.122.762.263,1.521.368,2.285l.132,1.15.094,1.154a39.2,39.2,0,0,1-.474,9.224,38.51,38.51,0,0,1-2.646,8.848c-.305.709-.668,1.391-1,2.088s-.7,1.376-1.089,2.041a38.927,38.927,0,0,1-16.811,15.411,38.788,38.788,0,0,1-13.333,3.607c-.769.061-1.539.111-2.311.125a5.115,5.115,0,0,0-.577.031h-.579c-.386,0-.772,0-1.157-.021a39.352,39.352,0,0,1-9.134-1.373,37.858,37.858,0,0,1-8.543-3.508,38.95,38.95,0,0,1-7.518-5.367,15.26,15.26,0,0,1-1.609-1.66c-.509-.58-.987-1.186-1.469-1.789-.944-1.22-1.857-2.466-2.682-3.77-.43-.641-.809-1.314-1.209-1.973-.367-.678-.762-1.343-1.1-2.038a39.972,39.972,0,0,1-1.86-4.236,36.38,36.38,0,0,1-2.124-8.986c.031-.043.072-.077.1-.12a39.4,39.4,0,0,1,.616-11.829,38.43,38.43,0,0,1,4.156-11.089,38.848,38.848,0,0,1,3.307-4.934c.617-.775,1.254-1.535,1.944-2.247l1.016-1.085c.348-.352.706-.7,1.065-1.036a38.462,38.462,0,0,1,21.144-10.037,40.062,40.062,0,0,1,5.93-.35,39.25,39.25,0,0,1,5.913.557,38.8,38.8,0,0,1,26.49,18.034Zm-10.236-11.1q-1.2-.873-2.47-1.647c-.846-.513-1.72-.979-2.6-1.42a37.819,37.819,0,0,0-5.488-2.207,38.309,38.309,0,0,0-5.758-1.275,35.6,35.6,0,0,0-5.858-.331c-.976.028-1.949.087-2.918.182-.489.053-.957.114-1.453.187-.479.074-.953.151-1.431.244a37.716,37.716,0,0,0-5.586,1.52l-.339.123-.326.126-.695.268c-.447.186-.871.36-1.308.558q-1.311.588-2.568,1.272a36.735,36.735,0,0,0-8.9,6.953c-.163.168-.315.346-.473.518l-.235.26-.117.13-.029.032c-.054.056.057-.058.04-.04l-.015.018-.059.072-.947,1.149-.473.575-.118.144-.03.036-.015.018c.03-.033-.087.1.063-.069l-.056.075-.223.3c-.316.411-.551.764-.811,1.131a35.935,35.935,0,0,0-2.753,4.781,38.852,38.852,0,0,0-1.982,5.086c-.136.423-.263.886-.373,1.286-.14.512-.228.883-.329,1.33q-.3,1.32-.494,2.655a34.456,34.456,0,0,0-.367,5.347,34.9,34.9,0,0,0,.362,5.315l.02.14v.314a4.267,4.267,0,0,1-.5,1.972c-.04.074-.081.145-.123.214l-.027.044-.026.041-.054.081-.113.159-.069.09-.115.14-.088.1-.057.065c-.007.008-.01.013.007,0l.063-.07.1-.124.066-.086.111-.155.053-.079.025-.04.027-.043c.042-.069.083-.14.123-.214a4.255,4.255,0,0,0,.5-1.97l-.021-.462a40.047,40.047,0,0,0,.834,3.978,34.1,34.1,0,0,0,1.319,3.86,39.119,39.119,0,0,0,3.866,7.286c.75,1.17,1.587,2.294,2.452,3.4.443.546.881,1.1,1.351,1.623l.346.4.086.1.043.05c-.084-.089.219.234-.183-.193l.026.025.17.165.407.4.332.314a35.616,35.616,0,0,0,6.566,4.767l.452.259.227.129c-.018-.009.08.043-.033-.016l.032.017.064.034.128.068.51.273c.167.089.354.192.481.251l.852.42.925.42.939.392.952.362.96.346.972.318a37.77,37.77,0,0,0,8.084,1.529,40.138,40.138,0,0,0,8.313-.285,34.507,34.507,0,0,0,4.116-.859c.68-.181,1.352-.393,2.023-.614l.979-.347,1.028-.4a35.255,35.255,0,0,0,7.507-4.058,36.911,36.911,0,0,0,6.46-5.833c.485-.554.938-1.11,1.4-1.708.445-.574.882-1.175,1.294-1.781q.31-.457.605-.923l.147-.234.018-.029c.029-.055-.019.043-.008.021l.036-.063.072-.126.287-.5.574-1.008.286-.5.07-.127.035-.063c-.057.128-.007.017-.015.037l.016-.032.127-.26a37.291,37.291,0,0,0,3.034-8.439,35.988,35.988,0,0,0,.739-4.47,39.176,39.176,0,0,0,.151-4.552l-.046-1.142-.084-1.141c-.069-.734-.2-1.521-.293-2.279a35.121,35.121,0,0,0-.977-4.478,37.2,37.2,0,0,0-3.64-8.45,36.826,36.826,0,0,0-10.184-11.135Z" transform="translate(-2647.402 -963.396)" fill="#0bf"/>
      </g>
    </g>
    <g id="Group_3546" data-name="Group 3546" transform="translate(1268.239 1553.12)">
      <path id="Path_12535" data-name="Path 12535" d="M2174.55,1854.1a40.39,40.39,0,0,0,1.869,11.8,38.771,38.771,0,0,0,36.959,26.933,32.559,32.559,0,0,0,13.074-2.307,35.731,35.731,0,0,0,9.858-5.194,38.711,38.711,0,0,0,7.677-7.444c.506-.641.982-1.288,1.446-1.964a38.5,38.5,0,0,0,6.625-19.05c.065-.917.1-1.839.1-2.773a38.9,38.9,0,0,0-1.017-8.976,42.233,42.233,0,0,0-2.81-7.959c-.012-.024-.024-.053-.035-.076a38.934,38.934,0,0,0-34.884-21.692,18.417,18.417,0,0,0-5.244.394c-.082.023-.17.047-.253.076a39.823,39.823,0,0,0-11.7,3.551c-.029.012-.059.03-.088.041-.006,0-.012-.065-.018-.065a38.74,38.74,0,0,0-19.9,23.885c-.024.071-.041.147-.065.218-.053.118-.112.247-.176.382a4.639,4.639,0,0,0-.564,1.864A39.209,39.209,0,0,0,2174.55,1854.1Z" transform="translate(-2174.55 -1815.384)" fill="#0bf"/>
      <path id="Path_12536" data-name="Path 12536" d="M2175.986,2042.767a38.207,38.207,0,0,0,1.611,7.677c17.653,6.667,35.36,12.821,50.021,24.714a38.579,38.579,0,0,0,9.858-5.238C2217.131,2055.482,2192.511,2046.7,2175.986,2042.767Z" transform="translate(-2175.716 -1999.932)" fill="#0095ff"/>
      <path id="Path_12537" data-name="Path 12537" d="M2179.637,1965.829c17.518,6.843,47.158,19.2,68.48,32.168.506-.641.982-1.3,1.446-1.975-19.993-15.872-44.413-26.73-69.227-32.656l-.07-.018c-.059.206-.118.412-.17.617C2179.925,1964.583,2179.772,1965.2,2179.637,1965.829Z" transform="translate(-2178.679 -1935.474)" fill="#0095ff"/>
      <path id="Path_12538" data-name="Path 12538" d="M2494.221,1991.425c0,5.926,8.5,13.027,15.431,15.173a38.486,38.486,0,0,0,1.857-9.423,32.59,32.59,0,0,0-9.188-7.066,14.944,14.944,0,0,0-5.844-1.858C2494.462,1988.25,2494.221,1989.443,2494.221,1991.425Z" transform="translate(-2434 -1955.685)" fill="#0095ff"/>
      <path id="Path_12539" data-name="Path 12539" d="M2288.981,1820.78c14.914,5.961,37.6,15.026,55,25.725a.125.125,0,0,1,.035.023,42.205,42.205,0,0,0-2.81-7.959,1.054,1.054,0,0,0-.094-.077,122.488,122.488,0,0,0-40.322-21.375A38.112,38.112,0,0,0,2288.981,1820.78Z" transform="translate(-2267.424 -1816.791)" fill="#0095ff"/>
      <g id="Group_3545" data-name="Group 3545" transform="translate(0.148 0.013)" opacity="0.3" style="mix-blend-mode: multiply;isolation: isolate">
        <path id="Path_12540" data-name="Path 12540" d="M2251.8,1862.682a3.536,3.536,0,0,1-.142,1.008,4.532,4.532,0,0,1-.172.481l-.1.234a.253.253,0,0,0-.024.124c-.008.036.04.1-.005.112l-.015.253c0,.017,0,.051-.015.053a.378.378,0,0,1-.016-.061c-.01-.078-.034.021-.043.046l-.155.483-.31.967c-.2.648-.466,1.271-.7,1.908s-.527,1.247-.787,1.872-.588,1.219-.878,1.831-.647,1.189-.967,1.785-.706,1.155-1.055,1.735-.763,1.118-1.14,1.68-.819,1.078-1.225,1.619-.875,1.033-1.309,1.552-.93.984-1.392,1.478-.983.93-1.472,1.4-1.036.872-1.551,1.31-1.086.807-1.628,1.214c-.553.39-1.135.738-1.7,1.109-.581.347-1.181.662-1.77,1,0,0-1.833.873-1.857.882-.057.125-.193.161-.307.219l-.351.167-.7.329q-.706.325-1.421.632c-.954.407-1.921.783-2.907,1.1q-.74.239-1.492.439t-1.518.337q-.766.136-1.54.216l-.776.057-.777.019a1.51,1.51,0,0,1-.038.189c-.017.055-.041.14-.112.137s-.1-.079-.161-.1a1.85,1.85,0,0,0-.186.047c-.248.07-.5.126-.75.178a14.209,14.209,0,0,1-1.525.216,29.577,29.577,0,0,1-3.08.093c-1.026-.051-2.057-.042-3.079-.142l-1.533-.165-.766-.083-.759-.134c-1.01-.191-2.03-.335-3.019-.62l-1.494-.382c-.495-.139-.977-.318-1.467-.474s-.98-.312-1.458-.5l-1.426-.587c-.964-.362-1.865-.862-2.791-1.308-.467-.215-.906-.483-1.35-.743l-1.331-.778c-.858-.563-1.712-1.138-2.546-1.737l-1.213-.952a15.008,15.008,0,0,1-1.185-.985c-.76-.692-1.547-1.355-2.241-2.115l-1.073-1.107-1-1.174c-.687-.766-1.284-1.6-1.892-2.432l-.457-.62-.415-.65-.828-1.3c-.537-.875-1-1.8-1.5-2.693.017-.041.076-.041.107-.071,0-.04-.031-.081-.045-.121l-.11-.243-.214-.488q-.21-.49-.406-.986-.391-.992-.725-2.005c-.447-1.35-.825-2.722-1.159-4.13a38.336,38.336,0,0,1-.97-7.019c-.027-.591-.044-1.182-.045-1.773s.038-1.182.056-1.773a31.259,31.259,0,0,1,.28-3.535,38.621,38.621,0,0,1,4.366-13.42c.566-1.038,1.178-2.052,1.838-3.034.327-.493.69-.961,1.032-1.444s.695-.959,1.072-1.415a39.73,39.73,0,0,1,4.931-5.1,45.28,45.28,0,0,1,5.913-4.141,28.724,28.724,0,0,1,6.593-3.006v0a20.039,20.039,0,0,1,4.233-1.43,31.324,31.324,0,0,1,4.479-.634,45.035,45.035,0,0,1,4.6-.108l2.3.1c.772.047,1.528.177,2.3.262l1.147.145,1.134.237c.754.171,1.521.285,2.264.5l2.226.656c.742.219,1.449.539,2.176.8l1.082.419,1.047.5,1.047.5a10.047,10.047,0,0,1,1.03.533l2.009,1.163c.657.407,1.281.868,1.922,1.3.314.225.648.425.946.672l.9.73c.594.5,1.226.947,1.77,1.5l1.688,1.594,1.56,1.719c.542.555.98,1.2,1.464,1.8l.712.917c.241.3.434.64.653.958.419.65.868,1.282,1.263,1.947l1.125,2.031a9.878,9.878,0,0,1,.514,1.039l.481,1.056.481,1.056.4,1.089c.257.73.545,1.449.777,2.187s.431,1.486.612,2.239a38.472,38.472,0,0,1,.806,4.569,36.954,36.954,0,0,1,.229,4.634A39.139,39.139,0,0,1,2251.8,1862.682Zm.739-12.984a37.158,37.158,0,0,0-.9-4.542c-.208-.743-.437-1.479-.693-2.205-.255-.707-.567-1.434-.86-2.145l-.456-1.068-.531-1.017a21.69,21.69,0,0,0-1.1-2l-1.253-1.914c-.436-.623-.923-1.211-1.379-1.814-.238-.3-.448-.609-.706-.887l-.761-.841a21.806,21.806,0,0,0-1.6-1.6l-1.672-1.5-1.776-1.36a17.153,17.153,0,0,0-1.857-1.224l-.94-.58c-.309-.2-.653-.344-.975-.519-.659-.328-1.294-.684-1.957-.984-.673-.285-1.348-.555-2.02-.817a8.867,8.867,0,0,0-1.026-.348l-1.033-.313-1.023-.312-1.047-.229c-.7-.141-1.375-.329-2.081-.405l-2.092-.239c-.69-.08-1.4-.056-2.084-.091l-1.029-.033-1.033.056c-.686.048-1.36.049-2.035.13l-2.007.281a37.672,37.672,0,0,0-4.086.816,22.382,22.382,0,0,0-3.554,1.215,14.441,14.441,0,0,0-2.805,1.633l-.268.2-2.858.446,2.475-.4c-.712.443-1.434.9-2.146,1.425s-1.423,1.1-2.127,1.721-1.418,1.26-2.123,1.949l-.265.259-.091.089c.027-.02-.073.056.06-.042l-.04.039-.161.154c-.1.1-.231.217-.307.3l-.179.209c-.262.3-.582.651-.857.987-.562.69-1.126,1.373-1.652,2.091s-1.021,1.458-1.485,2.215l-.171.286-.085.143-.027.044c-.15.2.2-.261.146-.185l-.056.1-.449.771-.468.757-.234.379-.051.083c.121-.172-.281.4.27-.382l-.055.1-.11.193-.11.193-.055.1-.028.059-.111.233-.272.56c-.182.385-.356.773-.519,1.165-.336.779-.6,1.586-.887,2.372-.27.783-.516,1.621-.706,2.379l-.115.413-.054.238-.134.588c-.09.4-.166.81-.237,1.217-.146.813-.271,1.629-.35,2.452l-.1,1.236-.017.31a.352.352,0,0,0,.012.1c.043-.81.046-.217.046-.38l-.026.055-.031.222-.023.887-.021.887-.005.443.009.222.03.028c-.006.446.068-.592.068-.466l-.06.055-.059.111.025,1.3c.027.844.1,1.673.193,2.488s.208,1.616.364,2.4c0,0,.313,2.68.319,2.7l-.314-2.686c.117.561.222,1.11.345,1.64s.249,1.045.386,1.542.265.983.411,1.449l.223.687.116.335.06.165s.015.041.026.072l.919,3.076.118,1.369a11.28,11.28,0,0,1-2.084,6.829c-.243.338-.365.487-.567.732-.186.22-.381.434-.583.64s-.412.4-.627.591l-.345.289c-.193.155-.392.305-.595.447l-.307.209-.164.107-.312.193-.292.171-.172.1-.3.175-.281.181-.043.116a.569.569,0,0,1,0-.1c.09-.046.262-.2.871-.544.245-.139.485-.288.718-.445l.3-.207.363-.273c.238-.187.469-.384.69-.588a11.3,11.3,0,0,0,1.455-1.635,11.055,11.055,0,0,0,.643-.988,11.2,11.2,0,0,0,1.5-5.118c.024-1.047,0-.289,0-.518l-1.188-5.051c.311.665.567,1.37.893,2.039l.5,1,.25.5.29.48c.383.644.758,1.3,1.18,1.93l.615.967.686.919c.435.641.96,1.2,1.457,1.8.243.307.5.6.772.877l.8.869c.558.551,1.137,1.09,1.725,1.632l.925.757a10.735,10.735,0,0,0,.938.764c.653.467,1.288,1,1.991,1.409l1.041.666c.353.214.721.393,1.081.607s.724.425,1.1.613l1.141.537a25.2,25.2,0,0,0,2.363.978l.606.233.618.185,1.25.379c.841.247,1.7.392,2.573.6.954.177,1.825.318,2.545.415.363.047.7.087.995.108l.427.03.051.017s.025.031.038.031c-1.2,0,1.641-.279,1.354-.233l.012-.027a5.272,5.272,0,0,1,1.638.242,5.338,5.338,0,0,1,1.136.519q.152.094.3.2c.1.071.2.153.213.161s.175.148.174.152l-.156-.121-.143-.1-.208-.138-.26-.153a4.816,4.816,0,0,0-.435-.213,5.016,5.016,0,0,0-.5-.182,4.932,4.932,0,0,0-.819-.182,5.03,5.03,0,0,0-.877-.04,4.989,4.989,0,0,0-3.32,1.442q-.153.151-.295.318a4.879,4.879,0,0,0-.483.684,4.522,4.522,0,0,0-.337.707c-.044.117-.082.233-.115.354l-.033.127-.018.074-.027.142a.889.889,0,0,0-.011.11s4.975-4.424,4.978-4.424c-.054,0,.125.1-.12.1,0,0,.006.1.042.1l.049.006.1.013.2.026.39.051.439.086c.381.041.774.068,1.18.079s.826,0,1.255-.03.868-.075,1.315-.133a22.826,22.826,0,0,0,2.757-.546q.7-.184,1.421-.393l.72-.216.363-.112.224-.069c-.067.034.152-.078-.145.076l-.031.018a3.128,3.128,0,0,0-.592.433l-.134.132-.08.088-.12.146-.083.113-.046.069-.062.1c-.05.088-.039.073.033-.043l.08-.121.058-.082.092-.121.135-.159.086-.091.118-.115a3.145,3.145,0,0,1,.34-.274,3.188,3.188,0,0,1,.65-.351l.031-.012,1.156-.216-1.245.258,1.768-.526c.578-.215,1.166-.427,1.74-.676.562-.271,1.143-.52,1.7-.815.549-.311,1.123-.6,1.665-.933s1.1-.667,1.621-1.045,1.049-.758,1.54-1.182,1.013-.822,1.479-1.278.974-.882,1.417-1.367l.683-.715a7.728,7.728,0,0,0,.657-.742c.408-.518.857-1.011,1.235-1.555s.807-1.059,1.16-1.623.755-1.1,1.081-1.685.708-1.141.988-1.749.619-1.192.877-1.812.566-1.223.781-1.86l.344-.949.173-.475.025-.067c.018-.036-.038.069.056-.1.262-.161.4.129.338.049a.263.263,0,0,1,.028.083s.006.03.006.037c-.009-.013.017.02-.031-.06.118,0-.262-.149-.33.015a.065.065,0,0,0-.017.044l.023-.237.019-.1s.174.107.178.107h-.032s.033-.115-.055-.077c-.111.092-.078.087-.082.1,0-.022,0-.079,0-.114a.49.49,0,0,1,.058-.221l.134-.231a4.913,4.913,0,0,0,.234-.46,3.144,3.144,0,0,0,.267-.981l-.1-.012c.328-1.363.516-2.739.714-4.129a33.784,33.784,0,0,0,.306-4.2A36.169,36.169,0,0,0,2252.538,1849.7Z" transform="translate(-2175.338 -1815.454)" fill="#0bf"/>
      </g>
    </g>
    <g id="Group_3548" data-name="Group 3548" transform="translate(2868.046 1169.071)">
      <path id="Path_12541" data-name="Path 12541" d="M3489.388,823.112a44.5,44.5,0,0,0-61.863-1.053c-.373.337-.739.693-1.1,1.053a45.034,45.034,0,0,0-9.749,14.638,44.75,44.75,0,0,0-.89,31.33,44.119,44.119,0,0,0,5.337,10.622,44.994,44.994,0,0,0,11.192,11.343q1.572,1.1,3.2,2.049a43.874,43.874,0,0,0,10.523,4.423,44.573,44.573,0,0,0,53.727-27.7c.314-.873.605-1.746.855-2.625a44.472,44.472,0,0,0,1.8-12.944c0-1.176-.059-2.351-.169-3.521a44.37,44.37,0,0,0-12.869-27.617Z" transform="translate(-3413.38 -810.071)" fill="#ff6373"/>
      <path id="Path_12542" data-name="Path 12542" d="M3413.381,905.9a44.406,44.406,0,0,0,.584,7.219,14.116,14.116,0,0,1,3.918-.691c4.84,0,24.578,15.985,30.5,15.985,3.753,0,7.325-3.449,11.564-3.449,9.062,0,11.145,12.766,15.195,22a44.75,44.75,0,0,0,22.783-21.524,10.629,10.629,0,0,0-1.473-.1c-3.375,0-6.848,1.276-10.338,1.276-4.963,0-4.058-4.725-8.849-4.725-1.58,0-3.2.535-4.8.535-7.572,0-2.963-10.2-11.556-10.2-4.881,0-8.75,6.206-13.713,6.206-5.358,0-6.889-8.371-11.292-10.256-9.614-4.124-15.631-13.45-19.195-19.2A44.341,44.341,0,0,0,3413.381,905.9Z" transform="translate(-3413.381 -861.363)" fill="#ff9263"/>
      <path id="Path_12543" data-name="Path 12543" d="M3479.761,823.231c24.257,16.009,49.724,23.87,64.35,27.722a43.875,43.875,0,0,0-4.313-10.569c-20.1-.642-38.851-10.8-57.576-18.4C3481.382,822.375,3480.56,822.787,3479.761,823.231Z" transform="translate(-3456.532 -817.813)" fill="#ff9263"/>
      <path id="Path_12544" data-name="Path 12544" d="M3443.184,850.419c22.018,18.907,49.123,32.908,77.857,36.883a46.23,46.23,0,0,0,.766-8.394,45.763,45.763,0,0,0-.659-7.818h-.749c-24.866,0-58.243-15.649-74.845-23.419C3444.724,848.5,3443.933,849.513,3443.184,850.419Z" transform="translate(-3432.755 -834.514)" fill="#ff9263"/>
      <path id="Path_12545" data-name="Path 12545" d="M3431.517,1002.844a44.421,44.421,0,0,0,2.922,4.272c28.315,10.61,31.731,13.153,33.731,17.293.5.025,1.012.033,1.523.033a43.822,43.822,0,0,0,8.3-.782C3468.2,1009.643,3449.263,1005.585,3431.517,1002.844Z" transform="translate(-3425.17 -935.388)" fill="#ff9263"/>
      <g id="Group_3547" data-name="Group 3547" transform="translate(0.008 0.005)" opacity="0.5" style="mix-blend-mode: multiply;isolation: isolate">
        <path id="Path_12546" data-name="Path 12546" d="M3489.962,823.695c.369.38.907.953,1.581,1.724a44.308,44.308,0,0,1,9.967,20.1c.274,1.3.488,2.663.646,4.069a42.7,42.7,0,0,1,.282,4.354,44.847,44.847,0,0,1-.844,9.354,39.425,39.425,0,0,1-1.266,4.853,40.512,40.512,0,0,1-1.848,4.867,44.559,44.559,0,0,1-5.7,9.309,41.7,41.7,0,0,1-3.846,4.214l-1.06.99c-.357.328-.7.675-1.087.971l-1.138.926-.571.465a6.609,6.609,0,0,1-.588.446,43.951,43.951,0,0,1-10.54,5.81,45.041,45.041,0,0,1-24.848,2.1A44.507,44.507,0,0,1,3416,869.669a47.376,47.376,0,0,1-1.731-6.237,44.842,44.842,0,0,1,2.1-24.848,44.549,44.549,0,0,1,9.6-14.991c.333-.348.679-.681,1.027-1.011l.518-.5.535-.474c.716-.627,1.407-1.274,2.16-1.837a44.24,44.24,0,0,1,28.371-9.684c.747.009,1.483.063,2.21.091s1.439.133,2.144.194a39.1,39.1,0,0,1,4.07.636,44.414,44.414,0,0,1,20.1,9.966c.773.673,1.343,1.214,1.724,1.581l.573.562Zm-1.135-1.135c-.383-.365-.956-.9-1.732-1.571s-1.757-1.467-2.961-2.335a39.753,39.753,0,0,0-4.3-2.729,42.137,42.137,0,0,0-12.893-4.565,36.422,36.422,0,0,0-4.046-.518c-.7-.035-1.429-.117-2.144-.116s-1.438-.028-2.172-.011l-2.235.1c-.751.074-1.512.143-2.277.232l-2.307.377-2.327.512a42.872,42.872,0,0,0-9.29,3.5,42.241,42.241,0,0,0-8.6,5.995c-.685.576-1.306,1.234-1.951,1.868l-.467.467-.49.525-.492.527c-.067.068.022-.019-.009.015l-.06.068-.12.135-.231.265a41.447,41.447,0,0,0-3.308,4.395c-.253.386-.5.779-.738,1.175l-.372.62c-.136.223-.231.4-.347.6-.457.808-.89,1.638-1.3,2.481a41.777,41.777,0,0,0-2.08,5.235l-.24.731-.119.365-.088.33-.357,1.316c-.207.924-.44,1.851-.59,2.8a38.612,38.612,0,0,0-.609,5.712,45.441,45.441,0,0,0,.148,5.774,48.336,48.336,0,0,0,.933,5.723,42.94,42.94,0,0,0,1.724,5.573c.333.863.718,1.786,1.127,2.658s.853,1.746,1.327,2.594.979,1.678,1.514,2.488c.264.4.54.818.808,1.2l.434.612.431.583c.584.779,1.2,1.534,1.841,2.268q.482.549.983,1.083l.507.528.5.5.547.537.523.5q.532.5,1.083.984,1.1.963,2.264,1.84a45.665,45.665,0,0,0,4.9,3.177,39.039,39.039,0,0,0,5.268,2.453c.906.342,1.82.67,2.746.955l.086.027c-.25-.064-.013,0-.043-.01l.2.052.391.1.781.21.781.21c.251.064.542.156.749.187l1.342.268c.45.089.883.2,1.375.249l1.434.211c.239.034.478.076.717.1l.721.058c.961.077,1.922.18,2.885.167l1.443.027,1.439-.052a40.872,40.872,0,0,0,11.231-1.987c.458-.124.895-.3,1.335-.47l1.322-.5c.45-.147.865-.366,1.3-.549l1.286-.572c.847-.4,1.656-.865,2.486-1.291.813-.454,1.584-.97,2.378-1.449a5.812,5.812,0,0,0,.576-.385l.562-.4,1.123-.806c.384-.257.723-.565,1.078-.854l1.057-.875a39.52,39.52,0,0,0,3.886-3.781,42.6,42.6,0,0,0,5.989-8.6c.387-.761.756-1.525,1.093-2.3l.251-.578.031-.072s.037-.1.015-.025l.058-.152.115-.3.456-1.2.227-.6.113-.3c.013-.034-.006.029.014-.033l.025-.075.051-.15c.139-.406.261-.791.381-1.173.238-.777.458-1.557.651-2.334a40.888,40.888,0,0,0,1.232-9.145,41.836,41.836,0,0,0-.123-4.308,38.337,38.337,0,0,0-.521-4.045,41.7,41.7,0,0,0-1.937-7.151,45.346,45.346,0,0,0-2.619-5.743,42.606,42.606,0,0,0-5.062-7.265c-.67-.775-1.2-1.35-1.571-1.732l-.558-.578S3489.211,822.924,3488.828,822.56Z" transform="translate(-3413.401 -810.084)" fill="#ff6373"/>
      </g>
    </g>
  </g>
</svg>
