<?xml version="1.0" encoding="utf-8"?>
<!-- Generator: Adobe Illustrator 16.0.0, SVG Export Plug-In . SVG Version: 6.00 Build 0)  -->
<!DOCTYPE svg PUBLIC "-//W3C//DTD SVG 1.1//EN" "http://www.w3.org/Graphics/SVG/1.1/DTD/svg11.dtd">
<svg version="1.1" id="Layer_1" xmlns="http://www.w3.org/2000/svg" xmlns:xlink="http://www.w3.org/1999/xlink" x="0px" y="0px"
	 width="479.203px" height="488.5px" viewBox="0 0 479.203 488.5" enable-background="new 0 0 479.203 488.5" xml:space="preserve">
<g id="Analysis" transform="translate(1321.4 28957.4)">
	<g id="Group_5531" transform="translate(8.6 8.6)">
		<g id="Group_5529">
			<circle id="Ellipse_1924" fill="#382B73" cx="-1090.398" cy="-28726.398" r="239.602"/>
		</g>
		<g id="Group_5530" transform="translate(32.31 32.31)">
			<circle id="Ellipse_1925" fill="#473080" cx="-1122.709" cy="-28758.709" r="207.291"/>
		</g>
	</g>
	<path id="Path_15951" fill="#382B73" d="M-929.688-28638.293c0.283-0.418,0.54-0.846,0.781-1.281l0.012-0.018
		c0.247-0.447,0.47-0.9,0.672-1.367l0,0l0,0c2.773-6.32,1.389-13.695-3.489-18.578l-20.858-20.857v-82.801
		c0.001-4.756-3.854-8.613-8.611-8.613c0,0-0.001,0-0.002,0h-7.758c-5.635-48.885-49.831-83.945-98.716-78.313
		c-41.128,4.742-73.572,37.186-78.312,78.313h-42.026c-4.756,0-8.612,3.857-8.613,8.613v6.281h-33.488c-3.701,0-6.7,3-6.7,6.699
		v81.143c0,3.701,3,6.701,6.7,6.701h33.488v44.299c0,4.758,3.856,8.613,8.613,8.613l0,0h88.532
		c-0.012,4.439-0.592,8.859-1.726,13.152c-0.357,1.361-0.787,2.711-1.252,4.053c-0.094,0.27-0.187,0.541-0.285,0.811
		c-0.5,1.357-1.031,2.709-1.641,4.039l-0.367,0.799h-2.886c-2.688,0-4.866,2.18-4.866,4.867s2.179,4.867,4.866,4.867l0,0h66.067
		c2.688,0,4.865-2.18,4.865-4.867s-2.178-4.867-4.865-4.867h-2.887l-0.367-0.799c-0.611-1.332-1.148-2.684-1.643-4.043
		c-0.1-0.268-0.191-0.535-0.283-0.799c-0.466-1.344-0.895-2.701-1.254-4.061l0,0c-1.135-4.291-1.715-8.711-1.727-13.15h88.532
		c4.757,0,8.613-3.855,8.613-8.613l0,0v-5.449l0,0v-10.035c6.625,4.232,15.304,3.283,20.858-2.281
		c0.389-0.389,0.753-0.793,1.094-1.209c0.257-0.311,0.485-0.637,0.716-0.961
		C-929.832-28638.102-929.755-28638.195-929.688-28638.293z"/>
	<g id="Group_5541" transform="translate(93.205 101.167)">
		<g id="Group_5532" transform="translate(40.186 78.971)">
			<path id="Path_15952" fill="#BCBEC0" d="M-1094.576-28803.641h-226.811c-4.757,0-8.613-3.857-8.613-8.613l0,0v-138.242
				c0-4.758,3.856-8.613,8.613-8.613h226.811c4.757,0,8.612,3.855,8.613,8.613v138.242c0.001,4.754-3.854,8.611-8.609,8.613
				C-1094.573-28803.641-1094.574-28803.641-1094.576-28803.641z"/>
			<path id="Path_15953" fill="#FFFFFF" d="M-1094.576-28810.533h-226.811c-4.757,0-8.613-3.855-8.613-8.611l0,0v-138.242
				c0-4.758,3.856-8.613,8.613-8.613h226.811c4.757,0,8.612,3.855,8.613,8.613v138.242c0.002,4.754-3.852,8.609-8.607,8.611
				C-1094.572-28810.533-1094.574-28810.533-1094.576-28810.533z"/>
			<path id="Path_15954" fill="#D1D3D4" d="M-1177.835-28780.787h-60.292l0.367-0.799c3.702-7.967,5.352-16.734,4.8-25.5h49.963
				c-0.552,8.766,1.099,17.533,4.8,25.5L-1177.835-28780.787z"/>
			<path id="Path_15955" fill="#E6E7E8" d="M-1181.383-28790.492h-53.2c-0.801,3.055-1.865,6.031-3.181,8.9l-0.367,0.801h60.292
				l-0.367-0.801C-1179.518-28784.461-1180.581-28787.439-1181.383-28790.492z"/>
			<path id="Path_15956" fill="#FFFFFF" d="M-1174.95-28771.055h-66.065c-2.687,0-4.865-2.178-4.866-4.865l0,0
				c0-2.688,2.179-4.865,4.866-4.865h66.065c2.688,0,4.866,2.178,4.866,4.865l0,0
				C-1170.084-28773.232-1172.263-28771.055-1174.95-28771.055z"/>
			<path id="Path_15957" fill="#1CAEE4" d="M-1094.576-28966h-226.811c-4.757,0-8.613,3.855-8.613,8.613v116.275h244.038v-116.275
				C-1085.963-28962.145-1089.819-28966-1094.576-28966z"/>
			<path id="Path_15958" fill="#009ADD" d="M-1096.587-28957.387h-222.791c-1.903,0-3.446,1.543-3.446,3.445v100.775
				c0,1.902,1.543,3.445,3.446,3.445h222.791c1.903,0,3.446-1.543,3.446-3.445l0,0v-100.775
				C-1093.142-28955.844-1094.685-28957.387-1096.587-28957.387z"/>
			<circle id="Ellipse_1926" fill="#1CAEE4" cx="-1207.982" cy="-28827.328" r="6.245"/>
		</g>
		<path id="Path_15959" fill="#BCBEC0" d="M-1045.775-28762.139h-23.976l21.125,21.125c0.865,0.861,1.821,1.627,2.852,2.281
			L-1045.775-28762.139z"/>
		<path id="Path_15960" fill="#136DA0" d="M-1045.775-28785.582l-9.408-9.406c-2.13-2.123-5.492-2.371-7.91-0.582l-16.899-16.898
			c14.786-19.238,21.086-43.676,17.443-67.664h-176.22c-7.397,48.652,26.047,94.09,74.701,101.488
			c23.997,3.648,48.444-2.652,67.69-17.441l16.9,16.898c-1.805,2.414-1.557,5.787,0.582,7.91l9.141,9.141h23.977v-23.445H-1045.775z
			"/>
		<g id="Group_5537" transform="translate(90.124)">
			<g id="Group_5534">
				<circle id="Ellipse_1927" fill="#FEDE3A" cx="-1240.787" cy="-28876.789" r="63.083"/>
				<path id="Path_15961" fill="#E7AD27" d="M-1285.393-28914.012c24.627-24.635,64.562-24.643,89.197-0.016
					c10.935,10.93,17.474,25.496,18.375,40.93c2.052-34.773-24.476-64.629-59.25-66.68c-34.774-2.051-64.627,24.475-66.679,59.25
					c-0.146,2.473-0.146,4.955,0,7.43C-1302.87-28888.529-1296.335-28903.094-1285.393-28914.012z"/>
				<g id="Group_5533" transform="translate(0.09 0.085)">
					
						<rect id="Rectangle_1114" x="-1186.31" y="-28816.373" transform="matrix(-0.7071 -0.7071 0.7071 -0.7071 18372.6191 -49999.5)" fill="#FFFFFF" width="35.055" height="23.166"/>
					
						<rect id="Rectangle_1115" x="-1177.871" y="-28816.279" transform="matrix(-0.7071 0.7071 -0.7071 -0.7071 -22369.3398 -48331.8203)" fill="#D1D3D4" width="6.096" height="35.055"/>
					<path id="Path_15962" fill="#EF5A9D" d="M-1177.855-28939.896c-34.806-34.807-91.236-34.807-126.042,0
						c-34.806,34.805-34.806,91.236,0,126.041s91.236,34.805,126.042,0c34.806-34.803,34.807-91.232,0.003-126.039
						C-1177.853-28939.895-1177.854-28939.896-1177.855-28939.896z M-1285.483-28832.273c-24.636-24.635-24.636-64.578,0-89.215
						c24.636-24.635,64.578-24.635,89.214,0c24.636,24.637,24.636,64.578,0,89.215l0,0c-24.635,24.637-64.577,24.637-89.212,0.002
						C-1285.482-28832.271-1285.483-28832.273-1285.483-28832.273z"/>
					<path id="Path_15963" fill="#EF5A9D" d="M-1138.842-28751.133l-30.265-30.266c-2.378-2.383-2.378-6.24,0-8.621l15.088-15.088
						c2.382-2.379,6.239-2.379,8.621,0l30.265,30.264c6.548,6.547,6.548,17.162,0.002,23.709c-0.001,0-0.001,0-0.002,0.002l0,0
						C-1121.68-28744.588-1132.295-28744.588-1138.842-28751.133z"/>
					<path id="Path_15964" fill="#E43D91" d="M-1130.219-28759.758l-30.265-30.264c-2.378-2.381-2.378-6.24,0-8.621l-8.621,8.621
						c-2.378,2.381-2.378,6.24,0,8.621l30.266,30.264c6.524,6.549,17.122,6.566,23.669,0.043c1.492-1.488,2.689-3.242,3.53-5.174
						C-1117.961-28753.492-1125.337-28754.877-1130.219-28759.758z"/>
					<path id="Path_15965" fill="#E43D91" d="M-1187.654-28930.098c-29.394-29.395-77.049-29.395-106.442,0
						c-29.393,29.393-29.393,77.049,0,106.441c29.393,29.395,77.049,29.395,106.442,0l0,0
						C-1158.261-28853.049-1158.261-28900.705-1187.654-28930.098z M-1285.483-28832.271c-24.636-24.635-24.636-64.578,0-89.213
						c24.636-24.637,64.578-24.637,89.214,0c24.636,24.635,24.636,64.578,0,89.213l0,0c-24.635,24.637-64.577,24.637-89.212,0.002
						C-1285.482-28832.27-1285.483-28832.27-1285.483-28832.271z"/>
				</g>
			</g>
			<g id="Group_5535" transform="translate(31.09 78.569)">
				<path id="Path_15966" fill="#E7AD27" d="M-1236.728-28954.643l-37.485,37.486c-4.057,4.053-10.631,4.053-14.688,0
					l-16.034-16.035l-16.636,16.637c-3.444-4.352-6.28-9.152-8.428-14.27l17.719-17.719c4.065-4.053,10.644-4.053,14.709,0
					l16.015,16.016l33.471-33.473l5.68,5.68L-1236.728-28954.643z"/>
			</g>
			<path id="Path_15967" fill="#E7AD27" d="M-1201.69-28849.238l-41.814-41.816c-1.486-1.488-1.486-3.898,0.002-5.387
				c0.714-0.713,1.682-1.113,2.691-1.113h41.816c2.104,0,3.809,1.705,3.809,3.809l0,0v41.816c-0.002,2.104-1.709,3.809-3.813,3.807
				C-1200.008-28848.125-1200.976-28848.525-1201.69-28849.238z"/>
			<g id="Group_5536" transform="translate(28.963 70.543)">
				<path id="Path_15968" fill="#1CAEE4" d="M-1234.605-28954.643l-37.485,37.484c-4.057,4.053-10.631,4.053-14.688,0
					l-16.026-16.033l-19.987,19.988c-1.51-2.336-2.864-4.77-4.054-7.285c-1.253-2.652-2.306-5.396-3.151-8.207l19.846-19.846
					c4.065-4.053,10.644-4.053,14.709,0l16.014,16.014l33.473-33.473l5.679,5.68L-1234.605-28954.643z"/>
			</g>
			<path id="Path_15969" fill="#009ADD" d="M-1205.638-28884.1l-37.485,37.484c-4.057,4.053-10.631,4.053-14.688,0l-16.034-16.033
				l-19.987,19.988c-1.51-2.336-2.864-4.77-4.054-7.285l22.375-22.375c0.927-0.924,2.425-0.924,3.351,0l20.028,20.029
				c0.915,0.92,2.402,0.924,3.322,0.008c0.003-0.002,0.006-0.006,0.008-0.008l37.485-37.484L-1205.638-28884.1z"/>
			
				<rect id="Rectangle_1116" x="-1234.208" y="-28888.322" transform="matrix(-0.7071 0.7071 -0.7071 -0.7071 -22505.4922 -48438.5078)" fill="#136DA0" width="26.812" height="16.054"/>
			<path id="Path_15970" fill="#1CAEE4" d="M-1201.69-28857.266l-41.814-41.816c-1.486-1.488-1.486-3.898,0.002-5.385
				c0.714-0.715,1.682-1.115,2.691-1.115h41.816c2.104,0,3.809,1.705,3.809,3.809l0,0v41.816c-0.002,2.105-1.709,3.809-3.813,3.807
				C-1200.008-28856.15-1200.976-28856.553-1201.69-28857.266z"/>
			<path id="Path_15971" fill="#009ADD" d="M-1201.69-28869.141l-36.443-36.443h-2.68c-2.104,0-3.808,1.705-3.808,3.809
				c0,1.01,0.401,1.979,1.114,2.691l41.814,41.816c1.487,1.486,3.898,1.486,5.385-0.002c0.714-0.715,1.115-1.682,1.115-2.691
				v-11.871c0,2.102-1.704,3.807-3.807,3.807C-1200.008-28868.025-1200.976-28868.426-1201.69-28869.141z"/>
		</g>
		<path id="Path_15972" fill="#136DA0" d="M-1289.814-28769.563h33.488c3.701,0,6.7-3,6.7-6.699v-81.152c0-3.699-3-6.699-6.7-6.699
			h-33.488V-28769.563z"/>
		<g id="Group_5540" transform="translate(0 93.865)">
			<g id="Group_5539">
				<path id="Path_15973" fill="#FFFFFF" d="M-1256.326-28871.453h-66.976c-3.701,0-6.7-3-6.7-6.699v-81.152
					c0-3.701,3-6.701,6.7-6.701h66.976c3.701,0,6.7,3,6.7,6.701v81.152C-1249.626-28874.453-1252.625-28871.453-1256.326-28871.453
					L-1256.326-28871.453z"/>
				<g id="Group_5538" transform="translate(10.27 60.081)">
					<path id="Path_15974" fill="#D1D3D4" d="M-1273.822-28958.691h-52.524c-2.017,0-3.653-1.635-3.654-3.652
						c0-0.002,0-0.002,0-0.002l0,0c0-2.018,1.635-3.654,3.652-3.654c0.001,0,0.001,0,0.002,0h52.524
						c2.017,0,3.653,1.635,3.654,3.652c0,0,0,0,0,0.002l0,0c0,2.018-1.634,3.652-3.652,3.654
						C-1273.821-28958.691-1273.821-28958.691-1273.822-28958.691z"/>
					<path id="Path_15975" fill="#D1D3D4" d="M-1273.822-28945.461h-52.524c-2.017,0-3.653-1.633-3.654-3.652c0,0,0,0,0,0l0,0
						c0-2.02,1.635-3.654,3.652-3.656c0.001,0,0.001,0,0.002,0h52.524c2.017,0,3.653,1.637,3.654,3.652c0,0.002,0,0.002,0,0.004l0,0
						c0,2.016-1.634,3.652-3.652,3.652C-1273.821-28945.461-1273.821-28945.461-1273.822-28945.461z"/>
				</g>
			</g>
			<circle id="Ellipse_1928" fill="#1CAEE4" cx="-1289.814" cy="-28935.143" r="23.077"/>
			<path id="Path_15976" fill="#FEDE3A" d="M-1267.088-28939.021c-0.958-5.643-3.983-10.727-8.486-14.26l-14.242,18.141
				L-1267.088-28939.021z"/>
			<path id="Path_15977" fill="#EF5A9D" d="M-1267.088-28939.018L-1267.088-28939.018l-22.726,3.875l-5.972,22.27
				c12.228,3.363,24.866-3.822,28.229-16.051c0.904-3.287,1.065-6.734,0.471-10.092L-1267.088-28939.018z"/>
		</g>
	</g>
</g>
</svg>
