<svg xmlns="http://www.w3.org/2000/svg" xmlns:xlink="http://www.w3.org/1999/xlink" width="1148" height="1485" viewBox="0 0 1148 1485">
  <defs>
    <filter id="Rectangle" x="0" y="0" width="1148" height="1485" filterUnits="userSpaceOnUse">
      <feOffset dx="20" input="SourceAlpha"/>
      <feGaussianBlur stdDeviation="20" result="blur"/>
      <feFlood flood-opacity="0.153"/>
      <feComposite operator="in" in2="blur"/>
      <feComposite in="SourceGraphic"/>
    </filter>
  </defs>
  <g id="Group_5424" data-name="Group 5424" transform="translate(-406.5 -21586.5)">
    <g id="Group_3826" data-name="Group 3826" transform="translate(0 -526)">
      <g id="Pricing_Personal" data-name="Pricing Personal" transform="translate(377.492 22131.502)">
        <g transform="matrix(1, 0, 0, 1, 29.01, -19)" filter="url(#Rectangle)">
          <rect id="Rectangle-2" data-name="Rectangle" width="1027" height="1364" rx="49" transform="translate(40.5 60.5)" fill="#fff" stroke="#979797" stroke-miterlimit="10" stroke-width="1"/>
        </g>
        <path id="Rectangle-3" data-name="Rectangle" d="M49,0H978c27.062,0,49,18.338,49,55.479V195.873c-2.153,0-1028.157,1.485-1027,0V55.479C.007,17.027,21.938,0,49,0Z" transform="translate(69.508 41.498)" fill="#bd10e0" stroke="#979797" stroke-width="1"/>
      </g>
    </g>
    <g id="Group_4057" data-name="Group 4057" transform="translate(0 0.006)">
      <g id="Group_3825" data-name="Group 3825" transform="translate(-3 -367.342)">
        <g id="Group_3824" data-name="Group 3824">
          <text id="Hundreds_of_Ready-Made_Video_Templates" data-name="Hundreds of Ready-Made Video Templates" transform="translate(591 22251)" fill="#233d63" stroke="#707070" stroke-width="1" font-size="36" font-family="Poppins-BoldItalic, Poppins" font-weight="700" font-style="italic"><tspan x="0" y="38">HUNDREDS OF READY-MADE VIDEO TEMPLATES</tspan></text>
          <g id="Group_3801" data-name="Group 3801" transform="translate(-136.18 22653.127)">
            <path id="Path_13441" data-name="Path 13441" d="M682.743-376.638c-.449,10.826-5.267,19.028-14.811,24.295a26.712,26.712,0,0,1-15.019,3.145,27.505,27.505,0,0,1-24.965-21.216c-2.133-9.447.2-17.856,6.77-24.994a26.147,26.147,0,0,1,14.815-8.182,27.277,27.277,0,0,1,24.293,6.833,26.674,26.674,0,0,1,8.316,14.6A30.043,30.043,0,0,1,682.743-376.638Z" transform="translate(0 0)" fill="#3c9840" stroke="#707070" stroke-width="1"/>
            <path id="Path_13442" data-name="Path 13442" d="M785.865-233.122c.817-1.193,1.624-2.372,2.43-3.551q4.874-7.128,9.75-14.255a2.128,2.128,0,0,1,3.008-.6c.842.541,1.668,1.106,2.5,1.669a2.121,2.121,0,0,1,.585,3.1q-5.605,8.2-11.213,16.389-1.9,2.781-3.8,5.565a3.047,3.047,0,0,1-2.083,1.47,3.1,3.1,0,0,1-2.694-.925c-1.652-1.593-3.268-3.224-4.9-4.84-1.325-1.312-2.655-2.617-3.974-3.935a2.141,2.141,0,0,1,0-3.293c.661-.667,1.34-1.317,2.009-1.977a2.147,2.147,0,0,1,3.134-.012q2.5,2.467,4.993,4.942C785.679-233.295,785.759-233.223,785.865-233.122Z" transform="translate(-133.872 -138.141)" fill="#fefefe" stroke="#707070" stroke-width="1"/>
          </g>
        </g>
        <g id="Group_3823" data-name="Group 3823">
          <text id="Award_Winning_Text-to-Speech" data-name="Award Winning Text-to-Speech" transform="translate(591 22339)" fill="#233d63" stroke="#707070" stroke-width="1" font-size="36" font-family="Poppins-BoldItalic, Poppins" font-weight="700" font-style="italic"><tspan x="0" y="38">AWARD WINNING TEXT-TO-SPEECH</tspan></text>
          <g id="Group_3802" data-name="Group 3802" transform="translate(-136.18 22745.127)">
            <path id="Path_13441-2" data-name="Path 13441" d="M682.743-376.638c-.449,10.826-5.267,19.028-14.811,24.295a26.712,26.712,0,0,1-15.019,3.145,27.505,27.505,0,0,1-24.965-21.216c-2.133-9.447.2-17.856,6.77-24.994a26.147,26.147,0,0,1,14.815-8.182,27.277,27.277,0,0,1,24.293,6.833,26.674,26.674,0,0,1,8.316,14.6A30.043,30.043,0,0,1,682.743-376.638Z" transform="translate(0 0)" fill="#3c9840" stroke="#707070" stroke-width="1"/>
            <path id="Path_13442-2" data-name="Path 13442" d="M785.865-233.122c.817-1.193,1.624-2.372,2.43-3.551q4.874-7.128,9.75-14.255a2.128,2.128,0,0,1,3.008-.6c.842.541,1.668,1.106,2.5,1.669a2.121,2.121,0,0,1,.585,3.1q-5.605,8.2-11.213,16.389-1.9,2.781-3.8,5.565a3.047,3.047,0,0,1-2.083,1.47,3.1,3.1,0,0,1-2.694-.925c-1.652-1.593-3.268-3.224-4.9-4.84-1.325-1.312-2.655-2.617-3.974-3.935a2.141,2.141,0,0,1,0-3.293c.661-.667,1.34-1.317,2.009-1.977a2.147,2.147,0,0,1,3.134-.012q2.5,2.467,4.993,4.942C785.679-233.295,785.759-233.223,785.865-233.122Z" transform="translate(-133.872 -138.141)" fill="#fefefe" stroke="#707070" stroke-width="1"/>
          </g>
        </g>
        <g id="Group_3822" data-name="Group 3822" transform="translate(0 -1)">
          <text id="Step-By-Step_Training" data-name="Step-By-Step Training" transform="translate(591 22433)" fill="#233d63" stroke="#707070" stroke-width="1" font-size="36" font-family="Poppins-BoldItalic, Poppins" font-weight="700" font-style="italic"><tspan x="0" y="38">STEP-BY-STEP TRAINING</tspan></text>
          <g id="Group_3803" data-name="Group 3803" transform="translate(-136.18 22839.127)">
            <path id="Path_13441-3" data-name="Path 13441" d="M682.743-376.638c-.449,10.826-5.267,19.028-14.811,24.295a26.712,26.712,0,0,1-15.019,3.145,27.505,27.505,0,0,1-24.965-21.216c-2.133-9.447.2-17.856,6.77-24.994a26.147,26.147,0,0,1,14.815-8.182,27.277,27.277,0,0,1,24.293,6.833,26.674,26.674,0,0,1,8.316,14.6A30.043,30.043,0,0,1,682.743-376.638Z" transform="translate(0 0)" fill="#3c9840" stroke="#707070" stroke-width="1"/>
            <path id="Path_13442-3" data-name="Path 13442" d="M785.865-233.122c.817-1.193,1.624-2.372,2.43-3.551q4.874-7.128,9.75-14.255a2.128,2.128,0,0,1,3.008-.6c.842.541,1.668,1.106,2.5,1.669a2.121,2.121,0,0,1,.585,3.1q-5.605,8.2-11.213,16.389-1.9,2.781-3.8,5.565a3.047,3.047,0,0,1-2.083,1.47,3.1,3.1,0,0,1-2.694-.925c-1.652-1.593-3.268-3.224-4.9-4.84-1.325-1.312-2.655-2.617-3.974-3.935a2.141,2.141,0,0,1,0-3.293c.661-.667,1.34-1.317,2.009-1.977a2.147,2.147,0,0,1,3.134-.012q2.5,2.467,4.993,4.942C785.679-233.295,785.759-233.223,785.865-233.122Z" transform="translate(-133.872 -138.141)" fill="#fefefe" stroke="#707070" stroke-width="1"/>
          </g>
        </g>
        <g id="Group_3821" data-name="Group 3821">
          <text id="Sell_The_Videos" data-name="Sell The Videos" transform="translate(591 22526)" fill="#233d63" stroke="#707070" stroke-width="1" font-size="36" font-family="Poppins-BoldItalic, Poppins" font-weight="700" font-style="italic"><tspan x="0" y="38">SELL THE VIDEOS</tspan></text>
          <g id="Group_3804" data-name="Group 3804" transform="translate(-136.18 22932.127)">
            <path id="Path_13441-4" data-name="Path 13441" d="M682.743-376.638c-.449,10.826-5.267,19.028-14.811,24.295a26.712,26.712,0,0,1-15.019,3.145,27.505,27.505,0,0,1-24.965-21.216c-2.133-9.447.2-17.856,6.77-24.994a26.147,26.147,0,0,1,14.815-8.182,27.277,27.277,0,0,1,24.293,6.833,26.674,26.674,0,0,1,8.316,14.6A30.043,30.043,0,0,1,682.743-376.638Z" transform="translate(0 0)" fill="#3c9840" stroke="#707070" stroke-width="1"/>
            <path id="Path_13442-4" data-name="Path 13442" d="M785.865-233.122c.817-1.193,1.624-2.372,2.43-3.551q4.874-7.128,9.75-14.255a2.128,2.128,0,0,1,3.008-.6c.842.541,1.668,1.106,2.5,1.669a2.121,2.121,0,0,1,.585,3.1q-5.605,8.2-11.213,16.389-1.9,2.781-3.8,5.565a3.047,3.047,0,0,1-2.083,1.47,3.1,3.1,0,0,1-2.694-.925c-1.652-1.593-3.268-3.224-4.9-4.84-1.325-1.312-2.655-2.617-3.974-3.935a2.141,2.141,0,0,1,0-3.293c.661-.667,1.34-1.317,2.009-1.977a2.147,2.147,0,0,1,3.134-.012q2.5,2.467,4.993,4.942C785.679-233.295,785.759-233.223,785.865-233.122Z" transform="translate(-133.872 -138.141)" fill="#fefefe" stroke="#707070" stroke-width="1"/>
          </g>
        </g>
        <g id="Group_3820" data-name="Group 3820" transform="translate(0 -5)">
          <text id="From_Scratch_Custom_Video_Editor" data-name="From Scratch Custom Video Editor" transform="translate(591 22624)" fill="#233d63" stroke="#707070" stroke-width="1" font-size="36" font-family="Poppins-BoldItalic, Poppins" font-weight="700" font-style="italic"><tspan x="0" y="38">FROM SCRATCH CUSTOM VIDEO EDITOR</tspan></text>
          <g id="Group_3805" data-name="Group 3805" transform="translate(-136.18 23030.127)">
            <path id="Path_13441-5" data-name="Path 13441" d="M682.743-376.638c-.449,10.826-5.267,19.028-14.811,24.295a26.712,26.712,0,0,1-15.019,3.145,27.505,27.505,0,0,1-24.965-21.216c-2.133-9.447.2-17.856,6.77-24.994a26.147,26.147,0,0,1,14.815-8.182,27.277,27.277,0,0,1,24.293,6.833,26.674,26.674,0,0,1,8.316,14.6A30.043,30.043,0,0,1,682.743-376.638Z" transform="translate(0 0)" fill="#3c9840" stroke="#707070" stroke-width="1"/>
            <path id="Path_13442-5" data-name="Path 13442" d="M785.865-233.122c.817-1.193,1.624-2.372,2.43-3.551q4.874-7.128,9.75-14.255a2.128,2.128,0,0,1,3.008-.6c.842.541,1.668,1.106,2.5,1.669a2.121,2.121,0,0,1,.585,3.1q-5.605,8.2-11.213,16.389-1.9,2.781-3.8,5.565a3.047,3.047,0,0,1-2.083,1.47,3.1,3.1,0,0,1-2.694-.925c-1.652-1.593-3.268-3.224-4.9-4.84-1.325-1.312-2.655-2.617-3.974-3.935a2.141,2.141,0,0,1,0-3.293c.661-.667,1.34-1.317,2.009-1.977a2.147,2.147,0,0,1,3.134-.012q2.5,2.467,4.993,4.942C785.679-233.295,785.759-233.223,785.865-233.122Z" transform="translate(-133.872 -138.141)" fill="#fefefe" stroke="#707070" stroke-width="1"/>
          </g>
        </g>
        <g id="Group_3819" data-name="Group 3819">
          <text id="Unlimited_Video_Renders" data-name="Unlimited Video Renders" transform="translate(591 22713)" fill="#233d63" stroke="#707070" stroke-width="1" font-size="36" font-family="Poppins-BoldItalic, Poppins" font-weight="700" font-style="italic"><tspan x="0" y="38">UNLIMITED VIDEO RENDERS</tspan></text>
          <g id="Group_3806" data-name="Group 3806" transform="translate(-136.18 23118.127)">
            <path id="Path_13441-6" data-name="Path 13441" d="M682.743-376.638c-.449,10.826-5.267,19.028-14.811,24.295a26.712,26.712,0,0,1-15.019,3.145,27.505,27.505,0,0,1-24.965-21.216c-2.133-9.447.2-17.856,6.77-24.994a26.147,26.147,0,0,1,14.815-8.182,27.277,27.277,0,0,1,24.293,6.833,26.674,26.674,0,0,1,8.316,14.6A30.043,30.043,0,0,1,682.743-376.638Z" transform="translate(0 0)" fill="#3c9840" stroke="#707070" stroke-width="1"/>
            <path id="Path_13442-6" data-name="Path 13442" d="M785.865-233.122c.817-1.193,1.624-2.372,2.43-3.551q4.874-7.128,9.75-14.255a2.128,2.128,0,0,1,3.008-.6c.842.541,1.668,1.106,2.5,1.669a2.121,2.121,0,0,1,.585,3.1q-5.605,8.2-11.213,16.389-1.9,2.781-3.8,5.565a3.047,3.047,0,0,1-2.083,1.47,3.1,3.1,0,0,1-2.694-.925c-1.652-1.593-3.268-3.224-4.9-4.84-1.325-1.312-2.655-2.617-3.974-3.935a2.141,2.141,0,0,1,0-3.293c.661-.667,1.34-1.317,2.009-1.977a2.147,2.147,0,0,1,3.134-.012q2.5,2.467,4.993,4.942C785.679-233.295,785.759-233.223,785.865-233.122Z" transform="translate(-133.872 -138.141)" fill="#fefefe" stroke="#707070" stroke-width="1"/>
          </g>
        </g>
        <g id="Group_3818" data-name="Group 3818" transform="translate(0 -1)">
          <text id="_1080P_HD_Videos" data-name="1080P HD Videos" transform="translate(591 22807)" fill="#233d63" stroke="#707070" stroke-width="1" font-size="36" font-family="Poppins-BoldItalic, Poppins" font-weight="700" font-style="italic"><tspan x="0" y="38">1080P HD VIDEOS</tspan></text>
          <g id="Group_3807" data-name="Group 3807" transform="translate(-136.18 23213.127)">
            <path id="Path_13441-7" data-name="Path 13441" d="M682.743-376.638c-.449,10.826-5.267,19.028-14.811,24.295a26.712,26.712,0,0,1-15.019,3.145,27.505,27.505,0,0,1-24.965-21.216c-2.133-9.447.2-17.856,6.77-24.994a26.147,26.147,0,0,1,14.815-8.182,27.277,27.277,0,0,1,24.293,6.833,26.674,26.674,0,0,1,8.316,14.6A30.043,30.043,0,0,1,682.743-376.638Z" transform="translate(0 0)" fill="#3c9840" stroke="#707070" stroke-width="1"/>
            <path id="Path_13442-7" data-name="Path 13442" d="M785.865-233.122c.817-1.193,1.624-2.372,2.43-3.551q4.874-7.128,9.75-14.255a2.128,2.128,0,0,1,3.008-.6c.842.541,1.668,1.106,2.5,1.669a2.121,2.121,0,0,1,.585,3.1q-5.605,8.2-11.213,16.389-1.9,2.781-3.8,5.565a3.047,3.047,0,0,1-2.083,1.47,3.1,3.1,0,0,1-2.694-.925c-1.652-1.593-3.268-3.224-4.9-4.84-1.325-1.312-2.655-2.617-3.974-3.935a2.141,2.141,0,0,1,0-3.293c.661-.667,1.34-1.317,2.009-1.977a2.147,2.147,0,0,1,3.134-.012q2.5,2.467,4.993,4.942C785.679-233.295,785.759-233.223,785.865-233.122Z" transform="translate(-133.872 -138.141)" fill="#fefefe" stroke="#707070" stroke-width="1"/>
          </g>
        </g>
        <g id="Group_3817" data-name="Group 3817">
          <text id="Custom_Animation_Effects" data-name="Custom Animation Effects" transform="translate(591 22899)" fill="#233d63" stroke="#707070" stroke-width="1" font-size="36" font-family="Poppins-BoldItalic, Poppins" font-weight="700" font-style="italic"><tspan x="0" y="38">CUSTOM ANIMATION EFFECTS</tspan></text>
          <g id="Group_3808" data-name="Group 3808" transform="translate(-136.18 23305.127)">
            <path id="Path_13441-8" data-name="Path 13441" d="M682.743-376.638c-.449,10.826-5.267,19.028-14.811,24.295a26.712,26.712,0,0,1-15.019,3.145,27.505,27.505,0,0,1-24.965-21.216c-2.133-9.447.2-17.856,6.77-24.994a26.147,26.147,0,0,1,14.815-8.182,27.277,27.277,0,0,1,24.293,6.833,26.674,26.674,0,0,1,8.316,14.6A30.043,30.043,0,0,1,682.743-376.638Z" transform="translate(0 0)" fill="#3c9840" stroke="#707070" stroke-width="1"/>
            <path id="Path_13442-8" data-name="Path 13442" d="M785.865-233.122c.817-1.193,1.624-2.372,2.43-3.551q4.874-7.128,9.75-14.255a2.128,2.128,0,0,1,3.008-.6c.842.541,1.668,1.106,2.5,1.669a2.121,2.121,0,0,1,.585,3.1q-5.605,8.2-11.213,16.389-1.9,2.781-3.8,5.565a3.047,3.047,0,0,1-2.083,1.47,3.1,3.1,0,0,1-2.694-.925c-1.652-1.593-3.268-3.224-4.9-4.84-1.325-1.312-2.655-2.617-3.974-3.935a2.141,2.141,0,0,1,0-3.293c.661-.667,1.34-1.317,2.009-1.977a2.147,2.147,0,0,1,3.134-.012q2.5,2.467,4.993,4.942C785.679-233.295,785.759-233.223,785.865-233.122Z" transform="translate(-133.872 -138.141)" fill="#fefefe" stroke="#707070" stroke-width="1"/>
          </g>
        </g>
        <g id="Group_3816" data-name="Group 3816" transform="translate(0 -0.996)">
          <text id="Huge_Music_Library_" data-name="Huge Music Library " transform="translate(591 22995)" fill="#233d63" stroke="#707070" stroke-width="1" font-size="36" font-family="Poppins-BoldItalic, Poppins" font-weight="700" font-style="italic"><tspan x="0" y="38">HUGE MUSIC LIBRARY </tspan></text>
          <g id="Group_3809" data-name="Group 3809" transform="translate(-136.18 23398.123)">
            <path id="Path_13441-9" data-name="Path 13441" d="M682.743-376.638c-.449,10.826-5.267,19.028-14.811,24.295a26.712,26.712,0,0,1-15.019,3.145,27.505,27.505,0,0,1-24.965-21.216c-2.133-9.447.2-17.856,6.77-24.994a26.147,26.147,0,0,1,14.815-8.182,27.277,27.277,0,0,1,24.293,6.833,26.674,26.674,0,0,1,8.316,14.6A30.043,30.043,0,0,1,682.743-376.638Z" transform="translate(0 0)" fill="#3c9840" stroke="#707070" stroke-width="1"/>
            <path id="Path_13442-9" data-name="Path 13442" d="M785.865-233.122c.817-1.193,1.624-2.372,2.43-3.551q4.874-7.128,9.75-14.255a2.128,2.128,0,0,1,3.008-.6c.842.541,1.668,1.106,2.5,1.669a2.121,2.121,0,0,1,.585,3.1q-5.605,8.2-11.213,16.389-1.9,2.781-3.8,5.565a3.047,3.047,0,0,1-2.083,1.47,3.1,3.1,0,0,1-2.694-.925c-1.652-1.593-3.268-3.224-4.9-4.84-1.325-1.312-2.655-2.617-3.974-3.935a2.141,2.141,0,0,1,0-3.293c.661-.667,1.34-1.317,2.009-1.977a2.147,2.147,0,0,1,3.134-.012q2.5,2.467,4.993,4.942C785.679-233.295,785.759-233.223,785.865-233.122Z" transform="translate(-133.872 -138.141)" fill="#fefefe" stroke="#707070" stroke-width="1"/>
          </g>
        </g>
        <g id="Group_3815" data-name="Group 3815" transform="translate(0 6)">
          <text id="Add_Sound_Record_" data-name="Add Sound/Record " transform="translate(591 23081)" fill="#233d63" stroke="#707070" stroke-width="1" font-size="36" font-family="Poppins-BoldItalic, Poppins" font-weight="700" font-style="italic"><tspan x="0" y="38">ADD SOUND/RECORD </tspan></text>
          <g id="Group_3810" data-name="Group 3810" transform="translate(-136.18 23487.127)">
            <path id="Path_13441-10" data-name="Path 13441" d="M682.743-376.638c-.449,10.826-5.267,19.028-14.811,24.295a26.712,26.712,0,0,1-15.019,3.145,27.505,27.505,0,0,1-24.965-21.216c-2.133-9.447.2-17.856,6.77-24.994a26.147,26.147,0,0,1,14.815-8.182,27.277,27.277,0,0,1,24.293,6.833,26.674,26.674,0,0,1,8.316,14.6A30.043,30.043,0,0,1,682.743-376.638Z" transform="translate(0 0)" fill="#3c9840" stroke="#707070" stroke-width="1"/>
            <path id="Path_13442-10" data-name="Path 13442" d="M785.865-233.122c.817-1.193,1.624-2.372,2.43-3.551q4.874-7.128,9.75-14.255a2.128,2.128,0,0,1,3.008-.6c.842.541,1.668,1.106,2.5,1.669a2.121,2.121,0,0,1,.585,3.1q-5.605,8.2-11.213,16.389-1.9,2.781-3.8,5.565a3.047,3.047,0,0,1-2.083,1.47,3.1,3.1,0,0,1-2.694-.925c-1.652-1.593-3.268-3.224-4.9-4.84-1.325-1.312-2.655-2.617-3.974-3.935a2.141,2.141,0,0,1,0-3.293c.661-.667,1.34-1.317,2.009-1.977a2.147,2.147,0,0,1,3.134-.012q2.5,2.467,4.993,4.942C785.679-233.295,785.759-233.223,785.865-233.122Z" transform="translate(-133.872 -138.141)" fill="#fefefe" stroke="#707070" stroke-width="1"/>
          </g>
        </g>
        <g id="Group_3814" data-name="Group 3814" transform="translate(0 1)">
          <text id="Huge_Animation_Backgrounds" data-name="Huge Animation Backgrounds" transform="translate(591 23180)" fill="#233d63" stroke="#707070" stroke-width="1" font-size="36" font-family="Poppins-BoldItalic, Poppins" font-weight="700" font-style="italic"><tspan x="0" y="38">HUGE ANIMATION BACKGROUNDS</tspan></text>
          <g id="Group_3811" data-name="Group 3811" transform="translate(-136.18 23586.127)">
            <path id="Path_13441-11" data-name="Path 13441" d="M682.743-376.638c-.449,10.826-5.267,19.028-14.811,24.295a26.712,26.712,0,0,1-15.019,3.145,27.505,27.505,0,0,1-24.965-21.216c-2.133-9.447.2-17.856,6.77-24.994a26.147,26.147,0,0,1,14.815-8.182,27.277,27.277,0,0,1,24.293,6.833,26.674,26.674,0,0,1,8.316,14.6A30.043,30.043,0,0,1,682.743-376.638Z" transform="translate(0 0)" fill="#3c9840" stroke="#707070" stroke-width="1"/>
            <path id="Path_13442-11" data-name="Path 13442" d="M785.865-233.122c.817-1.193,1.624-2.372,2.43-3.551q4.874-7.128,9.75-14.255a2.128,2.128,0,0,1,3.008-.6c.842.541,1.668,1.106,2.5,1.669a2.121,2.121,0,0,1,.585,3.1q-5.605,8.2-11.213,16.389-1.9,2.781-3.8,5.565a3.047,3.047,0,0,1-2.083,1.47,3.1,3.1,0,0,1-2.694-.925c-1.652-1.593-3.268-3.224-4.9-4.84-1.325-1.312-2.655-2.617-3.974-3.935a2.141,2.141,0,0,1,0-3.293c.661-.667,1.34-1.317,2.009-1.977a2.147,2.147,0,0,1,3.134-.012q2.5,2.467,4.993,4.942C785.679-233.295,785.759-233.223,785.865-233.122Z" transform="translate(-133.872 -138.141)" fill="#fefefe" stroke="#707070" stroke-width="1"/>
          </g>
        </g>
        <g id="Group_3813" data-name="Group 3813">
          <text id="Graphics_Library" data-name="Graphics Library" transform="translate(591 23274)" fill="#233d63" stroke="#707070" stroke-width="1" font-size="36" font-family="Poppins-BoldItalic, Poppins" font-weight="700" font-style="italic"><tspan x="0" y="38">GRAPHICS LIBRARY</tspan></text>
          <g id="Group_3812" data-name="Group 3812" transform="translate(-136.18 23680.127)">
            <path id="Path_13441-12" data-name="Path 13441" d="M682.743-376.638c-.449,10.826-5.267,19.028-14.811,24.295a26.712,26.712,0,0,1-15.019,3.145,27.505,27.505,0,0,1-24.965-21.216c-2.133-9.447.2-17.856,6.77-24.994a26.147,26.147,0,0,1,14.815-8.182,27.277,27.277,0,0,1,24.293,6.833,26.674,26.674,0,0,1,8.316,14.6A30.043,30.043,0,0,1,682.743-376.638Z" transform="translate(0 0)" fill="#3c9840" stroke="#707070" stroke-width="1"/>
            <path id="Path_13442-12" data-name="Path 13442" d="M785.865-233.122c.817-1.193,1.624-2.372,2.43-3.551q4.874-7.128,9.75-14.255a2.128,2.128,0,0,1,3.008-.6c.842.541,1.668,1.106,2.5,1.669a2.121,2.121,0,0,1,.585,3.1q-5.605,8.2-11.213,16.389-1.9,2.781-3.8,5.565a3.047,3.047,0,0,1-2.083,1.47,3.1,3.1,0,0,1-2.694-.925c-1.652-1.593-3.268-3.224-4.9-4.84-1.325-1.312-2.655-2.617-3.974-3.935a2.141,2.141,0,0,1,0-3.293c.661-.667,1.34-1.317,2.009-1.977a2.147,2.147,0,0,1,3.134-.012q2.5,2.467,4.993,4.942C785.679-233.295,785.759-233.223,785.865-233.122Z" transform="translate(-133.872 -138.141)" fill="#fefefe" stroke="#707070" stroke-width="1"/>
          </g>
        </g>
      </g>
    </g>
    <g id="Group_4060" data-name="Group 4060" transform="translate(-25.882 20809.734)">
      <path id="Path_14117" data-name="Path 14117" d="M855.57,884.277h-6.241c-5.024,0-10.048-.012-15.072,0a21.066,21.066,0,0,0-13.863,5,20.165,20.165,0,0,0-6.132,8.7.926.926,0,0,1-1.072.712c-3.548-.023-7.1-.012-10.644-.011a8.9,8.9,0,0,0-9.157,9.143q0,17.57,0,35.141a8.908,8.908,0,0,0,9.112,9.122h37.573a8.9,8.9,0,0,0,9.038-9.05q0-17.677,0-35.355a7.439,7.439,0,0,0-.247-2.118c-.153-.519-.09-.7.515-.687,1.618.042,3.238.014,4.857.014,4.381,0,8.762.009,13.144-.011.535,0,.771.109.75.7-.028.782.054,1.568.054,2.352q.006,17.535,0,35.069a27.231,27.231,0,0,1-8.15,19.921,26.76,26.76,0,0,1-19.457,8.207c-12.881.048-25.763.013-38.645.013a27.957,27.957,0,0,1-25.977-18.4,28.869,28.869,0,0,1-1.657-9.721q.017-17.642,0-35.284a27.938,27.938,0,0,1,18.758-26.588,26.42,26.42,0,0,1,8.884-1.537q19.215-.009,38.431,0a27.439,27.439,0,0,1,14.489,4.124c.182.111.359.232.537.352A1.461,1.461,0,0,1,855.57,884.277Z" transform="translate(0 0)" fill="#fed25e"/>
      <path id="Path_14118" data-name="Path 14118" d="M2234.7,973.262q0-20.212-.015-40.424c0-.642.149-.808.8-.805q8.785.042,17.572,0c.6,0,.731.141.731.733q-.027,32.068-.033,64.136c0,.723.171.882.885.881,12.762-.025,25.524-.012,38.286-.034.655,0,.8.168.8.806q-.042,7.678,0,15.356c0,.55-.149.651-.667.651q-28.857-.021-57.715.006c-.64,0-.648-.26-.648-.739Q2234.7,993.546,2234.7,973.262Z" transform="translate(-1251.705 -44.939)" fill="#fff"/>
      <path id="Path_14119" data-name="Path 14119" d="M1082.469,995.791h-.795c-5.4,0-10.81-.007-16.215.012-.538,0-.705-.109-.7-.684q.027-21.892.017-43.783a18.116,18.116,0,0,1,15.385-18,13.3,13.3,0,0,1,2.13-.182q30.573-.014,61.146-.008h.506a25.1,25.1,0,0,1-2.972,4.3,28.949,28.949,0,0,1-19.061,10.239,25.174,25.174,0,0,1-3.061.169q-14.394.018-28.787.007a10.2,10.2,0,0,0-10.535,10.125c-.11,10.26-.048,20.522-.016,30.783A10.164,10.164,0,0,0,1082.469,995.791Z" transform="translate(-248.947 -45.894)" fill="#fff"/>
      <path id="Path_14120" data-name="Path 14120" d="M1858.43,1285.319c1.007,1.135,2.007,2.276,3.021,3.4q4.477,4.976,8.964,9.942c.174.192.38.356.571.532q4.3,4.765,8.591,9.529,1.571,1.74,3.151,3.481c-.212.225-.436.127-.63.127-5.543.007-11.086,0-16.63.015a1.3,1.3,0,0,1-1.093-.491c-1.242-1.4-2.524-2.773-3.791-4.155a27.916,27.916,0,0,0-2.5-2.892c-3.109-3.482-6.256-6.928-9.391-10.387a.465.465,0,0,0-.123-.069,2.462,2.462,0,0,1-.979-.809q-4.757-5.308-9.566-10.57c-.755-.822-1.469-1.682-2.229-2.5-.2-.219-.535-.434-.378-.776s.538-.245.835-.246q7.314-.011,14.629,0a5.164,5.164,0,0,0,.854-.007,2.885,2.885,0,0,1,2.865,1.32c1.064,1.309,2.226,2.535,3.368,3.777A1.383,1.383,0,0,1,1858.43,1285.319Z" transform="translate(-909.456 -342.671)" fill="#fed25e"/>
      <path id="Path_14121" data-name="Path 14121" d="M1380.283,1407.7a22.483,22.483,0,0,0,5.383-5.205,21.42,21.42,0,0,0,3.837-8.948c.06-.335.116-.561.556-.535q15.951.952,24.267,14.589c.009.013-.008.043-.021.1Z" transform="translate(-519.39 -440.046)" fill="#fff"/>
      <path id="Path_14122" data-name="Path 14122" d="M3253.678,932.1c-.01.237-.029.474-.029.711q0,40.509,0,81.018c0,.237.019.474.029.711.046.015.066.037.059.066s-.019.048-.031.048c-.308-.269-.153-.627-.153-.938q-.012-39.3-.008-78.591c0-.785-.007-1.57,0-2.355C3253.552,932.548,3253.46,932.293,3253.678,932.1Z" transform="translate(-2124.958 -45)" fill="#fff"/>
      <path id="Path_14123" data-name="Path 14123" d="M3387.423,1349.765c.01-.285.028-.569.028-.854q0-12.444-.014-24.888c0-.655.169-.816.815-.81,3.613.033,7.227.013,10.841.021.248,0,.523-.107.745.106-3.855,0-7.71.009-11.565-.023-.632-.005-.729.221-.728.781q.024,12.456,0,24.914c0,.289.145.624-.154.867-.034-.035-.042-.064-.022-.085A.071.071,0,0,1,3387.423,1349.765Z" transform="translate(-2239.682 -380.22)" fill="#fff"/>
      <path id="Path_14124" data-name="Path 14124" d="M3584.783,1509.046h21.568c-.17.261-.434.135-.65.135q-10.088.012-20.178,0C3585.274,1509.185,3584.995,1509.277,3584.783,1509.046Z" transform="translate(-2408.894 -539.505)" fill="#fff"/>
      <path id="Path_14125" data-name="Path 14125" d="M3273.685,1509.069a.818.818,0,0,0-.027.114q-5.812.013-11.623.025c-2.448,0-4.9-.016-7.344-.025a.818.818,0,0,0-.027-.114Z" transform="translate(-2125.945 -539.524)" fill="#fff"/>
      <path id="Path_14126" data-name="Path 14126" d="M3322.74,1013.868q-8.7-14.724-17.407-29.444c-.229-.387-.43-.626.157-.964,9.385-5.4,13.982-16.68,12.683-26.679A29.275,29.275,0,0,0,3306,936.62a24.262,24.262,0,0,0-14.055-4.687c-12.476-.04-24.951-.02-37.426-.022-.1,0-.189.017-.284.025a1.781,1.781,0,0,0-.058.775q0,40.453,0,80.906a1.8,1.8,0,0,0,.057.775,1.3,1.3,0,0,0,.563.05q8.953,0,17.906,0a1.111,1.111,0,0,0,.561-.058,2.415,2.415,0,0,0,.049-.849q0-12.463-.01-24.925c0-.588.149-.757.745-.752,3.666.027,7.333.012,11,.016.208,0,.43-.062.624.078.564.936,1.133,1.869,1.692,2.808q7.022,11.806,14.041,23.614a1.109,1.109,0,0,0,.627.068q10.157,0,20.314,0a1.136,1.136,0,0,0,.627-.066A5.333,5.333,0,0,0,3322.74,1013.868Zm-23.923-53.21a11.58,11.58,0,0,1-3.831,8.876,6.2,6.2,0,0,1-3.719,1.584,1.46,1.46,0,0,1-.5.039q-8.413,0-16.827,0a1.14,1.14,0,0,1-.561-.057l0,0a1.573,1.573,0,0,1-.057-.7q0-10.442,0-20.883c0-.23-.076-.476.081-.691l-.016-.018a.8.8,0,0,1,.484-.067q8.19,0,16.379,0a1,1,0,0,1,.421.046,9.068,9.068,0,0,1,6.6,4.622,10.958,10.958,0,0,1,1.54,5.687A3.506,3.506,0,0,1,3298.817,960.657Z" transform="translate(-2125.517 -44.833)" fill="#fff"/>
      <path id="Path_14127" data-name="Path 14127" d="M3387.982,1050.247q-.009,9.567-.017,19.135c0,1.047-.006,2.094-.009,3.141-.169-.211-.089-.459-.089-.688q-.007-10.461,0-20.922C3387.869,1050.692,3387.756,1050.435,3387.982,1050.247Z" transform="translate(-2240.092 -146.262)" fill="#fff"/>
      <path id="Path_14128" data-name="Path 14128" d="M3388.675,1206.178l17.883.019a1.092,1.092,0,0,1-.627.071q-8.319,0-16.639,0C3389.085,1206.268,3388.861,1206.338,3388.675,1206.178Z" transform="translate(-2240.807 -279.913)" fill="#fff"/>
      <path id="Path_14129" data-name="Path 14129" d="M3406,1049.252l-17.285.022c.194-.2.447-.127.675-.127q7.962-.006,15.923,0C3405.548,1049.148,3405.8,1049.078,3406,1049.252Z" transform="translate(-2240.845 -145.308)" fill="#fff"/>
      <path id="Path_14130" data-name="Path 14130" d="M3566.661,1123.689q0-.785,0-1.57A2.009,2.009,0,0,1,3566.661,1123.689Z" transform="translate(-2393.362 -207.865)" fill="#fff"/>
      <path id="Path_14131" data-name="Path 14131" d="M1665.722,963.165a41.334,41.334,0,0,0-11.829-23.476c-9.911-9.884-21.934-13.756-35.679-11.3-13.533,2.416-23.308,10.22-29.536,22.4a40.262,40.262,0,0,0-3.812,25.845,41.831,41.831,0,0,0,12.746,23.918,38.88,38.88,0,0,0,28.834,10.82,41.527,41.527,0,0,0,14.148-2.982c1.608-.638,3.12-1.475,4.707-2.152.14-.289-.092-.44-.24-.609-1.627-1.862-3.3-3.685-4.961-5.515-2.095-2.306-4.148-4.649-6.283-6.918-.168-.178-.307-.389-.577-.4.015.03.029.06.046.089a15.846,15.846,0,0,1-5.2,1.355,21.139,21.139,0,0,1-11.3-1.552,20.711,20.711,0,0,1-11.11-12.117,29.7,29.7,0,0,1,1.183-24.471c2.85-5.677,7.345-9.6,13.687-10.9,12.071-2.465,20.941,4.338,24.4,13.6a29.889,29.889,0,0,1,.694,19.111,24.73,24.73,0,0,1-2.5,5.931l-.073-.08,0,.007a.72.72,0,0,0,.248.571c1.413,1.541,2.809,3.1,4.209,4.65,1.1,1.217,2.217,2.416,3.3,3.645,1.429,1.622,2.929,3.18,4.332,4.825.134.157.286.332.542.261.041-.058.076-.12.122-.174C1664.333,987.589,1667.717,976.109,1665.722,963.165Z" transform="translate(-694.173 -41.2)" fill="#fff"/>
      <path id="Path_14132" data-name="Path 14132" d="M2734.247,1013.8c-.682-1.693-1.272-3.423-1.9-5.139q-13.876-38.045-27.741-76.095a.7.7,0,0,0-.8-.551c-5.262.017-10.524.026-15.786-.009a1.007,1.007,0,0,0-1.143.805q-9.373,25.787-18.781,51.562-5.377,14.741-10.777,29.473c-.218.594-.1.694.5.693q9.107-.028,18.215,0a.706.706,0,0,0,.818-.55c1.944-5.779,3.914-11.548,5.858-17.327.149-.443.316-.623.824-.622q12.215.03,24.429,0a.7.7,0,0,1,.792.572c1.974,5.769,3.982,11.526,5.96,17.294a.791.791,0,0,0,.906.63c3.024-.025,6.048-.012,9.072-.012,3,0,6-.014,9,.011C2734.3,1014.549,2734.534,1014.517,2734.247,1013.8Zm-48.28-30.943,9.826-29.013,9.594,29.013Z" transform="translate(-1613.865 -44.92)" fill="#fff"/>
    </g>
  </g>
</svg>
