<svg xmlns="http://www.w3.org/2000/svg" width="1820" height="619.337" viewBox="0 0 1820 619.337">
  <g id="Group_3509" data-name="Group 3509" transform="translate(-774.095 -398.926)">
    <path id="Path_12484" data-name="Path 12484" d="M5607.628,744.269l4.648,1a4.211,4.211,0,0,1,3.235,3.236l1,4.648,1-4.648a4.211,4.211,0,0,1,3.236-3.236l4.648-1-4.648-1a4.211,4.211,0,0,1-3.236-3.235l-1-4.648-1,4.648a4.211,4.211,0,0,1-3.235,3.235Z" transform="translate(-3031.293 -215.004)" fill="#ffb700"/>
    <path id="Path_12485" data-name="Path 12485" d="M4999.87,1466.646l14.252,3.054a12.91,12.91,0,0,1,9.92,9.92l3.054,14.252,3.054-14.252a12.912,12.912,0,0,1,9.92-9.92l14.252-3.054-14.252-3.054a12.911,12.911,0,0,1-9.92-9.92l-3.054-14.252-3.054,14.252a12.91,12.91,0,0,1-9.92,9.92Z" transform="translate(-2635.775 -663.941)" fill="#ffb700"/>
    <path id="Path_12486" data-name="Path 12486" d="M5202.035,618.765l2.585.554a2.341,2.341,0,0,1,1.8,1.8l.554,2.585.554-2.585a2.342,2.342,0,0,1,1.8-1.8l2.584-.554-2.584-.554a2.342,2.342,0,0,1-1.8-1.8l-.554-2.585-.554,2.585a2.341,2.341,0,0,1-1.8,1.8Z" transform="translate(-2767.341 -139.853)" fill="#fff"/>
    <path id="Path_12487" data-name="Path 12487" d="M1565.2,1890.82l2.585.554a2.341,2.341,0,0,1,1.8,1.8l.554,2.585.554-2.585a2.341,2.341,0,0,1,1.8-1.8l2.585-.554-2.585-.554a2.341,2.341,0,0,1-1.8-1.8l-.554-2.585-.554,2.585a2.341,2.341,0,0,1-1.8,1.8Z" transform="translate(-514.838 -950.448)" fill="#fff"/>
    <path id="Path_12488" data-name="Path 12488" d="M1187.595,632.9l2.585.554a2.342,2.342,0,0,1,1.8,1.8l.554,2.585.554-2.585a2.341,2.341,0,0,1,1.8-1.8l2.585-.554-2.585-.554a2.341,2.341,0,0,1-1.8-1.8l-.554-2.585-.554,2.585a2.342,2.342,0,0,1-1.8,1.8Z" transform="translate(-269.098 -149.055)" fill="#fff"/>
    <path id="Path_12489" data-name="Path 12489" d="M4004.2,1435.225l4.938,1.058a4.473,4.473,0,0,1,3.437,3.437l1.058,4.938,1.058-4.938a4.474,4.474,0,0,1,3.437-3.437l4.938-1.058-4.937-1.058a4.473,4.473,0,0,1-3.437-3.437l-1.058-4.938-1.058,4.938a4.473,4.473,0,0,1-3.437,3.437Z" transform="translate(-2025.67 -656.153)" fill="#fff"/>
    <path id="Path_12490" data-name="Path 12490" d="M2301.723,478.952l11.667,2.5a10.57,10.57,0,0,1,8.121,8.121l2.5,11.667,2.5-11.667a10.569,10.569,0,0,1,8.121-8.121l11.667-2.5-11.667-2.5a10.569,10.569,0,0,1-8.121-8.121l-2.5-11.667-2.5,11.667a10.57,10.57,0,0,1-8.121,8.121Z" transform="translate(-957.45 -37.575)" fill="#ffb700"/>
    <path id="Path_12491" data-name="Path 12491" d="M3932.989,624.87l17.955,3.847a16.266,16.266,0,0,1,12.5,12.5l3.847,17.955,3.847-17.955a16.267,16.267,0,0,1,12.5-12.5l17.955-3.847-17.955-3.847a16.267,16.267,0,0,1-12.5-12.5l-3.847-17.955-3.847,17.955a16.266,16.266,0,0,1-12.5,12.5Z" transform="translate(-1978.744 -124.718)" fill="#0bf"/>
    <path id="Path_12492" data-name="Path 12492" d="M997.736,1398.3l6.035,1.293a5.468,5.468,0,0,1,4.2,4.2l1.293,6.035,1.293-6.036a5.468,5.468,0,0,1,4.2-4.2l6.035-1.293-6.035-1.293a5.466,5.466,0,0,1-4.2-4.2l-1.293-6.035-1.293,6.035a5.467,5.467,0,0,1-4.2,4.2Z" transform="translate(-145.541 -631.125)" fill="#fff"/>
    <path id="Path_12493" data-name="Path 12493" d="M4543.54,1411.6l6.035,1.293a5.468,5.468,0,0,1,4.2,4.2l1.293,6.035,1.293-6.035a5.468,5.468,0,0,1,4.2-4.2l6.035-1.293-6.035-1.293a5.468,5.468,0,0,1-4.2-4.2l-1.293-6.035-1.293,6.035a5.468,5.468,0,0,1-4.2,4.2Z" transform="translate(-2363.682 -639.62)" fill="#fff"/>
    <path id="Path_12494" data-name="Path 12494" d="M3576.209,1837.55l5.188,1.111a4.7,4.7,0,0,1,3.61,3.611l1.112,5.187,1.111-5.187a4.7,4.7,0,0,1,3.611-3.611l5.187-1.111-5.187-1.112a4.7,4.7,0,0,1-3.611-3.611l-1.111-5.187-1.112,5.188a4.7,4.7,0,0,1-3.61,3.611Z" transform="translate(-1757.231 -912.545)" fill="#ffb700"/>
    <path id="Path_12495" data-name="Path 12495" d="M2304.765,1662.678l11.111,2.381a10.065,10.065,0,0,1,7.734,7.734l2.381,11.111,2.381-11.111a10.065,10.065,0,0,1,7.734-7.734l11.111-2.381L2336.1,1660.3a10.065,10.065,0,0,1-7.734-7.734l-2.381-11.111-2.381,11.111a10.066,10.066,0,0,1-7.734,7.734Z" transform="translate(-959.404 -791.378)" fill="#fff"/>
    <path id="Path_12496" data-name="Path 12496" d="M1201.735,1568.563l15.629,3.348a14.16,14.16,0,0,1,10.879,10.879l3.348,15.628,3.349-15.629a14.159,14.159,0,0,1,10.878-10.878l15.629-3.348-15.629-3.349a14.159,14.159,0,0,1-10.878-10.878l-3.349-15.629-3.348,15.628a14.16,14.16,0,0,1-10.879,10.879Z" transform="translate(-278.3 -724.514)" fill="#fff"/>
    <path id="Path_12497" data-name="Path 12497" d="M3706.591,1503.951l11.111,2.381a10.067,10.067,0,0,1,7.734,7.734l2.381,11.111,2.381-11.111a10.066,10.066,0,0,1,7.734-7.734l11.111-2.381-11.111-2.381a10.065,10.065,0,0,1-7.734-7.734l-2.381-11.111-2.381,11.111a10.066,10.066,0,0,1-7.734,7.734Z" transform="translate(-1838.051 -691.913)" fill="#9bd900"/>
    <path id="Path_12547" data-name="Path 12547" d="M3706.591,1503.951l11.111,2.381a10.067,10.067,0,0,1,7.734,7.734l2.381,11.111,2.381-11.111a10.066,10.066,0,0,1,7.734-7.734l11.111-2.381-11.111-2.381a10.065,10.065,0,0,1-7.734-7.734l-2.381-11.111-2.381,11.111a10.066,10.066,0,0,1-7.734,7.734Z" transform="translate(-1251.051 -506.913)" fill="#9bd900"/>
    <path id="Path_12498" data-name="Path 12498" d="M4335.515,420.152l11.111,2.38a10.066,10.066,0,0,1,7.734,7.734l2.381,11.111,2.38-11.111a10.067,10.067,0,0,1,7.734-7.734l11.111-2.38-11.111-2.381a10.067,10.067,0,0,1-7.734-7.734l-2.38-11.111-2.381,11.111a10.066,10.066,0,0,1-7.734,7.734Z" transform="translate(-2232.252 0)" fill="#fff"/>
    <path id="Path_12499" data-name="Path 12499" d="M1626.856,755.332l11.111,2.381a10.065,10.065,0,0,1,7.734,7.734l2.38,11.111,2.381-11.111a10.066,10.066,0,0,1,7.734-7.734l11.111-2.381-11.111-2.381a10.066,10.066,0,0,1-7.734-7.734l-2.381-11.111-2.381,11.111a10.066,10.066,0,0,1-7.734,7.734Z" transform="translate(-554.96 -213.984)" fill="#d10f0f"/>
    <path id="Path_12500" data-name="Path 12500" d="M2137.562,1461.864l3.356.719a3.041,3.041,0,0,1,2.336,2.336l.719,3.356.719-3.356a3.041,3.041,0,0,1,2.336-2.336l3.356-.719-3.356-.719a3.04,3.04,0,0,1-2.336-2.336l-.719-3.356-.719,3.356a3.04,3.04,0,0,1-2.336,2.336Z" transform="translate(-855.176 -675.252)" fill="#fff"/>
    <path id="Path_12501" data-name="Path 12501" d="M3688.232,798.382l3.356.719a3.041,3.041,0,0,1,2.336,2.336l.719,3.356.719-3.356a3.041,3.041,0,0,1,2.336-2.336l3.356-.719-3.356-.719a3.041,3.041,0,0,1-2.336-2.336l-.719-3.356-.719,3.356a3.041,3.041,0,0,1-2.336,2.336Z" transform="translate(-1827.767 -251.204)" fill="#fff"/>
    <path id="Path_12502" data-name="Path 12502" d="M1983.7,695.2l3.356.719a3.041,3.041,0,0,1,2.336,2.336l.719,3.356.719-3.356a3.041,3.041,0,0,1,2.336-2.336l3.356-.719-3.356-.719a3.041,3.041,0,0,1-2.336-2.336l-.719-3.356-.719,3.356a3.041,3.041,0,0,1-2.336,2.336Z" transform="translate(-758.674 -185.258)" fill="#fff"/>
    <path id="Path_12503" data-name="Path 12503" d="M2967.2,1812.794l3.356.719a3.039,3.039,0,0,1,2.336,2.336l.719,3.356.719-3.356a3.04,3.04,0,0,1,2.336-2.336l3.356-.719-3.356-.719a3.04,3.04,0,0,1-2.336-2.336l-.719-3.356-.719,3.356a3.039,3.039,0,0,1-2.336,2.336Z" transform="translate(-1375.53 -898.711)" fill="#fff"/>
    <g id="Group_3506" data-name="Group 3506" transform="translate(1170.446 752.139)">
      <path id="Path_12504" data-name="Path 12504" d="M1845.86,1394.922a8.76,8.76,0,1,1,8.76-8.76A8.77,8.77,0,0,1,1845.86,1394.922Zm0-15.424a6.664,6.664,0,1,0,6.665,6.664A6.672,6.672,0,0,0,1845.86,1379.5Z" transform="translate(-1837.1 -1377.402)" fill="#fff"/>
    </g>
    <g id="Group_3507" data-name="Group 3507" transform="translate(2054.586 853.237)">
      <path id="Path_12505" data-name="Path 12505" d="M4217.109,1668.027a8.76,8.76,0,1,1,8.76-8.76A8.77,8.77,0,0,1,4217.109,1668.027Zm0-15.425a6.665,6.665,0,1,0,6.665,6.665A6.672,6.672,0,0,0,4217.109,1652.6Z" transform="translate(-4208.349 -1650.507)" fill="#fff"/>
    </g>
    <circle id="Ellipse_1762" data-name="Ellipse 1762" cx="7.712" cy="7.712" r="7.712" transform="translate(1012.895 549.202)" fill="#fff"/>
    <circle id="Ellipse_1763" data-name="Ellipse 1763" cx="7.712" cy="7.712" r="7.712" transform="translate(1230.398 855.876)" fill="#ffb700"/>
    <circle id="Ellipse_1764" data-name="Ellipse 1764" cx="7.712" cy="7.712" r="7.712" transform="translate(774.095 606.581)" fill="#0095ff"/>
    <circle id="Ellipse_1765" data-name="Ellipse 1765" cx="9.307" cy="9.307" r="9.307" transform="translate(1390.389 547.446)" fill="#fff"/>
    <circle id="Ellipse_1766" data-name="Ellipse 1766" cx="7.165" cy="7.165" r="7.165" transform="translate(1867.37 412.863)" fill="#fff"/>
    <g id="Group_3508" data-name="Group 3508" transform="translate(2266.838 509.587)">
      <path id="Path_12506" data-name="Path 12506" d="M4727.432,717.7a6.058,6.058,0,1,1,6.058-6.058A6.065,6.065,0,0,1,4727.432,717.7Zm0-10.02a3.962,3.962,0,1,0,3.962,3.962A3.967,3.967,0,0,0,4727.432,707.68Z" transform="translate(-4721.374 -705.585)" fill="#fff"/>
    </g>
    <circle id="Ellipse_1767" data-name="Ellipse 1767" cx="5.608" cy="5.608" r="5.608" transform="translate(1394.07 755.484)" fill="#fff"/>
  </g>
</svg>
