<svg xmlns="http://www.w3.org/2000/svg" xmlns:xlink="http://www.w3.org/1999/xlink" width="1820" height="448.221" viewBox="0 0 1820 448.221">
  <defs>
    <clipPath id="clip-path">
      <circle id="Ellipse_1771" data-name="Ellipse 1771" cx="86.92" cy="86.92" r="86.92" fill="none"/>
    </clipPath>
    <clipPath id="clip-path-2">
      <circle id="Ellipse_1772" data-name="Ellipse 1772" cx="86.92" cy="86.92" r="86.92" transform="translate(0 122.923) rotate(-45)" fill="none"/>
    </clipPath>
  </defs>
  <g id="Group_3751" data-name="Group 3751" transform="translate(-50 -19120.133)">
    <g id="Group_3733" data-name="Group 3733" transform="translate(969.652 19120.133)">
      <path id="Path_12983" data-name="Path 12983" d="M1609.044,701.142V942.833c0,35.052,39.5,63.467,88.224,63.467h94.2l-31.566,79.595,181.054-79.595h480.216c48.725,0,88.223-28.415,88.223-63.467V701.142c0-35.052-39.5-63.468-88.223-63.468h-723.9C1648.543,637.674,1609.044,666.09,1609.044,701.142Z" transform="translate(-1609.044 -637.674)" fill="#f50825"/>
      <path id="Path_12984" data-name="Path 12984" d="M2476.865,656.57c7.767,9.444,12.229,20.454,12.229,32.214v253.07c0,28.768-32.492,52.088-72.573,52.088H1919.34l-147.067,64.5-13,32.7,181.473-79.595h481.327c48.837,0,88.428-28.415,88.428-63.467V706.388C2510.5,686.188,2497.355,668.194,2476.865,656.57Z" transform="translate(-1610.156 -642.92)" opacity="0.1"/>
      <g id="Group_3732" data-name="Group 3732" transform="translate(53.108 37.629)">
        <g id="Group_3727" data-name="Group 3727" transform="translate(320.24 2.19)">
          <g id="Group_3718" data-name="Group 3718">
            <path id="Path_12985" data-name="Path 12985" d="M2028.466,716.929c.026-.034.052-.067.077-.1s.036-.053.053-.08.045-.069.066-.1.032-.056.047-.085.038-.072.056-.108.028-.059.041-.089.032-.074.046-.112.023-.061.033-.092.026-.077.037-.115.019-.062.027-.094.019-.079.027-.118.014-.063.019-.095.013-.082.018-.123.009-.062.012-.094.006-.086.007-.129,0-.061,0-.09c0-.046,0-.092,0-.139,0-.027,0-.055,0-.082,0-.056-.011-.112-.018-.168,0-.017,0-.035-.007-.053-.011-.074-.025-.147-.043-.22,0-.019-.011-.038-.016-.057-.013-.05-.026-.1-.042-.149l0-.013c-.008-.023-.018-.046-.026-.07-.017-.048-.035-.095-.054-.14,0-.008-.006-.016-.01-.024-.011-.027-.025-.053-.038-.079s-.026-.056-.04-.084-.031-.056-.047-.084-.039-.069-.06-.1l-.022-.034a2.711,2.711,0,0,0-2.174-1.241l0,0c-.059,0-.118-.007-.177-.007H2009.3a.008.008,0,0,1-.008-.006l-5.26-16.188c-.022-.069-.048-.136-.075-.2-.009-.022-.02-.044-.03-.066-.019-.043-.038-.086-.059-.127-.013-.025-.027-.05-.041-.075s-.04-.074-.062-.109-.033-.051-.05-.076-.043-.066-.067-.1-.038-.05-.058-.074-.046-.061-.071-.09l-.065-.071c-.025-.027-.049-.055-.075-.082s-.048-.045-.071-.067-.052-.05-.08-.074-.051-.042-.077-.063l-.084-.067-.083-.058c-.029-.02-.058-.04-.087-.059s-.058-.035-.088-.052l-.091-.051-.092-.045-.1-.044c-.031-.014-.064-.026-.1-.038l-.1-.037c-.032-.012-.066-.022-.1-.032l-.1-.028c-.034-.009-.068-.017-.1-.025l-.1-.021c-.035-.006-.07-.012-.105-.016l-.105-.013c-.035,0-.072-.006-.107-.008-.019,0-.038,0-.056,0h0c-.036,0-.07,0-.105,0a2.711,2.711,0,0,0-2.579,1.873l-5.26,16.188a.008.008,0,0,1-.008.006h-16.952a2.77,2.77,0,0,0-2.554,1.627,2.711,2.711,0,0,0,.891,3.279l13.771,10a.009.009,0,0,1,0,.009l-5.26,16.188a2.712,2.712,0,0,0,.609,2.7h0l.017.016c.042.043.086.085.131.126l.043.04c.06.052.122.1.188.15a2.712,2.712,0,0,0,3.188,0l13.771-10a.008.008,0,0,1,.009,0l13.3,9.667h0l.466.338a2.712,2.712,0,0,0,4.173-3.032l-5.26-16.188a.011.011,0,0,1,0-.009l13.771-10c.062-.045.121-.092.178-.142.019-.016.036-.034.054-.051.038-.034.074-.068.109-.1s.04-.043.06-.065.061-.066.089-.1S2028.447,716.954,2028.466,716.929Z" transform="translate(-1972.039 -693.267)" opacity="0.1"/>
            <path id="Path_12986" data-name="Path 12986" d="M2026.266,712.491a2.771,2.771,0,0,0-2.554-1.626H2006.76a.008.008,0,0,1-.008-.006l-5.26-16.188a2.711,2.711,0,0,0-5.158,0l-5.26,16.188a.008.008,0,0,1-.008.006h-16.952a2.77,2.77,0,0,0-2.554,1.626,2.712,2.712,0,0,0,.891,3.279l13.771,10a.009.009,0,0,1,0,.009l-5.26,16.188a2.712,2.712,0,0,0,4.173,3.032l13.771-10h.01l13.771,10a2.712,2.712,0,0,0,4.173-3.032l-5.26-16.188a.009.009,0,0,1,0-.009l13.77-10A2.712,2.712,0,0,0,2026.266,712.491Z" transform="translate(-1971.333 -692.797)" fill="#fdba02"/>
            <path id="Path_12987" data-name="Path 12987" d="M2026.266,712.491a2.771,2.771,0,0,0-2.554-1.626H2006.76a.008.008,0,0,1-.008-.006l-5.26-16.188a2.711,2.711,0,0,0-5.158,0l-5.26,16.188a.008.008,0,0,1-.008.006h-16.952a2.77,2.77,0,0,0-2.554,1.626,2.712,2.712,0,0,0,.891,3.279l13.771,10a.009.009,0,0,1,0,.009l-5.26,16.188a2.712,2.712,0,0,0,4.173,3.032l13.771-10h.01l13.771,10a2.712,2.712,0,0,0,4.173-3.032l-5.26-16.188a.009.009,0,0,1,0-.009l13.77-10A2.712,2.712,0,0,0,2026.266,712.491Z" transform="translate(-1971.333 -692.797)" fill="#ffcd00"/>
            <g id="Group_3717" data-name="Group 3717" transform="translate(10.238 0.002)">
              <path id="Path_12988" data-name="Path 12988" d="M2001.343,749.671l-14.14,10.274a2.7,2.7,0,0,1-1.7.516,2.708,2.708,0,0,0,3.566.334l13.776-10.008Z" transform="translate(-1985.506 -708.589)" fill="#f0a002"/>
              <path id="Path_12989" data-name="Path 12989" d="M2010.263,693.822l5.521,17.046,1.609,0-5.262-16.194a2.712,2.712,0,0,0-2.475-1.872A2.709,2.709,0,0,1,2010.263,693.822Z" transform="translate(-1992.211 -692.8)" fill="#f0a002"/>
              <path id="Path_12990" data-name="Path 12990" d="M2041.117,719.684a2.71,2.71,0,0,0-2.475-1.872,2.71,2.71,0,0,1-.378,4.054l-13.776,10.008,5.262,16.193a2.711,2.711,0,0,1-2.579,3.55c-.063,0-.128,0-.191-.007l.466.339a2.712,2.712,0,0,0,4.173-3.032l-5.262-16.194,13.775-10.008A2.71,2.71,0,0,0,2041.117,719.684Z" transform="translate(-1996.328 -699.744)" fill="#f0a002"/>
            </g>
          </g>
          <g id="Group_3720" data-name="Group 3720" transform="translate(68.974)">
            <path id="Path_12991" data-name="Path 12991" d="M2123.948,716.929c.026-.034.052-.067.076-.1s.035-.053.053-.08.045-.069.066-.1.032-.056.047-.085.038-.072.057-.108.027-.059.04-.089.032-.074.046-.112.023-.061.034-.092.025-.077.037-.115.018-.062.026-.094.02-.079.028-.118.014-.063.019-.095.012-.082.017-.123.009-.062.012-.094.006-.086.008-.129,0-.061,0-.09c0-.046,0-.092,0-.139,0-.027,0-.055,0-.082,0-.056-.011-.112-.018-.168,0-.017,0-.035-.006-.053-.011-.074-.026-.147-.043-.22-.005-.019-.012-.038-.017-.057-.013-.05-.026-.1-.042-.149l0-.013c-.008-.023-.018-.046-.026-.07-.017-.048-.034-.095-.054-.14l-.009-.024c-.012-.027-.026-.053-.038-.079s-.026-.056-.041-.084-.031-.056-.047-.084-.039-.069-.059-.1l-.022-.034a2.711,2.711,0,0,0-2.174-1.241l0,0c-.059,0-.118-.007-.178-.007h-16.952a.009.009,0,0,1-.008-.006l-5.26-16.188c-.022-.069-.048-.136-.075-.2-.009-.022-.02-.044-.03-.066-.019-.043-.038-.086-.059-.127-.013-.025-.028-.05-.042-.075s-.04-.074-.061-.109-.034-.051-.051-.076-.043-.066-.066-.1-.038-.05-.058-.074-.046-.061-.071-.09l-.064-.071c-.025-.027-.05-.055-.076-.082l-.071-.067c-.027-.025-.053-.05-.08-.074s-.051-.042-.077-.063-.055-.045-.084-.067l-.082-.058-.088-.059-.087-.052-.092-.051-.092-.045-.094-.044c-.032-.014-.064-.026-.1-.038l-.1-.037c-.033-.012-.066-.022-.1-.032l-.1-.028c-.035-.009-.069-.017-.1-.025l-.1-.021c-.035-.006-.07-.012-.105-.016l-.1-.013c-.036,0-.071-.006-.107-.008-.019,0-.038,0-.057,0h0c-.036,0-.071,0-.106,0a2.711,2.711,0,0,0-2.579,1.873l-5.26,16.188a.008.008,0,0,1-.007.006h-16.953a2.77,2.77,0,0,0-2.554,1.627,2.712,2.712,0,0,0,.891,3.279l13.771,10a.008.008,0,0,1,0,.009l-5.259,16.188a2.711,2.711,0,0,0,.608,2.7h0l.017.016c.041.043.085.085.13.126l.043.04c.06.052.123.1.188.15a2.712,2.712,0,0,0,3.188,0l13.771-10a.009.009,0,0,1,.01,0l13.3,9.667h0l.465.338a2.712,2.712,0,0,0,4.173-3.032l-5.26-16.188a.008.008,0,0,1,0-.009l13.771-10c.062-.045.121-.092.178-.142.019-.016.036-.034.055-.051.037-.034.074-.068.109-.1s.04-.043.06-.065.061-.066.089-.1S2123.929,716.954,2123.948,716.929Z" transform="translate(-2067.521 -693.267)" opacity="0.1"/>
            <path id="Path_12992" data-name="Path 12992" d="M2121.749,712.491a2.772,2.772,0,0,0-2.555-1.626h-16.952a.008.008,0,0,1-.008-.006l-5.26-16.188a2.711,2.711,0,0,0-5.158,0l-5.26,16.188a.007.007,0,0,1-.007.006H2069.6a2.771,2.771,0,0,0-2.554,1.626,2.713,2.713,0,0,0,.892,3.279l13.771,10a.008.008,0,0,1,0,.009l-5.26,16.188A2.711,2.711,0,0,0,2080.62,745l13.771-10a.008.008,0,0,1,.01,0l13.77,10a2.712,2.712,0,0,0,4.173-3.032l-5.26-16.188a.008.008,0,0,1,0-.009l13.771-10A2.712,2.712,0,0,0,2121.749,712.491Z" transform="translate(-2066.815 -692.797)" fill="#fdba02"/>
            <path id="Path_12993" data-name="Path 12993" d="M2121.749,712.491a2.772,2.772,0,0,0-2.555-1.626h-16.952a.008.008,0,0,1-.008-.006l-5.26-16.188a2.711,2.711,0,0,0-5.158,0l-5.26,16.188a.007.007,0,0,1-.007.006H2069.6a2.771,2.771,0,0,0-2.554,1.626,2.713,2.713,0,0,0,.892,3.279l13.771,10a.008.008,0,0,1,0,.009l-5.26,16.188A2.711,2.711,0,0,0,2080.62,745l13.771-10a.008.008,0,0,1,.01,0l13.77,10a2.712,2.712,0,0,0,4.173-3.032l-5.26-16.188a.008.008,0,0,1,0-.009l13.771-10A2.712,2.712,0,0,0,2121.749,712.491Z" transform="translate(-2066.815 -692.797)" fill="#ffcd00"/>
            <g id="Group_3719" data-name="Group 3719" transform="translate(10.238 0.002)">
              <path id="Path_12994" data-name="Path 12994" d="M2096.825,749.671l-14.139,10.274a2.708,2.708,0,0,1-1.7.516,2.708,2.708,0,0,0,3.566.334l13.776-10.008Z" transform="translate(-2080.988 -708.589)" fill="#f0a002"/>
              <path id="Path_12995" data-name="Path 12995" d="M2105.745,693.822l5.521,17.046,1.609,0-5.262-16.194a2.712,2.712,0,0,0-2.475-1.872A2.7,2.7,0,0,1,2105.745,693.822Z" transform="translate(-2087.693 -692.8)" fill="#f0a002"/>
              <path id="Path_12996" data-name="Path 12996" d="M2136.6,719.684a2.71,2.71,0,0,0-2.475-1.872,2.71,2.71,0,0,1-.378,4.054l-13.776,10.008,5.262,16.193a2.711,2.711,0,0,1-2.579,3.55c-.063,0-.127,0-.191-.007l.465.339a2.712,2.712,0,0,0,4.173-3.032l-5.262-16.194,13.776-10.008A2.71,2.71,0,0,0,2136.6,719.684Z" transform="translate(-2091.811 -699.744)" fill="#f0a002"/>
            </g>
          </g>
          <g id="Group_3722" data-name="Group 3722" transform="translate(137.947)">
            <path id="Path_12997" data-name="Path 12997" d="M2219.43,716.929c.026-.034.052-.067.076-.1s.035-.053.053-.08.044-.069.065-.1.032-.056.048-.085l.056-.108c.014-.03.027-.059.04-.089s.032-.074.046-.112.023-.061.034-.092.025-.077.037-.115.018-.062.027-.094.019-.079.028-.118.013-.063.019-.095.012-.082.017-.123.009-.062.011-.094.006-.086.008-.129,0-.061,0-.09c0-.046,0-.092,0-.139,0-.027,0-.055,0-.082,0-.056-.011-.112-.019-.168,0-.017,0-.035-.006-.053-.012-.074-.026-.147-.043-.22,0-.019-.011-.038-.017-.057-.013-.05-.025-.1-.042-.149l0-.013c-.008-.023-.017-.046-.026-.07-.017-.048-.034-.095-.054-.14l-.009-.024c-.011-.027-.025-.053-.038-.079s-.026-.056-.04-.084-.032-.056-.048-.084-.038-.069-.059-.1l-.022-.034a2.711,2.711,0,0,0-2.174-1.241l0,0c-.059,0-.118-.007-.178-.007h-16.952a.007.007,0,0,1-.007-.006L2195,696.363c-.022-.069-.048-.136-.074-.2-.009-.022-.021-.044-.03-.066-.02-.043-.038-.086-.059-.127-.013-.025-.028-.05-.042-.075s-.04-.074-.062-.109-.034-.051-.051-.076-.042-.066-.066-.1-.039-.05-.058-.074-.047-.061-.072-.09-.042-.048-.064-.071-.05-.055-.076-.082-.047-.045-.071-.067-.053-.05-.08-.074l-.077-.063c-.028-.022-.055-.045-.084-.067l-.083-.058-.088-.059-.087-.052-.092-.051c-.03-.016-.061-.03-.092-.045l-.094-.044-.1-.038-.1-.037c-.033-.012-.066-.022-.1-.032l-.1-.028c-.034-.009-.069-.017-.1-.025l-.1-.021c-.034-.006-.07-.012-.105-.016l-.1-.013c-.036,0-.072-.006-.108-.008-.019,0-.038,0-.056,0h0c-.035,0-.071,0-.106,0a2.712,2.712,0,0,0-2.579,1.873l-5.26,16.188a.009.009,0,0,1-.008.006h-16.952a2.771,2.771,0,0,0-2.555,1.627,2.713,2.713,0,0,0,.891,3.279l13.771,10a.008.008,0,0,1,0,.009l-5.26,16.188a2.709,2.709,0,0,0,.608,2.7h0l.018.016c.042.043.085.085.13.126l.043.04c.061.052.123.1.188.15a2.711,2.711,0,0,0,3.188,0l13.77-10a.009.009,0,0,1,.01,0l13.3,9.667h0l.466.338a2.711,2.711,0,0,0,4.172-3.032l-5.26-16.188a.008.008,0,0,1,0-.009l13.771-10c.062-.045.121-.092.178-.142.019-.016.036-.034.055-.051.037-.034.073-.068.109-.1s.04-.043.059-.065.061-.066.09-.1S2219.411,716.954,2219.43,716.929Z" transform="translate(-2163.003 -693.267)" opacity="0.1"/>
            <path id="Path_12998" data-name="Path 12998" d="M2217.23,712.491a2.771,2.771,0,0,0-2.554-1.626h-16.953a.008.008,0,0,1-.007-.006l-5.26-16.188a2.711,2.711,0,0,0-5.158,0l-5.26,16.188a.008.008,0,0,1-.008.006h-16.952a2.772,2.772,0,0,0-2.555,1.626,2.712,2.712,0,0,0,.891,3.279l13.771,10a.008.008,0,0,1,0,.009l-5.26,16.188A2.712,2.712,0,0,0,2176.1,745l13.771-10a.009.009,0,0,1,.01,0l13.771,10a2.711,2.711,0,0,0,4.172-3.032l-5.26-16.188a.008.008,0,0,1,0-.009l13.771-10A2.712,2.712,0,0,0,2217.23,712.491Z" transform="translate(-2162.297 -692.797)" fill="#fdba02"/>
            <path id="Path_12999" data-name="Path 12999" d="M2217.23,712.491a2.771,2.771,0,0,0-2.554-1.626h-16.953a.008.008,0,0,1-.007-.006l-5.26-16.188a2.711,2.711,0,0,0-5.158,0l-5.26,16.188a.008.008,0,0,1-.008.006h-16.952a2.772,2.772,0,0,0-2.555,1.626,2.712,2.712,0,0,0,.891,3.279l13.771,10a.008.008,0,0,1,0,.009l-5.26,16.188A2.712,2.712,0,0,0,2176.1,745l13.771-10a.009.009,0,0,1,.01,0l13.771,10a2.711,2.711,0,0,0,4.172-3.032l-5.26-16.188a.008.008,0,0,1,0-.009l13.771-10A2.712,2.712,0,0,0,2217.23,712.491Z" transform="translate(-2162.297 -692.797)" fill="#ffcd00"/>
            <g id="Group_3721" data-name="Group 3721" transform="translate(10.239 0.002)">
              <path id="Path_13000" data-name="Path 13000" d="M2192.308,749.671l-14.14,10.274a2.705,2.705,0,0,1-1.7.516,2.642,2.642,0,0,0,.379.334,2.71,2.71,0,0,0,3.187,0l13.776-10.008Z" transform="translate(-2176.471 -708.589)" fill="#f0a002"/>
              <path id="Path_13001" data-name="Path 13001" d="M2201.228,693.822l5.52,17.046,1.61,0-5.262-16.194a2.711,2.711,0,0,0-2.475-1.872A2.714,2.714,0,0,1,2201.228,693.822Z" transform="translate(-2183.176 -692.8)" fill="#f0a002"/>
              <path id="Path_13002" data-name="Path 13002" d="M2232.082,719.684a2.711,2.711,0,0,0-2.475-1.872,2.711,2.711,0,0,1-.379,4.054l-13.775,10.008,5.262,16.193a2.712,2.712,0,0,1-2.579,3.55c-.064,0-.128,0-.191-.007l.466.339a2.711,2.711,0,0,0,4.172-3.032l-5.262-16.194,13.775-10.008A2.71,2.71,0,0,0,2232.082,719.684Z" transform="translate(-2187.293 -699.744)" fill="#f0a002"/>
            </g>
          </g>
          <g id="Group_3724" data-name="Group 3724" transform="translate(206.921)">
            <path id="Path_13003" data-name="Path 13003" d="M2314.913,716.929c.026-.034.052-.067.076-.1s.036-.053.053-.08.045-.069.065-.1.032-.056.047-.085.039-.072.056-.108.028-.059.041-.089.032-.074.046-.112.023-.061.034-.092.025-.077.037-.115.018-.062.027-.094.019-.079.027-.118.013-.063.019-.095.012-.082.018-.123.008-.062.011-.094.006-.086.008-.129,0-.061,0-.09c0-.046,0-.092,0-.139,0-.027,0-.055,0-.082,0-.056-.011-.112-.019-.168,0-.017,0-.035-.006-.053-.012-.074-.026-.147-.043-.22,0-.019-.011-.038-.016-.057-.013-.05-.026-.1-.042-.149l-.005-.013c-.007-.023-.017-.046-.026-.07-.017-.048-.034-.095-.053-.14l-.01-.024c-.011-.027-.025-.053-.038-.079s-.026-.056-.04-.084-.031-.056-.048-.084-.038-.069-.059-.1l-.022-.034a2.712,2.712,0,0,0-2.174-1.241l0,0c-.058,0-.118-.007-.177-.007H2295.75a.008.008,0,0,1-.008-.006l-5.26-16.188c-.022-.069-.047-.136-.074-.2-.009-.022-.02-.044-.03-.066-.02-.043-.038-.086-.059-.127-.013-.025-.028-.05-.042-.075s-.04-.074-.062-.109-.033-.051-.05-.076-.043-.066-.066-.1l-.058-.074c-.024-.03-.046-.061-.071-.09l-.065-.071c-.024-.027-.049-.055-.076-.082s-.047-.045-.071-.067-.053-.05-.08-.074-.051-.042-.077-.063l-.084-.067-.083-.058c-.029-.02-.058-.04-.088-.059s-.058-.035-.088-.052l-.091-.051-.092-.045-.095-.044c-.032-.014-.063-.026-.1-.038s-.064-.025-.1-.037l-.1-.032-.1-.028c-.034-.009-.069-.017-.1-.025l-.1-.021c-.035-.006-.07-.012-.105-.016l-.1-.013c-.036,0-.072-.006-.108-.008-.019,0-.037,0-.056,0h0c-.035,0-.07,0-.106,0a2.712,2.712,0,0,0-2.579,1.873l-5.26,16.188a.008.008,0,0,1-.008.006H2263.1a2.772,2.772,0,0,0-2.555,1.627,2.713,2.713,0,0,0,.892,3.279l13.771,10a.009.009,0,0,1,0,.009l-5.26,16.188a2.713,2.713,0,0,0,.608,2.7h0l.017.016c.042.043.085.085.13.126.015.013.029.027.043.04.061.052.123.1.188.15a2.712,2.712,0,0,0,3.188,0l13.771-10a.008.008,0,0,1,.009,0l13.3,9.667h0l.466.338a2.711,2.711,0,0,0,4.172-3.032l-5.259-16.188a.009.009,0,0,1,0-.009l13.771-10c.062-.045.121-.092.177-.142.02-.016.037-.034.055-.051.037-.034.075-.068.109-.1s.04-.043.06-.065.06-.066.089-.1S2314.893,716.954,2314.913,716.929Z" transform="translate(-2258.486 -693.267)" opacity="0.1"/>
            <path id="Path_13004" data-name="Path 13004" d="M2312.713,712.491a2.77,2.77,0,0,0-2.554-1.626h-16.952a.007.007,0,0,1-.008-.006l-5.26-16.188a2.711,2.711,0,0,0-5.158,0l-5.26,16.188a.009.009,0,0,1-.008.006h-16.952a2.77,2.77,0,0,0-2.554,1.626,2.712,2.712,0,0,0,.891,3.279l13.77,10a.009.009,0,0,1,0,.009l-5.26,16.188a2.712,2.712,0,0,0,4.173,3.032l13.771-10a.008.008,0,0,1,.01,0l13.771,10a2.712,2.712,0,0,0,4.173-3.032l-5.26-16.188a.009.009,0,0,1,0-.009l13.771-10A2.711,2.711,0,0,0,2312.713,712.491Z" transform="translate(-2257.78 -692.797)" fill="#fdba02"/>
            <path id="Path_13005" data-name="Path 13005" d="M2312.713,712.491a2.77,2.77,0,0,0-2.554-1.626h-16.952a.007.007,0,0,1-.008-.006l-5.26-16.188a2.711,2.711,0,0,0-5.158,0l-5.26,16.188a.009.009,0,0,1-.008.006h-16.952a2.77,2.77,0,0,0-2.554,1.626,2.712,2.712,0,0,0,.891,3.279l13.77,10a.009.009,0,0,1,0,.009l-5.26,16.188a2.712,2.712,0,0,0,4.173,3.032l13.771-10a.008.008,0,0,1,.01,0l13.771,10a2.712,2.712,0,0,0,4.173-3.032l-5.26-16.188a.009.009,0,0,1,0-.009l13.771-10A2.711,2.711,0,0,0,2312.713,712.491Z" transform="translate(-2257.78 -692.797)" fill="#ffcd00"/>
            <g id="Group_3723" data-name="Group 3723" transform="translate(10.238 0.002)">
              <path id="Path_13006" data-name="Path 13006" d="M2287.79,749.671l-14.14,10.274a2.7,2.7,0,0,1-1.7.516,2.669,2.669,0,0,0,.379.334,2.711,2.711,0,0,0,3.188,0l13.775-10.008Z" transform="translate(-2271.953 -708.589)" fill="#f0a002"/>
              <path id="Path_13007" data-name="Path 13007" d="M2296.71,693.822l5.52,17.046,1.61,0-5.262-16.194a2.711,2.711,0,0,0-2.474-1.872A2.719,2.719,0,0,1,2296.71,693.822Z" transform="translate(-2278.658 -692.8)" fill="#f0a002"/>
              <path id="Path_13008" data-name="Path 13008" d="M2327.564,719.684a2.711,2.711,0,0,0-2.475-1.872,2.712,2.712,0,0,1-.379,4.054l-13.775,10.008,5.262,16.193a2.712,2.712,0,0,1-2.579,3.55c-.064,0-.128,0-.191-.007l.466.339a2.712,2.712,0,0,0,4.173-3.032l-5.262-16.194,13.775-10.008A2.711,2.711,0,0,0,2327.564,719.684Z" transform="translate(-2282.775 -699.744)" fill="#f0a002"/>
            </g>
          </g>
          <g id="Group_3726" data-name="Group 3726" transform="translate(275.894)">
            <path id="Path_13009" data-name="Path 13009" d="M2410.395,716.929c.026-.034.052-.067.076-.1s.036-.053.053-.08.045-.069.066-.1.032-.056.047-.085.038-.072.056-.108.027-.059.041-.089.031-.074.046-.112.023-.061.033-.092.025-.077.037-.115.019-.062.027-.094.019-.079.027-.118.014-.063.019-.095.013-.082.018-.123.009-.062.011-.094.006-.086.007-.129,0-.061,0-.09c0-.046,0-.092,0-.139,0-.027,0-.055,0-.082,0-.056-.011-.112-.018-.168,0-.017,0-.035-.006-.053-.011-.074-.025-.147-.043-.22,0-.019-.011-.038-.016-.057-.013-.05-.026-.1-.042-.149l0-.013c-.008-.023-.018-.046-.026-.07-.017-.048-.035-.095-.054-.14l-.009-.024c-.012-.027-.025-.053-.038-.079s-.026-.056-.041-.084-.031-.056-.047-.084-.039-.069-.06-.1l-.022-.034a2.71,2.71,0,0,0-2.174-1.241l0,0c-.059,0-.118-.007-.177-.007h-16.952a.008.008,0,0,1-.008-.006l-5.26-16.188c-.022-.069-.048-.136-.075-.2-.01-.022-.02-.044-.031-.066-.019-.043-.038-.086-.059-.127-.013-.025-.027-.05-.041-.075s-.04-.074-.062-.109-.033-.051-.05-.076-.043-.066-.067-.1-.038-.05-.058-.074-.046-.061-.071-.09l-.065-.071c-.024-.027-.049-.055-.075-.082s-.048-.045-.071-.067-.053-.05-.08-.074-.051-.042-.077-.063l-.084-.067-.083-.058-.087-.059c-.029-.018-.058-.035-.088-.052l-.091-.051-.093-.045-.095-.044c-.032-.014-.063-.026-.1-.038s-.064-.025-.1-.037-.066-.022-.1-.032l-.1-.028c-.034-.009-.068-.017-.1-.025l-.1-.021c-.035-.006-.07-.012-.105-.016l-.105-.013c-.035,0-.071-.006-.107-.008-.019,0-.037,0-.056,0h0c-.035,0-.07,0-.105,0a2.712,2.712,0,0,0-2.58,1.873l-5.26,16.188a.008.008,0,0,1-.008.006h-16.952a2.77,2.77,0,0,0-2.554,1.627,2.711,2.711,0,0,0,.892,3.279l13.771,10a.009.009,0,0,1,0,.009l-5.26,16.188a2.712,2.712,0,0,0,.609,2.7h0l.017.016c.042.043.085.085.131.126l.043.04c.06.052.122.1.188.15a2.712,2.712,0,0,0,3.188,0l13.771-10a.008.008,0,0,1,.009,0l13.3,9.667h0l.466.338a2.712,2.712,0,0,0,4.173-3.032l-5.26-16.188a.009.009,0,0,1,0-.009l13.771-10c.062-.045.121-.092.178-.142.019-.016.036-.034.054-.051.038-.034.074-.068.109-.1s.04-.043.06-.065.061-.066.089-.1S2410.376,716.954,2410.395,716.929Z" transform="translate(-2353.968 -693.267)" opacity="0.1"/>
            <path id="Path_13010" data-name="Path 13010" d="M2408.195,712.491a2.77,2.77,0,0,0-2.554-1.626h-16.952a.008.008,0,0,1-.008-.006l-5.26-16.188a2.711,2.711,0,0,0-5.158,0L2373,710.859a.008.008,0,0,1-.008.006h-16.952a2.771,2.771,0,0,0-2.554,1.626,2.712,2.712,0,0,0,.892,3.279l13.771,10a.01.01,0,0,1,0,.009l-5.26,16.188a2.712,2.712,0,0,0,4.173,3.032l13.771-10a.007.007,0,0,1,.009,0l13.771,10a2.712,2.712,0,0,0,4.173-3.032l-5.26-16.188a.011.011,0,0,1,0-.009l13.771-10A2.711,2.711,0,0,0,2408.195,712.491Z" transform="translate(-2353.262 -692.797)" fill="#fdba02"/>
            <path id="Path_13011" data-name="Path 13011" d="M2408.195,712.491a2.77,2.77,0,0,0-2.554-1.626h-16.952a.008.008,0,0,1-.008-.006l-5.26-16.188a2.711,2.711,0,0,0-5.158,0L2373,710.859a.008.008,0,0,1-.008.006h-16.952a2.771,2.771,0,0,0-2.554,1.626,2.712,2.712,0,0,0,.892,3.279l13.771,10a.01.01,0,0,1,0,.009l-5.26,16.188a2.712,2.712,0,0,0,4.173,3.032l13.771-10a.007.007,0,0,1,.009,0l13.771,10a2.712,2.712,0,0,0,4.173-3.032l-5.26-16.188a.011.011,0,0,1,0-.009l13.771-10A2.711,2.711,0,0,0,2408.195,712.491Z" transform="translate(-2353.262 -692.797)" fill="#ffcd00"/>
            <g id="Group_3725" data-name="Group 3725" transform="translate(10.238 0.002)">
              <path id="Path_13012" data-name="Path 13012" d="M2383.272,749.671l-14.14,10.274a2.7,2.7,0,0,1-1.7.516,2.708,2.708,0,0,0,3.566.334l13.775-10.008Z" transform="translate(-2367.435 -708.589)" fill="#f0a002"/>
              <path id="Path_13013" data-name="Path 13013" d="M2392.192,693.822l5.521,17.046,1.609,0-5.262-16.194a2.712,2.712,0,0,0-2.475-1.872A2.706,2.706,0,0,1,2392.192,693.822Z" transform="translate(-2374.14 -692.8)" fill="#f0a002"/>
              <path id="Path_13014" data-name="Path 13014" d="M2423.046,719.684a2.711,2.711,0,0,0-2.475-1.872,2.711,2.711,0,0,1-.378,4.054l-13.776,10.008,5.262,16.193a2.712,2.712,0,0,1-2.579,3.55c-.064,0-.128,0-.192-.007l.466.339a2.712,2.712,0,0,0,4.173-3.032l-5.262-16.194,13.775-10.008A2.71,2.71,0,0,0,2423.046,719.684Z" transform="translate(-2378.258 -699.744)" fill="#f0a002"/>
            </g>
          </g>
        </g>
        <g id="Group_3731" data-name="Group 3731" transform="translate(-16 56.137)">
          <g id="Group_3730" data-name="Group 3730" clip-path="url(#clip-path)">
            <g id="Group_3729" data-name="Group 3729" transform="translate(10.406 26.852)">
              <path id="Path_13023" data-name="Path 13023" d="M1816.833,741.595s16.207,6.124,15.02,31.982c-1.125,24.5-6.955,73.01-6.955,73.01l-75.032,1.886s-19.794-68.67-4.792-98.849C1761.587,716.406,1811.868,725.022,1816.833,741.595Z" transform="translate(-1708.764 -726.937)" fill="#120d09"/>
              <path id="Path_13024" data-name="Path 13024" d="M1806.869,821.207c5.34-4.833,9.34-11.814,11.921-19.647,1.563,2.149,3.936-.015,4.225-2.02-.026-3.074,5.682-17-.766-16.466l-.083.172c4.379-59.264-69.556-59.187-65.132.024-.059-.123-.1-.2-.1-.2-6.449-.517-.74,13.367-.766,16.466.29,2.008,2.669,4.175,4.232,2.011,2.581,7.838,6.583,14.823,11.926,19.658a27.242,27.242,0,0,0,34.538,0Z" transform="translate(-1712.765 -730.239)" fill="#fdbc91"/>
              <path id="Path_13025" data-name="Path 13025" d="M1813.248,857.984a25.8,25.8,0,0,1,.6-5c.041-.037.081-.077.122-.114a27.242,27.242,0,0,1-34.538,0c.041.037.079.076.121.113a26.032,26.032,0,0,1,.594,5,27.12,27.12,0,0,0,33.105,0Z" transform="translate(-1719.862 -761.899)" fill="#f2ad80"/>
              <path id="Path_13026" data-name="Path 13026" d="M1839.77,884.715c-7.074-11.616-30.558-11.95-40.677-11.881-6.51,0-8.872-6.421-8.736-12.883a27.12,27.12,0,0,1-33.105,0c.139,6.468-2.215,12.878-8.734,12.885-10.118-.069-33.6.264-40.676,11.881s-10.864,26.138-10.864,26.138h153.657S1846.844,896.332,1839.77,884.715Z" transform="translate(-1696.971 -763.865)" fill="#fdbc91"/>
              <path id="Path_13027" data-name="Path 13027" d="M1821.193,787.085s9.886-25.7-.9-36.848c0,0-3.6-13.481-23.367-16.177s-46.574,9.985-39.285,47.593l3.134,8.357s6.492-40.132,52.867-36.537C1813.643,753.472,1821.553,763.718,1821.193,787.085Z" transform="translate(-1713.474 -728.818)" fill="#120d09"/>
              <path id="Path_13028" data-name="Path 13028" d="M1871.521,917.081" transform="translate(-1745.43 -779.727)" fill="#120d09"/>
              <path id="Path_13029" data-name="Path 13029" d="M1839.761,889.171c-7.074-11.617-30.558-11.95-40.676-11.881a7.6,7.6,0,0,1-4.4-1.282c-6.8,2.078-14.014,24.536-21.054,24.535s-13.906-22.461-20.714-24.543a7.632,7.632,0,0,1-4.409,1.29c-10.118-.069-33.6.264-40.677,11.881s-10.864,26.138-10.864,26.138h153.656S1846.836,900.788,1839.761,889.171Z" transform="translate(-1696.969 -768.321)" fill="#ffbe4d"/>
              <path id="Path_13030" data-name="Path 13030" d="M1773.667,873.636l13.9,22.966h0l-8.935,9.369-13.349-29.343Z" transform="translate(-1715.934 -767.665)" fill="#fff"/>
              <path id="Path_13031" data-name="Path 13031" d="M1824.277,873.368l-13.9,22.966h0l8.935,9.369,13.349-29.343Z" transform="translate(-1728.455 -767.591)" fill="#fff"/>
            </g>
          </g>
        </g>
      </g>
    </g>
    <g id="Group_3750" data-name="Group 3750" transform="translate(50 19120.133)">
      <path id="Path_13032" data-name="Path 13032" d="M1355.406,555.027V796.719c0,35.052-39.5,63.468-88.224,63.468h-94.2l31.566,79.594L1023.5,860.186H543.282c-48.725,0-88.224-28.416-88.224-63.468V555.027c0-35.052,39.5-63.467,88.224-63.467h723.9C1315.907,491.56,1355.406,519.975,1355.406,555.027Z" transform="translate(-454.767 -491.56)" fill="#f50825"/>
      <g id="Group_3749" data-name="Group 3749" transform="translate(17.396 3.653)">
        <g id="Group_3736" data-name="Group 3736" transform="translate(0 50)">
          <g id="Group_3735" data-name="Group 3735" clip-path="url(#clip-path-2)">
            <g id="Group_3734" data-name="Group 3734" transform="translate(41.736 44.665)">
              <path id="Path_13033" data-name="Path 13033" d="M653.107,671.247c5.665-5.127,9.909-12.533,12.647-20.843,1.659,2.279,4.175-.017,4.482-2.143-.027-3.262,6.027-18.04-.812-17.469,0,0-.033.066-.089.182,4.646-62.874-73.792-62.793-69.1.025-.063-.131-.1-.207-.1-.207-6.842-.549-.785,14.182-.812,17.468.307,2.13,2.832,4.43,4.49,2.133,2.739,8.316,6.984,15.727,12.652,20.856a28.9,28.9,0,0,0,36.642,0Z" transform="translate(-553.271 -565.501)" fill="#fdbc91"/>
              <path id="Path_13034" data-name="Path 13034" d="M659.874,710.265a27.359,27.359,0,0,1,.632-5.308c.044-.04.086-.082.13-.121a28.9,28.9,0,0,1-36.642,0c.043.039.085.081.128.12a27.654,27.654,0,0,1,.631,5.306,28.77,28.77,0,0,0,35.122,0Z" transform="translate(-560.8 -599.09)" fill="#f2ad80"/>
              <path id="Path_13035" data-name="Path 13035" d="M688.011,738.624c-7.5-12.324-32.419-12.678-43.154-12.6-6.906,0-9.412-6.812-9.268-13.668a28.77,28.77,0,0,1-35.122,0c.147,6.862-2.35,13.662-9.267,13.669-10.734-.073-35.648.28-43.154,12.6s-11.525,27.73-11.525,27.73H699.538S695.517,750.948,688.011,738.624Z" transform="translate(-536.515 -601.176)" fill="#fdbc91"/>
              <path id="Path_13036" data-name="Path 13036" d="M666.668,631.9s-2.938-26.97-8.153-30.345c-2.5-1.619-6.648-1.373-10.724-.34a44.91,44.91,0,0,1-22.556.041c-4.294-1.141-8.739-1.5-11.359.606-6.29,5.062-11.505,31.753-11.505,31.753s-10.431-32.52,0-47.4c0,0,8.13-9.971,8.13-12.886v2.915s4.909-7.516,2.455-12.272c0,0,4.6,1.38,5.982,3.835,0,0,2.915-6.136,1.074-9.358,0,0,8.437,3.528,10.738,7.21s3.068-3.222,1.534-4.909c0,0,10.738.46,15.033,4.3s1.994-1.933,1.994-1.933a18.691,18.691,0,0,1,14.113,16.2l3.528-1.673S679.2,601.476,666.668,631.9Z" transform="translate(-553.51 -558.448)" fill="#4a2100"/>
              <path id="Path_13037" data-name="Path 13037" d="M688.016,742.274c-7.505-12.325-32.422-12.679-43.157-12.605a7.962,7.962,0,0,1-7.219-4.164c-19.181,10.032-35.023,2.5-39.261.066a7.961,7.961,0,0,1-7.181,4.1c-10.735-.073-35.652.281-43.158,12.606s-11.526,27.733-11.526,27.733h163.03S695.522,754.6,688.016,742.274Z" transform="translate(-536.513 -604.828)" fill="#fff"/>
              <path id="Path_13038" data-name="Path 13038" d="M647.292,732.394l-5.455,7.9,5.432,4.238,5.071-4.238Z" transform="translate(-565.754 -606.74)" fill="#bf0000"/>
              <path id="Path_13039" data-name="Path 13039" d="M637.4,773.368l6.045-35.755h5.021l5.548,35.755Z" transform="translate(-564.523 -608.189)" fill="#bf0000"/>
              <path id="Path_13040" data-name="Path 13040" d="M622.574,718.4l17.858,10.129-8.635,12.5L617.21,726.722Z" transform="translate(-558.917 -602.855)" fill="#f2f2f2"/>
              <path id="Path_13041" data-name="Path 13041" d="M667.206,718.4l-17.858,10.129,7.986,12.5,15.237-14.307Z" transform="translate(-567.839 -602.855)" fill="#f2f2f2"/>
            </g>
          </g>
        </g>
        <g id="Group_3747" data-name="Group 3747" transform="translate(497.245 38.194)">
          <g id="Group_3738" data-name="Group 3738">
            <path id="Path_13042" data-name="Path 13042" d="M874.48,573.622c.026-.034.052-.067.077-.1s.035-.053.053-.08.045-.069.066-.1.032-.056.047-.085.038-.072.056-.108.028-.059.041-.089.031-.074.046-.111.023-.061.033-.092.025-.077.037-.116.019-.062.027-.093.019-.079.027-.119.014-.063.019-.095.013-.082.018-.123.009-.062.011-.094.006-.085.007-.129,0-.06,0-.09c0-.046,0-.092,0-.139,0-.027,0-.055,0-.082,0-.056-.011-.112-.018-.168,0-.017,0-.035-.006-.053-.011-.073-.025-.147-.043-.22,0-.02-.011-.038-.016-.058-.013-.05-.026-.1-.042-.149l0-.012c-.008-.024-.018-.047-.026-.071-.017-.048-.035-.095-.054-.14,0-.008-.006-.016-.009-.024-.012-.027-.025-.053-.038-.079s-.026-.056-.04-.083-.031-.057-.047-.085-.039-.069-.06-.1l-.022-.033a2.709,2.709,0,0,0-2.174-1.242l0,0c-.059,0-.118-.007-.177-.007H855.317a.009.009,0,0,1-.008-.006l-5.26-16.188c-.022-.069-.048-.137-.075-.2-.009-.022-.02-.044-.03-.066-.019-.043-.038-.086-.059-.128-.013-.025-.027-.05-.041-.075s-.04-.074-.062-.109-.033-.051-.05-.076-.043-.067-.067-.1-.038-.05-.058-.074-.046-.06-.071-.089-.043-.048-.065-.071-.049-.055-.075-.082-.048-.045-.072-.067-.052-.05-.079-.074-.051-.042-.077-.063l-.084-.066-.083-.057c-.029-.02-.058-.04-.087-.059s-.058-.035-.088-.051-.06-.035-.091-.052-.061-.03-.092-.046-.062-.03-.095-.043-.064-.027-.1-.039l-.1-.037-.1-.032-.1-.028-.1-.025-.1-.021-.105-.016-.105-.013-.107-.008-.056,0v0c-.035,0-.07,0-.105,0a2.712,2.712,0,0,0-2.58,1.874l-5.26,16.188a.008.008,0,0,1-.008.006H822.671a2.771,2.771,0,0,0-2.554,1.627,2.711,2.711,0,0,0,.891,3.279l13.771,10a.009.009,0,0,1,0,.009l-5.26,16.188a2.711,2.711,0,0,0,.609,2.7h0l.017.016c.042.044.086.085.131.126.014.013.028.027.043.04.06.052.122.1.188.15a2.712,2.712,0,0,0,3.188,0l13.771-10a.011.011,0,0,1,.009,0l13.3,9.667h0l.466.338a2.712,2.712,0,0,0,4.173-3.031l-5.26-16.188a.009.009,0,0,1,0-.009l13.771-10c.062-.045.121-.092.178-.142.019-.016.036-.034.054-.051.038-.034.074-.067.109-.1s.04-.044.06-.066.061-.066.089-.1S874.461,573.647,874.48,573.622Z" transform="translate(-818.053 -549.96)" opacity="0.1"/>
            <path id="Path_13043" data-name="Path 13043" d="M872.28,569.185a2.77,2.77,0,0,0-2.554-1.627H852.773a.008.008,0,0,1-.008-.006l-5.26-16.188a2.711,2.711,0,0,0-5.158,0l-5.26,16.188a.008.008,0,0,1-.008.006H820.128a2.77,2.77,0,0,0-2.554,1.627,2.712,2.712,0,0,0,.891,3.279l13.771,10a.008.008,0,0,1,0,.009l-5.26,16.188a2.712,2.712,0,0,0,4.173,3.032l13.771-10a.008.008,0,0,1,.009,0l13.771,10a2.712,2.712,0,0,0,4.173-3.032l-5.26-16.188a.009.009,0,0,1,0-.009l13.77-10A2.712,2.712,0,0,0,872.28,569.185Z" transform="translate(-817.347 -549.49)" fill="#fdba02"/>
            <path id="Path_13044" data-name="Path 13044" d="M872.28,569.185a2.77,2.77,0,0,0-2.554-1.627H852.773a.008.008,0,0,1-.008-.006l-5.26-16.188a2.711,2.711,0,0,0-5.158,0l-5.26,16.188a.008.008,0,0,1-.008.006H820.128a2.77,2.77,0,0,0-2.554,1.627,2.712,2.712,0,0,0,.891,3.279l13.771,10a.008.008,0,0,1,0,.009l-5.26,16.188a2.712,2.712,0,0,0,4.173,3.032l13.771-10a.008.008,0,0,1,.009,0l13.771,10a2.712,2.712,0,0,0,4.173-3.032l-5.26-16.188a.009.009,0,0,1,0-.009l13.77-10A2.712,2.712,0,0,0,872.28,569.185Z" transform="translate(-817.347 -549.49)" fill="#ffcd00"/>
            <g id="Group_3737" data-name="Group 3737" transform="translate(10.238 0.002)">
              <path id="Path_13045" data-name="Path 13045" d="M847.357,606.364l-14.14,10.274a2.7,2.7,0,0,1-1.7.516,2.708,2.708,0,0,0,3.566.334l13.776-10.008Z" transform="translate(-831.52 -565.282)" fill="#f0a002"/>
              <path id="Path_13046" data-name="Path 13046" d="M856.277,550.515l5.521,17.046,1.609,0-5.262-16.194a2.712,2.712,0,0,0-2.475-1.872A2.716,2.716,0,0,1,856.277,550.515Z" transform="translate(-838.225 -549.493)" fill="#f0a002"/>
              <path id="Path_13047" data-name="Path 13047" d="M887.131,576.377a2.712,2.712,0,0,0-2.475-1.872,2.71,2.71,0,0,1-.379,4.054L870.5,588.567l5.262,16.193a2.711,2.711,0,0,1-2.579,3.55c-.064,0-.128,0-.192-.006l.466.338a2.712,2.712,0,0,0,4.173-3.032l-5.262-16.194,13.775-10.008A2.711,2.711,0,0,0,887.131,576.377Z" transform="translate(-842.343 -556.437)" fill="#f0a002"/>
            </g>
          </g>
          <g id="Group_3740" data-name="Group 3740" transform="translate(68.974)">
            <path id="Path_13048" data-name="Path 13048" d="M969.962,573.622c.026-.034.052-.067.077-.1s.035-.053.053-.08.045-.069.066-.1.032-.056.047-.085.038-.072.056-.108.027-.059.04-.089.032-.074.046-.111.023-.061.034-.092.025-.077.037-.116.018-.062.026-.093.02-.079.027-.119.014-.063.02-.095.012-.082.017-.123.009-.062.012-.094.006-.085.008-.129,0-.06,0-.09c0-.046,0-.092,0-.139,0-.027,0-.055,0-.082,0-.056-.011-.112-.018-.168,0-.017,0-.035-.006-.053-.011-.073-.026-.147-.043-.22-.005-.02-.011-.038-.017-.058-.013-.05-.026-.1-.042-.149l0-.012c-.008-.024-.017-.047-.026-.071-.017-.048-.035-.095-.054-.14l-.009-.024c-.012-.027-.026-.053-.038-.079s-.026-.056-.04-.083-.031-.057-.047-.085l-.059-.1-.022-.033a2.712,2.712,0,0,0-2.174-1.242l0,0c-.059,0-.119-.007-.178-.007H950.8a.008.008,0,0,1-.008-.006l-5.26-16.188c-.022-.069-.048-.137-.075-.2-.009-.022-.02-.044-.03-.066-.019-.043-.038-.086-.059-.128-.013-.025-.028-.05-.042-.075s-.04-.074-.061-.109-.034-.051-.051-.076-.043-.067-.067-.1-.038-.05-.058-.074-.046-.06-.071-.089-.043-.048-.064-.071-.05-.055-.076-.082-.047-.045-.072-.067-.052-.05-.079-.074-.051-.042-.077-.063l-.084-.066-.082-.057c-.03-.02-.058-.04-.088-.059s-.058-.035-.087-.051-.061-.035-.092-.052l-.092-.046-.095-.043c-.032-.014-.064-.027-.1-.039l-.1-.037-.1-.032-.1-.028-.1-.025-.1-.021-.105-.016-.1-.013-.108-.008-.056,0,0,0c-.035,0-.071,0-.106,0a2.711,2.711,0,0,0-2.579,1.874l-5.26,16.188a.008.008,0,0,1-.007.006H918.153a2.771,2.771,0,0,0-2.554,1.627,2.712,2.712,0,0,0,.891,3.279l13.771,10a.008.008,0,0,1,0,.009L925,600.358a2.709,2.709,0,0,0,.608,2.7h0l.017.016c.041.044.085.085.13.126.014.013.028.027.043.04.06.052.123.1.188.15a2.712,2.712,0,0,0,3.188,0l13.771-10h.009l13.3,9.667h0l.466.338a2.712,2.712,0,0,0,4.173-3.031l-5.26-16.188a.008.008,0,0,1,0-.009l13.771-10c.061-.045.121-.092.178-.142.019-.016.036-.034.055-.051.037-.034.074-.067.108-.1s.04-.044.06-.066.061-.066.089-.1S969.943,573.647,969.962,573.622Z" transform="translate(-913.535 -549.96)" opacity="0.1"/>
            <path id="Path_13049" data-name="Path 13049" d="M967.762,569.185a2.771,2.771,0,0,0-2.555-1.627H948.256a.009.009,0,0,1-.008-.006l-5.26-16.188a2.711,2.711,0,0,0-5.158,0l-5.26,16.188a.007.007,0,0,1-.008.006H915.61a2.77,2.77,0,0,0-2.554,1.627,2.712,2.712,0,0,0,.891,3.279l13.771,10a.007.007,0,0,1,0,.009l-5.26,16.188a2.711,2.711,0,0,0,4.172,3.032l13.771-10a.009.009,0,0,1,.01,0l13.77,10a2.712,2.712,0,0,0,4.173-3.032l-5.26-16.188a.007.007,0,0,1,0-.009l13.771-10A2.713,2.713,0,0,0,967.762,569.185Z" transform="translate(-912.829 -549.49)" fill="#fdba02"/>
            <path id="Path_13050" data-name="Path 13050" d="M967.762,569.185a2.771,2.771,0,0,0-2.555-1.627H948.256a.009.009,0,0,1-.008-.006l-5.26-16.188a2.711,2.711,0,0,0-5.158,0l-5.26,16.188a.007.007,0,0,1-.008.006H915.61a2.77,2.77,0,0,0-2.554,1.627,2.712,2.712,0,0,0,.891,3.279l13.771,10a.007.007,0,0,1,0,.009l-5.26,16.188a2.711,2.711,0,0,0,4.172,3.032l13.771-10a.009.009,0,0,1,.01,0l13.77,10a2.712,2.712,0,0,0,4.173-3.032l-5.26-16.188a.007.007,0,0,1,0-.009l13.771-10A2.713,2.713,0,0,0,967.762,569.185Z" transform="translate(-912.829 -549.49)" fill="#ffcd00"/>
            <g id="Group_3739" data-name="Group 3739" transform="translate(10.238 0.002)">
              <path id="Path_13051" data-name="Path 13051" d="M942.839,606.364,928.7,616.638a2.706,2.706,0,0,1-1.7.516,2.708,2.708,0,0,0,3.566.334l13.776-10.008Z" transform="translate(-927.002 -565.282)" fill="#f0a002"/>
              <path id="Path_13052" data-name="Path 13052" d="M951.759,550.515l5.521,17.046,1.609,0-5.262-16.194a2.712,2.712,0,0,0-2.475-1.872A2.706,2.706,0,0,1,951.759,550.515Z" transform="translate(-933.707 -549.493)" fill="#f0a002"/>
              <path id="Path_13053" data-name="Path 13053" d="M982.613,576.377a2.711,2.711,0,0,0-2.475-1.872,2.71,2.71,0,0,1-.378,4.054l-13.776,10.008,5.262,16.193a2.711,2.711,0,0,1-2.579,3.55q-.1,0-.191-.006l.465.338a2.712,2.712,0,0,0,4.173-3.032l-5.262-16.194,13.776-10.008A2.712,2.712,0,0,0,982.613,576.377Z" transform="translate(-937.825 -556.437)" fill="#f0a002"/>
            </g>
          </g>
          <g id="Group_3742" data-name="Group 3742" transform="translate(137.947)">
            <path id="Path_13054" data-name="Path 13054" d="M1065.444,573.622c.025-.034.051-.067.076-.1s.035-.053.053-.08.045-.069.066-.1.032-.056.047-.085.038-.072.056-.108.027-.059.04-.089.032-.074.046-.111l.034-.092c.013-.038.025-.077.037-.116s.018-.062.027-.093.019-.079.027-.119.013-.063.019-.095.012-.082.017-.123.009-.062.012-.094.006-.085.008-.129,0-.06,0-.09c0-.046,0-.092,0-.139,0-.027,0-.055,0-.082,0-.056-.011-.112-.019-.168,0-.017,0-.035-.006-.053-.012-.073-.026-.147-.043-.22-.005-.02-.012-.038-.017-.058-.013-.05-.025-.1-.042-.149l0-.012c-.008-.024-.017-.047-.026-.071-.017-.048-.035-.095-.054-.14,0-.008-.005-.016-.009-.024-.011-.027-.025-.053-.038-.079s-.026-.056-.04-.083-.032-.057-.048-.085-.038-.069-.059-.1l-.022-.033a2.711,2.711,0,0,0-2.174-1.242l0,0c-.059,0-.118-.007-.178-.007h-16.952a.007.007,0,0,1-.007-.006l-5.26-16.188c-.022-.069-.048-.137-.074-.2-.009-.022-.021-.044-.03-.066-.02-.043-.038-.086-.059-.128-.013-.025-.028-.05-.042-.075s-.04-.074-.061-.109-.034-.051-.051-.076-.043-.067-.066-.1-.039-.05-.058-.074-.047-.06-.072-.089-.043-.048-.064-.071-.05-.055-.076-.082-.047-.045-.071-.067-.053-.05-.08-.074-.051-.042-.077-.063-.055-.045-.084-.066l-.082-.057c-.029-.02-.059-.04-.088-.059s-.058-.035-.087-.051l-.092-.052c-.03-.016-.061-.03-.092-.046l-.095-.043c-.032-.014-.064-.027-.1-.039l-.1-.037-.1-.032-.1-.028-.1-.025-.1-.021-.105-.016-.1-.013-.108-.008-.056,0,0,0c-.035,0-.071,0-.106,0a2.712,2.712,0,0,0-2.579,1.874l-5.26,16.188a.007.007,0,0,1-.007.006h-16.952a2.773,2.773,0,0,0-2.555,1.627,2.712,2.712,0,0,0,.891,3.279l13.771,10a.008.008,0,0,1,0,.009l-5.26,16.188a2.709,2.709,0,0,0,.608,2.7h0l.017.016c.042.044.085.085.13.126.014.013.028.027.043.04.06.052.123.1.188.15a2.71,2.71,0,0,0,3.187,0l13.771-10a.012.012,0,0,1,.01,0l13.3,9.667h0l.466.338a2.711,2.711,0,0,0,4.172-3.031l-5.26-16.188a.008.008,0,0,1,0-.009l13.771-10c.061-.045.121-.092.178-.142.019-.016.036-.034.055-.051.037-.034.074-.067.108-.1s.041-.044.06-.066.061-.066.09-.1Z" transform="translate(-1009.017 -549.96)" opacity="0.1"/>
            <path id="Path_13055" data-name="Path 13055" d="M1063.245,569.185a2.771,2.771,0,0,0-2.555-1.627h-16.952a.008.008,0,0,1-.008-.006l-5.26-16.188a2.712,2.712,0,0,0-5.158,0l-5.26,16.188a.009.009,0,0,1-.008.006h-16.952a2.771,2.771,0,0,0-2.555,1.627,2.712,2.712,0,0,0,.891,3.279l13.771,10a.007.007,0,0,1,0,.009l-5.26,16.188a2.712,2.712,0,0,0,4.173,3.032l13.77-10a.009.009,0,0,1,.01,0l13.771,10a2.711,2.711,0,0,0,4.172-3.032l-5.26-16.188a.007.007,0,0,1,0-.009l13.771-10A2.713,2.713,0,0,0,1063.245,569.185Z" transform="translate(-1008.311 -549.49)" fill="#fdba02"/>
            <path id="Path_13056" data-name="Path 13056" d="M1063.245,569.185a2.771,2.771,0,0,0-2.555-1.627h-16.952a.008.008,0,0,1-.008-.006l-5.26-16.188a2.712,2.712,0,0,0-5.158,0l-5.26,16.188a.009.009,0,0,1-.008.006h-16.952a2.771,2.771,0,0,0-2.555,1.627,2.712,2.712,0,0,0,.891,3.279l13.771,10a.007.007,0,0,1,0,.009l-5.26,16.188a2.712,2.712,0,0,0,4.173,3.032l13.77-10a.009.009,0,0,1,.01,0l13.771,10a2.711,2.711,0,0,0,4.172-3.032l-5.26-16.188a.007.007,0,0,1,0-.009l13.771-10A2.713,2.713,0,0,0,1063.245,569.185Z" transform="translate(-1008.311 -549.49)" fill="#ffcd00"/>
            <g id="Group_3741" data-name="Group 3741" transform="translate(10.238 0.002)">
              <path id="Path_13057" data-name="Path 13057" d="M1038.322,606.364l-14.14,10.274a2.706,2.706,0,0,1-1.7.516,2.743,2.743,0,0,0,.378.334,2.713,2.713,0,0,0,3.189,0l13.775-10.008Z" transform="translate(-1022.484 -565.282)" fill="#f0a002"/>
              <path id="Path_13058" data-name="Path 13058" d="M1047.242,550.515l5.52,17.046,1.609,0-5.262-16.194a2.711,2.711,0,0,0-2.475-1.872A2.717,2.717,0,0,1,1047.242,550.515Z" transform="translate(-1029.189 -549.493)" fill="#f0a002"/>
              <path id="Path_13059" data-name="Path 13059" d="M1078.1,576.377a2.713,2.713,0,0,0-2.475-1.872,2.711,2.711,0,0,1-.379,4.054l-13.775,10.008,5.262,16.193a2.712,2.712,0,0,1-2.58,3.55q-.1,0-.191-.006l.466.338a2.711,2.711,0,0,0,4.172-3.032l-5.262-16.194,13.776-10.008A2.713,2.713,0,0,0,1078.1,576.377Z" transform="translate(-1033.307 -556.437)" fill="#f0a002"/>
            </g>
          </g>
          <g id="Group_3744" data-name="Group 3744" transform="translate(206.921)">
            <path id="Path_13060" data-name="Path 13060" d="M1160.927,573.622c.026-.034.052-.067.076-.1s.035-.053.053-.08.045-.069.066-.1.031-.056.047-.085.038-.072.056-.108.027-.059.04-.089.032-.074.046-.111.023-.061.034-.092.025-.077.037-.116.019-.062.027-.093.019-.079.027-.119.013-.063.019-.095.012-.082.018-.123.008-.062.011-.094.006-.085.008-.129,0-.06,0-.09c0-.046,0-.092,0-.139,0-.027,0-.055,0-.082,0-.056-.011-.112-.019-.168,0-.017,0-.035-.006-.053-.011-.073-.026-.147-.043-.22,0-.02-.011-.038-.016-.058-.013-.05-.026-.1-.042-.149l-.005-.012c-.008-.024-.017-.047-.026-.071-.016-.048-.034-.095-.053-.14l-.01-.024c-.011-.027-.025-.053-.038-.079s-.026-.056-.04-.083-.031-.057-.048-.085-.038-.069-.059-.1l-.022-.033a2.71,2.71,0,0,0-2.174-1.242l0,0c-.058,0-.118-.007-.177-.007h-16.953a.008.008,0,0,1-.007-.006l-5.26-16.188c-.022-.069-.047-.137-.074-.2-.009-.022-.02-.044-.03-.066-.02-.043-.038-.086-.059-.128-.013-.025-.028-.05-.042-.075s-.04-.074-.061-.109-.033-.051-.051-.076-.043-.067-.066-.1-.038-.05-.058-.074-.046-.06-.071-.089-.043-.048-.065-.071l-.075-.082c-.023-.023-.048-.045-.072-.067s-.053-.05-.08-.074-.051-.042-.077-.063-.056-.045-.085-.066-.055-.038-.082-.057-.058-.04-.088-.059-.058-.035-.087-.051l-.091-.052c-.03-.016-.061-.03-.092-.046l-.095-.043c-.032-.014-.064-.027-.1-.039l-.1-.037-.1-.032-.1-.028-.1-.025-.1-.021-.105-.016-.1-.013-.108-.008-.056,0,0,0c-.035,0-.07,0-.106,0a2.712,2.712,0,0,0-2.579,1.874l-5.26,16.188a.008.008,0,0,1-.008.006h-16.952a2.773,2.773,0,0,0-2.555,1.627,2.713,2.713,0,0,0,.891,3.279l13.771,10a.009.009,0,0,1,0,.009l-5.26,16.188a2.712,2.712,0,0,0,.608,2.7h0l.017.016c.042.044.085.085.13.126.015.013.029.027.043.04.061.052.123.1.189.15a2.712,2.712,0,0,0,3.188,0l13.771-10a.011.011,0,0,1,.009,0l13.3,9.667h0l.466.338a2.711,2.711,0,0,0,4.172-3.031l-5.26-16.188a.009.009,0,0,1,0-.009l13.771-10c.062-.045.121-.092.178-.142.02-.016.037-.034.055-.051.037-.034.074-.067.109-.1l.059-.066c.03-.033.061-.066.09-.1S1160.907,573.647,1160.927,573.622Z" transform="translate(-1104.5 -549.96)" opacity="0.1"/>
            <path id="Path_13061" data-name="Path 13061" d="M1158.727,569.185a2.769,2.769,0,0,0-2.554-1.627h-16.952a.008.008,0,0,1-.008-.006l-5.26-16.188a2.712,2.712,0,0,0-5.158,0l-5.26,16.188a.008.008,0,0,1-.008.006h-16.952a2.77,2.77,0,0,0-2.554,1.627,2.711,2.711,0,0,0,.891,3.279l13.77,10a.009.009,0,0,1,0,.009l-5.26,16.188a2.712,2.712,0,0,0,4.173,3.032l13.771-10a.008.008,0,0,1,.009,0l13.771,10a2.712,2.712,0,0,0,4.173-3.032l-5.26-16.188a.008.008,0,0,1,0-.009l13.771-10A2.712,2.712,0,0,0,1158.727,569.185Z" transform="translate(-1103.794 -549.49)" fill="#fdba02"/>
            <path id="Path_13062" data-name="Path 13062" d="M1158.727,569.185a2.769,2.769,0,0,0-2.554-1.627h-16.952a.008.008,0,0,1-.008-.006l-5.26-16.188a2.712,2.712,0,0,0-5.158,0l-5.26,16.188a.008.008,0,0,1-.008.006h-16.952a2.77,2.77,0,0,0-2.554,1.627,2.711,2.711,0,0,0,.891,3.279l13.77,10a.009.009,0,0,1,0,.009l-5.26,16.188a2.712,2.712,0,0,0,4.173,3.032l13.771-10a.008.008,0,0,1,.009,0l13.771,10a2.712,2.712,0,0,0,4.173-3.032l-5.26-16.188a.008.008,0,0,1,0-.009l13.771-10A2.712,2.712,0,0,0,1158.727,569.185Z" transform="translate(-1103.794 -549.49)" fill="#ffcd00"/>
            <g id="Group_3743" data-name="Group 3743" transform="translate(10.238 0.002)">
              <path id="Path_13063" data-name="Path 13063" d="M1133.8,606.364l-14.14,10.274a2.7,2.7,0,0,1-1.7.516,2.653,2.653,0,0,0,.378.334,2.712,2.712,0,0,0,3.188,0l13.775-10.008Z" transform="translate(-1117.967 -565.282)" fill="#f0a002"/>
              <path id="Path_13064" data-name="Path 13064" d="M1142.724,550.515l5.52,17.046,1.609,0-5.262-16.194a2.711,2.711,0,0,0-2.475-1.872A2.715,2.715,0,0,1,1142.724,550.515Z" transform="translate(-1124.672 -549.493)" fill="#f0a002"/>
              <path id="Path_13065" data-name="Path 13065" d="M1173.578,576.377a2.712,2.712,0,0,0-2.475-1.872,2.711,2.711,0,0,1-.379,4.054l-13.775,10.008,5.262,16.193a2.712,2.712,0,0,1-2.579,3.55q-.1,0-.191-.006l.466.338a2.712,2.712,0,0,0,4.173-3.032l-5.262-16.194,13.775-10.008A2.712,2.712,0,0,0,1173.578,576.377Z" transform="translate(-1128.79 -556.437)" fill="#f0a002"/>
            </g>
          </g>
          <g id="Group_3746" data-name="Group 3746" transform="translate(275.894)">
            <path id="Path_13066" data-name="Path 13066" d="M1256.409,573.622c.026-.034.052-.067.076-.1s.036-.053.053-.08.045-.069.066-.1.032-.056.047-.085.038-.072.056-.108.027-.059.041-.089.031-.074.046-.111.023-.061.033-.092.025-.077.037-.116.019-.062.027-.093.019-.079.027-.119.014-.063.019-.095.013-.082.018-.123.009-.062.012-.094.006-.085.007-.129,0-.06,0-.09c0-.046,0-.092,0-.139,0-.027,0-.055,0-.082,0-.056-.011-.112-.018-.168,0-.017,0-.035-.006-.053-.011-.073-.025-.147-.043-.22,0-.02-.011-.038-.016-.058-.013-.05-.026-.1-.042-.149l0-.012c-.008-.024-.018-.047-.026-.071-.017-.048-.035-.095-.054-.14l-.009-.024c-.012-.027-.025-.053-.038-.079s-.026-.056-.04-.083-.031-.057-.047-.085-.039-.069-.06-.1l-.022-.033a2.71,2.71,0,0,0-2.174-1.242l0,0c-.059,0-.118-.007-.177-.007h-16.952a.008.008,0,0,1-.008-.006l-5.26-16.188c-.022-.069-.048-.137-.075-.2-.009-.022-.02-.044-.03-.066-.019-.043-.038-.086-.059-.128-.013-.025-.027-.05-.041-.075s-.041-.074-.062-.109-.033-.051-.05-.076-.043-.067-.066-.1-.038-.05-.058-.074-.046-.06-.071-.089-.043-.048-.065-.071-.049-.055-.075-.082-.048-.045-.072-.067-.053-.05-.08-.074-.051-.042-.077-.063-.056-.045-.084-.066l-.082-.057c-.029-.02-.058-.04-.088-.059s-.058-.035-.088-.051-.06-.035-.091-.052l-.093-.046c-.031-.014-.062-.03-.095-.043s-.064-.027-.1-.039-.064-.025-.1-.037l-.1-.032-.1-.028-.1-.025-.1-.021-.105-.016-.105-.013-.108-.008-.056,0v0c-.035,0-.07,0-.105,0a2.712,2.712,0,0,0-2.58,1.874l-5.26,16.188a.008.008,0,0,1-.008.006H1204.6a2.771,2.771,0,0,0-2.554,1.627,2.711,2.711,0,0,0,.891,3.279l13.771,10a.009.009,0,0,1,0,.009l-5.26,16.188a2.712,2.712,0,0,0,.608,2.7h0l.017.016c.042.044.086.085.131.126.014.013.028.027.043.04.06.052.122.1.188.15a2.712,2.712,0,0,0,3.188,0l13.771-10a.011.011,0,0,1,.009,0l13.3,9.667h0l.466.338a2.712,2.712,0,0,0,4.173-3.031l-5.26-16.188a.009.009,0,0,1,0-.009l13.771-10c.062-.045.121-.092.178-.142.02-.016.037-.034.055-.051.037-.034.074-.067.109-.1s.04-.044.06-.066.061-.066.089-.1S1256.389,573.647,1256.409,573.622Z" transform="translate(-1199.982 -549.96)" opacity="0.1"/>
            <path id="Path_13067" data-name="Path 13067" d="M1254.209,569.185a2.77,2.77,0,0,0-2.554-1.627H1234.7a.009.009,0,0,1-.008-.006l-5.26-16.188a2.711,2.711,0,0,0-5.158,0l-5.26,16.188a.008.008,0,0,1-.008.006h-16.952a2.77,2.77,0,0,0-2.554,1.627,2.712,2.712,0,0,0,.891,3.279l13.771,10a.008.008,0,0,1,0,.009l-5.26,16.188a2.712,2.712,0,0,0,4.173,3.032l13.771-10a.008.008,0,0,1,.009,0l13.771,10a2.712,2.712,0,0,0,4.173-3.032l-5.26-16.188a.01.01,0,0,1,0-.009l13.771-10A2.712,2.712,0,0,0,1254.209,569.185Z" transform="translate(-1199.276 -549.49)" fill="#fdba02"/>
            <path id="Path_13068" data-name="Path 13068" d="M1254.209,569.185a2.77,2.77,0,0,0-2.554-1.627H1234.7a.009.009,0,0,1-.008-.006l-5.26-16.188a2.711,2.711,0,0,0-5.158,0l-5.26,16.188a.008.008,0,0,1-.008.006h-16.952a2.77,2.77,0,0,0-2.554,1.627,2.712,2.712,0,0,0,.891,3.279l13.771,10a.008.008,0,0,1,0,.009l-5.26,16.188a2.712,2.712,0,0,0,4.173,3.032l13.771-10a.008.008,0,0,1,.009,0l13.771,10a2.712,2.712,0,0,0,4.173-3.032l-5.26-16.188a.01.01,0,0,1,0-.009l13.771-10A2.712,2.712,0,0,0,1254.209,569.185Z" transform="translate(-1199.276 -549.49)" fill="#ffcd00"/>
            <g id="Group_3745" data-name="Group 3745" transform="translate(10.238 0.002)">
              <path id="Path_13069" data-name="Path 13069" d="M1229.286,606.364l-14.14,10.274a2.7,2.7,0,0,1-1.7.516,2.708,2.708,0,0,0,3.566.334l13.776-10.008Z" transform="translate(-1213.449 -565.282)" fill="#f0a002"/>
              <path id="Path_13070" data-name="Path 13070" d="M1238.206,550.515l5.521,17.046,1.609,0-5.262-16.194a2.713,2.713,0,0,0-2.475-1.872A2.717,2.717,0,0,1,1238.206,550.515Z" transform="translate(-1220.154 -549.493)" fill="#f0a002"/>
              <path id="Path_13071" data-name="Path 13071" d="M1269.06,576.377a2.712,2.712,0,0,0-2.475-1.872,2.712,2.712,0,0,1-.379,4.054l-13.776,10.008,5.262,16.193a2.712,2.712,0,0,1-2.579,3.55c-.064,0-.128,0-.191-.006l.466.338a2.712,2.712,0,0,0,4.173-3.032l-5.262-16.194,13.775-10.008A2.711,2.711,0,0,0,1269.06,576.377Z" transform="translate(-1224.271 -556.437)" fill="#f0a002"/>
            </g>
          </g>
        </g>
      </g>
      <path id="Path_13080" data-name="Path 13080" d="M488.125,510.455c-7.728,9.444-12.167,20.454-12.167,32.214V795.74c0,28.768,32.329,52.088,72.209,52.088h494.691l146.329,64.5,12.931,32.7-180.564-79.594H542.64c-48.593,0-87.985-28.415-87.985-63.468V560.273C454.655,540.074,467.739,522.079,488.125,510.455Z" transform="translate(-454.655 -496.806)" opacity="0.1"/>
    </g>
  </g>
</svg>
