<svg xmlns="http://www.w3.org/2000/svg" width="166.608" height="166.104" viewBox="0 0 166.608 166.104">
  <g id="Group_3335" data-name="Group 3335" transform="translate(-1640.787 -1652.626)">
    <g id="Group_676" data-name="Group 676" transform="translate(77.598 274.792)">
      <g id="Group_671" data-name="Group 671" transform="matrix(0.966, 0.259, -0.259, 0.966, 1598.251, 1377.834)">
        <path id="Path_1625" data-name="Path 1625" d="M0,97.836a7.662,7.662,0,0,0,7.384,7.922H21.707v29.714L56.8,105.758h71.981a7.673,7.673,0,0,0,7.409-7.922V7.922A7.676,7.676,0,0,0,128.777,0H7.384A7.665,7.665,0,0,0,0,7.922Z" transform="translate(0 0)" fill="#ff3d0d"/>
        <path id="Path_1626" data-name="Path 1626" d="M39.731,22.935,19.869,34.407,0,45.874V0L19.869,11.467Z" transform="translate(53.77 29.527)" fill="#fff"/>
      </g>
    </g>
  </g>
</svg>
