<svg xmlns="http://www.w3.org/2000/svg" width="1353.445" height="358.648" viewBox="0 0 1353.445 358.648">
  <g id="Group_7027" data-name="Group 7027" transform="translate(-283.208 -10454)">
    <g id="Group_3334" data-name="Group 3334" transform="translate(49.43 6029.605)">
      <g id="Group_3329" data-name="Group 3329" transform="translate(233.778 4424.395)">
        <path id="Path_12112" data-name="Path 12112" d="M4644.666,4298.529c16.724-.092,33.457-.238,50.18-.258,37.817-.039,75.63-.348,113.439.053,98.648,1.047,197.3.146,295.944.494,2.167.006,4.337.18,6.5.277q40.463,0,80.928.006,175.27,0,350.543.01,169.387.044,338.782.322c6.724.014,8.12-1.6,8.1-7.389q-.324-131.112-.011-262.229c.011-5.41-1.552-6.777-7.543-6.592q-94.846,2.892-189.709,5.357-58.018,1.605-116.035,3.219-111.129,3.261-222.247,6.6c-36.07,1.039-72.155,1.748-108.225,2.754-49.318,1.373-98.624,2.934-147.937,4.326q-91.266,2.572-182.541,5-62.251,1.723-124.491,3.506-61.6,1.743-123.2,3.512c-6.948.205-13.889.717-20.836.727-3.607.006-4.3,1.357-4.277,4.211q.541,61.307.926,122.613.209,28.611.421,57.217c.1,17.133.108,34.26.249,51.391C4643.647,4295.281,4642.728,4297.184,4644.666,4298.529Z" transform="translate(-4592.04 -3988.383)" fill="#ffd837"/>
        <path id="Path_12113" data-name="Path 12113" d="M4911.293,4029.994q-65.4,2.279-130.8,4.527c-30.762,1.016-61.531,1.832-92.291,2.758q-18.111.542-36.209,1.188c-1.793.064-4.576-.621-4.355,2.314.176,2.359,2.58,2.354,4.625,2.287,20.244-.65,40.5-1.242,60.744-1.895q47.013-1.526,94.029-3.107,66-2.168,132-4.322,61.925-1.978,123.84-3.867,53.443-1.7,106.875-3.506c2.045-.07,5.006.518,4.846-2.609-.168-3.285-3.289-2.045-5.135-1.988q-90.542,2.859-181.076,5.867-38.537,1.251-77.086,2.455Z" transform="translate(-4570.339 -3995.025)" fill="#ffd837"/>
        <path id="Path_12114" data-name="Path 12114" d="M4734.516,4087.786c43.049,0,85.17.049,127.287-.014q80.147-.111,160.291-.387c4.479-.01,8.955-.25,13.434-.395,1.453-.049,2.764-.283,2.633-2.232-.1-1.514-1.176-1.9-2.383-2-1.357-.107-2.729-.068-4.092-.062q-148.3.293-296.613.6" transform="translate(-4162.722 -3757.391)" fill="#ffd837"/>
        <path id="Path_12115" data-name="Path 12115" d="M4836.281,4025.1q-45.817,1.649-91.641,3.3-42.313,1.515-84.635,3.008c-.775.029-1.557.092-2.332.107-1.633.033-3.443.264-3.225,2.314.182,1.729,1.781,2.266,3.541,2.207,7.01-.242,14.02-.375,21.023-.629q58.664-2.112,117.318-4.273,71.792-2.666,143.578-5.406c24.314-.9,48.641-1.7,72.961-2.594,1.938-.068,5.043.865,4.834-2.426-.2-3.121-3.193-2.086-5.164-2.014q-59.534,2.156-119.062,4.375c-19.064.7-38.131,1.311-57.2,1.965Z" transform="translate(-4543.922 -4006.789)" fill="#ffd837"/>
        <path id="Path_12116" data-name="Path 12116" d="M4916.984,4186.265c21.055,0,42.105-.152,63.158.111,5.018.059,6.238-1.674,6.217-6.373-.15-38.916-.08-77.834-.086-116.748a25.114,25.114,0,0,0-.123-3.5,2.4,2.4,0,0,0-2.779-2.32c-1.625.107-1.723,1.309-1.771,2.48-.059,1.363-.025,2.727-.025,4.088,0,37.359-.082,74.719.1,112.08.025,4.859-1.055,6.047-6.182,5.762-12.445-.682-24.943-.375-37.418-.463q-42.694-.3-85.387-.592c-1.559-.01-3.115.01-4.674.1a2.015,2.015,0,0,0-2.2,2.145c-.023,1.523.84,1.992,2.189,2.057,2.326.111,4.656.381,6.99.385q31,.044,61.99.016Z" transform="translate(-3671.809 -3855.484)" fill="#ffd837"/>
        <path id="Path_12117" data-name="Path 12117" d="M4650.633,4119.232c4.586,17.3,9.336,34.553,13.648,51.918,1.236,4.986,3.141,6.793,8.635,6.68,41.027-.848,82.064-1.283,123.1-1.854.979-.016,1.955-.211,2.916-.152,1.832.117,4.078.152,4.107-2.051.039-2.564-2.514-2.564-4.424-2.549-8.361.063-16.721.219-25.084.35-32.857.52-65.719.975-98.574,1.652-4.215.088-5.959-1.1-7.072-5.318-9.113-34.416-18.514-68.752-27.826-103.119-.307-1.123-.592-2.256-.936-3.373-.471-1.555-1.615-2.277-3.094-1.73a2.234,2.234,0,0,0-1.4,2.824c.2.752.371,1.514.572,2.266q7.242,27.354,14.5,54.705Z" transform="translate(-4621.227 -3847.421)" fill="#ffd837"/>
        <path id="Path_12118" data-name="Path 12118" d="M4871.295,4087.455H4771.283c-.777,0-1.557-.02-2.34.01-1.742.068-3.937-.088-3.8,2.4.123,2.285,2.191,2.311,4,2.3q15.5-.1,30.992-.186c1.748-.014,3.5-.18,5.248-.186q83.341-.316,166.691-.611c1.166,0,2.338.012,3.5-.014,1.285-.023,2.316-.43,2.369-1.93a2.113,2.113,0,0,0-1.982-2.412,44.709,44.709,0,0,0-4.664-.15q-50-.009-100.008-.006Z" transform="translate(-4031.051 -3741.906)" fill="#ffd837"/>
        <path id="Path_12119" data-name="Path 12119" d="M4774.35,4016.078a13.179,13.179,0,0,0-13.234,13.318,13.444,13.444,0,1,0,26.883-.424A13.127,13.127,0,0,0,4774.35,4016.078Z" transform="translate(-4061.657 -4016.078)" fill="#ffd837"/>
        <path id="Path_12120" data-name="Path 12120" d="M4842.41,4095.7c-.709-3.17,2.021-8.312-1.291-10.4-3.779-2.377-7.178,2.32-10.582,4.123-14.127,7.475-11.725,7.223-.137,14.025,1.66.977,3.355,1.91,5.033,2.871,6.137,3.535,6.947,3.037,6.977-4.268C4842.42,4100.118,4842.41,4098.179,4842.41,4095.7Z" transform="translate(-3798.872 -3749.802)" fill="#ffd837"/>
        <path id="Path_12121" data-name="Path 12121" d="M4888.02,4046.5a8.754,8.754,0,1,0-.68-17.492,8.753,8.753,0,0,0,.68,17.492Z" transform="translate(-3543.116 -3965.908)" fill="#ffd837"/>
        <path id="Path_12122" data-name="Path 12122" d="M5213.549,4017.042c-49.529,1.51-98.025,2.945-146.521,4.473-35.049,1.1-70.1,2.336-105.148,3.473q-73.318,2.376-146.635,4.693c-11.879.377-23.76.732-35.639,1.191-1.977.08-5.18-.57-5.15,2.223.029,2.887,3.09,2.867,5.514,2.789q52.564-1.743,105.143-3.457,73.318-2.367,146.639-4.705,52.582-1.7,105.158-3.467,37.383-1.216,74.779-2.357c.387-.016.852.1,1.158-.064,1.986-1.07,6.182.986,5.934-2.822C5218.541,4015.329,5214.637,4017.624,5213.549,4017.042Z" transform="translate(-3948.942 -4013.036)" fill="#ffd837"/>
        <path id="Path_12123" data-name="Path 12123" d="M4762.076,4025.943a8.751,8.751,0,1,0,17.48-.727,8.632,8.632,0,0,0-8.779-8.215A8.8,8.8,0,0,0,4762.076,4025.943Z" transform="translate(-4057.963 -4012.492)" fill="#ffd837"/>
        <path id="Path_12124" data-name="Path 12124" d="M4641.225,4053.51c-2.891-1.627-5.221-2.945-7.561-4.25-.469-.258-.977-.453-1.861-.857v10.553A30.953,30.953,0,0,0,4641.225,4053.51Z" transform="translate(-4631.803 -3890.541)" fill="#ffd837"/>
        <path id="Path_12125" data-name="Path 12125" d="M4822.2,4091.407l9.67,5.615v-11.1Z" transform="translate(-3793.755 -3744.843)" fill="#ffd837"/>
      </g>
    </g>
  </g>
</svg>
