<svg xmlns="http://www.w3.org/2000/svg" width="337.125" height="192.302" viewBox="0 0 337.125 192.302">
  <g id="Group_3829" data-name="Group 3829" transform="translate(337.125 192.302) rotate(180)">
    <g id="Group_28" data-name="Group 28" transform="translate(0 0)">
      <path id="Path_146" data-name="Path 146" d="M32.678,7.088,8.437,33.494l-7.951-7.3A61.867,61.867,0,0,1,.052,15.861,4.8,4.8,0,0,1,1.315,12.81L11.48,1.738A4.8,4.8,0,0,1,14.771.186C17.017.07,20.906-.073,25,.042Z" transform="translate(208.246 71.162)" fill="#00aad8"/>
      <g id="Group_24" data-name="Group 24" transform="translate(212.04 74.219)">
        <path id="Path_147" data-name="Path 147" d="M71.812,108.625c-11.214-5.7-23.6-14.631-36.512-28.418C15.8,59.4,7.271,42.8,1.865,33.358-2.327,26.039,1.084,14.3,6.787,8.084h0C12.49,1.872,23.631-2.237,31.28,1.315,41.148,5.9,58.412,12.981,80.811,30.63,95.65,42.323,105.6,53.9,112.241,64.585a65.551,65.551,0,0,0-40.43,44.04Z" transform="translate(0 0)" fill="#fff"/>
        <path id="Path_148" data-name="Path 148" d="M18.738,20.924A67.17,67.17,0,0,0,3.917,47.853a1.04,1.04,0,0,1-1.46.648c-.625-.31-1.287-.637-1.9-.956A1.04,1.04,0,0,1,.03,46.377C5.138,25.474,21.929,6.838,42.461.052a1.041,1.041,0,0,1,1.211.442c.378.614.763,1.289,1.129,1.92a1.038,1.038,0,0,1-.531,1.492A66.862,66.862,0,0,0,18.738,20.924Z" transform="translate(67.929 60.762)" fill="#00aad8"/>
        <path id="Path_149" data-name="Path 149" d="M52.519,51.676C50.18,51.956,29,58.789,0,44.04A65.55,65.55,0,0,1,40.43,0C57.6,27.635,52.6,49.322,52.519,51.676Z" transform="translate(71.812 64.585)" fill="#ef4637"/>
        <path id="Path_150" data-name="Path 150" d="M17.738,17.825A68.213,68.213,0,0,1,0,19.609,65.661,65.661,0,0,1,18,0,68.174,68.174,0,0,1,17.738,17.825Z" transform="translate(106.593 98.436)" fill="#00aad8"/>
        <path id="Path_151" data-name="Path 151" d="M97.128,64.584c8.137,13.1,11.29,24.851,12.352,33.851h0v.005a65.006,65.006,0,0,1-.264,17.82h0l-.013,0c-.074.009-.6.11-.66.124l-.388.084c-.006-.176-5.1-29.136-14.019-43.494-7.28-11.716-18.19-24.408-34.46-37.227C35.121,16.4,16.192,8.63,5.373,3.606A15.858,15.858,0,0,0,0,2.238C5.308-.14,11.413-.893,16.167,1.314,26.035,5.9,43.3,12.981,65.7,30.631,80.537,42.322,90.488,53.9,97.128,64.584Z" transform="translate(15.113 0.001)" fill="#dcddde" style="mix-blend-mode: multiply;isolation: isolate"/>
      </g>
      <g id="Group_25" data-name="Group 25" transform="translate(178.647 91.514)">
        <path id="Path_152" data-name="Path 152" d="M48.983,39.349,29.066,33.9A5.649,5.649,0,0,1,25.9,31.647L.676,4.288a2.556,2.556,0,0,1,0-3.46h0A2.555,2.555,0,0,1,3.668.255L31.735,13.824l5.651-.368a1.862,1.862,0,0,1,1.781,1.013L50.708,37.158A1.514,1.514,0,0,1,48.983,39.349Z" transform="translate(0 0)" fill="#ef4637"/>
        <path id="Path_153" data-name="Path 153" d="M1.071,1.472,26.292,28.831a5.648,5.648,0,0,0,3.169,2.254l19.917,5.448a1.483,1.483,0,0,0,1.416-.341,1.514,1.514,0,0,1-1.814,2L29.063,32.741a5.648,5.648,0,0,1-3.169-2.254L.674,3.128A2.552,2.552,0,0,1,.418,0,2.535,2.535,0,0,0,1.071,1.472Z" transform="translate(0.003 1.16)" fill="#ef6a51"/>
      </g>
      <g id="Group_26" data-name="Group 26" transform="translate(224.417 41.657)">
        <path id="Path_154" data-name="Path 154" d="M43.176,45.674,36.049,26.3a5.651,5.651,0,0,0-2.517-2.966L4.121.535A2.557,2.557,0,0,0,.673.827h0A2.556,2.556,0,0,0,.358,3.86L16.272,30.668l.115,5.662a1.861,1.861,0,0,0,1.162,1.687L41.141,47.58A1.514,1.514,0,0,0,43.176,45.674Z" transform="translate(0 0)" fill="#ef4637"/>
        <path id="Path_155" data-name="Path 155" d="M1.522,1.07,30.933,23.865A5.653,5.653,0,0,1,33.45,26.83l7.127,19.379a1.482,1.482,0,0,1-.219,1.44,1.513,1.513,0,0,0,1.835-1.977L35.066,26.293a5.653,5.653,0,0,0-2.517-2.966L3.138.533A2.553,2.553,0,0,0,0,.546,2.538,2.538,0,0,1,1.522,1.07Z" transform="translate(0.983 0.003)" fill="#ef6a51"/>
      </g>
      <path id="Path_156" data-name="Path 156" d="M211.938,76.248c-7.356,8.012-20.881,11.6-31.621.407-.034-.03-.073-.052-.105-.083C148.071,45.532,101.924,28.436,50.27,28.436A186.463,186.463,0,0,0,4.311,34.168a3.457,3.457,0,1,1-1.706-6.7A193.338,193.338,0,0,1,50.27,21.522a230.2,230.2,0,0,1,31.288,2.115l.164-.012c7.441,1.008,10.129.592,11.075-3.664.812-3.651-1.405-5.525-5-6.254a233.99,233.99,0,0,0-31.73-2.734,3.457,3.457,0,0,1,.062-6.913h.064a236.757,236.757,0,0,1,71,12.117c.056.019.1.049.157.071,4.091,1.367,10.248,3.9,12.135.042,1.034-2.11,1.018-3.819-2.346-5.705q-5.274-2.052-10.622-3.851A3.457,3.457,0,0,1,127.611,0a3.5,3.5,0,0,1,1.1.179C225.258,32.11,219.774,67.712,211.938,76.248Zm-65.918-62c-.739-.323-1.483-.63-2.225-.945Z" transform="translate(0 0)" fill="#f5e000"/>
      <g id="Group_27" data-name="Group 27" transform="translate(108.518 15.853)">
        <path id="Path_157" data-name="Path 157" d="M55.732,33.124c-4.727,5.149-13.3,6.917-20.319-1.4C27.17,21.951,8.444,10.473.936,6.6A1.729,1.729,0,0,1,2.523,3.523,174.714,174.714,0,0,1,22.7,15.72c2.177,1.351,5.266,1.992,7.135.1,2.228-2.26,1.711-5.047-.149-6.479-.852-.624-1.706-1.251-2.55-1.849a1.728,1.728,0,1,1,2-2.82c2.044,1.446,4.118,2.988,6.186,4.567a5.532,5.532,0,0,1,.845.5c2.833,2.1,4.778,2.965,6.2,1.6,1.262-1.219,1.518-2.727-.162-4.318-1.48-1.252-3.086-2.559-4.859-3.917a1.729,1.729,0,0,1,2.1-2.745C64.632,19.561,59.738,28.76,55.732,33.124Z" transform="translate(38.557 18.888)" fill="#f0a529"/>
        <path id="Path_158" data-name="Path 158" d="M1.731,0a1.72,1.72,0,0,1,.894.25c1.742,1.056,3.511,2.17,5.26,3.313A1.728,1.728,0,1,1,5.994,6.456C4.278,5.335,2.541,4.241.833,3.207A1.728,1.728,0,0,1,1.731,0Z" transform="translate(53.717 15.851)" fill="#f0a529"/>
        <path id="Path_159" data-name="Path 159" d="M15.034,8.5a1.73,1.73,0,0,1-2.339.709c-3.142-1.681-5.821-3-8.184-4.163C3.175,4.392,1.982,3.8.936,3.264A1.729,1.729,0,0,1,2.522.192C3.551.724,4.723,1.3,6.037,1.948c2.269,1.117,5.094,2.507,8.287,4.215A1.728,1.728,0,0,1,15.034,8.5Z" transform="translate(33.572 5.125)" fill="#f0a529"/>
        <path id="Path_160" data-name="Path 160" d="M14.354,8.458C10,6.576,5.564,4.862,1.171,3.365A1.729,1.729,0,1,1,2.287.093c4.479,1.527,9,3.274,13.439,5.192a1.729,1.729,0,1,1-1.372,3.173Z" transform="translate(13.895 11.701)" fill="#f0a529"/>
        <path id="Path_161" data-name="Path 161" d="M7.322,4.927c-3.718-1.054-5.913-1.5-5.935-1.5A1.729,1.729,0,0,1,1.726,0,1.771,1.771,0,0,1,2.07.034C2.163.053,4.4.507,8.265,1.6a1.729,1.729,0,0,1-.943,3.327Z" transform="translate(0 7.719)" fill="#f0a529"/>
        <path id="Path_162" data-name="Path 162" d="M4.41,4.929Q2.739,4.108,1,3.295A1.728,1.728,0,1,1,2.459.162Q4.234.989,5.934,1.826a1.728,1.728,0,0,1-1.524,3.1Z" transform="translate(43.63 0)" fill="#f0a529"/>
        <path id="Path_163" data-name="Path 163" d="M12.858,10.25c-3.781-2.428-7.8-4.783-11.945-7A1.728,1.728,0,0,1,1.73,0a1.712,1.712,0,0,1,.813.2c4.226,2.258,8.325,4.659,12.184,7.138a1.728,1.728,0,1,1-1.869,2.908Z" transform="translate(52.895 4.633)" fill="#f0a529"/>
      </g>
      <ellipse id="Ellipse_3" data-name="Ellipse 3" cx="15.345" cy="15.345" rx="15.345" ry="15.345" transform="translate(265.001 123.703)" fill="#ef4637"/>
      <ellipse id="Ellipse_4" data-name="Ellipse 4" cx="12.866" cy="12.866" rx="12.866" ry="12.866" transform="matrix(0.041, 0.999, -0.999, 0.041, 292.677, 125.668)" fill="#fff"/>
      <path id="Path_164" data-name="Path 164" d="M18.582,2.919a11.085,11.085,0,1,0,.669,15.663A11.086,11.086,0,0,0,18.582,2.919Z" transform="translate(269.261 127.963)" fill="#0087c9"/>
      <path id="Path_165" data-name="Path 165" d="M19.239,7.246a11.086,11.086,0,0,1-15.662.669A11.047,11.047,0,0,1,0,0L22.037,1.392A11.041,11.041,0,0,1,19.239,7.246Z" transform="translate(269.272 139.299)" fill="#00aad8"/>
    </g>
    <path id="Path_166" data-name="Path 166" d="M40.2,46.156.533,3.36A2,2,0,0,1,.527.647h0A2,2,0,0,1,3.243.433L48.962,36.689a6.469,6.469,0,0,1,.746,9.444h0A6.47,6.47,0,0,1,40.2,46.156Z" transform="translate(197.19 61.94)" fill="#ef4637"/>
  </g>
</svg>
