<?xml version="1.0" encoding="utf-8"?>
<!-- Generator: Adobe Illustrator 16.0.0, SVG Export Plug-In . SVG Version: 6.00 Build 0)  -->
<!DOCTYPE svg PUBLIC "-//W3C//DTD SVG 1.1//EN" "http://www.w3.org/Graphics/SVG/1.1/DTD/svg11.dtd">
<svg version="1.1" id="Layer_1" xmlns="http://www.w3.org/2000/svg" xmlns:xlink="http://www.w3.org/1999/xlink" x="0px" y="0px"
	 width="496.461px" height="506.351px" viewBox="0 0 496.461 506.351" enable-background="new 0 0 496.461 506.351"
	 xml:space="preserve">
<g id="Group_7020" transform="translate(-403 -30425.299)">
	<g id="Online_PR" transform="translate(394.4 30416.699)">
		<g id="Group_6192" transform="translate(8.6 8.6)">
			<g id="Group_6190">
				<circle id="Ellipse_2116" fill="#382B73" cx="248.23" cy="248.229" r="248.23"/>
			</g>
			<g id="Group_6191" transform="translate(33.474 33.474)">
				<circle id="Ellipse_2117" fill="#473080" cx="214.757" cy="214.756" r="214.757"/>
			</g>
		</g>
		<path id="Path_17401" fill="#382B73" d="M415.289,350.891c0-0.3-0.023-0.59-0.045-0.884c0-0.081,0-0.16-0.012-0.239l0,0
			c-0.579-6.143-5.735-10.837-11.906-10.838H387.87v-91.252l10.792,3.57c1.333,0.441,2.791-0.115,3.491-1.331l2.825-4.894
			c0.264-0.459,0.399-0.981,0.394-1.511v-4.634c-0.003-0.14-0.015-0.279-0.035-0.418c-0.006-0.056,0-0.112-0.016-0.166
			c-0.051-0.278-0.143-0.548-0.271-0.8c-0.031-0.062-0.066-0.123-0.101-0.183c-0.148-0.265-0.339-0.504-0.563-0.709l-8.56-7.626
			v-3.844l8.56-7.626c0.647-0.578,1.009-1.411,0.988-2.279v-4.636c0-0.112-0.029-0.225-0.039-0.339
			c-0.007-0.104-0.019-0.208-0.037-0.31c-0.059-0.302-0.165-0.593-0.316-0.861l-2.825-4.894c-0.7-1.215-2.159-1.771-3.49-1.328
			l-5.521,1.825l-5.271,1.744v-19.144c0.001-5.793-4.694-10.492-10.487-10.493c-0.003,0-0.005,0-0.007,0H136.282
			c-5.795,0-10.493,4.696-10.493,10.491c0,0,0,0.001,0,0.002v151.651H110.33c-6.17,0.001-11.327,4.695-11.906,10.838l0,0
			c-0.015,0.148-0.017,0.3-0.023,0.45c-0.012,0.225-0.033,0.446-0.033,0.674c0,0.041,0.006,0.082,0.006,0.127l0,0
			c0,0.168,0.015,0.334,0.025,0.5c0.012,0.252,0.025,0.5,0.054,0.752l0,0c0.015,0.134,0.037,0.263,0.06,0.392
			c0.099,0.677,0.255,1.343,0.468,1.992l0,0c0.054,0.161,0.114,0.321,0.177,0.479c0.081,0.217,0.166,0.428,0.26,0.639l0,0
			c0.075,0.166,0.156,0.33,0.239,0.494l0,0c0.125,0.248,0.258,0.486,0.4,0.725c0.062,0.1,0.125,0.208,0.189,0.311l0,0
			c0.967,1.516,2.262,2.795,3.79,3.743l0,0c0.083,0.052,0.166,0.101,0.247,0.152c1.346,0.791,2.835,1.31,4.382,1.524l0,0
			c0.137,0.019,0.27,0.047,0.407,0.062l0,0c0.417,0.044,0.836,0.065,1.256,0.065h293c0.422,0.001,0.843-0.021,1.262-0.063l0,0
			c0.137-0.016,0.27-0.044,0.404-0.063l0,0c1.07-0.146,2.115-0.438,3.106-0.867l0,0c0.162-0.07,0.316-0.151,0.474-0.229l0,0
			c0.272-0.133,0.536-0.273,0.801-0.426l0.246-0.15l0,0c0.979-0.609,1.866-1.355,2.635-2.216c0.022-0.024,0.046-0.05,0.065-0.075
			l0,0c0.219-0.248,0.424-0.509,0.622-0.774c0.037-0.05,0.077-0.101,0.112-0.15l0,0c0.123-0.173,0.241-0.347,0.353-0.526l0,0
			c0.101-0.153,0.193-0.31,0.285-0.469l0,0c0.106-0.184,0.2-0.371,0.3-0.56l0,0c0.055-0.108,0.106-0.22,0.158-0.331
			c0.322-0.689,0.577-1.409,0.759-2.148c0.027-0.1,0.057-0.199,0.079-0.3l0,0c0.048-0.218,0.083-0.438,0.121-0.661l0,0
			c0.029-0.183,0.063-0.363,0.083-0.549l0,0C415.256,351.831,415.288,351.361,415.289,350.891z"/>
		<g id="Group_6209" transform="translate(98.368 162.237)">
			<g id="Group_6193">
				<path id="Path_17402" fill="#FFFFFF" d="M289.503,162.143H27.422V10.492c0-5.794,4.696-10.493,10.491-10.493
					c0,0,0.001,0,0.002,0h241.1c5.794,0,10.491,4.697,10.491,10.491c0,0,0,0.001,0,0.002v151.651H289.503z"/>
				<path id="Path_17403" fill="#1CAEE4" d="M277.908,155.378H39.019c-2.44,0-4.418-1.978-4.418-4.418V11.18
					c0-2.44,1.978-4.418,4.418-4.418h238.89c2.44,0,4.418,1.978,4.418,4.418v139.782
					C282.326,153.401,280.347,155.378,277.908,155.378z"/>
				<path id="Path_17404" fill="#E6E7E8" d="M304.962,186.068h-293C5.356,186.068,0,180.712,0,174.106l0,0l0,0
					c0-6.606,5.355-11.962,11.962-11.962l0,0h293c6.604,0.002,11.958,5.356,11.959,11.961l0,0
					C316.921,180.711,311.568,186.066,304.962,186.068z"/>
				<path id="Path_17405" fill="#D1D3D4" d="M306.624,185.939c0.272-0.037,0.545-0.075,0.812-0.131
					c0.16-0.033,0.315-0.081,0.474-0.123c0.235-0.06,0.473-0.116,0.7-0.191c0.164-0.052,0.322-0.116,0.482-0.177
					c0.216-0.079,0.432-0.158,0.642-0.249c0.162-0.071,0.316-0.152,0.474-0.229c0.2-0.1,0.4-0.2,0.593-0.3
					c0.155-0.087,0.3-0.183,0.455-0.277c0.185-0.114,0.369-0.231,0.547-0.353c0.147-0.1,0.289-0.212,0.43-0.322
					c0.171-0.131,0.339-0.262,0.5-0.4c0.137-0.119,0.268-0.241,0.4-0.364c0.155-0.146,0.308-0.293,0.454-0.447
					c0.125-0.131,0.247-0.266,0.366-0.4c0.14-0.16,0.274-0.322,0.405-0.489c0.112-0.143,0.222-0.289,0.328-0.439
					c0.123-0.173,0.241-0.349,0.355-0.528c0.101-0.154,0.193-0.31,0.285-0.47c0.106-0.185,0.206-0.374,0.3-0.565
					c0.083-0.164,0.164-0.328,0.239-0.495c0.087-0.2,0.168-0.4,0.245-0.6c0.067-0.17,0.131-0.343,0.189-0.518
					c0.068-0.208,0.127-0.422,0.185-0.634c0.048-0.177,0.1-0.353,0.137-0.534c0.048-0.218,0.085-0.443,0.121-0.665
					c0.029-0.183,0.063-0.364,0.083-0.549c0.027-0.231,0.037-0.466,0.052-0.7c0.011-0.185,0.025-0.368,0.029-0.553
					c0-0.249-0.012-0.5-0.024-0.755c-0.009-0.164-0.011-0.333-0.025-0.495c-0.574-6.258-6.235-10.84-12.526-10.84h-85.954
					c-0.05,0-0.095,0.033-0.109,0.081c-2.4,7.1-9.06,11.879-16.554,11.881h-86.5c-7.494-0.003-14.152-4.782-16.553-11.881
					c-0.016-0.047-0.06-0.08-0.11-0.081H12.582c-6.291,0-11.952,4.582-12.526,10.84c-0.015,0.162-0.017,0.331-0.025,0.495
					c-0.012,0.252-0.029,0.505-0.025,0.755c0,0.187,0.017,0.37,0.029,0.553c0.012,0.233,0.025,0.468,0.05,0.7
					c0.021,0.185,0.054,0.368,0.085,0.551c0.035,0.222,0.073,0.447,0.121,0.665c0.04,0.181,0.089,0.358,0.137,0.536
					c0.058,0.212,0.116,0.424,0.185,0.632c0.058,0.177,0.125,0.347,0.191,0.52c0.077,0.2,0.158,0.4,0.245,0.6
					c0.075,0.168,0.156,0.333,0.239,0.495c0.1,0.191,0.2,0.38,0.3,0.565c0.091,0.158,0.187,0.314,0.285,0.468
					c0.114,0.179,0.233,0.355,0.356,0.528c0.106,0.148,0.214,0.3,0.328,0.439c0.131,0.166,0.268,0.328,0.407,0.489
					c0.121,0.137,0.241,0.272,0.366,0.4c0.148,0.154,0.3,0.3,0.455,0.447c0.131,0.123,0.264,0.247,0.4,0.364
					c0.162,0.139,0.331,0.271,0.5,0.4c0.141,0.11,0.285,0.22,0.43,0.322c0.179,0.125,0.364,0.239,0.549,0.353
					c0.152,0.094,0.3,0.189,0.455,0.277c0.193,0.108,0.393,0.2,0.59,0.3c0.158,0.077,0.314,0.158,0.476,0.229
					c0.21,0.091,0.424,0.168,0.64,0.247c0.16,0.06,0.318,0.125,0.482,0.177c0.231,0.073,0.466,0.131,0.7,0.191
					c0.158,0.039,0.314,0.087,0.474,0.123c0.266,0.056,0.538,0.091,0.809,0.131c0.137,0.019,0.27,0.048,0.407,0.063
					c0.417,0.044,0.836,0.066,1.256,0.067h293c0.421,0,0.841-0.023,1.258-0.067C306.355,185.987,306.488,185.958,306.624,185.939z"
					/>
				<path id="Path_17406" fill="#BCBEC0" d="M316.868,172.983c-0.166-1.692-0.717-3.324-1.608-4.771
					c-0.069,0.116-0.138,0.231-0.21,0.343c-0.114,0.179-0.233,0.356-0.356,0.528c-0.105,0.148-0.216,0.3-0.328,0.439
					c-0.131,0.166-0.266,0.328-0.405,0.489c-0.117,0.137-0.24,0.272-0.365,0.4c-0.148,0.154-0.3,0.3-0.455,0.447
					c-0.131,0.123-0.265,0.247-0.4,0.364c-0.162,0.139-0.331,0.27-0.5,0.4c-0.141,0.108-0.285,0.218-0.43,0.322
					c-0.179,0.125-0.362,0.239-0.547,0.355c-0.152,0.094-0.3,0.189-0.455,0.277c-0.193,0.108-0.394,0.206-0.593,0.3
					c-0.158,0.077-0.314,0.158-0.475,0.229c-0.21,0.091-0.426,0.168-0.642,0.247c-0.16,0.06-0.318,0.125-0.482,0.177
					c-0.23,0.073-0.466,0.131-0.7,0.191c-0.157,0.039-0.312,0.087-0.474,0.123c-0.266,0.056-0.538,0.094-0.811,0.131
					c-0.138,0.019-0.269,0.048-0.407,0.062c-0.418,0.044-0.838,0.066-1.258,0.066h-293c-0.419,0-0.839-0.022-1.256-0.066
					c-0.137-0.015-0.272-0.044-0.407-0.062c-0.272-0.037-0.545-0.075-0.809-0.131c-0.16-0.033-0.316-0.081-0.474-0.123
					c-0.235-0.06-0.472-0.116-0.7-0.191c-0.164-0.052-0.322-0.118-0.482-0.177c-0.214-0.079-0.43-0.156-0.64-0.247
					c-0.162-0.071-0.318-0.152-0.476-0.229c-0.2-0.1-0.4-0.193-0.59-0.3c-0.156-0.087-0.3-0.183-0.455-0.276
					c-0.185-0.114-0.37-0.231-0.549-0.356c-0.148-0.1-0.289-0.212-0.43-0.322c-0.17-0.131-0.339-0.262-0.5-0.4
					c-0.137-0.119-0.27-0.241-0.4-0.364c-0.156-0.146-0.308-0.293-0.455-0.447c-0.125-0.131-0.245-0.266-0.366-0.4
					c-0.139-0.16-0.277-0.322-0.407-0.489c-0.112-0.143-0.222-0.289-0.328-0.439c-0.123-0.173-0.241-0.349-0.356-0.528
					c-0.073-0.112-0.141-0.229-0.208-0.343c-0.892,1.447-1.442,3.079-1.609,4.771c-0.015,0.162-0.017,0.331-0.025,0.495
					c-0.012,0.252-0.029,0.505-0.025,0.755c0,0.187,0.017,0.37,0.029,0.553c0.012,0.233,0.025,0.468,0.05,0.7
					c0.021,0.185,0.054,0.368,0.085,0.551c0.035,0.222,0.073,0.447,0.121,0.665c0.039,0.181,0.089,0.358,0.137,0.536
					c0.058,0.212,0.116,0.424,0.185,0.632c0.058,0.177,0.125,0.347,0.191,0.52c0.077,0.2,0.158,0.4,0.245,0.6
					c0.075,0.168,0.156,0.333,0.239,0.495c0.1,0.191,0.2,0.38,0.3,0.565c0.091,0.158,0.187,0.314,0.285,0.468
					c0.114,0.179,0.233,0.356,0.356,0.528c0.106,0.148,0.214,0.3,0.328,0.439c0.131,0.166,0.268,0.328,0.407,0.489
					c0.121,0.137,0.241,0.272,0.366,0.4c0.148,0.154,0.3,0.3,0.455,0.447c0.131,0.123,0.264,0.247,0.4,0.364
					c0.162,0.139,0.331,0.27,0.5,0.4c0.141,0.11,0.285,0.22,0.43,0.322c0.179,0.125,0.364,0.239,0.549,0.353
					c0.152,0.094,0.3,0.189,0.455,0.276c0.193,0.108,0.393,0.2,0.59,0.3c0.158,0.077,0.314,0.158,0.476,0.229
					c0.21,0.091,0.424,0.168,0.64,0.247c0.16,0.06,0.318,0.125,0.482,0.177c0.231,0.073,0.466,0.131,0.7,0.191
					c0.158,0.039,0.314,0.087,0.474,0.123c0.266,0.056,0.538,0.091,0.809,0.131c0.137,0.019,0.27,0.048,0.407,0.062
					c0.417,0.044,0.836,0.067,1.256,0.067h293c0.421,0.001,0.841-0.019,1.26-0.062c0.137-0.015,0.27-0.044,0.407-0.063
					c0.271-0.037,0.545-0.075,0.811-0.131c0.16-0.033,0.316-0.081,0.474-0.123c0.235-0.06,0.473-0.116,0.7-0.191
					c0.164-0.052,0.322-0.116,0.482-0.177c0.216-0.079,0.432-0.158,0.642-0.249c0.162-0.071,0.316-0.152,0.475-0.229
					c0.199-0.1,0.399-0.2,0.593-0.3c0.156-0.087,0.3-0.183,0.455-0.276c0.185-0.114,0.37-0.231,0.547-0.353
					c0.147-0.1,0.289-0.212,0.43-0.322c0.17-0.131,0.339-0.262,0.5-0.4c0.137-0.119,0.269-0.241,0.4-0.364
					c0.156-0.146,0.308-0.293,0.455-0.447c0.125-0.131,0.247-0.266,0.365-0.4c0.14-0.16,0.274-0.322,0.405-0.489
					c0.112-0.143,0.223-0.289,0.328-0.439c0.123-0.173,0.241-0.349,0.356-0.528c0.1-0.154,0.192-0.31,0.284-0.47
					c0.106-0.185,0.206-0.374,0.301-0.565c0.083-0.164,0.164-0.328,0.238-0.495c0.087-0.2,0.168-0.4,0.245-0.6
					c0.067-0.17,0.131-0.343,0.189-0.518c0.068-0.208,0.127-0.422,0.185-0.634c0.048-0.177,0.101-0.353,0.137-0.534
					c0.049-0.218,0.086-0.443,0.121-0.665c0.029-0.183,0.063-0.364,0.083-0.549c0.027-0.231,0.037-0.466,0.053-0.7
					c0.01-0.185,0.024-0.368,0.028-0.553c0-0.249-0.012-0.5-0.024-0.755C316.885,173.314,316.883,173.145,316.868,172.983z"/>
			</g>
			<path id="Path_17407" fill="#009ADD" d="M282.323,17.38c-0.016-2.431-1.993-4.392-4.424-4.387h-36.174
				c-0.188,0.166-0.354,0.333-0.521,0.5c-2.493,2.361-4.8,4.913-6.899,7.63c-1.039,1.351-2.037,2.744-2.974,4.179
				c-0.457,0.707-0.915,1.434-1.351,2.162c-0.894,1.455-1.7,2.952-2.474,4.47c-0.374,0.769-0.748,1.518-1.101,2.308
				c-0.707,1.538-1.351,3.118-1.933,4.719c-0.291,0.811-0.562,1.622-0.832,2.432c-0.521,1.622-0.978,3.264-1.394,4.927
				c-1.285,5.448-1.886,11.035-1.788,16.632v8.5c0.021,0.416,0.021,0.832,0.043,1.268l-13.451,19.542
				c-0.182,0.275-0.35,0.559-0.5,0.852c-0.136,0.291-0.254,0.589-0.354,0.894c-0.186,0.584-0.277,1.195-0.27,1.809v8.545
				c-0.176,3.494,2.514,6.469,6.007,6.645c0.104,0.005,0.208,0.008,0.313,0.008h14.739v25.488
				c-0.003,6.978,5.652,12.637,12.63,12.64c0.004,0,0.007,0,0.011,0c8.366-0.023,16.716-0.746,24.962-2.16l2.266,8.395h11.048
				c2.44,0,4.418-1.978,4.418-4.418V17.38L282.323,17.38z"/>
			<g id="Group_6194" transform="translate(205.918 6.757)">
				<path id="Path_17408" fill="#F7CB15" d="M76.405,72.535v71.66c0.005,2.44-1.97,4.423-4.41,4.428c-0.006,0-0.012,0-0.018,0
					h-9.355l-3.949-14.636l-0.438-1.6l-1.871-6.881l-14.3-52.972h34.341V72.535z"/>
				<path id="Path_17409" fill="#E7AD27" d="M71.462,148.626h-8.837l-3.949-14.636l-0.438-1.6l-1.85-6.881h-0.021l-14.3-52.972
					h8.857l13.88,51.432l2.266,8.378L71.462,148.626z"/>
				<path id="Path_17410" fill="#F7CB15" d="M76.41,4.427v125.571c-3.077,0.873-6.2,1.642-9.335,2.349
					c-2.786,0.6-5.592,1.164-8.399,1.642c-8.249,1.416-16.601,2.139-24.97,2.162c-6.978,0.003-12.637-5.652-12.64-12.63
					c0-0.003,0-0.007,0-0.01V98.023H6.326c-3.498-0.003-6.331-2.842-6.328-6.34c0-0.104,0.003-0.209,0.008-0.313v-8.545
					c-0.007-0.613,0.084-1.224,0.271-1.809c0.1-0.305,0.218-0.604,0.353-0.894c0.151-0.293,0.318-0.578,0.5-0.852L14.58,59.728
					c-0.021-0.437-0.021-0.852-0.042-1.268v-8.5c-0.098-5.597,0.503-11.184,1.788-16.632c0.416-1.663,0.873-3.306,1.394-4.927
					c0.27-0.811,0.541-1.622,0.832-2.432c0.582-1.6,1.227-3.181,1.933-4.719c0.354-0.79,0.729-1.538,1.1-2.308
					c0.77-1.518,1.58-3.015,2.475-4.47c0.437-0.728,0.894-1.455,1.351-2.162c0.937-1.435,1.934-2.827,2.974-4.179
					c2.099-2.718,4.406-5.269,6.899-7.63c0.166-0.166,0.333-0.333,0.521-0.5h36.174c2.44-0.008,4.426,1.963,4.434,4.404
					C76.41,4.412,76.41,4.42,76.41,4.427z"/>
				<path id="Path_17411" fill="#FEDE3A" d="M76.41,4.427v116.714c-3.824,1.081-7.691,2.037-11.6,2.827
					c-2.807,0.6-5.592,1.1-8.42,1.538h-0.021c-7.496,1.177-15.072,1.775-22.661,1.788c-6.978,0.003-12.637-5.652-12.64-12.63
					c0-0.003,0-0.007,0-0.01V89.167H6.328c-3.49,0-6.32-2.828-6.32-6.318c0-0.008,0-0.016,0-0.023
					C0,82.213,0.09,81.602,0.277,81.017c0.1-0.305,0.218-0.604,0.354-0.894c0.15-0.293,0.317-0.578,0.5-0.852l13.446-19.543
					l0.707-1.019c-0.454-2.896-0.704-5.821-0.748-8.753c-0.098-5.597,0.503-11.184,1.788-16.632
					c0.416-1.663,0.873-3.306,1.394-4.927c0.27-0.811,0.541-1.622,0.832-2.432c0.582-1.6,1.227-3.181,1.933-4.719
					c0.353-0.79,0.728-1.538,1.1-2.308c0.77-1.518,1.601-3.015,2.475-4.47c0.437-0.728,0.894-1.455,1.351-2.162
					c0.937-1.435,1.934-2.827,2.974-4.179c2.099-2.718,4.406-5.269,6.899-7.63c0.166-0.166,0.333-0.333,0.521-0.5h36.177
					c2.44-0.008,4.425,1.964,4.433,4.405C76.41,4.41,76.41,4.419,76.41,4.427z"/>
			</g>
			<g id="Group_6196" transform="translate(47.44 17.64)">
				<path id="Path_17412" fill="#009ADD" d="M147.44,36.83H4.158c-2.296,0-4.158-1.862-4.158-4.158v-20.2
					c0-2.296,1.862-4.158,4.158-4.158h143.286c2.296,0,4.158,1.862,4.158,4.158l0,0v20.2
					C151.601,34.969,149.738,36.831,147.44,36.83z"/>
				<path id="Path_17413" fill="#D1D3D4" d="M147.44,32.672H4.158c-2.296,0-4.158-1.862-4.158-4.158v-20.2
					c0-2.296,1.862-4.157,4.158-4.158h143.286c2.296,0,4.158,1.861,4.158,4.158l0,0v20.2
					C151.601,30.811,149.738,32.673,147.44,32.672z"/>
				<path id="Path_17414" fill="#FFFFFF" d="M147.44,28.514H4.158c-2.296,0-4.158-1.862-4.158-4.158v-20.2
					c0-2.296,1.862-4.158,4.158-4.158h143.286c2.296,0,4.158,1.862,4.158,4.158l0,0v20.2
					C151.601,26.653,149.738,28.515,147.44,28.514z"/>
				<g id="Group_6195" transform="translate(38.374 4.8)">
					<path id="Path_17415" fill="#009ADD" d="M22.39-0.001h-0.719c-0.587,0.002-1.1,0.396-1.252,0.963l-3.241,12.162l-3.707-12.2
						c-0.167-0.545-0.669-0.917-1.239-0.919h-0.73c-0.569,0.001-1.071,0.373-1.239,0.917L6.537,13.115L3.279,0.965
						c-0.153-0.566-0.666-0.959-1.252-0.96H1.295C0.577,0.009-0.002,0.594,0.002,1.311c0,0.109,0.015,0.218,0.042,0.324L4.83,19.367
						c0.154,0.565,0.667,0.957,1.252,0.958h0.742c0.572-0.001,1.076-0.376,1.241-0.923l3.8-12.669L15.632,19.4
						c0.166,0.548,0.67,0.924,1.243,0.925h0.742c0.585-0.001,1.098-0.393,1.252-0.958l4.775-17.732
						c0.186-0.693-0.227-1.406-0.92-1.592C22.615,0.014,22.503-0.001,22.39-0.001z"/>
					<path id="Path_17416" fill="#009ADD" d="M47.972-0.001h-0.719c-0.587,0.002-1.1,0.396-1.252,0.963L42.76,13.124l-3.707-12.2
						c-0.167-0.545-0.669-0.917-1.239-0.919h-0.73c-0.569,0.001-1.071,0.373-1.239,0.917L32.12,13.111l-3.26-12.15
						c-0.153-0.566-0.666-0.959-1.252-0.96h-0.732c-0.718,0.002-1.298,0.586-1.295,1.304c0,0.111,0.015,0.222,0.043,0.33
						l4.786,17.732c0.154,0.565,0.667,0.957,1.252,0.958h0.742c0.572-0.001,1.075-0.376,1.241-0.923l3.8-12.669L41.212,19.4
						c0.166,0.548,0.67,0.924,1.243,0.925h0.742c0.585-0.001,1.098-0.393,1.252-0.958L49.22,1.635
						c0.186-0.693-0.226-1.406-0.919-1.592c-0.108-0.029-0.22-0.044-0.333-0.044H47.972z"/>
					<path id="Path_17417" fill="#009ADD" d="M74.585,0.505c-0.246-0.319-0.626-0.507-1.028-0.507h-0.72
						C72.25,0,71.737,0.394,71.585,0.961l-3.241,12.162l-3.707-12.2c-0.167-0.545-0.67-0.917-1.24-0.918h-0.73
						c-0.569,0.001-1.071,0.373-1.239,0.917l-3.726,12.193l-3.26-12.15c-0.153-0.566-0.666-0.959-1.252-0.96h-0.732
						c-0.718,0.002-1.298,0.586-1.296,1.304c0,0.111,0.015,0.222,0.044,0.33l4.786,17.732c0.154,0.565,0.667,0.957,1.252,0.958
						h0.742c0.572-0.001,1.075-0.376,1.241-0.923l3.8-12.669l3.77,12.668c0.166,0.548,0.67,0.924,1.243,0.925h0.742
						c0.585-0.001,1.098-0.393,1.252-0.958l4.772-17.737C74.913,1.244,74.831,0.826,74.585,0.505z"/>
				</g>
			</g>
			<path id="Path_17418" fill="#BCBEC0" d="M288.977,38.126l-0.025-0.019c-0.179-0.148-0.37-0.279-0.553-0.422
				c-0.378-0.3-0.757-0.59-1.154-0.863c-0.24-0.166-0.49-0.314-0.737-0.472c-0.358-0.227-0.718-0.451-1.088-0.661
				c-0.268-0.15-0.543-0.287-0.816-0.428c-0.368-0.189-0.74-0.37-1.118-0.538c-0.287-0.129-0.576-0.247-0.867-0.364
				c-0.1-0.037-0.192-0.079-0.291-0.121v20.869c0.734,1.04,1.267,2.208,1.57,3.445c-0.075,0.322-0.188,0.628-0.291,0.938
				c-0.151,0.452-0.335,0.892-0.549,1.318c-0.16,0.336-0.337,0.663-0.532,0.979c-0.06,0.091-0.131,0.175-0.2,0.26v20.867
				c2.415-0.92,4.662-2.233,6.649-3.886l0.523,0.175V37.951L288.977,38.126z"/>
			<path id="Path_17419" fill="#E7AD27" d="M282.328,62.048c-0.1,0.137-0.206,0.274-0.312,0.41c-0.206,0.266-0.41,0.532-0.641,0.778
				c-0.188,0.2-0.395,0.383-0.6,0.568c-0.256,0.231-0.52,0.453-0.8,0.659c-0.214,0.158-0.433,0.3-0.659,0.445
				c-0.313,0.192-0.636,0.367-0.967,0.524c-0.226,0.108-0.447,0.218-0.68,0.31c-0.39,0.148-0.788,0.272-1.193,0.37
				c-0.206,0.052-0.4,0.123-0.613,0.162c-1.275,0.261-2.591,0.261-3.867,0c-0.21-0.039-0.409-0.108-0.612-0.162
				c-0.405-0.099-0.804-0.223-1.193-0.37c-0.233-0.091-0.455-0.2-0.68-0.31c-0.332-0.157-0.654-0.332-0.967-0.524
				c-0.228-0.141-0.447-0.289-0.659-0.445c-0.278-0.206-0.545-0.426-0.801-0.659c-0.199-0.185-0.411-0.368-0.6-0.568
				c-0.227-0.249-0.439-0.508-0.64-0.778c-0.17-0.222-0.355-0.432-0.507-0.669c-0.195-0.317-0.372-0.644-0.532-0.979
				c-0.214-0.426-0.397-0.866-0.549-1.318c-0.113-0.308-0.211-0.621-0.291-0.938c1.298-5.492,6.803-8.891,12.295-7.593
				c2.465,0.583,4.627,2.061,6.063,4.148V34.237c-0.085-0.037-0.168-0.075-0.256-0.106l-0.279-1.347l-2.137-10.318
				c-0.068-0.336-0.195-0.657-0.376-0.948c-0.538-0.876-1.493-1.41-2.521-1.41h-5.651c-1.404-0.001-2.615,0.985-2.9,2.36
				l-2.137,10.318l-0.279,1.347c-0.185,0.069-0.361,0.156-0.547,0.229c-0.291,0.116-0.58,0.235-0.867,0.364
				c-0.378,0.168-0.75,0.351-1.117,0.538c-0.274,0.139-0.55,0.279-0.817,0.428c-0.37,0.208-0.729,0.432-1.083,0.659
				c-0.247,0.158-0.5,0.308-0.742,0.474c-0.395,0.272-0.772,0.565-1.151,0.861c-0.184,0.143-0.377,0.274-0.556,0.424
				c-0.008,0.006-0.016,0.012-0.022,0.019l-11.316-3.742c-1.333-0.441-2.792,0.115-3.493,1.331l-2.825,4.894
				c-0.149,0.269-0.257,0.559-0.315,0.861c-0.018,0.104-0.03,0.208-0.037,0.312c-0.02,0.112-0.032,0.224-0.039,0.337v4.634
				c-0.022,0.867,0.338,1.701,0.985,2.279l8.559,7.626v3.844l-8.559,7.626c-0.224,0.206-0.412,0.445-0.562,0.709
				c-0.036,0.06-0.069,0.122-0.1,0.185c-0.129,0.252-0.221,0.521-0.272,0.8c-0.01,0.056-0.006,0.11-0.015,0.166
				c-0.021,0.138-0.033,0.278-0.035,0.418v4.634c-0.008,0.529,0.128,1.051,0.394,1.509l2.824,4.894
				c0.701,1.216,2.161,1.772,3.493,1.331l11.316-3.742c2.056,1.715,4.389,3.065,6.899,3.994l2.416,11.665
				c0.285,1.375,1.496,2.36,2.9,2.36h5.651c1.403,0,2.615-0.985,2.899-2.36l2.416-11.665c0.087-0.033,0.168-0.075,0.256-0.108
				V62.048H282.328z"/>
			<g id="Group_6201" transform="translate(240.859 11.79)">
				<path id="Path_17420" fill="#D1D3D4" d="M56.597,36.55l8.56-7.626c0.647-0.578,1.009-1.411,0.988-2.279v-4.634
					c0.008-0.53-0.129-1.052-0.394-1.511l-2.825-4.894c-0.701-1.216-2.16-1.772-3.493-1.331l-11.315,3.742
					c-2.056-1.715-4.39-3.065-6.9-3.994L38.801,2.358c-0.284-1.375-1.496-2.361-2.899-2.36H30.25c-1.404,0-2.615,0.985-2.9,2.36
					l-2.415,11.67c-2.511,0.928-4.844,2.279-6.899,3.994L6.719,14.28c-1.332-0.441-2.791,0.115-3.493,1.331l-2.824,4.894
					c-0.264,0.459-0.399,0.981-0.394,1.511v4.634c-0.022,0.867,0.338,1.701,0.985,2.279l8.559,7.626v3.844l-8.559,7.626
					c-0.647,0.578-1.008,1.411-0.985,2.279v4.624C0,55.458,0.136,55.98,0.401,56.439l2.824,4.894
					c0.701,1.216,2.161,1.772,3.493,1.331l11.316-3.742c2.056,1.714,4.389,3.065,6.899,3.994l2.416,11.665
					c0.285,1.375,1.496,2.361,2.9,2.36h5.651c1.403,0.001,2.615-0.985,2.899-2.36l2.416-11.665c2.511-0.928,4.845-2.279,6.9-3.994
					l11.315,3.742c1.333,0.441,2.792-0.115,3.493-1.331l2.825-4.894c0.264-0.459,0.399-0.981,0.393-1.511v-4.63
					c0.022-0.868-0.339-1.702-0.987-2.279l-8.56-7.626L56.597,36.55L56.597,36.55z M33.073,46.363
					c-4.752-0.002-8.879-3.269-9.974-7.892c1.301-5.508,6.819-8.919,12.327-7.619c3.778,0.892,6.728,3.841,7.619,7.619
					C41.951,43.094,37.825,46.36,33.073,46.363L33.073,46.363z"/>
				<g id="Group_6200" transform="translate(0 0.004)">
					<g id="Group_6197" transform="translate(24.714)">
						<path id="Path_17421" fill="#FFFFFF" d="M16.719,15.09H0L2.636,2.358c0.285-1.375,1.496-2.361,2.9-2.36h5.651
							c1.403-0.001,2.615,0.985,2.899,2.36L16.719,15.09z"/>
						<path id="Path_17422" fill="#FFFFFF" d="M0,57.111h16.719l-2.64,12.732c-0.284,1.375-1.496,2.361-2.9,2.36h-5.65
							c-1.404,0.001-2.615-0.985-2.9-2.36L0,57.111z"/>
					</g>
					<g id="Group_6198" transform="translate(0 14.122)">
						<path id="Path_17423" fill="#FFFFFF" d="M10.7,25.245l8.359,14.48L6.715,43.808c-1.332,0.441-2.792-0.115-3.493-1.331
							l-2.824-4.894c-0.701-1.215-0.453-2.755,0.595-3.688L10.7,25.245z"/>
						<path id="Path_17424" fill="#FFFFFF" d="M55.45,18.712l-8.36-14.48l12.345-4.083c1.333-0.441,2.792,0.115,3.493,1.331
							l2.825,4.894c0.701,1.215,0.452,2.755-0.595,3.688L55.45,18.712z"/>
					</g>
					<g id="Group_6199" transform="translate(0 14.124)">
						<path id="Path_17425" fill="#FFFFFF" d="M47.09,39.72l8.36-14.48l9.709,8.649c1.047,0.933,1.296,2.473,0.595,3.688
							l-2.825,4.894c-0.701,1.215-2.16,1.771-3.493,1.331L47.09,39.72z"/>
						<path id="Path_17426" fill="#FFFFFF" d="M19.06,4.232L10.7,18.712l-9.709-8.651c-1.048-0.933-1.296-2.473-0.595-3.688
							l2.824-4.894c0.702-1.215,2.161-1.771,3.493-1.331L19.06,4.232z"/>
					</g>
				</g>
				<path id="Path_17427" fill="#FFFFFF" d="M33.074,12.579c-12.993,0-23.526,10.533-23.526,23.526
					c0,12.993,10.533,23.526,23.526,23.526S56.6,49.098,56.6,36.105C56.6,23.112,46.067,12.579,33.074,12.579L33.074,12.579z
					 M33.074,46.362c-5.666,0-10.258-4.593-10.258-10.258c0-5.665,4.592-10.258,10.258-10.258c5.665,0,10.258,4.593,10.258,10.258
					l0,0C43.332,41.769,38.739,46.362,33.074,46.362z"/>
				<path id="Path_17428" fill="#E6E7E8" d="M33.074,12.579c-12.993,0-23.526,10.533-23.526,23.526
					c0,12.993,10.533,23.526,23.526,23.526S56.6,49.098,56.6,36.105C56.6,23.112,46.067,12.579,33.074,12.579L33.074,12.579z
					 M33.074,54.157c-9.97,0-18.052-8.081-18.052-18.05c-0.001-9.969,8.08-18.051,18.05-18.052c9.969,0,18.051,8.081,18.052,18.05
					c0,0.001,0,0.001,0,0.002C51.124,46.076,43.043,54.157,33.074,54.157L33.074,54.157z"/>
			</g>
			<path id="Path_17429" fill="#009ADD" d="M195.723,64.171h-67.34c-1.832,0-3.317,1.485-3.318,3.318v76.315
				c0,1.833,1.485,3.318,3.318,3.318h67.34c1.832,0,3.317-1.485,3.317-3.318l0,0V67.489
				C199.041,65.657,197.555,64.172,195.723,64.171z"/>
			<g id="Group_6202" transform="translate(125.065 57.935)">
				<path id="Path_17430" fill="#E7AD27" d="M70.658,82.949H3.318c-1.832,0-3.317-1.484-3.318-3.316V6.968
					C0,5.136,1.485,3.65,3.318,3.65l0,0h67.34c1.832,0,3.317,1.485,3.317,3.318v72.665C73.974,81.465,72.489,82.949,70.658,82.949z"
					/>
				<path id="Path_17431" fill="#FFFFFF" d="M70.658,79.3H3.318C1.485,79.3,0,77.814,0,75.982V3.317
					c0-1.833,1.485-3.318,3.318-3.318l0,0h67.34c1.832,0,3.317,1.486,3.317,3.318v72.665C73.976,77.814,72.49,79.3,70.658,79.3z"/>
				<path id="Path_17432" fill="#F7CB15" d="M21.183,44.722L0.017,75.809C0.098,77.758,1.7,79.297,3.651,79.3h47.108L27.217,44.722
					c-1.132-1.667-3.401-2.099-5.067-0.966C21.769,44.014,21.441,44.342,21.183,44.722z"/>
				<path id="Path_17433" fill="#F7CB15" d="M73.974,38.256l-9.377-13.775c-1.136-1.666-3.406-2.096-5.072-0.961
					c-0.378,0.258-0.704,0.584-0.961,0.961L21.241,79.3h49.085c2.015,0,3.649-1.634,3.649-3.649l0,0V38.256H73.974z"/>
				<circle id="Ellipse_2118" fill="#F7CB15" cx="24.199" cy="23.433" r="9.351"/>
			</g>
			<path id="Path_17434" fill="#009ADD" d="M116.408,121.01c-0.737-2.384-1.923-4.604-3.495-6.543V72.108
				c0-4.438-3.599-8.036-8.037-8.035h-49.4c-4.438,0-8.036,3.597-8.037,8.035v66.977c0,4.438,3.599,8.035,8.037,8.035l0,0h30.466
				c9.097,6.273,21.557,3.983,27.83-5.114c2.305-3.342,3.538-7.306,3.537-11.366v-3.676
				C117.31,124.946,117.006,122.938,116.408,121.01z"/>
			<g id="Group_6208" transform="translate(47.44 57.835)">
				<g id="Group_6204">
					<path id="Path_17435" fill="#D1D3D4" d="M57.436,83.048h-49.4c-4.439-0.002-8.036-3.602-8.034-8.04l0,0v-60.95
						c0-4.438,3.599-8.036,8.037-8.037h49.4c4.438,0.001,8.036,3.599,8.035,8.037l0,0v60.95c0.001,4.439-3.597,8.039-8.036,8.04
						C57.438,83.048,57.437,83.048,57.436,83.048z"/>
					<path id="Path_17436" fill="#FFFFFF" d="M57.436,77.021h-49.4c-4.439-0.002-8.036-3.602-8.034-8.041V8.03
						c0-4.438,3.599-8.036,8.037-8.035l0,0h49.4c4.438,0,8.035,3.598,8.035,8.035l0,0v60.95c0.001,4.439-3.596,8.04-8.035,8.041
						C57.438,77.021,57.437,77.021,57.436,77.021z"/>
					<g id="Group_6203" transform="translate(8.366 32.21)">
						<path id="Path_17437" fill="#D1D3D4" d="M45.765,5.953H2.978c-1.644,0-2.977-1.333-2.977-2.977l0,0l0,0
							c0-1.644,1.333-2.977,2.977-2.977h42.788c1.645,0,2.977,1.333,2.977,2.977l0,0C48.743,4.62,47.41,5.953,45.765,5.953
							C45.766,5.953,45.765,5.953,45.765,5.953z"/>
						<path id="Path_17438" fill="#D1D3D4" d="M45.765,19.71H2.978c-1.644,0-2.977-1.333-2.977-2.977l0,0l0,0
							c0-1.644,1.333-2.977,2.977-2.977l0,0h42.788c1.645,0,2.977,1.333,2.977,2.977l0,0l0,0
							C48.743,18.377,47.41,19.71,45.765,19.71C45.766,19.71,45.765,19.71,45.765,19.71z"/>
						<path id="Path_17439" fill="#D1D3D4" d="M45.765,33.466H2.978c-1.644,0-2.977-1.333-2.977-2.977l0,0l0,0
							c0-1.644,1.333-2.977,2.977-2.977l0,0h42.788c1.645,0,2.977,1.333,2.977,2.977l0,0l0,0
							C48.743,32.133,47.41,33.466,45.765,33.466C45.766,33.466,45.765,33.466,45.765,33.466z"/>
					</g>
					<path id="Path_17440" fill="#D1D3D4" d="M54.925,8.092H10.544c-1.206,0-2.183,0.978-2.183,2.183v10.73
						c0,1.206,0.978,2.183,2.183,2.183H54.92c1.206,0,2.183-0.977,2.183-2.183v-10.73C57.103,9.072,56.129,8.095,54.925,8.092z"/>
				</g>
				<path id="Path_17441" fill="#BCBEC0" d="M65.473,56.631c-0.06-0.077-0.114-0.16-0.177-0.235
					c-0.816-0.988-1.724-1.897-2.713-2.713c-0.495-0.407-1.008-0.791-1.541-1.152c-6.765-4.557-15.617-4.557-22.382,0
					c-0.534,0.36-1.047,0.744-1.541,1.152c-0.495,0.407-0.969,0.84-1.422,1.291c-0.453,0.451-0.884,0.927-1.291,1.422
					c-2.961,3.582-4.579,8.085-4.572,12.732v3.676c0.001,3.609,0.983,7.151,2.842,10.245h24.761c4.438,0,8.036-3.597,8.037-8.035
					L65.473,56.631L65.473,56.631z"/>
				<g id="Group_6207" transform="translate(29.833 42.875)">
					<g id="Group_6205">
						<path id="Path_17442" fill="#E43D91" d="M0,23.693c0,11.055,8.962,20.016,20.017,20.016s20.017-8.961,20.017-20.016v-3.676
							C40.033,8.962,31.071,0,20.017,0S0,8.962,0,20.017V23.693z"/>
						<circle id="Ellipse_2119" fill="#EF5A9D" cx="20.016" cy="20.015" r="20.016"/>
					</g>
					<g id="Group_6206" transform="translate(14.349 10.796)">
						<path id="Path_17443" fill="#E43D91" d="M0,18.468V5.404c0-1.275,1.034-2.309,2.309-2.309c0.484,0,0.957,0.152,1.35,0.436
							l9.064,6.534c1.035,0.746,1.269,2.189,0.523,3.223c-0.145,0.201-0.322,0.378-0.523,0.523l-9.064,6.534
							c-1.034,0.746-2.478,0.511-3.223-0.523C0.152,19.427-0.001,18.954,0,18.468z"/>
						<path id="Path_17444" fill="#FFFFFF" d="M0,15.381V2.313c0-1.275,1.034-2.309,2.309-2.309c0.484,0,0.957,0.153,1.35,0.436
							l9.064,6.534c1.035,0.746,1.269,2.189,0.523,3.224c-0.145,0.201-0.322,0.377-0.523,0.522l-9.064,6.534
							C2.626,18,1.183,17.767,0.437,16.734C0.152,16.34,0,15.866,0,15.381z"/>
						<path id="Path_17445" fill="#D1D3D4" d="M12.723,8.934l-9.064,6.534c-1.033,0.746-2.476,0.513-3.222-0.52
							C0.152,14.553-0.001,14.079,0,13.592v1.786c0,1.275,1.034,2.309,2.309,2.309c0.484,0,0.957-0.152,1.35-0.436l9.064-6.534
							c0.871-0.63,1.189-1.779,0.767-2.767C13.332,8.343,13.066,8.684,12.723,8.934z"/>
					</g>
				</g>
			</g>
		</g>
	</g>
</g>
</svg>
