<svg xmlns="http://www.w3.org/2000/svg" width="1118.493" height="395.205" viewBox="0 0 1118.493 395.205">
  <g id="Group_5432" data-name="Group 5432" transform="translate(-394.247 -246.449)">
    <g id="Group_3175" data-name="Group 3175" transform="translate(394.247 246.448)">
      <g id="Group_3174" data-name="Group 3174">
        <path id="Path_11864" data-name="Path 11864" d="M5194.8,4081.529q-181.14,44.832-362.294,89.654c-16.637,4.121-33.285,8.177-49.923,12.3a8.065,8.065,0,0,0-1.816.966h-3.184c3.835-13.471,9.632-26.155,14.506-39.208,7.881-21.1,15.932-42.126,23.909-63.182,2.878-2.577,6.385-1.749,9.656-1.749,71.55-.05,143.116.764,214.654-.317,48.4-.731,96.79-.382,145.182-.765C5188.678,4079.2,5192.314,4078.119,5194.8,4081.529Z" transform="translate(-4128.158 -3789.242)" fill="#d0021b"/>
        <path id="Path_11865" data-name="Path 11865" d="M4630.876,4036.9c4.037-7.027,9.181-9.982,14.825-8.514a12.865,12.865,0,0,1,9.411,11.818,12.718,12.718,0,0,1-8.418,12.538c-5.1,1.832-10.678-.133-13.9-4.937-.692-1.027-1.28-2.132-1.917-3.2Z" transform="translate(-4630.876 -3973.048)" fill="#d0021b"/>
        <path id="Path_11866" data-name="Path 11866" d="M5654.775,4282.675c-13.591-.088-27.187-.226-40.785-.244-30.733-.038-61.469-.327-92.2.05-80.177.986-160.358.139-240.532.465-1.762.005-3.524.169-5.286.262q-32.889,0-65.776,0-142.452,0-284.912.01-137.67.04-275.35.3c-5.466.013-6.6-1.5-6.586-6.963q.266-123.561.008-247.126c-.008-5.1,1.268-6.388,6.13-6.213,51.395,1.817,102.792,3.4,154.189,5.05q47.156,1.512,94.31,3.032,90.322,3.073,180.637,6.217c29.319.981,58.646,1.647,87.96,2.6,40.084,1.293,80.159,2.764,120.236,4.077q74.187,2.425,148.365,4.713,50.594,1.622,101.183,3.3,50.066,1.643,100.132,3.309c5.646.194,11.288.677,16.936.686,2.93,0,3.5,1.279,3.474,3.967q-.439,57.776-.753,115.551-.165,26.967-.335,53.923c-.085,16.145-.095,32.286-.209,48.431C5655.6,4279.613,5656.353,4281.405,5654.775,4282.675Z" transform="translate(-4588.131 -3990.388)" fill="#f91f3a"/>
        <path id="Path_11867" data-name="Path 11867" d="M4997.494,4029.506q59.277,2.147,118.556,4.266c27.886.958,55.771,1.726,83.653,2.6q16.417.511,32.821,1.118c1.625.06,4.148-.584,3.949,2.183-.161,2.222-2.336,2.217-4.187,2.154-18.353-.612-36.709-1.171-55.062-1.786q-42.619-1.436-85.232-2.927-59.824-2.044-119.647-4.073-56.131-1.864-112.251-3.645-48.437-1.6-96.872-3.3c-1.856-.065-4.538.487-4.391-2.458.153-3.1,2.979-1.929,4.652-1.873q82.068,2.694,164.13,5.528,34.939,1.181,69.88,2.315Z" transform="translate(-4192.44 -3996.551)" fill="#d0021b"/>
        <path id="Path_11868" data-name="Path 11868" d="M4992.905,4087.493c-39.021,0-77.2.047-115.377-.014q-72.645-.1-145.289-.363c-4.061-.009-8.119-.235-12.18-.372-1.312-.046-2.5-.268-2.386-2.1.095-1.427,1.069-1.795,2.16-1.883,1.232-.1,2.475-.064,3.713-.06q134.422.275,268.854.566c5.877.009,6.423.75,4.4,6.209q-11.583,31.2-23.246,62.367c-.664,1.777-.975,4.829-3.365,3.939-2.636-.979-1.167-3.65-.427-5.644q10.549-28.366,21.108-56.737C4991.492,4091.723,4992.038,4090.017,4992.905,4087.493Z" transform="translate(-4333.478 -3776.125)" fill="#d0021b"/>
        <path id="Path_11869" data-name="Path 11869" d="M4950,4024.717q41.529,1.555,83.066,3.107,38.35,1.428,76.712,2.834c.7.028,1.412.087,2.118.1,1.481.032,3.121.25,2.92,2.182-.164,1.629-1.615,2.136-3.208,2.08-6.352-.229-12.709-.354-19.058-.593q-53.172-1.988-106.34-4.027-65.073-2.513-130.139-5.1c-22.041-.851-44.088-1.6-66.133-2.442-1.757-.066-4.572.813-4.383-2.289.178-2.94,2.895-1.966,4.679-1.9q53.965,2.031,107.923,4.124c17.278.654,34.562,1.233,51.844,1.85Z" transform="translate(-4100.896 -4007.461)" fill="#d0021b"/>
        <path id="Path_11870" data-name="Path 11870" d="M4702.651,4178.846c-19.084,0-38.167-.144-57.251.1-4.545.056-5.647-1.579-5.635-6,.138-36.677.076-73.354.081-110.026a24.685,24.685,0,0,1,.109-3.3,2.2,2.2,0,0,1,2.519-2.186c1.474.1,1.563,1.234,1.607,2.338.053,1.284.022,2.568.022,3.851,0,35.209.075,70.417-.089,105.626-.018,4.58.955,5.7,5.608,5.431,11.275-.643,22.6-.354,33.911-.437q38.7-.283,77.4-.558c1.411-.01,2.827.009,4.236.093a1.86,1.86,0,0,1,1.99,2.019c.022,1.437-.761,1.878-1.977,1.939-2.117.106-4.229.358-6.345.363q-28.094.041-56.187.015Z" transform="translate(-4600.412 -3867.115)" fill="#d0021b"/>
        <path id="Path_11871" data-name="Path 11871" d="M4969.794,4115.8c0,16.864-.154,33.726.1,50.588.076,4.843-1.17,6.945-6.016,8.171-36.143,9.136-72.2,18.645-108.282,28.029-.855.226-1.757.279-2.59.57-1.576.543-3.539,1.117-4.073-.879-.628-2.329,1.611-2.942,3.286-3.392,7.338-1.962,14.7-3.839,22.055-5.737,28.912-7.459,57.808-14.979,86.754-22.293,3.713-.938,4.962-2.449,4.962-6.553-.007-33.552.259-67.1.435-100.655.008-1.1,0-2.2.035-3.3.055-1.528.89-2.46,2.311-2.323a2.074,2.074,0,0,1,1.881,2.235c0,.732.027,1.468.027,2.2V4115.8Z" transform="translate(-3884.052 -3865.003)" fill="#d0021b"/>
        <path id="Path_11872" data-name="Path 11872" d="M4802.319,4087.411h90.653c.7,0,1.414-.018,2.12.009,1.58.064,3.569-.083,3.444,2.263-.112,2.153-1.988,2.178-3.626,2.169q-14.042-.091-28.086-.176c-1.59-.013-3.174-.169-4.764-.175q-75.541-.3-151.089-.575c-1.059,0-2.12.01-3.18-.013-1.162-.023-2.1-.4-2.146-1.819a1.971,1.971,0,0,1,1.8-2.272,39.393,39.393,0,0,1,4.227-.144q45.324-.006,90.649,0Z" transform="translate(-4374.67 -3761.762)" fill="#d0021b"/>
        <path id="Path_11873" data-name="Path 11873" d="M4760.117,4016.079a12.2,12.2,0,0,1,12,12.55,12.545,12.545,0,0,1-12.119,12.6c-6.827.064-12.458-5.913-12.25-13A12.11,12.11,0,0,1,4760.117,4016.079Z" transform="translate(-4230.436 -4016.079)" fill="#d0021b"/>
        <path id="Path_11874" data-name="Path 11874" d="M4898.517,4058.407c0,2,.013,4.008,0,6.015-.049,5.96-.688,6.4-5.507,3.586-3.814-2.232-7.537-4.626-11.357-6.853-3.537-2.062-3.086-3.912.092-5.818,4.1-2.448,8.137-5,12.271-7.382,2.863-1.642,4.709-1.2,4.522,2.8C4898.42,4053.3,4898.517,4055.857,4898.517,4058.407Z" transform="translate(-3780.054 -3904.465)" fill="#d0021b"/>
        <path id="Path_11875" data-name="Path 11875" d="M4689.4,4095.061c.64-2.987-1.833-7.834,1.169-9.8,3.426-2.241,6.506,2.187,9.592,3.885,12.808,7.047,10.627,6.808.126,13.218-1.508.92-3.045,1.8-4.562,2.706-5.561,3.332-6.3,2.863-6.326-4.022C4689.4,4099.226,4689.4,4097.4,4689.4,4095.061Z" transform="translate(-4431.546 -3769.085)" fill="#d0021b"/>
        <path id="Path_11876" data-name="Path 11876" d="M4639.542,4045.5a8.251,8.251,0,0,1,.616-16.486,8.419,8.419,0,0,1,7.606,8.289A8.332,8.332,0,0,1,4639.542,4045.5Z" transform="translate(-4627.701 -3969.542)" fill="#d0021b"/>
        <path id="Path_11877" data-name="Path 11877" d="M4653.671,4028.3c44.893,1.417,88.849,2.775,132.807,4.211,31.77,1.04,63.54,2.2,95.31,3.278q66.459,2.236,132.913,4.418c10.77.358,21.536.694,32.306,1.126,1.789.075,4.694-.539,4.665,2.095-.025,2.72-2.8,2.7-5,2.623q-47.646-1.635-95.3-3.254-66.462-2.229-132.918-4.433-47.662-1.6-95.32-3.267-33.883-1.148-67.78-2.222c-.351-.014-.77.1-1.048-.061-1.8-1.008-5.6.931-5.38-2.665C4649.146,4026.681,4652.683,4028.844,4653.671,4028.3Z" transform="translate(-4569.044 -4021.122)" fill="#d0021b"/>
        <path id="Path_11878" data-name="Path 11878" d="M4764.557,4025.428c-.117,4.459-4.016,8.274-8.283,8.1-4.2-.167-7.806-4.354-7.56-8.79a7.95,7.95,0,0,1,7.953-7.742A8.153,8.153,0,0,1,4764.557,4025.428Z" transform="translate(-4227.124 -4012.751)" fill="#d0021b"/>
        <path id="Path_11879" data-name="Path 11879" d="M4880.629,4053.216c2.621-1.532,4.731-2.775,6.851-4,.425-.243.885-.427,1.688-.809v9.945A27.784,27.784,0,0,1,4880.629,4053.216Z" transform="translate(-3775.07 -3899.632)" fill="#d0021b"/>
        <path id="Path_11880" data-name="Path 11880" d="M4698.944,4091.092l-8.764,5.292v-10.465Z" transform="translate(-4427.663 -3764.486)" fill="#d0021b"/>
      </g>
    </g>
  </g>
</svg>
