<svg xmlns="http://www.w3.org/2000/svg" width="167.479" height="172.221" viewBox="0 0 167.479 172.221">
  <g id="Group_3514" data-name="Group 3514" transform="translate(-760.436 -464.218)">
    <path id="Path_12507" data-name="Path 12507" d="M760.436,571.484a43.725,43.725,0,0,1,3.914-4.2,13.537,13.537,0,0,1,2.255-1.656,8.338,8.338,0,0,1,2.476-.952,6.832,6.832,0,0,1,3.754.333,3.533,3.533,0,0,1,2.312,2.448c.451,1.606-.641,2.642-2.078,3.715l-1.122.816c-.191.14-.384.282-.574.428s-.37.294-.551.448a6.887,6.887,0,0,0-1.787,2.172,5.319,5.319,0,0,1,2.6-.889,9.439,9.439,0,0,1,2.679-.052,3.242,3.242,0,0,1,1.5.78,5.594,5.594,0,0,1,1.094,1.271,1.83,1.83,0,0,1-.1,1.619,5.842,5.842,0,0,1-.639,1.1,7.1,7.1,0,0,1-1.063,1.146,8.534,8.534,0,0,1-3.708,1.769,10.133,10.133,0,0,1-2.047.259A13.115,13.115,0,0,0,772,583.173a12.118,12.118,0,0,0,1.242.314c.218.043.442.08.668.11s.468.047.706.059a8.288,8.288,0,0,0,2.9-.348,3.43,3.43,0,0,1,3.629.775,1.676,1.676,0,0,1-.43,2.7,15.562,15.562,0,0,0-3.125,2.848,12.68,12.68,0,0,0-1.027,1.426,12.214,12.214,0,0,0-.706,1.325,11.092,11.092,0,0,0-.717,2.09,6.512,6.512,0,0,0-.146.831,13.642,13.642,0,0,1,1.172-1.118A14.957,14.957,0,0,1,779.1,592.2a7.7,7.7,0,0,1,3.741-.939,4.867,4.867,0,0,1,3.673,1.834,2.864,2.864,0,0,1,.813,2.408,9.783,9.783,0,0,1-.841,2.633,16.786,16.786,0,0,0-1.026,2.768,5.026,5.026,0,0,0-.136,1.414,3.32,3.32,0,0,0,.375,1.4c.124-.291.244-.6.374-.925s.274-.655.429-.974a5.27,5.27,0,0,1,1.164-1.666,2.6,2.6,0,0,1,1.3-.621,3.205,3.205,0,0,1,.7-.042,4.555,4.555,0,0,1,2.95,1.221,2.725,2.725,0,0,1,.735,1.482,4.652,4.652,0,0,1-.157,1.8,45.555,45.555,0,0,1-1.626,4.339,11.635,11.635,0,0,0-.953,4.826,6.249,6.249,0,0,0,2.688,4.658,4.191,4.191,0,0,0,.418.3,7.978,7.978,0,0,1-.724-3.921,6.123,6.123,0,0,1,1.325-3.456,5.211,5.211,0,0,1,3.248-1.882,4.446,4.446,0,0,1,1.763.093,4.589,4.589,0,0,1,.843.315,4.671,4.671,0,0,1,.82.467,2.2,2.2,0,0,1,.91,1.977,6.58,6.58,0,0,1-.671,2.445,14.524,14.524,0,0,1-1.187,2.071c-.366.537-.643.875-.643.875a15.286,15.286,0,0,0,2.56-.5,17.493,17.493,0,0,0,2.51-.9,16.035,16.035,0,0,0,2.764-1.63,2.277,2.277,0,0,1,2.6-.118c1.594.814,2.177,1.838,1.237,3.759-.233.473-.648,1.107-.891,1.6a3.422,3.422,0,0,0-.047,2.02,3.737,3.737,0,0,0,1.072,1.968,7.41,7.41,0,0,1,.6-2.382,4.145,4.145,0,0,1,2.185-2.139,3.513,3.513,0,0,1,1.3-.266,4.7,4.7,0,0,1,.628.043,2.736,2.736,0,0,1,.587.157,3.383,3.383,0,0,1,1.45,1.16,5.38,5.38,0,0,1,.826,1.716,5.854,5.854,0,0,1,1.96-2.048c.315.357.634.71.871,1.041a6.235,6.235,0,0,0,.823,6.075,7.66,7.66,0,0,1,.282-2.863,5.773,5.773,0,0,1,2.314-3.3,4.084,4.084,0,0,1,1.548-.6,3.79,3.79,0,0,1,1.614.018,3.166,3.166,0,0,1,1.579.845,4.15,4.15,0,0,1,.533.662,5.054,5.054,0,0,1,.41.8,30.725,30.725,0,0,1,1.1,4.383,21.818,21.818,0,0,0,.742,2.614,13.2,13.2,0,0,0,1.3,2.628,11.957,11.957,0,0,0,2.192,2.521,14.89,14.89,0,0,0,3.435,2.085,44.688,44.688,0,0,1-2.8-4.995,13.223,13.223,0,0,1-.881-2.679,8.3,8.3,0,0,1-.147-2.645,6.654,6.654,0,0,1,1.467-3.448,3.586,3.586,0,0,1,3.045-1.476,2.527,2.527,0,0,1,1.857.966,7.221,7.221,0,0,1,1.041,2.16c.288.845.554,1.772.917,2.661a9.336,9.336,0,0,0,.635,1.288,5.428,5.428,0,0,0,.877,1.1,5.318,5.318,0,0,1-.04-2.75,9.532,9.532,0,0,1,.779-2.575,3.254,3.254,0,0,1,1.208-1.2,7.03,7.03,0,0,1,1.55-.618c.77-.218,2.212.776,3.12,2.914a8.56,8.56,0,0,1,.53,4.078,9.881,9.881,0,0,1-.391,2.008s.24-.2.6-.561a13.035,13.035,0,0,0,1.3-1.594A9.445,9.445,0,0,0,856,623.886a3.52,3.52,0,0,1,1.858-3.248,1.7,1.7,0,0,1,1.422-.02,1.922,1.922,0,0,1,1.017,1.3,14.045,14.045,0,0,0,3.812,6.352,12.045,12.045,0,0,0,.969.814,8.831,8.831,0,0,0,.8.527,6.326,6.326,0,0,0,.741.384,13.476,13.476,0,0,1-.7-1.456,14.933,14.933,0,0,1-.978-3.406,7.875,7.875,0,0,1,.26-3.876,4.584,4.584,0,0,1,1.028-1.637,6.319,6.319,0,0,1,.809-.7,5.9,5.9,0,0,1,1.044-.585,3.022,3.022,0,0,1,1.344-.276,2.708,2.708,0,0,1,.313.029,2.888,2.888,0,0,1,.3.05,3.275,3.275,0,0,1,.587.193,9.049,9.049,0,0,1,2.238,1.6,17.17,17.17,0,0,0,2.328,1.863,4.061,4.061,0,0,0,2.738.61,9.783,9.783,0,0,1-2.779-2.959,3.043,3.043,0,0,1,.279-2.766,4.7,4.7,0,0,1,.846-1.065,4.01,4.01,0,0,1,.931-.708,3.189,3.189,0,0,1,3.306.48,43.262,43.262,0,0,1,3.609,2.851,18.014,18.014,0,0,0,2.048,1.454,8,8,0,0,0,2.264.961,6.028,6.028,0,0,0,2.506.067,6.815,6.815,0,0,0,1.357-.4,8.3,8.3,0,0,0,1.385-.808c.138-.1.273-.2.408-.31a8.057,8.057,0,0,1-2.017.015q-.248-.03-.492-.075c-.165-.034-.329-.073-.491-.117a7.764,7.764,0,0,1-.941-.323,6.23,6.23,0,0,1-2.894-2.344,5.1,5.1,0,0,1-.775-3.645,4.661,4.661,0,0,1,.24-.847,4.475,4.475,0,0,1,1.641-2.15,2.2,2.2,0,0,1,1.069-.4,2.486,2.486,0,0,1,1.09.143,6.4,6.4,0,0,1,2.109,1.375,14.618,14.618,0,0,1,1.608,1.77c.4.514.634.881.634.881a14.881,14.881,0,0,0,.338-2.558,16.926,16.926,0,0,0-.791-5.806,2.376,2.376,0,0,1,.666-2.53,4.578,4.578,0,0,1,.957-.726,2.352,2.352,0,0,1,.946-.288,2.792,2.792,0,0,1,2.067,1.009c.378.368.855.959,1.245,1.342a3.334,3.334,0,0,0,1.892.653,3.863,3.863,0,0,0,2.231-.385,7.5,7.5,0,0,1-2.089-1.309,4.289,4.289,0,0,1-.979-1.323,3.906,3.906,0,0,1-.252-.7,4.037,4.037,0,0,1-.126-.711,3.265,3.265,0,0,1,.707-2.417,3.138,3.138,0,0,1,.713-.6,3.738,3.738,0,0,1,.838-.42,4.847,4.847,0,0,1,1.877-.263,5.905,5.905,0,0,1-1.348-2.576,8.724,8.724,0,0,1-.237-1.779,12.915,12.915,0,0,0,1.515,1.357,6.339,6.339,0,0,0,6.048,1.112,7.766,7.766,0,0,1-2.645-1.164,5.813,5.813,0,0,1-2.418-3.223,3.915,3.915,0,0,1,.44-3.182,3.33,3.33,0,0,1,2.968-1.688,9.416,9.416,0,0,1,1.007-.005c.349.014.706.038,1.081.072.749.068,1.556.168,2.411.245a22.369,22.369,0,0,0,2.7.1c.472-.015.954-.05,1.445-.114a10.793,10.793,0,0,0,1.489-.29,11.838,11.838,0,0,0,3.045-1.317q.389-.236.78-.512a8.7,8.7,0,0,0,.775-.6,16.333,16.333,0,0,0,1.5-1.5,38.956,38.956,0,0,1-5.616,1.111,10.458,10.458,0,0,1-5.373-.673,6.754,6.754,0,0,1-2.84-2.474,4.183,4.183,0,0,1-.614-1.626,3.15,3.15,0,0,1,.168-1.718,2.409,2.409,0,0,1,1.518-1.455,7.1,7.1,0,0,1,2.361-.325c1.776-.029,3.842.138,5.558-.75a5.327,5.327,0,0,1-2.629-.81,9.748,9.748,0,0,1-2.211-1.535,4.084,4.084,0,0,1-.883-3.182,1.835,1.835,0,0,1,1-1.258,6.239,6.239,0,0,1,2.709-.818,8.552,8.552,0,0,1,4.042.747,9.942,9.942,0,0,1,1.8.99s-.118-.291-.355-.744a11.107,11.107,0,0,0-1.1-1.722,9.538,9.538,0,0,0-4.389-3.351,3.926,3.926,0,0,1-1.781-1.188,2.96,2.96,0,0,1-.729-1.575c-.115-1.039.535-1.95,1.978-1.929a13.949,13.949,0,0,0,7.194-1.678,11.356,11.356,0,0,0,1.832-1.267,5.6,5.6,0,0,0,.455-.424c.1-.1.147-.161.147-.161a13.457,13.457,0,0,1-1.6.216,14.982,14.982,0,0,1-3.544-.118,7.949,7.949,0,0,1-3.619-1.441,4.663,4.663,0,0,1-1.258-1.485,4.732,4.732,0,0,1-.388-.986,7.108,7.108,0,0,1-.242-1.175,2.9,2.9,0,0,1,.789-2.427,6.566,6.566,0,0,1,1-.864c.374-.266.786-.517,1.209-.767a16.949,16.949,0,0,0,2.471-1.634,3.892,3.892,0,0,0,1.456-2.415c-.544.325-1.135.728-1.751,1.061a5.26,5.26,0,0,1-1.922.66,2.6,2.6,0,0,1-1.415-.265,3.766,3.766,0,0,1-1.134-.858,4.391,4.391,0,0,1-1.125-2.243,3.254,3.254,0,0,1,.006-.86,2.494,2.494,0,0,1,.263-.768,4.683,4.683,0,0,1,1.187-1.36,17.026,17.026,0,0,1,1.8-1.254c.666-.418,1.38-.842,2.067-1.3a11.633,11.633,0,0,0,3.612-3.344,6.249,6.249,0,0,0,.561-5.353,4.786,4.786,0,0,0-.161-.487,8.017,8.017,0,0,1-1.72,3.6,6.117,6.117,0,0,1-3.1,2.017,5.213,5.213,0,0,1-3.734-.387,4.443,4.443,0,0,1-1.371-1.11,4.316,4.316,0,0,1-.495-.75,4.7,4.7,0,0,1-.39-.859c-.543-1.6.867-2.849,2.4-3.719a14.6,14.6,0,0,1,2.179-.981c.612-.22,1.035-.331,1.035-.331a15.31,15.31,0,0,0-2.369-1.1,17.481,17.481,0,0,0-2.563-.743,13.925,13.925,0,0,0-1.535-.229,15.828,15.828,0,0,0-1.655-.075A2.277,2.277,0,0,1,910.685,518a3.025,3.025,0,0,1-.41-2.106,2.853,2.853,0,0,1,1.613-1.663c.466-.246,1.174-.516,1.658-.77a3.414,3.414,0,0,0,1.221-1.608,4.409,4.409,0,0,0,.328-1.153,2.744,2.744,0,0,0-.037-1.071,7.4,7.4,0,0,1-1.879,1.579,4.155,4.155,0,0,1-3.027.452,3.46,3.46,0,0,1-2.069-1.423,3.377,3.377,0,0,1-.5-1.789,4.78,4.78,0,0,1,.087-.962c.03-.159.068-.316.112-.47s.088-.3.143-.444a6.091,6.091,0,0,1-2.893.51,2.92,2.92,0,0,1-1.32-.554,11.343,11.343,0,0,0,1.327-.8,6.244,6.244,0,0,0,2.9-5.4,7.663,7.663,0,0,1-1.911,2.15,5.768,5.768,0,0,1-3.812,1.311,4.137,4.137,0,0,1-1.61-.422,3.792,3.792,0,0,1-1.293-.966,3.176,3.176,0,0,1-.779-1.614,4.126,4.126,0,0,1,.1-1.739,30.756,30.756,0,0,1,1.693-4.2,15.734,15.734,0,0,0,1.433-5.437,11.976,11.976,0,0,0-.017-1.61q-.032-.417-.1-.849c-.046-.285-.109-.568-.181-.859a14.722,14.722,0,0,0-1.534-3.725,44.159,44.159,0,0,1-.694,5.7,13.249,13.249,0,0,1-.854,2.67,8.322,8.322,0,0,1-1.441,2.225,6.762,6.762,0,0,1-1.49,1.2,6.677,6.677,0,0,1-.848.428,6.1,6.1,0,0,1-.89.3,3.543,3.543,0,0,1-3.314-.618c-1.308-1.038-1.035-2.517-.5-4.23s1.322-3.613.995-5.5a5.32,5.32,0,0,1-1.585,2.248,9.427,9.427,0,0,1-2.137,1.614,3.332,3.332,0,0,1-1.677.254,5.589,5.589,0,0,1-1.63-.39,1.836,1.836,0,0,1-.867-1.373,5.693,5.693,0,0,1-.133-1.261,7.131,7.131,0,0,1,.189-1.553,8.541,8.541,0,0,1,1.965-3.608,10.109,10.109,0,0,1,1.5-1.409,13.076,13.076,0,0,0-2.8.625,10.355,10.355,0,0,0-2.4,1.149,8.268,8.268,0,0,0-2.145,1.982,3.935,3.935,0,0,1-1.687,1.332,3.153,3.153,0,0,1-.886.216,3.113,3.113,0,0,1-.822-.044,1.681,1.681,0,0,1-1.234-2.445,15.592,15.592,0,0,0,.861-4.142c.02-.313.029-.617.028-.911s-.015-.57-.036-.84a12.258,12.258,0,0,0-.206-1.488,11.1,11.1,0,0,0-.645-2.116,6.554,6.554,0,0,0-.369-.759,13.668,13.668,0,0,1-.293,1.594,14.968,14.968,0,0,1-1.21,3.333,7.752,7.752,0,0,1-2.478,2.959,4.872,4.872,0,0,1-4.047.672,2.862,2.862,0,0,1-2.071-1.47,9.806,9.806,0,0,1-.866-2.626,16.719,16.719,0,0,0-.8-2.84,5.006,5.006,0,0,0-.723-1.222,3.836,3.836,0,0,0-.5-.509,2.894,2.894,0,0,0-.623-.41c.145.608.342,1.318.467,2.015a5.271,5.271,0,0,1,.039,2.031,2.609,2.609,0,0,1-.687,1.268,3.948,3.948,0,0,1-1.16.791,4.426,4.426,0,0,1-2.483.4,2.567,2.567,0,0,1-.814-.288,2.751,2.751,0,0,1-.651-.486,4.61,4.61,0,0,1-.932-1.537,44.262,44.262,0,0,1-1.241-4.464,16.483,16.483,0,0,0-.8-2.366,8.475,8.475,0,0,0-1.268-2.093,6.158,6.158,0,0,0-1.985-1.561,7.531,7.531,0,0,0-2.928-.611c-.169,0-.339,0-.512,0a7.983,7.983,0,0,1,2.892,2.72,6.425,6.425,0,0,1,.766,1.754,5.754,5.754,0,0,1,.2,1.842,5.345,5.345,0,0,1-.47,1.914,5.12,5.12,0,0,1-.46.8,4.909,4.909,0,0,1-.586.7,4.443,4.443,0,0,1-3.286,1.3c-1.692.045-2.443-1.673-2.794-3.4a14.65,14.65,0,0,1-.258-2.379c-.02-.65.006-1.084.006-1.084s-.2.166-.524.48c-.162.157-.354.35-.567.581s-.445.516-.688.825a16.778,16.778,0,0,0-2.783,5.132,2.331,2.331,0,0,1-2.026,1.664,3.253,3.253,0,0,1-2.134-.3,2.8,2.8,0,0,1-1.077-2.035c-.089-.52-.126-1.278-.217-1.817a3.34,3.34,0,0,0-1.146-1.644,3.878,3.878,0,0,0-2.032-1.007,7.516,7.516,0,0,1,.919,2.289,4.194,4.194,0,0,1-.511,3.016,3.02,3.02,0,0,1-2.923,1.6,3.721,3.721,0,0,1-.924-.153,4.847,4.847,0,0,1-1.673-.891,5.907,5.907,0,0,1-.422,2.876,7.924,7.924,0,0,1-.863,1.508,12.766,12.766,0,0,0-.418-1.919,6.328,6.328,0,0,0-4.241-4.449,7.764,7.764,0,0,1,1.458,2.495,6.508,6.508,0,0,1,.393,2.178,5.215,5.215,0,0,1-.089.961,4.935,4.935,0,0,1-.24.884A3.9,3.9,0,0,1,816.666,483a3.342,3.342,0,0,1-3.392-.373,13.95,13.95,0,0,1-1.655-1.285c-.567-.494-1.161-1.047-1.808-1.61a16.446,16.446,0,0,0-4.744-3.063,11.809,11.809,0,0,0-3.235-.715,13.253,13.253,0,0,0-1.915-.015,16.3,16.3,0,0,0-2.1.338c.825.341,1.708.692,2.589,1.076.221.1.44.194.66.3s.443.214.663.325c.439.222.87.455,1.287.7a10.442,10.442,0,0,1,3.954,3.694,6.77,6.77,0,0,1,.85,3.672,4.2,4.2,0,0,1-.455,1.68,3.274,3.274,0,0,1-1.147,1.289,2.4,2.4,0,0,1-2.082.29,7.212,7.212,0,0,1-2.1-1.126c-1.455-1.019-3.029-2.366-4.937-2.655a5.325,5.325,0,0,1,1.652,2.2,9.728,9.728,0,0,1,.886,2.539,4.087,4.087,0,0,1-1.157,3.1c-.5.625-2.234.687-4.225-.5a8.552,8.552,0,0,1-2.829-2.982,9.959,9.959,0,0,1-.87-1.856s-.075.3-.151.81c-.038.253-.075.556-.1.9s-.03.735-.02,1.145a9.51,9.51,0,0,0,1.57,5.287,3.54,3.54,0,0,1,.4,3.715,1.7,1.7,0,0,1-1.135.857,1.958,1.958,0,0,1-1.591-.454,14.044,14.044,0,0,0-6.816-2.893,11.978,11.978,0,0,0-1.262-.088,8.465,8.465,0,0,0-.956.041,6.313,6.313,0,0,0-.825.125,13.484,13.484,0,0,1,1.42.768,14.955,14.955,0,0,1,2.793,2.181,7.865,7.865,0,0,1,2.067,3.289,4.585,4.585,0,0,1,.13,1.93,5.6,5.6,0,0,1-.746,2.128,3.031,3.031,0,0,1-.928,1.013,3.165,3.165,0,0,1-1.131.488,9.071,9.071,0,0,1-2.754.016,16.524,16.524,0,0,0-2.973-.139,4.075,4.075,0,0,0-2.58,1.109,9.807,9.807,0,0,1,3.989.768,3.033,3.033,0,0,1,1.394,2.4,4.858,4.858,0,0,1-.061,1.359,3.7,3.7,0,0,1-.335,1.121,2.489,2.489,0,0,1-1.19,1.152,5.069,5.069,0,0,1-1.767.4,43.384,43.384,0,0,1-4.6-.194,18.075,18.075,0,0,0-2.514.023,10.21,10.21,0,0,0-1.234.184,7.175,7.175,0,0,0-1.158.368,6.042,6.042,0,0,0-2.072,1.416,6.452,6.452,0,0,0-.861,1.124,8.665,8.665,0,0,0-.646,1.469c-.054.161-.1.323-.149.491a7.529,7.529,0,0,1,3.483-1.913,6.239,6.239,0,0,1,3.721.2,4.927,4.927,0,0,1,3.233,4.2,4.5,4.5,0,0,1-.23,1.822,2.245,2.245,0,0,1-.628.954,2.488,2.488,0,0,1-.965.524,6.406,6.406,0,0,1-2.515.126,14.619,14.619,0,0,1-2.341-.487c-.625-.182-1.03-.34-1.03-.34a14.841,14.841,0,0,0,1.229,2.269,16.861,16.861,0,0,0,4.057,4.231,2.38,2.38,0,0,1,.543.534,2.109,2.109,0,0,1,.179.3,2.265,2.265,0,0,1,.137.312,2.538,2.538,0,0,1,.089,1.294,3.019,3.019,0,0,1-.946,1.938,2.8,2.8,0,0,1-2.265.4c-.522-.075-1.256-.272-1.8-.351a3.311,3.311,0,0,0-1.909.587,3.834,3.834,0,0,0-1.567,1.626,7.481,7.481,0,0,1,2.457-.172,4.071,4.071,0,0,1,2.693,1.41,3.315,3.315,0,0,1,.868,2.371,2.929,2.929,0,0,1-.185.819,42.233,42.233,0,0,0-5.542,7.278,7.711,7.711,0,0,1,2.816-.614,5.7,5.7,0,0,1,3.838,1.186,4.528,4.528,0,0,1,.6.6,4.078,4.078,0,0,1,.476.684,3.769,3.769,0,0,1,.462,1.544,3.514,3.514,0,0,1-.05.949,3.2,3.2,0,0,1-.115.422,2.877,2.877,0,0,1-.151.391,4.059,4.059,0,0,1-1.1,1.348,31.025,31.025,0,0,1-3.85,2.4,20.357,20.357,0,0,0-2.237,1.5,13.325,13.325,0,0,0-2.115,2.047,12.013,12.013,0,0,0-.937,1.313c-.144.237-.294.487-.419.743s-.245.523-.357.8A14.64,14.64,0,0,0,760.436,571.484Zm19.406-23.777c0-.15.008-.308.012-.48.016-.425,0-.915.06-1.459s.088-1.148.138-1.805q.036-.493.076-1.025l.142-1.1.148-1.168.076-.61c.025-.206.049-.416.092-.625l.472-2.644a66.014,66.014,0,0,1,3.729-12.2,64.679,64.679,0,0,1,7.146-12.768c.7-1.036,1.5-2,2.262-2.979.372-.5.791-.958,1.2-1.427l1.211-1.4,1.267-1.33.628-.661.313-.329.328-.312,1.3-1.239.643-.613.668-.576a65.581,65.581,0,0,1,10.361-7.477c1.6-.967,3.153-1.711,4.5-2.408l1.941-.875.861-.392.8-.314,1.355-.534.546-.217,3.077-1.055c.141-.054.358-.111.639-.191l2.436-.693c.13-.041.267-.073.407-.1l.431-.1.922-.212,1-.232.528-.123.552-.1,2.385-.426c.105-.018.21-.04.317-.056l.324-.04.659-.082,1.364-.174a66.682,66.682,0,0,1,12.79-.214l.88.066.443.032c.147.014.294.037.442.055l1.781.228.9.112c.3.035.6.1.9.153l1.806.322c.608.092,1.205.245,1.808.384l1.812.416c.152.031.3.076.45.119l.448.128.9.256.9.254c.3.084.6.164.895.272a66.039,66.039,0,0,1,13.346,5.982,63.892,63.892,0,0,1,10.308,7.553c.362.3.682.628,1.009.934l.95.906c.633.575,1.174,1.179,1.7,1.727l.763.8c.122.13.247.252.36.381l.329.382,1.185,1.369c.178.207.351.4.507.586l.421.539.666.848s1.7,2.286,2.042,2.763c.168.24.383.53.623.88l.785,1.229.466.726.251.389c.087.132.173.268.252.413l1.061,1.848c.4.649.744,1.381,1.137,2.138l.6,1.167c.108.2.191.408.287.615l.285.633a63.82,63.82,0,0,1,4.15,12.065,66,66,0,0,1,1.745,14.537,64.059,64.059,0,0,1-1.548,14.562A64.8,64.8,0,0,1,904,575.83l-.565,1.252-.272.605-.3.577-1.1,2.157c-.372.663-.734,1.276-1.06,1.848l-.47.821c-.149.262-.316.5-.46.729-.328.507-.612.954-.857,1.337-.017.025-2.033,2.928-2.12,3.051-.045.061-.1.14-.164.228l-.24.3-1.567,2c-.347.422-.753.871-1.181,1.372l-.672.778c-.118.133-.23.276-.359.407l-.389.406-1.672,1.757-1.947,1.855a66.651,66.651,0,0,1-10.2,7.7,65.241,65.241,0,0,1-13.274,6.141c-1.172.43-2.384.73-3.576,1.08l-.448.128-.223.064-.227.052-.905.207-1.8.417c-.149.038-.3.066-.451.091l-.452.08-.9.16-.9.161-.446.081c-.148.028-.3.054-.447.07l-1.781.224-.881.113c-.146.018-.292.041-.438.054l-.439.032a67.865,67.865,0,0,1-12.8-.035l-2.665-.34c-.211-.027-.421-.05-.627-.08l-.6-.11-1.158-.208c-.748-.135-1.452-.243-2.089-.409l-1.761-.407c-.265-.063-.519-.114-.754-.176l-.656-.188-1.035-.295-.863-.244c-.121.142-.775-.116-1.563-.472l0-.032-.286-.1c-1.273-.587-2.76-1.328-2.938-1.069l-1.681-.664-1.939-.879-.528-.238c-.179-.08-.362-.159-.539-.255l-1.108-.57-1.168-.6-.3-.153-.3-.17-.6-.347a64.45,64.45,0,0,1-10.458-7.34l-1.34-1.158-1.3-1.24-.657-.625-.33-.314-.314-.331-1.267-1.33c-.21-.224-.43-.441-.635-.671l-.606-.7-1.22-1.407c-.1-.115-.2-.237-.3-.36l-.288-.368-.577-.736-.579-.736-.29-.367c-.1-.124-.182-.254-.273-.38a66.445,66.445,0,0,1-7.3-12.68,62.814,62.814,0,0,1-3.895-12.151c-.05-.228-.112-.452-.152-.677l-.118-.669-.23-1.291c-.073-.42-.156-.827-.216-1.227l-.146-1.168c-.092-.755-.195-1.46-.264-2.115l-.135-1.806c-.039-.545-.086-1.031-.108-1.455s-.018-.787-.025-1.08C779.834,551.162,779.842,547.707,779.842,547.707Z" fill="#ed8f2b" opacity="0.43"/>
    <g id="Group_3511" data-name="Group 3511" transform="translate(777.687 482.214)">
      <circle id="Ellipse_1768" data-name="Ellipse 1768" cx="67.139" cy="67.139" r="67.139" transform="translate(0)" fill="#ffb700"/>
    </g>
    <g id="Group_3513" data-name="Group 3513" transform="translate(777.689 482.231)" opacity="0.3" style="mix-blend-mode: multiply;isolation: isolate">
      <g id="Group_3512" data-name="Group 3512">
        <path id="Path_12508" data-name="Path 12508" d="M975.386,588.628l1.022,1.076c.2.216.429.437.65.7l.711.827a64,64,0,0,1,7.725,10.906l1.078,1.941,1.034,2.092c.368.707.681,1.461,1.013,2.224s.69,1.537.979,2.357a64.445,64.445,0,0,1,3.2,10.773,67.8,67.8,0,0,1,1.4,12.7,67.082,67.082,0,0,1-1.266,14.1,68.545,68.545,0,0,1-4.707,14.651c-.251.618-.574,1.205-.864,1.811s-.589,1.211-.9,1.81l-.994,1.782-.5.9c-.175.294-.362.583-.543.875l-1.1,1.757c-.371.586-.787,1.144-1.181,1.721l-.6.861-.3.431-.323.417-1.3,1.674c-.422.57-.9,1.1-1.36,1.641s-.926,1.087-1.4,1.624l-1.488,1.565-.747.786c-.255.257-.524.5-.785.753l-1.584,1.506c-.536.5-1.106.96-1.659,1.443-1.095.983-2.288,1.859-3.46,2.775a66.378,66.378,0,0,1-7.574,4.875c-1.309.769-2.7,1.4-4.067,2.09-.7.319-1.4.615-2.109.925l-1.06.459-1.083.409a67.138,67.138,0,0,1-18.274,4.232l-2.382.171c-.8.046-1.6.046-2.394.071-.4.008-.8.023-1.2.024l-1.2-.029-1.2-.029c-.4-.008-.8-.015-1.2-.051l-2.408-.173c-.8-.064-1.6-.183-2.4-.272-.4-.05-.8-.093-1.2-.148l-1.2-.2-1.2-.2c-.4-.066-.8-.131-1.195-.225l-2.379-.521c-.792-.182-1.572-.415-2.36-.621-.392-.108-.787-.207-1.178-.323l-1.164-.375-1.165-.376c-.389-.123-.777-.249-1.157-.4l-2.294-.866c-.761-.3-1.5-.645-2.257-.965-.375-.166-.754-.321-1.125-.495l-1.1-.545-1.1-.545c-.369-.18-.737-.361-1.092-.568l-2.151-1.2c-.713-.407-1.4-.863-2.1-1.292l-1.045-.655-1.012-.706-1.013-.706c-.335-.238-.682-.462-1-.721l-1.953-1.513c-.161-.127-.328-.249-.486-.381l-.469-.4-.937-.805-.938-.8c-.316-.265-.6-.562-.9-.842l-1.792-1.7-1.7-1.791c-.28-.3-.577-.589-.842-.9l-.805-.937-.8-.937-.4-.469c-.132-.158-.254-.324-.381-.486l-1.513-1.953c-.26-.32-.483-.666-.721-1l-.706-1.013-.706-1.012-.655-1.045c-.429-.7-.885-1.386-1.292-2.1l-1.2-2.151c-.207-.355-.389-.723-.568-1.091l-.545-1.1-.545-1.1c-.174-.371-.329-.75-.495-1.124-.32-.753-.665-1.5-.965-2.257l-.865-2.294c-.151-.38-.278-.768-.4-1.157l-.376-1.165-.375-1.164c-.116-.39-.215-.786-.323-1.178-.206-.788-.439-1.568-.621-2.359l-.52-2.379c-.094-.395-.16-.795-.226-1.195l-.2-1.2-.2-1.2c-.055-.4-.1-.8-.148-1.2-.089-.8-.208-1.6-.272-2.4s-.115-1.607-.173-2.408c-.036-.4-.043-.8-.052-1.2l-.029-1.2-.028-1.2c0-.4.017-.8.024-1.2.025-.8.024-1.6.071-2.394s.114-1.59.171-2.382a67.15,67.15,0,0,1,4.232-18.274l.409-1.083.459-1.06c.309-.7.6-1.413.924-2.108.689-1.368,1.321-2.758,2.09-4.067a66.357,66.357,0,0,1,4.875-7.574c.916-1.171,1.792-2.365,2.775-3.46.484-.553.946-1.124,1.443-1.659l1.506-1.585c.252-.262.5-.53.753-.785l.786-.748,1.565-1.488c.537-.476,1.085-.936,1.624-1.4s1.071-.938,1.641-1.359l1.674-1.3.417-.322.432-.3.861-.6c.577-.394,1.135-.81,1.721-1.181l1.757-1.1c.293-.181.581-.368.875-.543l.9-.5,1.782-.993c.6-.315,1.21-.6,1.81-.9s1.193-.613,1.811-.864a68.531,68.531,0,0,1,14.651-4.707,67.08,67.08,0,0,1,14.1-1.266,67.807,67.807,0,0,1,12.7,1.4,64.446,64.446,0,0,1,10.773,3.2c.82.289,1.591.653,2.357.979s1.517.645,2.224,1.013l2.092,1.034,1.941,1.078a63.979,63.979,0,0,1,10.906,7.725l.828.711c.26.22.481.45.7.649l1.075,1.023.877.834Zm-1.714-1.707-1.084-1.013c-.218-.2-.441-.425-.7-.644l-.833-.7-.936-.79c-.331-.275-.667-.579-1.051-.858-.753-.577-1.583-1.2-2.494-1.845l-1.453-.957-.764-.5c-.258-.173-.521-.345-.8-.5-1.109-.641-2.253-1.379-3.557-1.988a54.655,54.655,0,0,0-8.745-3.635c-.824-.25-1.655-.525-2.513-.767l-2.651-.638c-1.815-.36-3.682-.747-5.644-.94-.971-.142-1.974-.178-2.98-.262s-2.031-.107-3.069-.114c-1.035-.032-2.088.03-3.147.068-1.059.023-2.131.127-3.21.24a55.3,55.3,0,0,0-13.126,3.024l-1.63.635-.816.317c-.272.106-.538.237-.807.354-1.072.491-2.15.964-3.2,1.54l-1.58.828-1.545.922c-1.039.591-2.025,1.3-3.028,1.967-.508.319-.979.715-1.464,1.079s-.967.731-1.44,1.114l-1.393,1.188-.694.591c-.227.205-.446.421-.669.63l-1.331,1.258c-.441.421-.852.885-1.279,1.323l-.631.666-.314.334-.3.355-1.19,1.411c-.405.456-.768.963-1.141,1.453s-.747.977-1.11,1.472l-1.039,1.536-.518.762c-.2.22.207-.2.136-.109l-.076.116-.151.231-.3.463-1.217,1.86-.153.233-.093.19-.183.376-.365.744c-.474.916-1.007,2.106-1.521,3.195a55.5,55.5,0,0,0-2.5,6.839c-.373,1.141-.606,2.34-.9,3.494l-.343,1.766-.176.874-.126.889a57.1,57.1,0,0,0-.393,14.032,60.113,60.113,0,0,0,1.07,6.781l.376,1.654c.127.549.3,1.09.448,1.632l.225.81.255.8.246.8c.079.267.157.533.262.794a58.907,58.907,0,0,0,5.666,11.84q.447.679.879,1.362c.295.452.634.877.941,1.319.156.22.3.447.452.669l.494.642.487.645c.164.214.312.438.5.638,1.375,1.663,2.8,3.29,4.338,4.829-.806-.787-.159-.158-.309-.306l.113.105.226.211.445.429.889.859.444.43.222.215a.688.688,0,0,0,.078.069l.058.047q.233.188.46.382t.448.4l.22.2c.081.072.206.162.306.242.428.327.84.674,1.249,1.027.2.184.424.331.638.5l.644.487.641.494.67.45.666.457c.221.154.429.331.662.467q.683.431,1.36.878a7.767,7.767,0,0,0,.693.419l.7.4c.233.137.469.271.7.414s.476.257.714.389c.48.252.948.535,1.435.777s.982.469,1.473.711c.123.059.244.125.369.178s.251.107.376.162l.75.338.75.345c.253.108.511.2.767.3.514.194,1.021.42,1.542.6s1.042.371,1.565.563a57.422,57.422,0,0,0,27.217,2.429l.886-.125.871-.174c.581-.119,1.172-.223,1.756-.349,1.15-.291,2.346-.522,3.483-.891l.868-.254c.29-.085.585-.163.864-.27l1.709-.6c.583-.185,1.124-.441,1.688-.665l.846-.342c.285-.112.57-.223.841-.358,1.095-.519,2.231-1,3.292-1.6.536-.292,1.093-.563,1.621-.873l1.577-.949.4-.238.2-.119.1-.059c.076-.062-.319.351-.1.137l.892-.649,1.775-1.292,1.362-1a16.453,16.453,0,0,0,1.378-1.053l1.409-1.184.354-.3.333-.313.669-.626.667-.63c.219-.213.454-.416.656-.642l1.256-1.326c.209-.222.424-.441.629-.667l.59-.692,1.186-1.387c.382-.471.739-.956,1.112-1.435s.759-.953,1.086-1.455a55.45,55.45,0,0,0,6.578-12.564c.209-.542.373-1.093.562-1.638s.376-1.09.534-1.639l.44-1.647c.14-.549.31-1.094.415-1.643a55.01,55.01,0,0,0,1.1-6.532,56.242,56.242,0,0,0-.037-12.392l-.177-1.453q-.044-.361-.088-.72c-.034-.238-.086-.471-.127-.705-.182-.934-.338-1.862-.532-2.764l-.634-2.649c-.1-.436-.245-.853-.371-1.272l-.385-1.243c-.237-.828-.549-1.609-.827-2.387s-.548-1.542-.871-2.263l-.936-2.121-.987-1.974-.477-.95c-.163-.309-.339-.6-.5-.9-.331-.593-.67-1.16-.995-1.712-.157-.279-.33-.543-.5-.8l-.5-.764-.957-1.452q-.975-1.363-1.835-2.5c-.279-.384-.583-.72-.858-1.052l-.79-.936-.7-.833c-.218-.262-.446-.485-.643-.7l-1.013-1.084-.826-.884Z" transform="translate(-859.941 -568.103)" fill="#ffb700"/>
      </g>
    </g>
  </g>
</svg>
