<svg xmlns="http://www.w3.org/2000/svg" width="250.826" height="241.932" viewBox="0 0 250.826 241.932">
  <g id="Group_4181" data-name="Group 4181" transform="matrix(0.799, -0.602, 0.602, 0.799, -157.654, 108.092)">
    <path id="Path_14304" data-name="Path 14304" d="M327.507,336.448Zm-5.526-.84Zm28.614,2.984Z" transform="translate(-50.527 -64.291)" fill="#041026"/>
    <path id="Path_14305" data-name="Path 14305" d="M323.4,330.827Zm-5.526-.839Zm28.614,2.984Z" transform="translate(-49.604 -63.028)" fill="#fff"/>
    <g id="Group_4180" data-name="Group 4180" transform="translate(91.136 72.843)">
      <path id="Path_14311" data-name="Path 14311" d="M189.3,334.787A79.688,79.688,0,0,0,289.136,282.5q.35-1.118.663-2.238.15-.534.292-1.067c.12-1.379-.64-2.985-2.184-4.766-7.768-8.961-35.3-22.31-69.43-32.979s-64.364-15.376-75.852-12.433c-2.283.585-3.823,1.472-4.51,2.673q-.186.52-.367,1.043-.379,1.1-.73,2.217A79.688,79.688,0,0,0,189.3,334.787Z" transform="translate(-87.265 -160.314)" fill="#7eb3bc"/>
      <path id="Path_14312" data-name="Path 14312" d="M275.028,269.346q.349-1.118.663-2.238.15-.533.292-1.066a3.462,3.462,0,0,0-.008-.645c-12.906-7.676-33.58-16.467-57.5-23.943-34.132-10.669-64.364-15.376-75.853-12.433-2.283.585-3.822,1.472-4.509,2.673q-.186.52-.367,1.043-.379,1.1-.73,2.217A79.625,79.625,0,0,0,152.1,310.045a79.746,79.746,0,0,0,122.927-40.7Z" transform="translate(-87.265 -160.314)" fill="#9ecacc"/>
      <path id="Path_14313" data-name="Path 14313" d="M142.625,229.02c-2.283.585-3.822,1.472-4.509,2.673q-.186.52-.367,1.043-.379,1.1-.73,2.217A79.627,79.627,0,0,0,152.1,310.04a79.69,79.69,0,0,0,96.782-53.173q.349-1.118.663-2.238.15-.533.292-1.066a3.53,3.53,0,0,0-.009-.645q-.569-.338-1.158-.679c-9.109-3.715-19.313-7.387-30.189-10.786C184.346,230.784,154.114,226.078,142.625,229.02Z" transform="translate(-87.265 -160.314)" fill="#d1edf2"/>
      <path id="Path_14314" data-name="Path 14314" d="M138.062,236.732a3.1,3.1,0,0,0-.125.649q.143-.534.292-1.066A3.021,3.021,0,0,0,138.062,236.732Z" transform="translate(-88.291 -162.146)" fill="#aa7200"/>
      <path id="Path_14315" data-name="Path 14315" d="M334.318,297.615c-.12.349-.243.7-.367,1.043a3.127,3.127,0,0,0,.267-.6A3.03,3.03,0,0,0,334.318,297.615Z" transform="translate(-132.328 -175.918)" fill="#aa7200"/>
      <path id="Path_14316" data-name="Path 14316" d="M205.665,242.105C139.989,221.576,83.549,215.167,79.6,227.791c-.74,2.366.418,5.233,3.22,8.465q.308.356.644.718c12.962,14,55.447,34.447,107.91,50.846,53.365,16.681,100.632,24.039,118.595,19.439,4.143-1.061,6.728-2.759,7.467-5.125C321.384,289.51,271.342,262.634,205.665,242.105Z" transform="translate(-75.137 -158.777)" fill="#edfaff"/>
      <path id="Path_14317" data-name="Path 14317" d="M308.929,288.726c1.682,2.365,2.307,4.486,1.742,6.293-.689,2.2-3.094,3.783-6.952,4.771-16.722,4.282-60.725-2.568-110.406-18.1-48.84-15.266-88.391-34.3-100.459-47.334q-.312-.337-.6-.668c-2.608-3.009-3.686-5.679-3-7.881.565-1.807,2.287-3.194,5.016-4.18-8.362.661-13.568,2.7-14.671,6.231-.74,2.366.418,5.233,3.22,8.465q.308.356.644.718c12.962,14,55.447,34.447,107.91,50.846,53.365,16.681,100.632,24.039,118.595,19.439,4.143-1.061,6.728-2.759,7.467-5.125C318.541,298.675,315.424,294.032,308.929,288.726Z" transform="translate(-75.137 -158.847)" fill="#a6d0dd"/>
      <path id="Path_14318" data-name="Path 14318" d="M286.5,279.2c1.144,1.607,1.568,3.049,1.185,4.277-.468,1.5-2.1,2.573-4.726,3.244-11.368,2.911-41.283-1.746-75.058-12.3-33.2-10.379-60.092-23.321-68.3-32.18q-.212-.229-.407-.454c-1.773-2.045-2.506-3.86-2.038-5.358.384-1.229,1.555-2.172,3.41-2.842-5.685.45-9.223,1.838-9.974,4.236-.5,1.609.285,3.558,2.189,5.755q.211.242.438.488c8.812,9.517,37.7,23.419,73.361,34.567,36.28,11.341,68.414,16.343,80.626,13.216,2.817-.722,4.574-1.876,5.077-3.484C293.034,285.959,290.915,282.8,286.5,279.2Z" transform="translate(-86.608 -161.531)" fill="#9fedff"/>
      <path id="Path_14319" data-name="Path 14319" d="M238.722,164.936a79.688,79.688,0,0,0-99.833,52.284q-.35,1.118-.663,2.238-.15.533-.292,1.066c-.12,1.379.64,2.985,2.184,4.766,7.768,8.961,35.3,22.31,69.43,32.979S273.911,273.645,285.4,270.7c2.283-.585,3.823-1.472,4.509-2.673.124-.347.247-.694.367-1.043q.378-1.1.729-2.217A79.688,79.688,0,0,0,238.722,164.936Z" transform="translate(-88.288 -145.29)" fill="#01d6ff"/>
      <path id="Path_14320" data-name="Path 14320" d="M135.541,288.566a80.027,80.027,0,0,0,8.777,23.165c12.776,8.322,44.762,24.749,105.586,31.487a79.968,79.968,0,0,0,19.2-13.747Z" transform="translate(-87.753 -173.885)" fill="#245760" opacity="0.24"/>
      <path id="Path_14321" data-name="Path 14321" d="M272,145.6c-.948-.3-1.783-.326-1.865-.064l-6.01,19.229c-.082.261.621.713,1.569,1.009s1.783.325,1.864.064l6.011-19.229C273.651,146.347,272.948,145.895,272,145.6Z" transform="translate(-116.64 -141.711)" fill="#003ea8"/>
      <g id="Group_4175" data-name="Group 4175" transform="translate(160.986 151.586)">
        <g id="Group_4174" data-name="Group 4174" transform="translate(0)">
          <path id="Path_14322" data-name="Path 14322" d="M296.413,336.164,309.94,397.29l-28.4-59.781Z" transform="translate(-281.54 -336.164)" fill="#9ecacc"/>
          <path id="Path_14323" data-name="Path 14323" d="M285.879,337.393l24.062,60.173-28.4-59.781Z" transform="translate(-281.54 -336.44)" fill="#7eb3bc"/>
          <path id="Path_14324" data-name="Path 14324" d="M299.559,336.164l13.527,61.126h0l-17.544-60.763Z" transform="translate(-284.686 -336.164)" fill="#d1edf2"/>
        </g>
        <path id="Path_14325" data-name="Path 14325" d="M300.554,354.878a27.176,27.176,0,0,1-10.83-.141l-8.184-17.227,14.873-1.345Z" transform="translate(-281.54 -336.164)" fill="#245760" opacity="0.24"/>
      </g>
      <circle id="Ellipse_1806" data-name="Ellipse 1806" cx="5.671" cy="5.671" r="5.671" transform="translate(149.132)" fill="#fffd06"/>
      <g id="Group_4176" data-name="Group 4176" transform="translate(19.715 90.164)">
        <path id="Path_14326" data-name="Path 14326" d="M185,294.215l-.563-.2-.588-.211-.565-.2-.58-.209-.568-.206-.571-.207L181,292.77l-.57-.208-.567-.208-.561-.206-.573-.211-.554-.2-.571-.212-.547-.2-.575-.215-.538-.2-.577-.217-.537-.2-.569-.216-.532-.2-.574-.219-.527-.2-.567-.217-.533-.2-.557-.215-.53-.2-.558-.216-.521-.2-.564-.22-.509-.2-.565-.222-.509-.2-.557-.22-.511-.2-.552-.219-.506-.2-.553-.222-.5-.2-.561-.226-.478-.193-.57-.231-.416-.169-4.248,13.591q4.494,1.831,9.208,3.648l1.358.521q1.362.521,2.74,1.04l1.383.519q4.247,1.586,8.643,3.151l4.248-13.59Z" transform="translate(-112.46 -263.351)" fill="#fff"/>
        <path id="Path_14327" data-name="Path 14327" d="M369.585,330.676q-.228.058-.462.113l-.007,0q-.231.055-.469.107h0A56.319,56.319,0,0,1,357.97,332h-.021l-.59.011h-.049l-.578.007h-.068l-.575,0h-.744l-.561,0h-.112l-.556-.007-.127,0c-.184,0-.369-.006-.554-.01l-.136,0-.551-.013-.15,0-.548-.016-.16,0-.547-.019-.171-.006-.547-.022-.175-.007-.552-.025-.182-.009-.549-.027-.183-.009-4.248,13.59c16.127.847,26.462-1.135,28.071-6.282l4.248-13.59C376.312,327.917,373.728,329.615,369.585,330.676Z" transform="translate(-154.466 -272.358)" fill="#fff"/>
        <path id="Path_14328" data-name="Path 14328" d="M309.042,328.532l-.162-.026-.806-.132-.082-.014-.889-.147H307.1q-3.366-.564-6.876-1.219l-.046-.008-.854-.161-.167-.032-.8-.152-.224-.043-.731-.141-.306-.059-.69-.135-.348-.068-.668-.132-.377-.075-.642-.129-.409-.082-.626-.127-.429-.088-.625-.128-.433-.089-.618-.129-.45-.094-.614-.129-.455-.1-.614-.131-.461-.1-.608-.13-.476-.1-.6-.131-.482-.105-.594-.13-.5-.11-.6-.133-.059-.013L280.465,337.4q4.787,1.066,9.384,1.993,5.22,1.053,10.162,1.92,2.578.454,5.071.854l4.248-13.59Z" transform="translate(-140.027 -271.968)" fill="#fff"/>
        <path id="Path_14329" data-name="Path 14329" d="M246.269,314l-.582-.157-.6-.164-.593-.162-.6-.165-.587-.161-.615-.171-.579-.16-.616-.172-.584-.163-.617-.174-.584-.164-.623-.177-.581-.165-.62-.177-.592-.169-.617-.178-.592-.171-.624-.181-.592-.172-.621-.181-.594-.174-.64-.188-.578-.171-.655-.194-.566-.168-.663-.2-.562-.168-.66-.2-.57-.171-.664-.2-.565-.171-.671-.2-.562-.171-.691-.212-.543-.167-.813-.251-.422-.13-1.24-.386h0l-4.248,13.59q2.309.722,4.6,1.42l1.527.463q9.054,2.733,17.8,5.093l4.248-13.59Z" transform="translate(-126.071 -268.211)" fill="#fff"/>
        <path id="Path_14330" data-name="Path 14330" d="M125.516,268.749l-.2-.093-.657-.317-.211-.1-.646-.314-.214-.1-.627-.308-.226-.111-.616-.3-.229-.114-.608-.3-.229-.114-.6-.3-.235-.118-.578-.292-.245-.124-.574-.292-.239-.122-.568-.291-.24-.124c-.185-.095-.369-.19-.553-.285l-.248-.129-.545-.284-.244-.128-.539-.283-.243-.128-.535-.283-.24-.128-.526-.281-.239-.129-.525-.282-.231-.125-.52-.283-.23-.125-.515-.282-.225-.124-.509-.281-.226-.125-.5-.279-.224-.126q-.25-.14-.5-.28l-.216-.122-.5-.281-.21-.12-.49-.281-.208-.119-.488-.282-.2-.116-.485-.284-.2-.115-.48-.284-.191-.113-.477-.284-.184-.11-.476-.288-.174-.1-.475-.288-.171-.105-.468-.288-.01-.006-4.248,13.59c4.691,2.9,10.123,5.91,16.2,8.978q1.022.518,2.069,1.036t2.117,1.04q.976.474,1.972.951l4.248-13.59Z" transform="translate(-99.333 -256.945)" fill="#fff"/>
      </g>
      <g id="Group_4178" data-name="Group 4178" transform="translate(3.791 112.157)">
        <g id="Group_4177" data-name="Group 4177">
          <path id="Path_14331" data-name="Path 14331" d="M124.726,285.311l-45.932,42.54,57.39-32.964Z" transform="translate(-78.795 -285.311)" fill="#9ecacc"/>
          <path id="Path_14332" data-name="Path 14332" d="M132.842,294.059,78.795,329.816l57.39-32.964Z" transform="translate(-78.795 -287.276)" fill="#7eb3bc"/>
          <path id="Path_14333" data-name="Path 14333" d="M124.726,285.311l-45.932,42.54h0L127.821,287.9Z" transform="translate(-78.795 -285.311)" fill="#d1edf2"/>
        </g>
        <path id="Path_14334" data-name="Path 14334" d="M119.9,298.334a27.2,27.2,0,0,0,8.982,6.052l16.539-9.5-11.459-9.576Z" transform="translate(-88.029 -285.311)" fill="#245760" opacity="0.24"/>
      </g>
      <g id="Group_4179" data-name="Group 4179" transform="translate(0 69.014)">
        <path id="Path_14335" data-name="Path 14335" d="M97.713,250.719c-.157-.1-.312-.193-.467-.29l-.154-.1c-.157-.1-.313-.2-.468-.294l-.149-.094-.462-.294-.145-.092-.46-.3-.134-.087c-.154-.1-.308-.2-.46-.3l-.126-.082-.461-.3-.113-.074-.461-.308-.106-.071-.46-.31-.093-.064c-.156-.105-.311-.211-.464-.316l-.08-.055-.468-.323-.065-.046c-.158-.11-.316-.22-.471-.33l-.056-.04-.471-.335-.04-.029-.478-.345-.017-.012a56.3,56.3,0,0,1-8.149-6.984h0q-.165-.179-.324-.356l0-.005q-.162-.179-.315-.357c-2.8-3.232-3.96-6.1-3.22-8.465l-4.248,13.59c-1.609,5.147,5.758,12.662,19.5,21.15l4.248-13.59Z" transform="translate(-73.906 -229.666)" fill="#393dff"/>
        <path id="Path_14336" data-name="Path 14336" d="M155.306,282.508l-.565-.231-.473-.194-.563-.231-.457-.188-.571-.236-.449-.186-.575-.239-.435-.182-.579-.242-.429-.181-.578-.243-.423-.179-.581-.247-.407-.173-.587-.25-.4-.173-.587-.252-.384-.165-.6-.261-.352-.153-.626-.272-.324-.142-.644-.282-.285-.126-.682-.3-.209-.092-.745-.331-.156-.07-.792-.354-.043-.019q-3.256-1.461-6.345-2.914l-.006,0-.815-.385-.075-.036-.738-.351-.148-.071-.263-.126-4.248,13.59q2.278,1.09,4.654,2.186,4.552,2.1,9.447,4.21,4.3,1.854,8.848,3.706l4.248-13.591Z" transform="translate(-86.096 -239.273)" fill="#393dff"/>
        <path id="Path_14337" data-name="Path 14337" d="M215.745,304.8q-.62-.193-1.238-.388l-.422-.133-.811-.257-.541-.172-.689-.219-.56-.179-.668-.214-.562-.181-.661-.212-.565-.184-.655-.212-.558-.182-.658-.215-.561-.185-.65-.214-.571-.188-.633-.21-.586-.2-.614-.2-.585-.2-.616-.206-.583-.2-.609-.205-.582-.2-.61-.208-.571-.2-.613-.209-.575-.2-.606-.209-.573-.2-.6-.209-.568-.2-.6-.21-.575-.2-.587-.206-.58-.2-.585-.207-.567-.2-.247-.088-4.248,13.59q8.518,3.032,17.53,5.95.757.244,1.518.488,2.283.733,4.592,1.454h0l4.248-13.59Z" transform="translate(-99.506 -244.773)" fill="#393dff"/>
        <path id="Path_14338" data-name="Path 14338" d="M277.252,321.979l-.6-.134-.5-.114-.589-.133-.52-.119-.581-.133-.532-.122-.578-.134-.536-.124-.583-.136-.533-.125-.592-.14-.531-.126-.59-.14-.544-.13-.582-.14-.552-.133-.58-.141-.555-.135-.589-.144-.548-.135-.6-.147-.552-.137-.591-.147-.557-.14-.6-.15-.557-.141-.595-.151-.566-.144-.59-.151-.572-.147-.591-.153-.578-.15-.584-.153-.588-.154-.585-.154-.588-.155-.585-.154-.6-.158-.581-.155-.6-.162-.576-.155-.354-.1-4.248,13.59q4.5,1.216,8.9,2.333l1.431.361q1.429.358,2.845.706.707.174,1.413.345,4.907,1.19,9.646,2.245l4.248-13.591Z" transform="translate(-113.289 -249.082)" fill="#393dff"/>
        <path id="Path_14339" data-name="Path 14339" d="M341.664,332.823l-.549-.03-.2-.011-.554-.033-.2-.012-.555-.035-.213-.014-.554-.038-.221-.016-.557-.04-.226-.017-.56-.043-.23-.018-.561-.046-.239-.02-.564-.048-.241-.021-.568-.05-.247-.022-.568-.054-.256-.024-.569-.056-.257-.026-.578-.058-.256-.026-.583-.061-.261-.028-.589-.064-.26-.029-.592-.066-.27-.031-.593-.069-.27-.032-.6-.071-.273-.033-.6-.074-.273-.034-.61-.077-.278-.036-.616-.08-.268-.035-.632-.085-.266-.036-.637-.087-.271-.037-.642-.09-.261-.036-.66-.094-.253-.037-.672-.1-.253-.037-.679-.1-.249-.038-.691-.1-.236-.036-.709-.109-.231-.036-.721-.113-.213-.034-.46-.074-4.248,13.59q1.09.174,2.163.341,1.176.181,2.332.351t2.29.327c6.741.936,12.921,1.555,18.427,1.844l4.248-13.59Z" transform="translate(-127.445 -252.198)" fill="#393dff"/>
      </g>
      <path id="Path_14340" data-name="Path 14340" d="M306.179,319.7q-.228.058-.462.114l-.007,0c-.154.036-.311.073-.469.108h0a56.317,56.317,0,0,1-10.676,1.1h-.021c-.2,0-.392.008-.589.011h-.05l-.578.007h-.068c-.19,0-.382,0-.575,0h-.744l-.561,0h-.112l-.555-.007-.128,0-.554-.01-.136,0-.551-.013-.15,0-.549-.016-.16-.005-.546-.019-.172-.006-.547-.022-.175-.008-.552-.025-.182-.009-.549-.027-.183-.009h-.012l-.549-.029-.2-.012-.554-.033-.2-.012-.555-.036-.214-.014-.554-.038-.221-.016-.557-.04-.226-.017-.56-.043-.229-.019-.561-.046-.239-.019-.564-.048-.241-.021-.567-.051-.247-.022-.568-.053-.256-.025-.569-.055-.257-.026-.578-.059-.256-.026-.583-.061-.261-.028-.588-.064-.26-.029-.592-.067-.27-.031-.592-.068-.271-.033-.6-.071-.273-.033-.6-.074-.273-.034-.61-.078-.278-.036-.616-.08-.268-.035-.632-.084-.267-.036-.637-.086-.272-.038-.642-.089-.261-.037-.661-.094-.253-.036-.671-.1-.254-.038-.679-.1-.249-.037-.691-.1-.236-.036-.709-.11-.231-.036-.721-.113-.213-.034-.459-.074-.288-.047-.162-.026-.806-.132-.082-.013-.889-.148h-.006q-3.366-.564-6.876-1.218l-.046-.009-.853-.16-.168-.031-.8-.153-.224-.043-.731-.141-.306-.059-.69-.136-.348-.067-.668-.133-.377-.074-.642-.129-.409-.082-.626-.127-.43-.087-.625-.129-.433-.089-.618-.129-.45-.093-.614-.129-.455-.1-.614-.13-.461-.1-.608-.131-.476-.1-.6-.131-.482-.105-.594-.131-.5-.11-.6-.132-.059-.014-.438-.1-.6-.135-.5-.113-.589-.134-.52-.118-.581-.133-.531-.122-.579-.133-.535-.125-.584-.136-.533-.125-.592-.14-.531-.126-.589-.14-.544-.13-.582-.14-.552-.133-.58-.14-.554-.136-.589-.144-.548-.135-.6-.147-.552-.137-.591-.147-.557-.14-.6-.15-.557-.141-.595-.15-.566-.144-.59-.151-.572-.147-.591-.153-.578-.15-.584-.152-.588-.154-.585-.154-.588-.155-.585-.155-.6-.158-.58-.155-.6-.162-.576-.155-.354-.1-.253-.068-.581-.157-.6-.164-.593-.162-.6-.164-.587-.162-.615-.17-.579-.161-.616-.171-.585-.164-.616-.174-.585-.164-.623-.177-.581-.164-.62-.178-.592-.169-.617-.178-.592-.171-.624-.181-.592-.172-.621-.181-.593-.174-.64-.188-.578-.17-.655-.195-.566-.167-.662-.2-.563-.168-.66-.2-.569-.171-.664-.2-.565-.171-.671-.2-.563-.172-.691-.212-.543-.167-.813-.251-.422-.13-1.24-.386h0l-1.238-.388-.422-.133-.81-.256-.541-.172-.689-.219-.56-.179-.668-.214-.562-.181-.661-.213-.565-.184-.655-.212-.558-.182-.657-.215-.561-.185-.65-.213-.571-.189-.633-.21-.586-.2-.614-.2-.584-.2-.616-.207-.583-.2-.609-.206-.582-.2-.61-.207-.571-.2-.613-.21-.575-.2-.606-.209-.573-.2-.6-.21-.568-.2-.6-.21-.575-.2-.587-.206-.58-.2-.585-.207-.567-.2-.247-.088-.344-.123-.562-.2-.589-.211-.565-.2-.58-.209-.568-.206-.571-.207-.568-.207-.57-.209-.567-.208-.561-.206-.573-.212-.554-.2-.571-.212-.547-.2-.575-.215-.538-.2-.577-.216-.537-.2-.569-.215-.532-.2-.574-.218-.527-.2-.567-.217-.533-.2-.557-.214-.53-.206-.558-.216-.521-.2-.564-.221-.509-.2-.565-.223-.509-.2-.557-.22-.51-.2-.552-.219-.507-.2-.553-.221-.5-.2-.56-.226-.478-.194-.569-.23-.416-.17-.057-.022-.564-.23-.474-.194-.563-.231-.457-.188-.571-.236-.449-.187-.575-.239-.435-.181-.579-.243-.429-.18-.578-.243-.423-.179-.581-.247-.407-.174-.587-.25-.4-.172-.587-.253-.384-.165-.6-.26-.352-.154-.625-.272-.325-.142-.644-.282-.285-.126-.681-.3-.209-.093-.745-.33-.156-.07-.792-.354-.043-.019q-3.256-1.461-6.345-2.915l-.006,0-.814-.385-.076-.036-.738-.351-.147-.07-.264-.126-.419-.2-.2-.094-.657-.317-.211-.1-.646-.314-.213-.1-.628-.307-.226-.111-.616-.3-.23-.113-.608-.3-.229-.114-.6-.3-.235-.119-.578-.292-.245-.124-.574-.292-.239-.122-.567-.291-.24-.123-.552-.285-.249-.129-.545-.285-.243-.127-.54-.284-.243-.128-.534-.283-.24-.127-.526-.281-.239-.128-.525-.283-.23-.125-.521-.283-.23-.125-.515-.282-.225-.123-.509-.281-.226-.126-.5-.278-.224-.126-.5-.28-.216-.122-.5-.281-.21-.12-.49-.281-.208-.12-.488-.282-.2-.116-.485-.284-.2-.115-.48-.284-.191-.113-.477-.284-.183-.11-.477-.287-.174-.105-.474-.288-.171-.1-.468-.288-.01-.006-.156-.1L94.685,261l-.154-.1-.468-.294-.149-.094c-.155-.1-.309-.2-.462-.295l-.145-.092-.46-.3-.134-.087-.46-.3-.126-.082-.461-.3-.113-.075-.461-.307-.106-.071-.46-.311-.093-.064c-.156-.105-.311-.211-.464-.316l-.08-.055q-.236-.162-.468-.323l-.065-.046c-.158-.11-.316-.22-.471-.33l-.056-.039-.471-.336-.04-.029-.478-.344-.016-.012a56.268,56.268,0,0,1-8.15-6.983h0q-.165-.178-.324-.356l0,0c-.107-.119-.212-.239-.315-.357-2.8-3.232-3.96-6.1-3.22-8.466l-1.687,5.4c-1.609,5.147,5.758,12.662,19.5,21.15,4.691,2.9,10.123,5.91,16.2,8.978q1.022.518,2.069,1.036t2.117,1.04q.976.475,1.972.951,2.278,1.09,4.654,2.186,4.552,2.1,9.447,4.21,4.3,1.854,8.848,3.706,4.494,1.831,9.208,3.648l1.358.521q1.362.521,2.74,1.04l1.383.519q4.247,1.586,8.643,3.151,8.518,3.032,17.53,5.95.757.244,1.518.488,2.283.733,4.592,1.454h0q2.309.722,4.6,1.42l1.527.463q9.054,2.733,17.8,5.093,4.5,1.216,8.9,2.333l1.431.361q1.429.358,2.845.706.707.174,1.413.345,4.907,1.19,9.646,2.245,4.787,1.066,9.384,1.993,5.22,1.053,10.162,1.92,2.578.454,5.071.854,1.09.174,2.163.341,1.176.181,2.332.351t2.29.327c6.741.936,12.921,1.555,18.427,1.844,16.127.847,26.462-1.135,28.071-6.282l1.687-5.4C312.906,316.941,310.322,318.639,306.179,319.7Z" transform="translate(-73.906 -163.026)" fill="#1908ff" opacity="0.49"/>
      <path id="Path_14341" data-name="Path 14341" d="M265.343,179.84c-5.291,84.281-76.836,73.581-106.406,59.911,12.991,7.368,32.71,15.616,55.332,22.687,34.132,10.669,64.364,15.376,75.853,12.433,2.283-.585,3.823-1.472,4.509-2.673.124-.347.247-.694.368-1.043q.378-1.1.729-2.217A79.722,79.722,0,0,0,265.343,179.84Z" transform="translate(-93.009 -149.458)" fill="#00a0ff"/>
      <path id="Path_14342" data-name="Path 14342" d="M280.359,190.169c8.015,15.557-6.4,87.034-97.82,60.915a367.533,367.533,0,0,0,37.032,13.675c34.132,10.669,64.364,15.376,75.853,12.433,2.283-.585,3.823-1.472,4.509-2.673.124-.347.247-.694.367-1.043q.378-1.1.729-2.217A79.686,79.686,0,0,0,280.359,190.169Z" transform="translate(-98.312 -151.779)" fill="#0277fb"/>
      <ellipse id="Ellipse_1807" data-name="Ellipse 1807" cx="20.58" cy="7.026" rx="20.58" ry="7.026" transform="translate(91.47 30.434) rotate(-15.188)" fill="#9cf8ff"/>
      <ellipse id="Ellipse_1808" data-name="Ellipse 1808" cx="10.22" cy="4.561" rx="10.22" ry="4.561" transform="translate(70.026 57.495) rotate(-53.08)" fill="#9cf8ff"/>
      <path id="Path_14343" data-name="Path 14343" d="M276.471,149.906a12.137,12.137,0,0,0,.632-1.287,4.506,4.506,0,0,0,.14-1.326,1.648,1.648,0,0,0-.459-1.1,2.1,2.1,0,0,0-1.266.364,5.608,5.608,0,0,0-1.272,1.306l-.726.93a2.721,2.721,0,0,1-.534.565,2.78,2.78,0,0,1-2.149.169l-.916-.178a.37.37,0,0,0-.523.3,2.358,2.358,0,0,0-.183.829,1.567,1.567,0,0,0,.871,1.269,3.772,3.772,0,0,0,1.558.364,7.227,7.227,0,0,0,2.318-.164,3.762,3.762,0,0,0,1.964-1.192A5.585,5.585,0,0,0,276.471,149.906Z" transform="translate(-117.785 -141.898)" fill="#ffc920"/>
      <path id="Path_14344" data-name="Path 14344" d="M273.82,142.02a3.4,3.4,0,0,0-2.7-.026,6.367,6.367,0,0,0-2.759,2.473,4.535,4.535,0,0,0,3.042-.042,4.326,4.326,0,0,0,1.41-.646,2.672,2.672,0,0,0,.987-1.54A.671.671,0,0,0,273.82,142.02Z" transform="translate(-117.594 -140.895)" fill="#fff6ce"/>
    </g>
  </g>
</svg>
