<svg id="Group_5398" data-name="Group 5398" xmlns="http://www.w3.org/2000/svg" xmlns:xlink="http://www.w3.org/1999/xlink" width="178.503" height="451.785" viewBox="0 0 178.503 451.785">
  <defs>
    <clipPath id="clip-path">
      <path id="Path_9470" data-name="Path 9470" d="M446.978,541l.006-.739a.464.464,0,0,1-.276.371l-.009.739A.471.471,0,0,0,446.978,541Z" transform="translate(-446.699 -540.257)" fill="none"/>
    </clipPath>
    <clipPath id="clip-path-2">
      <path id="Path_9472" data-name="Path 9472" d="M452.02,541.306l-.008.738a.459.459,0,0,0,.259.373l.008-.74A.444.444,0,0,1,452.02,541.306Z" transform="translate(-452.012 -541.306)" fill="none"/>
    </clipPath>
    <clipPath id="clip-path-3">
      <path id="Path_9476" data-name="Path 9476" d="M449.848,542.207l-.008.742a1.417,1.417,0,0,0,1.279.019l.01-.742A1.405,1.405,0,0,1,449.848,542.207Z" transform="translate(-449.84 -542.207)" fill="none"/>
    </clipPath>
    <clipPath id="clip-path-4">
      <path id="Path_9479" data-name="Path 9479" d="M457.635,534.552l.008-.741a.453.453,0,0,1-.278.37l-.006.744A.468.468,0,0,0,457.635,534.552Z" transform="translate(-457.359 -533.811)" fill="none"/>
    </clipPath>
    <clipPath id="clip-path-5">
      <path id="Path_9481" data-name="Path 9481" d="M462.683,534.859l-.011.741a.463.463,0,0,0,.259.373l.01-.741A.443.443,0,0,1,462.683,534.859Z" transform="translate(-462.672 -534.859)" fill="none"/>
    </clipPath>
    <clipPath id="clip-path-6">
      <path id="Path_9485" data-name="Path 9485" d="M460.508,535.763l-.01.744a1.423,1.423,0,0,0,1.279.017l.012-.743A1.39,1.39,0,0,1,460.508,535.763Z" transform="translate(-460.498 -535.763)" fill="none"/>
    </clipPath>
    <clipPath id="clip-path-7">
      <path id="Path_9489" data-name="Path 9489" d="M460.022,532.6l-1.291.726a2.824,2.824,0,0,0-1.289,1.859l1.295-.723A2.779,2.779,0,0,1,460.022,532.6Z" transform="translate(-457.443 -532.601)" fill="#8c532c"/>
    </clipPath>
  </defs>
  <g id="Group_1857" data-name="Group 1857" transform="translate(85.235 234.997)">
    <path id="Path_9418" data-name="Path 9418" d="M411.905,409.42l-4.3-.407-1.085-5.244.175-.459,2.574-7.859a6.047,6.047,0,0,1,5.652,4.925l-.014,5.382C414.774,407.582,413.868,409.6,411.905,409.42Z" transform="translate(-406.525 -395.452)" fill="#ffe8d9"/>
  </g>
  <g id="Group_1858" data-name="Group 1858" transform="translate(74.515 246.641)">
    <path id="Path_9419" data-name="Path 9419" d="M417.7,407.423c6.9-1.151,7.513,2.342,7.513,2.342s1.512,19.42-1.139,37.022c-1.264,8.393-4.106,26.5-5.8,31.913,0,0-.411-3.754-4.765-3.414-3.549.277-8.483-3.405-6.6-12.5.721-3.5,4.121-14.435,4.815-19.017a330.684,330.684,0,0,0,3.557-34.967A4.509,4.509,0,0,1,417.7,407.423Z" transform="translate(-406.495 -407.191)" fill="#141413"/>
  </g>
  <g id="Group_1859" data-name="Group 1859" transform="translate(62.251 297.003)">
    <path id="Path_9420" data-name="Path 9420" d="M415.474,465.316s2.972-5.429,5.749-6.544,11.76-.758,11.76-.758,4.943,10.351,5,11.066-1.939,19.5-1.939,19.5l-12.117-9.335Z" transform="translate(-415.474 -457.959)" fill="#ededed"/>
  </g>
  <g id="Group_1860" data-name="Group 1860" transform="translate(68.093 429.923)">
    <rect id="Rectangle_359" data-name="Rectangle 359" width="7.165" height="3.281" transform="translate(7.165 3.356) rotate(-179.396)" fill="#282827"/>
  </g>
  <g id="Group_1865" data-name="Group 1865" transform="translate(65.895 421.179)">
    <g id="Group_1861" data-name="Group 1861" transform="translate(0.033)">
      <path id="Path_9421" data-name="Path 9421" d="M427.727,588.648s.77,3.849.988,4.631c.911,3.233,4.945,11.649,5.323,12.335a1.9,1.9,0,0,1-.14,2.1,1.362,1.362,0,0,1-.772.51c-1.336.341-2.893-.337-4.206-1.121-2.867-1.7-7.385-7.419-7.385-7.419-.351-.8-2.63-4.329-2.724-4.8,0,0-1.75-1.124-2.374-.869a5.2,5.2,0,0,0-.838,1.132l-2.161-4.11a11.271,11.271,0,0,1,1.441-2.816l3.41-5.083Z" transform="translate(-413.432 -583.138)" fill="#110f10"/>
    </g>
    <g id="Group_1864" data-name="Group 1864" transform="translate(0 6.241)">
      <g id="Group_1862" data-name="Group 1862" transform="translate(2.784 4.214)">
        <path id="Path_9422" data-name="Path 9422" d="M431.042,607.95a6.516,6.516,0,0,1-4.423-1.105c-4.34-2.474-7.765-9.024-7.765-9.024a15.712,15.712,0,0,0-2.931-3.769s-1.213-.855-1.911.02c-.143.183-.11-.007-.25.212a.75.75,0,0,1,.219-.206c.622-.257.982,1.179.982,1.179.727-.09.837-.76,2.767,2.325,0,0,3.5,6.784,7.484,9.55,1.256.872,3.786,1.875,5.379,1.406a1.568,1.568,0,0,0,.947-.862A2.978,2.978,0,0,1,431.042,607.95Z" transform="translate(-413.762 -593.677)" fill="#282827"/>
      </g>
      <g id="Group_1863" data-name="Group 1863" transform="translate(0)">
        <path id="Path_9423" data-name="Path 9423" d="M434.465,593.854l-2.35-4.425a15.732,15.732,0,0,0-.8,1.634l2.16,4.111C433.552,595.057,434.232,594.147,434.465,593.854Z" transform="translate(-431.309 -589.429)" fill="#282827"/>
      </g>
    </g>
  </g>
  <g id="Group_1866" data-name="Group 1866" transform="translate(66.138 351.609)">
    <path id="Path_9424" data-name="Path 9424" d="M434.058,515.593s-2.49,31.4-2.887,34.616-5.238,35.348-5.238,35.348c-.025,2.58.264,3.146-.6,3.9-3.214,2.815-13.648,3.953-14.6-1.663l3.067-39.994-1.636-34.793Z" transform="translate(-410.74 -513.006)" fill="#21201f"/>
  </g>
  <g id="Group_1872" data-name="Group 1872" transform="translate(53.124 422.905)">
    <g id="Group_1867" data-name="Group 1867" transform="translate(1.02 8.804)">
      <path id="Path_9425" data-name="Path 9425" d="M446.3,597.445l-3.91-1.454,2.435-2.238Z" transform="translate(-442.395 -593.753)" fill="#282827"/>
    </g>
    <g id="Group_1868" data-name="Group 1868" transform="translate(0.311)">
      <path id="Path_9426" data-name="Path 9426" d="M445.781,594.6l.431,9.813s.325,4.866.675,6.444a2.532,2.532,0,0,1-.7,2.158,1.817,1.817,0,0,1-1.312.6,9.06,9.06,0,0,1-4.31-1.723c-3.728-2.581-4.74-7.737-4.74-7.737-.153-.862-1.153-6.714-1.183-7.185-.085-1.329-.484-2.246-1.151-2.141,0,0-.979.961-1.126,1.1l-.709-5.032a19.257,19.257,0,0,1,1.642-1.875l4.506-4.135Z" transform="translate(-431.654 -584.878)" fill="#110f10"/>
    </g>
    <g id="Group_1871" data-name="Group 1871" transform="translate(0 4.759)">
      <g id="Group_1869" data-name="Group 1869" transform="translate(1.807 5.021)">
        <path id="Path_9427" data-name="Path 9427" d="M445.433,613.228c-1.637.276-3.718-.922-5-1.745a10.728,10.728,0,0,1-4.836-7.788c-.315-1.652-1.139-6.314-1.246-6.76,0,0-.293-2.87-1.368-2.051a3.189,3.189,0,0,0-.435.326,1,1,0,0,1,.295-.116c.844-.389,1.161,2.479,1.161,2.479-.02.472.779,5.907.926,6.769,0,0,.471,5.324,4.89,7.963,1.313.783,3,1.76,4.633,1.486A2.156,2.156,0,0,0,445.433,613.228Z" transform="translate(-432.543 -594.737)" fill="#282827"/>
      </g>
      <g id="Group_1870" data-name="Group 1870" transform="translate(0)">
        <path id="Path_9428" data-name="Path 9428" d="M447.346,594.843s-.537-2.2-.744-2.93c-.48-1.7-.178-2.238-.178-2.238a13.819,13.819,0,0,0-1.138,1.309s-.325.365-.108,1.394c.191.928.949,3.582.949,3.582Z" transform="translate(-445.104 -589.675)" fill="#282827"/>
      </g>
    </g>
  </g>
  <g id="Group_1873" data-name="Group 1873" transform="translate(53.053 346.459)">
    <path id="Path_9429" data-name="Path 9429" d="M447.208,514.579l-11.262,77.477c-.735,1.7-1.711,1.937-3.4,2.094-10.327.953-13.19-4.388-13.19-4.388-.517-.67-.269-1.1-.083-1.721l8.666-80.227Z" transform="translate(-419.043 -507.815)" fill="#383736"/>
  </g>
  <g id="Group_1874" data-name="Group 1874" transform="translate(51.123 292.989)">
    <path id="Path_9430" data-name="Path 9430" d="M441.818,457.869c-3.877-5.573-8.887-3.877-9.291-3.068,2.412,1.665,7.568,8.448,8.194,16.322a87.245,87.245,0,0,1-.7,13.76c-.13-.218-8.941-15.006-12.111-17.711-4.021-3.425-4.637-6.482-4.547-6.49.655-.587,1.017-.915,1.209-1.088l-.024.009s-15.531,9.507-14.976,11.972l3.643,56.824c-.105-.49.972.607,4.253,1.679a43.816,43.816,0,0,0,15.866,1.593c5.641-.483,13.572-5.453,13.572-5.453a3.291,3.291,0,0,0,1.334-3.151s1.573-31.995.363-44.114C447.536,468.3,445.286,462.853,441.818,457.869Z" transform="translate(-409.56 -453.913)" fill="#282827"/>
  </g>
  <g id="Group_1875" data-name="Group 1875" transform="translate(63.631 285.539)">
    <path id="Path_9431" data-name="Path 9431" d="M436.665,459.708c-4.234,4.579-7.63,2.534-10.645-.74L423.31,446.4l12.7,3.106Z" transform="translate(-423.31 -446.402)" fill="#e8c5ac"/>
  </g>
  <g id="Group_1876" data-name="Group 1876" transform="translate(65.777 277.042)">
    <path id="Path_9432" data-name="Path 9432" d="M430.969,437.861a2.736,2.736,0,0,1,3.03,2.063l.566,4.976a1.5,1.5,0,0,1-.907,1.4c-1.382.445-2.132-.715-2.918-2-.045-.071-1.077-1.981-1.139-2.094C428.721,440.586,428.624,438.128,430.969,437.861Z" transform="translate(-429.027 -437.837)" fill="#ffe8d9"/>
  </g>
  <g id="Group_1877" data-name="Group 1877" transform="translate(73.946 300.671)">
    <path id="Path_9433" data-name="Path 9433" d="M421.873,467.805a2.727,2.727,0,0,1-.138-1.281l.175-1.609-2.509-3.259-1.083.3-.295,3.935,1.587,1.351a2.656,2.656,0,0,1,.8,1.549l1.951,11.016,3.133,5.416.818-6.94Z" transform="translate(-418.023 -461.657)" fill="#160b01"/>
  </g>
  <g id="Group_1878" data-name="Group 1878" transform="translate(77.159 293.716)">
    <path id="Path_9434" data-name="Path 9434" d="M414.238,457.8l-.146-3.158s1.374.162,2.738,2.258c.437.674,1.711,2.37,1.711,2.37l3.58,6.162a2.21,2.21,0,0,1-.337,2.489l-1.649,2.416,2.029,1.808a2.338,2.338,0,0,1,.6,3.041l-4.446,10.317s.27-7.3.146-11.5A35.132,35.132,0,0,0,414.238,457.8Z" transform="translate(-414.093 -454.645)" fill="#7a797a"/>
  </g>
  <g id="Group_1879" data-name="Group 1879" transform="translate(74.961 293.013)">
    <path id="Path_9435" data-name="Path 9435" d="M421.633,460.961c-.573.565-.021,1.2.367,1.637l2.419,2.712c.767.8.965-.217.882-1.145l-.768-6.71c-.858-4.154-2.187-3.478-2.187-3.478a2.391,2.391,0,0,0,.012,1.258C422.641,456.662,423.586,459.038,421.633,460.961Z" transform="translate(-421.386 -453.937)" fill="#fff"/>
  </g>
  <g id="Group_1880" data-name="Group 1880" transform="translate(64.37 293.216)">
    <path id="Path_9436" data-name="Path 9436" d="M426.108,454.141a8.558,8.558,0,0,0,.854,1.813c2.338,3.743,8.225,5.258,8.225,5.258.732.186.736.536.754,1.735l-.225,4.411c.014,1.155-.592,1.1-1.1.68,0,0-5.009-3.455-6.439-4.644-3.361-2.8-3.3-3.381-2.6-7.454C425.9,454.11,426.108,454.141,426.108,454.141Z" transform="translate(-425.197 -454.141)" fill="#fff"/>
  </g>
  <g id="Group_1881" data-name="Group 1881" transform="translate(54.724 266.797)">
    <path id="Path_9437" data-name="Path 9437" d="M425.844,432.633l0,.006-7.306,5.809,10.312,13.322c.811.828,1.421,1.673,2.177,2.324a4.725,4.725,0,0,0,3.468,1.161s2.277-.18,4.7-.5c1.384-.184,2.169-.677,4.122-2.019,2.228-1.535,2.906-3.8,1.425-6.639-1.205-2.309-1.765-3.406-2.3-4.23L433.8,427.509Z" transform="translate(-418.54 -427.509)" fill="#ffe1cc"/>
  </g>
  <g id="Group_1882" data-name="Group 1882" transform="translate(49.99 264.597)">
    <path id="Path_9438" data-name="Path 9438" d="M447.942,425.291c1.131,2.459,2.985,5.575,2.234,4.484-1.124-1.63-3.329.221-3.86,1.127-1.031,1.754-4.232,6.556-4.525,7.271-.843,2.044.5,4.373,1.46,5.494l.886,1.173c.463.61,1.09,1.231.439,1.617-.687.409-.815.124-1.488-.394,0,0-2.451-1.451-3.948.055-1.279,1.288,3.919,3.786,4.133,3.895l.838,3.657c-.2.079.036.253-1.858-.66-3.239-1.558-5.088-2.57-6.1-3.147-11.672-6.627-8.389-18.172,3.065-22.377C441.356,426.7,447.942,425.291,447.942,425.291Z" transform="translate(-428.852 -425.291)" fill="#bf9243"/>
  </g>
  <g id="Group_1883" data-name="Group 1883" transform="translate(59.563 284.481)">
    <path id="Path_9439" data-name="Path 9439" d="M434.124,445.927a2.651,2.651,0,0,1,3.544.234l2.923,3.872a1.453,1.453,0,0,1-.071,1.608c-.929,1.053-2.13.453-3.414-.228-.075-.038-1.877-1.125-1.984-1.188C433.589,449.312,432.3,447.306,434.124,445.927Z" transform="translate(-433.231 -445.336)" fill="#ffe8d9"/>
  </g>
  <g id="Group_1884" data-name="Group 1884" transform="translate(46.737 365.521)">
    <path id="Path_9440" data-name="Path 9440" d="M448.343,528.862c-.749,1.458.731,3.423,2.062,4.1.462.238-.62,4.168,1.35,5.02,0,0,.486-.954,1.273-2.656a3.984,3.984,0,0,0,.649-2.9c-.945-3.833-.951-4.475-2.28-5.152S449.091,527.4,448.343,528.862Z" transform="translate(-448.141 -527.031)" fill="#ffe8d9"/>
  </g>
  <g id="Group_1889" data-name="Group 1889" transform="translate(83.989 102.32)">
    <g id="Group_1885" data-name="Group 1885" transform="translate(23.762 56.398)">
      <path id="Path_9441" data-name="Path 9441" d="M387.883,321.623l1.246-2.543a1.025,1.025,0,0,1,1.786,0l1.25,2.543a.933.933,0,0,1-1.271,1.238l.012.6a.936.936,0,1,1-1.872.031l-.01-.568a.935.935,0,0,1-1.141-1.3Z" transform="translate(-387.787 -318.557)" fill="#53a52d"/>
    </g>
    <g id="Group_1886" data-name="Group 1886">
      <path id="Path_9442" data-name="Path 9442" d="M363.107,290.91c0,16.133,11.8,29.208,26.355,29.208s26.362-13.075,26.362-29.208S404.018,261.7,389.462,261.7,363.107,274.78,363.107,290.91Z" transform="translate(-363.107 -261.703)" fill="#4fa826"/>
    </g>
    <g id="Group_1887" data-name="Group 1887" transform="translate(6.498)">
      <path id="Path_9443" data-name="Path 9443" d="M382.964,261.7c14.556,0,26.362,13.077,26.362,29.207a31.735,31.735,0,0,1-2.315,11.961,24.864,24.864,0,0,1-17.548,7.421c-14.554,0-26.355-13.077-26.355-29.208a31.749,31.749,0,0,1,2.313-11.96A24.858,24.858,0,0,1,382.964,261.7Z" transform="translate(-363.107 -261.703)" fill="#68ce3e"/>
    </g>
    <g id="Group_1888" data-name="Group 1888" transform="translate(32.117 9.185)">
      <path id="Path_9444" data-name="Path 9444" d="M375,279.115c1.88,2.785,5.074,3.918,7.136,2.529s2.216-4.774.338-7.562-5.07-3.914-7.131-2.527S373.131,276.331,375,279.115Z" transform="translate(-373.694 -270.962)" fill="#a1db82"/>
    </g>
  </g>
  <g id="Group_1894" data-name="Group 1894" transform="translate(22.486 38.585)">
    <g id="Group_1890" data-name="Group 1890" transform="translate(23.762 56.398)">
      <path id="Path_9445" data-name="Path 9445" d="M449.883,257.373l1.246-2.543a1.025,1.025,0,0,1,1.786,0l1.25,2.543a.933.933,0,0,1-1.271,1.238l.012.6a.936.936,0,1,1-1.872.031l-.01-.568a.935.935,0,0,1-1.141-1.3Z" transform="translate(-449.787 -254.307)" fill="#53a52d"/>
    </g>
    <g id="Group_1891" data-name="Group 1891">
      <path id="Path_9446" data-name="Path 9446" d="M425.107,226.66c0,16.133,11.8,29.208,26.355,29.208s26.362-13.075,26.362-29.208-11.806-29.207-26.362-29.207S425.107,210.53,425.107,226.66Z" transform="translate(-425.107 -197.453)" fill="#71d647"/>
    </g>
    <g id="Group_1892" data-name="Group 1892" transform="translate(6.498)">
      <path id="Path_9447" data-name="Path 9447" d="M444.964,197.453c14.556,0,26.362,13.077,26.362,29.207a31.736,31.736,0,0,1-2.315,11.961,24.864,24.864,0,0,1-17.548,7.421c-14.554,0-26.355-13.077-26.355-29.208a31.75,31.75,0,0,1,2.313-11.96A24.858,24.858,0,0,1,444.964,197.453Z" transform="translate(-425.107 -197.453)" fill="#81f456"/>
    </g>
    <g id="Group_1893" data-name="Group 1893" transform="translate(32.117 9.185)">
      <path id="Path_9448" data-name="Path 9448" d="M437,214.865c1.88,2.785,5.074,3.918,7.136,2.529s2.216-4.774.338-7.562-5.07-3.914-7.131-2.527S435.131,212.081,437,214.865Z" transform="translate(-435.694 -206.712)" fill="#cfffb8"/>
    </g>
  </g>
  <g id="Group_1981" data-name="Group 1981" transform="translate(25.127 364.862)">
    <g id="Group_1897" data-name="Group 1897" transform="translate(7.153 25.019)" style="isolation: isolate">
      <g id="Group_1896" data-name="Group 1896" transform="translate(0)" style="isolation: isolate">
        <g id="Group_1895" data-name="Group 1895">
          <path id="Path_9449" data-name="Path 9449" d="M468.086,551.587a1.49,1.49,0,0,0,.289.852Z" transform="translate(-468.086 -551.587)" fill="#6d320a"/>
        </g>
      </g>
    </g>
    <g id="Group_1899" data-name="Group 1899" transform="translate(0.368 4.53)">
      <g id="Group_1898" data-name="Group 1898">
        <path id="Path_9450" data-name="Path 9450" d="M475.162,548.109a37.374,37.374,0,0,1-6.813-17.176l-.029,1.545.175.952a38.351,38.351,0,0,0,6.643,15.986Z" transform="translate(-468.32 -530.933)" fill="#6d320a"/>
      </g>
    </g>
    <g id="Group_1902" data-name="Group 1902" transform="translate(22.425 34.128)" style="isolation: isolate">
      <g id="Group_1901" data-name="Group 1901" transform="translate(0)" style="isolation: isolate">
        <g id="Group_1900" data-name="Group 1900">
          <path id="Path_9451" data-name="Path 9451" d="M452.694,560.77a1.512,1.512,0,0,0,.287.857Z" transform="translate(-452.693 -560.77)" fill="#6d320a"/>
        </g>
      </g>
    </g>
    <g id="Group_1904" data-name="Group 1904" transform="translate(31.922 42.331)">
      <g id="Group_1903" data-name="Group 1903" transform="translate(0)">
        <path id="Path_9452" data-name="Path 9452" d="M434.723,574.74l8.064-4.529a1.284,1.284,0,0,0,.552-1.172l-8.062,4.533a1.283,1.283,0,0,1-.553,1.168Z" transform="translate(-434.723 -569.039)" fill="#723919"/>
      </g>
    </g>
    <g id="Group_1906" data-name="Group 1906" transform="translate(0 6.075)">
      <g id="Group_1905" data-name="Group 1905">
        <path id="Path_9453" data-name="Path 9453" d="M475.323,550.323l-.028,1.544-.18.744c-1.063,4.153-3.631,6.723-7.058,7.357,0,0-7.109-1.131-9.287-2.426a70.973,70.973,0,0,1-6.253-4.943l-2.88-3.169a38.352,38.352,0,0,1-6.643-15.986l-.175-.952-.368,21.413a4.03,4.03,0,0,0,1.785,3.192l28.837,17.21c1.006.6,1.835.134,1.854-1.026Z" transform="translate(-442.451 -532.49)" fill="#8c532c"/>
      </g>
    </g>
    <g id="Group_1908" data-name="Group 1908" transform="translate(32.866 19.376)">
      <g id="Group_1907" data-name="Group 1907" transform="translate(0)">
        <path id="Path_9454" data-name="Path 9454" d="M434.326,550.685l8.062-4.535,0-.251-8.06,4.532Z" transform="translate(-434.326 -545.898)" fill="#5c361d"/>
      </g>
    </g>
    <g id="Group_1910" data-name="Group 1910" transform="translate(25.606 24.163)">
      <g id="Group_1909" data-name="Group 1909" transform="translate(0)">
        <path id="Path_9455" data-name="Path 9455" d="M449.716,550.724c-.935,4.61-3.606,7.454-7.248,8.125a.748.748,0,0,1,.006.131l-.017,1.133c3.427-.634,5.995-3.2,7.058-7.357l.18-.744Z" transform="translate(-442.457 -550.724)" fill="#6d320a"/>
      </g>
    </g>
    <g id="Group_1912" data-name="Group 1912" transform="translate(0.397 4.53)">
      <g id="Group_1911" data-name="Group 1911">
        <path id="Path_9456" data-name="Path 9456" d="M442.451,530.933a37.374,37.374,0,0,0,6.813,17.176l0-.271c.009-.463.342-.646.746-.409l1.687,1.01a1.612,1.612,0,0,1,.714,1.272l-.037,2.061a29.93,29.93,0,0,0,5.949,4.662,16.406,16.406,0,0,0,6.18,2.308l.031-1.794c.01-.463.341-.649.74-.411l1.693,1.011a1.632,1.632,0,0,1,.7,1.141c3.643-.672,6.313-3.516,7.248-8.125l.006-.255-10.155-6.058-1.482-.884-9.137-5.453-1.486-.885Z" transform="translate(-442.451 -530.933)" fill="#a5683d"/>
      </g>
    </g>
    <g id="Group_1913" data-name="Group 1913" transform="translate(0.397)">
      <path id="Path_9457" data-name="Path 9457" d="M442.386,526.366l-8.06,4.53L466.8,550.274l-.028,1.544L466.4,573.23a1.283,1.283,0,0,1-.554,1.168l8.064-4.529a1.284,1.284,0,0,0,.552-1.172l.394-22.956Z" transform="translate(-434.326 -526.366)" fill="#6d3b18"/>
    </g>
    <g id="Group_1915" data-name="Group 1915" transform="translate(9.511 25.28)">
      <g id="Group_1914" data-name="Group 1914">
        <path id="Path_9458" data-name="Path 9458" d="M465.9,558.819a16.5,16.5,0,0,1-6.184-2.308,29.833,29.833,0,0,1-5.95-4.66l-.764.185.159.571a36.785,36.785,0,0,0,6.533,5.169,16.36,16.36,0,0,0,6.184,2.308Z" transform="translate(-452.998 -551.85)" fill="#6d320a"/>
      </g>
    </g>
    <g id="Group_1916" data-name="Group 1916" transform="translate(24.711 34.107)">
      <path id="Path_9459" data-name="Path 9459" d="M450.35,560.931l-.03,1.727a.463.463,0,0,1-.2.413l.321-.183a.432.432,0,0,0,.2-.412l.033-1.728Z" transform="translate(-450.123 -560.749)" fill="#75460d"/>
    </g>
    <g id="Group_1918" data-name="Group 1918" transform="translate(22.359 32.569)">
      <g id="Group_1917" data-name="Group 1917" transform="translate(0)">
        <path id="Path_9460" data-name="Path 9460" d="M452.7,560.919l.324-.182-2.579-1.538-.323.18Z" transform="translate(-450.123 -559.198)" fill="#eb921a"/>
      </g>
    </g>
    <g id="Group_1920" data-name="Group 1920" transform="translate(22.326 32.749)">
      <g id="Group_1919" data-name="Group 1919" transform="translate(0)">
        <path id="Path_9461" data-name="Path 9461" d="M450.482,559.38l-.033,1.729a1.423,1.423,0,0,0,.626,1.123l1.3.778c.353.209.646.049.653-.362l.03-1.727Z" transform="translate(-450.449 -559.38)" fill="#d87a13"/>
      </g>
    </g>
    <g id="Group_1921" data-name="Group 1921" transform="translate(22.273 29.924)">
      <path id="Path_9462" data-name="Path 9462" d="M452.393,557.642l-1.691-1a.522.522,0,0,0-.519-.062l-.648.367a.521.521,0,0,1,.524.059l1.685,1a1.641,1.641,0,0,1,.717,1.274l-.04,2.1.644-.359.041-2.1A1.657,1.657,0,0,0,452.393,557.642Z" transform="translate(-449.535 -556.532)" fill="#89550f"/>
    </g>
    <g id="Group_1923" data-name="Group 1923" transform="translate(22.019 30.287)">
      <g id="Group_1922" data-name="Group 1922" transform="translate(0)">
        <path id="Path_9463" data-name="Path 9463" d="M450.963,557c-.4-.24-.733-.062-.741.4l-.037,2.1,3.141,1.872.04-2.1a1.6,1.6,0,0,0-.717-1.274Z" transform="translate(-450.185 -556.897)" fill="#f99b1c"/>
      </g>
    </g>
    <g id="Group_1930" data-name="Group 1930" transform="translate(6.877 23.553)">
      <g id="Group_1929" data-name="Group 1929" transform="translate(0)" style="isolation: isolate">
        <g id="Group_1924" data-name="Group 1924" transform="translate(2.381 1.54)">
          <path id="Path_9464" data-name="Path 9464" d="M465.928,551.843l-.03,1.727a.444.444,0,0,1-.2.413l.323-.181a.459.459,0,0,0,.2-.412l.029-1.728Z" transform="translate(-465.701 -551.662)" fill="#75460d"/>
        </g>
        <g id="Group_1926" data-name="Group 1926" transform="translate(0.029)">
          <g id="Group_1925" data-name="Group 1925">
            <path id="Path_9465" data-name="Path 9465" d="M468.28,551.83l.323-.18-2.583-1.54-.32.182Z" transform="translate(-465.701 -550.109)" fill="#eb921a"/>
          </g>
        </g>
        <g id="Group_1928" data-name="Group 1928" transform="translate(0 0.182)">
          <g id="Group_1927" data-name="Group 1927">
            <path id="Path_9466" data-name="Path 9466" d="M466.056,550.293l-.029,1.729a1.4,1.4,0,0,0,.624,1.121l1.3.78c.351.208.643.047.651-.364l.03-1.727Z" transform="translate(-466.027 -550.293)" fill="#d87a13"/>
          </g>
        </g>
      </g>
    </g>
    <g id="Group_1931" data-name="Group 1931" transform="translate(6.822 20.908)">
      <path id="Path_9467" data-name="Path 9467" d="M467.969,548.558l-1.689-1.006a.5.5,0,0,0-.521-.061l-.646.359a.535.535,0,0,1,.525.061l1.684,1.009a1.069,1.069,0,0,1,.216.176.141.141,0,0,1,.043.038,1.615,1.615,0,0,1,.451,1.059l-.035,2.1.646-.361.039-2.093A1.647,1.647,0,0,0,467.969,548.558Z" transform="translate(-465.113 -547.443)" fill="#89550f"/>
    </g>
    <g id="Group_1933" data-name="Group 1933" transform="translate(6.568 21.27)">
      <g id="Group_1932" data-name="Group 1932">
        <path id="Path_9468" data-name="Path 9468" d="M466.546,547.913c-.407-.24-.734-.055-.742.409l-.037,2.1,3.139,1.873.035-2.1a1.586,1.586,0,0,0-.71-1.272Z" transform="translate(-465.768 -547.808)" fill="#f99b1c"/>
      </g>
    </g>
    <g id="Group_1953" data-name="Group 1953" transform="translate(23.12 12.719)">
      <g id="Group_1952" data-name="Group 1952" style="isolation: isolate">
        <g id="Group_1937" data-name="Group 1937" transform="translate(5.253 1.061)" style="isolation: isolate">
          <g id="Group_1936" data-name="Group 1936" transform="translate(0)" clip-path="url(#clip-path)">
            <g id="Group_1935" data-name="Group 1935" style="isolation: isolate">
              <g id="Group_1934" data-name="Group 1934">
                <path id="Path_9469" data-name="Path 9469" d="M446.708,540.628l-.009.739a.471.471,0,0,0,.279-.371l.006-.739a.464.464,0,0,1-.276.371Z" transform="translate(-446.699 -540.257)" fill="#f99b1c"/>
              </g>
            </g>
          </g>
        </g>
        <g id="Group_1941" data-name="Group 1941" transform="translate(0 2.101)" style="isolation: isolate">
          <g id="Group_1940" data-name="Group 1940" clip-path="url(#clip-path-2)">
            <g id="Group_1939" data-name="Group 1939" style="isolation: isolate">
              <g id="Group_1938" data-name="Group 1938">
                <path id="Path_9471" data-name="Path 9471" d="M452.02,541.306l-.008.738a.459.459,0,0,0,.259.373l.008-.74a.444.444,0,0,1-.259-.371Z" transform="translate(-452.012 -541.306)" fill="#ea921a"/>
              </g>
            </g>
          </g>
        </g>
        <g id="Group_1943" data-name="Group 1943" transform="translate(0.259 2.472)">
          <g id="Group_1942" data-name="Group 1942">
            <path id="Path_9473" data-name="Path 9473" d="M451.139,541.68l-.008.74.874.525.008-.742Z" transform="translate(-451.131 -541.68)" fill="#ea921a"/>
          </g>
        </g>
        <g id="Group_1945" data-name="Group 1945" transform="translate(2.412 1.432)">
          <g id="Group_1944" data-name="Group 1944">
            <path id="Path_9474" data-name="Path 9474" d="M446.986,542.213l-.01.742,2.84-1.585.01-.739Z" transform="translate(-446.977 -540.631)" fill="#ffc585"/>
          </g>
        </g>
        <g id="Group_1949" data-name="Group 1949" transform="translate(1.133 2.995)" style="isolation: isolate">
          <g id="Group_1948" data-name="Group 1948" clip-path="url(#clip-path-3)">
            <g id="Group_1947" data-name="Group 1947" style="isolation: isolate">
              <g id="Group_1946" data-name="Group 1946">
                <path id="Path_9475" data-name="Path 9475" d="M449.848,542.207l-.008.742a1.417,1.417,0,0,0,1.279.019l.01-.742a1.405,1.405,0,0,1-1.281-.019Z" transform="translate(-449.84 -542.207)" fill="#f99b1c"/>
              </g>
            </g>
          </g>
        </g>
        <g id="Group_1951" data-name="Group 1951" transform="translate(0.008)">
          <g id="Group_1950" data-name="Group 1950">
            <path id="Path_9477" data-name="Path 9477" d="M446.971,540.92a.391.391,0,0,0-.014.74l.874.523a1.4,1.4,0,0,0,1.281.019l2.84-1.582c.361-.2.367-.536.022-.744l-.876-.526a1.412,1.412,0,0,0-1.283-.016Z" transform="translate(-446.699 -539.188)" fill="#ffb255"/>
          </g>
        </g>
      </g>
    </g>
    <g id="Group_1973" data-name="Group 1973" transform="translate(12.544 6.326)">
      <g id="Group_1972" data-name="Group 1972" transform="translate(0)" style="isolation: isolate">
        <g id="Group_1957" data-name="Group 1957" transform="translate(5.256 1.059)" style="isolation: isolate">
          <g id="Group_1956" data-name="Group 1956" clip-path="url(#clip-path-4)">
            <g id="Group_1955" data-name="Group 1955" style="isolation: isolate">
              <g id="Group_1954" data-name="Group 1954">
                <path id="Path_9478" data-name="Path 9478" d="M457.365,534.181l-.006.744a.468.468,0,0,0,.276-.373l.008-.741a.453.453,0,0,1-.278.37Z" transform="translate(-457.359 -533.811)" fill="#f99b1c"/>
              </g>
            </g>
          </g>
        </g>
        <g id="Group_1961" data-name="Group 1961" transform="translate(0 2.098)" style="isolation: isolate">
          <g id="Group_1960" data-name="Group 1960" clip-path="url(#clip-path-5)">
            <g id="Group_1959" data-name="Group 1959" style="isolation: isolate">
              <g id="Group_1958" data-name="Group 1958">
                <path id="Path_9480" data-name="Path 9480" d="M462.683,534.859l-.011.741a.463.463,0,0,0,.259.373l.01-.741a.443.443,0,0,1-.258-.373Z" transform="translate(-462.672 -534.859)" fill="#ea921a"/>
              </g>
            </g>
          </g>
        </g>
        <g id="Group_1963" data-name="Group 1963" transform="translate(0.259 2.472)">
          <g id="Group_1962" data-name="Group 1962">
            <path id="Path_9482" data-name="Path 9482" d="M461.8,535.235l-.01.741.876.526.01-.744Z" transform="translate(-461.789 -535.235)" fill="#ea921a"/>
          </g>
        </g>
        <g id="Group_1965" data-name="Group 1965" transform="translate(2.414 1.428)">
          <g id="Group_1964" data-name="Group 1964">
            <path id="Path_9483" data-name="Path 9483" d="M457.65,535.769l-.012.743,2.842-1.584.006-.744Z" transform="translate(-457.639 -534.184)" fill="#ffc585"/>
          </g>
        </g>
        <g id="Group_1969" data-name="Group 1969" transform="translate(1.135 2.995)" style="isolation: isolate">
          <g id="Group_1968" data-name="Group 1968" clip-path="url(#clip-path-6)">
            <g id="Group_1967" data-name="Group 1967" style="isolation: isolate">
              <g id="Group_1966" data-name="Group 1966">
                <path id="Path_9484" data-name="Path 9484" d="M460.508,535.763l-.01.744a1.423,1.423,0,0,0,1.279.017l.012-.743a1.39,1.39,0,0,1-1.281-.018Z" transform="translate(-460.498 -535.763)" fill="#f99b1c"/>
              </g>
            </g>
          </g>
        </g>
        <g id="Group_1971" data-name="Group 1971" transform="translate(0.012)">
          <g id="Group_1970" data-name="Group 1970">
            <path id="Path_9486" data-name="Path 9486" d="M457.634,534.471c-.359.2-.366.535-.018.744l.876.524a1.39,1.39,0,0,0,1.281.018l2.836-1.584c.363-.2.368-.533.022-.74l-.874-.526a1.412,1.412,0,0,0-1.283-.018Z" transform="translate(-457.36 -532.744)" fill="#ffb255"/>
          </g>
        </g>
      </g>
    </g>
    <g id="Group_1977" data-name="Group 1977" transform="translate(15.421 6.185)">
      <path id="Path_9487" data-name="Path 9487" d="M460.022,532.6l-1.291.726a2.824,2.824,0,0,0-1.289,1.859l1.295-.723A2.779,2.779,0,0,1,460.022,532.6Z" transform="translate(-457.443 -532.601)" fill="#8c532c"/>
      <g id="Group_1976" data-name="Group 1976" clip-path="url(#clip-path-7)">
        <g id="Group_1975" data-name="Group 1975" style="isolation: isolate">
          <g id="Group_1974" data-name="Group 1974">
            <path id="Path_9488" data-name="Path 9488" d="M457.443,535.186l1.295-.723a2.779,2.779,0,0,1,1.285-1.862l-1.291.726a2.824,2.824,0,0,0-1.289,1.859Z" transform="translate(-457.443 -532.601)" fill="#8c532c"/>
          </g>
        </g>
      </g>
    </g>
    <g id="Group_1978" data-name="Group 1978" transform="translate(15.697 3.977)">
      <path id="Path_9490" data-name="Path 9490" d="M449.327,530.78c3.588-2.017,9.585,3.845,10.342,10l-1.289.732c-.76-6.147-6.75-12.021-10.348-10Z" transform="translate(-448.033 -530.375)" fill="#8c532c"/>
    </g>
    <g id="Group_1980" data-name="Group 1980" transform="translate(13.939 4.712)">
      <g id="Group_1979" data-name="Group 1979">
        <path id="Path_9491" data-name="Path 9491" d="M455.487,532c-3.029-1.806-5.59-.755-6.155,2.288l1.482.885c.525-2.122,2.419-2.812,4.643-1.488a10.611,10.611,0,0,1,4.5,6.942l1.482.887A13.859,13.859,0,0,0,455.487,532Z" transform="translate(-449.332 -531.116)" fill="#a5683d"/>
      </g>
    </g>
  </g>
  <g id="Group_1986" data-name="Group 1986" transform="translate(94.155 21.556)">
    <g id="Group_1982" data-name="Group 1982" transform="translate(23.763 56.398)">
      <path id="Path_9492" data-name="Path 9492" d="M377.634,240.206l1.248-2.543a1.025,1.025,0,0,1,1.786,0l1.248,2.543a.933.933,0,0,1-1.269,1.239l.012.6a.936.936,0,0,1-1.872.031l-.012-.569a.924.924,0,0,1-.713-.046A.936.936,0,0,1,377.634,240.206Z" transform="translate(-377.538 -237.14)" fill="#57bedd"/>
    </g>
    <g id="Group_1983" data-name="Group 1983">
      <path id="Path_9493" data-name="Path 9493" d="M352.859,209.494c0,16.132,11.8,29.208,26.357,29.208s26.36-13.076,26.36-29.208-11.8-29.208-26.36-29.208S352.859,193.364,352.859,209.494Z" transform="translate(-352.859 -180.286)" fill="#3ab9ce"/>
    </g>
    <g id="Group_1984" data-name="Group 1984" transform="translate(6.499)">
      <path id="Path_9494" data-name="Path 9494" d="M372.718,180.286c14.556,0,26.36,13.078,26.36,29.208a31.774,31.774,0,0,1-2.313,11.961,24.868,24.868,0,0,1-17.55,7.42c-14.552,0-26.355-13.077-26.355-29.208a31.712,31.712,0,0,1,2.315-11.96A24.855,24.855,0,0,1,372.718,180.286Z" transform="translate(-352.859 -180.286)" fill="#56d6f4"/>
    </g>
    <g id="Group_1985" data-name="Group 1985" transform="translate(32.118 9.185)">
      <path id="Path_9495" data-name="Path 9495" d="M364.755,197.7c1.88,2.784,5.072,3.917,7.136,2.529s2.214-4.774.338-7.563-5.07-3.914-7.131-2.526S362.882,194.915,364.755,197.7Z" transform="translate(-363.444 -189.545)" fill="#98ebf9"/>
    </g>
  </g>
  <g id="Group_1991" data-name="Group 1991" transform="translate(0 92.4)">
    <g id="Group_1987" data-name="Group 1987" transform="translate(23.763 56.398)">
      <path id="Path_9496" data-name="Path 9496" d="M472.55,311.623l1.248-2.543a1.025,1.025,0,0,1,1.786,0l1.248,2.543a.932.932,0,0,1-1.269,1.238l.012.6a.936.936,0,1,1-1.872.031l-.012-.568a.925.925,0,0,1-.712-.046A.936.936,0,0,1,472.55,311.623Z" transform="translate(-472.454 -308.557)" fill="#2a2abc"/>
    </g>
    <g id="Group_1988" data-name="Group 1988">
      <path id="Path_9497" data-name="Path 9497" d="M447.775,280.91c0,16.133,11.8,29.208,26.357,29.208s26.36-13.075,26.36-29.208-11.8-29.207-26.36-29.207S447.775,264.78,447.775,280.91Z" transform="translate(-447.775 -251.703)" fill="#2a2abc"/>
    </g>
    <g id="Group_1989" data-name="Group 1989" transform="translate(6.499)">
      <path id="Path_9498" data-name="Path 9498" d="M467.634,251.7c14.556,0,26.36,13.077,26.36,29.207a31.774,31.774,0,0,1-2.313,11.961,24.865,24.865,0,0,1-17.55,7.421c-14.552,0-26.355-13.077-26.355-29.208a31.713,31.713,0,0,1,2.315-11.96A24.855,24.855,0,0,1,467.634,251.7Z" transform="translate(-447.775 -251.703)" fill="#4848d3"/>
    </g>
    <g id="Group_1990" data-name="Group 1990" transform="translate(32.118 9.185)">
      <path id="Path_9499" data-name="Path 9499" d="M459.671,269.115c1.88,2.785,5.073,3.918,7.136,2.529s2.214-4.774.338-7.562-5.07-3.914-7.131-2.527S457.8,266.331,459.671,269.115Z" transform="translate(-458.36 -260.962)" fill="#99f"/>
    </g>
  </g>
  <g id="Group_1996" data-name="Group 1996" transform="translate(65.388 60.574)">
    <g id="Group_1992" data-name="Group 1992" transform="translate(23.763 56.398)">
      <path id="Path_9500" data-name="Path 9500" d="M406.634,279.539,407.882,277a1.024,1.024,0,0,1,1.786,0l1.248,2.542a.933.933,0,0,1-1.269,1.239l.012.6a.936.936,0,0,1-1.872.031l-.012-.569a.924.924,0,0,1-.713-.046A.936.936,0,0,1,406.634,279.539Z" transform="translate(-406.538 -276.473)" fill="#bc3572"/>
    </g>
    <g id="Group_1993" data-name="Group 1993">
      <path id="Path_9501" data-name="Path 9501" d="M381.859,248.827c0,16.132,11.8,29.208,26.357,29.208s26.36-13.076,26.36-29.208-11.8-29.208-26.36-29.208S381.859,232.7,381.859,248.827Z" transform="translate(-381.859 -219.619)" fill="#db5289"/>
    </g>
    <g id="Group_1994" data-name="Group 1994" transform="translate(6.499)">
      <path id="Path_9502" data-name="Path 9502" d="M401.718,219.619c14.556,0,26.36,13.078,26.36,29.208a31.772,31.772,0,0,1-2.313,11.961,24.868,24.868,0,0,1-17.55,7.42c-14.552,0-26.355-13.077-26.355-29.208a31.712,31.712,0,0,1,2.315-11.96A24.855,24.855,0,0,1,401.718,219.619Z" transform="translate(-381.859 -219.619)" fill="#f987b0"/>
    </g>
    <g id="Group_1995" data-name="Group 1995" transform="translate(32.118 9.185)" opacity="0.44">
      <path id="Path_9503" data-name="Path 9503" d="M393.755,237.032c1.88,2.784,5.072,3.917,7.136,2.528s2.214-4.774.338-7.562-5.07-3.914-7.131-2.526S391.882,234.248,393.755,237.032Z" transform="translate(-392.444 -228.878)" fill="#ffe3e3"/>
    </g>
  </g>
  <g id="Group_1997" data-name="Group 1997" transform="translate(40.125 364.338)">
    <path id="Path_9504" data-name="Path 9504" d="M456.614,526.065l3.673,1.867.1,3.277-1.559,3.1a3.529,3.529,0,0,0-.26,2.144c.079.51.229,1.406.229,1.406s-1.016,3.332-3.016,1.889a2.986,2.986,0,0,1-.931-1.287c-.917-.5-2.37-1.527-3.362-2.149-2.29-1.429-.474-4.509-.474-4.509l1.5-3.132C453.339,526.911,454.926,525.211,456.614,526.065Z" transform="translate(-450.332 -525.838)" fill="#ffe8d9"/>
  </g>
  <g id="Group_2002" data-name="Group 2002" transform="translate(39.596 97.443)">
    <g id="Group_1998" data-name="Group 1998" transform="translate(23.763 56.398)">
      <path id="Path_9505" data-name="Path 9505" d="M432.634,316.706l1.248-2.543a1.025,1.025,0,0,1,1.786,0l1.248,2.543a.933.933,0,0,1-1.269,1.239l.012.6a.936.936,0,0,1-1.872.031l-.012-.569a.924.924,0,0,1-.713-.046A.936.936,0,0,1,432.634,316.706Z" transform="translate(-432.539 -313.64)" fill="#b7ad2e"/>
    </g>
    <g id="Group_1999" data-name="Group 1999">
      <path id="Path_9506" data-name="Path 9506" d="M407.859,285.994c0,16.132,11.8,29.208,26.357,29.208s26.36-13.076,26.36-29.208-11.8-29.208-26.36-29.208S407.859,269.864,407.859,285.994Z" transform="translate(-407.859 -256.786)" fill="#d6aa3e"/>
    </g>
    <g id="Group_2000" data-name="Group 2000" transform="translate(6.499)">
      <path id="Path_9507" data-name="Path 9507" d="M427.718,256.786c14.556,0,26.36,13.078,26.36,29.208a31.773,31.773,0,0,1-2.313,11.961,24.868,24.868,0,0,1-17.55,7.42c-14.552,0-26.355-13.077-26.355-29.208a31.712,31.712,0,0,1,2.315-11.96A24.855,24.855,0,0,1,427.718,256.786Z" transform="translate(-407.859 -256.786)" fill="#f4cb56"/>
    </g>
    <g id="Group_2001" data-name="Group 2001" transform="translate(32.118 9.185)">
      <path id="Path_9508" data-name="Path 9508" d="M419.755,274.2c1.88,2.784,5.072,3.917,7.136,2.529s2.214-4.774.338-7.563-5.07-3.914-7.131-2.526S417.883,271.415,419.755,274.2Z" transform="translate(-418.444 -266.045)" fill="#fce5ae"/>
    </g>
  </g>
  <g id="Group_2007" data-name="Group 2007" transform="translate(55.852 0)">
    <g id="Group_2003" data-name="Group 2003" transform="translate(23.762 56.398)">
      <path id="Path_9509" data-name="Path 9509" d="M416.248,218.476l1.246-2.542a1.025,1.025,0,0,1,1.787,0l1.25,2.542a.933.933,0,0,1-1.271,1.238l.011.6a.936.936,0,1,1-1.871.031l-.01-.569a.923.923,0,0,1-.713-.046A.935.935,0,0,1,416.248,218.476Z" transform="translate(-416.152 -215.41)" fill="#b7ad2e"/>
    </g>
    <g id="Group_2004" data-name="Group 2004">
      <path id="Path_9510" data-name="Path 9510" d="M391.473,187.764c0,16.132,11.8,29.208,26.355,29.208s26.361-13.076,26.361-29.208-11.8-29.208-26.361-29.208S391.473,171.634,391.473,187.764Z" transform="translate(-391.473 -158.556)" fill="#e0d846"/>
    </g>
    <g id="Group_2005" data-name="Group 2005" transform="translate(6.497)">
      <path id="Path_9511" data-name="Path 9511" d="M411.331,158.556c14.556,0,26.361,13.078,26.361,29.208a31.716,31.716,0,0,1-2.315,11.961,24.863,24.863,0,0,1-17.547,7.42c-14.554,0-26.356-13.077-26.356-29.208a31.731,31.731,0,0,1,2.314-11.96A24.858,24.858,0,0,1,411.331,158.556Z" transform="translate(-391.473 -158.556)" fill="#f7f254"/>
    </g>
    <g id="Group_2006" data-name="Group 2006" transform="translate(32.116 9.185)">
      <path id="Path_9512" data-name="Path 9512" d="M403.369,175.969c1.88,2.784,5.074,3.917,7.135,2.528s2.217-4.774.339-7.562-5.07-3.914-7.131-2.526S401.5,173.184,403.369,175.969Z" transform="translate(-402.059 -167.815)" fill="#fffdd9"/>
    </g>
  </g>
  <g id="Group_2008" data-name="Group 2008" transform="translate(86.389 153.371)">
    <path id="Path_9513" data-name="Path 9513" d="M368.725,400.792a.5.5,0,0,0,.419-.763c-.862-1.355-1.929-6.106-.488-10.941a15.06,15.06,0,0,1,8.707-9.668,38.642,38.642,0,0,1,6.171-1.7c7.255-1.647,18.22-4.137,25.564-11.971,9.992-10.658-.267-50.521-.708-52.212a.5.5,0,1,0-.959.25c.106.41,10.565,41.024.943,51.285-7.136,7.612-17.922,10.061-25.06,11.682a38.216,38.216,0,0,0-6.361,1.762A16.23,16.23,0,0,0,367.7,388.8c-1.55,5.2-.372,10.224.6,11.758A.5.5,0,0,0,368.725,400.792Z" transform="translate(-366.953 -313.166)" fill="#231f20"/>
  </g>
  <g id="Group_2009" data-name="Group 2009" transform="translate(87.541 211.401)">
    <path id="Path_9514" data-name="Path 9514" d="M398.066,423.952a.506.506,0,0,0,.068,0,.5.5,0,0,0,.425-.559,93.949,93.949,0,0,0-5.367-20.088c-3.9-9.308-1.587-16.158,6.688-19.814,12.208-5.394,12.6-11.064,12.611-11.3a.5.5,0,0,0-.472-.518.463.463,0,0,0-.518.469c-.006.081-.494,5.35-12.022,10.443-8.73,3.858-11.288,11.352-7.2,21.105a92.715,92.715,0,0,1,5.3,19.84A.5.5,0,0,0,398.066,423.952Z" transform="translate(-390.378 -371.665)" fill="#231f20"/>
  </g>
  <g id="Group_2014" data-name="Group 2014" transform="translate(119.947 68.757)">
    <g id="Group_2010" data-name="Group 2010" transform="translate(23.763 56.398)">
      <path id="Path_9515" data-name="Path 9515" d="M351.634,287.789l1.248-2.542a1.024,1.024,0,0,1,1.786,0l1.248,2.542a.933.933,0,0,1-1.269,1.239l.012.6a.936.936,0,0,1-1.872.031l-.012-.569a.924.924,0,0,1-.713-.046A.936.936,0,0,1,351.634,287.789Z" transform="translate(-351.538 -284.723)" fill="#c60606"/>
    </g>
    <g id="Group_2011" data-name="Group 2011">
      <path id="Path_9516" data-name="Path 9516" d="M326.859,257.077c0,16.132,11.8,29.208,26.357,29.208s26.36-13.076,26.36-29.208-11.8-29.208-26.36-29.208S326.859,240.947,326.859,257.077Z" transform="translate(-326.859 -227.869)" fill="#ea3939"/>
    </g>
    <g id="Group_2012" data-name="Group 2012" transform="translate(6.499)">
      <path id="Path_9517" data-name="Path 9517" d="M346.717,227.869c14.556,0,26.36,13.078,26.36,29.208a31.773,31.773,0,0,1-2.313,11.961,24.868,24.868,0,0,1-17.55,7.42c-14.552,0-26.355-13.077-26.355-29.208a31.712,31.712,0,0,1,2.315-11.96A24.855,24.855,0,0,1,346.717,227.869Z" transform="translate(-326.859 -227.869)" fill="#f95353"/>
    </g>
    <g id="Group_2013" data-name="Group 2013" transform="translate(32.118 9.185)" opacity="0.44">
      <path id="Path_9518" data-name="Path 9518" d="M338.755,245.282c1.88,2.784,5.072,3.917,7.136,2.528s2.214-4.774.338-7.562-5.07-3.914-7.131-2.526S336.883,242.5,338.755,245.282Z" transform="translate(-337.444 -237.128)" fill="#ffe3e3"/>
    </g>
  </g>
  <g id="Group_2019" data-name="Group 2019" transform="translate(83.083 150.744)">
    <g id="Group_2015" data-name="Group 2015" transform="translate(23.763 56.398)">
      <path id="Path_9519" data-name="Path 9519" d="M388.8,370.438l1.248-2.543a1.025,1.025,0,0,1,1.786,0l1.248,2.543a.932.932,0,0,1-1.269,1.238l.011.6a.936.936,0,1,1-1.871.031l-.012-.569a.924.924,0,0,1-.713-.046A.936.936,0,0,1,388.8,370.438Z" transform="translate(-388.701 -367.372)" fill="#57bedd"/>
    </g>
    <g id="Group_2016" data-name="Group 2016">
      <path id="Path_9520" data-name="Path 9520" d="M364.021,339.726c0,16.132,11.8,29.208,26.357,29.208s26.36-13.076,26.36-29.208-11.8-29.208-26.36-29.208S364.021,323.6,364.021,339.726Z" transform="translate(-364.021 -310.518)" fill="#3ab9ce"/>
    </g>
    <g id="Group_2017" data-name="Group 2017" transform="translate(6.498)">
      <path id="Path_9521" data-name="Path 9521" d="M383.88,310.518c14.556,0,26.36,13.078,26.36,29.208a31.755,31.755,0,0,1-2.314,11.961,24.864,24.864,0,0,1-17.549,7.42c-14.552,0-26.355-13.077-26.355-29.208a31.712,31.712,0,0,1,2.315-11.96A24.855,24.855,0,0,1,383.88,310.518Z" transform="translate(-364.021 -310.518)" fill="#56d6f4"/>
    </g>
    <g id="Group_2018" data-name="Group 2018" transform="translate(32.117 9.185)">
      <path id="Path_9522" data-name="Path 9522" d="M375.918,327.931c1.88,2.784,5.072,3.917,7.136,2.528s2.214-4.774.338-7.562-5.07-3.914-7.131-2.526S374.044,325.147,375.918,327.931Z" transform="translate(-374.606 -319.777)" fill="#98ebf9"/>
    </g>
  </g>
  <g id="Group_2020" data-name="Group 2020" transform="translate(66.337 179.865)">
    <path id="Path_9523" data-name="Path 9523" d="M433.338,402.26a.522.522,0,0,0,.5-.452c.065-.454-.368-1.427-2.414-5.767-2.116-4.488-5.314-11.27-7.678-17.771-3.923-10.788-13.914-37.8-14.014-38.069a.5.5,0,1,0-.93.343c.1.272,10.088,27.28,14.012,38.065,2.38,6.544,5.59,13.351,7.714,17.856a51.324,51.324,0,0,1,2.326,5.257.472.472,0,0,0,.423.535A.467.467,0,0,0,433.338,402.26Z" transform="translate(-408.769 -339.874)" fill="#231f20"/>
  </g>
  <g id="Group_2021" data-name="Group 2021" transform="translate(87.265 185.754)">
    <path id="Path_9524" data-name="Path 9524" d="M361.317,424.613a.5.5,0,0,0,.421-.762c-.114-.18-11.437-18.114-13.217-23.45-1.691-5.073,2.755-8.594,11-12.962,2.684-1.421,7.407-2.838,12.875-4.481,11.755-3.53,26.381-7.923,32.741-15.648,9.312-11.306,7.074-20.73,6.973-21.125a.5.5,0,0,0-.961.242c.024.092,2.2,9.358-6.777,20.253-6.168,7.491-20.635,11.836-32.26,15.327-5.518,1.658-10.284,3.089-13.055,4.555-8.721,4.617-13.394,8.413-11.482,14.152,1.817,5.451,12.851,22.927,13.32,23.669A.5.5,0,0,0,361.317,424.613Z" transform="translate(-347.154 -345.811)" fill="#231f20"/>
  </g>
  <g id="Group_2022" data-name="Group 2022" transform="translate(58.323 182.594)">
    <path id="Path_9525" data-name="Path 9525" d="M441.364,399.912a.5.5,0,0,0,.388-.806A112.5,112.5,0,0,0,417.578,377.8c-11.1-7.149-6.157-34.31-6.106-34.584a.5.5,0,0,0-.974-.183c-.215,1.143-5.117,28.091,6.542,35.6a111.284,111.284,0,0,1,23.937,21.1A.5.5,0,0,0,441.364,399.912Z" transform="translate(-409.294 -342.625)" fill="#231f20"/>
  </g>
  <g id="Group_2023" data-name="Group 2023" transform="translate(38.065 158.331)">
    <path id="Path_9526" data-name="Path 9526" d="M461.614,409.3a.5.5,0,0,0,.5-.483c.3-11.5-9.377-24.667-28.777-39.131-16.937-12.629-23.222-50.715-23.283-51.1a.5.5,0,1,0-.98.157c.254,1.581,6.413,38.869,23.67,51.737,19.125,14.26,28.673,27.15,28.379,38.309a.5.5,0,0,0,.482.509Z" transform="translate(-409.063 -318.166)" fill="#231f20"/>
  </g>
  <g id="Group_2024" data-name="Group 2024" transform="translate(86.919 181.602)">
    <path id="Path_9527" data-name="Path 9527" d="M388.908,402.012a.488.488,0,0,0,.307-.106.5.5,0,0,0,.085-.7c-1.18-1.5-2.868-11.1,5-24.742,5.062-8.78,18.594-33.858,18.731-34.111a.5.5,0,0,0-.873-.47c-.136.252-13.662,25.317-18.719,34.088-8.048,13.96-6.4,23.971-4.919,25.849A.5.5,0,0,0,388.908,402.012Z" transform="translate(-387.294 -341.625)" fill="#231f20"/>
  </g>
  <g id="Group_2025" data-name="Group 2025" transform="translate(42.302 203.921)">
    <path id="Path_9528" data-name="Path 9528" d="M448.494,419.056a.492.492,0,0,0,.289-.092c.537-.384,13.07-9.507,7.828-18.509l-.481-.827c-4.631-7.989-5.343-9.217-28.095-15.027-8.32-2.125-13.607-5.553-15.717-10.191a11.969,11.969,0,0,1,.041-9.566.5.5,0,1,0-.885-.446,12.793,12.793,0,0,0-.059,10.423c2.242,4.925,7.75,8.539,16.374,10.74,22.348,5.707,22.934,6.715,27.485,14.564l.48.829c4.793,8.229-7.424,17.114-7.548,17.2a.5.5,0,0,0,.289.9Z" transform="translate(-410.324 -364.125)" fill="#231f20"/>
  </g>
  <g id="Group_2026" data-name="Group 2026" transform="translate(85.389 203.797)">
    <path id="Path_9529" data-name="Path 9529" d="M414.147,434.059l.057,0a.5.5,0,0,0,.437-.549A32.247,32.247,0,0,0,404.566,415.1c-8.645-8.035-11.881-22.426-12.869-28.24-.968-5.692.853-22.139.872-22.3a.5.5,0,1,0-.986-.111c-.077.682-1.856,16.753-.864,22.582,1.006,5.913,4.305,20.558,13.171,28.8a31.8,31.8,0,0,1,9.765,17.8A.5.5,0,0,0,414.147,434.059Z" transform="translate(-390.419 -364)" fill="#231f20"/>
  </g>
  <g id="Group_2031" data-name="Group 2031" transform="translate(17.524 144.81)">
    <g id="Group_2027" data-name="Group 2027" transform="translate(23.763 56.398)">
      <path id="Path_9530" data-name="Path 9530" d="M454.884,364.456l1.248-2.544a1.025,1.025,0,0,1,1.786,0l1.248,2.544A.933.933,0,0,1,457.9,365.7l.012.6a.936.936,0,0,1-1.872.031l-.012-.569a.924.924,0,0,1-.713-.046A.936.936,0,0,1,454.884,364.456Z" transform="translate(-454.788 -361.39)" fill="#53a52d"/>
    </g>
    <g id="Group_2028" data-name="Group 2028">
      <path id="Path_9531" data-name="Path 9531" d="M430.109,333.744c0,16.132,11.8,29.208,26.357,29.208s26.36-13.076,26.36-29.208-11.8-29.208-26.36-29.208S430.109,317.614,430.109,333.744Z" transform="translate(-430.109 -304.536)" fill="#71d647"/>
    </g>
    <g id="Group_2029" data-name="Group 2029" transform="translate(6.498)">
      <path id="Path_9532" data-name="Path 9532" d="M449.968,304.536c14.556,0,26.36,13.078,26.36,29.208a31.774,31.774,0,0,1-2.313,11.961,24.868,24.868,0,0,1-17.55,7.42c-14.552,0-26.355-13.077-26.355-29.208a31.712,31.712,0,0,1,2.315-11.96A24.855,24.855,0,0,1,449.968,304.536Z" transform="translate(-430.109 -304.536)" fill="#81f456"/>
    </g>
    <g id="Group_2030" data-name="Group 2030" transform="translate(32.118 9.185)">
      <path id="Path_9533" data-name="Path 9533" d="M442.005,321.949c1.88,2.784,5.072,3.917,7.136,2.529s2.214-4.774.338-7.563-5.07-3.914-7.131-2.526S440.133,319.165,442.005,321.949Z" transform="translate(-440.694 -313.795)" fill="#cfffb8"/>
    </g>
  </g>
  <g id="Group_2032" data-name="Group 2032" transform="translate(85.703 234.281)">
    <path id="Path_9534" data-name="Path 9534" d="M414.389,399.738a19.183,19.183,0,0,0-3.171-4.124,2.266,2.266,0,0,0-1.143-.812c-.562-.248-1.4.187-2.089.6-1.031.609-2.214,2.344-1.288,3.027.445.325,1.336-.424,1.759-.141.994.664,2.017,2.837,3.117,3.893a1.484,1.484,0,0,0,2.286-.214,2.334,2.334,0,0,0,.433-.873A2.414,2.414,0,0,0,414.389,399.738Z" transform="translate(-406.364 -394.73)" fill="#fff1e9"/>
  </g>
  <g id="Group_2033" data-name="Group 2033" transform="translate(82.827 237.753)">
    <path id="Path_9535" data-name="Path 9535" d="M412.875,404.967s-1.876-2.892-1.609-4.694,6.551-2.91,6.08-1.17c-.594,2.211-3.846,1.026-3.411,2.163.3.8,1.476.494,1.618,1.362C415.84,404.4,415.248,408.115,412.875,404.967Z" transform="translate(-411.24 -398.23)" fill="#fff8f5"/>
  </g>
  <g id="Group_2034" data-name="Group 2034" transform="translate(79.854 332.438)">
    <path id="Path_9536" data-name="Path 9536" d="M418.816,495.291c.075.852.492,1.51.928,1.467s.725-.76.65-1.608-.493-1.51-.93-1.468S418.739,494.442,418.816,495.291Z" transform="translate(-418.804 -493.68)" fill="#383736"/>
  </g>
  <g id="Group_2035" data-name="Group 2035" transform="translate(79.792 342.907)">
    <path id="Path_9537" data-name="Path 9537" d="M418.876,505.847c.077.852.494,1.508.93,1.468s.726-.759.649-1.608-.492-1.509-.93-1.471S418.8,505,418.876,505.847Z" transform="translate(-418.864 -504.234)" fill="#383736"/>
  </g>
  <g id="Group_2036" data-name="Group 2036" transform="translate(78.649 356.124)">
    <path id="Path_9538" data-name="Path 9538" d="M420.031,519.172c.077.851.494,1.507.928,1.467s.726-.759.649-1.611-.494-1.506-.928-1.469S419.953,518.321,420.031,519.172Z" transform="translate(-420.018 -517.557)" fill="#383736"/>
  </g>
  <g id="Group_2037" data-name="Group 2037" transform="translate(42.111 309.348)">
    <path id="Path_9539" data-name="Path 9539" d="M449.356,529.746s5.751-33.169,7.9-41.327c2.614-9.936-.041-15.449-3-17.11-3.3-1.85-4.97-.819-6.9,2.654s-4.356,21.965-5.5,31.6c-1.295,10.869-1.63,21.386-1.63,21.386a16.331,16.331,0,0,0,4.6,2.611A12.521,12.521,0,0,0,449.356,529.746Z" transform="translate(-440.22 -470.403)" fill="#383736"/>
  </g>
  <g id="Group_2038" data-name="Group 2038" transform="translate(80.289 324.057)">
    <path id="Path_9540" data-name="Path 9540" d="M419.956,502.6a272.963,272.963,0,0,1-1.949,27.536c-.337.139-.678.277-1.023.407a275.907,275.907,0,0,0,2-27.942c0-11.687-1.167-17.307-1.18-17.364l.815.882C418.725,486.606,419.956,490.8,419.956,502.6Z" transform="translate(-416.984 -485.232)" fill="#3f3e3e"/>
  </g>
  <g id="Group_2039" data-name="Group 2039" transform="translate(62.93 296.976)">
    <path id="Path_9541" data-name="Path 9541" d="M419.688,457.932l-1.1,2.637a5.458,5.458,0,0,0-.411,1.453,3.458,3.458,0,0,0,.284,1.339l3.558,7.06a2.811,2.811,0,0,0,2.732,1.9l3.636.241-1.607,3.424c-.331.7-.331,1.209.494,1.931l10.054,8.16s-1.761-6.123-8.7-16.332C426.227,466.217,419.688,457.932,419.688,457.932Z" transform="translate(-418.172 -457.932)" fill="#7a797a"/>
  </g>
  <g id="Group_2044" data-name="Group 2044" transform="translate(60.676 144.81)">
    <g id="Group_2040" data-name="Group 2040" transform="translate(23.763 56.398)">
      <path id="Path_9542" data-name="Path 9542" d="M411.384,364.456l1.248-2.544a1.025,1.025,0,0,1,1.786,0l1.248,2.544A.933.933,0,0,1,414.4,365.7l.012.6a.936.936,0,0,1-1.872.031l-.012-.569a.924.924,0,0,1-.713-.046A.936.936,0,0,1,411.384,364.456Z" transform="translate(-411.288 -361.39)" fill="#c60606"/>
    </g>
    <g id="Group_2041" data-name="Group 2041">
      <path id="Path_9543" data-name="Path 9543" d="M386.609,333.744c0,16.132,11.8,29.208,26.357,29.208s26.36-13.076,26.36-29.208-11.8-29.208-26.36-29.208S386.609,317.614,386.609,333.744Z" transform="translate(-386.609 -304.536)" fill="#ea3939"/>
    </g>
    <g id="Group_2042" data-name="Group 2042" transform="translate(6.499)">
      <path id="Path_9544" data-name="Path 9544" d="M406.467,304.536c14.556,0,26.36,13.078,26.36,29.208a31.772,31.772,0,0,1-2.313,11.961,24.868,24.868,0,0,1-17.55,7.42c-14.552,0-26.355-13.077-26.355-29.208a31.711,31.711,0,0,1,2.315-11.96A24.855,24.855,0,0,1,406.467,304.536Z" transform="translate(-386.609 -304.536)" fill="#f95353"/>
    </g>
    <g id="Group_2043" data-name="Group 2043" transform="translate(32.118 9.185)" opacity="0.44">
      <path id="Path_9545" data-name="Path 9545" d="M398.505,321.949c1.88,2.784,5.072,3.917,7.136,2.529s2.214-4.774.338-7.563-5.07-3.914-7.131-2.526S396.632,319.165,398.505,321.949Z" transform="translate(-397.194 -313.795)" fill="#ffe3e3"/>
    </g>
  </g>
  <g id="Group_2049" data-name="Group 2049" transform="translate(125.787 125.362)">
    <g id="Group_2045" data-name="Group 2045" transform="translate(23.762 56.398)">
      <path id="Path_9546" data-name="Path 9546" d="M345.748,344.851l1.246-2.542a1.025,1.025,0,0,1,1.787,0l1.25,2.542a.933.933,0,0,1-1.271,1.238l.011.6a.936.936,0,1,1-1.871.031l-.01-.569a.923.923,0,0,1-.713-.046A.935.935,0,0,1,345.748,344.851Z" transform="translate(-345.652 -341.785)" fill="#b7ad2e"/>
    </g>
    <g id="Group_2046" data-name="Group 2046">
      <path id="Path_9547" data-name="Path 9547" d="M320.973,314.139c0,16.132,11.8,29.208,26.355,29.208s26.361-13.076,26.361-29.208-11.8-29.208-26.361-29.208S320.973,298.009,320.973,314.139Z" transform="translate(-320.973 -284.931)" fill="#e0d846"/>
    </g>
    <g id="Group_2047" data-name="Group 2047" transform="translate(6.497)">
      <path id="Path_9548" data-name="Path 9548" d="M340.831,284.931c14.556,0,26.361,13.078,26.361,29.208a31.717,31.717,0,0,1-2.315,11.961,24.863,24.863,0,0,1-17.547,7.42c-14.554,0-26.356-13.077-26.356-29.208a31.731,31.731,0,0,1,2.314-11.96A24.858,24.858,0,0,1,340.831,284.931Z" transform="translate(-320.973 -284.931)" fill="#f7f254"/>
    </g>
    <g id="Group_2048" data-name="Group 2048" transform="translate(32.116 9.185)">
      <path id="Path_9549" data-name="Path 9549" d="M332.869,302.344c1.88,2.784,5.074,3.917,7.135,2.528s2.217-4.774.339-7.562-5.07-3.914-7.131-2.526S331,299.559,332.869,302.344Z" transform="translate(-331.559 -294.19)" fill="#fffdd9"/>
    </g>
  </g>
</svg>
