<?xml version="1.0" encoding="utf-8"?>
<!-- Generator: Adobe Illustrator 16.0.0, SVG Export Plug-In . SVG Version: 6.00 Build 0)  -->
<!DOCTYPE svg PUBLIC "-//W3C//DTD SVG 1.1//EN" "http://www.w3.org/Graphics/SVG/1.1/DTD/svg11.dtd">
<svg version="1.1" id="Layer_1" xmlns="http://www.w3.org/2000/svg" xmlns:xlink="http://www.w3.org/1999/xlink" x="0px" y="0px"
	 width="478.4px" height="491px" viewBox="0 0 478.4 491" enable-background="new 0 0 478.4 491" xml:space="preserve">
<g id="Create_Content" transform="translate(712.4 28958.4)">
	<g id="Group_5677" transform="translate(8.6 8.6)">
		<g id="Group_5675">
			<circle id="Ellipse_1971" fill="#382B73" cx="-481.8" cy="-28727.799" r="239.2"/>
		</g>
		<g id="Group_5676" transform="translate(32.256 32.256)">
			<circle id="Ellipse_1972" fill="#473080" cx="-514.056" cy="-28760.055" r="206.944"/>
		</g>
	</g>
	<g id="Group_5678" transform="translate(124.356 145.79)">
		<path id="Path_16296" fill="#382B73" d="M-496.124-28841.969h-65.943c-1.793,0.002-3.246,1.457-3.246,3.25v56.949
			c-16.086-9.838-37.102-4.773-46.941,11.311c-3.288,5.375-5.024,11.555-5.017,17.855v6.279c0,18.879,15.306,34.186,34.187,34.186
			c18.882,0,34.187-15.307,34.187-34.186v-6.279c-0.01-2.742-0.351-5.475-1.014-8.135h53.79c1.794,0,3.247-1.453,3.247-3.246
			c0-0.002,0-0.002,0-0.004v-74.732C-492.877-28840.516-494.33-28841.967-496.124-28841.969z"/>
		<path id="Path_16297" fill="#382B73" d="M-484.494-28938.201l-13.215-13.213l-2.737-2.738l0,0l-10.477-10.477
			c-3.162-3.156-8.283-3.156-11.445,0l-20.344,20.344l-40.369,40.373v-43.393c0-6.348-5.146-11.492-11.494-11.492
			c-0.002,0-0.004,0-0.006,0h-114.926c-6.347,0-11.493,5.145-11.493,11.492c0,0,0,0,0,0v139.256c0,6.346,5.146,11.492,11.493,11.492
			h26.426l-11.269,32.021l0,0l-3.636,10.334l-1.665,4.732l0,0l15.067-5.301l0,0l43.373-15.264l0,0l26.52-26.52h20.11
			c6.348,0.004,11.496-5.139,11.5-11.486c0-0.004,0-0.008,0-0.01v-20.119l78.247-78.246l20.344-20.344
			C-481.332-28929.92-481.334-28935.041-484.494-28938.201z"/>
	</g>
	<g id="Group_5686" transform="translate(124.356 131.766)">
		<g id="Group_5680" transform="translate(0 8.201)">
			<path id="Path_16298" fill="#FFFFFF" d="M-594.581-28804.758h-114.926c-6.347,0-11.493-5.145-11.493-11.492l0,0v-139.258
				c0-6.346,5.146-11.492,11.493-11.492h114.926c6.348-0.004,11.496,5.139,11.5,11.486c0,0.002,0,0.004,0,0.006v139.256
				c0.001,6.348-5.145,11.494-11.492,11.494C-594.576-28804.758-594.579-28804.758-594.581-28804.758z"/>
			<g id="Group_5679" transform="translate(17.621 67.851)">
				<path id="Path_16299" fill="#D1D3D4" d="M-624.599-28954.459h-90.131c-3.462-0.002-6.27-2.807-6.27-6.271l0,0
					c0-3.461,2.808-6.27,6.27-6.27h90.131c3.463,0,6.27,2.809,6.27,6.27l0,0C-618.33-28957.268-621.137-28954.461-624.599-28954.459
					z"/>
				<path id="Path_16300" fill="#D1D3D4" d="M-624.599-28925.484h-90.131c-3.462,0-6.27-2.807-6.27-6.27l0,0
					c0-3.463,2.807-6.27,6.27-6.27h90.131c3.463,0,6.27,2.809,6.27,6.27l0,0C-618.33-28928.291-621.137-28925.484-624.599-28925.484
					z"/>
				<path id="Path_16301" fill="#D1D3D4" d="M-624.599-28896.506h-90.131c-3.463-0.002-6.27-2.809-6.27-6.271l0,0
					c0-3.463,2.807-6.27,6.27-6.27l0,0h90.131c3.463,0,6.27,2.807,6.27,6.27l0,0
					C-618.33-28899.314-621.136-28896.508-624.599-28896.506z"/>
			</g>
			<path id="Path_16302" fill="#D1D3D4" d="M-605.305-28949.951h-93.476c-2.541,0-4.6,2.061-4.6,4.6v22.602
				c0,2.539,2.06,4.6,4.6,4.6h93.476c2.541,0,4.6-2.061,4.6-4.6l0,0v-22.602
				C-600.705-28947.891-602.764-28949.951-605.305-28949.951L-605.305-28949.951z"/>
		</g>
		<g id="Group_5681" transform="translate(155.686 125.031)">
			<path id="Path_16303" fill="#E7AD27" d="M-651.81-28885.771h-65.943c-1.793-0.002-3.247-1.455-3.246-3.25v-71.158
				c0-1.793,1.453-3.246,3.246-3.248h65.942c1.793,0,3.247,1.453,3.247,3.248c0,0,0,0,0,0v71.158
				c0.002,1.793-1.449,3.248-3.242,3.25C-651.807-28885.771-651.808-28885.771-651.81-28885.771z"/>
			<path id="Path_16304" fill="#009ADD" d="M-651.81-28889.346h-65.943c-1.793,0-3.246-1.455-3.246-3.248v-71.156
				c0-1.793,1.453-3.248,3.246-3.25h65.942c1.793,0,3.247,1.453,3.247,3.246c0,0.002,0,0.002,0,0.004v71.16
				C-648.564-28890.799-650.017-28889.346-651.81-28889.346z"/>
			<path id="Path_16305" fill="#F7CB15" d="M-700.259-28923.207l-20.728,30.445c0.079,1.906,1.647,3.414,3.558,3.418h46.129
				l-23.055-33.863c-1.111-1.629-3.332-2.051-4.963-0.939C-699.688-28923.895-700.007-28923.576-700.259-28923.207z"/>
			<path id="Path_16306" fill="#F7CB15" d="M-648.561-28929.539l-9.183-13.488c-1.11-1.631-3.333-2.055-4.964-0.943
				c-0.371,0.252-0.691,0.572-0.944,0.943l-36.549,53.684h48.065c1.974,0,3.574-1.6,3.574-3.574c0,0,0,0,0,0V-28929.539z"/>
			<circle id="Ellipse_1973" fill="#F7CB15" cx="-697.306" cy="-28944.053" r="9.157"/>
		</g>
		<path id="Path_16307" fill="#BCBEC0" d="M-679.561-28796.555h74.881l21.594-21.594v-75.75l-96,96l0,0l0,0L-679.561-28796.555z"/>
		<g id="Group_5682" transform="translate(21.344)">
			
				<rect id="Rectangle_1139" x="-640.089" y="-28953.598" transform="matrix(-0.7071 -0.7071 0.7071 -0.7071 19358.1133 -49695.9375)" fill="#F7CB15" width="53.562" height="192.869"/>
			
				<rect id="Rectangle_1140" x="-624.778" y="-28953.6" transform="matrix(-0.7071 -0.7071 0.7071 -0.7071 19358.1133 -49695.9375)" fill="#FEDE3A" width="22.938" height="192.869"/>
			<path id="Path_16308" fill="#E43D91" d="M-505.839-28938.201l-26.43-26.428c-3.162-3.156-8.283-3.156-11.445,0l-20.344,20.344
				l37.873,37.873l20.344-20.346C-502.68-28929.916-502.679-28935.041-505.839-28938.201z"/>
			<path id="Path_16309" fill="#EF5A9D" d="M-516.316-28948.68l-5.476-5.475c-3.162-3.156-8.282-3.156-11.444,0l-20.35,20.344
				l16.918,16.918l20.35-20.342c3.161-3.156,3.164-8.281,0.006-11.441C-516.314-28948.678-516.315-28948.678-516.316-28948.68z"/>
			<path id="Path_16310" fill="#E6E7E8" d="M-662.56-28770.035l-37.875-37.875l-20.565,58.441L-662.56-28770.035z"/>
			<path id="Path_16311" fill="#FFFFFF" d="M-673.386-28780.863l-16.222-16.215l-31.392,47.609L-673.386-28780.863z"/>
			<path id="Path_16312" fill="#FEDE3A" d="M-721-28749.469l15.067-5.301c-1.547-4.604-5.162-8.217-9.766-9.764L-721-28749.469z"/>
			<path id="Path_16313" fill="#E6E7E8" d="M-689.704-28807.813c-2.936-2.988-7.739-3.035-10.73-0.1l10.826,10.826
				C-686.673-28800.074-686.716-28804.877-689.704-28807.813z"/>
			<path id="Path_16314" fill="#E6E7E8" d="M-662.656-28780.766c-2.935-2.988-7.739-3.035-10.73-0.1l10.826,10.826
				C-659.626-28773.027-659.669-28777.828-662.656-28780.766z"/>
			<path id="Path_16315" fill="#FFFFFF" d="M-674.782-28795.691c-4.479-4.479-11.117-5.1-14.823-1.398l0,0l16.221,16.221l0,0
				C-669.678-28784.568-670.303-28791.207-674.782-28795.691z"/>
		</g>
		<g id="Group_5685" transform="translate(103.727 180.205)">
			<g id="Group_5683">
				<path id="Path_16316" fill="#E43D91" d="M-721-28926.531c0,18.881,15.306,34.188,34.187,34.188s34.187-15.307,34.187-34.188l0,0
					v-6.279c0-18.881-15.306-34.188-34.187-34.188s-34.187,15.307-34.187,34.188V-28926.531z"/>
				<circle id="Ellipse_1974" fill="#EF5A9D" cx="-686.813" cy="-28932.813" r="34.187"/>
			</g>
			<g id="Group_5684" transform="translate(24.505 18.44)">
				<path id="Path_16317" fill="#E43D91" d="M-721.001-28935.453v-22.318c0-2.178,1.766-3.943,3.944-3.943
					c0.827,0,1.635,0.26,2.306,0.744l15.482,11.158c1.768,1.273,2.168,3.738,0.895,5.506c-0.248,0.344-0.55,0.646-0.895,0.895
					l-15.482,11.16c-1.766,1.273-4.23,0.875-5.504-0.891C-720.739-28933.814-721.001-28934.623-721.001-28935.453z"/>
				<path id="Path_16318" fill="#FFFFFF" d="M-721.001-28940.729v-22.32c0-2.178,1.766-3.943,3.944-3.943
					c0.827,0,1.635,0.26,2.306,0.744l15.482,11.158c1.768,1.273,2.168,3.738,0.895,5.506c-0.248,0.346-0.55,0.646-0.895,0.895
					l-15.482,11.154c-1.766,1.273-4.23,0.875-5.504-0.891C-720.739-28939.098-720.999-28939.902-721.001-28940.729z"/>
				<path id="Path_16319" fill="#D1D3D4" d="M-699.268-28951.742l-15.482,11.16c-1.767,1.273-4.231,0.875-5.505-0.893
					c-0.483-0.672-0.745-1.479-0.745-2.307v3.049c0,2.178,1.766,3.943,3.944,3.945c0.827,0,1.635-0.26,2.306-0.744l15.482-11.16
					c1.487-1.076,2.031-3.037,1.311-4.727C-698.229-28952.746-698.682-28952.166-699.268-28951.742z"/>
			</g>
		</g>
	</g>
</g>
</svg>
