<?xml version="1.0" encoding="utf-8"?>
<!-- Generator: Adobe Illustrator 16.0.0, SVG Export Plug-In . SVG Version: 6.00 Build 0)  -->
<!DOCTYPE svg PUBLIC "-//W3C//DTD SVG 1.1//EN" "http://www.w3.org/Graphics/SVG/1.1/DTD/svg11.dtd">
<svg version="1.1" id="Layer_1" xmlns="http://www.w3.org/2000/svg" xmlns:xlink="http://www.w3.org/1999/xlink" x="0px" y="0px"
	 width="480.002px" height="488.8px" viewBox="0 0 480.002 488.8" enable-background="new 0 0 480.002 488.8" xml:space="preserve">
<g id="Group_7022" transform="translate(-720 -29661.4)">
	<g id="Interactive_Content" transform="translate(711.4 29652.801)">
		<g id="Group_5910" transform="translate(8.6 8.6)">
			<g id="Group_5908">
				<circle id="Ellipse_2039" fill="#382B73" cx="240.001" cy="240" r="240.001"/>
			</g>
			<g id="Group_5909" transform="translate(32.364 32.364)">
				<circle id="Ellipse_2040" fill="#473080" cx="207.637" cy="207.636" r="207.637"/>
			</g>
		</g>
		<path id="Path_16704" fill="#382B73" d="M382.01,150.216H115.191c-6.417,0-11.62,5.203-11.62,11.62l0,0v156.226
			c0.002,6.412,5.2,11.608,11.612,11.608h39.486c1.415,2.188,3.459,3.896,5.863,4.9l-0.022,0.016l-0.048,0.023h0.01l0,0l0.117,0.053
			l0.189,0.084c0.2,0.088,0.47,0.211,0.864,0.391c6.078,2.764,33.926,15.774,43.224,26.279c1.936,2.189,3.063,4.268,3.023,6.125
			h-2.961c-4.453,0-8.062,3.609-8.062,8.063v33.059c0,4.452,3.609,8.062,8.062,8.062h86.944c3.828,0.002,7.129-2.688,7.9-6.438
			c0.109-0.534,0.163-1.079,0.163-1.624v-33.057c0.007-4.445-3.591-8.055-8.036-8.062c-0.008,0-0.018,0-0.025,0h-2.791v-6.422
			c0.048-3.718,1.145-7.347,3.162-10.468c2.068-3.102,3.172-6.746,3.172-10.475v-10.512h86.601c6.413,0,11.612-5.199,11.612-11.612
			V161.834C393.627,155.418,388.426,150.218,382.01,150.216z"/>
		<g id="Group_5919" transform="translate(103.571 136.146)">
			<g id="Group_5912">
				<g id="Group_5911">
					<path id="Path_16705" fill="#FFFFFF" d="M11.62-0.001h266.821c6.417,0,11.62,5.203,11.62,11.62v156.226
						c-0.001,6.411-5.198,11.608-11.609,11.61H11.612c-6.412,0-11.611-5.198-11.612-11.61V11.619C0.001,5.202,5.203,0,11.62-0.001z"
						/>
					<path id="Path_16706" fill="#1CAEE4" d="M12.832,7.486h264.4c2.699,0.001,4.888,2.189,4.888,4.888v154.707
						c0,2.699-2.188,4.887-4.888,4.888h-264.4c-2.7-0.001-4.888-2.189-4.888-4.888V12.374C7.944,9.674,10.132,7.486,12.832,7.486
						L12.832,7.486z"/>
					<path id="Path_16707" fill="#009ADD" d="M7.944,147.266v20.1c0,2.699,2.188,4.887,4.888,4.888h264.4
						c2.699,0,4.888-2.188,4.888-4.888v-20.1H7.944z"/>
				</g>
			</g>
			<g id="Group_5913" transform="translate(16.577 7.487)">
				<path id="Path_16708" fill="#27C1E6" d="M0.005,73.308c-0.013,49.903,40.432,90.368,90.335,90.381
					c49.904,0.013,90.369-40.432,90.38-90.335c0.008-29.071-13.973-56.37-37.565-73.355H37.564
					C13.968,16.96-0.013,44.249,0.005,73.308z"/>
				<path id="Path_16709" fill="#009ADD" d="M16.08,73.308c-0.002,41.023,33.251,74.28,74.274,74.282
					c41.022,0.002,74.279-33.251,74.282-74.274c0.002-36.417-26.399-67.465-62.344-73.317H78.422
					C42.483,5.853,16.085,36.895,16.08,73.308z"/>
				<circle id="Ellipse_2041" fill="#136DA0" cx="90.356" cy="73.308" r="58.794"/>
				<circle id="Ellipse_2042" fill="#009ADD" cx="90.356" cy="73.308" r="39.532"/>
				<circle id="Ellipse_2043" fill="#27C1E6" cx="90.356" cy="73.308" r="23.99"/>
			</g>
			<g id="Group_5915" transform="translate(48.981 68.451)">
				<path id="Path_16710" fill="#FEDE3A" d="M142.863,77.953v43.558c0.001,3.729-1.105,7.375-3.178,10.473
					c-2.062,3.104-3.16,6.747-3.156,10.472v6.432H59.345c-2.131,3.639-4.141,5.608-4,0c0.261-11.879-47.437-32.944-47.437-32.944
					l0.08-0.04c-6.608-2.75-9.737-10.335-6.987-16.944c2.57-6.178,9.421-9.384,15.812-7.398l26.4,8.179
					c1.061,0.328,2.187-0.266,2.515-1.327c0.06-0.192,0.09-0.392,0.09-0.593V12.554C45.73,6.35,50.236,1.035,56.37,0.106
					c6.64-0.875,12.731,3.799,13.605,10.439c0.069,0.524,0.104,1.052,0.104,1.581v53.768c0.002-5.238,3.366-9.882,8.342-11.518h0.02
					c0.339-0.124,0.689-0.218,1.045-0.281c0.223-0.066,0.452-0.113,0.683-0.141c0.099-0.023,0.199-0.036,0.3-0.04
					c0.217-0.056,0.439-0.083,0.663-0.08c0.36-0.04,0.723-0.06,1.085-0.06c0.342,0,0.683,0.02,1.005,0.04
					c0.189,0.015,0.377,0.042,0.563,0.08c1.082,0.121,2.14,0.406,3.136,0.844c0.364,0.146,0.72,0.313,1.065,0.5
					c0.342,0.181,0.663,0.382,0.985,0.583c0.335,0.214,0.652,0.456,0.945,0.724c0.302,0.245,0.591,0.507,0.864,0.784
					c0.288,0.264,0.55,0.553,0.784,0.864c0.505,0.593,0.943,1.241,1.307,1.93c0.181,0.322,0.342,0.663,0.5,1.005
					c0,0.02,0.02,0.02,0.02,0.04c0.623,1.497,0.944,3.102,0.945,4.724v6.03c0,0,0.04-0.563,0.08-1.407
					c0.543-4.694,3.77-8.643,8.261-10.111c0.3-0.1,0.601-0.181,0.925-0.261c0.241-0.06,0.482-0.121,0.725-0.161
					c0.332-0.068,0.667-0.115,1.005-0.141c0.38-0.041,0.763-0.061,1.146-0.06c0.342,0,0.684,0.02,1.006,0.04
					c0.199,0.02,0.399,0.04,0.6,0.08c0.324,0.027,0.646,0.074,0.965,0.141c0.342,0.08,0.7,0.181,1.025,0.281
					c0.281,0.1,0.563,0.181,0.824,0.3c0.199,0.08,0.399,0.161,0.582,0.241c0.218,0.087,0.427,0.195,0.623,0.322
					c0.747,0.363,1.443,0.822,2.07,1.367c0.303,0.245,0.591,0.507,0.864,0.784c0.261,0.261,0.522,0.542,0.784,0.844v0.02
					c0.23,0.269,0.444,0.551,0.643,0.844l0.121,0.181c0.182,0.281,0.361,0.563,0.523,0.864c0.015,0.016,0.021,0.038,0.02,0.06
					c0.971,1.768,1.475,3.752,1.467,5.769v6.03c-0.061-6.699,5.321-12.18,12.021-12.24c6.7-0.061,12.18,5.321,12.241,12.021
					c0,0.073,0,0.146,0,0.22L142.863,77.953z"/>
				<g id="Group_5914" transform="translate(54.165)">
					<path id="Path_16711" fill="#F7CB15" d="M8.344,12.13v46.189c0.001,4.182,3.392,7.572,7.574,7.572l0,0v-53.4
						c0.072-5.7-3.752-10.715-9.268-12.155C4.452-0.198,2.149-0.105,0.001,0.605C4.98,2.24,8.345,6.889,8.344,12.13z"/>
					<path id="Path_16712" fill="#F7CB15" d="M64.437,71.923v6.03h-1.548c-3.33,0-6.03-2.7-6.03-6.03l0,0
						c0.004-5.24-3.362-9.887-8.342-11.518c0.301-0.1,0.6-0.181,0.926-0.261c0.24-0.06,0.481-0.121,0.724-0.161
						c0.331-0.068,0.667-0.115,1.005-0.141c0.381-0.041,0.764-0.061,1.146-0.06c0.342,0,0.683,0.02,1.004,0.04
						c0.201,0.02,0.4,0.04,0.601,0.08c0.324,0.027,0.646,0.074,0.965,0.141c0.343,0.08,0.7,0.181,1.024,0.281
						c0.281,0.1,0.563,0.181,0.824,0.3c0.201,0.08,0.4,0.161,0.584,0.241c0.217,0.087,0.426,0.195,0.623,0.322
						c0.746,0.363,1.442,0.822,2.069,1.367c0.302,0.245,0.591,0.507,0.864,0.784c0.262,0.261,0.522,0.542,0.783,0.844v0.02
						c0.23,0.269,0.445,0.551,0.644,0.844l0.121,0.181c0.181,0.281,0.362,0.563,0.522,0.864c0.016,0.016,0.023,0.038,0.021,0.06
						C63.939,67.919,64.445,69.905,64.437,71.923z"/>
					<path id="Path_16713" fill="#F7CB15" d="M40.175,65.893v6.03h-1.548c-3.331,0-6.03-2.7-6.03-6.03l0,0
						c-0.008-5.23-3.359-9.869-8.322-11.518c0.339-0.125,0.689-0.218,1.045-0.281c0.223-0.066,0.452-0.113,0.683-0.141
						c0.098-0.023,0.199-0.036,0.3-0.04c0.216-0.056,0.439-0.083,0.663-0.08c0.36-0.04,0.723-0.06,1.085-0.06
						c0.342,0,0.683,0.02,1.005,0.04c0.189,0.015,0.377,0.042,0.563,0.08c1.082,0.121,2.14,0.406,3.136,0.844
						c0.364,0.146,0.72,0.313,1.065,0.5c0.342,0.181,0.663,0.382,0.985,0.583c0.335,0.214,0.652,0.456,0.945,0.724
						c0.302,0.245,0.591,0.507,0.864,0.784c0.288,0.264,0.55,0.553,0.784,0.864c0.505,0.593,0.943,1.241,1.307,1.93
						c0.181,0.322,0.342,0.663,0.5,1.005c0,0.02,0.02,0.02,0.02,0.04C39.85,62.664,40.173,64.27,40.175,65.893z"/>
					<path id="Path_16714" fill="#F7CB15" d="M5.18,148.878H1.17C1.047,154.49,3.043,152.518,5.18,148.878z"/>
					<path id="Path_16715" fill="#F7CB15" d="M76.57,65.814c-1.287,0.001-2.566,0.207-3.787,0.611
						c4.977,1.635,8.342,6.281,8.344,11.52v43.57c0,3.728-1.104,7.373-3.172,10.474s-3.172,6.746-3.172,10.475v6.416h7.574v-6.416
						c0-3.729,1.104-7.373,3.172-10.475s3.172-6.746,3.172-10.474v-43.57C88.7,71.245,83.269,65.814,76.57,65.814z"/>
				</g>
				<path id="Path_16716" fill="#F7CB15" d="M1.025,98.898c-0.167,0.392-0.314,0.792-0.44,1.2c-1.978,6.385,1.224,13.228,7.393,15.8
					l-0.062,0.046c0,0,47.681,21.053,47.419,32.932c-0.123,5.611,1.871,3.639,4.01,0h77.177v-6.416
					c0-3.729,1.104-7.373,3.172-10.475s3.172-6.746,3.172-10.474v-10.05C142.865,142.329,14.599,123.479,1.025,98.898z"/>
				<path id="Path_16717" fill="#FFFFFF" d="M147.383,156.94v33.057c0,4.453-3.609,8.062-8.063,8.063H52.375
					c-4.453-0.001-8.062-3.609-8.062-8.063V156.94c0-4.452,3.609-8.062,8.062-8.063h86.945
					C143.773,148.878,147.383,152.487,147.383,156.94z"/>
				<path id="Path_16718" fill="#D1D3D4" d="M131.258,156.94v33.057c0,4.453-3.609,8.062-8.063,8.063h16.127
					c4.453-0.001,8.063-3.609,8.063-8.063V156.94c0-4.452-3.609-8.062-8.063-8.063h-16.127
					C127.649,148.879,131.258,152.488,131.258,156.94z"/>
			</g>
			<path id="Path_16719" fill="#009ADD" d="M260.912,78.914c-0.258-2.545-0.771-5.058-1.529-7.5c-0.374-1.2-0.805-2.376-1.293-3.53
				c-8.27-19.551-30.823-28.696-50.374-20.425c-9.205,3.894-16.531,11.22-20.426,20.425c-0.486,1.15-0.917,2.326-1.291,3.53
				c-0.76,2.443-1.271,4.955-1.531,7.5c-0.133,1.305-0.199,2.616-0.199,3.928v7.057c0,21.219,17.201,38.42,38.42,38.42
				c21.22,0,38.421-17.201,38.421-38.42v-7.057C261.112,81.53,261.047,80.219,260.912,78.914z"/>
			<g id="Group_5918" transform="translate(184.27 36.382)">
				<g id="Group_5916">
					<path id="Path_16720" fill="#E43D91" d="M0,45.477c0,21.219,17.201,38.42,38.42,38.42s38.42-17.201,38.42-38.42l0,0V38.42
						C76.84,17.201,59.639,0,38.42,0S0,17.201,0,38.42V45.477z"/>
					<circle id="Ellipse_2044" fill="#EF5A9D" cx="38.42" cy="38.419" r="38.42"/>
				</g>
				<g id="Group_5917" transform="translate(27.54 20.724)">
					<path id="Path_16721" fill="#E43D91" d="M0,35.455V10.371c-0.002-2.448,1.98-4.435,4.429-4.437
						c0.932-0.001,1.84,0.292,2.596,0.836l17.4,12.541c1.986,1.432,2.436,4.203,1.004,6.188c-0.278,0.386-0.617,0.725-1.004,1.003
						l-17.4,12.541c-1.984,1.432-4.755,0.984-6.187-1.001C0.294,37.29,0.001,36.384,0,35.455z"/>
					<path id="Path_16722" fill="#FFFFFF" d="M0,29.523V4.435C-0.002,1.987,1.981,0,4.429-0.002c0.932,0,1.84,0.292,2.596,0.837
						l17.4,12.541c1.986,1.432,2.436,4.202,1.004,6.188c-0.278,0.386-0.617,0.725-1.004,1.003l-17.4,12.541
						c-1.984,1.432-4.755,0.984-6.187-1.001C0.295,31.355,0.002,30.451,0,29.523z"/>
					<path id="Path_16723" fill="#D1D3D4" d="M24.424,17.146l-17.4,12.541c-1.985,1.432-4.757,0.982-6.188-1.004
						c-0.545-0.756-0.838-1.664-0.837-2.596v3.429c-0.002,2.448,1.98,4.435,4.429,4.437c0.932,0.001,1.84-0.292,2.596-0.836
						l17.4-12.541c1.671-1.209,2.282-3.414,1.473-5.311C25.591,16.017,25.081,16.668,24.424,17.146z"/>
				</g>
			</g>
		</g>
	</g>
</g>
</svg>
