<svg xmlns="http://www.w3.org/2000/svg" xmlns:xlink="http://www.w3.org/1999/xlink" width="887" height="539.885" viewBox="0 0 887 539.885">
  <defs>
    <filter id="Union_7" x="0" y="0" width="696.513" height="530.855" filterUnits="userSpaceOnUse">
      <feOffset dy="3" input="SourceAlpha"/>
      <feGaussianBlur stdDeviation="3" result="blur"/>
      <feFlood flood-opacity="0.161"/>
      <feComposite operator="in" in2="blur"/>
      <feComposite in="SourceGraphic"/>
    </filter>
    <filter id="Union_8" x="7" y="7.002" width="686.573" height="514.854" filterUnits="userSpaceOnUse">
      <feOffset dy="3" input="SourceAlpha"/>
      <feGaussianBlur stdDeviation="3" result="blur-2"/>
      <feFlood flood-opacity="0.161"/>
      <feComposite operator="in" in2="blur-2"/>
      <feComposite in="SourceGraphic"/>
    </filter>
  </defs>
  <g id="Group_5081" data-name="Group 5081" transform="translate(-983 -7016.999)">
    <g id="Group_5080" data-name="Group 5080">
      <g id="Group_3370" data-name="Group 3370" transform="translate(62.465 1974)">
        <g id="Group_3361" data-name="Group 3361" transform="translate(1069.599 4891.039)">
          <path id="Path_12187" data-name="Path 12187" d="M571.185,682.184c0,5.338,33.4,9.662,74.593,9.662s74.595-4.324,74.595-9.662-33.4-9.661-74.595-9.661S571.185,676.846,571.185,682.184Z" fill="#231f20" opacity="0.2"/>
          <g id="Group_3355" data-name="Group 3355">
            <path id="Path_12188" data-name="Path 12188" d="M659.079,672.736l11.178,0L665.369,605.8l-11.179,0Z" fill="#414042"/>
            <path id="Path_12189" data-name="Path 12189" d="M681.82,681.559l-22,.007-1.032-12.354,22.477,5.642Z" fill="#414042"/>
          </g>
          <path id="Path_12190" data-name="Path 12190" d="M624.441,606.85s-22.743,31.35-3.166,60.817l-9.932,3.3s-21.876-35.161-.135-65.471Z" fill="#414042"/>
          <path id="Path_12191" data-name="Path 12191" d="M568.487,495.163s-87.714,8.223-28.781,39.06l7.538-2.742s-39.745-17.13,23.3-24.668Z" fill="#414042"/>
          <g id="Group_3359" data-name="Group 3359">
            <g id="Group_3358" data-name="Group 3358">
              <path id="Path_12192" data-name="Path 12192" d="M540.077,385.989q-.059-.425-.091-.846L536.939,362.4c-1.141-8.509,4.38-16.268,12.331-17.333l117.087-15.688c7.953-1.066,15.324,4.967,16.463,13.474l29.1,217.174c.039.286.068.568.09.849l3.047,22.744c1.141,8.508-4.38,16.269-12.332,17.335L585.636,616.642c-7.95,1.062-15.322-4.971-16.463-13.478Z" fill="#414042"/>
              <g id="Group_3356" data-name="Group 3356">
                <path id="Path_12193" data-name="Path 12193" d="M673.6,343.777c-1.176-8.5-8.575-14.5-16.517-13.4l-117.016,16.21c-7.95,1.1-13.438,8.886-12.26,17.388l30.069,217.043c.038.286.084.564.138.841l3.147,22.73c1.178,8.5,8.574,14.5,16.523,13.406L694.7,601.784c7.945-1.1,13.434-8.89,12.258-17.391L676.888,367.348c-.038-.283-.084-.562-.14-.839Z" fill="#414042"/>
                <path id="Path_12194" data-name="Path 12194" d="M672.4,345.444c-1.147-8.361-8.383-14.274-16.16-13.207L541.7,347.952c-7.778,1.068-13.152,8.711-12.007,17.073l29.29,213.451q.059.417.136.829l3.066,22.353c1.148,8.36,8.383,14.274,16.162,13.208l114.537-15.714c7.776-1.071,13.152-8.713,12.005-17.076L675.6,368.627c-.038-.279-.084-.553-.135-.826Z" fill="#919191"/>
                <path id="Path_12195" data-name="Path 12195" d="M614.814,609.862l78.07-10.71c7.776-1.071,13.152-8.713,12.005-17.076L675.6,368.627c-.038-.279-.084-.553-.135-.826L672.4,345.444c-1.147-8.361-8.383-14.274-16.16-13.207l-31.551,4.328Z" fill="#58595b"/>
                <rect id="Rectangle_514" data-name="Rectangle 514" width="122.426" height="202.855" transform="matrix(0.991, -0.136, 0.136, 0.991, 542.955, 381.769)" fill="#fff"/>
                <path id="Path_12196" data-name="Path 12196" d="M616.3,358.134a2.867,2.867,0,0,1-2.385,3.283l-24.46,3.456a2.868,2.868,0,0,1-3.2-2.494h0a2.871,2.871,0,0,1,2.387-3.284l24.46-3.455a2.868,2.868,0,0,1,3.2,2.494Z" fill="#333538"/>
                <path id="Path_12197" data-name="Path 12197" d="M646.081,589.808a11.88,11.88,0,1,1-13.45-10.529A12.077,12.077,0,0,1,646.081,589.808Z" fill="#333538"/>
                <path id="Path_12198" data-name="Path 12198" d="M615.693,576.558l76.074-10.416L664.25,365.161l-40.578,5.556Z" fill="#ddd"/>
              </g>
              <g id="Group_3357" data-name="Group 3357">
                <path id="Path_12199" data-name="Path 12199" d="M606.214,472.58c-3.143.427-5.41-.244-6.756-2.007-4.354-5.687,3.269-20.516,4.153-22.189l1.665.878c-2.242,4.252-7.391,16.156-4.324,20.169,1.068,1.4,3.208,1.745,6.359,1.035l.414,1.836C607.2,472.422,606.693,472.515,606.214,472.58Z" fill="#231f20"/>
                <path id="Path_12200" data-name="Path 12200" d="M587.911,449.15a13.2,13.2,0,0,0-23.346,3.182L568.209,456a13.2,13.2,0,0,1,17.175-2.341Z" fill="#231f20"/>
                <path id="Path_12201" data-name="Path 12201" d="M617.552,494.371a36.564,36.564,0,0,1-29.4-8.525c4.889,18.051,18.552,30.346,32.43,28.209s23.207-17.973,22.435-36.66A36.555,36.555,0,0,1,617.552,494.371Z" fill="#a52339"/>
              </g>
            </g>
          </g>
          <g id="Group_3360" data-name="Group 3360">
            <path id="Path_12202" data-name="Path 12202" d="M547.325,321.359l8.4-4.21-7.691-36.044-22.962,11Z" fill="#0ea515"/>
            <path id="Path_12203" data-name="Path 12203" d="M569.7,315.651l9.116,2.289L596.5,285.6l-24.579-6.641Z" fill="#0ea515"/>
            <path id="Path_12204" data-name="Path 12204" d="M529.095,337.937l5.613-7.543-23.081-28.732-15.562,20.148Z" fill="#0ea515"/>
          </g>
          <path id="Path_12205" data-name="Path 12205" d="M735.4,578c-4.294,6.172-13.78,7.363-21.187,2.662s-9.931-13.516-5.637-19.687,13.78-7.364,21.188-2.662S739.691,571.829,735.4,578Z" fill="#414042"/>
          <path id="Path_12206" data-name="Path 12206" d="M700.057,499.783s49.319,25.735,10.468,54.9l.777,10.55S779.679,528,697.316,481.458Z" fill="#414042"/>
          <path id="Path_12207" data-name="Path 12207" d="M599.155,679.956h22.12V667.667l-22.12,5.619Z" fill="#414042"/>
          <path id="Path_12208" data-name="Path 12208" d="M646.609,437.076c1.235,9.48-.8,17.56-4.536,18.046s-7.77-6.8-9-16.284.8-17.561,4.536-18.047S645.377,427.594,646.609,437.076Z" fill="#231f20"/>
        </g>
        <path id="Path_12234" data-name="Path 12234" d="M549.336,539.954c-3.951,6.234-13.244,7.426-20.756,2.665s-10.4-13.675-6.447-19.907,13.244-7.427,20.756-2.665S553.287,533.722,549.336,539.954Z" transform="translate(1076.637 4894.87)" fill="#414042"/>
      </g>
      <g id="Group_5077" data-name="Group 5077" transform="translate(0 23.826)">
        <g transform="matrix(1, 0, 0, 1, 983, 6993.17)" filter="url(#Union_7)">
          <path id="Union_7-2" data-name="Union 7" d="M141.9,512.855c-44.842,0-81.52-37.039-81.52-82.316V82.31a82.92,82.92,0,0,1,.863-11.952c-3.337-.412-6.745-.719-10.194-.894C23.408,68.066-.91,71.746-1.36,72.2A233.536,233.536,0,0,1,26.575,44.242c18.235-15.4,42.7-30.8,64.937-27.513q.53.078,1.048.169A80.518,80.518,0,0,1,141.9,0H595.625c44.842,0,81.526,37.04,81.526,82.31V402.728c0,60.811-48.841,110.127-109.081,110.127Z" transform="translate(686.15 518.86) rotate(180)" fill="#ff003c"/>
        </g>
        <g transform="matrix(1, 0, 0, 1, 983, 6993.17)" filter="url(#Union_8)">
          <path id="Union_8-2" data-name="Union 8" d="M149.079,496.854a79.974,79.974,0,0,1-79.742-79.747V79.742a79.175,79.175,0,0,1,2.924-21.363,83.147,83.147,0,0,0-10.943-1.3c-26.937-1.35-56.577,3.856-57.229,4.329A246.988,246.988,0,0,1,33.3,38.564C52.448,25.783,77.893,13,99.79,16.207q.519.076,1.026.164A79.251,79.251,0,0,1,149.079,0H592.906a79.977,79.977,0,0,1,79.747,79.742V390.164a106.7,106.7,0,0,1-106.7,106.69ZM4.083,61.418l.006-.005-.009.008Z" transform="translate(688.65 509.86) rotate(180)" fill="#fff"/>
        </g>
        <g id="Group_5075" data-name="Group 5075" transform="translate(1081.411 7034.879)">
          <g id="Group_5073" data-name="Group 5073" transform="translate(0)">
            <rect id="Rectangle_857" data-name="Rectangle 857" width="424.317" height="5.337" transform="translate(0 410.096)" fill="#ff003c"/>
            <g id="Group_5071" data-name="Group 5071" transform="translate(0.001 28.196)">
              <path id="Path_14949" data-name="Path 14949" d="M326.355,44.61h-157.4v5.336H325.32A44.044,44.044,0,0,1,326.355,44.61Z" transform="translate(-168.952 -44.61)" fill="#ff003c"/>
              <path id="Path_14950" data-name="Path 14950" d="M217.491,44.61a27.428,27.428,0,0,1,2.947,5.336H384.111V44.61Z" transform="translate(40.206 -44.61)" fill="#ff003c"/>
            </g>
            <g id="Group_5072" data-name="Group 5072" transform="translate(166.09)">
              <path id="Path_14951" data-name="Path 14951" d="M238.419,39.3V43.35Q220.3,53.774,216.057,69.784q4.595-2.986,8.356-2.989a13.4,13.4,0,0,1,10.592,5.065,18.455,18.455,0,0,1,4.322,12.391,18.185,18.185,0,0,1-5.681,13.607,19.32,19.32,0,0,1-13.968,5.5q-8.29,0-13.867-7t-5.575-17.408q0-14.669,11.218-26.29A43.067,43.067,0,0,1,238.419,39.3Zm47.516,0V43.35q-18.117,10.424-22.362,26.434Q268.168,66.8,272,66.795a13.344,13.344,0,0,1,10.522,5.065,18.45,18.45,0,0,1,4.316,12.391A18.23,18.23,0,0,1,281.2,97.858a19.211,19.211,0,0,1-13.936,5.5q-8.354,0-13.9-7t-5.543-17.408q0-14.669,11.186-26.29A42.91,42.91,0,0,1,285.935,39.3Z" transform="translate(-200.236 -39.299)" fill="#ff003c"/>
            </g>
          </g>
        </g>
      </g>
    </g>
  </g>
</svg>
