<?xml version="1.0" encoding="utf-8"?>
<!-- Generator: Adobe Illustrator 16.0.0, SVG Export Plug-In . SVG Version: 6.00 Build 0)  -->
<!DOCTYPE svg PUBLIC "-//W3C//DTD SVG 1.1//EN" "http://www.w3.org/Graphics/SVG/1.1/DTD/svg11.dtd">
<svg version="1.1" id="Layer_1" xmlns="http://www.w3.org/2000/svg" xmlns:xlink="http://www.w3.org/1999/xlink" x="0px" y="0px"
	 width="200px" height="73.678px" viewBox="0 0 200 73.678" enable-background="new 0 0 200 73.678" xml:space="preserve">
<g id="Group_4061">
	<path id="Path_14117" fill="#FED25E" d="M44.163,18.103h-2.686c-2.162,0-4.324-0.005-6.486,0c-2.183-0.024-4.302,0.74-5.966,2.151
		c-1.2,0.99-2.111,2.283-2.64,3.746c-0.046,0.21-0.25,0.345-0.46,0.307c-1.527-0.01-3.054-0.005-4.58-0.005
		c-2.112-0.063-3.877,1.597-3.94,3.709c-0.003,0.075-0.003,0.15,0,0.227c0,5.041,0,10.083,0,15.123
		c-0.053,2.116,1.622,3.875,3.739,3.925c0.06,0.002,0.121,0.002,0.182,0h16.171c2.113,0.036,3.855-1.649,3.889-3.763
		c0.001-0.043,0.001-0.088,0-0.131c0-5.072,0-10.144,0-15.216c0.009-0.308-0.027-0.614-0.106-0.911
		c-0.062-0.224-0.039-0.302,0.221-0.295c0.697,0.019,1.393,0.006,2.091,0.006c1.885,0,3.77,0.003,5.656-0.005
		c0.23,0,0.332,0.048,0.323,0.299c-0.012,0.336,0.024,0.675,0.024,1.013c0,5.03,0,10.062,0,15.093
		c0.057,3.218-1.211,6.319-3.507,8.574c-2.19,2.275-5.217,3.553-8.375,3.532c-5.543,0.021-11.087,0.005-16.632,0.005
		c-5.013-0.053-9.466-3.208-11.18-7.92c-0.476-1.342-0.717-2.758-0.713-4.184c0.004-5.061,0.004-10.122,0-15.186
		c-0.037-5.149,3.209-9.75,8.072-11.442c1.228-0.437,2.521-0.661,3.824-0.661c5.513-0.002,11.026-0.002,16.54,0
		c2.204-0.002,4.362,0.613,6.235,1.774c0.079,0.047,0.155,0.1,0.231,0.152C44.118,18.045,44.141,18.073,44.163,18.103z"/>
	<path id="Path_14118" fill="#FFFFFF" d="M99.002,37.06c0-5.799-0.002-11.599-0.006-17.397c0-0.276,0.063-0.349,0.345-0.347
		c2.52,0.012,5.042,0.012,7.563,0c0.256,0,0.313,0.063,0.313,0.314c-0.008,9.201-0.013,18.401-0.015,27.603
		c0,0.313,0.073,0.38,0.382,0.376c5.491-0.011,10.983-0.005,16.477-0.014c0.281,0,0.344,0.072,0.342,0.347
		c-0.011,2.202-0.011,4.405,0,6.608c0,0.236-0.063,0.28-0.285,0.28c-8.281-0.006-16.562-0.006-24.84,0
		c-0.275,0-0.279-0.112-0.278-0.317C99.004,48.697,99.005,42.88,99.002,37.06z"/>
	<path id="Path_14119" fill="#FFFFFF" d="M34.675,46.345h-0.342c-2.326,0-4.652-0.003-6.978,0.005c-0.232,0-0.304-0.047-0.304-0.294
		c0.008-6.281,0.01-12.562,0.008-18.844c-0.02-3.867,2.798-7.163,6.621-7.746c0.303-0.05,0.61-0.077,0.917-0.079
		c8.771-0.004,17.543-0.005,26.315-0.003h0.218c-0.361,0.66-0.789,1.279-1.278,1.85c-2.063,2.474-5.003,4.053-8.204,4.407
		c-0.437,0.051-0.876,0.075-1.317,0.073c-4.13,0.005-8.26,0.005-12.39,0c-2.425-0.079-4.453,1.822-4.531,4.247
		c-0.002,0.036-0.002,0.073-0.002,0.11c-0.047,4.417-0.021,8.833-0.007,13.249C33.416,44.456,33.874,45.54,34.675,46.345z"/>
	<path id="Path_14120" fill="#FED25E" d="M84.363,43.225c0.434,0.489,0.864,0.979,1.3,1.465c1.284,1.428,2.57,2.854,3.858,4.278
		c0.075,0.083,0.164,0.153,0.246,0.229c1.232,1.368,2.465,2.734,3.698,4.102c0.45,0.499,0.902,0.999,1.357,1.499
		c-0.092,0.097-0.188,0.055-0.271,0.055c-2.385,0-4.772,0-7.158,0.005c-0.182,0.009-0.357-0.069-0.471-0.21
		c-0.534-0.605-1.085-1.193-1.631-1.789c-0.329-0.438-0.689-0.854-1.076-1.245c-1.338-1.499-2.693-2.981-4.041-4.47
		c-0.017-0.013-0.034-0.023-0.053-0.03c-0.168-0.077-0.313-0.197-0.42-0.348c-1.366-1.523-2.738-3.039-4.118-4.549
		c-0.325-0.354-0.632-0.724-0.959-1.076c-0.087-0.094-0.229-0.188-0.163-0.334c0.067-0.146,0.231-0.106,0.36-0.106
		c2.099-0.003,4.197-0.003,6.296,0c0.122,0.01,0.245,0.01,0.368,0c0.487-0.071,0.972,0.151,1.234,0.568
		c0.457,0.565,0.957,1.091,1.449,1.625C84.267,42.978,84.336,43.095,84.363,43.225z"/>
	<path id="Path_14121" fill="#FFFFFF" d="M46.454,53.986c0.892-0.612,1.676-1.37,2.317-2.241c0.838-1.14,1.404-2.457,1.651-3.851
		c0.025-0.144,0.05-0.241,0.24-0.23c4.339,0.125,8.298,2.505,10.444,6.279c0.003,0.005-0.003,0.019-0.01,0.043L46.454,53.986z"/>
	<path id="Path_14122" fill="#FFFFFF" d="M161.722,19.317c-0.005,0.103-0.012,0.204-0.012,0.306c0,11.623,0,23.245,0,34.868
		c0,0.103,0.007,0.204,0.012,0.307c0.019,0.006,0.028,0.016,0.023,0.027c-0.002,0.012-0.007,0.021-0.012,0.021
		c-0.134-0.116-0.064-0.27-0.064-0.403c-0.002-11.275-0.002-22.55-0.002-33.824c0-0.338,0-0.676,0-1.014
		C161.667,19.511,161.626,19.401,161.722,19.317z"/>
	<path id="Path_14123" fill="#FFFFFF" d="M169.904,54.801c0.005-0.125,0.012-0.245,0.012-0.367c0-3.57-0.002-7.141-0.004-10.711
		c0-0.282,0.07-0.352,0.349-0.349c1.556,0.014,3.11,0.006,4.666,0.009c0.105,0,0.224-0.046,0.319,0.046
		c-1.658,0-3.317,0.003-4.977-0.01c-0.272,0-0.313,0.095-0.313,0.335c0.007,3.574,0.007,7.148,0,10.723
		c0,0.125,0.062,0.269-0.066,0.374c-0.014-0.015-0.02-0.027-0.01-0.038C169.886,54.805,169.895,54.801,169.904,54.801z"/>
	<path id="Path_14124" fill="#FFFFFF" d="M182.022,54.8h9.285c-0.074,0.112-0.19,0.058-0.281,0.058
		c-2.896,0.004-5.787,0.004-8.684,0C182.233,54.859,182.113,54.896,182.022,54.8z"/>
	<path id="Path_14125" fill="#FFFFFF" d="M169.906,54.801c-0.005,0.016-0.009,0.033-0.012,0.049
		c-1.668,0.004-3.334,0.007-5.004,0.011c-1.053,0-2.105-0.007-3.157-0.011c-0.004-0.016-0.008-0.033-0.015-0.049H169.906z"/>
	<path id="Path_14126" fill="#FFFFFF" d="M191.202,54.581c-2.497-4.224-4.993-8.449-7.49-12.672c-0.1-0.166-0.189-0.269,0.066-0.415
		c4.04-2.321,6.02-7.179,5.459-11.48c-0.456-3.498-2.355-6.645-5.238-8.677c-1.756-1.286-3.873-1.992-6.049-2.017
		c-5.371-0.017-10.74-0.008-16.107-0.01c-0.041,0-0.081,0.007-0.124,0.011c-0.03,0.108-0.039,0.222-0.023,0.334
		c0,11.606,0,23.211,0,34.816c-0.016,0.112-0.007,0.226,0.023,0.334c0.078,0.025,0.162,0.033,0.241,0.022c2.571,0,5.14,0,7.707,0
		c0.083,0.013,0.164,0.004,0.242-0.025c0.028-0.12,0.035-0.244,0.021-0.365c0-3.577-0.002-7.153-0.004-10.729
		c0-0.251,0.063-0.326,0.321-0.324c1.576,0.012,3.155,0.006,4.734,0.007c0.09,0,0.185-0.027,0.267,0.033
		c0.243,0.403,0.487,0.805,0.729,1.208c2.014,3.387,4.029,6.776,6.042,10.164c0.085,0.035,0.181,0.044,0.271,0.028
		c2.914,0,5.828,0,8.742,0c0.091,0.016,0.183,0.006,0.27-0.028C191.273,54.724,191.241,54.651,191.202,54.581z M180.907,31.683
		c0.032,1.453-0.57,2.848-1.65,3.82c-0.44,0.4-1.003,0.639-1.599,0.682c-0.068,0.018-0.144,0.024-0.214,0.017h-7.24
		c-0.084,0.012-0.168,0.004-0.242-0.025l0,0c-0.032-0.098-0.041-0.201-0.027-0.302c0-2.996,0-5.992,0-8.987
		c0-0.1-0.03-0.206,0.036-0.298l-0.007-0.007c0.065-0.032,0.138-0.042,0.21-0.03h7.047c0.062-0.005,0.124,0.001,0.183,0.021
		c1.206,0.183,2.258,0.918,2.843,1.989c0.439,0.74,0.668,1.586,0.663,2.446c0.049,0.221,0.049,0.45,0,0.671L180.907,31.683z"/>
	<path id="Path_14127" fill="#FFFFFF" d="M169.971,26.585c-0.002,2.745-0.005,5.49-0.007,8.235c0,0.45,0,0.901-0.002,1.351
		c-0.074-0.091-0.041-0.197-0.041-0.296c0-3.001,0-6.003,0-9.004C169.921,26.776,169.873,26.666,169.971,26.585z"/>
	<path id="Path_14128" fill="#FFFFFF" d="M169.962,36.174l7.696,0.009c-0.085,0.036-0.178,0.047-0.271,0.03
		c-2.386,0-4.772,0-7.161,0C170.139,36.213,170.039,36.244,169.962,36.174z"/>
	<path id="Path_14129" fill="#FFFFFF" d="M177.403,26.568l-7.439,0.009c0.082-0.087,0.192-0.055,0.292-0.055
		c2.282,0,4.568,0,6.852,0C177.207,26.522,177.313,26.496,177.403,26.568z"/>
	<path id="Path_14130" fill="#FFFFFF" d="M180.907,31.683c0-0.225,0-0.45,0-0.676C181,31.224,181,31.467,180.907,31.683z"/>
	<path id="Path_14131" fill="#FFFFFF" d="M94.078,34.323c-0.552-3.831-2.34-7.379-5.09-10.103c-4.267-4.254-9.44-5.92-15.356-4.865
		c-5.823,1.04-10.031,4.399-12.711,9.639c-1.768,3.422-2.345,7.337-1.641,11.124c0.636,3.944,2.565,7.566,5.486,10.293
		c3.319,3.194,7.809,4.879,12.41,4.657c2.089-0.069,4.15-0.503,6.089-1.283c0.689-0.275,1.342-0.635,2.025-0.926
		c0.063-0.125-0.039-0.189-0.104-0.263c-0.701-0.801-1.419-1.586-2.133-2.373c-0.902-0.993-1.786-2.002-2.705-2.978
		c-0.072-0.077-0.132-0.167-0.251-0.17c0.006,0.013,0.013,0.026,0.02,0.039c-0.708,0.32-1.465,0.517-2.239,0.583
		c-1.65,0.227-3.333-0.004-4.861-0.667c-2.245-1.004-3.975-2.892-4.781-5.215c-1.354-3.421-1.168-7.258,0.51-10.533
		c1.099-2.416,3.29-4.16,5.891-4.689c5.195-1.061,9.012,1.867,10.501,5.854c0.997,2.635,1.102,5.524,0.298,8.226
		c-0.246,0.894-0.607,1.751-1.076,2.552L84.33,43.19l0,0c-0.003,0.094,0.035,0.185,0.106,0.246c0.608,0.663,1.208,1.334,1.812,2.001
		c0.473,0.524,0.954,1.04,1.421,1.568c0.615,0.699,1.261,1.368,1.865,2.077c0.057,0.067,0.125,0.143,0.233,0.112
		c0.017-0.025,0.032-0.051,0.052-0.075C93.42,45.096,94.989,39.647,94.078,34.323z"/>
	<path id="Path_14132" fill="#FFFFFF" d="M158.133,54.516c-0.295-0.729-0.549-1.473-0.816-2.212
		c-3.98-10.916-7.96-21.832-11.938-32.747c-0.033-0.159-0.185-0.265-0.347-0.237c-2.265,0.006-4.53,0.011-6.794-0.004
		c-0.23-0.036-0.447,0.118-0.491,0.347c-2.689,7.398-5.383,14.795-8.085,22.19c-1.542,4.23-3.087,8.458-4.638,12.685
		c-0.095,0.255-0.043,0.298,0.216,0.298c2.611-0.008,5.229-0.008,7.84,0c0.162,0.03,0.321-0.075,0.354-0.237
		c0.837-2.487,1.683-4.97,2.521-7.457c0.064-0.189,0.139-0.269,0.354-0.269c3.505,0.009,7.011,0.009,10.515,0
		c0.161-0.025,0.315,0.084,0.341,0.246c0.852,2.483,1.714,4.961,2.566,7.443c0.035,0.181,0.208,0.301,0.391,0.271
		c1.302-0.01,2.602-0.006,3.904-0.006c1.291,0,2.583-0.005,3.873,0.005C158.156,54.836,158.256,54.824,158.133,54.516z
		 M137.353,41.202l4.229-12.484l4.131,12.484H137.353z"/>
</g>
</svg>
