<svg xmlns="http://www.w3.org/2000/svg" width="1920" height="822.124" viewBox="0 0 1920 822.124">
  <g id="TEXTURE_2" data-name="TEXTURE 2" transform="translate(0 -1460.547)">
    <g id="Footer" transform="translate(1920 2058.671) rotate(180)">
      <g id="Shape" transform="translate(0 -224)">
        <path id="Rectangle" d="M0,56.828A1084.633,1084.633,0,0,0,118.74,30.758C183.521,12.68,303.424,2.476,336.7.184c58.079-4,335.717,58.564,347.381,60.486,92.353,15.221,210.908,8.634,349.93-21.277,18.67-4.017,89-18.089,109.589-19.872,10.054-.871,108.575-12.946,203.359-15.931,95.379-3,344.907,38.754,344.907,38.754s22.6,4.979,38.738,6.968c37.875,4.668,45.457,6.308,77.824,7.515C1847.815,58.3,1920,55.679,1920,55.679V701.952H0Z" transform="translate(0 0)" fill="#d6e1fb"/>
        <path id="Rectangle-2" data-name="Rectangle" d="M0,91.156,37.47,85.7s24.267,1.452,35.072,1.452c5.923,0,55.812.711,100.79-6.322,37.08-5.8,70.514-18.027,72.851-18.809,24.968-8.358,47.029-11.5,59.946-11.5s21.784,1.213,32.809,4.563c51.515,15.652,83.644,46.441,217.331,19.9,14.84-2.946,116.151-35.32,127.815-33.386,92.353,15.309,210.908,8.683,349.93-21.4,18.67-4.04,89-18.193,109.589-19.987C1153.657-.668,1177.362,2,1177.362,2s59.409,4.569,156.884,32.164c87.206,24.688,156.228,28.926,181.812,28.926,55.758,0,175.812-39.93,175.812-39.93s22.6,5.008,38.738,7.009c37.875,4.7,45.457,6.344,77.824,7.558C1847.815,39.206,1920,36.573,1920,36.573V686.565H0" transform="translate(0 15.387)" fill="#86a7f3"/>
        <path id="Rectangle-3" data-name="Rectangle" d="M0,106.516l37.47-5.435s24.267,1.445,35.072,1.445c5.923,0,55.812.708,100.79-6.293,37.08-5.771,70.251-19.387,72.851-18.722,113.43,29.005,203.692,52.161,376.939,46.039,16.89-.6,103.321-9.091,129.084-14.516,59.892-12.612,158.8-36.054,297.825-66,38.81-8.359,127.332-25.262,127.332-25.262S1271.21-4.606,1395.206,1.12c178.375,8.237,275.707,44.053,275.707,44.053s24.978,9.22,36.178,13.8c43.195,17.665,76.49,30.8,101.34,37.26C1855.372,108.438,1920,110.214,1920,110.214V699.161H0" transform="translate(0 2.792)" fill="#c1d2f9"/>
        <path id="Rectangle-4" data-name="Rectangle" d="M0,89.208l37.47-5.464S61.737,85.2,72.542,85.2c5.923,0,55.812.712,100.79-6.326,37.08-5.8,70.251-19.489,72.851-18.821,113.43,29.158,203.692,52.436,376.939,46.282,16.89-.6,103.321-9.139,129.084-14.592C812.1,79.061,911.008,55.5,1050.03,25.395,1088.84,16.992,1177.362,0,1177.362,0s59.409,4.571,156.884,32.183c87.206,24.7,156.228,28.943,181.812,28.943,55.758,0,154.855-33.585,154.855-33.585s24.978,9.268,36.178,13.873c43.195,17.758,76.49,30.96,101.34,37.456C1855.372,91.14,1920,92.925,1920,92.925V684.972H0" transform="translate(0 16.98)" fill="#4a7ced"/>
      </g>
      <path id="Line_2" data-name="Line 2" d="M0,.5H1589" transform="translate(165.5 477.452)" fill="none" stroke="#6b94f0" stroke-linecap="square" stroke-miterlimit="10" stroke-width="1"/>
    </g>
    <g id="Footer-2" data-name="Footer" transform="translate(0 1684.547)">
      <g id="Shape-2" data-name="Shape" transform="translate(0 -224)">
        <path id="Rectangle-5" data-name="Rectangle" d="M0,55.9A1100.256,1100.256,0,0,0,118.74,30.258C183.521,12.474,303.424,2.436,336.7.181c58.079-3.936,335.717,57.611,347.381,59.5,92.353,14.974,210.908,8.493,349.93-20.931,18.67-3.951,89-17.794,109.589-19.549,10.054-.857,108.575-12.736,203.359-15.672C1442.341.578,1691.87,41.656,1691.87,41.656s22.6,4.9,38.738,6.855c37.875,4.592,45.457,6.205,77.824,7.393,39.385,1.445,111.569-1.13,111.569-1.13V690.536H0Z" transform="translate(0 0)" fill="#d6e1fb"/>
        <path id="Rectangle-6" data-name="Rectangle" d="M0,89.641l37.47-5.37S61.737,85.7,72.542,85.7c5.923,0,55.812.7,100.79-6.217,37.08-5.7,70.514-17.727,72.851-18.5,24.968-8.219,47.029-11.312,59.947-11.312s21.784,1.193,32.809,4.487c51.515,15.391,83.644,45.669,217.331,19.574C571.11,70.837,672.421,39,684.085,40.9c92.353,15.054,210.908,8.539,349.93-21.043,18.67-3.973,89-17.89,109.589-19.654,10.054-.861,33.759,1.764,33.759,1.764s59.409,4.493,156.884,31.629c87.206,24.278,156.228,28.445,181.812,28.445,55.758,0,175.812-39.266,175.812-39.266s22.6,4.924,38.738,6.892c37.875,4.617,45.457,6.238,77.824,7.432C1847.816,38.555,1920,35.966,1920,35.966V675.148H0" transform="translate(0 15.387)" fill="#86a7f3"/>
        <path id="Rectangle-7" data-name="Rectangle" d="M0,104.779l37.47-5.347s24.267,1.421,35.072,1.421c5.923,0,55.812.7,100.79-6.19,37.08-5.677,70.251-19.07,72.851-18.416,113.43,28.531,203.692,51.309,376.939,45.287,16.89-.587,103.321-8.942,129.084-14.279C812.1,94.85,911.008,71.791,1050.03,42.337c38.81-8.223,127.332-24.849,127.332-24.849S1271.21-4.528,1395.207,1.1c178.375,8.1,275.707,43.333,275.707,43.333s24.978,9.069,36.178,13.575c43.195,17.376,76.49,30.3,101.34,36.651C1855.373,106.67,1920,108.416,1920,108.416V687.744H0" transform="translate(0 2.792)" fill="#c1d2f9"/>
        <path id="Rectangle-8" data-name="Rectangle" d="M0,87.721l37.47-5.373s24.267,1.428,35.072,1.428c5.923,0,55.812.7,100.79-6.22,37.08-5.705,70.251-19.164,72.851-18.507,113.43,28.672,203.692,51.562,376.939,45.51,16.89-.59,103.321-8.986,129.084-14.349,59.892-12.467,158.8-35.64,297.825-65.238C1088.841,16.708,1177.362,0,1177.362,0s59.409,4.5,156.884,31.647c87.206,24.291,156.228,28.461,181.812,28.461,55.758,0,154.855-33.025,154.855-33.025s24.978,9.114,36.178,13.641c43.195,17.462,76.49,30.444,101.34,36.832C1855.373,89.621,1920,91.376,1920,91.376V673.555H0" transform="translate(0 16.98)" fill="#4a7ced"/>
      </g>
      <path id="Line_2-2" data-name="Line 2" d="M0,.5H1589" transform="translate(165.5 466.036)" fill="none" stroke="#6b94f0" stroke-linecap="square" stroke-miterlimit="10" stroke-width="1"/>
    </g>
  </g>
</svg>
