<svg xmlns="http://www.w3.org/2000/svg" width="496.922" height="681.932" viewBox="0 0 496.922 681.932">
  <g id="Group_7021" data-name="Group 7021" transform="translate(-1072 -30425.068)">
    <text id="Marketing_Agency" data-name="Marketing Agency" transform="translate(1321 31023)" fill="#233d63" font-size="55" font-family="Poppins-SemiBold, Poppins" font-weight="600"><tspan x="-96.91" y="0">ONLINE</tspan><tspan x="-159.775" y="65">MARKETERS</tspan></text>
    <g id="Social_Media" data-name="Social Media" transform="translate(1063.4 30416.469)">
      <g id="Group_6697" data-name="Group 6697" transform="translate(8.6 8.6)">
        <g id="Group_6695" data-name="Group 6695">
          <circle id="Ellipse_2254" data-name="Ellipse 2254" cx="248.461" cy="248.461" r="248.461" fill="#382b73"/>
        </g>
        <g id="Group_6696" data-name="Group 6696" transform="translate(33.505 33.505)">
          <circle id="Ellipse_2255" data-name="Ellipse 2255" cx="214.956" cy="214.956" r="214.956" transform="translate(0 0)" fill="#473080"/>
        </g>
      </g>
      <path id="Path_18649" data-name="Path 18649" d="M367.091,265.852a47.858,47.858,0,0,0-60.3,10.361l-16.643-9.6-2.239-1.292a73.347,73.347,0,0,0,3.365-22.014c0-.029,0-.058,0-.087s0-.058,0-.089,0-.058,0-.089,0-.058,0-.087,0-.058,0-.089,0-.058,0-.089,0-.058,0-.087,0-.058,0-.089,0-.058,0-.089,0-.058,0-.087,0-.058,0-.087,0-.058,0-.089,0-.058,0-.089,0-.058,0-.087,0-.058,0-.089,0-.058,0-.089,0-.058,0-.089,0-.058,0-.087,0-.058,0-.089,0-.058,0-.089,0-.058,0-.087,0-.058,0-.089,0-.058,0-.089,0-.058,0-.087,0-.058,0-.089,0-.058,0-.089,0-.058,0-.087,0-.058,0-.089,0-.058,0-.089,0-.058,0-.087,0-.058,0-.089,0-.058,0-.089,0-.058,0-.089,0-.058,0-.087,0-.058,0-.089,0-.058,0-.089,0-.058,0-.087,0-.058,0-.087,0-.058,0-.089,0-.058,0-.087,0-.058,0-.087,0-.058,0-.089,0-.058,0-.089,0-.058,0-.087,0-.058,0-.089,0-.058,0-.089,0-.058,0-.087,0-.058,0-.087,0-.058,0-.089,0-.058,0-.087,0-.058,0-.087,0-.058,0-.089,0-.058,0-.089,0-.058,0-.087,0-.058,0-.089,0-.058,0-.089,0-.058,0-.087,0-.058,0-.087,0-.058,0-.089,0-.058,0-.089,0-.058,0-.087,0-.058,0-.089,0-.058,0-.089,0-.058,0-.089,0-.058,0-.089,0-.058,0-.089,0-.058,0-.089,0-.058,0-.087,0-.058,0-.089,0-.058,0-.089,0-.058,0-.087,0-.058,0-.089,0-.058,0-.089,0-.058,0-.087,0-.058,0-.089,0-.058,0-.089,0-.058,0-.087,0-.058,0-.089,0-.058,0-.089,0-.058,0-.089,0-.058,0-.087,0-.058,0-.089,0-.058,0-.089,0-.058,0-.087,0-.058,0-.087,0-.058,0-.089,0-.058,0-.089,0-.058,0-.087,0-.058,0-.089,0-.058,0-.089,0-.058,0-.087,0-.058,0-.089,0-.058,0-.087,0-.06,0-.089a73.111,73.111,0,0,0-5.764-28.552c-.046-.108-.1-.212-.146-.32l21.425-12.361a47.851,47.851,0,1,0-8.723-15.11L276.636,191q-1.027-1.37-2.114-2.691-2.241-2.716-4.734-5.209t-5.209-4.734a73.024,73.024,0,0,0-37.941-16.217V137.4a47.851,47.851,0,1,0-17.438,0v24.759a73.009,73.009,0,0,0-37.941,16.217q-2.716,2.241-5.209,4.734t-4.734,5.209q-1.089,1.32-2.114,2.691l-21.427-12.375a47.843,47.843,0,1,0-8.721,15.11L150.479,206.1c-.046.108-.1.212-.146.32a73.111,73.111,0,0,0-5.764,28.552c0,.029,0,.06,0,.089s0,.058,0,.087,0,.058,0,.089,0,.058,0,.087,0,.058,0,.089,0,.058,0,.089,0,.058,0,.087,0,.058,0,.089,0,.058,0,.089,0,.058,0,.087,0,.058,0,.087,0,.058,0,.089,0,.058,0,.089,0,.058,0,.087,0,.058,0,.089,0,.058,0,.089,0,.058,0,.089,0,.058,0,.087,0,.058,0,.089,0,.058,0,.089,0,.058,0,.087,0,.058,0,.089,0,.058,0,.089,0,.058,0,.087,0,.058,0,.089,0,.058,0,.089,0,.058,0,.087,0,.058,0,.089,0,.058,0,.089,0,.058,0,.089,0,.058,0,.089,0,.058,0,.089,0,.058,0,.089,0,.058,0,.087,0,.058,0,.089,0,.058,0,.089,0,.058,0,.087,0,.058,0,.087,0,.058,0,.089,0,.058,0,.089,0,.058,0,.087,0,.058,0,.089,0,.058,0,.089,0,.058,0,.087,0,.058,0,.087,0,.058,0,.089,0,.058,0,.087,0,.058,0,.087,0,.058,0,.089,0,.058,0,.089,0,.058,0,.087,0,.058,0,.089,0,.058,0,.089,0,.058,0,.087,0,.058,0,.087,0,.058,0,.089,0,.058,0,.087,0,.058,0,.087,0,.058,0,.089,0,.058,0,.089,0,.058,0,.087,0,.058,0,.089,0,.058,0,.089,0,.058,0,.089,0,.058,0,.087,0,.058,0,.089,0,.058,0,.089,0,.058,0,.087,0,.058,0,.089,0,.058,0,.089,0,.058,0,.087,0,.058,0,.089,0,.058,0,.089,0,.058,0,.087,0,.058,0,.089,0,.058,0,.089,0,.058,0,.087,0,.058,0,.089,0,.058,0,.089,0,.058,0,.089,0,.058,0,.087,0,.058,0,.089,0,.058,0,.089,0,.058,0,.087,0,.058,0,.087,0,.058,0,.089,0,.058,0,.089,0,.058,0,.087,0,.058,0,.089,0,.058,0,.089,0,.058,0,.087,0,.058,0,.089,0,.058,0,.089,0,.058,0,.087a73.347,73.347,0,0,0,3.365,22.014l-2.243,1.281-16.643,9.6a47.856,47.856,0,1,0,8.723,15.114l13.183-7.612,4.2-2.424A73.354,73.354,0,0,0,209.2,316.124v16.435a47.851,47.851,0,1,0,17.438,0V316.124a73.357,73.357,0,0,0,54.045-34.835l4.2,2.424,13.183,7.612a47.847,47.847,0,1,0,69.028-25.475Z" transform="translate(39.142 36.648)" fill="#382b73"/>
      <g id="Group_6730" data-name="Group 6730" transform="translate(66.444 64.587)">
        <g id="Group_6704" data-name="Group 6704" transform="translate(87.487 78.44)">
          <rect id="Rectangle_1246" data-name="Rectangle 1246" width="17.438" height="228.068" transform="translate(94.411)" fill="#ef5a9d"/>
          <path id="Path_18650" data-name="Path 18650" d="M284.7,112.077l-39.745,22.932-45.926,26.532-8.74,5.036-8.719,5.036-8.719,5.036-58.245,33.628L87.18,226.111,78.44,211l30.9-17.833,54.77-31.63,8.74-5.036,8.719-5.036,8.719-5.036L234.342,121,275.96,96.97Z" transform="translate(-78.44 -47.507)" fill="#ef5a9d"/>
          <path id="Path_18651" data-name="Path 18651" d="M284.7,211l-8.74,15.107-27.426-15.836-58.245-33.628-8.719-5.036-8.719-5.036-8.74-5.036-45.926-26.532L78.44,112.077,87.18,96.97,128.8,121l44.053,25.429,8.719,5.036,8.719,5.036,8.74,5.036,54.77,31.63Z" transform="translate(-78.44 -47.507)" fill="#ef5a9d"/>
          <path id="Path_18652" data-name="Path 18652" d="M237.747,192.328a72.887,72.887,0,0,1-5.265,17.105l-58.245-33.628v76.453a73.325,73.325,0,0,1-17.438,0V175.805L98.555,209.433a72.889,72.889,0,0,1-5.265-17.105l54.77-31.63-45.926-26.532A73.486,73.486,0,0,1,156.8,98.27a73.325,73.325,0,0,1,17.438,0,73.487,73.487,0,0,1,54.666,35.9L182.977,160.7Z" transform="translate(-62.388 -46.664)" fill="#a72973"/>
          <path id="Path_18653" data-name="Path 18653" d="M239.457,166.192c0-.029,0-.058,0-.087a73.355,73.355,0,1,0-146.711,0c0,.029,0,.058,0,.087s0,.058,0,.089,0,.058,0,.089,0,.058,0,.087,0,.058,0,.089,0,.058,0,.089,0,.058,0,.087,0,.058,0,.089,0,.058,0,.089,0,.058,0,.087,0,.058,0,.087,0,.058,0,.089,0,.058,0,.089,0,.058,0,.087,0,.058,0,.089,0,.058,0,.089,0,.058,0,.089,0,.058,0,.087,0,.058,0,.089,0,.058,0,.089,0,.058,0,.087,0,.058,0,.089,0,.058,0,.089,0,.058,0,.087,0,.058,0,.09,0,.058,0,.089,0,.058,0,.087,0,.058,0,.089,0,.058,0,.089,0,.058,0,.089,0,.058,0,.089,0,.058,0,.089,0,.058,0,.089,0,.058,0,.087,0,.058,0,.089,0,.058,0,.089,0,.058,0,.087,0,.058,0,.087,0,.058,0,.089,0,.058,0,.089,0,.058,0,.087,0,.058,0,.089,0,.058,0,.089,0,.058,0,.087,0,.058,0,.087,0,.058,0,.089,0,.058,0,.087,0,.058,0,.087,0,.058,0,.089,0,.058,0,.089,0,.058,0,.087,0,.058,0,.089,0,.058,0,.089,0,.058,0,.087,0,.058,0,.087,0,.058,0,.089,0,.058,0,.087,0,.058,0,.087,0,.058,0,.089,0,.058,0,.089,0,.058,0,.087,0,.058,0,.089,0,.058,0,.089,0,.058,0,.089,0,.058,0,.087,0,.058,0,.089,0,.058,0,.089,0,.058,0,.087,0,.058,0,.089,0,.058,0,.089,0,.058,0,.087,0,.058,0,.089,0,.058,0,.089,0,.058,0,.087,0,.058,0,.089,0,.058,0,.089,0,.058,0,.087,0,.058,0,.089,0,.058,0,.089,0,.058,0,.089,0,.058,0,.087,0,.058,0,.089,0,.058,0,.089,0,.058,0,.087,0,.058,0,.087,0,.058,0,.089,0,.058,0,.089,0,.058,0,.087,0,.058,0,.089,0,.058,0,.089,0,.058,0,.087,0,.058,0,.089,0,.058,0,.089,0,.058,0,.087a73.355,73.355,0,0,0,146.711,0c0-.029,0-.058,0-.087s0-.058,0-.089,0-.058,0-.089,0-.058,0-.087,0-.058,0-.089,0-.058,0-.089,0-.058,0-.087,0-.058,0-.089,0-.058,0-.089,0-.058,0-.087,0-.058,0-.087,0-.058,0-.089,0-.058,0-.089,0-.058,0-.087,0-.058,0-.089,0-.058,0-.089,0-.058,0-.089,0-.058,0-.087,0-.058,0-.089,0-.058,0-.089,0-.058,0-.087,0-.058,0-.089,0-.058,0-.089,0-.058,0-.087,0-.058,0-.089,0-.058,0-.089,0-.058,0-.087,0-.058,0-.089,0-.058,0-.089,0-.058,0-.087,0-.058,0-.089,0-.058,0-.089,0-.058,0-.089,0-.058,0-.087,0-.058,0-.089,0-.058,0-.089,0-.058,0-.087,0-.058,0-.087,0-.058,0-.089,0-.058,0-.087,0-.058,0-.087,0-.058,0-.089,0-.058,0-.089,0-.058,0-.087,0-.058,0-.089,0-.058,0-.089,0-.058,0-.087,0-.058,0-.087,0-.058,0-.089,0-.058,0-.087,0-.058,0-.087,0-.058,0-.089,0-.058,0-.089,0-.058,0-.087,0-.058,0-.089,0-.058,0-.089,0-.058,0-.087,0-.058,0-.087,0-.058,0-.089,0-.058,0-.089,0-.058,0-.087,0-.058,0-.089,0-.058,0-.089,0-.058,0-.089,0-.058,0-.089,0-.058,0-.089,0-.058,0-.089,0-.058,0-.087,0-.058,0-.089,0-.058,0-.089,0-.058,0-.087,0-.058,0-.089,0-.058,0-.089,0-.058,0-.087,0-.058,0-.089,0-.058,0-.089,0-.058,0-.087,0-.058,0-.089,0-.058,0-.089,0-.058,0-.089,0-.058,0-.087,0-.058,0-.089,0-.058,0-.089,0-.058,0-.087,0-.058,0-.087,0-.058,0-.089,0-.058,0-.089,0-.058,0-.087,0-.058,0-.089,0-.058,0-.089,0-.058,0-.087,0-.058,0-.089S239.457,166.223,239.457,166.192Z" transform="translate(-62.974 -52.07)" fill="#d1d3d4"/>
          <circle id="Ellipse_2256" data-name="Ellipse 2256" cx="73.354" cy="73.354" r="73.354" transform="translate(29.776 40.68)" fill="#fff"/>
          <path id="Path_18654" data-name="Path 18654" d="M205.823,192.67c0-.015,0-.027,0-.04,0-.031-.01-.062-.017-.094a4.426,4.426,0,0,0-.144-.578c-.006-.023-.008-.044-.015-.067l-4.688-13.986a22.068,22.068,0,0,0-9.922-12.115l-17.846-8.218-.705-.325-1.169-.539,0,0v0l-.006,0h0l-1.542-1.238-.687-.551a1.762,1.762,0,0,0-.966-.383c-.012,0-.027,0-.04,0v-6.73a28.959,28.959,0,0,0,3.419-4.522c.445-.728.866-1.484,1.259-2.258a34.618,34.618,0,0,0,1.756-4.17,4.268,4.268,0,0,0,.643.2c3.178.574,6.351-2.268,7.09-6.351a9.754,9.754,0,0,0,.119-1.163c0,.023.006.044.008.065,0-.048,0-.1,0-.144,0-.083.023-.169.025-.25,0-.191-.023-.375-.029-.562s-.012-.387-.033-.576c-.01-.089,0-.185-.015-.275a.091.091,0,0,1,0,.01c-.023-.171-.069-.329-.1-.493-.037-.2-.079-.385-.129-.574-.06-.227-.129-.445-.208-.66-.069-.191-.148-.372-.229-.554s-.179-.383-.281-.564-.218-.35-.337-.518-.214-.31-.335-.452a5.672,5.672,0,0,0-.46-.462c-.121-.112-.235-.231-.364-.331a4.711,4.711,0,0,0-.622-.389c-.114-.065-.218-.142-.339-.2a4.246,4.246,0,0,0-2.612-.335,23.842,23.842,0,0,0-4.649-12.107s0,0,0-.006h0l0,0c-.019-.025-.04-.048-.058-.071-.1-.129-.206-.252-.308-.377-.089-.108-.177-.223-.271-.331,0,0-.006.008-.008.012-.3-.356-.6-.718-.92-1.049a20.676,20.676,0,0,0-1.552-1.442c-.058-.048-.123-.089-.183-.137-.144-.117-.3-.221-.443-.333-.454-.35-.914-.687-1.394-1-.21-.135-.429-.258-.643-.387-.435-.26-.876-.508-1.33-.735-.25-.125-.5-.241-.757-.356-.441-.2-.891-.383-1.348-.554-.273-.1-.543-.2-.82-.289-.466-.152-.941-.281-1.421-.4-.277-.071-.551-.146-.834-.2-.522-.11-1.055-.189-1.59-.262-.248-.033-.491-.081-.743-.106a22.474,22.474,0,0,0-4.809,0c-.25.025-.491.073-.739.106-.537.073-1.07.152-1.594.262-.283.058-.558.135-.834.2-.481.121-.955.25-1.421.4-.277.089-.547.189-.82.289q-.687.253-1.35.554c-.254.114-.506.231-.753.356-.456.229-.9.477-1.334.737-.214.127-.431.25-.641.385-.483.312-.947.653-1.4,1.005-.141.11-.291.21-.431.325-.06.048-.125.089-.183.137a20.281,20.281,0,0,0-1.552,1.442c-.323.333-.62.7-.922,1.053,0,0-.006-.008-.008-.012-.092.106-.177.219-.266.327-.1.127-.208.25-.308.379l-.062.075s0,0,0,.006a23.8,23.8,0,0,0-4.64,12.055,4.648,4.648,0,0,0-1.292.037,4.577,4.577,0,0,0-1.084.345c-.119.054-.225.133-.339.2a4.711,4.711,0,0,0-.622.389c-.129.1-.243.219-.364.331a5.672,5.672,0,0,0-.46.462c-.121.142-.227.3-.335.452s-.233.335-.337.518-.194.368-.281.562-.16.364-.229.556c-.079.214-.146.433-.206.66-.05.189-.092.379-.129.574-.031.166-.077.325-.1.493,0,0,0-.008,0-.012-.012.089-.006.185-.015.275-.019.189-.025.383-.031.576s-.033.37-.029.562c0,.081.021.166.025.25,0,.048,0,.1,0,.144,0-.023.006-.044.008-.064a9.382,9.382,0,0,0,.119,1.163c.737,4.081,3.912,6.925,7.09,6.351a4.22,4.22,0,0,0,.427-.133,34.49,34.49,0,0,0,1.731,4.1c.393.774.814,1.529,1.259,2.258a28.941,28.941,0,0,0,3.417,4.518v6.732a1.71,1.71,0,0,0-.539.114,1.838,1.838,0,0,0-.462.266l-.676.543-1.554,1.246h0l-19.729,9.087a22.084,22.084,0,0,0-3.282,2.308,0,0,0,0,0,0,0,22.169,22.169,0,0,0-1.9,1.85c-.15.162-.3.327-.441.493s-.3.323-.443.493a22.016,22.016,0,0,0-2.53,3.891c-.1.2-.2.4-.3.6a21.694,21.694,0,0,0-1.024,2.478L103.6,191.885a4.552,4.552,0,0,0-.154.624c-.008.046-.017.092-.023.135,0,.019,0,.037,0,.054-.012.089-.015.177-.021.268-.006.075-.017.148-.019.223,0,.015-.008.031-.008.048s0,.017,0,.027v.019c0,.079.012.154.017.233,0,.056-.006.112,0,.169s.019.085.025.129,0,.069.008.1c0,.01,0,.023,0,.033.019.119.05.231.077.348,0,.021.01.042.015.06.017.062.019.129.037.191,0,.017.015.029.019.046s0,.015,0,.023,0,0,0-.006l.012.031a4.2,4.2,0,0,0,.21.512c.037.081.069.166.11.246a4.435,4.435,0,0,0,.454.685,4.493,4.493,0,0,0,.62.622,4.4,4.4,0,0,0,1.028.606c.048.021.085.06.135.079q.215.084.443.15l41.181,11.537h0l.15.042.755.212h0c.487.137.974.256,1.467.358s.986.187,1.482.254c.069.01.139.006.208.015.119.015.237.01.354.025l.017.021c.325.035.647.075.974.1l-.017-.05c.491.033.978.1,1.469.1h0c.439,0,.876-.019,1.313-.044.046,0,.092-.012.137-.015l0,.01c.325-.021.649-.06.974-.1l.017-.021c.185-.021.375-.015.56-.04.158-.021.316-.056.474-.081.125-.019.25-.042.375-.065.208-.037.418-.065.626-.108q.734-.153,1.459-.356a.022.022,0,0,1,.01,0l42.086-11.788a4.4,4.4,0,0,0,3.013-2.926l0,0a.026.026,0,0,0,0-.012c.029-.094.044-.191.067-.287.027-.117.062-.229.081-.348,0-.008,0-.019,0-.027s0-.046,0-.069A4.9,4.9,0,0,0,205.823,192.67Z" transform="translate(-51.487 -42.049)" fill="#e6e7e8"/>
          <g id="Group_6703" data-name="Group 6703" transform="translate(51.869 55.808)">
            <g id="Group_6702" data-name="Group 6702" transform="translate(0.001)">
              <path id="Path_18655" data-name="Path 18655" d="M202.662,167.136l-42.086,11.788a22.056,22.056,0,0,1-11.9,0L106.59,167.136a4.409,4.409,0,0,1-2.992-5.65l4.688-13.986a22.068,22.068,0,0,1,9.922-12.115l19.729-9.087,33.38,0,19.727,9.087a22.053,22.053,0,0,1,9.922,12.115l4.688,13.986A4.41,4.41,0,0,1,202.662,167.136Z" transform="translate(-103.365 -71.614)" fill="#d1d3d4"/>
              <rect id="Rectangle_1247" data-name="Rectangle 1247" width="26.915" height="24.486" transform="translate(37.803 39.598)" fill="#e7ad27"/>
              <path id="Path_18656" data-name="Path 18656" d="M134.207,132.459h-5.294l-4.208,39.554.905.254a22.057,22.057,0,0,0,11.9,0l.905-.254Z" transform="translate(-80.3 -64.954)" fill="#009add"/>
              <path id="Path_18657" data-name="Path 18657" d="M132.342,132.459h-5.294l-.616,5.783.141.144a4.411,4.411,0,0,0,6.239,0l.144-.144Z" transform="translate(-78.434 -64.954)" fill="#136da0"/>
              <path id="Path_18658" data-name="Path 18658" d="M137.857,136.43l-3.28,3.28a4.411,4.411,0,0,1-6.239,0l-3.28-3.28a.882.882,0,0,1,0-1.249l6.4-6.4,6.4,6.4A.885.885,0,0,1,137.857,136.43Z" transform="translate(-80.198 -68.928)" fill="#1caee4"/>
              <path id="Path_18659" data-name="Path 18659" d="M144.691,126.3l19.729,9.087a22.054,22.054,0,0,1,9.922,12.115l4.688,13.986a4.411,4.411,0,0,1-2.992,5.65l-42.086,11.788a22.063,22.063,0,0,1-5.951.818Z" transform="translate(-76.739 -71.613)" fill="#ef5a9d"/>
              <path id="Path_18660" data-name="Path 18660" d="M137.936,126.3l-19.729,9.087a22.054,22.054,0,0,0-9.922,12.115L103.6,161.487a4.411,4.411,0,0,0,2.992,5.65l42.084,11.788a22.063,22.063,0,0,0,5.951.818Z" transform="translate(-103.366 -71.613)" fill="#ef5a9d"/>
              <path id="Path_18661" data-name="Path 18661" d="M103.419,162.245a4.568,4.568,0,0,0-.052.626v.01a4.542,4.542,0,0,0,.048.631c0,.025.006.048.01.073a4.524,4.524,0,0,0,.148.628c.008-.027.015-.054.023-.081l4.688-13.986a22.068,22.068,0,0,1,9.922-12.115l19.729-9.087h.826l-.826-2.647L120.1,134.512l-1.892.872a22.066,22.066,0,0,0-9.922,12.115L103.6,161.485a4.552,4.552,0,0,0-.154.624C103.434,162.155,103.425,162.2,103.419,162.245Z" transform="translate(-103.365 -71.615)" fill="#f06ea9"/>
              <path id="Path_18662" data-name="Path 18662" d="M170.963,162.225c0-.031-.01-.062-.017-.094a4.234,4.234,0,0,0-.16-.645L166.1,147.5a22.068,22.068,0,0,0-9.922-12.115l-18.549-8.544-1.178-.543-.826,2.647h.826l19.727,9.087a22.054,22.054,0,0,1,9.922,12.115l4.688,13.986c.008.027.015.054.023.081a4.5,4.5,0,0,0,.152-.647c0-.008,0-.019,0-.027A4.288,4.288,0,0,0,170.963,162.225Z" transform="translate(-68.499 -71.614)" fill="#f06ea9"/>
              <g id="Group_6698" data-name="Group 6698" transform="translate(34.57 52.506)">
                <path id="Path_18663" data-name="Path 18663" d="M136.67,132.6l-10.748,13.715-5.943-18.884,2.235-1.792a1.763,1.763,0,0,1,1.979-.156Z" transform="translate(-119.979 -125.251)" fill="#e6e7e8"/>
              </g>
              <g id="Group_6699" data-name="Group 6699" transform="translate(51.267 52.506)">
                <path id="Path_18664" data-name="Path 18664" d="M128,132.6l10.748,13.715,5.937-18.884-2.229-1.792a1.769,1.769,0,0,0-1.981-.158Z" transform="translate(-128.003 -125.251)" fill="#e6e7e8"/>
              </g>
              <path id="Path_18665" data-name="Path 18665" d="M140.478,127.662a1.762,1.762,0,0,1,1.981.158l1.681,1.353.547-1.74-2.229-1.792a1.769,1.769,0,0,0-1.981-.158L128,132.6l1.18,1.507Z" transform="translate(-76.736 -72.744)" fill="#fff"/>
              <path id="Path_18666" data-name="Path 18666" d="M124.189,127.662a1.759,1.759,0,0,0-1.979.158l-1.681,1.353-.547-1.74,2.229-1.792a1.766,1.766,0,0,1,1.979-.158l12.475,7.119-1.18,1.507Z" transform="translate(-85.407 -72.744)" fill="#fff"/>
              <ellipse id="Ellipse_2257" data-name="Ellipse 2257" cx="5.847" cy="7.51" rx="5.847" ry="7.51" transform="translate(22.566 21.295) rotate(-10.247)" fill="#f7cb15"/>
              <ellipse id="Ellipse_2258" data-name="Ellipse 2258" cx="7.51" cy="5.847" rx="7.51" ry="5.847" transform="translate(66.063 33.992) rotate(-79.753)" fill="#f7cb15"/>
              <path id="Path_18667" data-name="Path 18667" d="M119.337,111.053c3.178-.574,6.351,2.268,7.09,6.351a9.576,9.576,0,0,1,.127,1.1,9.488,9.488,0,0,0-.127-2.36c-.739-4.081-3.912-6.925-7.09-6.351-2.89.522-4.78,3.694-4.545,7.333C115.013,114.037,116.788,111.513,119.337,111.053Z" transform="translate(-91.037 -89.537)" fill="#fff335"/>
              <path id="Path_18668" data-name="Path 18668" d="M135.823,117.4c.737-4.081,3.912-6.925,7.09-6.351,2.549.462,4.322,2.984,4.545,6.072.235-3.64-1.654-6.811-4.545-7.333-3.178-.574-6.351,2.268-7.09,6.351a9.476,9.476,0,0,0-.127,2.36A9.564,9.564,0,0,1,135.823,117.4Z" transform="translate(-68.446 -89.537)" fill="#fff335"/>
              <path id="Path_18669" data-name="Path 18669" d="M122.012,119.281c-3.178.574-6.351-2.268-7.09-6.351-.031-.175-.052-.348-.073-.522a9.367,9.367,0,0,0,.073,2.9c.739,4.081,3.912,6.925,7.09,6.351,3.042-.549,4.978-4.033,4.491-7.907C126.122,116.591,124.409,118.846,122.012,119.281Z" transform="translate(-91.04 -86.628)" fill="#e7ad27"/>
              <path id="Path_18670" data-name="Path 18670" d="M147.328,112.93c-.739,4.081-3.912,6.925-7.09,6.351-2.4-.433-4.112-2.691-4.491-5.527-.487,3.877,1.45,7.358,4.491,7.907,3.178.574,6.351-2.268,7.09-6.351a9.369,9.369,0,0,0,.073-2.9C147.38,112.583,147.361,112.755,147.328,112.93Z" transform="translate(-68.445 -86.628)" fill="#e7ad27"/>
              <path id="Path_18671" data-name="Path 18671" d="M139.359,100.019c-12.078,0-21.868,9.054-21.868,23.518s9.791,28.86,21.868,28.86,21.868-14.4,21.868-28.86S151.439,100.019,139.359,100.019Z" transform="translate(-88.099 -100.019)" fill="#fede3a"/>
              <path id="Path_18672" data-name="Path 18672" d="M139.359,137.067c-11.489,0-20.9-13.024-21.793-26.744-.046.68-.075,1.369-.075,2.075,0,14.464,9.791,28.86,21.868,28.86s21.868-14.4,21.868-28.86c0-.705-.029-1.4-.075-2.075C160.26,124.042,150.848,137.067,139.359,137.067Z" transform="translate(-88.099 -88.881)" fill="#f7cb15"/>
              <path id="Path_18673" data-name="Path 18673" d="M136.847,100.019a21.12,21.12,0,0,0-17.032,8.155,19.859,19.859,0,0,0,34.062,0A21.118,21.118,0,0,0,136.847,100.019Z" transform="translate(-85.587 -100.019)" fill="#1caee4"/>
              <path id="Path_18674" data-name="Path 18674" d="M136.847,100.019a21.12,21.12,0,0,0-17.032,8.155,19.859,19.859,0,0,0,34.062,0A21.118,21.118,0,0,0,136.847,100.019Z" transform="translate(-85.587 -100.019)" fill="#1caee4"/>
              <path id="Path_18675" data-name="Path 18675" d="M136.846,112.219a19.83,19.83,0,0,1-16.393-8.655c-.216.256-.433.512-.637.78a19.861,19.861,0,0,0,34.062,0c-.206-.266-.42-.524-.637-.78A19.838,19.838,0,0,1,136.846,112.219Z" transform="translate(-85.585 -96.189)" fill="#009add"/>
              <path id="Path_18676" data-name="Path 18676" d="M150.287,145.207H138.522a1.25,1.25,0,0,1-1.251-1.251h0a1.25,1.25,0,0,1,1.251-1.251h11.766a1.25,1.25,0,0,1,1.251,1.251h0A1.25,1.25,0,0,1,150.287,145.207Z" transform="translate(-66.718 -53.878)" fill="#f06ea9"/>
              <path id="Path_18677" data-name="Path 18677" d="M119.221,132.08a.776.776,0,0,0,.762-.909,30.113,30.113,0,0,1-.4-4.878c0-13.083,8.856-21.273,19.781-21.273s19.781,8.19,19.781,21.273a30.092,30.092,0,0,1-.4,4.878.775.775,0,0,0,.762.909h0a.782.782,0,0,0,.762-.593,33.869,33.869,0,0,0,.968-7.949c0-14.464-9.791-23.518-21.868-23.518s-21.868,9.054-21.868,23.518a33.747,33.747,0,0,0,.97,7.949.776.776,0,0,0,.76.593Z" transform="translate(-88.098 -100.019)" fill="#1caee4"/>
              <g id="Group_6700" data-name="Group 6700" transform="translate(30.279 9.868)">
                <path id="Path_18678" data-name="Path 18678" d="M135.146,104.761c-.177.212-.352.425-.539.628,3.719,3.689,6.033,9.092,6.033,15.775a30.1,30.1,0,0,1-.4,4.878.775.775,0,0,0,.762.909.786.786,0,0,0,.441-.144,31.9,31.9,0,0,0,.406-5.021C141.844,114.52,139.264,108.679,135.146,104.761Z" transform="translate(-99.877 -104.761)" fill="#009add"/>
                <path id="Path_18679" data-name="Path 18679" d="M125.15,105.39c-.185-.2-.362-.416-.537-.628-4.118,3.918-6.7,9.759-6.7,17.028a31.9,31.9,0,0,0,.406,5.021.768.768,0,0,0,1.2-.766,30.113,30.113,0,0,1-.4-4.878C119.118,114.482,121.434,109.08,125.15,105.39Z" transform="translate(-117.917 -104.76)" fill="#009add"/>
              </g>
              <g id="Group_6701" data-name="Group 6701" transform="translate(29.392)">
                <path id="Path_18680" data-name="Path 18680" d="M118.494,114.277a29.761,29.761,0,0,0,.2,3.336.768.768,0,0,0,.208-.664,30.52,30.52,0,0,1-.381-3.773C118.5,113.538,118.494,113.9,118.494,114.277Z" transform="translate(-116.407 -85.797)" fill="#27c1e6"/>
                <path id="Path_18681" data-name="Path 18681" d="M139.359,102.225c11.707,0,21.265,8.507,21.841,22.2.008-.3.027-.593.027-.889,0-14.464-9.791-23.518-21.868-23.518s-21.868,9.054-21.868,23.518c0,.3.019.593.027.889C118.1,110.732,127.654,102.225,139.359,102.225Z" transform="translate(-117.491 -100.019)" fill="#27c1e6"/>
                <path id="Path_18682" data-name="Path 18682" d="M137.7,113.175a30.092,30.092,0,0,1-.381,3.773.78.78,0,0,0,.208.664,29.768,29.768,0,0,0,.2-3.336C137.721,113.905,137.713,113.539,137.7,113.175Z" transform="translate(-96.071 -85.798)" fill="#27c1e6"/>
              </g>
            </g>
            <path id="Path_18683" data-name="Path 18683" d="M138.416,153.693l-.456-4.285-.449.127a22.056,22.056,0,0,1-11.9,0l-.449-.127-.456,4.285.905.254q.73.206,1.469.358t1.486.256a22.06,22.06,0,0,0,5.993,0q.746-.1,1.486-.256t1.469-.358Z" transform="translate(-80.3 -46.634)" fill="#136da0"/>
            <path id="Path_18684" data-name="Path 18684" d="M179.028,143.68l-.306-.909a4.4,4.4,0,0,1-2.689,2.15l-42.086,11.788a22.108,22.108,0,0,1-4.557.77L128,161.936c.441,0,.88-.019,1.321-.046a22.127,22.127,0,0,0,4.63-.772l42.086-11.788A4.412,4.412,0,0,0,179.028,143.68Z" transform="translate(-76.738 -53.808)" fill="#e43d91"/>
            <path id="Path_18685" data-name="Path 18685" d="M154.627,161.937l-1.392-4.459a22.134,22.134,0,0,1-4.559-.77L106.592,144.92a4.393,4.393,0,0,1-2.689-2.15l-.306.909a4.418,4.418,0,0,0,1.386,4.817,4.383,4.383,0,0,0,1.163.685q.215.084.443.15l42.084,11.788A22.1,22.1,0,0,0,154.627,161.937Z" transform="translate(-103.366 -53.809)" fill="#e43d91"/>
            <path id="Path_18686" data-name="Path 18686" d="M140,178.776l-16.125-51.63L115.627,144.1a.886.886,0,0,0,.662,1.234l4.986.345a.911.911,0,0,1,.47,1.538l-3.85,3.931a.97.97,0,0,0-.054,1.253l21.18,26.274C139.348,178.715,139.672,178.755,140,178.776Z" transform="translate(-90.184 -70.697)" fill="#e43d91"/>
            <path id="Path_18687" data-name="Path 18687" d="M124.3,126.3l-8.245,16.955a.886.886,0,0,0,.664,1.234l4.986.345a.911.911,0,0,1,.47,1.538l-3.85,3.931a.97.97,0,0,0-.054,1.253l22.719,28.186Z" transform="translate(-89.725 -71.613)" fill="#f06ea9"/>
            <path id="Path_18688" data-name="Path 18688" d="M128.7,178.776l16.125-51.63,8.245,16.955a.886.886,0,0,1-.662,1.234l-4.986.345a.911.911,0,0,0-.47,1.538l3.85,3.931a.97.97,0,0,1,.054,1.253l-21.18,26.274C129.348,178.715,129.024,178.755,128.7,178.776Z" transform="translate(-75.983 -70.697)" fill="#e43d91"/>
            <path id="Path_18689" data-name="Path 18689" d="M144.694,126.3l8.245,16.955a.886.886,0,0,1-.664,1.234l-4.986.345a.911.911,0,0,0-.47,1.538l3.85,3.931a.97.97,0,0,1,.054,1.253L128,179.739Z" transform="translate(-76.735 -71.613)" fill="#f06ea9"/>
          </g>
        </g>
        <g id="Group_6709" data-name="Group 6709" transform="translate(142.766)">
          <g id="Group_6706" data-name="Group 6706">
            <g id="Group_6705" data-name="Group 6705">
              <circle id="Ellipse_2259" data-name="Ellipse 2259" cx="47.851" cy="47.851" r="47.851" fill="#ef5a9d"/>
            </g>
          </g>
          <g id="Group_6708" data-name="Group 6708" transform="translate(0 289.247)">
            <g id="Group_6707" data-name="Group 6707">
              <circle id="Ellipse_2260" data-name="Ellipse 2260" cx="47.851" cy="47.851" r="47.851" fill="#ef5a9d"/>
            </g>
          </g>
        </g>
        <g id="Group_6714" data-name="Group 6714" transform="translate(0.001 54.793)">
          <g id="Group_6711" data-name="Group 6711" transform="translate(0 144.62)">
            <g id="Group_6710" data-name="Group 6710">
              <circle id="Ellipse_2261" data-name="Ellipse 2261" cx="47.851" cy="47.851" r="47.851" transform="matrix(0.866, -0.5, 0.5, 0.866, 0, 47.851)" fill="#ef5a9d"/>
            </g>
          </g>
          <g id="Group_6713" data-name="Group 6713" transform="translate(250.49)">
            <g id="Group_6712" data-name="Group 6712">
              <circle id="Ellipse_2262" data-name="Ellipse 2262" cx="47.851" cy="47.851" r="47.851" transform="matrix(0.866, -0.5, 0.5, 0.866, 0, 47.851)" fill="#ef5a9d"/>
            </g>
          </g>
        </g>
        <g id="Group_6719" data-name="Group 6719" transform="translate(0 54.803)">
          <g id="Group_6716" data-name="Group 6716" transform="translate(250.492 144.629)">
            <g id="Group_6715" data-name="Group 6715">
              <circle id="Ellipse_2263" data-name="Ellipse 2263" cx="47.851" cy="47.851" r="47.851" transform="matrix(0.5, -0.866, 0.866, 0.5, 0, 82.877)" fill="#ef5a9d"/>
            </g>
          </g>
          <g id="Group_6718" data-name="Group 6718">
            <g id="Group_6717" data-name="Group 6717">
              <circle id="Ellipse_2264" data-name="Ellipse 2264" cx="47.851" cy="47.851" r="47.851" transform="matrix(0.5, -0.866, 0.866, 0.5, 0, 82.877)" fill="#ef5a9d"/>
            </g>
          </g>
        </g>
        <g id="Group_6720" data-name="Group 6720" transform="translate(179.155 26.838)">
          <path id="Path_18690" data-name="Path 18690" d="M122.492,82.5V56.083a4.669,4.669,0,0,1,7.4-3.787L148.22,65.507a4.671,4.671,0,0,1,0,7.577L129.892,86.3A4.672,4.672,0,0,1,122.492,82.5Z" transform="translate(-122.492 -45.156)" fill="#e43d91"/>
          <path id="Path_18691" data-name="Path 18691" d="M122.492,79.5V53.08a4.669,4.669,0,0,1,7.4-3.787L148.22,62.5a4.671,4.671,0,0,1,0,7.577L129.892,83.292A4.671,4.671,0,0,1,122.492,79.5Z" transform="translate(-122.492 -48.402)" fill="#fff"/>
          <path id="Path_18692" data-name="Path 18692" d="M148.219,58.112,129.893,71.324a4.669,4.669,0,0,1-7.4-3.787v3.612a4.669,4.669,0,0,0,7.4,3.787l18.327-13.212a4.651,4.651,0,0,0,1.552-5.593A4.606,4.606,0,0,1,148.219,58.112Z" transform="translate(-122.491 -40.048)" fill="#d1d3d4"/>
        </g>
        <g id="Group_6721" data-name="Group 6721" transform="translate(295.832 104.347)">
          <path id="Path_18693" data-name="Path 18693" d="M214.891,114.994H182.3a3.736,3.736,0,0,1-3.735-3.735V93.425A3.736,3.736,0,0,1,182.3,89.69h32.593a3.736,3.736,0,0,1,3.735,3.735v17.833A3.735,3.735,0,0,1,214.891,114.994Z" transform="translate(-178.562 -81.283)" fill="#e43d91"/>
          <path id="Path_18694" data-name="Path 18694" d="M214.891,111.967H182.3a3.736,3.736,0,0,1-3.735-3.735V90.4a3.736,3.736,0,0,1,3.735-3.735h32.593a3.736,3.736,0,0,1,3.735,3.735v17.833A3.734,3.734,0,0,1,214.891,111.967Z" transform="translate(-178.562 -84.555)" fill="#d1d3d4"/>
          <path id="Path_18695" data-name="Path 18695" d="M214.891,110.954H182.3a3.736,3.736,0,0,1-3.735-3.735V89.385A3.736,3.736,0,0,1,182.3,85.65h32.593a3.736,3.736,0,0,1,3.735,3.735v17.833A3.735,3.735,0,0,1,214.891,110.954Z" transform="translate(-178.562 -85.65)" fill="#fff"/>
          <path id="Path_18696" data-name="Path 18696" d="M214.281,85.65H181.688a3.719,3.719,0,0,0-2.562,1.028l16.017,12.644a4.589,4.589,0,0,0,5.685,0l16.017-12.644A3.724,3.724,0,0,0,214.281,85.65Z" transform="translate(-177.952 -85.65)" fill="#fede3a"/>
        </g>
        <path id="Path_18697" data-name="Path 18697" d="M220.72,172.219a1.947,1.947,0,0,0,.651-1.5v-3.059a2.03,2.03,0,0,0-.027-.223c-.008-.069-.01-.137-.025-.2a1.941,1.941,0,0,0-.208-.57l-1.867-3.232a1.955,1.955,0,0,0-2.306-.878l-4.79,1.586-2.682.886-.01-.006a15.713,15.713,0,0,0-1.973-1.38c-.1-.058-.189-.119-.289-.175a15.442,15.442,0,0,0-2.106-.991c-.062-.025-.119-.062-.183-.085l-1.594-7.7a1.952,1.952,0,0,0-1.912-1.559h-3.731a1.953,1.953,0,0,0-1.665.932,1.916,1.916,0,0,0-.248.626l-1.594,7.7c-.065.023-.119.06-.183.085a15.442,15.442,0,0,0-2.106.991c-.1.056-.191.117-.289.175a15.507,15.507,0,0,0-1.973,1.38l-.01.006-7.473-2.472a1.952,1.952,0,0,0-2.306.878l-1.867,3.232a1.93,1.93,0,0,0-.208.568c-.015.069-.017.137-.025.206a2.037,2.037,0,0,0-.027.223v3.061a1.947,1.947,0,0,0,.651,1.5L184,177.257v2.537l-.714.637-4.938,4.4a1.948,1.948,0,0,0-.454.633c-.031.069-.046.135-.071.206a1.917,1.917,0,0,0-.1.541c0,.044-.025.083-.025.127V189.4a1.949,1.949,0,0,0,.258,1l1.867,3.232a1.952,1.952,0,0,0,2.306.878l7.473-2.472a15.51,15.51,0,0,0,4.559,2.637l1.594,7.7a1.954,1.954,0,0,0,1.914,1.559h3.731a1.957,1.957,0,0,0,1.914-1.559l1.594-7.7a15.555,15.555,0,0,0,4.559-2.637l7.473,2.472a1.952,1.952,0,0,0,2.306-.878l1.867-3.232a1.956,1.956,0,0,0,.26-1v-3.059c0-.044-.023-.083-.025-.127a2,2,0,0,0-.1-.541,1.886,1.886,0,0,0-.071-.208,1.918,1.918,0,0,0-.454-.633l-5.652-5.036v-2.537Zm-14.8,6.915a6.829,6.829,0,0,1-.36.862,7.2,7.2,0,0,1-.352.649c-.1.156-.223.3-.335.443-.135.175-.271.352-.422.512-.125.133-.262.254-.4.375a6.185,6.185,0,0,1-.526.433c-.141.1-.287.2-.437.3a6.933,6.933,0,0,1-.637.345c-.148.071-.3.144-.449.206a6.631,6.631,0,0,1-.787.243c-.135.035-.266.081-.406.108a6.372,6.372,0,0,1-2.551,0c-.139-.027-.268-.073-.4-.106a6.68,6.68,0,0,1-.789-.246c-.154-.06-.3-.133-.449-.2-.218-.106-.433-.219-.639-.345-.15-.094-.3-.191-.435-.293-.183-.135-.358-.283-.526-.435-.135-.123-.271-.241-.4-.375-.152-.162-.287-.339-.424-.514-.112-.146-.235-.285-.335-.441a6.634,6.634,0,0,1-.35-.645,6.715,6.715,0,0,1-.364-.874c-.069-.2-.142-.406-.191-.618a6.765,6.765,0,0,1,13.16,0C206.064,178.722,205.989,178.928,205.921,179.134Z" transform="translate(116.33 91.632)" fill="#e43d91"/>
        <g id="Group_6726" data-name="Group 6726" transform="translate(294.023 238.512)">
          <path id="Path_18698" data-name="Path 18698" d="M215.064,174.255l5.652-5.036a1.95,1.95,0,0,0,.651-1.5v-3.059a1.949,1.949,0,0,0-.258-1l-1.865-3.232a1.953,1.953,0,0,0-2.306-.878l-7.473,2.472a15.509,15.509,0,0,0-4.559-2.637l-1.594-7.7a1.954,1.954,0,0,0-1.914-1.559h-3.731a1.957,1.957,0,0,0-1.914,1.559l-1.594,7.7a15.509,15.509,0,0,0-4.559,2.637l-7.473-2.472a1.952,1.952,0,0,0-2.306.878l-1.867,3.232a1.933,1.933,0,0,0-.258,1v3.059a1.954,1.954,0,0,0,.651,1.5L184,174.255v2.537l-5.652,5.036a1.947,1.947,0,0,0-.651,1.5v3.061a1.949,1.949,0,0,0,.258,1l1.867,3.232a1.952,1.952,0,0,0,2.306.878l7.473-2.472a15.509,15.509,0,0,0,4.559,2.637l1.594,7.7a1.954,1.954,0,0,0,1.914,1.559H201.4a1.957,1.957,0,0,0,1.914-1.559l1.594-7.7a15.508,15.508,0,0,0,4.559-2.637l7.473,2.472a1.952,1.952,0,0,0,2.306-.878l1.865-3.232a1.933,1.933,0,0,0,.258-1v-3.059a1.954,1.954,0,0,0-.651-1.5l-5.652-5.036v-2.539Zm-15.534,6.48a6.773,6.773,0,0,1-6.586-5.211,6.768,6.768,0,0,1,13.172,0A6.773,6.773,0,0,1,199.53,180.735Z" transform="translate(-177.688 -150.123)" fill="#d1d3d4"/>
          <g id="Group_6725" data-name="Group 6725" transform="translate(0)">
            <g id="Group_6722" data-name="Group 6722" transform="translate(16.321)">
              <path id="Path_18699" data-name="Path 18699" d="M196.577,160.089H185.536l1.742-8.407a1.954,1.954,0,0,1,1.914-1.559h3.731a1.957,1.957,0,0,1,1.914,1.559Z" transform="translate(-185.536 -150.124)" fill="#fff"/>
              <path id="Path_18700" data-name="Path 18700" d="M185.536,168.247h11.041l-1.742,8.407a1.954,1.954,0,0,1-1.914,1.559H189.19a1.957,1.957,0,0,1-1.914-1.559Z" transform="translate(-185.536 -130.535)" fill="#fff"/>
            </g>
            <g id="Group_6723" data-name="Group 6723" transform="translate(0.003 9.325)">
              <path id="Path_18701" data-name="Path 18701" d="M184.759,162.616l5.521,9.562-8.151,2.7a1.952,1.952,0,0,1-2.306-.878l-1.867-3.232a1.953,1.953,0,0,1,.393-2.437Z" transform="translate(-177.694 -145.946)" fill="#fff"/>
              <path id="Path_18702" data-name="Path 18702" d="M198.157,166.963l-5.521-9.562,8.151-2.7a1.952,1.952,0,0,1,2.306.878l1.865,3.232a1.952,1.952,0,0,1-.393,2.437Z" transform="translate(-161.543 -154.605)" fill="#fff"/>
            </g>
            <g id="Group_6724" data-name="Group 6724" transform="translate(0 9.325)">
              <path id="Path_18703" data-name="Path 18703" d="M192.636,172.178l5.521-9.562,6.411,5.712a1.958,1.958,0,0,1,.393,2.437L203.1,174a1.952,1.952,0,0,1-2.306.878Z" transform="translate(-161.54 -145.946)" fill="#fff"/>
              <path id="Path_18704" data-name="Path 18704" d="M190.279,157.4l-5.521,9.562-6.411-5.712a1.958,1.958,0,0,1-.393-2.437l1.867-3.232a1.952,1.952,0,0,1,2.306-.878Z" transform="translate(-177.693 -154.605)" fill="#fff"/>
            </g>
          </g>
          <path id="Path_18705" data-name="Path 18705" d="M196.258,154.115a15.534,15.534,0,1,0,15.534,15.534A15.533,15.533,0,0,0,196.258,154.115Zm0,22.307a6.773,6.773,0,1,1,6.773-6.773A6.773,6.773,0,0,1,196.258,176.422Z" transform="translate(-174.416 -145.81)" fill="#fff"/>
          <path id="Path_18706" data-name="Path 18706" d="M196.258,154.115a15.534,15.534,0,1,0,15.534,15.534A15.533,15.533,0,0,0,196.258,154.115Zm0,27.453a11.919,11.919,0,1,1,11.919-11.919A11.919,11.919,0,0,1,196.258,181.568Z" transform="translate(-174.416 -145.81)" fill="#e6e7e8"/>
        </g>
        <path id="Path_18707" data-name="Path 18707" d="M94.706,86.114H60.459A1.687,1.687,0,0,0,58.771,87.8v38.813a1.687,1.687,0,0,0,1.688,1.688H94.706a1.687,1.687,0,0,0,1.688-1.688V87.8A1.687,1.687,0,0,0,94.706,86.114Z" transform="translate(-12.214 19.199)" fill="#e43d91"/>
        <g id="Group_6727" data-name="Group 6727" transform="translate(46.557 99.068)">
          <path id="Path_18708" data-name="Path 18708" d="M94.706,124.336H60.459a1.687,1.687,0,0,1-1.688-1.688V85.692A1.687,1.687,0,0,1,60.459,84H94.706a1.687,1.687,0,0,1,1.688,1.688v36.957A1.687,1.687,0,0,1,94.706,124.336Z" transform="translate(-58.771 -82.15)" fill="#bcbec0"/>
          <path id="Path_18709" data-name="Path 18709" d="M94.706,123.445H60.459a1.687,1.687,0,0,1-1.688-1.688V84.8a1.687,1.687,0,0,1,1.688-1.688H94.706A1.687,1.687,0,0,1,96.394,84.8v36.957A1.687,1.687,0,0,1,94.706,123.445Z" transform="translate(-58.771 -83.113)" fill="#f7cb15"/>
          <path id="Path_18710" data-name="Path 18710" d="M69.54,94.466,58.775,110.276a1.853,1.853,0,0,0,1.848,1.775H84.58L72.607,94.466A1.855,1.855,0,0,0,69.54,94.466Z" transform="translate(-58.767 -71.719)" fill="#fff"/>
          <path id="Path_18711" data-name="Path 18711" d="M90.782,96.525l-4.769-7.006a1.855,1.855,0,0,0-3.067,0L63.963,117.4H88.928a1.855,1.855,0,0,0,1.856-1.856V96.525Z" transform="translate(-53.159 -77.066)" fill="#fff"/>
          <circle id="Ellipse_2265" data-name="Ellipse 2265" cx="4.755" cy="4.755" r="4.755" transform="translate(7.552 7.165)" fill="#fff"/>
        </g>
        <path id="Path_18712" data-name="Path 18712" d="M166.743,209.051a3.991,3.991,0,0,0,.795-.079,3.879,3.879,0,0,0,.741-.231,3.98,3.98,0,0,0,1.255-.845,3.933,3.933,0,0,0,1.155-2.79,3.777,3.777,0,0,0-.071-.691c-.015-.079-.031-.154-.05-.231-.015-.056-.021-.112-.037-.169,0,.008-.006.015-.008.023a3.935,3.935,0,0,0-3.781-2.878H148.279l2.2-7.09a6.676,6.676,0,0,0-3.758-8.116c-.208-.087-.422-.167-.641-.235a1.8,1.8,0,0,0-.325-.067h0a1.752,1.752,0,0,0-.837.114h0l0,0a1.753,1.753,0,0,0-1.04,1.109l-.606,1.952s-6.848,15.509-10.71,15.424v-.963a2.622,2.622,0,0,0-2.622-2.622H119.184a2.622,2.622,0,0,0-2.622,2.622v28.282a2.622,2.622,0,0,0,2.622,2.622h10.752a2.622,2.622,0,0,0,2.622-2.622v-.911h2.087a6.127,6.127,0,0,1,3.406,1.032,6.144,6.144,0,0,0,3.406,1.032h19.4a3.933,3.933,0,0,0,2.79-1.155,3.981,3.981,0,0,0,.845-1.255,3.828,3.828,0,0,0,.229-.741,3.994,3.994,0,0,0,.081-.795h0a3.777,3.777,0,0,0-.071-.691c-.015-.079-.031-.154-.05-.231-.015-.056-.021-.114-.037-.169,0,.008-.006.015-.008.023a3.935,3.935,0,0,0-3.781-2.878h1.958a3.946,3.946,0,0,0,3.945-3.945,3.777,3.777,0,0,0-.071-.691c-.015-.079-.031-.154-.05-.231-.015-.056-.021-.112-.037-.169,0,.008-.006.015-.008.023a3.935,3.935,0,0,0-3.781-2.878h1.96a3.906,3.906,0,0,0,3.877-4.636c-.015-.079-.031-.156-.05-.233-.015-.056-.021-.112-.035-.169,0,.008-.006.015-.008.023a3.935,3.935,0,0,0-3.781-2.878h1.966Z" transform="translate(50.253 126.781)" fill="#e43d91"/>
        <g id="Group_6728" data-name="Group 6728" transform="translate(166.817 306.129)">
          <path id="Path_18713" data-name="Path 18713" d="M135.553,184.152s-6.848,15.509-10.71,15.424,3.319,2.915,3.319,2.915l6.091-4,4.409-10.136Z" transform="translate(-108.847 -180.959)" fill="#fede3a"/>
          <path id="Path_18714" data-name="Path 18714" d="M131.29,190.077l-3.094,3.094H124.25v26.407h2.087a6.127,6.127,0,0,1,3.406,1.032h0a6.144,6.144,0,0,0,3.406,1.032H148.9V190.079H131.29Z" transform="translate(-108.254 -174.555)" fill="#fede3a"/>
          <path id="Path_18715" data-name="Path 18715" d="M129.744,204.237a6.144,6.144,0,0,0-3.406-1.032H124.25v2.181h2.087a6.127,6.127,0,0,1,3.406,1.032,6.144,6.144,0,0,0,3.406,1.032H148.9v-2.181H133.15A6.144,6.144,0,0,1,129.744,204.237Z" transform="translate(-108.254 -160.364)" fill="#f7cb15"/>
          <path id="Path_18716" data-name="Path 18716" d="M131.986,190.077a9.771,9.771,0,0,1-3.327,14.321,1.087,1.087,0,0,0,0,1.9,9.785,9.785,0,0,1,5.165,8.627,9.654,9.654,0,0,1-.129,1.582,4.475,4.475,0,0,0,4.459,5.132h6.59V190.077H131.986Z" transform="translate(-104.094 -174.555)" fill="#e7ad27"/>
          <path id="Path_18717" data-name="Path 18717" d="M139.249,191.048l-4.241,13.684-8.057-2.5,5.7-18.379a1.758,1.758,0,0,1,2.2-1.159h0A6.674,6.674,0,0,1,139.249,191.048Z" transform="translate(-105.334 -182.618)" fill="#fede3a"/>
          <path id="Path_18718" data-name="Path 18718" d="M147.008,201.76H136.951a3.946,3.946,0,0,1-3.945-3.945h0a3.946,3.946,0,0,1,3.945-3.945h10.057a3.946,3.946,0,0,1,3.945,3.945h0A3.946,3.946,0,0,1,147.008,201.76Z" transform="translate(-98.79 -170.456)" fill="#fede3a"/>
          <path id="Path_18719" data-name="Path 18719" d="M147.008,198.1H136.951a3.945,3.945,0,0,1-3.789-2.855,3.938,3.938,0,0,0,3.789,5.036h10.057a3.938,3.938,0,0,0,3.789-5.036A3.946,3.946,0,0,1,147.008,198.1Z" transform="translate(-98.79 -168.974)" fill="#f7cb15"/>
          <path id="Path_18720" data-name="Path 18720" d="M146.066,205.552H136.009a3.946,3.946,0,0,1-3.945-3.945h0a3.946,3.946,0,0,1,3.945-3.945h10.057a3.946,3.946,0,0,1,3.945,3.945h0A3.946,3.946,0,0,1,146.066,205.552Z" transform="translate(-99.808 -166.357)" fill="#fede3a"/>
          <path id="Path_18721" data-name="Path 18721" d="M146.066,201.887H136.009a3.946,3.946,0,0,1-3.789-2.855,3.938,3.938,0,0,0,3.789,5.036h10.057a3.938,3.938,0,0,0,3.789-5.036A3.945,3.945,0,0,1,146.066,201.887Z" transform="translate(-99.808 -164.875)" fill="#f7cb15"/>
          <path id="Path_18722" data-name="Path 18722" d="M145.124,209.344H135.067a3.946,3.946,0,0,1-3.945-3.945h0a3.946,3.946,0,0,1,3.945-3.945h10.057a3.946,3.946,0,0,1,3.945,3.945h0A3.946,3.946,0,0,1,145.124,209.344Z" transform="translate(-100.826 -162.258)" fill="#fede3a"/>
          <path id="Path_18723" data-name="Path 18723" d="M145.124,205.68H135.067a3.946,3.946,0,0,1-3.789-2.855,3.938,3.938,0,0,0,3.789,5.036h10.057a3.938,3.938,0,0,0,3.789-5.036A3.946,3.946,0,0,1,145.124,205.68Z" transform="translate(-100.826 -160.775)" fill="#f7cb15"/>
          <path id="Path_18724" data-name="Path 18724" d="M147.949,197.968H137.892a3.946,3.946,0,0,1-3.945-3.945h0a3.946,3.946,0,0,1,3.945-3.945h10.057a3.946,3.946,0,0,1,3.945,3.945h0A3.943,3.943,0,0,1,147.949,197.968Z" transform="translate(-97.772 -174.555)" fill="#fede3a"/>
          <path id="Path_18725" data-name="Path 18725" d="M147.949,194.3H137.892a3.945,3.945,0,0,1-3.789-2.855,3.938,3.938,0,0,0,3.789,5.036h10.057a3.938,3.938,0,0,0,3.789-5.036A3.942,3.942,0,0,1,147.949,194.3Z" transform="translate(-97.772 -173.073)" fill="#f7cb15"/>
          <path id="Path_18726" data-name="Path 18726" d="M129.937,223.365H119.185a2.622,2.622,0,0,1-2.622-2.622v-28.28a2.622,2.622,0,0,1,2.622-2.622h10.752a2.622,2.622,0,0,1,2.622,2.622v28.28A2.622,2.622,0,0,1,129.937,223.365Z" transform="translate(-116.563 -174.81)" fill="#fff"/>
          <path id="Path_18727" data-name="Path 18727" d="M129.937,204.793H119.185a2.622,2.622,0,0,1-2.622-2.622v5.246a2.622,2.622,0,0,0,2.622,2.622h10.752a2.622,2.622,0,0,0,2.622-2.622v-5.246A2.622,2.622,0,0,1,129.937,204.793Z" transform="translate(-116.563 -161.482)" fill="#d1d3d4"/>
          <path id="Path_18728" data-name="Path 18728" d="M135.758,191.041a6.674,6.674,0,0,0-4.4-8.351h0a1.8,1.8,0,0,0-.325-.067l-.837.114-.017.006c.169.027,1.746.429,2.793,5.714,1.107,5.589-1.459,16.264-1.459,16.264Z" transform="translate(-101.843 -182.611)" fill="#f7cb15"/>
        </g>
        <g id="Group_6729" data-name="Group 6729" transform="translate(46.312 246.817)">
          <path id="Path_18729" data-name="Path 18729" d="M93.269,171.472c.01,10.246-17.284,22.1-17.284,22.1s-17.317-11.824-17.326-22.07l0-4.8a9.081,9.081,0,0,1,17.3-3.887,9.082,9.082,0,0,1,17.309,3.856Z" transform="translate(-58.651 -150.372)" fill="#e43d91"/>
          <path id="Path_18730" data-name="Path 18730" d="M93.267,168.009c.01,10.246-17.284,22.1-17.284,22.1s-17.317-11.822-17.326-22.07l0-4.8a9.081,9.081,0,0,1,17.3-3.887,9.082,9.082,0,0,1,17.309,3.856Z" transform="translate(-58.653 -154.115)" fill="#d1d3d4"/>
          <path id="Path_18731" data-name="Path 18731" d="M67.742,154.13a9.079,9.079,0,0,1,8.211,5.221,9.082,9.082,0,0,1,17.309,3.856c.01,10.246-17.284,22.1-17.284,22.1s-17.317-11.824-17.326-22.07A9.1,9.1,0,0,1,67.742,154.13Z" transform="translate(-58.653 -154.115)" fill="#fff"/>
        </g>
      </g>
    </g>
  </g>
</svg>
