<svg id="Group_3167" data-name="Group 3167" xmlns="http://www.w3.org/2000/svg" width="64.228" height="64.228" viewBox="0 0 64.228 64.228">
  <g id="Group_3171" data-name="Group 3171" transform="translate(0)">
    <circle id="Oval" cx="32.114" cy="32.114" r="32.114" fill="#e8f1fa"/>
    <path id="Icon_awesome-code" data-name="Icon awesome-code" d="M13.284,23.048l-2.906-.8a.538.538,0,0,1-.391-.671L16.49.393A.578.578,0,0,1,17.2.023l2.906.8a.538.538,0,0,1,.391.671l-6.5,21.186a.576.576,0,0,1-.71.369Zm-5.43-5.056L9.926,15.9a.521.521,0,0,0-.038-.775L5.572,11.536,9.888,7.945a.517.517,0,0,0,.038-.775L7.854,5.079a.6.6,0,0,0-.81-.023L.18,11.139a.518.518,0,0,0,0,.789l6.864,6.087a.591.591,0,0,0,.81-.023Zm15.585.027L30.3,11.932a.518.518,0,0,0,0-.789L23.439,5.052a.6.6,0,0,0-.81.023L20.558,7.165a.521.521,0,0,0,.038.775l4.316,3.6L20.6,15.127a.517.517,0,0,0-.038.775l2.072,2.091A.6.6,0,0,0,23.439,18.02Z" transform="translate(16.719 20.234)" fill="#5355ee"/>
  </g>
</svg>
