<svg xmlns="http://www.w3.org/2000/svg" width="1920" height="2665" viewBox="0 0 1920 2665">
  <g id="Group_5126" data-name="Group 5126" transform="translate(0 -747)">
    <rect id="Rectangle_859" data-name="Rectangle 859" width="1920" height="2665" transform="translate(0 747)" fill="#430671"/>
    <g id="Group_5121" data-name="Group 5121" transform="translate(1985.852 792) rotate(90)">
      <path id="Path_12130" data-name="Path 12130" d="M3.583,1144.469c26.124,333.255,219.166,509.69,415.941,509.69,271.254,0,635.135-435.128,1103.9-439.889,302.1-3.068,437.1,154.281,606.468,153.175,173.481-1.133,274.813-215.546,274.813-470.461,0-364.237-177.266-640.113-409.151-632.751C1844,269.044,1699.067,418.017,1545.289,422.39c-232.2,6.6-478.533-435.5-823.11-422.091C407.256,12.552,37.43,383.731,2.395,971.431A1261.83,1261.83,0,0,0,3.583,1144.469Z" transform="translate(73.947 179.005)" fill="#082054"/>
      <g id="Group_3340" data-name="Group 3340" transform="translate(0 213.178)">
        <path id="Path_12131" data-name="Path 12131" d="M0,7.2l3.77.808a3.415,3.415,0,0,1,2.624,2.624L7.2,14.4l.808-3.77A3.415,3.415,0,0,1,10.634,8.01L14.4,7.2l-3.77-.808A3.415,3.415,0,0,1,8.01,3.77L7.2,0,6.394,3.77A3.415,3.415,0,0,1,3.77,6.394Z" transform="translate(1875.569 519.211)" fill="#ffb700"/>
        <path id="Path_12132" data-name="Path 12132" d="M0,4l2.1.449A1.9,1.9,0,0,1,3.556,5.913L4,8.009l.449-2.1A1.9,1.9,0,0,1,5.913,4.454L8.01,4l-2.1-.449A1.9,1.9,0,0,1,4.454,2.1L4,0,3.556,2.1A1.9,1.9,0,0,1,2.1,3.556Z" transform="translate(1528.131 760.908)" fill="#fff"/>
        <path id="Path_12133" data-name="Path 12133" d="M0,20.526l10.745,2.3a9.735,9.735,0,0,1,7.479,7.479l2.3,10.745,2.3-10.745a9.734,9.734,0,0,1,7.479-7.479l10.745-2.3-10.745-2.3a9.734,9.734,0,0,1-7.479-7.479L20.526,0l-2.3,10.745a9.735,9.735,0,0,1-7.479,7.479Z" transform="translate(2313.796 20.075)" fill="#0bf"/>
        <path id="Path_12134" data-name="Path 12134" d="M0,6.98l3.654.783A3.309,3.309,0,0,1,6.2,10.307L6.98,13.96l.783-3.654a3.31,3.31,0,0,1,2.543-2.543L13.96,6.98,10.307,6.2A3.311,3.311,0,0,1,7.763,3.654L6.98,0,6.2,3.654A3.309,3.309,0,0,1,3.654,6.2Z" transform="translate(1679.173 1131.278)" fill="#fff"/>
        <path id="Path_12135" data-name="Path 12135" d="M0,6.578l3.443.738a3.119,3.119,0,0,1,2.4,2.4l.738,3.443.738-3.443a3.12,3.12,0,0,1,2.4-2.4l3.443-.738L9.712,5.84a3.119,3.119,0,0,1-2.4-2.4L6.578,0,5.84,3.443a3.119,3.119,0,0,1-2.4,2.4Z" transform="translate(768.721 498.637)" fill="#fff"/>
        <path id="Path_12136" data-name="Path 12136" d="M0,17.214l9.011,1.931a8.164,8.164,0,0,1,6.272,6.272l1.93,9.011,1.931-9.011a8.164,8.164,0,0,1,6.272-6.272l9.011-1.931-9.011-1.931a8.163,8.163,0,0,1-6.272-6.272L17.214,0,15.283,9.011a8.162,8.162,0,0,1-6.272,6.272Z" transform="translate(586.937 26.662)" fill="#ffb700"/>
        <path id="Path_12137" data-name="Path 12137" d="M0,7.65l4,.858A3.627,3.627,0,0,1,6.792,11.3l.858,4,.858-4A3.628,3.628,0,0,1,11.3,8.508l4-.858-4-.858A3.628,3.628,0,0,1,8.508,4L7.65,0,6.792,4A3.627,3.627,0,0,1,4,6.792Z" transform="translate(1502.29 591.681)" fill="#fff"/>
        <path id="Path_12138" data-name="Path 12138" d="M0,18.075,9.462,20.1a8.573,8.573,0,0,1,6.586,6.586l2.027,9.462L20.1,26.688A8.572,8.572,0,0,1,26.689,20.1l9.462-2.027-9.462-2.028A8.572,8.572,0,0,1,20.1,9.462L18.076,0,16.048,9.462a8.571,8.571,0,0,1-6.585,6.586Z" transform="translate(1694.411 433.147)" fill="#ffb700"/>
        <path id="Path_12139" data-name="Path 12139" d="M0,27.817l14.561,3.12A13.192,13.192,0,0,1,24.7,41.072l3.12,14.562,3.12-14.562A13.193,13.193,0,0,1,41.072,30.937l14.561-3.12L41.072,24.7A13.192,13.192,0,0,1,30.936,14.561L27.817,0,24.7,14.561A13.192,13.192,0,0,1,14.561,24.7Z" transform="translate(636.608 1604.04)" fill="#0bf"/>
        <path id="Path_12140" data-name="Path 12140" d="M0,9.35,4.895,10.4A4.435,4.435,0,0,1,8.3,13.806L9.35,18.7,10.4,13.806A4.434,4.434,0,0,1,13.806,10.4L18.7,9.35,13.806,8.3A4.433,4.433,0,0,1,10.4,4.895L9.35,0,8.3,4.895A4.434,4.434,0,0,1,4.9,8.3Z" transform="translate(1541.863 68.049)" fill="#fff"/>
        <path id="Path_12141" data-name="Path 12141" d="M0,18.292l9.575,2.051a8.676,8.676,0,0,1,6.666,6.665l2.051,9.575,2.052-9.575a8.675,8.675,0,0,1,6.665-6.665l9.575-2.051L27.008,16.24a8.675,8.675,0,0,1-6.665-6.665L18.292,0,16.24,9.575A8.676,8.676,0,0,1,9.575,16.24Z" transform="translate(1696.589 1525.136)" fill="#fff"/>
        <path id="Path_12142" data-name="Path 12142" d="M0,9.35,4.895,10.4A4.436,4.436,0,0,1,8.3,13.806L9.35,18.7,10.4,13.806A4.434,4.434,0,0,1,13.806,10.4L18.7,9.35,13.806,8.3A4.434,4.434,0,0,1,10.4,4.895L9.35,0,8.3,4.895A4.435,4.435,0,0,1,4.895,8.3Z" transform="translate(1427.12 493.809)" fill="#fff"/>
        <path id="Path_12143" data-name="Path 12143" d="M0,8.036l4.207.9a3.812,3.812,0,0,1,2.928,2.928l.9,4.207.9-4.207a3.812,3.812,0,0,1,2.928-2.928l4.207-.9-4.207-.9A3.812,3.812,0,0,1,8.938,4.207L8.036,0l-.9,4.207A3.812,3.812,0,0,1,4.207,7.135Z" transform="translate(4.765 1428.526)" fill="#ffb700"/>
        <path id="Path_12144" data-name="Path 12144" d="M0,17.214l9.011,1.93a8.164,8.164,0,0,1,6.272,6.272l1.931,9.011,1.93-9.011a8.164,8.164,0,0,1,6.272-6.272l9.011-1.93-9.011-1.931a8.164,8.164,0,0,1-6.272-6.272L17.214,0,15.283,9.011a8.164,8.164,0,0,1-6.272,6.272Z" transform="translate(635.8 381.607)" fill="#fff"/>
        <path id="Path_12145" data-name="Path 12145" d="M0,24.212l12.675,2.715A11.484,11.484,0,0,1,21.5,35.75l2.716,12.675L26.928,35.75a11.483,11.483,0,0,1,8.822-8.822l12.674-2.715L35.75,21.5a11.483,11.483,0,0,1-8.822-8.822L24.213,0,21.5,12.675A11.483,11.483,0,0,1,12.675,21.5Z" transform="translate(121.313 942.206)" fill="#fff"/>
        <path id="Path_12146" data-name="Path 12146" d="M0,17.214l9.011,1.931a8.163,8.163,0,0,1,6.272,6.272l1.931,9.011,1.931-9.011a8.164,8.164,0,0,1,6.272-6.272l9.011-1.931-9.011-1.931a8.162,8.162,0,0,1-6.272-6.272L17.214,0,15.283,9.011a8.162,8.162,0,0,1-6.272,6.272Z" transform="translate(883.104 1562.126)" fill="#9bd900"/>
        <path id="Path_12147" data-name="Path 12147" d="M0,17.214l9.011,1.93a8.164,8.164,0,0,1,6.272,6.272l1.93,9.011,1.931-9.011a8.164,8.164,0,0,1,6.272-6.272l9.011-1.93-9.011-1.931a8.164,8.164,0,0,1-6.272-6.272L17.213,0l-1.93,9.011a8.164,8.164,0,0,1-6.272,6.272Z" transform="translate(1230.75 326.746)" fill="#fff"/>
        <path id="Path_12148" data-name="Path 12148" d="M0,17.214l9.011,1.93a8.164,8.164,0,0,1,6.272,6.272l1.931,9.011,1.931-9.011a8.164,8.164,0,0,1,6.272-6.272l9.011-1.93-9.011-1.931a8.163,8.163,0,0,1-6.272-6.272L17.214,0,15.283,9.011a8.164,8.164,0,0,1-6.272,6.272Z" transform="translate(2148.496 1225.853)" fill="#d10f0f"/>
        <path id="Path_12149" data-name="Path 12149" d="M0,5.2l2.722.583A2.466,2.466,0,0,1,4.617,7.677L5.2,10.4l.583-2.722A2.465,2.465,0,0,1,7.677,5.782L10.4,5.2,7.677,4.616A2.464,2.464,0,0,1,5.783,2.722L5.2,0,4.617,2.722A2.466,2.466,0,0,1,2.722,4.616Z" transform="translate(2286.615 881.633)" fill="#fff"/>
        <path id="Path_12150" data-name="Path 12150" d="M0,11.119l5.82,1.247a5.273,5.273,0,0,1,4.051,4.051l1.247,5.821,1.247-5.821a5.272,5.272,0,0,1,4.051-4.051l5.82-1.247-5.82-1.247A5.273,5.273,0,0,1,12.366,5.82L11.119,0,9.872,5.82A5.274,5.274,0,0,1,5.82,9.872Z" transform="translate(2551.85 1253.459)" fill="#fff"/>
        <path id="Path_12151" data-name="Path 12151" d="M0,9.7,5.079,10.79a4.6,4.6,0,0,1,3.535,3.535L9.7,19.4l1.088-5.079a4.6,4.6,0,0,1,3.535-3.535L19.4,9.7,14.326,8.614a4.6,4.6,0,0,1-3.535-3.535L9.7,0,8.614,5.079A4.6,4.6,0,0,1,5.079,8.614Z" transform="translate(644.737 1012.086)" fill="#fff"/>
        <path id="Path_12152" data-name="Path 12152" d="M0,9.7l5.079,1.088a4.6,4.6,0,0,1,3.535,3.535L9.7,19.4l1.088-5.079a4.6,4.6,0,0,1,3.535-3.535L19.4,9.7,14.326,8.614a4.6,4.6,0,0,1-3.535-3.535L9.7,0,8.615,5.079A4.6,4.6,0,0,1,5.079,8.614Z" transform="translate(1413.88 1622.154)" fill="#fff"/>
        <path id="Path_12153" data-name="Path 12153" d="M0,18.835l9.86,2.112a8.933,8.933,0,0,1,6.863,6.863l2.112,9.86,2.113-9.86a8.933,8.933,0,0,1,6.863-6.863l9.86-2.112-9.86-2.112A8.933,8.933,0,0,1,20.948,9.86L18.835,0,16.723,9.86A8.933,8.933,0,0,1,9.86,16.723Z" transform="translate(771.273)" fill="#fff"/>
        <path id="Path_12154" data-name="Path 12154" d="M0,5.2l2.722.583A2.466,2.466,0,0,1,4.616,7.677L5.2,10.4l.583-2.722A2.466,2.466,0,0,1,7.677,5.783L10.4,5.2,7.677,4.616A2.466,2.466,0,0,1,5.782,2.722L5.2,0,4.616,2.722A2.466,2.466,0,0,1,2.722,4.616Z" transform="translate(537.368 1267.397)" fill="#fff"/>
        <g id="Group_3337" data-name="Group 3337" transform="translate(2261.526 785.514)">
          <path id="Path_12155" data-name="Path 12155" d="M7.334,14.668a7.334,7.334,0,1,1,7.334-7.334A7.342,7.342,0,0,1,7.334,14.668Zm0-12.509a5.175,5.175,0,1,0,5.175,5.175A5.181,5.181,0,0,0,7.334,2.159Z" fill="#fff"/>
        </g>
        <g id="Group_3338" data-name="Group 3338" transform="translate(1121.802 560.083)">
          <path id="Path_12156" data-name="Path 12156" d="M7.334,14.668a7.334,7.334,0,1,1,7.334-7.334A7.342,7.342,0,0,1,7.334,14.668Zm0-12.509a5.175,5.175,0,1,0,5.175,5.175A5.181,5.181,0,0,0,7.334,2.159Z" fill="#fff"/>
        </g>
        <circle id="Ellipse_1757" data-name="Ellipse 1757" cx="6.255" cy="6.255" r="6.255" transform="matrix(0.383, -0.924, 0.924, 0.383, 1365.337, 599.492)" fill="#ffb700"/>
        <circle id="Ellipse_1758" data-name="Ellipse 1758" cx="7.548" cy="7.548" r="7.548" transform="translate(1854.188 414.232) rotate(-13.282)" fill="#fff"/>
        <circle id="Ellipse_1759" data-name="Ellipse 1759" cx="5.811" cy="5.811" r="5.811" transform="translate(0 622.349) rotate(-13.283)" fill="#fff"/>
        <g id="Group_3339" data-name="Group 3339" transform="translate(2003.467 37.441)">
          <path id="Path_12157" data-name="Path 12157" d="M5.143,10.285a5.142,5.142,0,1,1,5.143-5.142A5.148,5.148,0,0,1,5.143,10.285Zm0-8.126A2.984,2.984,0,1,0,8.126,5.142,2.987,2.987,0,0,0,5.143,2.159Z" fill="#fff"/>
        </g>
        <circle id="Ellipse_1760" data-name="Ellipse 1760" cx="4.548" cy="4.548" r="4.548" transform="matrix(0.973, -0.23, 0.23, 0.973, 957.306, 970.865)" fill="#fff"/>
      </g>
    </g>
  </g>
</svg>
