<svg xmlns="http://www.w3.org/2000/svg" width="415.386" height="692.723" viewBox="0 0 415.386 692.723">
  <g id="Group_1855" data-name="Group 1855" transform="translate(-1366.339 -368.051)">
    <path id="Path_9404" data-name="Path 9404" d="M1550.024,809.864l226.523,405.4-18.593,9.609L1522.283,818.828C1516.9,809.552,1544.862,800.627,1550.024,809.864Z" transform="translate(-58.178 -164.096)" fill="#ff576d"/>
    <path id="Path_9405" data-name="Path 9405" d="M1895.529,1094.858,1698.516,735.034l-28.468,8.139L1879.57,1108.6A89.042,89.042,0,0,1,1895.529,1094.858Z" transform="translate(-113.805 -137.514)" fill="#ff576d"/>
    <g id="Group_1854" data-name="Group 1854" transform="translate(1366.339 368.052)">
      <path id="Path_9406" data-name="Path 9406" d="M1577.685,627.9l-33.665,19.043-32.743,18.516L1401.9,472.061c-16.6-29.348-21.253-58.376-19.091-94.674l.062-1.088a8.322,8.322,0,0,1,3.2-5.745c3.077-2.516,7.145-3.181,9.806-1.788l1.129.589c.687.361,1.366.721,2.045,1.081,31.135,16.583,53.012,35.342,69.255,64.065Z" transform="translate(-1372.324 -368.052)" fill="#ff576d"/>
      <path id="Path_9407" data-name="Path 9407" d="M1587.716,629.325l-33.665,19.043L1436.835,451.052a205.917,205.917,0,0,1-27.753-79.186c31.135,16.583,53.012,35.342,69.255,64.065Z" transform="translate(-1382.355 -369.481)" fill="#ff7f40"/>
      <path id="Path_9408" data-name="Path 9408" d="M1668.422,644.563,1641.8,659.621,1541.941,483.06a127.37,127.37,0,0,1-16.129-52.941l-.042-.558a3.4,3.4,0,0,1,1.025-2.759,3.309,3.309,0,0,1,4.176-.282l.534.38a127.369,127.369,0,0,1,37.06,41.1Z" transform="translate(-1426.076 -389.732)" fill="#fff"/>
      <path id="Path_9409" data-name="Path 9409" d="M1687.717,688.429a27.66,27.66,0,0,1-6.724,7.142,28.717,28.717,0,0,1-21.477,5.127l32.4,57.293,26.624-15.058Z" transform="translate(-1476.197 -488.102)" fill="#aed0eb"/>
      <path id="Path_9410" data-name="Path 9410" d="M1509,734.726l-26.624,15.057-99.858-176.56a127.37,127.37,0,0,1-16.129-52.941l-.043-.558a3.4,3.4,0,0,1,1.025-2.759,3.307,3.307,0,0,1,4.176-.282l.534.38a127.368,127.368,0,0,1,37.06,41.1Z" transform="translate(-1366.339 -423.517)" fill="#fff"/>
      <path id="Path_9411" data-name="Path 9411" d="M1526.674,766.4a59.336,59.336,0,0,1-3.167,7.674c-3.881,7.85-8.2,16.046-16.238,20.146l27.919,49.364,26.624-15.057Z" transform="translate(-1419.147 -517.32)" fill="#aed0eb"/>
      <path id="Path_9412" data-name="Path 9412" d="M1514.537,542.094l84.975,150.246c-7.618,10.368-26.77,21.2-39.58,22.386l-84.975-150.247a144.69,144.69,0,0,1-18.749-71.017,4.694,4.694,0,0,1,7.133-4.033,144.8,144.8,0,0,1,51.2,52.665Z" transform="translate(-1400.015 -413.275)" fill="#fff"/>
      <path id="Path_9413" data-name="Path 9413" d="M1713.024,726.919a10.893,10.893,0,0,0-13.684-4.688l-10.1,4.224A68.423,68.423,0,0,1,1644,729.1l-5.677-1.627,29.432,52.04,53.462-30.236a3.879,3.879,0,0,0,1.467-5.286Z" transform="translate(-1468.255 -500.452)" fill="#d0e5f5"/>
      <path id="Path_9414" data-name="Path 9414" d="M1511.847,830.661a10.893,10.893,0,0,1,3.034-14.143l8.827-6.482a68.424,68.424,0,0,0,25.581-37.405l1.531-5.7,29.433,52.041L1526.79,849.2a3.878,3.878,0,0,1-5.286-1.467Z" transform="translate(-1420.333 -517.516)" fill="#d0e5f5"/>
      <path id="Path_9415" data-name="Path 9415" d="M1507.646,563.126c-6.964,2.134-9.84,3.76-15.257,8.628a3.222,3.222,0,0,1-4.954-.82l-.162-.286a3.224,3.224,0,0,1,.124-3.383c4.7-6.969,10.579-10.295,18.973-10.73a3.224,3.224,0,0,1,2.964,1.637l.162.286A3.223,3.223,0,0,1,1507.646,563.126Z" transform="translate(-1411.497 -438.677)" fill="#004791"/>
      <path id="Rectangle_357" data-name="Rectangle 357" d="M14.444,0h0A14.444,14.444,0,0,1,28.888,14.444V28.09a0,0,0,0,1,0,0H0a0,0,0,0,1,0,0V14.444A14.444,14.444,0,0,1,14.444,0Z" transform="translate(172.027 271.385) rotate(-29.491)" fill="#004791"/>
      <path id="Rectangle_358" data-name="Rectangle 358" d="M14.444,0h0A14.444,14.444,0,0,1,28.888,14.444V28.09a0,0,0,0,1,0,0H0a0,0,0,0,1,0,0V14.444A14.444,14.444,0,0,1,14.444,0Z" transform="translate(143.877 287.306) rotate(-29.491)" fill="#004791"/>
      <path id="Path_9416" data-name="Path 9416" d="M1652.32,829.693a3.771,3.771,0,0,1-5.139-1.426l-15.8-27.944a31.41,31.41,0,0,1-3.978-13.056l-.01-.138a.837.837,0,0,1,.252-.68.816.816,0,0,1,1.03-.07l.132.094a31.409,31.409,0,0,1,9.139,10.136l15.8,27.944A3.772,3.772,0,0,1,1652.32,829.693Z" transform="translate(-1464.157 -524.749)" fill="#aed0eb"/>
    </g>
  </g>
</svg>
