<svg xmlns="http://www.w3.org/2000/svg" xmlns:xlink="http://www.w3.org/1999/xlink" width="1920" height="2084.524" viewBox="0 0 1920 2084.524">
  <defs>
    <linearGradient id="linear-gradient" x1="0.5" y1="0.122" x2="0.5" y2="0.545" gradientUnits="objectBoundingBox">
      <stop offset="0" stop-color="#ffdd15"/>
      <stop offset="1" stop-color="#d19329"/>
    </linearGradient>
  </defs>
  <g id="Group_3183" data-name="Group 3183" transform="translate(-1407.062 -192.646)">
    <path id="Path_11909" data-name="Path 11909" d="M3285.857,1032a43.214,43.214,0,0,0-11.775-1.633c-17.017,0-31.884,9.9-39.954,24.641a15.468,15.468,0,0,0-2.586-.238,16.079,16.079,0,0,0-11.555,5,28.986,28.986,0,0,0-22.286-10.756c-15.118,0-27.588,12.08-29.664,27.778a54.682,54.682,0,0,0-31.657-10.166c-22.789,0-42.5,14.2-51.964,34.846a30.475,30.475,0,0,0-17.875-5.837c-14.3,0-26.408,10.045-30.649,23.947a44.74,44.74,0,0,0-22.03-5.816c-19.811,0-36.8,13.019-44.037,31.56a35.051,35.051,0,0,0-22.443-8.249c-15.93,0-29.468,10.9-34.662,26.148a37.418,37.418,0,0,0-25.617-1.082c-2.8-30.362-26.533-54.075-55.4-54.075-22.045,0-41.1,13.829-50.118,33.887a39.539,39.539,0,0,0-41.113,1.867c-7.551-17.735-24.142-30.056-43.409-30.056-21.412,0-39.531,15.207-45.594,36.156a29.268,29.268,0,0,0-47.556-1.249,48.119,48.119,0,0,0-31.169-11.6,47.324,47.324,0,0,0-7.936.674c0-.226.016-.447.016-.674,0-25.461-19.127-46.1-42.72-46.1-17.618,0-32.742,11.513-39.273,27.944a20.292,20.292,0,0,0-25.388-1.311c-4.56-12.839-16.059-21.97-29.56-21.97-15.085,0-27.685,11.39-30.876,26.63-4.861-28.014-27.629-49.22-55-49.22-27.9,0-51.018,22.026-55.265,50.843-8.156,2.961-14.277,10.684-15.51,20.122a26.839,26.839,0,0,0-17.773,1.925,35.153,35.153,0,0,0-23.2-8.858,35.842,35.842,0,0,0-28.205,14.14c-7.021-12.789-19.9-21.392-34.675-21.392-18.18,0-33.539,12.99-38.569,30.834a23.646,23.646,0,0,0-14.87,2.6c-1.469-22.729-18.973-40.687-40.408-40.687-21.089,0-38.408,17.378-40.356,39.589a27.009,27.009,0,0,0-9.556-1.774,27.994,27.994,0,0,0-21.147,9.906,36.166,36.166,0,0,0-24.693-9.906,35.721,35.721,0,0,0-20.5,6.533c-6.822-14.038-20.433-23.628-36.136-23.628a39.146,39.146,0,0,0-28.316,12.372,32.944,32.944,0,0,0-25.444-12.372c-14.093,0-26.183,9.233-31.373,22.4a24.726,24.726,0,0,0,.653-5.562c0-12.731-9.563-23.052-21.36-23.052s-21.36,10.321-21.36,23.052a24.926,24.926,0,0,0,.459,4.751,30.773,30.773,0,0,0-26.208-3.156c.14-1.565.217-3.15.217-4.754,0-27.007-20.289-48.9-45.314-48.9-23.193,0-42.3,18.808-44.982,43.062a24.944,24.944,0,0,0-3.178-2.913c-2.824-25.53-22.944-45.329-47.361-45.329a44.808,44.808,0,0,0-5.481.348c-.058-14.554-7.352-27.235-18.186-34.15-5.213-15.042-18.611-25.771-34.366-25.771-14.849,0-27.61,9.532-33.395,23.22a21.627,21.627,0,0,0-11.005-3.017c-.551,0-1.089.048-1.628.089-1.759-18.1-15.936-32.206-33.172-32.206-.376,0-.741.048-1.114.062-6.849-13.019-19.786-21.819-34.646-21.819-14.506,0-27.164,8.394-34.13,20.9a21.228,21.228,0,0,0-12.787-4.324c-.2,0-.4.027-.6.033v437.175h1920V964.4C3303.492,976.648,3286.966,1002.174,3285.857,1032Zm-1451.8,140.456h-.737a23.811,23.811,0,0,0,1.357-2.673C1834.442,1170.665,1834.239,1171.556,1834.06,1172.459Zm460.03,0h-.1l0,0c.034,0,.067,0,.1,0a21.56,21.56,0,0,0,4.765-.537c.14.182.29.356.432.537Zm95.211,0h-4.573a60.971,60.971,0,0,0,4.573-6.72Zm7.753-28.124c.248-1.469.457-2.953.6-4.457a36.749,36.749,0,0,0,1.565,4.457Z" transform="translate(0 813.737)" fill="url(#linear-gradient)"/>
    <g id="Group_3182" data-name="Group 3182" transform="translate(2179.493 726.867)">
      <path id="Path_11910" data-name="Path 11910" d="M2162.65,2059.609H1809.37L1970.989,584.455h85.264Z" transform="translate(-1809.37 -584.455)" fill="#ffc41e"/>
      <path id="Path_11911" data-name="Path 11911" d="M1929.938,770.424c8.5,0,28.591-83.262,28.591-185.969h-57.181C1901.348,687.161,1921.439,770.424,1929.938,770.424Z" transform="translate(-1724.708 -584.455)" fill="#ea8518"/>
      <path id="Path_11912" data-name="Path 11912" d="M1924.749,699.973c5.28,0,17.76-51.721,17.76-115.518h-35.52C1906.989,648.252,1919.469,699.973,1924.749,699.973Z" transform="translate(-1719.518 -584.455)" fill="#e86013"/>
    </g>
    <g id="Group_3349" data-name="Group 3349" transform="translate(2193.983 192.647)">
      <g id="Group_3181" data-name="Group 3181">
        <g id="Group_3180" data-name="Group 3180">
          <path id="Path_11895" data-name="Path 11895" d="M1941.9,506.788l-106.159,78.85v77.647s8.71-21.665,51.284-48.888c42.806-27.372,74.072-17.957,74.072-17.957Z" transform="translate(-1820.181 -156.515)" fill="#d33c0d"/>
          <rect id="Rectangle_511" data-name="Rectangle 511" width="97.239" height="15.892" transform="translate(142.13 517.915)" fill="#bf0000"/>
          <path id="Path_11896" data-name="Path 11896" d="M1957.79,506.788l106.159,78.85v77.647s-8.71-21.665-51.284-48.888c-42.806-27.372-74.074-17.957-74.074-17.957Z" transform="translate(-1697.828 -156.515)" fill="#c42f0c"/>
          <path id="Path_11897" data-name="Path 11897" d="M1985.34,527.252c-2.685,24.538-6.087,48.408-10.105,70.531-22.4-5.615-36.644-1.345-36.644-1.345l19.2-89.651Z" transform="translate(-1697.828 -156.515)" opacity="0.4" style="mix-blend-mode: overlay;isolation: isolate"/>
          <path id="Path_11898" data-name="Path 11898" d="M2005.04,519.037c13.35,0,24.172,51.683,24.172,133.967h-48.341C1980.871,570.72,1991.692,519.037,2005.04,519.037Z" transform="translate(-1647.529 -139.819)" fill="#ef7752"/>
          <path id="Path_11899" data-name="Path 11899" d="M2029.212,579.787h-48.341q0-3.559.029-7.038h48.284Q2029.21,576.234,2029.212,579.787Z" transform="translate(-1647.529 -66.603)" fill="#d14519"/>
          <rect id="Rectangle_512" data-name="Rectangle 512" width="42.887" height="3.355" transform="translate(378.956 516.54) rotate(-180)" fill="#bf0000"/>
          <path id="Path_11900" data-name="Path 11900" d="M1875.027,620.479c0,92.893,14.743,204.909,37.021,259.742a205.485,205.485,0,0,0,104.3,0c22.278-54.833,37.021-166.849,37.021-259.742,0-154.478-89.172-260.463-89.172-260.463S1875.027,466,1875.027,620.479Z" transform="translate(-1773.448 -356.58)" fill="#f7eeba"/>
          <path id="Path_11901" data-name="Path 11901" d="M1946.877,581.621a226.359,226.359,0,0,1-57.293-7.382c1.664,5.019,3.381,9.717,5.144,14.058a205.487,205.487,0,0,0,104.3,0c1.763-4.341,3.477-9.039,5.144-14.058A226.362,226.362,0,0,1,1946.877,581.621Z" transform="translate(-1756.129 -64.573)" fill="#f44945"/>
          <path id="Path_11902" data-name="Path 11902" d="M1871.644,527.252c2.687,24.538,6.087,48.408,10.105,70.531,22.4-5.615,36.644-1.345,36.644-1.345l-19.2-89.651Z" transform="translate(-1777.473 -156.515)" opacity="0.4" style="mix-blend-mode: overlay;isolation: isolate"/>
          <path id="Path_11903" data-name="Path 11903" d="M1948.335,358.562s-33.968,40.39-59.975,107.625h119.952C1982.305,398.952,1948.335,358.562,1948.335,358.562Z" transform="translate(-1757.586 -358.562)" fill="#f44945"/>
          <ellipse id="Ellipse_1752" data-name="Ellipse 1752" cx="48.62" cy="52.471" rx="48.62" ry="52.471" transform="translate(142.13 136.496)" fill="#a03030"/>
          <path id="Path_11904" data-name="Path 11904" d="M1889.807,601.727h144.047c5.488-28.6,9.843-60.731,12.79-93.484H1877.017C1879.964,541,1884.32,573.126,1889.807,601.727Z" transform="translate(-1771.081 -154.532)" fill="#ef7752"/>
          <ellipse id="Ellipse_1753" data-name="Ellipse 1753" cx="41.9" cy="45.219" rx="41.9" ry="45.219" transform="translate(148.85 143.748)" fill="#fff"/>
          <ellipse id="Ellipse_1754" data-name="Ellipse 1754" cx="39.923" cy="43.086" rx="39.923" ry="43.086" transform="translate(150.826 145.881)" fill="#5f9fb7"/>
          <path id="Path_15300" data-name="Path 15300" d="M7.13-.067c3.855-.147,6.889,2.126,6.776,5.077s-3.328,5.462-7.183,5.609S-.166,8.493-.053,5.542,3.275.08,7.13-.067Z" transform="translate(159.355 172.739) rotate(-44.315)" fill="#72aecc"/>
          <path id="Path_11905" data-name="Path 11905" d="M1852.809,519.037c-13.35,0-24.172,51.683-24.172,133.967h48.343C1876.98,570.72,1866.159,519.037,1852.809,519.037Z" transform="translate(-1828.637 -139.819)" fill="#ef7752"/>
          <ellipse id="Ellipse_1756" data-name="Ellipse 1756" cx="3.041" cy="3.282" rx="3.041" ry="3.282" transform="translate(173.105 158.679)" fill="#72aecc"/>
          <path id="Path_11906" data-name="Path 11906" d="M1828.637,579.787h48.343q0-3.559-.028-7.038h-48.286Q1828.639,576.234,1828.637,579.787Z" transform="translate(-1828.637 -66.603)" fill="#d14519"/>
          <rect id="Rectangle_513" data-name="Rectangle 513" width="42.887" height="3.355" transform="translate(2.729 513.185)" fill="#bf0000"/>
          <path id="Path_11907" data-name="Path 11907" d="M1839.676,519.037V653h24.171c0-82.283-10.821-133.967-24.171-133.967Z" transform="translate(-1815.504 -139.819)" opacity="0.2" style="mix-blend-mode: overlay;isolation: isolate"/>
          <path id="Path_11908" data-name="Path 11908" d="M1991.909,519.037V653h24.172c0-82.283-10.821-133.967-24.169-133.967Z" transform="translate(-1634.398 -139.819)" opacity="0.2" style="mix-blend-mode: overlay;isolation: isolate"/>
        </g>
      </g>
      <g id="Group_3350" data-name="Group 3350" transform="translate(4.066 515.732)">
        <path id="Path_12186" data-name="Path 12186" d="M1921.023,667.46c5.849,0,19.675-37.163,19.675-83.005h-39.35C1901.348,630.3,1915.174,667.46,1921.023,667.46Z" transform="translate(-1901.348 -584.455)" fill="#f39632"/>
        <path id="Path_12185" data-name="Path 12185" d="M1919.21,663.949c3.634,0,12.222-35.592,12.222-79.495h-24.443C1906.989,628.357,1915.577,663.949,1919.21,663.949Z" transform="translate(-1899.536 -584.455)" fill="#e86013"/>
      </g>
      <g id="Group_3351" data-name="Group 3351" transform="translate(338.066 515.732)">
        <path id="Path_12186-2" data-name="Path 12186" d="M1921.023,667.46c5.849,0,19.675-37.163,19.675-83.005h-39.35C1901.348,630.3,1915.174,667.46,1921.023,667.46Z" transform="translate(-1901.348 -584.455)" fill="#f39632"/>
        <path id="Path_12185-2" data-name="Path 12185" d="M1919.21,663.949c3.634,0,12.222-35.592,12.222-79.495h-24.443C1906.989,628.357,1915.577,663.949,1919.21,663.949Z" transform="translate(-1899.536 -584.455)" fill="#e86013"/>
      </g>
    </g>
    <path id="Path_11913" data-name="Path 11913" d="M3285.857,1072a43.224,43.224,0,0,0-11.775-1.633c-17.017,0-31.884,9.9-39.954,24.641a15.455,15.455,0,0,0-2.586-.238,16.079,16.079,0,0,0-11.555,5,28.985,28.985,0,0,0-22.286-10.756c-15.118,0-27.588,12.08-29.664,27.778a54.682,54.682,0,0,0-31.657-10.166c-22.789,0-42.5,14.2-51.964,34.846a30.475,30.475,0,0,0-17.875-5.837c-14.3,0-26.408,10.045-30.649,23.947a44.74,44.74,0,0,0-22.03-5.816c-19.811,0-36.8,13.019-44.037,31.56a35.052,35.052,0,0,0-22.443-8.249c-15.93,0-29.468,10.9-34.662,26.148a37.417,37.417,0,0,0-25.617-1.081c-2.8-30.362-26.533-54.075-55.4-54.075-22.045,0-41.1,13.829-50.118,33.887a39.54,39.54,0,0,0-41.113,1.867c-7.551-17.735-24.142-30.055-43.409-30.055-21.412,0-39.531,15.207-45.594,36.156a29.268,29.268,0,0,0-47.556-1.249,48.118,48.118,0,0,0-31.169-11.6,47.311,47.311,0,0,0-7.936.674c0-.226.016-.447.016-.674,0-25.461-19.127-46.1-42.72-46.1-17.618,0-32.742,11.513-39.273,27.944a20.292,20.292,0,0,0-25.388-1.311c-4.56-12.839-16.059-21.97-29.56-21.97-15.085,0-27.685,11.39-30.876,26.63-4.861-28.014-27.629-49.22-55-49.22-27.9,0-51.018,22.026-55.265,50.842-8.156,2.961-14.277,10.684-15.51,20.122a26.836,26.836,0,0,0-17.773,1.925,35.153,35.153,0,0,0-23.2-8.858,35.841,35.841,0,0,0-28.205,14.14c-7.021-12.789-19.9-21.392-34.675-21.392-18.18,0-33.539,12.99-38.569,30.835a23.646,23.646,0,0,0-14.87,2.6c-1.469-22.729-18.973-40.687-40.408-40.687-21.089,0-38.408,17.378-40.356,39.589a27.009,27.009,0,0,0-9.556-1.774,27.994,27.994,0,0,0-21.147,9.906,36.165,36.165,0,0,0-24.693-9.906,35.72,35.72,0,0,0-20.5,6.533c-6.822-14.038-20.433-23.628-36.136-23.628a39.146,39.146,0,0,0-28.316,12.372,32.946,32.946,0,0,0-25.444-12.372c-14.093,0-26.183,9.233-31.373,22.4a24.726,24.726,0,0,0,.653-5.562c0-12.731-9.563-23.052-21.36-23.052s-21.36,10.321-21.36,23.052a24.926,24.926,0,0,0,.459,4.751,30.774,30.774,0,0,0-26.208-3.156c.14-1.564.217-3.15.217-4.754,0-27.007-20.289-48.9-45.314-48.9-23.193,0-42.3,18.808-44.982,43.062a24.935,24.935,0,0,0-3.178-2.913c-2.824-25.53-22.944-45.329-47.361-45.329a44.808,44.808,0,0,0-5.481.348c-.058-14.554-7.352-27.235-18.186-34.15-5.213-15.041-18.611-25.77-34.366-25.77-14.849,0-27.61,9.531-33.395,23.22a21.623,21.623,0,0,0-11.005-3.017c-.551,0-1.089.047-1.628.089-1.759-18.1-15.936-32.206-33.172-32.206-.376,0-.741.047-1.114.062-6.849-13.019-19.786-21.819-34.646-21.819-14.506,0-27.164,8.394-34.13,20.9a21.227,21.227,0,0,0-12.787-4.324c-.2,0-.4.027-.6.033v354.292h1920V1004.4C3303.492,1016.648,3286.966,1042.174,3285.857,1072Zm-1451.8,140.456h-.737a23.813,23.813,0,0,0,1.357-2.673C1834.442,1210.665,1834.239,1211.556,1834.06,1212.459Z" transform="translate(0 856.619)" fill="#ffc41e"/>
  </g>
</svg>
