<svg xmlns="http://www.w3.org/2000/svg" width="1398.672" height="565.092" viewBox="0 0 1398.672 565.092">
  <g id="Group_3560" data-name="Group 3560" transform="translate(-263.604 -2974.868)">
    <g id="Group_3336" data-name="Group 3336" transform="translate(362.432 3180.713)">
      <g id="Group_3175" data-name="Group 3175" transform="translate(0 0)">
        <g id="Group_3174" data-name="Group 3174">
          <path id="Path_11864" data-name="Path 11864" d="M5223.391,4081.7q-193.553,47.9-387.119,95.8c-17.777,4.4-35.566,8.737-53.344,13.141a8.621,8.621,0,0,0-1.941,1.032h-3.4c4.1-14.394,10.292-27.947,15.5-41.894,8.421-22.543,17.023-45.013,25.547-67.512,3.075-2.753,6.822-1.868,10.317-1.868,76.453-.053,152.923.816,229.362-.339,51.72-.781,103.422-.408,155.13-.817C5216.848,4079.215,5220.733,4078.055,5223.391,4081.7Z" transform="translate(-4082.316 -3832.422)" fill="#dfb808"/>
          <path id="Path_11866" data-name="Path 11866" d="M5724.08,4195.607c-14.522-.059-29.05-.151-43.58-.162-32.839-.025-65.681-.218-98.517.033-85.671.655-171.346.092-257.014.309-1.883,0-3.766.112-5.648.174l-70.283,0q-152.214,0-304.436.007-147.1.027-294.217.2c-5.84.009-7.051-1-7.037-4.626q.284-82.1.009-164.2c-.009-3.388,1.354-4.244,6.551-4.128q82.374,1.811,164.754,3.355,50.387,1,100.772,2.015,96.511,2.042,193.015,4.131c31.329.652,62.664,1.095,93.987,1.726,42.831.859,85.651,1.836,128.475,2.708q79.271,1.611,158.532,3.132,54.062,1.077,108.116,2.2,53.5,1.092,106.993,2.2c6.033.129,12.061.45,18.1.456,3.131,0,3.736.85,3.712,2.636q-.469,38.388-.8,76.776c-.117,11.945-.266,23.887-.358,35.829-.091,10.727-.1,21.452-.223,32.179C5724.967,4193.573,5725.767,4194.763,5724.08,4195.607Z" transform="translate(-4585.288 -3946.55)" fill="#fcd009"/>
          <path id="Path_12127" data-name="Path 12127" d="M6039.074,4300.455c-18.755-.094-37.517-.242-56.282-.261-42.41-.041-84.825-.35-127.231.053-110.642,1.054-221.288.148-331.924.5-2.431.006-4.863.181-7.294.28q-45.386,0-90.768,0-196.579,0-393.167.011-189.979.043-379.971.324c-7.542.014-9.106-1.608-9.088-7.44q.367-132.028.011-264.06c-.011-5.448,1.749-6.826,8.46-6.639q106.384,2.913,212.774,5.4,65.073,1.615,130.144,3.24,124.641,3.283,249.271,6.644c40.459,1.048,80.928,1.76,121.381,2.775,55.315,1.382,110.616,2.954,165.92,4.356q102.376,2.591,204.738,5.036,69.818,1.733,139.628,3.531,69.089,1.756,138.178,3.536c7.791.208,15.577.724,23.371.733,4.043,0,4.826,1.367,4.794,4.239q-.606,61.735-1.039,123.469c-.151,19.209-.343,38.415-.462,57.618-.118,17.251-.967,33.479-1.125,50.729C6039.383,4296.163,6039.074,4300.455,6039.074,4300.455Z" transform="translate(-4742.177 -4229.053)" fill="#fcd009"/>
          <path id="Path_12128" data-name="Path 12128" d="M0,44Z" transform="translate(58.568 63.287)" fill="#dfb808"/>
          <path id="Path_12129" data-name="Path 12129" d="M1139,114.036l157.958-36.854L-93.289,77.047Z" transform="translate(0 -5.79)" fill="#dfb808"/>
        </g>
      </g>
    </g>
  </g>
</svg>
