<svg id="Group_3170" data-name="Group 3170" xmlns="http://www.w3.org/2000/svg" width="64.228" height="64.228" viewBox="0 0 64.228 64.228">
  <circle id="Oval" cx="32.114" cy="32.114" r="32.114" fill="#e8f1fa"/>
  <path id="Icon_material-tag-faces" data-name="Icon material-tag-faces" d="M22.687,3A19.707,19.707,0,1,0,42.414,22.707,19.7,19.7,0,0,0,22.687,3Zm.02,35.472A15.765,15.765,0,1,1,38.472,22.707,15.761,15.761,0,0,1,22.707,38.472Zm6.9-17.736a2.956,2.956,0,1,0-2.956-2.956A2.952,2.952,0,0,0,29.6,20.736Zm-13.795,0a2.956,2.956,0,1,0-2.956-2.956A2.952,2.952,0,0,0,15.809,20.736Zm6.9,12.809a10.831,10.831,0,0,0,10.07-6.9H12.637A10.831,10.831,0,0,0,22.707,33.545Z" transform="translate(9.407 9.407)" fill="#5355ee"/>
</svg>
