<svg xmlns="http://www.w3.org/2000/svg" width="979.258" height="191.802" viewBox="0 0 979.258 191.802">
  <g id="Group_3178" data-name="Group 3178" transform="translate(-4631.802 -4016.078)">
    <path id="Path_11881" data-name="Path 11881" d="M5535.647,4170.448c-11.993-.05-23.987-.128-35.982-.138-27.114-.021-54.23-.186-81.339.028-70.735.56-141.472.078-212.2.264-1.554,0-3.109.1-4.663.149l-58.029,0q-125.673,0-251.353.006-121.456.023-242.918.172c-4.822.008-5.822-.854-5.811-3.951q.234-70.118.007-140.237c-.007-2.894,1.119-3.625,5.409-3.526q68.012,1.548,136.027,2.866,41.6.857,83.2,1.721,79.685,1.743,159.362,3.528c25.865.557,51.737.936,77.6,1.474,35.364.733,70.718,1.568,106.075,2.313q65.447,1.375,130.889,2.675,44.639.92,89.266,1.875,44.169.932,88.336,1.878c4.984.109,9.958.384,14.942.389,2.584,0,3.085.727,3.065,2.251q-.387,32.788-.664,65.573c-.1,10.2-.219,20.4-.3,30.6-.074,9.162-.084,18.322-.185,27.483C5536.377,4168.712,5537.037,4169.729,5535.647,4170.448Z" transform="translate(33.549 11.494)" fill="#f50825"/>
    <path id="Path_11882" data-name="Path 11882" d="M4969.383,4026.042q52.3,1.219,104.593,2.422c24.6.543,49.2.979,73.8,1.475q14.482.29,28.953.635c1.434.034,3.66-.331,3.484,1.238-.142,1.262-2.062,1.259-3.693,1.223q-24.289-.521-48.577-1.014-37.6-.814-75.194-1.661-52.776-1.16-105.554-2.312-49.517-1.058-99.028-2.068-42.734-.91-85.464-1.875c-1.636-.037-4,.276-3.873-1.4.134-1.757,2.627-1.094,4.1-1.062q72.4,1.528,144.8,3.137,30.823.669,61.649,1.313Z" transform="translate(369.032 8.737)" fill="#fcd009"/>
    <path id="Path_11883" data-name="Path 11883" d="M4960.487,4085.414c-34.426,0-68.109.026-101.788-.007q-64.091-.06-128.177-.207c-3.581,0-7.163-.133-10.743-.211-1.159-.026-2.21-.151-2.105-1.193.082-.811.942-1.02,1.906-1.069,1.086-.057,2.183-.036,3.274-.033q118.589.157,237.188.321" transform="translate(249.454 107.356)" fill="#fcd009"/>
    <path id="Path_11884" data-name="Path 11884" d="M4930.625,4022.015q36.64.882,73.281,1.763,33.835.812,67.679,1.608c.621.017,1.245.05,1.867.058,1.308.019,2.753.142,2.576,1.238-.143.925-1.425,1.212-2.83,1.181-5.6-.131-11.213-.2-16.812-.337q-46.909-1.129-93.815-2.285-57.409-1.427-114.81-2.892c-19.444-.483-38.9-.909-58.345-1.387-1.55-.037-4.035.463-3.867-1.3.156-1.669,2.553-1.115,4.129-1.076q47.606,1.151,95.209,2.34,22.868.557,45.738,1.05Z" transform="translate(446.649 3.855)" fill="#fcd009"/>
    <path id="Path_11885" data-name="Path 11885" d="M4695.244,4126.33c-16.834,0-33.671-.081-50.506.06-4.011.031-4.984-.9-4.972-3.408.12-20.812.067-41.625.07-62.436a9,9,0,0,1,.1-1.87c.175-.812.872-1.3,2.221-1.241,1.3.058,1.38.7,1.419,1.327.045.729.019,1.458.019,2.186,0,19.98.067,39.96-.079,59.94-.015,2.6.844,3.233,4.949,3.081,9.947-.365,19.94-.2,29.917-.248q34.14-.16,68.28-.316c1.246,0,2.494.006,3.738.053,1.041.039,1.733.357,1.757,1.146.019.814-.672,1.065-1.745,1.1-1.868.061-3.731.2-5.6.206q-24.784.023-49.569.009Z" transform="translate(23.137 66.647)" fill="#fcd009"/>
    <path id="Path_11886" data-name="Path 11886" d="M4967.2,4091.448c-3.667,9.25-7.466,18.478-10.911,27.765-.993,2.667-2.515,3.633-6.908,3.572-32.81-.454-65.624-.687-98.435-.992-.778-.007-1.562-.112-2.332-.081-1.465.063-3.261.081-3.284-1.1-.032-1.371,2.015-1.371,3.537-1.363,6.687.034,13.373.118,20.059.188,26.274.277,52.552.521,78.827.884,3.373.047,4.763-.591,5.657-2.845,7.285-18.4,14.8-36.768,22.249-55.146.247-.6.473-1.207.747-1.8a1.98,1.98,0,0,1,2.475-.925c.894.22,1.4.789,1.122,1.51-.161.4-.3.81-.458,1.212q-5.791,14.628-11.593,29.256Z" transform="translate(620.347 69.993)" fill="#fcd009"/>
    <path id="Path_11887" data-name="Path 11887" d="M4790.933,4087.092h79.976c.622,0,1.247-.01,1.87,0,1.395.037,3.148-.046,3.04,1.285-.1,1.223-1.755,1.236-3.2,1.23q-12.388-.051-24.778-.1c-1.4-.007-2.8-.1-4.2-.1q-66.646-.168-133.294-.327c-.935,0-1.87.006-2.8-.008-1.025-.013-1.852-.229-1.893-1.031-.044-.726.521-1.212,1.584-1.29,1.235-.089,2.488-.078,3.729-.081q39.987,0,79.972,0Z" transform="translate(214.529 113.782)" fill="#fcd009"/>
    <path id="Path_11888" data-name="Path 11888" d="M4758.66,4016.079c5.955.034,10.632,3.182,10.582,7.122-.046,3.9-4.854,7.117-10.693,7.151-6.022.036-10.99-3.355-10.806-7.378C4747.925,4018.983,4752.583,4016.042,4758.66,4016.079Z" transform="translate(336.818 -0.001)" fill="#fcd009"/>
    <path id="Path_11889" data-name="Path 11889" d="M4689.359,4090.554c.566-1.694-1.616-4.445,1.032-5.561,3.023-1.271,5.74,1.241,8.462,2.205,11.3,4,9.377,3.862.113,7.5-1.331.522-2.687,1.021-4.024,1.536-4.906,1.891-5.56,1.624-5.583-2.282C4689.356,4092.918,4689.359,4091.881,4689.359,4090.554Z" transform="translate(166.309 110.506)" fill="#fcd009"/>
    <path id="Path_11890" data-name="Path 11890" d="M4638.632,4038.359c-3.917-.07-6.958-2.237-6.825-4.86.131-2.591,3.507-4.648,7.368-4.494,3.644.144,6.733,2.309,6.71,4.7C4645.86,4036.241,4642.443,4038.43,4638.632,4038.359Z" transform="translate(0 20.82)" fill="#fcd009"/>
    <path id="Path_11891" data-name="Path 11891" d="M4653.113,4016.958c39.6.808,78.385,1.575,117.164,2.393q42.042.882,84.083,1.856,58.633,1.271,117.259,2.511c9.5.2,19,.392,28.5.637,1.577.042,4.14-.3,4.115,1.188-.023,1.543-2.472,1.533-4.408,1.492q-42.035-.933-84.075-1.85-58.633-1.266-117.263-2.516-42.048-.908-84.092-1.854-29.893-.65-59.8-1.262a3.43,3.43,0,0,1-.924-.034c-1.59-.572-4.944.527-4.747-1.51C4649.121,4016.042,4652.241,4017.269,4653.113,4016.958Z" transform="translate(49.731 1.262)" fill="#fcd009"/>
    <path id="Path_11892" data-name="Path 11892" d="M4762.691,4021.784c-.1,2.53-3.544,4.7-7.307,4.6-3.708-.094-6.886-2.471-6.67-4.987s3.253-4.42,7.017-4.394C4759.625,4017.028,4762.8,4019.2,4762.691,4021.784Z" transform="translate(339.627 1.488)" fill="#fcd009"/>
    <path id="Path_11893" data-name="Path 11893" d="M4880.629,4051.134c2.313-.87,4.173-1.575,6.044-2.272.375-.139.782-.243,1.489-.46v5.645A29.535,29.535,0,0,1,4880.629,4051.134Z" transform="translate(722.898 52.099)" fill="#fcd009"/>
    <path id="Path_11894" data-name="Path 11894" d="M4697.914,4088.854l-7.733,3v-5.939Z" transform="translate(169.602 112.564)" fill="#fcd009"/>
  </g>
</svg>
