<svg xmlns="http://www.w3.org/2000/svg" width="126.731" height="126.212" viewBox="0 0 126.731 126.212">
  <g id="Group_3335" data-name="Group 3335" transform="translate(-27.162 24.841) rotate(-22)">
    <g id="Group_676" data-name="Group 676" transform="translate(0 0)">
      <g id="Group_671" data-name="Group 671" transform="matrix(0.966, 0.259, -0.259, 0.966, 29.295, 0)">
        <path id="Path_1625" data-name="Path 1625" d="M0,81.744a6.4,6.4,0,0,0,6.169,6.619H18.136v24.826L47.453,88.363h60.141a6.411,6.411,0,0,0,6.19-6.619V6.619A6.413,6.413,0,0,0,107.595,0H6.169A6.4,6.4,0,0,0,0,6.619Z" transform="translate(0 0)" fill="#ff3d0d"/>
        <path id="Path_1626" data-name="Path 1626" d="M33.2,19.162,16.6,28.748,0,38.329V0L16.6,9.581Z" transform="translate(44.926 24.67)" fill="#fff"/>
      </g>
    </g>
  </g>
</svg>
