<svg xmlns="http://www.w3.org/2000/svg" width="158.052" height="384.091" viewBox="0 0 158.052 384.091">
  <g id="Group_3504" data-name="Group 3504" transform="translate(-2700.518 -370.046)">
    <g id="Group_3502" data-name="Group 3502" transform="translate(2700.518 370.046)">
      <path id="Path_12429" data-name="Path 12429" d="M2922.924,674.547a10.943,10.943,0,0,0-10.943-10.943h-97.65a10.943,10.943,0,0,0-10.945,10.943v93.874a10.943,10.943,0,0,0,10.945,10.945h97.65a10.943,10.943,0,0,0,10.943-10.945Z" transform="translate(-2784.394 -609.406)" fill="#ffb700"/>
      <g id="Group_3468" data-name="Group 3468" transform="translate(0 0)">
        <g id="Group_3467" data-name="Group 3467">
          <g id="Group_3466" data-name="Group 3466">
            <path id="Path_12430" data-name="Path 12430" d="M3365.955,919.74c3.083-12.879,5.829-26.073,19.057-25.6a39.593,39.593,0,0,1,4.345,6.763c8.423,16.579,7.935,35.638,7.935,35.638s0,.319-.011.909c-.078-.053-.158-.107-.24-.157l-31.086,8.354V919.74Z" transform="translate(-3243.097 -797.371)" fill="#afcded"/>
            <path id="Path_12431" data-name="Path 12431" d="M3390.969,1405.109c8.088,2.868,15.88,1.522,20.807-.007a7.53,7.53,0,0,0,1.584-.7l1.409-.018s3.567,5.268,3.159,13.833c-.177,3.713-.169,17.073-4.243,23.06s-9.09,12.948-15.423,13.15-7.291-5.934-1.149-10.428,6.419-23.14,6.419-23.14-1,14.432-4.581,18.5-7.981.113-7.981.113Z" transform="translate(-3263.492 -1213.414)" fill="#afcded"/>
            <path id="Path_12432" data-name="Path 12432" d="M3173.126,1911.979v35.236h-43.663v-35.22h43.3C3172.882,1911.995,3173.006,1911.99,3173.126,1911.979Z" transform="translate(-3050.268 -1627.295)" fill="#fff"/>
            <path id="Path_12433" data-name="Path 12433" d="M3365.818,1417.441v28.5l-.031-28.5Z" transform="translate(-3242.959 -1224.062)" fill="#fff"/>
            <path id="Path_12434" data-name="Path 12434" d="M3173.1,1417.441l.031,28.495s-8.449,10.687-24.84,17.506a50.145,50.145,0,0,1-18.824,3.558v-38.151C3150.849,1429.1,3172.183,1425.564,3173.1,1417.441Z" transform="translate(-3050.268 -1224.063)" fill="#fff"/>
            <path id="Path_12435" data-name="Path 12435" d="M2915.4,1845.949h-43.3c-.122,0-.246,0-.366-.016a4.98,4.98,0,0,1-4.616-4.967v-5.006a4.979,4.979,0,0,1,4.616-4.967c.12-.011.244-.016.366-.016h86.751c.122,0,.246,0,.366.016a4.984,4.984,0,0,1,4.618,4.967v5.006a4.984,4.984,0,0,1-4.618,4.967c-.12.011-.244.016-.366.016h-43.3v35.22h-.157Z" transform="translate(-2836.357 -1561.249)" fill="#fff"/>
            <path id="Path_12436" data-name="Path 12436" d="M3170.227,2160.629c-3,.129-7.085-4.042-17.577-3.6-9.838.417-10.545,3.582-14.51,3.749-6.1.26-8.145-3.116-8.677-4.31V2102.84h43.663v36.949a9.8,9.8,0,0,0,1.36,4.984c1.335,2.271,3.361,5.712,4.667,7.928a9.1,9.1,0,0,1,.681,1.431l-.191.069S3178.427,2160.283,3170.227,2160.629Z" transform="translate(-3050.268 -1782.918)" fill="#afcded"/>
            <path id="Path_12437" data-name="Path 12437" d="M3129.463,1640.32a38.554,38.554,0,0,0,21.752-2.391c14.409-5.82,21.912-13.719,21.912-13.719V1662.4c-.12-.011-.244-.016-.366-.016h-43.3Z" transform="translate(-3050.268 -1392.655)" fill="#fff"/>
            <path id="Path_12438" data-name="Path 12438" d="M2880.393,2157.033c9.838.417,10.546,3.582,14.509,3.749,6.1.26,8.146-3.116,8.678-4.31V2102.84h.158v53.632c.532,1.194,2.58,4.57,8.677,4.31,3.964-.166,4.672-3.331,14.51-3.749,10.492-.446,14.58,3.724,17.577,3.6,8.2-.346,9.416-6.428,9.416-6.428l.191-.069c.1.266.188.537.264.812a9.2,9.2,0,0,1,.322,2.413,9.652,9.652,0,0,1-9.649,9.651H2913.4a9.824,9.824,0,0,0-19.491,0h-31.638a9.653,9.653,0,0,1-9.649-9.651,9.211,9.211,0,0,1,.322-2.413c.076-.275.162-.546.264-.812l.188.069s1.218,6.083,9.417,6.428C2865.816,2160.757,2869.9,2156.587,2880.393,2157.033Z" transform="translate(-2824.543 -1782.918)" fill="#fff"/>
            <path id="Path_12439" data-name="Path 12439" d="M2906.167,2156.062v.41c-.533,1.194-2.58,4.57-8.678,4.31-3.964-.166-4.671-3.331-14.509-3.749-10.492-.446-14.578,3.724-17.577,3.6-8.2-.346-9.417-6.428-9.417-6.428l-.188-.069a9.138,9.138,0,0,1,.681-1.431c1.307-2.216,3.33-5.656,4.667-7.928a9.8,9.8,0,0,0,1.358-4.984V2102.84h43.663v53.221Z" transform="translate(-2827.129 -1782.918)" fill="#afcded"/>
            <path id="Path_12440" data-name="Path 12440" d="M2914.029,1637.928a38.555,38.555,0,0,0,21.752,2.391v22.064h-43.3c-.122,0-.246,0-.366.016v-38.191S2899.622,1632.108,2914.029,1637.928Z" transform="translate(-2856.743 -1392.655)" fill="#fff"/>
            <path id="Path_12441" data-name="Path 12441" d="M2935.781,1469.282a50.138,50.138,0,0,1-18.822-3.558c-16.39-6.819-24.842-17.506-24.842-17.506V1420.24c.978,3.328,6.535,5.954,14.416,7.795a143.309,143.309,0,0,0,29.247,3.094v38.153Z" transform="translate(-2856.743 -1226.344)" fill="#fff"/>
            <path id="Path_12442" data-name="Path 12442" d="M2892.484,1911.995h43.3v35.22h-43.663v-35.236C2892.238,1911.99,2892.362,1911.995,2892.484,1911.995Z" transform="translate(-2856.743 -1627.295)" fill="#fff"/>
            <path id="Path_12443" data-name="Path 12443" d="M2735.713,1167.233v10.35a28.746,28.746,0,0,1-4.619,2.114c-8.087,2.868-15.877,1.522-20.806-.007a7.524,7.524,0,0,1-1.584-.7,7.614,7.614,0,0,1-3.756-6.468c-.095-7.6-.281-22.173-.415-32.754l-.355-.024c-4.736-4.239-5.1-8.154.206-11.655.078-.053.158-.107.24-.157l31.088,8.354v30.951Z" transform="translate(-2700.517 -988.002)" fill="#fff"/>
            <path id="Path_12444" data-name="Path 12444" d="M2721.416,902.122c-.007-.59-.011-.909-.011-.909s3.325-29.62,11.747-46.2c2.138-4.21,4.479-1.514,7.214-4.215,10.079,1.932,9.074,18.243,11.845,29.816,0,0,.2-.2.532-.606v30.31l-31.088-8.354C2721.574,902.016,2721.494,902.069,2721.416,902.122Z" transform="translate(-2717.549 -762.039)" fill="#afcded"/>
            <path id="Path_12445" data-name="Path 12445" d="M2829.418,439.056a53.554,53.554,0,0,0,38.029,0c11.377-4.51,19.032-12.948,19.032-22.61,0-14.414-17.033-26.1-38.047-26.1s-38.047,11.683-38.047,26.1C2810.386,426.109,2818.042,434.547,2829.418,439.056Zm19.015,135.774a143.314,143.314,0,0,1-29.247-3.094c-7.881-1.841-13.438-4.467-14.416-7.795a3.744,3.744,0,0,1-.156-1.063V487.986l-.024.031c-.333.408-.532.606-.532.606-2.771-11.572-5.268-23.406-15.348-25.339a16.509,16.509,0,0,0-3.711-.262c-.379-10.428,13.458-19.722,19.059-13.351a9.774,9.774,0,0,1,3.189,2.926l4.017-1.327.741-.244.381-.126.783-.257.4-.133.818-.271.419-.138.854-.282.435-.144,1.331-.439q.9-.3,1.833-.606c.033-.011.064-.022.1-.031l.1-.033a7.055,7.055,0,0,1,.388-1.484,43.82,43.82,0,1,1,57.163,0,7.039,7.039,0,0,1,.388,1.484l.1.033c.031.009.064.02.1.031l.372.124c.126.04.253.082.379.124l1.109.366.725.239q1.082.356,2.1.694l.672.222,1.3.428.927.306,1.169.386c.47.155.918.3,1.342.443l.5.164,1.135.375.41.135.381.126,2.123.7c5.608-6.368,19.443,2.926,19.063,13.354-13.229-.477-15.976,12.717-19.059,25.6v25.911l31.086-8.354c.082.051.162.1.24.157,5.3,3.5,4.945,7.415.207,11.655l-.355.024c-.133,10.581-.317,25.159-.413,32.754a7.619,7.619,0,0,1-5.339,7.172c-4.927,1.528-12.719,2.875-20.806.007a28.65,28.65,0,0,1-4.619-2.114v3.252a4.924,4.924,0,0,1-.031.546c-.912,8.123-22.247,11.663-43.632,11.408v38.146s-.157,0-.157,0Z" transform="translate(-2769.395 -370.046)" fill="#fff"/>
            <path id="Path_12446" data-name="Path 12446" d="M2726.126,1405.1c4.929,1.528,12.719,2.875,20.807.007v34.362s-4.4,3.957-7.983-.113-4.578-18.5-4.578-18.5.277,18.648,6.417,23.14,5.184,10.63-1.149,10.428-11.346-7.163-15.421-13.15-4.066-19.347-4.243-23.06c-.408-8.565,3.159-13.833,3.159-13.833l1.408.018A7.524,7.524,0,0,0,2726.126,1405.1Z" transform="translate(-2716.356 -1213.414)" fill="#afcded"/>
          </g>
        </g>
      </g>
      <g id="Group_3469" data-name="Group 3469" transform="translate(4.726 192.112)">
        <path id="Path_12447" data-name="Path 12447" d="M2726.666,1431.276a.554.554,0,0,1-.045-1.106c4.317-.358,4.257-1.512,4.081-4.938-.051-.993-.109-2.118-.064-3.414a64.24,64.24,0,0,1,1.125-8.8c.115-.656.23-1.313.341-1.972a.554.554,0,1,1,1.093.183c-.111.661-.227,1.321-.342,1.98a63.382,63.382,0,0,0-1.109,8.649c-.043,1.249.013,2.348.063,3.318.176,3.4.292,5.653-5.1,6.1Z" transform="translate(-2726.113 -1410.583)" fill="#fff"/>
      </g>
      <g id="Group_3470" data-name="Group 3470" transform="translate(87.387 357.086)">
        <path id="Path_12448" data-name="Path 12448" d="M3200.19,2308.729a.548.548,0,0,1-.3-.086c-7.092-4.476-17-4.553-25.251-.2a.554.554,0,1,1-.517-.979c8.591-4.538,18.938-4.444,26.359.24a.554.554,0,0,1-.3,1.022Z" transform="translate(-3173.831 -2304.127)" fill="#fff"/>
      </g>
      <g id="Group_3471" data-name="Group 3471" transform="translate(42.959 357.086)">
        <path id="Path_12449" data-name="Path 12449" d="M2933.748,2308.729a.554.554,0,0,1-.3-1.022c7.421-4.684,17.768-4.779,26.359-.24a.554.554,0,1,1-.518.979c-8.247-4.356-18.159-4.279-25.25.2A.552.552,0,0,1,2933.748,2308.729Z" transform="translate(-2933.194 -2304.127)" fill="#fff"/>
      </g>
      <g id="Group_3472" data-name="Group 3472" transform="translate(145.262 192.112)">
        <path id="Path_12450" data-name="Path 12450" d="M3493.837,1431.277l-.046,0c-5.387-.447-5.271-2.7-5.1-6.1.05-.97.107-2.07.063-3.318a63.4,63.4,0,0,0-1.109-8.649c-.115-.659-.231-1.318-.342-1.979a.554.554,0,1,1,1.093-.183c.111.658.226,1.315.341,1.971a64.137,64.137,0,0,1,1.125,8.8c.045,1.3-.013,2.422-.064,3.414-.177,3.426-.236,4.58,4.081,4.938a.554.554,0,0,1-.045,1.106Z" transform="translate(-3487.299 -1410.583)" fill="#fff"/>
      </g>
      <g id="Group_3501" data-name="Group 3501" transform="translate(2.523 77.061)">
        <g id="Group_3473" data-name="Group 3473" transform="translate(47.517 4.307)">
          <path id="Path_12451" data-name="Path 12451" d="M3000.06,818.7c-11.566,0-22.4-2.661-28.283-6.945a.554.554,0,0,1,.652-.9c5.7,4.153,16.287,6.733,27.631,6.733s21.93-2.58,27.63-6.733a.554.554,0,1,1,.652.9C3022.463,816.041,3011.626,818.7,3000.06,818.7Z" transform="translate(-2971.55 -810.755)" fill="#001f63"/>
        </g>
        <g id="Group_3474" data-name="Group 3474" transform="translate(47.517)">
          <path id="Path_12452" data-name="Path 12452" d="M3000.06,795.375c-11.566,0-22.4-2.661-28.283-6.945a.554.554,0,0,1,.652-.9c5.7,4.153,16.287,6.733,27.631,6.733s21.93-2.58,27.63-6.733a.554.554,0,1,1,.652.9C3022.463,792.714,3011.625,795.375,3000.06,795.375Z" transform="translate(-2971.55 -787.428)" fill="#001f63"/>
        </g>
        <g id="Group_3475" data-name="Group 3475" transform="translate(76.119 172.642)">
          <path id="Path_12453" data-name="Path 12453" d="M3127.016,1848.76a.554.554,0,0,1-.554-.554V1723.064a.554.554,0,1,1,1.107,0v125.142A.553.553,0,0,1,3127.016,1848.76Z" transform="translate(-3126.462 -1722.51)" fill="#001f63"/>
        </g>
        <g id="Group_3476" data-name="Group 3476" transform="translate(80.988 209.106)">
          <path id="Path_12454" data-name="Path 12454" d="M3190.494,1921.115h-37.105a.554.554,0,1,1,0-1.108h37.105a.554.554,0,1,1,0,1.108Z" transform="translate(-3152.835 -1920.007)" fill="#001f63"/>
        </g>
        <g id="Group_3477" data-name="Group 3477" transform="translate(82.92 191.713)">
          <path id="Path_12455" data-name="Path 12455" d="M3163.856,1831.933a.554.554,0,0,1,0-1.108c10.282,0,20.541-1.821,30.462-3.582,2.714-.482,5.521-.98,8.293-1.435a.554.554,0,0,1,.179,1.093c-2.765.454-5.569.952-8.279,1.433C3184.543,1830.1,3174.236,1831.933,3163.856,1831.933Z" transform="translate(-3163.302 -1825.8)" fill="#001f63"/>
        </g>
        <g id="Group_3478" data-name="Group 3478" transform="translate(125.275 74.328)">
          <path id="Path_12456" data-name="Path 12456" d="M3393.26,1195.784a.554.554,0,0,1-.093-1.1l27.182-4.666a.554.554,0,1,1,.188,1.092l-27.182,4.666A.555.555,0,0,1,3393.26,1195.784Z" transform="translate(-3392.706 -1190.01)" fill="#001f63"/>
        </g>
        <g id="Group_3479" data-name="Group 3479" transform="translate(121.42 61.345)">
          <path id="Path_12457" data-name="Path 12457" d="M3372.384,1129.724a.554.554,0,0,1-.151-1.087l31.442-8.926a.554.554,0,1,1,.3,1.066l-31.442,8.925A.554.554,0,0,1,3372.384,1129.724Z" transform="translate(-3371.83 -1119.69)" fill="#001f63"/>
        </g>
        <g id="Group_3480" data-name="Group 3480" transform="translate(34.77 209.106)">
          <path id="Path_12458" data-name="Path 12458" d="M2940.165,1921.115H2903.06a.554.554,0,1,1,0-1.108h37.105a.554.554,0,0,1,0,1.108Z" transform="translate(-2902.506 -1920.007)" fill="#001f63"/>
        </g>
        <g id="Group_3481" data-name="Group 3481" transform="translate(25.889 191.66)">
          <path id="Path_12459" data-name="Path 12459" d="M2856.5,1839.52a.553.553,0,0,1-.451-.232,10.382,10.382,0,0,1-1.646-5.9c0-3.911,1.762-7.871,5.13-7.871a4.444,4.444,0,0,1,.722.06c2.772.455,5.579.953,8.293,1.435,9.92,1.761,20.179,3.582,30.461,3.582a.554.554,0,1,1,0,1.108c-10.38,0-20.687-1.83-30.655-3.6-2.711-.481-5.514-.979-8.28-1.433a3.38,3.38,0,0,0-.543-.046c-2.613,0-4.022,3.484-4.022,6.763a9.264,9.264,0,0,0,1.439,5.258.554.554,0,0,1-.45.876Z" transform="translate(-2854.406 -1825.515)" fill="#001f63"/>
        </g>
        <g id="Group_3482" data-name="Group 3482" transform="translate(0.406 74.328)">
          <path id="Path_12460" data-name="Path 12460" d="M2744.116,1195.782a.555.555,0,0,1-.094-.008l-27.182-4.666a.554.554,0,0,1,.188-1.092l27.182,4.666a.554.554,0,0,1-.093,1.1Z" transform="translate(-2716.379 -1190.008)" fill="#001f63"/>
        </g>
        <g id="Group_3483" data-name="Group 3483" transform="translate(0 61.345)">
          <path id="Path_12461" data-name="Path 12461" d="M2746.178,1129.724a.552.552,0,0,1-.152-.021l-31.442-8.925a.554.554,0,1,1,.3-1.065l31.443,8.925a.554.554,0,0,1-.151,1.087Z" transform="translate(-2714.181 -1119.691)" fill="#001f63"/>
        </g>
        <g id="Group_3484" data-name="Group 3484" transform="translate(108.478 7.08)">
          <path id="Path_12462" data-name="Path 12462" d="M3302.282,851.336h-.014a.554.554,0,0,1-.54-.568c.243-9.721,3.984-18.774,10.264-24.837a.554.554,0,0,1,.77.8c-6.072,5.863-9.691,14.635-9.926,24.068A.553.553,0,0,1,3302.282,851.336Z" transform="translate(-3301.728 -825.776)" fill="#001f63"/>
        </g>
        <g id="Group_3485" data-name="Group 3485" transform="translate(35.569 7.08)">
          <path id="Path_12463" data-name="Path 12463" d="M2915.465,849.541a.554.554,0,0,1-.551-.508c-.762-9.139-3.439-16.662-7.958-22.359a.554.554,0,0,1,.868-.688c4.657,5.872,7.414,13.6,8.194,22.956a.554.554,0,0,1-.506.6Z" transform="translate(-2906.836 -825.776)" fill="#001f63"/>
        </g>
        <g id="Group_3486" data-name="Group 3486" transform="translate(33.775 83.578)">
          <path id="Path_12464" data-name="Path 12464" d="M2980.9,1241.217H2897.67a.554.554,0,1,1,0-1.108H2980.9a.554.554,0,1,1,0,1.108Z" transform="translate(-2897.116 -1240.109)" fill="#001f63"/>
        </g>
        <g id="Group_3487" data-name="Group 3487" transform="translate(33.775 70.271)">
          <path id="Path_12465" data-name="Path 12465" d="M2980.9,1169.143H2897.67a.554.554,0,1,1,0-1.108H2980.9a.554.554,0,1,1,0,1.108Z" transform="translate(-2897.116 -1168.035)" fill="#001f63"/>
        </g>
        <g id="Group_3488" data-name="Group 3488" transform="translate(33.775 89.038)">
          <path id="Path_12466" data-name="Path 12466" d="M2939.283,1273.14c-16.765,0-33.53-.786-41.718-2.359a.554.554,0,0,1,.1-1.1h.225a.552.552,0,0,1,.3.089c16.724,3.05,66.443,3.024,82.6-.079a.554.554,0,0,1,.209,1.088C2972.813,1272.354,2956.048,1273.14,2939.283,1273.14Z" transform="translate(-2897.115 -1269.683)" fill="#001f63"/>
        </g>
        <g id="Group_3489" data-name="Group 3489" transform="translate(33.775 123.673)">
          <path id="Path_12467" data-name="Path 12467" d="M2939.283,1460.734c-16.765,0-33.53-.786-41.718-2.359a.554.554,0,0,1,.1-1.1h.225a.551.551,0,0,1,.3.089c16.724,3.05,66.443,3.024,82.6-.079a.554.554,0,0,1,.209,1.088C2972.813,1459.947,2956.048,1460.734,2939.283,1460.734Z" transform="translate(-2897.115 -1457.277)" fill="#001f63"/>
        </g>
        <g id="Group_3490" data-name="Group 3490" transform="translate(29.433 156.895)">
          <path id="Path_12468" data-name="Path 12468" d="M2874.384,1671.792h-.031a.554.554,0,0,1-.523-.583c.132-2.421.2-5,.2-7.881,0-3.729-.109-7.525-.213-11.2s-.214-7.482-.214-11.227c0-1.081.01-2.138.027-3.14a.554.554,0,0,1,.554-.544h.01a.554.554,0,0,1,.544.564c-.018,1-.027,2.045-.027,3.12,0,3.729.108,7.525.213,11.2s.214,7.482.214,11.227c0,2.9-.065,5.5-.2,7.941A.554.554,0,0,1,2874.384,1671.792Z" transform="translate(-2873.599 -1637.22)" fill="#001f63"/>
        </g>
        <g id="Group_3491" data-name="Group 3491" transform="translate(31.545 213.616)">
          <path id="Path_12469" data-name="Path 12469" d="M2885.591,1979.343a.554.554,0,0,1-.554-.554v-33.8a.554.554,0,0,1,1.108,0v33.8A.554.554,0,0,1,2885.591,1979.343Z" transform="translate(-2885.037 -1944.433)" fill="#001f63"/>
        </g>
        <g id="Group_3492" data-name="Group 3492" transform="translate(68.939 139.039)">
          <path id="Path_12470" data-name="Path 12470" d="M3094.373,1558.448a.554.554,0,0,1-.554-.554v-12.209a20.536,20.536,0,0,0-2.2-1.306,11.043,11.043,0,0,1-3.935-2.988.554.554,0,1,1,.886-.665,10.032,10.032,0,0,0,3.574,2.677,19.622,19.622,0,0,1,2.561,1.557.554.554,0,0,1,.221.443v12.491A.554.554,0,0,1,3094.373,1558.448Z" transform="translate(-3087.574 -1540.505)" fill="#001f63"/>
        </g>
        <path id="Path_12471" data-name="Path 12471" d="M2965.488,1032.15v-24.638a3.409,3.409,0,0,1,3.409-3.409h12.329a3.409,3.409,0,0,1,3.409,3.409v24.638Z" transform="translate(-2919.09 -964.099)" fill="#cee1f5"/>
        <path id="Path_12472" data-name="Path 12472" d="M3080.387,1032.15v-24.638a3.409,3.409,0,0,1,3.409-3.409h12.329a3.409,3.409,0,0,1,3.409,3.409v24.638Z" transform="translate(-3012.775 -964.099)" fill="#cee1f5"/>
        <ellipse id="Ellipse_1761" data-name="Ellipse 1761" cx="8.034" cy="1.787" rx="8.034" ry="1.787" transform="translate(89.009 50.454)" fill="#cee1f5"/>
        <path id="Path_12473" data-name="Path 12473" d="M3212.349,1094.083H3196.28v-14.024c3.707,2.2,12.362,2.2,16.069,0Z" transform="translate(-3107.271 -1026.031)" fill="#cee1f5"/>
        <g id="Group_3493" data-name="Group 3493" transform="translate(119.864 72.148)">
          <path id="Path_12474" data-name="Path 12474" d="M3365.324,1184.89a.551.551,0,0,1-.417-.189,6.02,6.02,0,0,1-1.506-3.959,5.879,5.879,0,0,1,.424-2.192.554.554,0,0,1,1.029.412,4.767,4.767,0,0,0-.345,1.78,4.913,4.913,0,0,0,1.232,3.229.554.554,0,0,1-.417.919Z" transform="translate(-3363.401 -1178.202)" fill="#001f63"/>
        </g>
        <g id="Group_3494" data-name="Group 3494" transform="translate(31.973 73.491)">
          <path id="Path_12475" data-name="Path 12475" d="M2887.912,1191.767a.555.555,0,0,1-.526-.729c.145-.435.323-.854.5-1.26a6.451,6.451,0,0,0,.692-2.443,2.907,2.907,0,0,0-.216-1.1.554.554,0,0,1,1.029-.412,3.994,3.994,0,0,1,.3,1.51,7.368,7.368,0,0,1-.78,2.876c-.164.385-.333.783-.464,1.177A.554.554,0,0,1,2887.912,1191.767Z" transform="translate(-2887.358 -1185.478)" fill="#001f63"/>
        </g>
        <g id="Group_3495" data-name="Group 3495" transform="translate(32.933 90.763)">
          <path id="Path_12476" data-name="Path 12476" d="M2893.11,1297.6a.554.554,0,0,1-.554-.554v-17.463a.554.554,0,0,1,1.108,0v17.463A.554.554,0,0,1,2893.11,1297.6Z" transform="translate(-2892.556 -1279.025)" fill="#001f63"/>
        </g>
        <g id="Group_3496" data-name="Group 3496" transform="translate(118.905 92.106)">
          <path id="Path_12477" data-name="Path 12477" d="M3358.762,1305.256a.554.554,0,0,1-.554-.554v-17.847a.554.554,0,0,1,1.108,0V1304.7A.554.554,0,0,1,3358.762,1305.256Z" transform="translate(-3358.208 -1286.301)" fill="#001f63"/>
        </g>
        <g id="Group_3497" data-name="Group 3497" transform="translate(106.98 64.628)">
          <path id="Path_12478" data-name="Path 12478" d="M3303.289,1138.58h-9.121a.554.554,0,0,1,0-1.108h9.121a.554.554,0,1,1,0,1.108Z" transform="translate(-3293.614 -1137.472)" fill="#001f63"/>
        </g>
        <g id="Group_3498" data-name="Group 3498" transform="translate(35.482 64.186)">
          <path id="Path_12479" data-name="Path 12479" d="M2913.243,1136.189h-6.326a.554.554,0,1,1,0-1.108h6.326a.554.554,0,1,1,0,1.108Z" transform="translate(-2906.363 -1135.081)" fill="#001f63"/>
        </g>
        <g id="Group_3499" data-name="Group 3499" transform="translate(24.302 16.669)">
          <path id="Path_12480" data-name="Path 12480" d="M2855.039,896.178a.554.554,0,0,1-.548-.481c-.795-5.961-3.668-11.7-8.541-17.06a.554.554,0,0,1,.819-.745c5.027,5.529,7.994,11.471,8.819,17.659a.554.554,0,0,1-.55.627Z" transform="translate(-2845.806 -877.711)" fill="#001f63"/>
        </g>
        <g id="Group_3500" data-name="Group 3500" transform="translate(118.748 20.347)">
          <path id="Path_12481" data-name="Path 12481" d="M3357.913,913.3a.555.555,0,0,1-.543-.668c1.18-5.606,5.107-10.349,8.572-14.533l.224-.271a.554.554,0,1,1,.853.706l-.224.27c-3.383,4.086-7.217,8.716-8.341,14.055A.554.554,0,0,1,3357.913,913.3Z" transform="translate(-3357.358 -897.631)" fill="#001f63"/>
        </g>
      </g>
    </g>
    <g id="Group_3503" data-name="Group 3503" transform="translate(2741.509 390.349)">
      <path id="Path_12482" data-name="Path 12482" d="M2998.631,506.111c0,9.662-7.655,18.1-19.032,22.61a50.041,50.041,0,0,1-13.389,3.205,55.729,55.729,0,0,1-5.626.284,51.77,51.77,0,0,1-19.014-3.489c-11.377-4.51-19.032-12.948-19.032-22.61,0-10.119,8.4-18.892,20.669-23.222a52.444,52.444,0,0,1,17.377-2.875C2981.6,480.014,2998.631,491.7,2998.631,506.111Z" transform="translate(-2922.538 -480.014)" fill="#0059bd"/>
      <path id="Path_12483" data-name="Path 12483" d="M3066.676,506.111c0,9.662-7.655,18.1-19.032,22.61a50.039,50.039,0,0,1-13.389,3.205,48.09,48.09,0,0,1-6.868-2.577c-12.79-5.958-21.4-17.109-21.4-29.877a29.268,29.268,0,0,1,5.261-16.583,52.443,52.443,0,0,1,17.377-2.875C3049.642,480.014,3066.676,491.7,3066.676,506.111Z" transform="translate(-2990.583 -480.014)" fill="#002c78"/>
    </g>
  </g>
</svg>
