<svg xmlns="http://www.w3.org/2000/svg" width="64.228" height="64.228" viewBox="0 0 64.228 64.228">
  <g id="Group_3326" data-name="Group 3326" transform="translate(-1666.884 -858)">
    <circle id="Oval" cx="32.114" cy="32.114" r="32.114" transform="translate(1666.884 858)" fill="#e8f1fa"/>
    <path id="Icon_awesome-cloud-upload-alt" data-name="Icon awesome-cloud-upload-alt" d="M35.731,15.184A6.388,6.388,0,0,0,29.776,6.5,6.348,6.348,0,0,0,26.233,7.58a10.635,10.635,0,0,0-19.853,5.3c0,.179.007.359.013.538a9.573,9.573,0,0,0,3.177,18.6H34.03a8.507,8.507,0,0,0,1.7-16.842Zm-9.584,4.081H21.8v7.444a1.067,1.067,0,0,1-1.063,1.063h-3.19a1.067,1.067,0,0,1-1.063-1.063V19.265H12.136a1.061,1.061,0,0,1-.751-1.814l7.005-7.005a1.067,1.067,0,0,1,1.5,0L26.9,17.45A1.063,1.063,0,0,1,26.147,19.265Z" transform="translate(1678.544 872.976)" fill="#5355ee"/>
  </g>
</svg>
