<svg id="Group_3169" data-name="Group 3169" xmlns="http://www.w3.org/2000/svg" width="64.228" height="64.228" viewBox="0 0 64.228 64.228">
  <circle id="Oval" cx="32.114" cy="32.114" r="32.114" fill="#e8f1fa"/>
  <g id="Group_1689" data-name="Group 1689" transform="translate(13.008 14.948)">
    <path id="Icon_awesome-magnet" data-name="Icon awesome-magnet" d="M12.245,10.722H.9A.884.884,0,0,1,0,9.849V4.032A2.653,2.653,0,0,1,2.687,1.414h7.762a2.653,2.653,0,0,1,2.687,2.618V9.849a.853.853,0,0,1-.258.618A.9.9,0,0,1,12.245,10.722Zm25.967-.873V4.024a2.653,2.653,0,0,0-2.687-2.618H27.763a2.653,2.653,0,0,0-2.687,2.618V9.842a.884.884,0,0,0,.9.873H37.316a.9.9,0,0,0,.633-.251A.854.854,0,0,0,38.212,9.849Zm-12.24,3.2a.884.884,0,0,0-.9.873V17.7c0,9.316-11.941,9.3-11.941,0V13.922a.884.884,0,0,0-.9-.873H.9a.908.908,0,0,0-.636.258.861.861,0,0,0-.26.622c.007,1.556.045,2.931,0,3.876,0,10.952,10.163,17.934,19.162,17.934S38.2,28.758,38.2,17.8c-.045-.931-.015-2.4,0-3.869a.861.861,0,0,0-.26-.622.908.908,0,0,0-.636-.258Z" transform="translate(0 -1.406)" fill="#5355ee"/>
  </g>
</svg>
