<svg xmlns="http://www.w3.org/2000/svg" width="480.002" height="640.6" viewBox="0 0 480.002 640.6">
  <g id="Group_7022" data-name="Group 7022" transform="translate(-720 -29661.4)">
    <text id="Marketing_Agency" data-name="Marketing Agency" transform="translate(960 30283)" fill="#233d63" font-size="55" font-family="Poppins-SemiBold, Poppins" font-weight="600"><tspan x="-143.137" y="0">BLOGGERS</tspan></text>
    <g id="Interactive_Content" data-name="Interactive Content" transform="translate(711.4 29652.801)">
      <g id="Group_5910" data-name="Group 5910" transform="translate(8.6 8.6)">
        <g id="Group_5908" data-name="Group 5908">
          <circle id="Ellipse_2039" data-name="Ellipse 2039" cx="240.001" cy="240.001" r="240.001" fill="#382b73"/>
        </g>
        <g id="Group_5909" data-name="Group 5909" transform="translate(32.364 32.364)">
          <circle id="Ellipse_2040" data-name="Ellipse 2040" cx="207.637" cy="207.637" r="207.637" fill="#473080"/>
        </g>
      </g>
      <path id="Path_16704" data-name="Path 16704" d="M334.287,79.054H67.468a11.62,11.62,0,0,0-11.62,11.62V246.9A11.612,11.612,0,0,0,67.46,258.508h39.486a12.907,12.907,0,0,0,5.863,4.9l-.022.016-.048.024.01,0h0l.117.052.189.084c.2.088.47.211.864.39,6.078,2.764,33.926,15.775,43.224,26.28,1.936,2.189,3.063,4.267,3.023,6.125h-2.961a8.063,8.063,0,0,0-8.062,8.062V337.5a8.063,8.063,0,0,0,8.062,8.062H244.15a8.063,8.063,0,0,0,7.9-6.438,8.153,8.153,0,0,0,.163-1.624V304.444a8.049,8.049,0,0,0-8.062-8.062h-2.79v-6.422a19.744,19.744,0,0,1,3.162-10.468,18.878,18.878,0,0,0,3.172-10.474V258.506h86.6a11.612,11.612,0,0,0,11.612-11.612V90.672A11.623,11.623,0,0,0,334.287,79.054Z" transform="translate(47.723 71.163)" fill="#382b73"/>
      <g id="Group_5919" data-name="Group 5919" transform="translate(103.571 136.146)">
        <g id="Group_5912" data-name="Group 5912">
          <g id="Group_5911" data-name="Group 5911">
            <path id="Path_16705" data-name="Path 16705" d="M67.468,72.054H334.289a11.62,11.62,0,0,1,11.62,11.62V239.9A11.612,11.612,0,0,1,334.3,251.51H67.46A11.612,11.612,0,0,1,55.848,239.9V83.674A11.621,11.621,0,0,1,67.468,72.054Z" transform="translate(-55.848 -72.054)" fill="#fff"/>
            <path id="Path_16706" data-name="Path 16706" d="M64.688,75.779h264.4a4.889,4.889,0,0,1,4.888,4.888V235.374a4.889,4.889,0,0,1-4.888,4.888H64.688a4.889,4.889,0,0,1-4.888-4.888V80.667A4.888,4.888,0,0,1,64.688,75.779Z" transform="translate(-51.856 -68.292)" fill="#1caee4"/>
            <path id="Path_16707" data-name="Path 16707" d="M59.8,145.319v20.1a4.889,4.889,0,0,0,4.888,4.888h264.4a4.889,4.889,0,0,0,4.888-4.888v-20.1Z" transform="translate(-51.856 1.948)" fill="#009add"/>
          </g>
        </g>
        <g id="Group_5913" data-name="Group 5913" transform="translate(16.577 7.487)">
          <path id="Path_16708" data-name="Path 16708" d="M64.1,149.088a90.358,90.358,0,1,0,143.15-73.309H101.659A90.212,90.212,0,0,0,64.1,149.088Z" transform="translate(-64.095 -75.779)" fill="#27c1e6"/>
          <path id="Path_16709" data-name="Path 16709" d="M72.095,149.088a74.278,74.278,0,1,0,86.213-73.309H134.437A74.285,74.285,0,0,0,72.095,149.088Z" transform="translate(-56.015 -75.779)" fill="#009add"/>
          <circle id="Ellipse_2041" data-name="Ellipse 2041" cx="58.794" cy="58.794" r="58.794" transform="translate(31.562 14.515)" fill="#136da0"/>
          <circle id="Ellipse_2042" data-name="Ellipse 2042" cx="39.532" cy="39.532" r="39.532" transform="translate(50.824 33.777)" fill="#009add"/>
          <circle id="Ellipse_2043" data-name="Ellipse 2043" cx="23.99" cy="23.99" r="23.99" transform="translate(66.366 49.319)" fill="#27c1e6"/>
        </g>
        <g id="Group_5915" data-name="Group 5915" transform="translate(48.981 68.451)">
          <path id="Path_16710" data-name="Path 16710" d="M223.078,184.059v43.558A18.82,18.82,0,0,1,219.9,238.09a18.9,18.9,0,0,0-3.156,10.472v6.432H139.56c-2.131,3.638-4.141,5.608-4,0,.261-11.879-47.437-32.945-47.437-32.945l.08-.04a12.96,12.96,0,0,1,8.824-24.342l26.4,8.179a2.011,2.011,0,0,0,2.605-1.92V118.66a12.413,12.413,0,0,1,10.553-12.448,12.126,12.126,0,0,1,13.709,12.02V172a12.13,12.13,0,0,1,8.342-11.518h.02a6.169,6.169,0,0,1,1.045-.281,4.132,4.132,0,0,1,.683-.141,1.552,1.552,0,0,1,.3-.04,2.5,2.5,0,0,1,.663-.08,9.82,9.82,0,0,1,1.085-.06c.342,0,.683.02,1.005.04A4.742,4.742,0,0,1,164,160a10.785,10.785,0,0,1,3.136.844,10.308,10.308,0,0,1,1.065.5c.342.181.663.382.985.583a6.9,6.9,0,0,1,.945.724,10.491,10.491,0,0,1,.864.784,6.348,6.348,0,0,1,.784.864,10.615,10.615,0,0,1,1.307,1.93c.181.322.342.663.5,1.005,0,.02.02.02.02.04a12.3,12.3,0,0,1,.945,4.724v6.03s.04-.563.08-1.407a12.1,12.1,0,0,1,8.261-10.111c.3-.1.6-.181.925-.261.241-.06.482-.121.724-.161a8.071,8.071,0,0,1,1.005-.141,10.655,10.655,0,0,1,1.146-.06c.342,0,.683.02,1.005.04.2.02.4.04.6.08a7.962,7.962,0,0,1,.965.141c.342.08.7.181,1.025.281.281.1.563.181.824.3.2.08.4.161.583.241a3.654,3.654,0,0,1,.623.322,9.477,9.477,0,0,1,2.07,1.367,10.5,10.5,0,0,1,.864.784q.392.392.784.844v.02a9.314,9.314,0,0,1,.643.844l.121.181c.181.281.362.563.523.864a.074.074,0,0,1,.02.06,11.883,11.883,0,0,1,1.467,5.769v6.03a12.131,12.131,0,1,1,24.261,0Z" transform="translate(-80.215 -106.105)" fill="#fede3a"/>
          <g id="Group_5914" data-name="Group 5914" transform="translate(54.165)">
            <path id="Path_16711" data-name="Path 16711" d="M115.507,118.239v46.189A7.574,7.574,0,0,0,123.081,172h0V118.6a12.4,12.4,0,0,0-9.268-12.155,12.085,12.085,0,0,0-6.649.269A12.128,12.128,0,0,1,115.507,118.239Z" transform="translate(-107.163 -106.108)" fill="#f7cb15"/>
            <path id="Path_16712" data-name="Path 16712" d="M147.22,147.991v6.03h-1.548a6.03,6.03,0,0,1-6.03-6.03h0a12.111,12.111,0,0,0-8.342-11.518c.3-.1.6-.181.925-.261.241-.06.482-.121.724-.161a8.068,8.068,0,0,1,1.005-.141,10.658,10.658,0,0,1,1.146-.06c.342,0,.683.02,1.005.04.2.02.4.04.6.08a7.962,7.962,0,0,1,.965.141c.342.08.7.181,1.025.281.281.1.563.181.824.3.2.08.4.161.583.241a3.655,3.655,0,0,1,.623.322,9.477,9.477,0,0,1,2.07,1.367,10.506,10.506,0,0,1,.864.784q.392.392.784.844v.02a9.314,9.314,0,0,1,.643.844l.121.181c.181.281.362.563.523.864a.074.074,0,0,1,.02.06A11.883,11.883,0,0,1,147.22,147.991Z" transform="translate(-82.783 -76.067)" fill="#f7cb15"/>
            <path id="Path_16713" data-name="Path 16713" d="M135.14,144.981v6.03h-1.548a6.03,6.03,0,0,1-6.03-6.03h0a12.157,12.157,0,0,0-8.322-11.518,6.164,6.164,0,0,1,1.045-.281,4.127,4.127,0,0,1,.683-.141,1.551,1.551,0,0,1,.3-.04,2.5,2.5,0,0,1,.663-.08,9.82,9.82,0,0,1,1.085-.06c.342,0,.683.02,1.005.04a4.744,4.744,0,0,1,.563.08,10.785,10.785,0,0,1,3.136.844,10.308,10.308,0,0,1,1.065.5c.342.181.663.382.985.583a6.892,6.892,0,0,1,.945.724,10.491,10.491,0,0,1,.864.784,6.35,6.35,0,0,1,.784.864,10.616,10.616,0,0,1,1.307,1.93c.181.322.342.663.5,1.005,0,.02.02.02.02.04A12.3,12.3,0,0,1,135.14,144.981Z" transform="translate(-94.965 -79.087)" fill="#f7cb15"/>
            <path id="Path_16714" data-name="Path 16714" d="M111.758,180.175h-4.01C107.625,185.787,109.621,183.815,111.758,180.175Z" transform="translate(-106.578 -31.296)" fill="#f7cb15"/>
            <path id="Path_16715" data-name="Path 16715" d="M147.159,138.851a12.093,12.093,0,0,0-3.787.611,12.131,12.131,0,0,1,8.344,11.52v43.57a18.877,18.877,0,0,1-3.172,10.474,18.877,18.877,0,0,0-3.172,10.474v6.416h7.574V215.5a18.877,18.877,0,0,1,3.172-10.474,18.878,18.878,0,0,0,3.172-10.474v-43.57A12.131,12.131,0,0,0,147.159,138.851Z" transform="translate(-70.59 -73.036)" fill="#f7cb15"/>
          </g>
          <path id="Path_16716" data-name="Path 16716" d="M81.241,155.31a12.416,12.416,0,0,0-.44,1.2,12.963,12.963,0,0,0,7.393,15.8l-.062.046s47.681,21.053,47.419,32.931c-.123,5.612,1.871,3.64,4.01,0h77.176v-6.416a18.877,18.877,0,0,1,3.172-10.474,18.878,18.878,0,0,0,3.172-10.474v-10.05C223.081,198.741,94.815,179.891,81.241,155.31Z" transform="translate(-80.216 -56.411)" fill="#f7cb15"/>
          <path id="Path_16717" data-name="Path 16717" d="M205.332,188.237v33.057a8.063,8.063,0,0,1-8.062,8.062H110.324a8.063,8.063,0,0,1-8.062-8.062V188.237a8.063,8.063,0,0,1,8.062-8.062h86.945A8.063,8.063,0,0,1,205.332,188.237Z" transform="translate(-57.949 -31.296)" fill="#fff"/>
          <path id="Path_16718" data-name="Path 16718" d="M149.568,188.237v33.057a8.063,8.063,0,0,1-8.062,8.062h16.127a8.063,8.063,0,0,0,8.062-8.062V188.237a8.063,8.063,0,0,0-8.062-8.062H141.506A8.063,8.063,0,0,1,149.568,188.237Z" transform="translate(-18.31 -31.296)" fill="#d1d3d4"/>
        </g>
        <path id="Path_16719" data-name="Path 16719" d="M224.166,128.647a38.245,38.245,0,0,0-1.53-7.5q-.561-1.8-1.292-3.53a38.437,38.437,0,0,0-70.8,0q-.73,1.725-1.292,3.53a38.364,38.364,0,0,0-1.53,7.5,39.018,39.018,0,0,0-.2,3.928v7.057a38.42,38.42,0,1,0,76.841,0v-7.057A37.3,37.3,0,0,0,224.166,128.647Z" transform="translate(36.746 -49.732)" fill="#009add"/>
        <g id="Group_5918" data-name="Group 5918" transform="translate(184.27 36.382)">
          <g id="Group_5916" data-name="Group 5916">
            <path id="Path_16720" data-name="Path 16720" d="M147.522,135.632a38.42,38.42,0,1,0,76.84,0v-7.057a38.42,38.42,0,1,0-76.84,0Z" transform="translate(-147.522 -90.154)" fill="#e43d91"/>
            <circle id="Ellipse_2044" data-name="Ellipse 2044" cx="38.42" cy="38.42" r="38.42" fill="#ef5a9d"/>
          </g>
          <g id="Group_5917" data-name="Group 5917" transform="translate(27.54 20.724)">
            <path id="Path_16721" data-name="Path 16721" d="M161.223,132.939V107.855a4.433,4.433,0,0,1,7.025-3.6l17.4,12.541a4.433,4.433,0,0,1,0,7.192l-17.4,12.541A4.432,4.432,0,0,1,161.223,132.939Z" transform="translate(-161.223 -97.483)" fill="#e43d91"/>
            <path id="Path_16722" data-name="Path 16722" d="M161.223,129.988V104.9a4.433,4.433,0,0,1,7.025-3.6l17.4,12.541a4.433,4.433,0,0,1,0,7.192l-17.4,12.541A4.432,4.432,0,0,1,161.223,129.988Z" transform="translate(-161.223 -100.464)" fill="#fff"/>
            <path id="Path_16723" data-name="Path 16723" d="M185.647,109.94l-17.4,12.541a4.433,4.433,0,0,1-7.025-3.6v3.429a4.433,4.433,0,0,0,7.025,3.6l17.4-12.541a4.416,4.416,0,0,0,1.473-5.311A4.356,4.356,0,0,1,185.647,109.94Z" transform="translate(-161.223 -92.793)" fill="#d1d3d4"/>
          </g>
        </g>
      </g>
    </g>
  </g>
</svg>
