<svg xmlns="http://www.w3.org/2000/svg" xmlns:xlink="http://www.w3.org/1999/xlink" width="1691.599" height="528.709" viewBox="0 0 1691.599 528.709">
  <defs>
    <filter id="Path_15286" x="0" y="0" width="1691.599" height="528.709" filterUnits="userSpaceOnUse">
      <feOffset dy="16" input="SourceAlpha"/>
      <feGaussianBlur stdDeviation="3" result="blur"/>
      <feFlood flood-opacity="0.161"/>
      <feComposite operator="in" in2="blur"/>
      <feComposite in="SourceGraphic"/>
    </filter>
  </defs>
  <g id="Group_5154" data-name="Group 5154" transform="translate(-83 -10303.001)">
    <g id="Group_5109" data-name="Group 5109" transform="translate(36.264 10187.174)">
      <g transform="matrix(1, 0, 0, 1, 46.74, 115.83)" filter="url(#Path_15286)">
        <path id="Path_15286-2" data-name="Path 15286" d="M1662.8,283.674V160.151H1405.119c-146.651-38.561-338.149-61.912-547.683-61.912h-2.749c-209.534,0-401.032,23.352-547.69,61.912H49.323V283.674c-19.29,21.16-29.782,43.423-30.064,66.42.282,23,10.774,45.26,30.064,66.42V540.03H306.991c146.651,38.567,338.155,61.919,547.7,61.919h2.749c209.534,0,401.038-23.352,547.7-61.919H1662.8V416.513c19.29-21.16,29.775-43.423,30.057-66.42C1692.576,327.1,1682.091,304.834,1662.8,283.674Z" transform="translate(-10.26 -98.24)" fill="#fff"/>
      </g>
      <g id="Group_5106" data-name="Group 5106" transform="translate(98.659 135.366)">
        <path id="Path_15287" data-name="Path 15287" d="M840.88,104.432c199.45,0,391.9,21.724,541.9,61.171l2.848.748H1623.49v109.58l5.938,6.515c15.8,17.335,23.916,34.617,24.126,51.368-.21,16.187-8.326,33.469-24.126,50.8l-5.938,6.515v109.58H1385.631l-2.841.748c-150,39.446-342.459,61.171-541.909,61.171h-2.749c-199.45,0-391.905-21.724-541.909-61.171l-2.841-.748H55.521V391.14l-5.938-6.515c-15.8-17.335-23.922-34.617-24.126-51.375.2-16.193,8.326-33.476,24.126-50.8l5.938-6.515V166.351H293.387l2.841-.748c150-39.446,342.446-61.171,541.9-61.171h2.749m0-3.215h-2.749c-199.725,0-392.47,21.757-542.716,61.269l-2.447.643H52.306V274.684l-5.1,5.59c-16.344,17.932-24.743,35.739-24.966,52.936.217,17.65,8.615,35.647,24.966,53.579l5.1,5.6V503.935H292.961l2.441.643c150.26,39.512,343,61.276,542.729,61.276h2.749c199.725,0,392.469-21.764,542.723-61.276l2.447-.643h240.655V392.38l5.1-5.59c16.344-17.932,24.743-35.739,24.959-52.936-.216-17.643-8.615-35.641-24.959-53.573l-5.1-5.6V163.129H1386.037l-2.441-.643c-150.253-39.512-342.991-61.269-542.716-61.269Z" transform="translate(-22.236 -101.217)" fill="#ffc400"/>
      </g>
      <g id="Group_5107" data-name="Group 5107" transform="translate(121.732 311.923)">
        <path id="Path_15288" data-name="Path 15288" d="M70.691,161.281A98.631,98.631,0,0,1,80.481,132.1a2.662,2.662,0,0,0-3.628-3.609C49.623,144.359,37.688,167.5,36.205,186.062c-1.279,16,9.639,32.492,26.193,35.5a30.451,30.451,0,1,0,8.293-60.278Z" transform="translate(31.812 -128.126)" fill="#ff221c"/>
        <path id="Path_15289" data-name="Path 15289" d="M60.34,161.281A98.632,98.632,0,0,1,70.13,132.1a2.662,2.662,0,0,0-3.628-3.609C39.278,144.359,27.337,167.5,25.854,186.062c-1.279,16,9.639,32.492,26.193,35.5a30.451,30.451,0,1,0,8.293-60.278Z" transform="translate(-25.752 -128.126)" fill="#ff221c"/>
      </g>
      <g id="Group_5108" data-name="Group 5108" transform="translate(1584.702 322.263)">
        <path id="Path_15290" data-name="Path 15290" d="M276.328,190.467a98.81,98.81,0,0,1-9.789,29.185,2.662,2.662,0,0,0,3.628,3.609c27.223-15.865,39.158-39.013,40.647-57.569,1.28-16-9.645-32.491-26.193-35.5a30.448,30.448,0,1,0-8.294,60.272Z" transform="translate(-248.723 -129.702)" fill="#ff221c"/>
        <path id="Path_15291" data-name="Path 15291" d="M286.673,190.467a98.617,98.617,0,0,1-9.789,29.185,2.666,2.666,0,0,0,3.635,3.609c27.223-15.865,39.158-39.013,40.641-57.569,1.279-16-9.639-32.491-26.186-35.5a30.448,30.448,0,1,0-8.3,60.272Z" transform="translate(-191.158 -129.702)" fill="#ff221c"/>
      </g>
    </g>
  </g>
</svg>
