<svg xmlns="http://www.w3.org/2000/svg" width="239.378" height="317.904" viewBox="0 0 239.378 317.904">
  <g id="Group_4172" data-name="Group 4172" transform="translate(-648.889 -599.252)">
    <g id="Group_4171" data-name="Group 4171" transform="translate(731.422 599.252) rotate(17)">
      <g id="Group_4169" data-name="Group 4169" transform="translate(0 0)">
        <path id="Path_14275" data-name="Path 14275" d="M161.532,164.887h0l0,0c-.105-.173-.2-.321-.292-.455l-.032-.049c-.084-.124-.158-.227-.222-.314l-.03-.039c-.059-.081-.107-.143-.142-.186l-.016-.02-.046-.057h0a14.382,14.382,0,0,0-5.352,1.448q-.306.142-.622.3c-.421.216-.854.457-1.3.73a20.442,20.442,0,0,0-3.41,2.649c-.461.441-.921.921-1.376,1.441s-.908,1.083-1.351,1.688a28.979,28.979,0,0,0-2.364,3.863l-19.358-25.545h0l-7.491-9.884,28.814-63.845C163.47,28.039,140.508,2.5,138.284.174l.036-.1-.12.016L138.113,0l-.035.1-.292.047-.047.008c-.118.021-.254.045-.405.074l-.06.012c-.164.031-.344.068-.544.11h0c-.418.088-.913.2-1.476.346l-.025.007c-.278.07-.574.15-.884.237l-.031.008C124.38,3.734,98.441,14.717,84.6,55.4l-16.1,68.17-11.964,3.265h0l-30.921,8.438c.12-.654.217-1.292.291-1.91.022-.182.04-.361.059-.539a24.8,24.8,0,0,0-.12-6.2c-.047-.315-.1-.623-.161-.924-.118-.6-.258-1.172-.413-1.715q-.118-.407-.246-.792c-.132-.395-.274-.767-.419-1.128-.14-.343-.282-.677-.43-.99q-.152-.32-.308-.62a14.355,14.355,0,0,0-3.358-4.41h0l-.07.016-.025.007c-.054.013-.13.032-.226.06l-.047.013c-.1.03-.225.067-.367.113l-.057.02c-.151.051-.319.11-.508.182h0c-2.865,1.1-9.666,4.846-12.351,16.147l1.808.43-1.808-.43L1.187,169.745h0L.813,172.2,0,175.62,10.019,178h0l.949.225,1.076.256.813-3.426.815-2.5,30.295,7.2h0l10.665,2.532-2.217,9.391-3.96,11.64,1.92.652-4.99,6.748h0L39.8,218.262l-2.383,43.854,11.62-22.164L42.6,279.757l-.813,2.391.608-1.127-.2,1.264L43,279.895l19.171-35.473-4.308,24.652,24.856-36.209.179-9.386h0l.159-8.391,2.324.791,3.96-11.64,3.968-8.795,10,4.5h0l28.4,12.774-.879,2.477-1.444,3.211.17.076,1.729.777h0l7.469,3.36h0l1.922.864,1.444-3.21,1.2-2.169h0l18.154-32.885-1.649-.742,1.649.742C166.238,174.621,163.13,167.506,161.532,164.887ZM22.106,136.235l-5.726-1.36,5.726,1.36Zm-11.18-2.656-1.047-.249Zm2.258.536q2.873.684,2.873.682l.322.077-3.195-.76Zm133.991,44.671h0l5.67,2.549s.9.4,2.693,1.211h0Zm10.4,4.677.694.313Z" fill="#fff"/>
      </g>
      <g id="Group_4170" data-name="Group 4170" transform="translate(0 0.104)">
        <path id="Path_14276" data-name="Path 14276" d="M2.007,49,45.065,59.229,59.133,0,0,16.139Z" transform="translate(10.471 123.167)" fill="#f44528"/>
        <path id="Path_14277" data-name="Path 14277" d="M11.569,59.229,25.636,0,12.568,3.567,0,56.481Z" transform="translate(43.967 123.167)" fill="#c92f1b"/>
        <path id="Path_14278" data-name="Path 14278" d="M0,39.583l12.044,2.861,12.4-38.072L6.041,0Z" transform="translate(0.813 132.508)" fill="#c9e2f6"/>
        <path id="Path_14279" data-name="Path 14279" d="M10.68,1.5,4.349,0,0,28.5l4.307.629Z" transform="translate(2.505 132.508)" fill="#fffdf2"/>
        <path id="Path_14280" data-name="Path 14280" d="M12.044,38.679,24.447.607,21.892,0,10.257,35.716.374,33.368,0,35.818Z" transform="translate(0.813 136.273)" fill="#9fc7e2"/>
        <path id="Path_14281" data-name="Path 14281" d="M13.656,0S3.442,2.068,0,16.559l9.2,2.186,9.2,2.186C21.849,6.439,13.656,0,13.656,0Z" transform="translate(6.854 115.948)" fill="#f44528"/>
        <path id="Path_14282" data-name="Path 14282" d="M4.216,20.494l1.839.436C9.5,6.439,1.3,0,1.3,0A9.059,9.059,0,0,0,0,.412C1.812,2.238,6.925,8.63,4.216,20.494Z" transform="translate(19.205 115.948)" fill="#c92f1b"/>
        <rect id="Rectangle_601" data-name="Rectangle 601" width="3.52" height="12.379" transform="translate(0 175.516) rotate(-76.639)" fill="#2e0061"/>
        <rect id="Rectangle_602" data-name="Rectangle 602" width="3.52" height="2.107" transform="matrix(0.231, -0.973, 0.973, 0.231, 0, 175.516)" fill="#541f99"/>
        <rect id="Rectangle_603" data-name="Rectangle 603" width="3.52" height="2.081" transform="matrix(0.231, -0.973, 0.973, 0.231, 10.019, 177.896)" fill="#0f0018"/>
        <path id="Path_14283" data-name="Path 14283" d="M5.067.205A3.831,3.831,0,1,0,7.46,5.066,3.831,3.831,0,0,0,5.067.205Z" transform="translate(99.684 83.703)" fill="#fff"/>
        <path id="Path_14284" data-name="Path 14284" d="M26.789,1.085a20.258,20.258,0,1,0,12.652,25.7A20.259,20.259,0,0,0,26.789,1.085ZM15.069,35.535A16.131,16.131,0,1,1,35.534,25.459,16.131,16.131,0,0,1,15.069,35.535Z" transform="translate(85.319 75.927)" fill="#f44528"/>
        <path id="Path_14285" data-name="Path 14285" d="M21.33.864A16.131,16.131,0,1,0,31.4,21.331,16.13,16.13,0,0,0,21.33.864ZM12.835,11.106A3.831,3.831,0,1,1,17.7,8.714,3.83,3.83,0,0,1,12.835,11.106Z" transform="translate(89.448 80.055)" fill="#82eeff"/>
        <path id="Path_14286" data-name="Path 14286" d="M.2,2.6A3.841,3.841,0,0,0,0,3.89a3.8,3.8,0,0,0,1.148.629A3.823,3.823,0,0,0,6.21.834,3.825,3.825,0,0,0,.2,2.6Z" transform="translate(99.689 83.703)" fill="none"/>
        <path id="Path_14287" data-name="Path 14287" d="M28.792,0A16.13,16.13,0,0,1,8.477,20.889,16.061,16.061,0,0,1,0,14.175,16.129,16.129,0,1,0,28.792,0Z" transform="translate(90.464 87.633)" fill="#58daff"/>
        <ellipse id="Ellipse_1803" data-name="Ellipse 1803" cx="3.756" cy="1.481" rx="3.756" ry="1.481" transform="translate(9.678 128.653) rotate(-61.542)" fill="#ff9688"/>
        <path id="Path_14288" data-name="Path 14288" d="M40.362,73.673,0,55.519,24.972,0,61.993,48.852Z" transform="translate(92.467 139.442)" fill="#f44528"/>
        <path id="Path_14289" data-name="Path 14289" d="M0,55.519,24.972,0l8.182,10.8L10.844,60.4Z" transform="translate(92.467 139.442)" fill="#c92f1b"/>
        <path id="Path_14290" data-name="Path 14290" d="M11.29,42.815,0,37.737,13.389,0,30.642,7.76Z" transform="translate(130.831 177.352)" fill="#c9e2f6"/>
        <path id="Path_14291" data-name="Path 14291" d="M11.8,0,17.73,2.669,3.8,27.908,0,25.78Z" transform="translate(143.743 182.443)" fill="#fffdf2"/>
        <path id="Path_14292" data-name="Path 14292" d="M0,37.737,13.389,0l2.395,1.077-12.56,35.4,9.264,4.167-1.2,2.17Z" transform="translate(130.831 177.352)" fill="#9fc7e2"/>
        <path id="Path_14293" data-name="Path 14293" d="M16.53,0s6.833,7.866.723,21.452L8.626,17.571,0,13.691C6.11.106,16.53,0,16.53,0Z" transform="translate(144.22 163.66)" fill="#f44528"/>
        <path id="Path_14294" data-name="Path 14294" d="M1.724,14.467,0,13.691C6.11.106,16.53,0,16.53,0a9.123,9.123,0,0,1,.783,1.122C14.763,1.464,6.812,3.412,1.724,14.467Z" transform="translate(144.22 163.66)" fill="#c92f1b"/>
        <path id="Path_14295" data-name="Path 14295" d="M45.734,10.183,30.971,5.16l-.4-.138L15.8,0,2.384,18.145,0,62,11.62,39.835,5.18,79.64l-.2,1.264.609-1.127L24.756,44.3,20.449,68.955,45.3,32.747Z" transform="translate(37.419 200.014)" fill="#ffdf3c"/>
        <path id="Path_14296" data-name="Path 14296" d="M20.449,50.862l18.878-27.5.251-13.178L24.815,5.16l-.4-.138L9.648,0,1.811,10.6,0,43.905,11.62,21.741,5.18,61.547l-.813,2.391.609-1.127-.2,1.264.814-2.391L24.756,26.21Z" transform="translate(43.574 200.014)" fill="#ff8948"/>
        <path id="Path_14297" data-name="Path 14297" d="M17.348,43.15,33.364,19.819l.213-11.18L21.053,4.378l-.343-.117L8.185,0,1.536,8.99,0,37.248l9.858-18.8L4.395,52.214,3.7,54.243l.517-.956L4.048,54.36l.69-2.029L21,22.236Z" transform="translate(51.808 187.555)" fill="#dd3f1b"/>
        <rect id="Rectangle_604" data-name="Rectangle 604" width="3.52" height="12.379" transform="translate(129.387 218.299) rotate(-65.782)" fill="#2e0061"/>
        <path id="Path_14298" data-name="Path 14298" d="M63.459,10.64l-.206-.069L32.184,0,0,136.272l18.362,6.247.207.07,18.362,6.248L94.529,21.21ZM46.748,59.421A19.611,19.611,0,1,1,71.53,47.139,19.611,19.611,0,0,1,46.748,59.421Z" transform="translate(52.415 55.299)" fill="#c9e2f6"/>
        <path id="Path_14299" data-name="Path 14299" d="M32.184,0,0,136.272l6.314,2.148L38.5,2.148Z" transform="translate(52.415 55.299)" fill="#fff"/>
        <path id="Path_14300" data-name="Path 14300" d="M57.6,0,0,127.625l6.9,2.347L64.5,2.347Z" transform="translate(82.448 74.163)" fill="#9fc7e2"/>
        <path id="Path_14301" data-name="Path 14301" d="M53.685.07,53.48,0C50.3.484,16.526,6.725,0,55.3L31.07,65.87l.205.069L62.345,76.51C78.871,27.935,55.909,2.392,53.685.07Z" transform="translate(84.599 0)" fill="#f44528"/>
        <path id="Path_14302" data-name="Path 14302" d="M6.066.07,5.861,0A37.573,37.573,0,0,0,0,1.489c6.564,9.677,17.88,33.6,4.923,71.686l9.8,3.335C31.252,27.935,8.29,2.392,6.066.07Z" transform="translate(132.218 0)" fill="#c92f1b"/>
        <rect id="Rectangle_605" data-name="Rectangle 605" width="3.52" height="2.107" transform="translate(138.755 222.512) rotate(-65.783)" fill="#541f99"/>
        <rect id="Rectangle_606" data-name="Rectangle 606" width="3.52" height="2.081" transform="translate(129.387 218.299) rotate(-65.783)" fill="#0f0018"/>
        <path id="Path_14303" data-name="Path 14303" d="M22.529,6.317l-.206-.07L3.96,0,0,11.64l18.362,6.247.206.07L36.931,24.2l3.96-11.64Z" transform="translate(48.455 191.571)" fill="#2e0061"/>
        <rect id="Rectangle_607" data-name="Rectangle 607" width="12.295" height="8.491" transform="matrix(0.322, -0.947, 0.947, 0.322, 77.347, 213.04)" fill="#0f0018"/>
        <rect id="Rectangle_608" data-name="Rectangle 608" width="12.295" height="8.491" transform="matrix(0.322, -0.947, 0.947, 0.322, 48.455, 203.21)" fill="#541f99"/>
        <ellipse id="Ellipse_1804" data-name="Ellipse 1804" cx="3.756" cy="1.481" rx="3.756" ry="1.481" transform="translate(158.661 179.865) rotate(-80.88)" fill="#ff9688"/>
        <ellipse id="Ellipse_1805" data-name="Ellipse 1805" cx="14.735" cy="6.093" rx="14.735" ry="6.093" transform="matrix(0.606, -0.795, 0.795, 0.606, 96.728, 39.663)" fill="#ff9688"/>
      </g>
    </g>
  </g>
</svg>
