<svg xmlns="http://www.w3.org/2000/svg" width="285.955" height="163.114" viewBox="0 0 285.955 163.114">
  <g id="Group_3829" data-name="Group 3829" transform="translate(285.955 163.114) rotate(180)">
    <g id="Group_28" data-name="Group 28" transform="translate(0 0)">
      <path id="Path_146" data-name="Path 146" d="M27.718,6.013,7.156,28.41.412,22.218a52.477,52.477,0,0,1-.368-8.765,4.073,4.073,0,0,1,1.072-2.588L9.737,1.474A4.074,4.074,0,0,1,12.529.158c1.905-.1,5.2-.22,8.68-.122Z" transform="translate(176.637 60.361)" fill="#00aad8"/>
      <g id="Group_24" data-name="Group 24" transform="translate(179.856 62.954)">
        <path id="Path_147" data-name="Path 147" d="M60.912,92.137C51.4,87.3,40.9,79.727,29.942,68.033,13.4,50.38,6.168,36.3,1.582,28.295-1.974,22.087.919,12.127,5.757,6.857h0C10.595,1.588,20.044-1.9,26.532,1.115,34.9,5,49.546,11.011,68.545,25.981,81.132,35.9,89.573,45.717,95.2,54.782A55.6,55.6,0,0,0,60.912,92.137Z" transform="translate(0 0)" fill="#fff"/>
        <path id="Path_148" data-name="Path 148" d="M15.894,17.748A56.975,56.975,0,0,0,3.323,40.59a.882.882,0,0,1-1.238.55c-.53-.263-1.091-.54-1.609-.811a.882.882,0,0,1-.45-.991C4.359,21.608,18.6,5.8,36.016.044a.883.883,0,0,1,1.027.375c.321.521.647,1.094.958,1.629a.881.881,0,0,1-.451,1.265A56.714,56.714,0,0,0,15.894,17.748Z" transform="translate(57.619 51.539)" fill="#00aad8"/>
        <path id="Path_149" data-name="Path 149" d="M44.547,43.832C42.564,44.07,24.6,49.866,0,37.355A55.6,55.6,0,0,1,34.293,0C48.857,23.44,44.615,41.836,44.547,43.832Z" transform="translate(60.912 54.782)" fill="#ef4637"/>
        <path id="Path_150" data-name="Path 150" d="M15.045,15.119A57.859,57.859,0,0,1,0,16.632,55.695,55.695,0,0,1,15.269,0,57.826,57.826,0,0,1,15.045,15.119Z" transform="translate(90.414 83.495)" fill="#00aad8"/>
        <path id="Path_151" data-name="Path 151" d="M82.385,54.781A69.7,69.7,0,0,1,92.863,83.494h0v0a55.139,55.139,0,0,1-.224,15.115h0l-.011,0c-.062.008-.506.093-.56.1l-.329.071c0-.149-4.324-24.714-11.891-36.892C73.674,51.961,64.42,41.2,50.62,30.322,29.79,13.909,13.734,7.32,4.557,3.059A13.451,13.451,0,0,0,0,1.9C4.5-.119,9.68-.758,13.713,1.115,22.083,5,36.727,11.01,55.726,25.981,68.312,35.9,76.753,45.717,82.385,54.781Z" transform="translate(12.819 0.001)" fill="#dcddde" style="mix-blend-mode: multiply;isolation: isolate"/>
      </g>
      <g id="Group_25" data-name="Group 25" transform="translate(151.531 77.624)">
        <path id="Path_152" data-name="Path 152" d="M41.548,33.376,24.654,28.755a4.792,4.792,0,0,1-2.688-1.912L.574,3.637A2.168,2.168,0,0,1,.571.7h0A2.168,2.168,0,0,1,3.111.216l23.807,11.51,4.793-.312a1.579,1.579,0,0,1,1.51.86l9.789,19.245A1.284,1.284,0,0,1,41.548,33.376Z" transform="translate(0 0)" fill="#ef4637"/>
        <path id="Path_153" data-name="Path 153" d="M.909,1.248,22.3,24.455a4.791,4.791,0,0,0,2.688,1.912l16.894,4.621a1.258,1.258,0,0,0,1.2-.289,1.284,1.284,0,0,1-1.538,1.694L24.652,27.771a4.791,4.791,0,0,1-2.688-1.912L.571,2.653A2.165,2.165,0,0,1,.355,0,2.15,2.15,0,0,0,.909,1.248Z" transform="translate(0.002 0.984)" fill="#ef6a51"/>
      </g>
      <g id="Group_26" data-name="Group 26" transform="translate(190.354 35.334)">
        <path id="Path_154" data-name="Path 154" d="M36.622,38.742,30.577,22.3a4.794,4.794,0,0,0-2.135-2.516L3.5.454A2.169,2.169,0,0,0,.571.7h0A2.168,2.168,0,0,0,.3,3.274L13.8,26.013l.1,4.8a1.579,1.579,0,0,0,.986,1.431L34.9,40.358A1.284,1.284,0,0,0,36.622,38.742Z" transform="translate(0 0)" fill="#ef4637"/>
        <path id="Path_155" data-name="Path 155" d="M1.291.908,26.238,20.243a4.8,4.8,0,0,1,2.135,2.515l6.045,16.438a1.257,1.257,0,0,1-.186,1.222,1.284,1.284,0,0,0,1.556-1.677L29.743,22.3a4.8,4.8,0,0,0-2.135-2.516L2.662.452A2.165,2.165,0,0,0,0,.463,2.152,2.152,0,0,1,1.291.908Z" transform="translate(0.834 0.002)" fill="#ef6a51"/>
      </g>
      <path id="Path_156" data-name="Path 156" d="M179.769,64.675c-6.239,6.8-17.712,9.839-26.821.345-.029-.025-.062-.044-.089-.07C125.6,38.621,86.453,24.12,42.64,24.12A158.161,158.161,0,0,0,3.657,28.982,2.932,2.932,0,1,1,2.209,23.3,163.992,163.992,0,0,1,42.64,18.255,195.261,195.261,0,0,1,69.179,20.05l.14-.01c6.311.855,8.592.5,9.394-3.107.688-3.1-1.192-4.686-4.242-5.3A198.474,198.474,0,0,0,47.555,9.309a2.932,2.932,0,0,1,.052-5.864h.054a200.821,200.821,0,0,1,60.222,10.278c.047.016.087.042.133.06,3.47,1.159,8.692,3.3,10.293.035.877-1.79.864-3.239-1.99-4.839q-4.474-1.741-9.01-3.266A2.933,2.933,0,0,1,108.241,0a2.969,2.969,0,0,1,.931.152C191.068,27.236,186.416,57.435,179.769,64.675ZM123.856,12.082c-.627-.274-1.258-.534-1.887-.8Z" transform="translate(0 0)" fill="#f5e000"/>
      <g id="Group_27" data-name="Group 27" transform="translate(92.047 13.446)">
        <path id="Path_157" data-name="Path 157" d="M47.272,28.1c-4.01,4.367-11.285,5.867-17.235-1.188C23.046,18.619,7.162,8.883.794,5.595A1.466,1.466,0,0,1,2.14,2.989,148.2,148.2,0,0,1,19.254,13.334c1.846,1.146,4.467,1.69,6.052.082a3.532,3.532,0,0,0-.127-5.5c-.723-.529-1.447-1.062-2.163-1.569A1.466,1.466,0,1,1,24.709,3.96c1.734,1.227,3.493,2.534,5.247,3.874a4.692,4.692,0,0,1,.716.427c2.4,1.779,4.053,2.515,5.255,1.355C37,8.582,37.215,7.3,35.79,5.953c-1.255-1.062-2.617-2.17-4.122-3.323A1.466,1.466,0,0,1,33.452.3C54.822,16.592,50.671,24.395,47.272,28.1Z" transform="translate(32.704 16.021)" fill="#f0a529"/>
        <path id="Path_158" data-name="Path 158" d="M1.468,0a1.459,1.459,0,0,1,.758.212c1.478.9,2.978,1.84,4.462,2.81a1.466,1.466,0,1,1-1.6,2.454C3.629,4.525,2.155,3.6.707,2.72A1.466,1.466,0,0,1,1.468,0Z" transform="translate(45.563 13.445)" fill="#f0a529"/>
        <path id="Path_159" data-name="Path 159" d="M12.752,7.212a1.467,1.467,0,0,1-1.984.6C8.1,6.388,5.83,5.269,3.826,4.283,2.693,3.726,1.681,3.227.794,2.769A1.466,1.466,0,0,1,2.139.163c.873.451,1.867.941,2.982,1.489,1.925.947,4.321,2.127,7.03,3.576A1.466,1.466,0,0,1,12.752,7.212Z" transform="translate(28.476 4.347)" fill="#f0a529"/>
        <path id="Path_160" data-name="Path 160" d="M12.175,7.174C8.482,5.578,4.719,4.124.993,2.855A1.466,1.466,0,1,1,1.94.079c3.8,1.295,7.634,2.777,11.4,4.4a1.466,1.466,0,1,1-1.164,2.691Z" transform="translate(11.786 9.925)" fill="#f0a529"/>
        <path id="Path_161" data-name="Path 161" d="M6.211,4.179C3.057,3.286,1.2,2.907,1.176,2.9A1.466,1.466,0,0,1,1.464,0a1.5,1.5,0,0,1,.291.028c.079.016,1.979.4,5.255,1.328a1.467,1.467,0,0,1-.8,2.822Z" transform="translate(0 6.547)" fill="#f0a529"/>
        <path id="Path_162" data-name="Path 162" d="M3.741,4.181Q2.323,3.484.846,2.795A1.466,1.466,0,1,1,2.086.138q1.5.7,2.947,1.412A1.466,1.466,0,0,1,3.741,4.181Z" transform="translate(37.008 0)" fill="#f0a529"/>
        <path id="Path_163" data-name="Path 163" d="M10.907,8.695C7.7,6.635,4.291,4.637.775,2.759A1.466,1.466,0,0,1,1.467,0a1.452,1.452,0,0,1,.69.173C5.742,2.088,9.219,4.125,12.492,6.228a1.466,1.466,0,1,1-1.585,2.467Z" transform="translate(44.867 3.929)" fill="#f0a529"/>
      </g>
      <ellipse id="Ellipse_3" data-name="Ellipse 3" cx="13.016" cy="13.016" rx="13.016" ry="13.016" transform="translate(224.778 104.927)" fill="#ef4637"/>
      <ellipse id="Ellipse_4" data-name="Ellipse 4" cx="10.913" cy="10.913" rx="10.913" ry="10.913" transform="matrix(0.041, 0.999, -0.999, 0.041, 248.253, 106.593)" fill="#fff"/>
      <path id="Path_164" data-name="Path 164" d="M15.761,2.476a9.4,9.4,0,1,0,.568,13.285A9.4,9.4,0,0,0,15.761,2.476Z" transform="translate(228.392 108.54)" fill="#0087c9"/>
      <path id="Path_165" data-name="Path 165" d="M16.319,6.146a9.4,9.4,0,0,1-13.285.568A9.37,9.37,0,0,1,0,0L18.692,1.181A9.365,9.365,0,0,1,16.319,6.146Z" transform="translate(228.401 118.156)" fill="#00aad8"/>
    </g>
    <path id="Path_166" data-name="Path 166" d="M34.1,39.15.452,2.85A1.7,1.7,0,0,1,.447.549h0a1.7,1.7,0,0,1,2.3-.182L41.53,31.12a5.487,5.487,0,0,1,.633,8.01h0A5.488,5.488,0,0,1,34.1,39.15Z" transform="translate(167.259 52.538)" fill="#ef4637"/>
  </g>
</svg>
