<svg xmlns="http://www.w3.org/2000/svg" xmlns:xlink="http://www.w3.org/1999/xlink" width="891.859" height="545.535" viewBox="0 0 891.859 545.535">
  <defs>
    <filter id="Union_6" x="193.026" y="0" width="698.833" height="530.854" filterUnits="userSpaceOnUse">
      <feOffset dy="3" input="SourceAlpha"/>
      <feGaussianBlur stdDeviation="3" result="blur"/>
      <feFlood flood-opacity="0.161"/>
      <feComposite operator="in" in2="blur"/>
      <feComposite in="SourceGraphic"/>
    </filter>
    <filter id="Union_3" x="195.498" y="7" width="689.362" height="514.854" filterUnits="userSpaceOnUse">
      <feOffset dy="3" input="SourceAlpha"/>
      <feGaussianBlur stdDeviation="3" result="blur-2"/>
      <feFlood flood-opacity="0.161"/>
      <feComposite operator="in" in2="blur-2"/>
      <feComposite in="SourceGraphic"/>
    </filter>
  </defs>
  <g id="Group_5079" data-name="Group 5079" transform="translate(-50 -7017)">
    <g id="Group_3369" data-name="Group 3369" transform="translate(-28.159 6868.529)">
      <g id="Group_3368" data-name="Group 3368">
        <path id="Path_12209" data-name="Path 12209" d="M285.219,408.588s6.608,56.62-48.092,60.613l-4.735,17.186s80.5,2.748,68.527-98.071Z" fill="#414042"/>
        <path id="Path_12210" data-name="Path 12210" d="M97.748,684.344c0,5.338,33.4,9.662,74.593,9.662s74.594-4.324,74.594-9.662-33.4-9.66-74.594-9.66S97.748,679.006,97.748,684.344Z" fill="#231f20" opacity="0.2"/>
        <g id="Group_3362" data-name="Group 3362">
          <path id="Path_12211" data-name="Path 12211" d="M161.825,673.192l-11.393.856-3.663-71.882,11.391-.859Z" fill="#414042"/>
          <path id="Path_12212" data-name="Path 12212" d="M172.121,682.5,149.7,680.762l.794-15.154,22.061,8.667Z" fill="#414042"/>
        </g>
        <g id="Group_3363" data-name="Group 3363">
          <path id="Path_12213" data-name="Path 12213" d="M204.569,672.115l-11.393.857-3.663-71.882,11.391-.859Z" fill="#414042"/>
          <path id="Path_12214" data-name="Path 12214" d="M214.864,681.422l-22.424-1.737.794-15.154L215.3,673.2Z" fill="#414042"/>
        </g>
        <g id="Group_3366" data-name="Group 3366">
          <path id="Path_12215" data-name="Path 12215" d="M265.243,372.674q.042-.439.06-.876l2.248-23.552c.843-8.808-5.276-16.574-13.664-17.347L130.346,319.535c-8.391-.772-15.875,5.743-16.715,14.551L92.15,558.955c-.027.3-.045.589-.059.88l-2.25,23.55c-.843,8.809,5.276,16.573,13.667,17.349L227.048,612.1c8.389.771,15.872-5.746,16.717-14.554Z" fill="#414042"/>
          <g id="Group_3364" data-name="Group 3364">
            <path id="Path_12216" data-name="Path 12216" d="M276.643,349.1c.842-8.809-5.277-16.574-13.666-17.346l-123.54-11.365c-8.392-.772-15.875,5.744-16.716,14.552L101.242,559.811c-.028.3-.047.586-.059.879l-2.251,23.552c-.842,8.809,5.277,16.573,13.666,17.349l123.541,11.363c8.388.772,15.873-5.744,16.716-14.554l21.477-224.87c.03-.294.049-.585.062-.876Z" fill="#414042"/>
            <path id="Path_12217" data-name="Path 12217" d="M275.01,350.492c.841-8.66-5.137-16.3-13.345-17.067L140.78,322.15c-8.209-.766-15.546,5.635-16.384,14.294l-21.408,221.08c-.028.292-.05.579-.06.866l-2.243,23.154c-.838,8.66,5.136,16.3,13.345,17.067l120.886,11.278c8.209.762,15.544-5.637,16.384-14.3l21.406-221.082c.03-.288.047-.574.063-.86Z" fill="#7586a0"/>
            <path id="Path_12218" data-name="Path 12218" d="M152.519,602.2l82.4,7.688c8.209.762,15.544-5.637,16.384-14.3l21.406-221.082c.03-.288.047-.574.063-.86l2.241-23.156c.841-8.66-5.137-16.3-13.345-17.067l-33.3-3.109Z" fill="#3d5372"/>
            <path id="Path_12219" data-name="Path 12219" d="M241.719,576.5,113.706,564.527l20.22-208.151,128.011,11.974Z" fill="#fff"/>
            <path id="Path_12220" data-name="Path 12220" d="M214.6,349.979a2.993,2.993,0,0,1-3.226,2.732L185.534,350.4a2.973,2.973,0,0,1-2.673-3.258h0a3,3,0,0,1,3.23-2.731l25.84,2.307a2.969,2.969,0,0,1,2.672,3.258Z" fill="#333538"/>
            <path id="Path_12221" data-name="Path 12221" d="M189.312,589.463a12.47,12.47,0,1,1-11.219-13.737A12.618,12.618,0,0,1,189.312,589.463Z" fill="#333538"/>
            <path id="Path_12222" data-name="Path 12222" d="M161.429,568.992l80.29,7.51,20.218-208.151-42.826-4.006Z" fill="#ddd"/>
          </g>
          <g id="Group_3365" data-name="Group 3365">
            <path id="Path_12223" data-name="Path 12223" d="M230.684,439.674c-.873,8.934-4.493,15.9-8.084,15.566s-5.793-7.855-4.918-16.791,4.491-15.9,8.083-15.565S231.559,430.738,230.684,439.674Z" fill="#231f20"/>
            <path id="Path_12224" data-name="Path 12224" d="M165.8,472.586c-.055.443-.112.888-.155,1.336-1.952,19.953,7.321,37.147,20.711,38.409s25.826-13.891,27.778-33.842c.044-.449.074-.893.108-1.34Z" fill="#a52339"/>
            <path id="Path_12225" data-name="Path 12225" d="M207.083,465.064l-13.369-1.26.218-2.222,9.185.865-7.04-13.2,2.017-1.036Z" fill="#231f20"/>
            <path id="Path_12226" data-name="Path 12226" d="M167.625,435.348c-.873,8.934-4.492,15.9-8.084,15.564s-5.793-7.854-4.918-16.79,4.492-15.9,8.083-15.565S168.5,426.411,167.625,435.348Z" fill="#231f20"/>
          </g>
        </g>
        <g id="Group_3367" data-name="Group 3367">
          <path id="Path_12227" data-name="Path 12227" d="M250.548,306.013l8.143,2.62,17.969-28.316-21.923-7.487Z" fill="#0ea515"/>
          <path id="Path_12228" data-name="Path 12228" d="M268.723,316.563l4.463,7.3,32.091-9.743-11.736-19.976Z" fill="#0ea515"/>
          <path id="Path_12229" data-name="Path 12229" d="M228.143,305.167l8.452-1.323,3.313-33.373-22.947,3.174Z" fill="#0ea515"/>
        </g>
        <path id="Path_12230" data-name="Path 12230" d="M147.411,533.364s-91.055-3.891-40.586-38.357l-5.742-18.058s-80.427,69.758,60.009,68.911Z" fill="#414042"/>
        <path id="Path_12231" data-name="Path 12231" d="M165.794,550.775c-4.084,5.818-14.179,6.194-22.547.842s-11.842-14.407-7.758-20.224,14.179-6.194,22.548-.842S169.877,544.958,165.794,550.775Z" fill="#414042"/>
        <path id="Path_12232" data-name="Path 12232" d="M148.337,520.935c2.491,1.815,2.273,6.658-.483,10.814s-7.008,6.053-9.5,4.237-2.272-6.657.483-10.813S145.848,519.118,148.337,520.935Z" fill="#414042"/>
      </g>
      <path id="Path_12233" data-name="Path 12233" d="M312.813,381.355c-.549,7.5-8.383,13.346-17.5,13.065s-16.056-6.586-15.506-14.082,8.383-13.345,17.5-13.065S313.363,373.859,312.813,381.355Z" transform="translate(-5 15)" fill="#414042"/>
    </g>
    <g id="Group_5078" data-name="Group 5078" transform="translate(0 23.826)">
      <g id="Group_5076" data-name="Group 5076" transform="translate(-8)">
        <g transform="matrix(1, 0, 0, 1, 58, 6993.17)" filter="url(#Union_6)">
          <path id="Union_6-2" data-name="Union 6" d="M505.055,5218.854H114a80.515,80.515,0,0,1-49.338-16.9q-.518.091-1.049.169c-22.224,3.282-47.3-12.367-66.138-28.016a249.807,249.807,0,0,1-29.054-28.453c.449.456,28.206,3.611,55.844,2.213,3.01-.152,5.981-.4,8.894-.713a82.966,82.966,0,0,1-.68-10.614V4788.315C32.481,4743.04,69.159,4706,114,4706h426.17c60.238,0,109.081,49.315,109.081,110.127v320.417c0,45.271-36.684,82.311-81.526,82.311Z" transform="translate(233.61 -4700)" fill="#006ba2"/>
        </g>
        <g transform="matrix(1, 0, 0, 1, 58, 6993.17)" filter="url(#Union_3)">
          <path id="Union_3-2" data-name="Union 3" d="M493.2,5202.854H110.678a79.252,79.252,0,0,1-48.263-16.37q-.507.087-1.026.164c-21.875,3.2-48.063-9.858-67.934-22.917a269,269,0,0,1-30.552-23.4c.753.5,33.112,6.784,60.014,5.437a83.128,83.128,0,0,0,10.943-1.3,79.178,79.178,0,0,1-2.924-21.363V4785.747A79.974,79.974,0,0,1,110.678,4706H527.551a106.705,106.705,0,0,1,106.7,106.691v310.421a79.978,79.978,0,0,1-79.748,79.742Zm-530.307-62.527.009.007Z" transform="translate(241.61 -4693)" fill="#fff"/>
        </g>
        <g id="Group_5074" data-name="Group 5074" transform="translate(427.13 7034.879)">
          <g id="Group_5073" data-name="Group 5073">
            <rect id="Rectangle_857" data-name="Rectangle 857" width="424.317" height="5.337" transform="translate(0.001 410.096)" fill="#006ba2"/>
            <g id="Group_5071" data-name="Group 5071" transform="translate(0 28.196)">
              <path id="Path_14949" data-name="Path 14949" d="M168.952,44.61h157.4v5.336H169.987A44.044,44.044,0,0,0,168.952,44.61Z" transform="translate(97.961 -44.61)" fill="#006ba2"/>
              <path id="Path_14950" data-name="Path 14950" d="M384.111,44.61a27.43,27.43,0,0,0-2.947,5.336H217.491V44.61Z" transform="translate(-217.491 -44.61)" fill="#006ba2"/>
            </g>
            <g id="Group_5072" data-name="Group 5072" transform="translate(174.621)">
              <path id="Path_14951" data-name="Path 14951" d="M238.419,39.3V43.35Q220.3,53.774,216.057,69.784q4.595-2.986,8.356-2.989a13.4,13.4,0,0,1,10.592,5.065,18.454,18.454,0,0,1,4.322,12.391,18.185,18.185,0,0,1-5.681,13.607,19.32,19.32,0,0,1-13.968,5.5q-8.29,0-13.867-7t-5.575-17.408q0-14.669,11.218-26.29A43.067,43.067,0,0,1,238.419,39.3Zm47.516,0V43.35q-18.117,10.424-22.362,26.434Q268.168,66.8,272,66.795a13.344,13.344,0,0,1,10.522,5.065,18.45,18.45,0,0,1,4.316,12.391A18.23,18.23,0,0,1,281.2,97.858a19.211,19.211,0,0,1-13.936,5.5q-8.354,0-13.9-7t-5.543-17.408q0-14.669,11.186-26.29A42.91,42.91,0,0,1,285.935,39.3Z" transform="translate(-200.236 -39.299)" fill="#006ba2"/>
            </g>
          </g>
        </g>
      </g>
    </g>
  </g>
</svg>
