<svg xmlns="http://www.w3.org/2000/svg" xmlns:xlink="http://www.w3.org/1999/xlink" width="1688.597" height="570.033" viewBox="0 0 1688.597 570.033">
  <defs>
    <filter id="Path_15292" x="0" y="0" width="1688.597" height="570.033" filterUnits="userSpaceOnUse">
      <feOffset dy="16" input="SourceAlpha"/>
      <feGaussianBlur stdDeviation="3" result="blur"/>
      <feFlood flood-opacity="0.161"/>
      <feComposite operator="in" in2="blur"/>
      <feComposite in="SourceGraphic"/>
    </filter>
  </defs>
  <g id="Group_5155" data-name="Group 5155" transform="translate(-109 -10864.011)">
    <g id="Group_5114" data-name="Group 5114" transform="translate(37.601 10661.254)">
      <g transform="matrix(1, 0, 0, 1, 71.4, 202.76)" filter="url(#Path_15292)">
        <path id="Path_15292-2" data-name="Path 15292" d="M1644.734,263.419C1532.939,251.293,1541.3,248.594,1384.74,223c-146.85-24.007-327.1-37.509-527.117-37.509-199.984,0-380.226,13.5-527.083,37.509-156.534,25.594-148.165,28.293-259.988,40.418v60.255h-48.2V592.342h48.2V652.61c111.823,12.119,103.454,14.818,259.988,40.405,146.856,24.014,327.1,37.509,527.083,37.509,200.018,0,380.267-13.5,527.117-37.509,156.561-25.587,148.2-28.286,259.995-40.405V592.342h48.218V323.674h-48.218Z" transform="translate(-13.35 -185.49)" fill="#fff"/>
      </g>
      <g id="Group_5111" data-name="Group 5111" transform="translate(100.785 223.142)">
        <path id="Path_15293" data-name="Path 15293" d="M840.243,191.827c193.494,0,374.442,12.858,523.3,37.191,54.687,8.945,88.548,14.967,115.763,19.8,44.386,7.9,67.131,11.949,124.335,18.446V330.01h48.224V551.254h-48.224V614c-57.223,6.5-79.976,10.552-124.382,18.446-27.2,4.842-61.055,10.857-115.715,19.8-148.857,24.339-329.8,37.2-523.3,37.2-193.467,0-374.408-12.858-523.258-37.2-54.626-8.931-88.467-14.954-115.654-19.789C156.9,624.55,134.145,620.5,76.881,614V551.254h-48.2V330.01h48.2V267.266c57.251-6.5,80-10.545,124.4-18.453,27.194-4.835,61.048-10.857,115.708-19.8,148.844-24.333,329.785-37.191,523.251-37.191m0-3.33c-193.657,0-374.781,12.878-523.794,37.238-54.484,8.9-88.29,14.92-115.457,19.755-44.908,7.989-67.3,11.976-124.484,18.466l-2.95.339V326.68h-48.2v227.9h48.2v62.391l2.95.339c57.162,6.49,79.576,10.478,124.24,18.419l.353.061c27.147,4.828,60.933,10.837,115.349,19.735,149.013,24.366,330.137,37.238,523.794,37.238,193.677,0,374.821-12.872,523.834-37.238,54.992-8.986,88.69-14.987,115.763-19.8,44.711-7.948,67.1-11.929,124.179-18.412l2.95-.332v-62.4h48.224V326.68h-48.224V264.3l-2.95-.339c-57.122-6.483-79.515-10.471-124.138-18.412-27.438-4.876-61.265-10.891-115.8-19.809C1215.064,201.375,1033.92,188.5,840.243,188.5Z" transform="translate(-25.361 -188.497)" fill="#ffc400"/>
      </g>
      <g id="Group_5112" data-name="Group 5112" transform="translate(129.339 416.121)">
        <path id="Path_15294" data-name="Path 15294" d="M75.666,251.227a102.128,102.128,0,0,1,10.118-30.165,2.751,2.751,0,0,0-3.75-3.73c-28.137,16.4-40.48,40.324-42.006,59.5-1.329,16.54,9.962,33.583,27.066,36.689a31.471,31.471,0,1,0,8.572-62.3Z" transform="translate(30.273 -216.953)" fill="#6f00b8"/>
        <path id="Path_15295" data-name="Path 15295" d="M65.314,251.227a102.129,102.129,0,0,1,10.118-30.165,2.751,2.751,0,0,0-3.75-3.73c-28.137,16.4-40.473,40.324-42.005,59.5-1.322,16.54,9.962,33.583,27.066,36.689a31.471,31.471,0,1,0,8.572-62.3Z" transform="translate(-29.572 -216.953)" fill="#6f00b8"/>
      </g>
      <g id="Group_5113" data-name="Group 5113" transform="translate(1565.434 428.381)">
        <path id="Path_15296" data-name="Path 15296" d="M269.866,281.573a101.915,101.915,0,0,1-10.125,30.158,2.755,2.755,0,0,0,3.757,3.73c28.137-16.4,40.473-40.317,42.005-59.5,1.322-16.547-9.962-33.59-27.066-36.7a31.474,31.474,0,1,0-8.572,62.3Z" transform="translate(-241.334 -218.761)" fill="#6f00b8"/>
        <path id="Path_15297" data-name="Path 15297" d="M280.215,281.573c-2.543,13.936-6.754,23.953-10.118,30.158a2.754,2.754,0,0,0,3.757,3.73c28.137-16.4,40.473-40.317,42.006-59.5,1.322-16.547-9.962-33.59-27.066-36.7a31.474,31.474,0,1,0-8.579,62.3Z" transform="translate(-181.492 -218.761)" fill="#6f00b8"/>
      </g>
    </g>
  </g>
</svg>
