<svg xmlns="http://www.w3.org/2000/svg" xmlns:xlink="http://www.w3.org/1999/xlink" width="1921.4" height="2559.871" viewBox="0 0 1921.4 2559.871">
  <defs>
    <clipPath id="clip-path">
      <path id="Rectangle" d="M0,2.054S190.891-23.33,502.522,146.95c142.687,77.966,347.513,52.7,453.15,0,163.5-81.572,344.02-107.072,394.141-124.4s234.042-17.326,349.571,0S1921.4,85.416,1921.4,85.416v2470.9s-142.2,42.995-480.421-143.853c-108.446-59.909-341.15-93.059-553.81,21.747-79.189,42.751-289.2,112.712-459.531,112.712C172.447,2546.921,0,2468.958,0,2468.958Z" transform="translate(0 -0.715)" fill="#4a7ced"/>
    </clipPath>
    <linearGradient id="linear-gradient" x1="0.224" y1="0.5" x2="0.78" y2="0.363" gradientUnits="objectBoundingBox">
      <stop offset="0" stop-color="#86a7f3"/>
      <stop offset="1" stop-color="#86a7f3"/>
    </linearGradient>
    <linearGradient id="linear-gradient-2" x1="0.778" y1="-0.963" x2="0.221" y2="-0.963" gradientUnits="objectBoundingBox">
      <stop offset="0" stop-color="#c1d2f9"/>
      <stop offset="1" stop-color="#d6e1fb"/>
    </linearGradient>
    <linearGradient id="linear-gradient-3" x1="0.219" y1="1" x2="0.78" y2="0.85" xlink:href="#linear-gradient"/>
    <clipPath id="clip-path-2">
      <circle id="Ellipse_1880" data-name="Ellipse 1880" cx="643.173" cy="643.173" r="643.173" transform="translate(0 909.583) rotate(-45)" fill="#67a0f1"/>
    </clipPath>
  </defs>
  <g id="Group_7028" data-name="Group 7028" transform="translate(0 -18597.914)">
    <g id="Background" transform="translate(0 18597.914)">
      <path id="Rectangle-2" data-name="Rectangle" d="M0,2.054S190.891-23.33,502.522,146.95c142.687,77.966,347.513,52.7,453.15,0,163.5-81.572,344.02-107.072,394.141-124.4s234.042-17.326,349.571,0S1921.4,85.416,1921.4,85.416v2470.9s-142.2,42.995-480.421-143.853c-108.446-59.909-341.15-93.059-553.81,21.747-79.189,42.751-289.2,112.712-459.531,112.712C172.447,2546.921,0,2468.958,0,2468.958Z" transform="translate(0 -0.715)" fill="#4a7ced"/>
      <g id="Background-2" data-name="Background" transform="translate(0 0)" clip-path="url(#clip-path)">
        <g id="wave2" transform="translate(2747.962 2694.719) rotate(180)">
          <path id="Path" d="M1668.825,360.414c-719.394,472.875-928.262-182.081-1130.073,0C232.859,637.82,0,319.713,0,319.713V0H3528.171V319.713s-219.1,139.774-334.823,156.911c-115.724,17.673-221.569-65.871-267.435-118.353-82.206-92.647-296.366-311.68-474.186-333.1S1737.271,315.964,1668.825,360.414Z" transform="translate(0 0)" opacity="0.33" fill="url(#linear-gradient)"/>
          <path id="Path-2" data-name="Path" d="M2589.677,358.956c-160.531,0-272.375-123.741-455.487-208.546-100.906-46.4-530.284-53.87-896.155,208.546s-323.533-183.478-526.4,0C408.209,630.973,0,212.28,0,212.28V0H3528.171V194.679s-99.494-98.673-324.945-98.673C2858.524,96.539,2736.8,358.956,2589.677,358.956Z" transform="translate(0 2.732)" opacity="0.66" fill="url(#linear-gradient-2)"/>
          <path id="Path-3" data-name="Path" d="M2702.932,155.413C1997.3-153.8,1764.438,507.647,1308.951,260.277,853.817,9.68,853.817,29.039,652.006,110.779c-200.4,81.74-185.229,130.676-334.823,171.546C100.906,342.554,0,0,0,0H3528.171s-34.929,219.945-294.955,258.664S2926.97,252.748,2702.932,155.413Z" transform="translate(0 0)"/>
        </g>
        <g id="wave2-2" data-name="wave2" transform="translate(-740.94 -55.048)">
          <path id="Path-4" data-name="Path" d="M1611.455,242.728C916.792,561.195,715.1,120.1,520.231,242.728,224.854,429.552,0,215.317,0,215.317V0H3406.883V215.317s-211.568,94.134-323.313,105.675c-111.746,11.9-213.953-44.362-258.242-79.707-79.38-62.4-286.178-209.907-457.885-224.334S1677.549,212.792,1611.455,242.728Z" transform="translate(0 2.732)" opacity="0.33" fill="url(#linear-gradient-3)"/>
          <path id="Path-5" data-name="Path" d="M2610.013,105.842c-681.376-210.585-906.231,239.884-1346.059,71.416C824.466,6.592,824.466,19.777,629.592,75.444c-193.511,55.668-178.861,89-323.313,116.829C97.437,233.291,0,0,0,0H3406.883s-33.728,149.79-284.815,176.159S2826.35,172.13,2610.013,105.842Z" transform="translate(0 0)"/>
        </g>
      </g>
    </g>
    <g id="Group_5342" data-name="Group 5342" transform="translate(-543.35 18771.266)" opacity="0.81">
      <g id="Group_5341" data-name="Group 5341" transform="translate(593.766 376.318)">
        <g id="Group_5340" data-name="Group 5340" transform="translate(0)">
          <circle id="Ellipse_1879" data-name="Ellipse 1879" cx="643.173" cy="643.173" r="643.173" transform="translate(0 909.583) rotate(-45)" fill="#67a0f1"/>
          <g id="Group_5339" data-name="Group 5339" clip-path="url(#clip-path-2)">
            <g id="Group_5338" data-name="Group 5338" transform="translate(257.276 305.245)">
              <g id="Group_5334" data-name="Group 5334">
                <path id="Path_15603" data-name="Path 15603" d="M732.764,505.866s97.887-75.561,182.037-27.475,133.952,42.933,79,109.909-73.845,85.866-36.064,115.061,37.609-6.873,59.159-29.2,67.919-24.043,91.962,29.2,63.544,78.993,0,128.8-139.1,128.794-182.033,127.078-80.713,3.437-66.976,56.67,58.387,77.281,99.6,87.586,266.182,65.255,273.051,132.231-147.689,291.946-149.405,348.616,20.606,61.823-5.153,72.128-87.582-75.565-84.145-84.15c0,0-5.9-15.16,5.3-73.637s29.859-124.414-8.707-131.879-105.754-31.106-78.383-79.625,39.813-69.672,33.594-82.113-25.51-28.179-40.44-66.75-90.825-51.549-115.708-65.585-38.11-20.7-56.688-87.88S715.432,772.1,693.038,745.979s-42.3-41.059-42.3-41.059Z" transform="translate(-650.737 -378.97)" fill="#afd16e"/>
                <path id="Path_15604" data-name="Path 15604" d="M740.315,514.241s-13.561,38.128,27.01,43.638c46.044,6.246,91.429,20.778,89.352,70.647s-4.155,95.589,56.106,108.053,49.87-54.024,64.415-64.415,56.106,10.391,72.729-81.038,61.52-119.7,10.391-137.145c-95.977-32.745-111.485,25.041-226.5,22.855C777.725,475.77,751.288,480.58,740.315,514.241Z" transform="translate(-343.441 -443.911)" fill="#afd16e"/>
                <path id="Path_15605" data-name="Path 15605" d="M1045.505,518.092a150.117,150.117,0,0,0-85.31,57.158c-50.673,69.094-143.01,198.882-139.958,223.295,4.2,33.6,16.795,88.187,46.189,90.287,21.392,1.526,86.146-31.413,119.826-49.463a74.839,74.839,0,0,1,44.608-8.355c39.488,4.868,114.944,13.047,121.122,5.324,8.4-10.495,31.494-56.688,50.393-29.394s48.289,60.893,0,60.893-100.786-16.8-100.786,35.694,31.494,165.87,98.687,167.97,58.341-49.318,54.141-59.814-21.568-43.3-17.919-53.369c8.883-24.495,89.754-2.3,89.754,29.2s-4.2,117.577,67.192,130.176,41.285-59.475,48.289-90.287c6.914-30.392,67.193-60.888,73.488,39.894s25.2,71.745,58.793,51.622,35.694-99.91,48.294-112.51,48.289-60.888,48.289-60.888L1536.221,471S1332.57,448.01,1045.505,518.092Z" transform="translate(-55.044 -361.354)" fill="#afd16e"/>
                <path id="Path_15606" data-name="Path 15606" d="M1060.868,590.587s-56.282-28.9-111.042-16.732-98.872,19.776-124.734,66.931-18.841,124.92,0,146.027c32.4,36.3,123.213,15.214,133.861,65.409s60.848,97.354,54.76,135.383-24.336,126.256,41.072,139.944,108-164.28,126.257-190.143,59.322-156.676,10.649-174.929-65.6-52.38-71.5-86.706C1115.8,650.18,1102.839,605.278,1060.868,590.587Z" transform="translate(-97.014 2.448)" fill="#afd16e"/>
              </g>
              <g id="Group_5337" data-name="Group 5337" transform="translate(112.105 39.35)">
                <g id="Group_5335" data-name="Group 5335">
                  <path id="Path_15607" data-name="Path 15607" d="M750.906,625.292c32.465-.018,64,25.118,68.493,57.271s-21.324,66.195-53.74,67.978" transform="translate(-410.655 154.461)" fill="none" stroke="#a7c766" stroke-linecap="round" stroke-linejoin="round" stroke-width="2"/>
                  <path id="Path_15608" data-name="Path 15608" d="M735.047,646.178a35.482,35.482,0,0,0-15.4,32.3c.294,3.071,1.061,6.227,3.053,8.585,2.5,2.967,6.471,4.177,10.247,5.058,18.814,4.4,39.347,4.579,55.555,15.1,23.523,15.268,28.983,52.173,10.892,73.6" transform="translate(-521.084 227.895)" fill="none" stroke="#a7c766" stroke-linecap="round" stroke-linejoin="round" stroke-width="2"/>
                  <path id="Path_15609" data-name="Path 15609" d="M749.14,662.187a136.951,136.951,0,0,1-1.671,96.93" transform="translate(-422.739 284.181)" fill="none" stroke="#a7c766" stroke-linecap="round" stroke-linejoin="round" stroke-width="2"/>
                  <path id="Path_15610" data-name="Path 15610" d="M679.777,554.886c-12.03,42.016,2.29,90.4,35.252,119.1" transform="translate(-675.561 -93.082)" fill="none" stroke="#a7c766" stroke-linecap="round" stroke-linejoin="round" stroke-width="2"/>
                  <path id="Path_15611" data-name="Path 15611" d="M707.624,513.4c-2.028,9.989-3.017,20.687.872,30.112,7.767,18.809,30.8,25.054,50.786,28.924" transform="translate(-569.1 -238.947)" fill="none" stroke="#a7c766" stroke-linecap="round" stroke-linejoin="round" stroke-width="2"/>
                  <path id="Path_15612" data-name="Path 15612" d="M776.894,486.62c-8.124,14.713-8.21,34.475,2.583,47.354s33.02,15.4,44.487,3.112" transform="translate(-339.794 -333.1)" fill="none" stroke="#a7c766" stroke-linecap="round" stroke-linejoin="round" stroke-width="2"/>
                  <path id="Path_15613" data-name="Path 15613" d="M794.053,455.267a40.922,40.922,0,0,1,53.41,51.726" transform="translate(-258.953 -452.625)" fill="none" stroke="#a7c766" stroke-linecap="round" stroke-linejoin="round" stroke-width="2"/>
                  <path id="Path_15614" data-name="Path 15614" d="M756.482,464.295c28.965-9.208,63.386,3.414,79.535,29.159,11.132,17.752,13.665,39.542,22.512,58.54,1.626,3.5,3.554,7,6.593,9.37,3.69,2.872,8.517,3.717,13.128,4.471q15.37,2.52,30.745,5.031c5.8.953,13.742.569,15.051-5.157" transform="translate(-391.05 -422.142)" fill="none" stroke="#a7c766" stroke-linecap="round" stroke-linejoin="round" stroke-width="2"/>
                  <path id="Path_15615" data-name="Path 15615" d="M906.766,583.181c-28.545-6.2-54.3,18.705-68.931,43.985-8.887,15.354-16.185,32.623-14.573,50.289s14.663,35.283,32.339,36.809" transform="translate(-157.046 3.033)" fill="none" stroke="#a7c766" stroke-linecap="round" stroke-linejoin="round" stroke-width="2"/>
                  <path id="Path_15616" data-name="Path 15616" d="M839.827,607.328c17.536,10.54,28.229,29.99,32.713,49.955s3.509,40.693,2.515,61.132l1.63-12.161" transform="translate(-98.014 91.301)" fill="none" stroke="#a7c766" stroke-linecap="round" stroke-linejoin="round" stroke-width="2"/>
                  <path id="Path_15617" data-name="Path 15617" d="M856.54,607.917a99.512,99.512,0,0,1,6.923,61.123" transform="translate(-39.253 93.372)" fill="none" stroke="#a7c766" stroke-linecap="round" stroke-linejoin="round" stroke-width="2"/>
                  <path id="Path_15618" data-name="Path 15618" d="M992.991,488.341c-24.774-4.751-50.732,3.378-71.65,17.481s-37.442,33.752-52.484,54c-15.86,21.351-13.263,57.4-7.478,76.062" transform="translate(-38.004 -331.836)" fill="none" stroke="#a7c766" stroke-linecap="round" stroke-linejoin="round" stroke-width="2"/>
                  <path id="Path_15619" data-name="Path 15619" d="M920.791,498.924c-48.637,7.067-64.095,34.809-32.533,67.409" transform="translate(14.411 -289.84)" fill="none" stroke="#a7c766" stroke-linecap="round" stroke-linejoin="round" stroke-width="2"/>
                  <path id="Path_15620" data-name="Path 15620" d="M932.49,500.646a355.505,355.505,0,0,1,4.295,90.224c-.375,4.683-.976,9.682-4.033,13.25-4.913,5.735-13.67,5.333-21.026,7.036A33.8,33.8,0,0,0,886.6,638.1c-.307,1.924-.086,4.448,1.766,5.04s2.357-3.563.6-2.714" transform="translate(66.048 -283.786)" fill="none" stroke="#a7c766" stroke-linecap="round" stroke-linejoin="round" stroke-width="2"/>
                </g>
                <g id="Group_5336" data-name="Group 5336" transform="translate(30.919 52.401)">
                  <path id="Path_15621" data-name="Path 15621" d="M820.556,495.851c.673-8.928,8.585-19.409,20.461-25.42,6.991-3.54,15.083-6.9,23.56-6.078,10.089.975,17.2,7.483,22.286,13.81s9.773,13.381,18.579,17.043a19.685,19.685,0,0,0,10.73,1.5c5.911-1.061,9.19-5.428,12.473-9.113a53.135,53.135,0,0,1,26.337-15.96c11.015-2.841,24.079-2.113,33.445,2.922,8.223,4.421,13.272,11.773,22.625,14.826" transform="translate(-196.689 -464.229)" fill="none" stroke="#5f9ae4" stroke-linecap="round" stroke-linejoin="round" stroke-width="2"/>
                  <path id="Path_15622" data-name="Path 15622" d="M682.408,625.292c8.96,18.556,19.68,38.765,36.624,43.61a30.89,30.89,0,0,0,16.889-.239,44.754,44.754,0,0,0,22.485-15.476" transform="translate(-682.408 102.06)" fill="none" stroke="#5f9ae4" stroke-linecap="round" stroke-linejoin="round" stroke-width="2"/>
                  <path id="Path_15623" data-name="Path 15623" d="M804.06,646.993c3.459,15.467,19.59,27.877,37.135,28.577s34.84-10.377,39.813-25.5" transform="translate(-254.687 178.359)" fill="none" stroke="#5f9ae4" stroke-linecap="round" stroke-linejoin="round" stroke-width="2"/>
                  <path id="Path_15624" data-name="Path 15624" d="M737.827,492.31c8.323,10.712,19.748,20.408,33.291,21.121s27.886-11.619,24.8-24.824" transform="translate(-487.558 -378.516)" fill="none" stroke="#5f9ae4" stroke-linecap="round" stroke-linejoin="round" stroke-width="2"/>
                  <path id="Path_15625" data-name="Path 15625" d="M837.327,617.728c-14.207,14.383-40.481,14.049-54.318-.691-6.959-7.415-11.028-17.721-19.676-23.076-8.9-5.514-20.231-4.326-30.609-2.949" transform="translate(-505.501 -22.522)" fill="none" stroke="#5f9ae4" stroke-linecap="round" stroke-linejoin="round" stroke-width="2"/>
                </g>
              </g>
            </g>
            <path id="Path_15626" data-name="Path 15626" d="M690.385,1451.966s492.95,60.45,814.43-328.521c284.721-344.5,177.467-640.427,177.467-640.427l294.145,256.753-45.326,564.6-518.5,589.243L814.935,1604.658,684.623,1434.683Z" transform="translate(-274.32 -1.17)" fill="#cfcfcf" opacity="0.59" style="mix-blend-mode: multiply;isolation: isolate"/>
            <path id="Path_15627" data-name="Path 15627" d="M1750.906,814.13s-452.478-95.769-718.742,332.892C796.337,1526.672,941.8,1768.36,941.8,1768.36L615.8,1553.488,584.811,987.921l434.573-653.6L1650.472,540.3l151.979,150.913Z" transform="translate(-625.253 -523.992)" fill="#fff" opacity="0.25"/>
          </g>
        </g>
      </g>
    </g>
  </g>
</svg>
