<svg xmlns="http://www.w3.org/2000/svg" width="1920.446" height="1484.132" viewBox="0 0 1920.446 1484.132">
  <path id="Union_9" data-name="Union 9" d="M402.327,1475.97c-65.059-5.419-117.207-10.839-175.208-6.7C108.7,1477.72,63.228,1470.161,0,1461.1v-65.534H0v-1307H0V23.033a1842.055,1842.055,0,0,0,199.071,7.474c145.527-2.6,177.773-21.739,296.1-23.44C633.255,5.081,651.028,32.023,829.741,37.3c184.015,5.436,187.73-21.9,389.776-33.631,134.4-7.8,224.81-1.654,298.606,4.493,65.057,5.419,117.2,10.838,175.2,6.7,118.424-8.45,163.891-.891,227.118,8.17v154.1H1920V1307h.446v154.1a1842.27,1842.27,0,0,0-199.072-7.475c-145.527,2.6-177.773,21.74-296.1,23.441-138.088,1.985-155.86-24.956-334.572-30.235-184.016-5.435-187.731,21.9-389.777,33.632-45.183,2.622-85.375,3.668-121.655,3.668C507.638,1484.131,451.313,1480.051,402.327,1475.97Z" transform="translate(0 0)" fill="#fff"/>
</svg>
