<?xml version="1.0" encoding="utf-8"?>
<!-- Generator: Adobe Illustrator 16.0.0, SVG Export Plug-In . SVG Version: 6.00 Build 0)  -->
<!DOCTYPE svg PUBLIC "-//W3C//DTD SVG 1.1//EN" "http://www.w3.org/Graphics/SVG/1.1/DTD/svg11.dtd">
<svg version="1.1" id="Layer_1" xmlns="http://www.w3.org/2000/svg" xmlns:xlink="http://www.w3.org/1999/xlink" x="0px" y="0px"
	 width="430.145px" height="444.982px" viewBox="0 0 430.145 444.982" enable-background="new 0 0 430.145 444.982"
	 xml:space="preserve">
<g id="Group_7291" transform="translate(-1749.211 27649.65)">
	<g id="Group_7287" transform="translate(3012.211 388.385)">
		<path id="Path_19833" fill="#473080" d="M-988.672-27593.055h119.868c19.854,0,35.948-14.422,35.948-32.215v-305.516
			c0-17.793-16.095-32.217-35.948-32.217h-358.248c-19.853,0-35.948,14.424-35.948,32.217v305.516
			c0,17.793,16.1,32.215,35.948,32.215h124.227"/>
	</g>
</g>
<g id="Analysis" transform="translate(1229.795 27861.832)">
	<path id="Path_15951" fill="#382B73" d="M-862.688-27635.295c0.282-0.416,0.54-0.846,0.78-1.279l0.013-0.02
		c0.247-0.447,0.47-0.898,0.672-1.367l0,0l0,0c2.773-6.32,1.388-13.693-3.49-18.578l-20.858-20.857v-82.799
		c0.001-4.758-3.854-8.613-8.61-8.613c-0.001,0-0.002,0-0.002,0h-7.758c-5.635-48.885-49.832-83.947-98.717-78.313
		c-41.127,4.74-73.571,37.184-78.312,78.313h-42.026c-4.756,0-8.612,3.855-8.613,8.613v6.281h-33.488c-3.701,0-6.7,3-6.7,6.699
		v81.143c0,3.699,3,6.699,6.7,6.699h33.488v44.301c0,4.756,3.856,8.611,8.613,8.611l0,0h88.532
		c-0.012,4.441-0.592,8.861-1.726,13.152c-0.357,1.361-0.787,2.711-1.252,4.055c-0.094,0.27-0.187,0.539-0.285,0.809
		c-0.5,1.359-1.031,2.709-1.641,4.039l-0.367,0.801h-2.886c-2.688,0-4.866,2.178-4.866,4.867c0,2.688,2.179,4.865,4.866,4.865l0,0
		h66.066c2.688,0,4.866-2.178,4.866-4.865c0-2.689-2.179-4.867-4.866-4.867h-2.887l-0.367-0.801
		c-0.611-1.332-1.147-2.684-1.643-4.041c-0.1-0.268-0.191-0.537-0.283-0.801c-0.465-1.344-0.895-2.699-1.254-4.061l0,0
		c-1.134-4.291-1.714-8.711-1.726-13.148h88.532c4.757,0,8.612-3.857,8.612-8.613l0,0v-5.451l0,0v-10.035
		c6.626,4.232,15.304,3.283,20.858-2.279c0.389-0.389,0.753-0.795,1.094-1.211c0.257-0.311,0.486-0.635,0.717-0.961
		C-862.832-27635.104-862.755-27635.197-862.688-27635.295z"/>
	<g id="Group_5541" transform="translate(93.205 101.167)">
		<g id="Group_5532" transform="translate(40.186 78.971)">
			<path id="Path_15952" fill="#BCBEC0" d="M-1027.576-27800.643h-226.812c-4.757,0-8.613-3.857-8.613-8.613l0,0v-138.242
				c0-4.756,3.856-8.611,8.613-8.613h226.812c4.756,0.002,8.612,3.857,8.612,8.613v138.242c0.002,4.756-3.853,8.611-8.608,8.613
				C-1027.574-27800.643-1027.575-27800.643-1027.576-27800.643z"/>
			<path id="Path_15953" fill="#FFFFFF" d="M-1027.576-27807.533h-226.812c-4.757,0-8.613-3.857-8.613-8.613l0,0v-138.242
				c0-4.756,3.856-8.611,8.613-8.613h226.812c4.756,0.002,8.612,3.857,8.612,8.613v138.242c0.002,4.756-3.852,8.611-8.606,8.613
				C-1027.572-27807.533-1027.574-27807.533-1027.576-27807.533z"/>
			<path id="Path_15954" fill="#D1D3D4" d="M-1110.834-27777.787h-60.292l0.367-0.801c3.702-7.967,5.352-16.732,4.8-25.5h49.963
				c-0.553,8.768,1.098,17.533,4.8,25.5L-1110.834-27777.787z"/>
			<path id="Path_15955" fill="#E6E7E8" d="M-1114.383-27787.492h-53.2c-0.801,3.053-1.865,6.031-3.181,8.898l-0.367,0.801h60.292
				l-0.367-0.801C-1112.518-27781.463-1113.581-27784.441-1114.383-27787.492z"/>
			<path id="Path_15956" fill="#FFFFFF" d="M-1107.95-27768.055h-66.065c-2.687,0-4.865-2.18-4.866-4.865l0,0
				c0-2.688,2.179-4.865,4.866-4.867h66.065c2.688,0.002,4.865,2.18,4.865,4.867l0,0
				C-1103.084-27770.234-1105.262-27768.055-1107.95-27768.055z"/>
			<path id="Path_15957" fill="#1CAEE4" d="M-1027.576-27963.002h-226.812c-4.757,0-8.613,3.857-8.613,8.613v116.277h244.038
				v-116.277C-1018.962-27959.145-1022.819-27963.002-1027.576-27963.002z"/>
			<path id="Path_15958" fill="#009ADD" d="M-1029.587-27954.389h-222.791c-1.903,0-3.446,1.543-3.446,3.447v100.773
				c0,1.902,1.543,3.445,3.446,3.445h222.791c1.903,0,3.446-1.543,3.446-3.445l0,0v-100.773
				C-1026.142-27952.846-1027.684-27954.387-1029.587-27954.389z"/>
			<circle id="Ellipse_1926" fill="#1CAEE4" cx="-1140.982" cy="-27824.33" r="6.245"/>
		</g>
		<path id="Path_15959" fill="#BCBEC0" d="M-978.775-27759.139h-23.976l21.125,21.125c0.865,0.861,1.821,1.625,2.852,2.279
			L-978.775-27759.139z"/>
		<path id="Path_15960" fill="#136DA0" d="M-978.775-27782.582l-9.407-9.406c-2.13-2.125-5.492-2.371-7.91-0.582l-16.9-16.9
			c14.787-19.238,21.087-43.676,17.444-67.664h-176.22c-7.397,48.654,26.047,94.092,74.701,101.488
			c23.998,3.648,48.445-2.65,67.691-17.441l16.9,16.9c-1.805,2.412-1.557,5.787,0.582,7.91l9.141,9.141h23.976v-23.445H-978.775z"/>
		<g id="Group_5537" transform="translate(90.124)">
			<g id="Group_5534">
				<circle id="Ellipse_1927" fill="#FEDE3A" cx="-1173.787" cy="-27873.789" r="63.083"/>
				<path id="Path_15961" fill="#E7AD27" d="M-1218.393-27911.012c24.626-24.637,64.562-24.645,89.197-0.018
					c10.936,10.93,17.475,25.496,18.375,40.93c2.053-34.773-24.475-64.627-59.249-66.678c-34.774-2.053-64.628,24.475-66.68,59.248
					c-0.146,2.475-0.146,4.955,0,7.43C-1235.87-27885.529-1229.335-27900.096-1218.393-27911.012z"/>
				<g id="Group_5533" transform="translate(0.09 0.085)">
					
						<rect id="Rectangle_1114" x="-1119.309" y="-27813.375" transform="matrix(-0.7071 -0.7071 0.7071 -0.7071 17778.1777 -48239.5234)" fill="#FFFFFF" width="35.055" height="23.165"/>
					
						<rect id="Rectangle_1115" x="-1110.871" y="-27813.279" transform="matrix(-0.7071 0.7071 -0.7071 -0.7071 -21545.7363 -46666.9688)" fill="#D1D3D4" width="6.096" height="35.055"/>
					<path id="Path_15962" fill="#EF5A9D" d="M-1110.855-27936.898c-34.806-34.805-91.237-34.805-126.042,0
						c-34.806,34.807-34.806,91.238,0,126.043s91.236,34.805,126.042,0s34.807-91.234,0.003-126.039
						C-1110.853-27936.896-1110.855-27936.896-1110.855-27936.898z M-1218.483-27829.273c-24.636-24.637-24.636-64.578,0-89.215
						c24.636-24.637,64.578-24.637,89.214,0c24.636,24.637,24.636,64.578,0,89.215l0,0c-24.635,24.635-64.577,24.637-89.213,0
						C-1218.482-27829.273-1218.483-27829.273-1218.483-27829.273z"/>
					<path id="Path_15963" fill="#EF5A9D" d="M-1071.842-27748.135l-30.265-30.266c-2.379-2.381-2.379-6.238,0-8.621l15.088-15.088
						c2.381-2.379,6.239-2.379,8.621,0l30.265,30.266c6.547,6.547,6.548,17.16,0.001,23.707c0,0-0.001,0.002-0.001,0.002l0,0
						C-1054.681-27741.59-1065.294-27741.59-1071.842-27748.135z"/>
					<path id="Path_15964" fill="#E43D91" d="M-1063.219-27756.758l-30.265-30.266c-2.379-2.381-2.379-6.238,0-8.621l-8.621,8.621
						c-2.379,2.383-2.379,6.24,0,8.621l30.265,30.266c6.524,6.547,17.122,6.566,23.67,0.041c1.491-1.486,2.689-3.24,3.53-5.172
						C-1050.96-27750.492-1058.336-27751.879-1063.219-27756.758z"/>
					<path id="Path_15965" fill="#E43D91" d="M-1120.653-27927.098c-29.394-29.395-77.049-29.395-106.443-0.002
						c-29.393,29.393-29.393,77.049,0,106.443c29.393,29.393,77.048,29.393,106.443,0l0,0
						C-1091.262-27850.051-1091.262-27897.705-1120.653-27927.098z M-1218.483-27829.271c-24.636-24.637-24.636-64.578,0-89.215
						c24.636-24.635,64.578-24.635,89.214,0c24.636,24.635,24.636,64.578,0,89.215l0,0c-24.635,24.635-64.577,24.635-89.213,0.002
						C-1218.482-27829.271-1218.483-27829.271-1218.483-27829.271z"/>
				</g>
			</g>
			<g id="Group_5535" transform="translate(31.09 78.569)">
				<path id="Path_15966" fill="#E7AD27" d="M-1169.728-27951.645l-37.485,37.486c-4.058,4.053-10.632,4.053-14.688,0
					l-16.035-16.033l-16.636,16.635c-3.444-4.35-6.28-9.15-8.428-14.268l17.719-17.719c4.065-4.055,10.644-4.055,14.709,0
					l16.014,16.014l33.472-33.473l5.679,5.68L-1169.728-27951.645z"/>
			</g>
			<path id="Path_15967" fill="#E7AD27" d="M-1134.69-27846.24l-41.813-41.816c-1.487-1.486-1.486-3.898,0.001-5.385
				c0.715-0.713,1.683-1.113,2.691-1.115h41.816c2.104,0,3.809,1.705,3.809,3.811l0,0v41.814c-0.001,2.105-1.709,3.809-3.813,3.807
				C-1133.009-27845.125-1133.976-27845.527-1134.69-27846.24z"/>
			<g id="Group_5536" transform="translate(28.963 70.543)">
				<path id="Path_15968" fill="#1CAEE4" d="M-1167.605-27951.645l-37.485,37.484c-4.058,4.055-10.632,4.055-14.688,0
					l-16.026-16.031l-19.987,19.986c-1.51-2.336-2.864-4.77-4.054-7.283c-1.253-2.654-2.306-5.398-3.151-8.207l19.846-19.848
					c4.065-4.053,10.644-4.053,14.709,0l16.014,16.016l33.472-33.473l5.68,5.68L-1167.605-27951.645z"/>
			</g>
			<path id="Path_15969" fill="#009ADD" d="M-1138.638-27881.102l-37.485,37.484c-4.058,4.055-10.632,4.055-14.688,0l-16.035-16.033
				l-19.987,19.988c-1.51-2.336-2.864-4.77-4.054-7.283l22.375-22.377c0.927-0.922,2.425-0.922,3.351,0l20.027,20.029
				c0.916,0.922,2.403,0.924,3.323,0.008c0.003-0.002,0.005-0.004,0.007-0.008l37.486-37.484L-1138.638-27881.102z"/>
			
				<rect id="Rectangle_1116" x="-1167.209" y="-27885.324" transform="matrix(-0.7071 0.7071 -0.7071 -0.7071 -21681.6465 -46773.9258)" fill="#136DA0" width="26.812" height="16.054"/>
			<path id="Path_15970" fill="#1CAEE4" d="M-1134.69-27854.268l-41.813-41.814c-1.487-1.488-1.486-3.898,0.001-5.387
				c0.715-0.713,1.683-1.113,2.691-1.113h41.816c2.104,0,3.809,1.705,3.809,3.809l0,0v41.816c-0.001,2.104-1.709,3.809-3.813,3.805
				C-1133.009-27853.152-1133.976-27853.553-1134.69-27854.268z"/>
			<path id="Path_15971" fill="#009ADD" d="M-1134.69-27866.141l-36.443-36.445h-2.68c-2.103,0-3.807,1.707-3.807,3.809
				c0,1.01,0.4,1.979,1.114,2.691l41.813,41.816c1.488,1.488,3.898,1.486,5.386,0c0.714-0.715,1.114-1.684,1.114-2.691v-11.873
				c0,2.104-1.704,3.807-3.807,3.807C-1133.009-27865.027-1133.976-27865.428-1134.69-27866.141z"/>
		</g>
		<path id="Path_15972" fill="#136DA0" d="M-1222.814-27766.563h33.488c3.701,0,6.7-3,6.7-6.699v-81.152c0-3.701-3-6.701-6.7-6.701
			h-33.488V-27766.563z"/>
		<g id="Group_5540" transform="translate(0 93.865)">
			<g id="Group_5539">
				<path id="Path_15973" fill="#FFFFFF" d="M-1189.326-27868.453h-66.976c-3.701,0-6.7-3-6.7-6.701v-81.152
					c0-3.699,3-6.699,6.7-6.699h66.976c3.701,0,6.7,3,6.7,6.699v81.152C-1182.626-27871.453-1185.625-27868.453-1189.326-27868.453
					L-1189.326-27868.453z"/>
				<g id="Group_5538" transform="translate(10.27 60.081)">
					<path id="Path_15974" fill="#D1D3D4" d="M-1206.822-27955.693h-52.524c-2.017,0-3.653-1.635-3.654-3.652c0,0,0-0.002,0-0.002
						l0,0c0-2.018,1.635-3.652,3.652-3.654c0.001,0,0.001,0,0.002,0h52.524c2.017,0,3.653,1.635,3.654,3.652
						c0,0.002,0,0.002,0,0.002l0,0c0,2.018-1.634,3.654-3.652,3.654C-1206.821-27955.693-1206.821-27955.693-1206.822-27955.693z"/>
					<path id="Path_15975" fill="#D1D3D4" d="M-1206.822-27942.461h-52.524c-2.017,0-3.653-1.635-3.654-3.652c0,0,0-0.002,0-0.002
						l0,0c0-2.018,1.635-3.654,3.652-3.654c0.001,0,0.001,0,0.002,0h52.524c2.017,0,3.653,1.635,3.654,3.652c0,0,0,0.002,0,0.002
						l0,0c0,2.018-1.634,3.654-3.652,3.654C-1206.821-27942.461-1206.821-27942.461-1206.822-27942.461z"/>
				</g>
			</g>
			<circle id="Ellipse_1928" fill="#1CAEE4" cx="-1222.814" cy="-27932.143" r="23.077"/>
			<path id="Path_15976" fill="#FEDE3A" d="M-1200.088-27936.023c-0.958-5.641-3.983-10.725-8.486-14.258l-14.242,18.139
				L-1200.088-27936.023z"/>
			<path id="Path_15977" fill="#EF5A9D" d="M-1200.088-27936.018L-1200.088-27936.018l-22.726,3.875l-5.972,22.268
				c12.228,3.363,24.866-3.822,28.229-16.049c0.904-3.287,1.065-6.736,0.471-10.094H-1200.088z"/>
		</g>
	</g>
</g>
</svg>
