<?xml version="1.0" encoding="utf-8"?>
<!-- Generator: Adobe Illustrator 16.0.0, SVG Export Plug-In . SVG Version: 6.00 Build 0)  -->
<!DOCTYPE svg PUBLIC "-//W3C//DTD SVG 1.1//EN" "http://www.w3.org/Graphics/SVG/1.1/DTD/svg11.dtd">
<svg version="1.1" id="Layer_1" xmlns="http://www.w3.org/2000/svg" xmlns:xlink="http://www.w3.org/1999/xlink" x="0px" y="0px"
	 width="430.145px" height="497.412px" viewBox="0 0 430.145 497.412" enable-background="new 0 0 430.145 497.412"
	 xml:space="preserve">
<g id="Group_7300" transform="translate(-1964.211 28752.195)">
	<g id="Group_7287" transform="translate(3012.211 388.385)">
		<path id="Path_19833" fill="#473080" d="M-773.672-28643.168h119.868c19.854,0,35.948-14.422,35.948-32.215v-305.516
			c0-17.793-16.095-32.217-35.948-32.217h-358.248c-19.853,0-35.948,14.424-35.948,32.217v305.516
			c0,17.793,16.1,32.215,35.948,32.215h124.227"/>
	</g>
</g>
<g id="Social_Media" transform="translate(1041.556 28948.527)">
	<g id="Group_6730" transform="translate(66.444 64.587)">
		<g id="Group_6704" transform="translate(71.008 63.665)">
			<rect id="Rectangle_1246" x="-971.372" y="-29013.113" fill="#EF5A9D" width="14.153" height="185.11"/>
			<path id="Path_18650" fill="#EF5A9D" d="M-880.59-28960.705l-32.259,18.611l-37.275,21.535l-7.094,4.086l-7.077,4.088
				l-7.077,4.086l-47.274,27.295l-22.26,12.852l-7.094-12.26l25.081-14.475l44.453-25.672l7.094-4.086l7.077-4.088l7.077-4.088
				l35.755-20.637l33.779-19.51L-880.59-28960.705z"/>
			<path id="Path_18651" fill="#EF5A9D" d="M-880.59-28880.412l-7.094,12.262l-22.256-12.854l-47.278-27.293l-7.077-4.088
				l-7.077-4.086l-7.094-4.088l-37.274-21.535l-32.26-18.611l7.094-12.262l33.779,19.506l35.755,20.641l7.077,4.086l7.077,4.086
				l7.094,4.088l44.453,25.672L-880.59-28880.412z"/>
			<path id="Path_18652" fill="#A72973" d="M-905.671-28894.887c-0.849,4.785-2.284,9.447-4.272,13.883l-47.275-27.297v62.053
				c-4.701,0.563-9.452,0.563-14.153,0v-62.053l-47.274,27.301c-1.989-4.436-3.424-9.098-4.273-13.883l44.453-25.672l-37.275-21.535
				c9.415-16.119,25.835-26.902,44.369-29.135c4.701-0.563,9.452-0.563,14.153,0c18.534,2.232,34.953,13.016,44.369,29.135
				l-37.275,21.535L-905.671-28894.887z"/>
			<path id="Path_18653" fill="#D1D3D4" d="M-904.759-28920.488c0-0.023,0-0.047,0-0.07c0-32.883-26.656-59.539-59.539-59.539
				s-59.539,26.656-59.539,59.539c0,0.023,0,0.047,0,0.07s0,0.047,0,0.074c0,0.025,0,0.047,0,0.072s0,0.047,0,0.07
				c0,0.025,0,0.047,0,0.072c0,0.027,0,0.047,0,0.074c0,0.025,0,0.047,0,0.07s0,0.047,0,0.074c0,0.025,0,0.047,0,0.072
				s0,0.047,0,0.07c0,0.025,0,0.049,0,0.072s0,0.047,0,0.072s0,0.047,0,0.072c0,0.027,0,0.047,0,0.072c0,0.023,0,0.047,0,0.072
				c0,0.027,0,0.047,0,0.074c0,0.025,0,0.047,0,0.072s0,0.047,0,0.07c0,0.025,0,0.047,0,0.072c0,0.027,0,0.049,0,0.074
				s0,0.047,0,0.07c0,0.025,0,0.047,0,0.074c0,0.025,0,0.047,0,0.072s0,0.047,0,0.072c0,0.023,0,0.047,0,0.072s0,0.047,0,0.072
				c0,0.027,0,0.047,0,0.07c0,0.025,0,0.047,0,0.074c0,0.025,0,0.047,0,0.072s0,0.049,0,0.074s0,0.047,0,0.072
				c0,0.027,0,0.047,0,0.074c0,0.025,0,0.047,0,0.072s0,0.047,0,0.07c0,0.025,0,0.047,0,0.072c0,0.027,0,0.047,0,0.074
				c0,0.025,0,0.047,0,0.07s0,0.047,0,0.07c0,0.025,0,0.049,0,0.074s0,0.047,0,0.072c0,0.027,0,0.049,0,0.072s0,0.047,0,0.072
				s0,0.047,0,0.072c0,0.027,0,0.047,0,0.072c0,0.023,0,0.047,0,0.07c0,0.025,0,0.047,0,0.072c0,0.027,0,0.047,0,0.072
				c0,0.023,0,0.047,0,0.07c0,0.025,0,0.047,0,0.072c0,0.027,0,0.049,0,0.074s0,0.047,0,0.07s0,0.047,0,0.074
				c0,0.025,0,0.047,0,0.072s0,0.047,0,0.072c0,0.023,0,0.047,0,0.07s0,0.047,0,0.072s0,0.047,0,0.072c0,0.023,0,0.047,0,0.07
				s0,0.047,0,0.072s0,0.047,0,0.072c0,0.027,0,0.049,0,0.072s0,0.047,0,0.072c0,0.027,0,0.047,0,0.074c0,0.025,0,0.047,0,0.072
				s0,0.047,0,0.072c0,0.023,0,0.047,0,0.072s0,0.047,0,0.072c0,0.027,0,0.047,0,0.07c0,0.025,0,0.047,0,0.074
				c0,0.025,0,0.047,0,0.072s0,0.049,0,0.072s0,0.047,0,0.072s0,0.047,0,0.072c0,0.027,0,0.047,0,0.072c0,0.023,0,0.047,0,0.072
				c0,0.027,0,0.047,0,0.074c0,0.025,0,0.047,0,0.07s0,0.047,0,0.072s0,0.047,0,0.072c0,0.027,0,0.049,0,0.074s0,0.047,0,0.07
				s0,0.047,0,0.074c0,0.025,0,0.047,0,0.072s0,0.047,0,0.072c0,0.023,0,0.047,0,0.07s0,0.047,0,0.072s0,0.047,0,0.072
				c0,0.027,0,0.047,0,0.072c0,0.023,0,0.047,0,0.072c0,0.027,0,0.047,0,0.074c0,0.025,0,0.047,0,0.07s0,0.047,0,0.074
				c0,0.025,0,0.047,0,0.072s0,0.047,0,0.07c0,32.883,26.656,59.539,59.539,59.539s59.539-26.656,59.539-59.539
				c0-0.023,0-0.047,0-0.07c0-0.025,0-0.047,0-0.072c0-0.027,0-0.049,0-0.074s0-0.047,0-0.07c0-0.025,0-0.047,0-0.074
				c0-0.025,0-0.047,0-0.072s0-0.047,0-0.072c0-0.023,0-0.047,0-0.072s0-0.047,0-0.072c0-0.027,0-0.047,0-0.07
				c0-0.025,0-0.047,0-0.072c0-0.023,0-0.047,0-0.072c0-0.027,0-0.047,0-0.074c0-0.025,0-0.047,0-0.07s0-0.047,0-0.074
				c0-0.025,0-0.047,0-0.072s0-0.047,0-0.072c0-0.027,0-0.047,0-0.07c0-0.025,0-0.047,0-0.074c0-0.025,0-0.047,0-0.072
				s0-0.047,0-0.072c0-0.023,0-0.047,0-0.072s0-0.047,0-0.072c0-0.027,0-0.047,0-0.072c0-0.023,0-0.047,0-0.072
				c0-0.027,0-0.047,0-0.074c0-0.025,0-0.047,0-0.07s0-0.047,0-0.072s0-0.047,0-0.072c0-0.027,0-0.047,0-0.072
				c0-0.023,0-0.047,0-0.072c0-0.027,0-0.047,0-0.074c0-0.025,0-0.047,0-0.072s0-0.047,0-0.072c0-0.023,0-0.047,0-0.072
				s0-0.047,0-0.072c0-0.027,0-0.047,0-0.07c0-0.025,0-0.047,0-0.072c0-0.023,0-0.047,0-0.072c0-0.027,0-0.047,0-0.07
				c0-0.025,0-0.047,0-0.072c0-0.023,0-0.047,0-0.072c0-0.027,0-0.047,0-0.074c0-0.025,0-0.047,0-0.07s0-0.047,0-0.074
				c0-0.025,0-0.047,0-0.072s0-0.047,0-0.07c0-0.025,0-0.047,0-0.072c0-0.023,0-0.047,0-0.072s0-0.047,0-0.07
				c0-0.025,0-0.047,0-0.072c0-0.023,0-0.047,0-0.072s0-0.047,0-0.072c0-0.027,0-0.047,0-0.072c0-0.023,0-0.047,0-0.072
				s0-0.047,0-0.074c0-0.025,0-0.047,0-0.07s0-0.047,0-0.07s0-0.047,0-0.074c0-0.025,0-0.047,0-0.072s0-0.047,0-0.07
				c0-0.025,0-0.047,0-0.072c0-0.027,0-0.047,0-0.074c0-0.025,0-0.047,0-0.072s0-0.049,0-0.074s0-0.047,0-0.072
				c0-0.027,0-0.047,0-0.074c0-0.025,0-0.047,0-0.07s0-0.047,0-0.072s0-0.047,0-0.072c0-0.027,0-0.047,0-0.072
				c0-0.023,0-0.047,0-0.072c0-0.027,0-0.047,0-0.074c0-0.025,0-0.047,0-0.07s0-0.047,0-0.074c0-0.025,0-0.047,0-0.072
				s0-0.047,0-0.07c0-0.025,0-0.047,0-0.072c0-0.027,0-0.047,0-0.074c0-0.025,0-0.047,0-0.072s0-0.047,0-0.072
				c0-0.023,0-0.047,0-0.072s0-0.047,0-0.072c0-0.027,0-0.047,0-0.072c0-0.023,0-0.047,0-0.07s0-0.047,0-0.072
				c0-0.027,0-0.047,0-0.074c0-0.025,0-0.047,0-0.07s0-0.047,0-0.074c0-0.025,0-0.047,0-0.072s0-0.047,0-0.07
				c0-0.025,0-0.047,0-0.072C-904.759-28920.441-904.759-28920.463-904.759-28920.488z"/>
			<circle id="Ellipse_2256" fill="#FFFFFF" cx="-964.296" cy="-28920.561" r="59.537"/>
			<path id="Path_18654" fill="#E6E7E8" d="M-922.735-28890.859c0-0.012,0-0.021,0-0.031c0-0.025-0.008-0.051-0.015-0.076
				c-0.028-0.16-0.067-0.316-0.116-0.471c-0.006-0.02-0.008-0.035-0.013-0.055l-3.805-11.35c-1.392-4.152-4.257-7.65-8.054-9.834
				l-14.484-6.67l-0.573-0.264l-0.948-0.436l0,0l0,0h-0.006l0,0l-1.252-1l-0.557-0.447c-0.225-0.182-0.498-0.289-0.784-0.313
				c-0.01,0-0.022,0-0.032,0v-5.461c1.043-1.131,1.973-2.359,2.775-3.67c0.361-0.592,0.699-1.201,1.021-1.834
				c0.549-1.096,1.025-2.227,1.426-3.385c0.169,0.068,0.344,0.123,0.521,0.162c2.579,0.465,5.155-1.84,5.754-5.156
				c0.053-0.311,0.086-0.627,0.1-0.943c0,0.02,0.006,0.035,0.008,0.053c0-0.039,0-0.078,0-0.117c0-0.068,0.02-0.137,0.02-0.199
				c0-0.156-0.019-0.301-0.023-0.457c-0.006-0.156-0.01-0.313-0.027-0.469c-0.008-0.072,0-0.148-0.012-0.223
				c0,0.004,0,0.006,0,0.008c-0.02-0.137-0.057-0.266-0.081-0.398c-0.03-0.16-0.063-0.313-0.101-0.467
				c-0.049-0.184-0.1-0.361-0.168-0.535c-0.057-0.154-0.121-0.299-0.187-0.449c-0.065-0.148-0.146-0.311-0.228-0.457
				c-0.084-0.146-0.178-0.285-0.274-0.422s-0.175-0.252-0.272-0.365c-0.117-0.133-0.241-0.258-0.373-0.375
				c-0.1-0.092-0.19-0.188-0.3-0.27c-0.159-0.117-0.329-0.223-0.505-0.316c-0.093-0.051-0.177-0.113-0.275-0.158
				c-0.66-0.314-1.402-0.408-2.119-0.271c-0.326-3.563-1.632-6.963-3.773-9.826v-0.006l0,0l0,0c-0.016-0.02-0.031-0.039-0.047-0.057
				c-0.081-0.1-0.167-0.201-0.25-0.307s-0.145-0.18-0.221-0.27l-0.006,0.012c-0.246-0.289-0.485-0.584-0.748-0.852
				c-0.399-0.41-0.82-0.801-1.26-1.17c-0.047-0.039-0.1-0.072-0.148-0.111c-0.117-0.094-0.242-0.18-0.36-0.27
				c-0.368-0.285-0.741-0.557-1.132-0.813c-0.171-0.109-0.348-0.207-0.521-0.313c-0.354-0.211-0.711-0.412-1.08-0.6
				c-0.199-0.1-0.406-0.201-0.615-0.289c-0.357-0.162-0.723-0.311-1.094-0.449c-0.221-0.082-0.44-0.162-0.664-0.236
				c-0.379-0.121-0.764-0.227-1.154-0.324c-0.225-0.059-0.448-0.119-0.678-0.168c-0.424-0.09-0.855-0.152-1.289-0.211
				c-0.2-0.027-0.4-0.066-0.601-0.086c-1.296-0.141-2.604-0.141-3.9,0c-0.2,0.02-0.4,0.059-0.6,0.086
				c-0.436,0.059-0.868,0.121-1.294,0.211c-0.23,0.049-0.453,0.111-0.677,0.168c-0.39,0.1-0.775,0.199-1.154,0.324
				c-0.225,0.074-0.444,0.154-0.665,0.236c-0.371,0.137-0.738,0.287-1.1,0.449c-0.206,0.092-0.41,0.186-0.611,0.289
				c-0.37,0.186-0.728,0.387-1.083,0.6c-0.174,0.1-0.35,0.199-0.52,0.313c-0.392,0.252-0.768,0.529-1.14,0.816
				c-0.115,0.09-0.236,0.17-0.35,0.262c-0.049,0.039-0.1,0.074-0.149,0.111c-0.44,0.367-0.861,0.758-1.26,1.17
				c-0.262,0.27-0.5,0.564-0.748,0.855l-0.007-0.012c-0.074,0.086-0.144,0.178-0.216,0.266c-0.083,0.102-0.169,0.201-0.25,0.309
				l-0.051,0.061v0.004c-2.133,2.852-3.437,6.238-3.766,9.783c-0.349-0.037-0.702-0.027-1.049,0.031
				c-0.304,0.057-0.6,0.15-0.88,0.279c-0.1,0.045-0.182,0.109-0.275,0.16c-0.176,0.092-0.345,0.197-0.505,0.314
				c-0.1,0.082-0.2,0.178-0.3,0.27c-0.131,0.117-0.256,0.244-0.373,0.375c-0.1,0.115-0.184,0.242-0.272,0.367
				s-0.189,0.273-0.274,0.422s-0.157,0.299-0.228,0.455s-0.13,0.301-0.186,0.451c-0.064,0.174-0.118,0.352-0.167,0.535
				c-0.041,0.154-0.074,0.307-0.1,0.465c-0.025,0.137-0.062,0.264-0.081,0.402c0,0,0-0.008,0-0.012
				c-0.01,0.074-0.005,0.15-0.012,0.223c-0.015,0.154-0.02,0.313-0.025,0.469c-0.005,0.156-0.027,0.301-0.024,0.457
				c0,0.066,0.017,0.135,0.02,0.199c0,0.039,0,0.078,0,0.117c0-0.02,0.005-0.035,0.007-0.053c0.014,0.316,0.047,0.633,0.1,0.943
				c0.6,3.313,3.175,5.621,5.754,5.156c0.117-0.029,0.232-0.066,0.346-0.109c0.396,1.141,0.866,2.254,1.405,3.332
				c0.319,0.629,0.66,1.242,1.022,1.832c0.802,1.311,1.731,2.539,2.773,3.668v5.465c-0.15,0.008-0.297,0.039-0.437,0.092
				c-0.135,0.053-0.261,0.127-0.375,0.217l-0.549,0.441l-1.262,1.012l0,0l-16.013,7.375c-0.942,0.543-1.834,1.17-2.663,1.873l0,0
				c-0.544,0.469-1.06,0.971-1.544,1.5c-0.122,0.133-0.242,0.266-0.358,0.4c-0.116,0.135-0.247,0.262-0.36,0.4
				c-0.794,0.977-1.482,2.035-2.054,3.158c-0.083,0.16-0.162,0.32-0.24,0.484c-0.318,0.652-0.596,1.324-0.831,2.012l-3.805,11.352
				c-0.053,0.166-0.095,0.336-0.125,0.508c-0.007,0.035-0.014,0.074-0.019,0.109c0,0.016,0,0.029,0,0.043
				c-0.01,0.074-0.012,0.145-0.017,0.219c-0.005,0.074-0.014,0.121-0.015,0.182c0,0.012-0.007,0.025-0.007,0.039s0,0.012,0,0.021
				v0.016c0,0.063,0.01,0.125,0.014,0.188c0,0.047-0.005,0.092,0,0.137c0.005,0.047,0.015,0.07,0.02,0.102s0,0.055,0.007,0.082
				c0,0.008,0,0.02,0,0.027c0.015,0.1,0.041,0.188,0.062,0.281c0,0.018,0.008,0.035,0.012,0.051c0.014,0.051,0.015,0.1,0.03,0.154
				c0,0.014,0.012,0.023,0.015,0.037c0.003,0.012,0,0.012,0,0.02c0,0.006,0,0,0-0.006l0.01,0.025
				c0.048,0.141,0.105,0.281,0.171,0.414c0.03,0.066,0.056,0.137,0.09,0.201c0.105,0.195,0.229,0.381,0.368,0.555
				c0.15,0.184,0.317,0.35,0.5,0.5c0.254,0.201,0.535,0.367,0.834,0.492c0.039,0.018,0.069,0.049,0.11,0.064
				c0.117,0.045,0.237,0.086,0.36,0.121l33.424,9.363l0,0l0.122,0.035l0.613,0.172l0,0c0.4,0.109,0.79,0.207,1.191,0.289
				c0.401,0.082,0.8,0.152,1.2,0.207c0.056,0.008,0.113,0.004,0.169,0.012c0.1,0.012,0.193,0.008,0.287,0.02l0.014,0.018
				c0.263,0.029,0.525,0.061,0.79,0.078l-0.014-0.041c0.4,0.027,0.794,0.08,1.192,0.08l0,0c0.356,0,0.711-0.014,1.066-0.035
				c0.037,0,0.074-0.01,0.111-0.012v0.008c0.264-0.018,0.527-0.049,0.789-0.078l0.015-0.018c0.149-0.016,0.3-0.012,0.454-0.031
				c0.128-0.016,0.257-0.045,0.385-0.066c0.1-0.014,0.2-0.033,0.301-0.051c0.168-0.031,0.34-0.053,0.508-0.088
				c0.399-0.084,0.794-0.18,1.184-0.289c0.002-0.002,0.006-0.002,0.008,0l34.159-9.568c1.165-0.326,2.085-1.221,2.446-2.375l0,0
				c0-0.004,0-0.008,0-0.01c0.023-0.076,0.035-0.154,0.054-0.232c0.022-0.096,0.051-0.188,0.065-0.283c0-0.006,0-0.014,0-0.021
				s0-0.037,0-0.057C-922.698-28890.207-922.696-28890.535-922.735-28890.859z"/>
			<g id="Group_6703" transform="translate(42.099 45.296)">
				<g id="Group_6702" transform="translate(0.001)">
					<path id="Path_18655" fill="#D1D3D4" d="M-967.407-28935.586l-34.159,9.568c-3.159,0.885-6.5,0.885-9.659,0l-34.158-9.568
						c-1.904-0.531-3.015-2.506-2.483-4.41c0.017-0.059,0.034-0.117,0.054-0.176l3.805-11.35c1.392-4.152,4.257-7.65,8.053-9.834
						l16.013-7.375h27.093l16.012,7.375c3.797,2.184,6.662,5.682,8.053,9.834l3.805,11.352c0.629,1.873-0.381,3.902-2.254,4.531
						C-967.291-28935.619-967.348-28935.602-967.407-28935.586z"/>
					<rect id="Rectangle_1247" x="-1017.317" y="-28980.977" fill="#E7AD27" width="21.846" height="19.874"/>
					<path id="Path_18656" fill="#009ADD" d="M-1004.247-28958.324h-4.299l-3.415,32.1l0.735,0.205c3.159,0.887,6.501,0.887,9.659,0
						l0.734-0.205L-1004.247-28958.324z"/>
					<path id="Path_18657" fill="#136DA0" d="M-1004.247-28958.324h-4.299l-0.5,4.693l0.115,0.117c1.397,1.398,3.665,1.398,5.063,0
						c0,0,0,0,0.001,0l0.116-0.117L-1004.247-28958.324z"/>
					<path id="Path_18658" fill="#1CAEE4" d="M-1001.199-28958.328l-2.662,2.664c-1.397,1.396-3.665,1.396-5.063,0l0,0l-2.662-2.664
						c-0.28-0.277-0.28-0.732,0-1.012c0,0,0,0,0,0l5.194-5.195l5.194,5.195
						C-1000.921-28959.059-1000.921-28958.607-1001.199-28958.328z"/>
					<path id="Path_18659" fill="#EF5A9D" d="M-992.848-28968.729l16.014,7.377c3.797,2.182,6.662,5.68,8.053,9.832l3.805,11.352
						c0.629,1.875-0.381,3.904-2.256,4.533c-0.057,0.018-0.115,0.037-0.173,0.053l-34.159,9.568
						c-1.572,0.439-3.197,0.664-4.83,0.664L-992.848-28968.729z"/>
					<path id="Path_18660" fill="#EF5A9D" d="M-1019.941-28968.729l-16.013,7.377c-3.796,2.182-6.662,5.68-8.053,9.832
						l-3.805,11.352c-0.629,1.875,0.381,3.904,2.256,4.533c0.057,0.018,0.115,0.037,0.173,0.053l34.158,9.568
						c1.572,0.439,3.197,0.664,4.83,0.664L-1019.941-28968.729z"/>
					<path id="Path_18661" fill="#F06EA9" d="M-1047.957-28939.557c-0.025,0.17-0.04,0.338-0.042,0.51v0.008
						c0.001,0.17,0.014,0.342,0.039,0.512c0,0.02,0.005,0.039,0.008,0.059c0.027,0.172,0.068,0.344,0.12,0.51
						c0.007-0.021,0.012-0.045,0.019-0.066l3.805-11.35c1.392-4.152,4.257-7.65,8.053-9.834l16.013-7.377h0.671l-0.671-2.146
						l-14.478,6.668l-1.535,0.707c-3.796,2.184-6.661,5.682-8.053,9.834l-3.805,11.352c-0.053,0.164-0.095,0.334-0.125,0.506
						C-1047.945-28939.629-1047.952-28939.592-1047.957-28939.557z"/>
					<path id="Path_18662" fill="#F06EA9" d="M-964.837-28939.57c0-0.025-0.008-0.051-0.014-0.076
						c-0.029-0.178-0.072-0.354-0.13-0.525l-3.805-11.35c-1.392-4.152-4.257-7.65-8.054-9.834l-15.055-6.934l-0.955-0.441
						l-0.672,2.148h0.672l16.01,7.375c3.797,2.182,6.662,5.68,8.054,9.832l3.805,11.352c0.007,0.023,0.013,0.045,0.019,0.066
						c0.055-0.172,0.096-0.348,0.123-0.525c0-0.006,0-0.014,0-0.021C-964.782-28938.857-964.782-28939.217-964.837-28939.57z"/>
					<g id="Group_6698" transform="translate(28.058 42.616)">
						<path id="Path_18663" fill="#E6E7E8" d="M-1034.453-29007.148l-8.726,11.131l-4.824-15.326l1.814-1.455
							c0.458-0.367,1.095-0.418,1.606-0.127L-1034.453-29007.148z"/>
					</g>
					<g id="Group_6699" transform="translate(41.611 42.616)">
						<path id="Path_18664" fill="#E6E7E8" d="M-1048.003-29007.148l8.724,11.131l4.818-15.326l-1.809-1.455
							c-0.459-0.367-1.097-0.418-1.608-0.127L-1048.003-29007.148z"/>
					</g>
					<path id="Path_18665" fill="#FFFFFF" d="M-996.264-28968.541c0.512-0.293,1.15-0.242,1.608,0.127l1.364,1.102l0.445-1.412
						l-1.81-1.455c-0.46-0.367-1.097-0.418-1.608-0.127l-10.128,5.775l0.958,1.223L-996.264-28968.541z"/>
					<path id="Path_18666" fill="#FFFFFF" d="M-1016.519-28968.541c-0.51-0.293-1.148-0.242-1.606,0.127l-1.365,1.102l-0.444-1.412
						l1.809-1.455c0.458-0.367,1.095-0.418,1.606-0.127l10.125,5.777l-0.958,1.223L-1016.519-28968.541z"/>
					
						<ellipse id="Ellipse_2257" transform="matrix(-0.1779 -0.9841 0.9841 -0.1779 27322.2246 -35155.3633)" fill="#F7CB15" cx="-1023.93" cy="-28990.678" rx="6.095" ry="4.746"/>
					
						<ellipse id="Ellipse_2258" transform="matrix(-0.9841 -0.1779 0.1779 -0.9841 3195.3914 -57694.875)" fill="#F7CB15" cx="-988.626" cy="-28990.68" rx="4.746" ry="6.095"/>
					<path id="Path_18667" fill="#FFF335" d="M-1025.031-28995.652c2.579-0.467,5.155,1.84,5.754,5.154
						c0.05,0.295,0.084,0.592,0.1,0.889c0.046-0.639,0.013-1.281-0.1-1.914c-0.6-3.313-3.175-5.621-5.754-5.154
						c-2.346,0.424-3.88,3-3.689,5.951C-1028.54-28993.229-1027.1-28995.277-1025.031-28995.652z"/>
					<path id="Path_18668" fill="#FFF335" d="M-993.314-28990.498c0.601-3.313,3.175-5.621,5.754-5.154
						c2.069,0.375,3.509,2.422,3.688,4.928c0.191-2.955-1.342-5.529-3.688-5.953c-2.579-0.465-5.155,1.842-5.754,5.156
						c-0.112,0.631-0.146,1.275-0.101,1.914C-993.398-28989.906-993.364-28990.203-993.314-28990.498z"/>
					<path id="Path_18669" fill="#E7AD27" d="M-1022.862-28986.611c-2.579,0.467-5.155-1.842-5.754-5.154
						c-0.025-0.143-0.042-0.283-0.059-0.424c-0.103,0.783-0.083,1.578,0.059,2.355c0.6,3.313,3.175,5.621,5.754,5.154
						c2.469-0.445,4.04-3.273,3.645-6.418C-1019.526-28988.799-1020.916-28986.965-1022.862-28986.611z"/>
					<path id="Path_18670" fill="#E7AD27" d="M-983.975-28991.766c-0.6,3.313-3.175,5.621-5.754,5.154
						c-1.947-0.35-3.337-2.184-3.645-4.486c-0.4,3.148,1.177,5.973,3.645,6.418c2.579,0.467,5.155-1.84,5.754-5.154
						c0.143-0.777,0.162-1.572,0.059-2.355C-983.933-28992.049-983.948-28991.908-983.975-28991.766z"/>
					<path id="Path_18671" fill="#FEDE3A" d="M-1006.395-29013.115c-9.8,0-17.749,7.35-17.749,19.088
						c0,11.742,7.947,23.426,17.749,23.426c9.803,0,17.749-11.684,17.749-23.426
						C-988.646-29005.766-996.591-29013.115-1006.395-29013.115z"/>
					<path id="Path_18672" fill="#F7CB15" d="M-1006.395-28974.006c-9.325,0-16.964-10.572-17.688-21.705
						c-0.037,0.551-0.061,1.109-0.061,1.684c0,11.738,7.947,23.424,17.749,23.424c9.803,0,17.749-11.686,17.749-23.424
						c0-0.574-0.024-1.133-0.062-1.684C-989.435-28984.578-997.07-28974.006-1006.395-28974.006z"/>
					<path id="Path_18673" fill="#1CAEE4" d="M-1006.395-29013.115c-5.393-0.092-10.514,2.361-13.824,6.619
						c4.579,7.635,14.479,10.111,22.114,5.533c2.271-1.361,4.171-3.264,5.533-5.533
						C-995.882-29010.754-1001.003-29013.207-1006.395-29013.115z"/>
					<path id="Path_18674" fill="#1CAEE4" d="M-1006.395-29013.115c-5.393-0.092-10.514,2.361-13.824,6.619
						c4.579,7.635,14.479,10.111,22.114,5.533c2.271-1.361,4.171-3.264,5.533-5.533
						C-995.882-29010.754-1001.003-29013.207-1006.395-29013.115z"/>
					<path id="Path_18675" fill="#009ADD" d="M-1006.395-29000.105c-5.324,0.004-10.305-2.627-13.306-7.023
						c-0.176,0.207-0.351,0.414-0.517,0.633c4.58,7.635,14.481,10.111,22.116,5.531c2.27-1.361,4.17-3.262,5.531-5.531
						c-0.167-0.215-0.342-0.426-0.518-0.633C-996.09-29002.73-1001.071-29000.102-1006.395-29000.105z"/>
					<path id="Path_18676" fill="#F06EA9" d="M-980.173-28938.988h-9.549c-0.561,0-1.015-0.453-1.015-1.016l0,0
						c0-0.559,0.454-1.014,1.015-1.014h9.549c0.561,0,1.016,0.455,1.016,1.014l0,0
						C-979.157-28939.441-979.612-28938.988-980.173-28938.988z"/>
					<path id="Path_18677" fill="#1CAEE4" d="M-1022.734-28987.094c0.348,0,0.629-0.285,0.627-0.633c0-0.035-0.003-0.07-0.009-0.105
						c-0.217-1.309-0.327-2.633-0.328-3.957c0-10.621,7.188-17.268,16.055-17.268c8.867,0,16.054,6.648,16.054,17.268
						c-0.001,1.324-0.111,2.648-0.328,3.957c-0.06,0.344,0.169,0.668,0.512,0.73c0.035,0.006,0.07,0.008,0.107,0.008l0,0
						c0.291,0.002,0.547-0.197,0.617-0.48c0.516-2.111,0.779-4.277,0.785-6.453c0-11.738-7.947-19.088-17.749-19.088
						s-17.749,7.35-17.749,19.088c0.005,2.176,0.269,4.342,0.787,6.453c0.069,0.283,0.324,0.482,0.616,0.48H-1022.734z"/>
					<g id="Group_6700" transform="translate(24.576 8.009)">
						<path id="Path_18678" fill="#009ADD" d="M-1019.374-29013.115c-0.145,0.172-0.285,0.344-0.438,0.51
							c3.295,3.43,5.063,8.047,4.9,12.801c-0.002,1.324-0.111,2.648-0.328,3.957c-0.061,0.344,0.168,0.668,0.51,0.73
							c0.036,0.004,0.072,0.008,0.107,0.008c0.129-0.002,0.254-0.043,0.358-0.117c0.217-1.348,0.327-2.709,0.329-4.074
							C-1013.937-29005.195-1016.032-29009.936-1019.374-29013.115z"/>
						<path id="Path_18679" fill="#009ADD" d="M-1042.129-29012.604c-0.15-0.166-0.294-0.338-0.436-0.51
							c-3.342,3.18-5.435,7.92-5.435,13.82c0.002,1.365,0.112,2.727,0.329,4.074c0.28,0.201,0.67,0.137,0.87-0.145
							c0.099-0.137,0.137-0.311,0.106-0.477c-0.217-1.309-0.327-2.633-0.328-3.959
							C-1047.189-29004.553-1045.423-29009.172-1042.129-29012.604z"/>
					</g>
					<g id="Group_6701" transform="translate(23.856)">
						<path id="Path_18680" fill="#27C1E6" d="M-1046.306-28990c0.002,0.904,0.055,1.809,0.159,2.707
							c0.139-0.143,0.202-0.344,0.169-0.539c-0.166-1.014-0.27-2.035-0.309-3.063
							C-1046.3-28990.6-1046.306-28990.303-1046.306-28990z"/>
						<path id="Path_18681" fill="#27C1E6" d="M-1030.251-29011.324c9.5,0,17.26,6.898,17.727,18.02
							c0.008-0.24,0.022-0.48,0.022-0.723c0-11.738-7.946-19.088-17.749-19.088c-9.802,0-17.749,7.35-17.749,19.088
							c0,0.242,0.015,0.482,0.022,0.723C-1047.509-29004.42-1039.751-29011.324-1030.251-29011.324z"/>
						<path id="Path_18682" fill="#27C1E6" d="M-1014.215-28990.895c-0.038,1.025-0.142,2.049-0.31,3.063
							c-0.031,0.195,0.031,0.395,0.17,0.539c0.104-0.9,0.156-1.805,0.158-2.707
							C-1014.197-28990.303-1014.202-28990.6-1014.215-28990.895z"/>
					</g>
				</g>
				<path id="Path_18683" fill="#136DA0" d="M-1000.83-28926.221l-0.37-3.479l-0.365,0.1c-3.159,0.885-6.5,0.885-9.659,0l-0.365-0.1
					l-0.37,3.479l0.735,0.205c0.396,0.111,0.793,0.209,1.192,0.291c0.399,0.084,0.801,0.152,1.206,0.209
					c1.614,0.221,3.25,0.221,4.863,0c0.404-0.057,0.806-0.125,1.207-0.209c0.4-0.082,0.797-0.18,1.191-0.291L-1000.83-28926.221z"/>
				<path id="Path_18684" fill="#E43D91" d="M-964.977-28940.172l-0.248-0.738c-0.46,0.855-1.247,1.484-2.182,1.746l-34.159,9.568
					c-1.208,0.336-2.448,0.545-3.7,0.625l-1.128,3.617c0.358,0,0.714-0.016,1.072-0.037c1.271-0.076,2.531-0.285,3.758-0.627
					l34.159-9.568c1.903-0.535,3.015-2.512,2.479-4.416C-964.941-28940.059-964.959-28940.115-964.977-28940.172z"/>
				<path id="Path_18685" fill="#E43D91" d="M-1006.394-28925.354l-1.13-3.619c-1.252-0.078-2.492-0.287-3.7-0.625l-34.158-9.566
					c-0.935-0.262-1.723-0.891-2.182-1.746l-0.248,0.738c-0.472,1.41-0.024,2.965,1.125,3.91c0.284,0.232,0.603,0.42,0.944,0.555
					c0.116,0.047,0.236,0.086,0.36,0.123l34.158,9.568C-1009.653-28925.576-1008.027-28925.354-1006.394-28925.354z"/>
				<path id="Path_18686" fill="#E43D91" d="M-1007.57-28925.395l-13.088-41.898l-6.692,13.762
					c-0.161,0.363,0.003,0.787,0.366,0.947c0.055,0.025,0.112,0.041,0.171,0.053l4.047,0.279c0.401,0.078,0.663,0.465,0.585,0.865
					c-0.028,0.145-0.099,0.277-0.203,0.383l-3.125,3.189c-0.261,0.283-0.28,0.713-0.044,1.018l17.189,21.322
					C-1008.097-28925.445-1007.833-28925.41-1007.57-28925.395z"/>
				<path id="Path_18687" fill="#F06EA9" d="M-1019.942-28968.729l-6.692,13.762c-0.161,0.363,0.003,0.789,0.367,0.949
					c0.055,0.025,0.113,0.041,0.172,0.051l4.047,0.281c0.401,0.076,0.663,0.465,0.585,0.865c-0.028,0.145-0.099,0.277-0.203,0.383
					l-3.125,3.189c-0.261,0.283-0.28,0.713-0.044,1.018l18.44,22.877L-1019.942-28968.729z"/>
				<path id="Path_18688" fill="#E43D91" d="M-1005.213-28925.395l13.088-41.898l6.692,13.762c0.161,0.363-0.003,0.787-0.366,0.947
					c-0.055,0.025-0.111,0.041-0.17,0.053l-4.048,0.279c-0.4,0.078-0.662,0.465-0.585,0.865c0.028,0.145,0.1,0.277,0.203,0.383
					l3.125,3.189c0.262,0.283,0.28,0.713,0.044,1.018l-17.19,21.324C-1004.686-28925.445-1004.95-28925.41-1005.213-28925.395z"/>
				<path id="Path_18689" fill="#F06EA9" d="M-992.842-28968.729l6.691,13.762c0.16,0.363-0.004,0.789-0.367,0.949
					c-0.055,0.025-0.112,0.041-0.172,0.051l-4.047,0.281c-0.4,0.076-0.662,0.465-0.585,0.865c0.028,0.145,0.099,0.277,0.203,0.383
					l3.125,3.189c0.261,0.283,0.279,0.713,0.044,1.018l-18.443,22.875L-992.842-28968.729z"/>
			</g>
		</g>
		<g id="Group_6709" transform="translate(115.875)">
			<g id="Group_6706">
				<g id="Group_6705">
					<circle id="Ellipse_2259" fill="#EF5A9D" cx="-1009.162" cy="-28974.277" r="38.838"/>
				</g>
			</g>
			<g id="Group_6708" transform="translate(0 234.765)">
				<g id="Group_6707">
					<circle id="Ellipse_2260" fill="#EF5A9D" cx="-1009.162" cy="-28974.277" r="38.838"/>
				</g>
			</g>
		</g>
		<g id="Group_6714" transform="translate(0.001 44.472)">
			<g id="Group_6711" transform="translate(0 117.38)">
				<g id="Group_6710" transform="translate(0 0)">
					<circle id="Ellipse_2261" fill="#EF5A9D" cx="-994.948" cy="-28960.064" r="38.837"/>
				</g>
			</g>
			<g id="Group_6713" transform="translate(203.308 0)">
				<g id="Group_6712" transform="translate(0)">
					<circle id="Ellipse_2262" fill="#EF5A9D" cx="-994.947" cy="-28960.063" r="38.837"/>
				</g>
			</g>
		</g>
		<g id="Group_6719" transform="translate(0 44.48)">
			<g id="Group_6716" transform="translate(203.31 117.387)">
				<g id="Group_6715" transform="translate(0 0)">
					<circle id="Ellipse_2263" fill="#EF5A9D" cx="-994.948" cy="-28960.063" r="38.837"/>
				</g>
			</g>
			<g id="Group_6718" transform="translate(0 0)">
				<g id="Group_6717">
					<circle id="Ellipse_2264" fill="#EF5A9D" cx="-994.948" cy="-28960.063" r="38.837"/>
				</g>
			</g>
		</g>
		<g id="Group_6720" transform="translate(145.41 21.783)">
			<path id="Path_18690" fill="#E43D91" d="M-1048-28982.803v-21.445c-0.001-2.092,1.695-3.791,3.788-3.791
				c0.796,0,1.572,0.25,2.218,0.717l14.876,10.723c1.698,1.225,2.081,3.596,0.856,5.293c-0.238,0.33-0.527,0.619-0.856,0.857
				l-14.874,10.725c-1.699,1.225-4.069,0.838-5.293-0.861C-1047.75-28981.23-1048.001-28982.008-1048-28982.803z"/>
			<path id="Path_18691" fill="#FFFFFF" d="M-1048-28987.875v-21.441c-0.001-2.094,1.695-3.791,3.788-3.791
				c0.796,0,1.572,0.25,2.218,0.717l14.876,10.723c1.698,1.225,2.083,3.594,0.858,5.293c-0.238,0.328-0.528,0.619-0.858,0.855
				l-14.874,10.723c-1.698,1.225-4.068,0.84-5.292-0.857C-1047.75-28986.301-1048.001-28987.078-1048-28987.875z"/>
			<path id="Path_18692" fill="#D1D3D4" d="M-1027.117-28998.453l-14.874,10.723c-1.698,1.225-4.067,0.84-5.291-0.859
				c-0.465-0.645-0.715-1.42-0.715-2.215v2.932c-0.001,2.094,1.695,3.791,3.788,3.791c0.796,0,1.573-0.25,2.218-0.717l14.875-10.723
				c1.429-1.033,1.952-2.918,1.261-4.541C-1026.119-28999.418-1026.556-28998.861-1027.117-28998.453z"/>
		</g>
		<g id="Group_6721" transform="translate(240.11 84.693)">
			<path id="Path_18693" fill="#E43D91" d="M-1018.515-28985.754h-26.453c-1.676,0-3.033-1.357-3.033-3.033v-14.475
				c0-1.674,1.357-3.031,3.033-3.031h26.453c1.675,0,3.032,1.357,3.032,3.031v14.479
				C-1015.484-28987.109-1016.841-28985.754-1018.515-28985.754z"/>
			<path id="Path_18694" fill="#D1D3D4" d="M-1018.515-28990.867h-26.453c-1.676,0-3.033-1.357-3.033-3.031v-14.475
				c0-1.674,1.357-3.031,3.033-3.031h26.453c1.675,0,3.032,1.357,3.032,3.031v14.475c0.001,1.674-1.355,3.031-3.029,3.031
				C-1018.513-28990.867-1018.514-28990.867-1018.515-28990.867z"/>
			<path id="Path_18695" fill="#FFFFFF" d="M-1018.515-28992.578h-26.453c-1.676,0-3.033-1.357-3.033-3.031v-14.475
				c0-1.674,1.357-3.031,3.033-3.031h26.453c1.675,0,3.032,1.357,3.032,3.031v14.475c0.001,1.674-1.355,3.031-3.03,3.031
				C-1018.513-28992.578-1018.514-28992.578-1018.515-28992.578z"/>
			<path id="Path_18696" fill="#FEDE3A" d="M-1018.515-29013.115h-26.453c-0.775,0-1.52,0.299-2.08,0.834l13.001,10.262
				c1.353,1.066,3.261,1.066,4.613,0l13-10.262C-1016.994-29012.816-1017.739-29013.115-1018.515-29013.115z"/>
		</g>
		<path id="Path_18697" fill="#E43D91" d="M-774.435-28798.963c0.347-0.309,0.54-0.756,0.528-1.221v-2.482
			c-0.004-0.061-0.011-0.121-0.021-0.182c-0.007-0.055-0.008-0.109-0.021-0.166c-0.031-0.162-0.089-0.318-0.169-0.463l-1.515-2.623
			c-0.376-0.65-1.157-0.947-1.871-0.713l-3.888,1.287l-2.178,0.719l-0.008-0.004c-0.504-0.414-1.039-0.789-1.6-1.121
			c-0.079-0.047-0.154-0.1-0.235-0.143c-0.549-0.309-1.12-0.576-1.709-0.799c-0.051-0.02-0.1-0.051-0.148-0.068l-1.294-6.252
			c-0.152-0.736-0.801-1.266-1.553-1.264h-3.027c-0.552,0-1.063,0.285-1.352,0.756c-0.096,0.156-0.164,0.328-0.2,0.508l-1.294,6.252
			c-0.052,0.018-0.1,0.049-0.148,0.068c-0.589,0.223-1.16,0.49-1.709,0.799c-0.079,0.047-0.155,0.096-0.235,0.143
			c-0.562,0.332-1.097,0.705-1.6,1.121l-0.009,0.004l-6.064-2.006c-0.714-0.236-1.496,0.063-1.871,0.713l-1.516,2.623
			c-0.08,0.145-0.137,0.301-0.168,0.461c-0.012,0.057-0.015,0.111-0.021,0.168c-0.011,0.059-0.019,0.119-0.022,0.18v2.482
			c-0.012,0.465,0.182,0.912,0.529,1.221l4.588,4.088v2.059l-0.58,0.518l-4.008,3.57c-0.156,0.145-0.281,0.318-0.367,0.512
			c-0.025,0.057-0.037,0.109-0.058,0.168c-0.049,0.141-0.077,0.289-0.084,0.438c0,0.035-0.021,0.07-0.021,0.102v2.482
			c-0.004,0.283,0.068,0.563,0.209,0.809l1.509,2.635c0.376,0.652,1.157,0.949,1.87,0.715l6.065-2.008
			c1.103,0.918,2.354,1.643,3.7,2.141l1.294,6.25c0.152,0.736,0.802,1.266,1.554,1.266h3.028c0.752-0.002,1.4-0.529,1.554-1.266
			l1.294-6.25c1.347-0.5,2.598-1.223,3.7-2.141l6.065,2.008c0.714,0.234,1.495-0.063,1.871-0.715l1.515-2.621
			c0.142-0.246,0.214-0.527,0.211-0.811v-2.482c0-0.035-0.019-0.068-0.02-0.1c-0.008-0.15-0.035-0.299-0.083-0.439
			c-0.016-0.059-0.035-0.113-0.058-0.168c-0.086-0.195-0.211-0.371-0.367-0.514l-4.588-4.088v-2.066L-774.435-28798.963z
			 M-786.451-28793.35c-0.081,0.24-0.179,0.473-0.292,0.699c-0.086,0.182-0.181,0.357-0.285,0.527
			c-0.083,0.127-0.181,0.24-0.271,0.359c-0.11,0.143-0.22,0.285-0.343,0.416c-0.101,0.107-0.214,0.205-0.323,0.299
			c-0.136,0.125-0.278,0.242-0.427,0.352c-0.115,0.084-0.233,0.164-0.355,0.24c-0.167,0.102-0.34,0.195-0.517,0.279
			c-0.12,0.057-0.24,0.117-0.365,0.168c-0.208,0.08-0.422,0.146-0.638,0.199c-0.11,0.029-0.217,0.066-0.329,0.088
			c-0.684,0.141-1.388,0.141-2.071,0c-0.113-0.021-0.218-0.059-0.328-0.086c-0.217-0.053-0.431-0.119-0.64-0.199
			c-0.125-0.049-0.245-0.109-0.365-0.166c-0.178-0.084-0.351-0.178-0.519-0.279c-0.122-0.078-0.24-0.156-0.354-0.238
			c-0.148-0.111-0.29-0.23-0.427-0.354c-0.11-0.1-0.22-0.201-0.321-0.301c-0.123-0.131-0.232-0.275-0.345-0.416
			c-0.091-0.119-0.191-0.23-0.272-0.359c-0.104-0.168-0.199-0.344-0.283-0.523c-0.117-0.229-0.218-0.465-0.301-0.709
			c-0.056-0.166-0.114-0.328-0.154-0.5c0.705-2.949,3.667-4.768,6.617-4.064c2.012,0.482,3.582,2.053,4.063,4.064
			C-786.331-28793.686-786.391-28793.518-786.451-28793.35z"/>
		<g id="Group_6726" transform="translate(238.642 193.587)">
			<path id="Path_18698" fill="#D1D3D4" d="M-1017.664-28993.529l4.587-4.088c0.347-0.309,0.54-0.754,0.528-1.219v-2.484
				c0.004-0.283-0.067-0.563-0.209-0.809l-1.513-2.623c-0.376-0.65-1.157-0.949-1.871-0.713l-6.065,2.006
				c-1.102-0.92-2.354-1.643-3.699-2.141l-1.294-6.25c-0.152-0.736-0.802-1.266-1.555-1.266h-3.027
				c-0.752,0.002-1.401,0.529-1.555,1.266l-1.294,6.25c-1.346,0.498-2.598,1.221-3.699,2.141l-6.065-2.006
				c-0.714-0.236-1.495,0.063-1.871,0.713l-1.515,2.623c-0.142,0.246-0.214,0.525-0.209,0.809v2.48
				c-0.012,0.465,0.182,0.912,0.529,1.223l4.586,4.086v2.059l-4.586,4.088c-0.348,0.309-0.541,0.756-0.529,1.221v2.484
				c-0.004,0.283,0.068,0.563,0.209,0.809l1.515,2.623c0.376,0.65,1.157,0.949,1.871,0.713l6.065-2.008
				c1.102,0.92,2.354,1.645,3.699,2.141l1.294,6.252c0.152,0.736,0.802,1.264,1.555,1.264h3.027c0.752,0,1.401-0.527,1.555-1.264
				l1.294-6.252c1.346-0.496,2.598-1.221,3.699-2.141l6.065,2.008c0.714,0.236,1.495-0.063,1.871-0.713l1.513-2.623
				c0.142-0.246,0.214-0.525,0.209-0.809v-2.484c0.012-0.465-0.182-0.91-0.528-1.221l-4.587-4.086V-28993.529z M-1030.272-28988.27
				c-2.546-0.004-4.758-1.752-5.346-4.23c0.698-2.951,3.657-4.777,6.609-4.08c2.023,0.479,3.603,2.059,4.081,4.08
				C-1025.515-28990.021-1027.726-28988.271-1030.272-28988.27L-1030.272-28988.27z"/>
			<g id="Group_6725" transform="translate(0)">
				<g id="Group_6722" transform="translate(13.247)">
					<path id="Path_18699" fill="#FFFFFF" d="M-1039.036-29005.027h-8.963l1.414-6.824c0.152-0.736,0.802-1.266,1.555-1.266h3.027
						c0.752,0.002,1.401,0.529,1.555,1.266L-1039.036-29005.027z"/>
					<path id="Path_18700" fill="#FFFFFF" d="M-1048-28982.508h8.965l-1.414,6.824c-0.152,0.736-0.802,1.266-1.555,1.266h-3.031
						c-0.753-0.002-1.401-0.529-1.555-1.266L-1048-28982.508z"/>
				</g>
				<g id="Group_6723" transform="translate(0.002 7.569)">
					<path id="Path_18701" fill="#FFFFFF" d="M-1042.266-28999.586l4.481,7.762l-6.616,2.189c-0.714,0.236-1.495-0.063-1.871-0.713
						l-1.515-2.625c-0.377-0.65-0.244-1.477,0.318-1.977L-1042.266-28999.586z"/>
					<path id="Path_18702" fill="#FFFFFF" d="M-1018.282-29003.084l-4.481-7.762l6.616-2.189c0.714-0.234,1.495,0.063,1.871,0.715
						l1.513,2.621c0.377,0.652,0.243,1.479-0.318,1.979L-1018.282-29003.084z"/>
				</g>
				<g id="Group_6724" transform="translate(0 7.569)">
					<path id="Path_18703" fill="#FFFFFF" d="M-1022.761-28991.824l4.481-7.762l5.2,4.637c0.561,0.5,0.693,1.326,0.318,1.977
						l-1.513,2.625c-0.376,0.65-1.157,0.949-1.871,0.713L-1022.761-28991.824z"/>
					<path id="Path_18704" fill="#FFFFFF" d="M-1037.785-29010.846l-4.481,7.762l-5.2-4.637c-0.561-0.5-0.693-1.326-0.318-1.979
						l1.515-2.621c0.376-0.652,1.157-0.949,1.871-0.715L-1037.785-29010.846z"/>
				</g>
			</g>
			<path id="Path_18705" fill="#FFFFFF" d="M-1030.272-29006.375c-6.963,0-12.608,5.645-12.608,12.607s5.646,12.607,12.608,12.607
				s12.608-5.645,12.608-12.607S-1023.309-29006.375-1030.272-29006.375L-1030.272-29006.375z M-1030.272-28988.27
				c-3.038,0-5.5-2.461-5.5-5.5c0-3.037,2.462-5.5,5.5-5.5c3.037,0,5.5,2.463,5.5,5.5l0,0
				C-1024.772-28990.73-1027.235-28988.27-1030.272-28988.27z"/>
			<path id="Path_18706" fill="#E6E7E8" d="M-1030.272-29006.375c-6.963,0-12.608,5.645-12.608,12.607s5.646,12.607,12.608,12.607
				s12.608-5.645,12.608-12.607S-1023.309-29006.375-1030.272-29006.375L-1030.272-29006.375z M-1030.272-28984.094
				c-5.343,0-9.674-4.33-9.674-9.674c0-5.342,4.331-9.674,9.674-9.674s9.674,4.332,9.674,9.674l0,0
				c0.002,5.344-4.328,9.676-9.671,9.678c-0.001,0-0.002,0-0.003,0V-28984.094z"/>
		</g>
		<path id="Path_18707" fill="#E43D91" d="M-981.045-28927.639h-27.8c-0.757,0-1.37,0.613-1.37,1.371l0,0v31.5
			c0,0.756,0.613,1.369,1.37,1.369l0,0h27.8c0.756,0,1.37-0.613,1.37-1.369l0,0v-31.5c0-0.756-0.612-1.369-1.368-1.371
			C-981.044-28927.639-981.045-28927.639-981.045-28927.639z"/>
		<g id="Group_6727" transform="translate(37.788 80.408)">
			<path id="Path_18708" fill="#BCBEC0" d="M-1018.833-28978.875h-27.8c-0.757,0-1.37-0.613-1.37-1.371l0,0v-30
				c0-0.756,0.614-1.369,1.371-1.367c0,0,0.001,0,0.002,0h27.8c0.757,0,1.37,0.613,1.37,1.369l0,0v30
				c0,0.756-0.614,1.369-1.371,1.369C-1018.832-28978.875-1018.833-28978.875-1018.833-28978.875z"/>
			<path id="Path_18709" fill="#F7CB15" d="M-1018.833-28980.381h-27.8c-0.757,0-1.37-0.613-1.37-1.369l0,0v-30
				c0-0.758,0.613-1.371,1.37-1.371l0,0h27.8c0.756,0,1.37,0.613,1.37,1.371l0,0v30
				C-1017.463-28980.994-1018.076-28980.381-1018.833-28980.381L-1018.833-28980.381z"/>
			<path id="Path_18710" fill="#FFFFFF" d="M-1039.256-28994.652l-8.737,12.832c0.032,0.805,0.694,1.441,1.5,1.441h19.445
				l-9.72-14.273c-0.469-0.688-1.406-0.865-2.093-0.396C-1039.016-28994.941-1039.151-28994.809-1039.256-28994.652z"/>
			<path id="Path_18711" fill="#FFFFFF" d="M-1017.464-28997.322l-3.871-5.688c-0.468-0.688-1.405-0.865-2.092-0.396
				c-0.157,0.105-0.292,0.24-0.398,0.396l-15.406,22.629h20.262c0.832,0.002,1.507-0.674,1.507-1.504c0-0.002,0-0.002,0-0.002
				v-15.436H-1017.464z"/>
			<circle id="Ellipse_2265" fill="#FFFFFF" cx="-1038.012" cy="-29003.441" r="3.859"/>
		</g>
		<path id="Path_18712" fill="#E43D91" d="M-871.877-28740.539c0.217,0,0.433-0.021,0.645-0.064
			c0.206-0.041,0.407-0.104,0.601-0.186c0.38-0.162,0.726-0.395,1.019-0.688c0.601-0.6,0.938-1.414,0.937-2.266
			c-0.002-0.188-0.021-0.375-0.058-0.561c-0.012-0.064-0.024-0.125-0.041-0.186c-0.012-0.047-0.017-0.092-0.029-0.137
			c0,0.006-0.006,0.012-0.008,0.018c-0.384-1.377-1.638-2.332-3.068-2.336h-14.982l1.784-5.754c0.821-2.652-0.495-5.498-3.05-6.588
			c-0.169-0.07-0.344-0.133-0.52-0.189c-0.087-0.027-0.176-0.045-0.265-0.055l0,0c-0.23-0.025-0.464,0.008-0.679,0.094l0,0l0,0
			c-0.404,0.154-0.715,0.486-0.844,0.9l-0.492,1.582c0,0-5.558,12.59-8.693,12.52v-0.781c0-1.176-0.953-2.129-2.128-2.129l0,0
			h-8.729c-1.175,0-2.128,0.953-2.128,2.129l0,0v22.955c0,1.174,0.953,2.127,2.128,2.127l0,0h8.727c1.175,0,2.128-0.953,2.128-2.127
			l0,0v-0.74h1.694c0.984,0,1.947,0.291,2.765,0.838c0.819,0.545,1.781,0.838,2.766,0.838h15.748
			c0.85,0.002,1.664-0.336,2.265-0.938c0.292-0.293,0.524-0.637,0.686-1.018c0.083-0.193,0.145-0.395,0.187-0.6
			c0.043-0.213,0.065-0.43,0.066-0.645l0,0c-0.002-0.189-0.021-0.377-0.058-0.563c-0.013-0.063-0.024-0.125-0.041-0.186
			c-0.013-0.047-0.017-0.094-0.03-0.139c0,0.008-0.005,0.014-0.007,0.02c-0.384-1.379-1.638-2.332-3.069-2.336h1.584
			c1.768,0,3.2-1.432,3.2-3.199c-0.001-0.188-0.021-0.377-0.057-0.563c-0.013-0.063-0.025-0.125-0.041-0.186
			c-0.013-0.047-0.017-0.092-0.03-0.137c0,0.006-0.005,0.012-0.007,0.018c-0.384-1.377-1.638-2.332-3.069-2.336h1.592
			c1.75,0.02,3.184-1.385,3.202-3.137c0.003-0.209-0.017-0.418-0.056-0.625c-0.012-0.064-0.025-0.127-0.041-0.189
			c-0.012-0.045-0.018-0.092-0.029-0.137c0,0.006-0.005,0.012-0.007,0.018c-0.384-1.377-1.638-2.332-3.069-2.336h1.601
			L-871.877-28740.539z"/>
		<g id="Group_6728" transform="translate(135.396 248.467)">
			<path id="Path_18713" fill="#FEDE3A" d="M-1026.324-29010.523c0,0-5.558,12.588-8.693,12.52c-3.135-0.07,2.694,2.365,2.694,2.365
				l4.944-3.244l3.578-8.229L-1026.324-29010.523z"/>
			<path id="Path_18714" fill="#FEDE3A" d="M-1029.303-29000.516l-2.511,2.512h-3.2v21.432h1.694c0.984,0,1.946,0.291,2.765,0.838
				l0,0c0.819,0.547,1.781,0.838,2.765,0.838h12.785v-25.617h-14.3L-1029.303-29000.516z"/>
			<path id="Path_18715" fill="#F7CB15" d="M-1030.558-28977.506c-0.819-0.547-1.781-0.838-2.765-0.838h-1.694v1.77h1.694
				c0.984,0,1.946,0.291,2.765,0.838c0.819,0.547,1.781,0.838,2.766,0.838h12.785v-1.77h-12.785
				C-1028.778-28976.668-1029.74-28976.961-1030.558-28977.506z"/>
			<path id="Path_18716" fill="#E7AD27" d="M-1025.361-29000.516c2.557,3.557,1.746,8.512-1.811,11.068
				c-0.284,0.205-0.581,0.389-0.89,0.555c-0.426,0.236-0.581,0.771-0.345,1.197c0.08,0.146,0.2,0.266,0.345,0.346
				c2.581,1.383,4.192,4.072,4.192,7c0.002,0.432-0.031,0.859-0.1,1.285c-0.295,1.982,1.074,3.83,3.059,4.125
				c0.186,0.027,0.373,0.041,0.56,0.039h5.349v-25.615H-1025.361z"/>
			<path id="Path_18717" fill="#FEDE3A" d="M-1020.473-29006.273l-3.442,11.107l-6.54-2.027l4.624-14.916
				c0.233-0.754,1.033-1.176,1.785-0.941c0.001,0,0.002,0,0.002,0l0,0C-1021.186-29012.166-1019.588-29009.131-1020.473-29006.273
				L-1020.473-29006.273z"/>
			<path id="Path_18718" fill="#FEDE3A" d="M-1008.863-28987.707h-8.163c-1.768,0-3.2-1.434-3.2-3.199l0,0
				c0-1.768,1.433-3.201,3.2-3.201h8.163c1.768,0,3.199,1.434,3.199,3.201l0,0
				C-1005.664-28989.141-1007.095-28987.707-1008.863-28987.707z"/>
			<path id="Path_18719" fill="#F7CB15" d="M-1008.863-28989.479h-8.163c-1.427,0-2.683-0.945-3.076-2.318
				c-0.489,1.699,0.489,3.473,2.188,3.963c0.289,0.084,0.588,0.125,0.889,0.125h8.163c1.768,0.002,3.201-1.432,3.201-3.199
				c0-0.299-0.042-0.6-0.125-0.889C-1006.181-28990.424-1007.435-28989.479-1008.863-28989.479z"/>
			<path id="Path_18720" fill="#FEDE3A" d="M-1010.455-28981.301h-8.162c-1.768,0-3.2-1.434-3.2-3.201l0,0
				c0-1.768,1.433-3.201,3.2-3.201h8.162c1.768,0,3.201,1.434,3.201,3.201l0,0
				C-1007.254-28982.734-1008.687-28981.301-1010.455-28981.301z"/>
			<path id="Path_18721" fill="#F7CB15" d="M-1010.455-28983.074h-8.162c-1.428,0-2.683-0.945-3.076-2.318
				c-0.49,1.699,0.489,3.473,2.188,3.963c0.289,0.082,0.588,0.125,0.889,0.125h8.162c1.768,0,3.201-1.432,3.202-3.199
				c0-0.301-0.042-0.6-0.126-0.889C-1007.772-28984.02-1009.027-28983.074-1010.455-28983.074z"/>
			<path id="Path_18722" fill="#FEDE3A" d="M-1012.045-28974.898h-8.164c-1.767,0-3.199-1.432-3.199-3.199l0,0
				c0-1.768,1.433-3.199,3.199-3.199h8.164c1.767,0,3.199,1.432,3.199,3.199l0,0
				C-1008.845-28976.33-1010.278-28974.898-1012.045-28974.898z"/>
			<path id="Path_18723" fill="#F7CB15" d="M-1012.045-28976.668h-8.164c-1.427,0-2.682-0.945-3.076-2.318
				c-0.489,1.697,0.49,3.473,2.188,3.963c0.288,0.082,0.588,0.125,0.888,0.125h8.164c1.767,0,3.2-1.432,3.201-3.199
				c0-0.301-0.043-0.6-0.125-0.889C-1009.363-28977.613-1010.618-28976.668-1012.045-28976.668z"/>
			<path id="Path_18724" fill="#FEDE3A" d="M-1007.274-28994.111h-8.163c-1.768,0-3.2-1.432-3.2-3.199l0,0
				c0-1.768,1.433-3.201,3.2-3.201h8.163c1.767,0,3.2,1.434,3.2,3.201l0,0
				C-1004.074-28995.543-1005.508-28994.111-1007.274-28994.111z"/>
			<path id="Path_18725" fill="#F7CB15" d="M-1007.274-28995.883h-8.163c-1.428,0-2.682-0.945-3.076-2.318
				c-0.49,1.697,0.49,3.471,2.188,3.963c0.289,0.082,0.588,0.125,0.889,0.125h8.163c1.767,0,3.2-1.432,3.201-3.199
				c0.001-0.301-0.042-0.6-0.125-0.889C-1004.592-28996.828-1005.847-28995.883-1007.274-28995.883z"/>
			<path id="Path_18726" fill="#FFFFFF" d="M-1037.145-28973.707h-8.727c-1.175,0-2.128-0.951-2.128-2.127l0,0v-22.953
				c0-1.176,0.953-2.127,2.128-2.127l0,0h8.727c1.175,0,2.128,0.951,2.128,2.127l0,0v22.953
				C-1035.017-28974.658-1035.97-28973.707-1037.145-28973.707L-1037.145-28973.707z"/>
			<path id="Path_18727" fill="#D1D3D4" d="M-1037.145-28977.961h-8.727c-1.175,0-2.128-0.953-2.128-2.129l0,0v4.258
				c0,1.176,0.953,2.129,2.128,2.129l0,0h8.727c1.175,0,2.128-0.953,2.128-2.129l0,0v-4.258
				C-1035.017-28978.914-1035.97-28977.961-1037.145-28977.961L-1037.145-28977.961z"/>
			<path id="Path_18728" fill="#F7CB15" d="M-1020.474-29006.271c0.886-2.857-0.713-5.893-3.57-6.779l0,0
				c-0.086-0.025-0.174-0.043-0.263-0.053l-0.679,0.092l-0.014,0.006c0.137,0.021,1.416,0.348,2.267,4.639
				c0.899,4.535-1.185,13.199-1.185,13.199L-1020.474-29006.271z"/>
		</g>
		<g id="Group_6729" transform="translate(37.588 200.327)">
			<path id="Path_18729" fill="#E43D91" d="M-1019.903-28995.988c0.008,8.316-14.029,17.939-14.029,17.939
				s-14.056-9.6-14.062-17.912v-3.9c-0.011-4.07,3.28-7.381,7.351-7.391c2.864-0.008,5.473,1.643,6.691,4.236
				c1.723-3.689,6.11-5.281,9.798-3.559c2.597,1.213,4.255,3.822,4.251,6.688V-28995.988z"/>
			<path id="Path_18730" fill="#D1D3D4" d="M-1019.906-29001.838c0.008,8.316-14.029,17.939-14.029,17.939
				s-14.056-9.594-14.062-17.912v-3.9c-0.013-4.07,3.276-7.381,7.347-7.395c2.867-0.01,5.479,1.645,6.697,4.24
				c1.723-3.689,6.11-5.281,9.798-3.559c2.597,1.213,4.255,3.822,4.251,6.689L-1019.906-29001.838z"/>
			<path id="Path_18731" fill="#FFFFFF" d="M-1040.623-29013.102c2.855,0.002,5.452,1.652,6.665,4.238
				c1.724-3.689,6.11-5.281,9.798-3.559c2.597,1.213,4.254,3.82,4.251,6.688c0.008,8.316-14.028,17.939-14.028,17.939
				s-14.056-9.6-14.062-17.912c-0.006-4.078,3.295-7.389,7.373-7.395C-1040.625-29013.102-1040.624-29013.102-1040.623-29013.102z"
				/>
		</g>
	</g>
</g>
</svg>
