<svg xmlns="http://www.w3.org/2000/svg" xmlns:xlink="http://www.w3.org/1999/xlink" width="1374.169" height="1044.875" viewBox="0 0 1374.169 1044.875">
  <defs>
    <linearGradient id="linear-gradient" x1="0.5" y1="1" x2="0.5" gradientUnits="objectBoundingBox">
      <stop offset="0" stop-color="#fdbb9e"/>
      <stop offset="0.728" stop-color="#ec977a"/>
    </linearGradient>
    <linearGradient id="linear-gradient-2" x1="0.5" y1="1" x2="0.5" gradientUnits="objectBoundingBox">
      <stop offset="0" stop-color="#fab99c"/>
      <stop offset="0.728" stop-color="#f59d7f"/>
    </linearGradient>
    <linearGradient id="linear-gradient-3" x1="0.5" y1="1" x2="0.5" gradientUnits="objectBoundingBox">
      <stop offset="0" stop-color="#f9b89c"/>
      <stop offset="0.728" stop-color="#f59c7e"/>
    </linearGradient>
  </defs>
  <g id="Group_7281" data-name="Group 7281" transform="translate(-19.915 -89.246)">
    <g id="Group_7270" data-name="Group 7270" transform="translate(476.822 142.772)">
      <ellipse id="Ellipse_2335" data-name="Ellipse 2335" cx="145.179" cy="52.427" rx="145.179" ry="52.427" transform="translate(120.221 871.042)" fill="#f4f4f4"/>
      <g id="Path_19773" data-name="Path 19773" transform="translate(-170.178 -106.849)" fill="#fff" stroke-miterlimit="10">
        <path d="M 584.4298706054688 378.7205200195312 C 584.4295043945312 378.7205200195312 584.4297485351562 378.7205200195312 584.429443359375 378.7205200195312 C 584.2249755859375 378.7205200195312 584.0175170898438 378.7189331054688 583.8130493164062 378.7158508300781 L 227.0454254150391 373.38232421875 C 219.9820709228516 373.2767944335938 213.1211853027344 371.8053283691406 206.6533660888672 369.0089111328125 C 200.4005432128906 366.3054504394531 194.7667083740234 362.4795227050781 189.9083557128906 357.6373291015625 C 185.0500030517578 352.795166015625 181.203369140625 347.1721496582031 178.4752960205078 340.9246215820312 C 175.6534729003906 334.4622802734375 174.1535339355469 327.6006164550781 174.0171203613281 320.5303344726562 L 170.933837890625 160.9989776611328 C 170.7944183349609 153.8160400390625 172.0680084228516 146.8453369140625 174.7191314697266 140.2804565429688 C 175.9930114746094 137.1260375976562 177.5862426757812 134.0830993652344 179.45458984375 131.2362213134766 C 181.3051300048828 128.4163970947266 183.4414215087891 125.7645721435547 185.8040618896484 123.3543930053711 C 188.1630096435547 120.9480438232422 190.7667694091797 118.7629776000977 193.5430603027344 116.859977722168 C 196.3460083007812 114.9386901855469 199.349365234375 113.2881546020508 202.4698333740234 111.954216003418 C 208.9634246826172 109.178337097168 215.8880157470703 107.7689208984375 223.0511779785156 107.7652740478516 L 577.4198608398438 107.5949783325195 L 577.4363403320312 107.5949783325195 C 582.8341064453125 107.5949783325195 588.091552734375 108.64404296875 593.0625610351562 110.7130966186523 C 597.867919921875 112.7132186889648 602.210693359375 115.5798034667969 605.9701538085938 119.2332153320312 C 609.7297973632812 122.8868026733398 612.7215576171875 127.1480407714844 614.8623046875 131.8985137939453 C 617.0770263671875 136.8131561279297 618.2821044921875 142.0453338623047 618.4442138671875 147.4497528076172 L 624.1364135742188 337.7289123535156 C 624.30126953125 343.2476806640625 623.371826171875 348.6098022460938 621.3739013671875 353.6663208007812 C 619.4465942382812 358.5442199707031 616.6132202148438 362.9298706054688 612.9525756835938 366.7014465332031 C 609.2978515625 370.467041015625 605.0081787109375 373.425048828125 600.2028198242188 375.4932861328125 C 595.2276611328125 377.6346130371094 589.9205322265625 378.7205200195312 584.4298706054688 378.7205200195312 Z" stroke="none"/>
        <path d="M 584.4296875 377.9745178222656 C 589.8182373046875 377.9745178222656 595.0256958007812 376.9090270996094 599.9074096679688 374.8077392578125 C 604.6219482421875 372.7783813476562 608.8307495117188 369.8759765625 612.4168090820312 366.18115234375 C 616.0087280273438 362.4804077148438 618.788818359375 358.1772766113281 620.679931640625 353.3914489746094 C 622.6405029296875 348.4297485351562 623.5525512695312 343.1676330566406 623.3906860351562 337.751220703125 L 617.698486328125 147.4720916748047 C 617.5394287109375 142.1662750244141 616.3563842773438 137.0296936035156 614.1821899414062 132.2050476074219 C 612.0801391601562 127.5404510498047 609.1422729492188 123.3561019897461 605.4502563476562 119.7682189941406 C 601.7584838867188 116.1805725097656 597.4942016601562 113.3656845092773 592.7758178710938 111.4018020629883 C 587.8961791992188 109.3708038330078 582.7352294921875 108.3409805297852 577.4363403320312 108.3409805297852 L 577.420166015625 108.3409805297852 L 223.0515899658203 108.5112762451172 C 215.9896545410156 108.5148620605469 209.1635894775391 109.9040374755859 202.7630615234375 112.6401596069336 C 196.5822448730469 115.2823944091797 191.0556488037109 119.0628662109375 186.3368377685547 123.8766250610352 C 181.6103057861328 128.6982116699219 177.9342498779297 134.3112182617188 175.410888671875 140.5597991943359 C 172.7975921630859 147.0308685302734 171.5422515869141 153.9027404785156 171.6796569824219 160.9845733642578 L 174.7629547119141 320.5159912109375 C 174.8974761962891 327.4878540039062 176.3765411376953 334.2539367675781 179.1590118408203 340.6260986328125 C 181.8494262695312 346.7875061035156 185.6432495117188 352.3331604003906 190.4350128173828 357.1089782714844 C 195.2267150878906 361.8846740722656 200.7829437255859 365.6580505371094 206.9494171142578 368.32421875 C 213.3267669677734 371.0815124511719 220.0917663574219 372.5323486328125 227.0565338134766 372.6364440917969 L 583.8240966796875 377.969970703125 C 584.0264892578125 377.9729919433594 584.2301025390625 377.9745178222656 584.429443359375 377.9745178222656 L 584.4296875 377.9745178222656 M 584.4293823242188 379.4664916992188 C 584.220703125 379.4664916992188 584.0113525390625 379.4649353027344 583.8018798828125 379.4617919921875 L 227.0342407226562 374.1282653808594 C 197.7460021972656 373.6905212402344 173.8368377685547 349.8603820800781 173.271240234375 320.5447387695312 L 170.1879425048828 161.0133972167969 C 169.6101837158203 131.2355651855469 193.3065338134766 107.0345077514648 223.0508270263672 107.0192718505859 L 577.4194946289062 106.8489837646484 C 577.4263305664062 106.8489761352539 577.4295043945312 106.8489761352539 577.4364013671875 106.8489761352539 C 599.9163208007812 106.8489761352539 618.5150146484375 124.9207916259766 619.1898193359375 147.4273986816406 L 624.882080078125 337.7066345214844 C 625.569091796875 360.7037658691406 607.322021484375 379.4666748046875 584.4293823242188 379.4664916992188 Z" stroke="none" fill="#7287ba"/>
      </g>
      <path id="Path_19774" data-name="Path 19774" d="M361.912,352.405c-43.023-1.736-63.125,9.2-63.125,9.2s-47.66-34.7-75.252-124.581c0,0,23.83-44.732,15.052-48.077s-15.794,18.98-17.116,19c-2.615.033-27.211-.407-27.211-.407s4.193,87.18,47.672,148.637,48.493,117.056,56.436,196.069,25.922,275.079,25.922,275.079l-39.3,37.626h72.74s-6.27-198.3,4.181-275.082l20.485-.417s44.036,126.254,44.036,275.5H504.47l-42.92-38.6S450.4,641.283,433.123,543.18l-2.232-86.959s32.679,82.708,42.923,123.049c0,0-3.485,30.24.766,30.45,7.5.368,6.06-17.767,6.06-17.767S492.764,630,499.453,627.487s-4.807-26.965-4.807-26.965,8.779,22.994,12.96,21.112-3.761-22.994-3.761-22.994,8.359,18.187,10.868,17.77-1.113-15.538-5.084-25.992-14.912-23.547-14.912-23.547-35.4-123.189-52.674-159.7S392.988,353.661,361.912,352.405Z" transform="translate(-121.034 59.989)" fill="#fdbb9e"/>
      <path id="Path_19775" data-name="Path 19775" d="M399.407,358.262s1.676,4.242,4.37,11.226h0l23.313-16.955c-6.118-17.91-11.962-33.661-16.532-43.321-17.28-36.51-49.053-53.511-80.129-54.766-43.023-1.736-63.125,9.2-63.125,9.2s-11.293-8.246-26.059-27.038l-31.557,20.47c.255.371.5.766.76,1.134,42.9,60.635,48.357,115.59,56.123,192.943l135.069-5.932Z" transform="translate(-89.55 157.949)" fill="#f4f4f4"/>
      <path id="Path_19776" data-name="Path 19776" d="M363.463,305.213l-135.069,5.932h0l.313,3.126c2.347,23.344,5.571,56.907,8.946,92.611,13.723.356,31.116.523,50.284.046.937-21.285,2.32-40.378,4.315-55.034l20.485-.417s6.975,20.029,15.368,53.492c16.009-1.2,32.3-2.971,48.031-5.522C372.436,365.246,368.179,331.99,363.463,305.213Z" transform="translate(-51.374 297.957)"/>
      <g id="Group_7268" data-name="Group 7268" transform="translate(163.957 886.331)">
        <path id="Path_19777" data-name="Path 19777" d="M224.1,436.283h72.74s-.462-14.7-.927-37.626H263.4Z" transform="translate(-224.098 -397.681)" fill="#bf7d3f"/>
        <path id="Path_19778" data-name="Path 19778" d="M271.253,436.938H349.29l-42.92-38.6-36.069.441C270.9,411.286,271.253,424.018,271.253,436.938Z" transform="translate(-129.811 -398.336)" fill="#bf7d3f"/>
      </g>
      <path id="Path_19779" data-name="Path 19779" d="M242.382,365.661s-8.985,5.85,0,10.031" transform="translate(-30.978 421.314)" fill="none" stroke="#ec977a" stroke-linecap="round" stroke-linejoin="round" stroke-width="1.044"/>
      <path id="Path_19780" data-name="Path 19780" d="M274.349,362.773s9.4,3.764,2.089,10.871" transform="translate(42.407 415.42)" fill="none" stroke="#ec977a" stroke-linecap="round" stroke-linejoin="round" stroke-width="1.044"/>
      <path id="Path_19781" data-name="Path 19781" d="M250.174,218.8s42.36-47.1,96.43-22.3c66.637,30.571,52.118,94.2,40.411,111.762,0,0-9.782,42.68-55.487,42.68s-34.95-16.806-34.95-16.806S255.4,343.081,238.7,315.924C230.3,302.268,203.892,270.112,250.174,218.8Z" transform="translate(-61.211 61.378)" fill="#bf7d3f"/>
      <path id="Rectangle_1283" data-name="Rectangle 1283" d="M0,0H20.9a0,0,0,0,1,0,0V40.632a3.125,3.125,0,0,1-3.125,3.125H3.125A3.125,3.125,0,0,1,0,40.632V0A0,0,0,0,1,0,0Z" transform="translate(227.362 382.992)" fill="url(#linear-gradient)"/>
      <path id="Path_19782" data-name="Path 19782" d="M388.076,278.524c-.4,0-.788.043-1.18.061a71.573,71.573,0,0,0-115.657-68.161,26.9,26.9,0,1,0-24.621,37.708c.179,0,.356-.024.538-.027a71.511,71.511,0,0,0,117.575,70.651,26.892,26.892,0,1,0,23.344-40.232Z" transform="translate(-69.082 71.681)" fill="#fdbb9e"/>
      <path id="Path_19783" data-name="Path 19783" d="M236.661,213.523s57.5,64.117,115.657,68.161c0,0,23.319-50.862-29.632-78.733S236.661,213.523,236.661,213.523Z" transform="translate(-34.504 68.583)" fill="#bf7d3f"/>
      <path id="Path_19784" data-name="Path 19784" d="M246.66,212.642a3.136,3.136,0,1,0-3.135,3.138A3.136,3.136,0,0,0,246.66,212.642Z" transform="translate(-26.9 102.647)"/>
      <path id="Path_19785" data-name="Path 19785" d="M261.759,223.114a3.135,3.135,0,1,0-3.135,3.135A3.133,3.133,0,0,0,261.759,223.114Z" transform="translate(3.919 124.018)"/>
      <path id="Path_19786" data-name="Path 19786" d="M241.287,197.849s-13.127,16.253-5.6,21.9,17.767-15.468,17.767-15.468Z" transform="translate(-41.245 78.857)" fill="#bf7d3f"/>
      <path id="Path_19787" data-name="Path 19787" d="M287.555,226.249s-4.619,21.045-14.863,17.074,1.046-23.344,1.046-23.344Z" transform="translate(30.259 124.018)" fill="#bf7d3f"/>
      <path id="Path_19788" data-name="Path 19788" d="M255.349,215.257s-10.557-.417-10.764,3.138,5.644,7.209,5.957,6.9" transform="translate(-18.345 114.351)" fill="none" stroke="#ec977a" stroke-linecap="round" stroke-linejoin="round" stroke-width="1.044"/>
      <circle id="Ellipse_2336" data-name="Ellipse 2336" cx="5.992" cy="5.992" r="5.992" transform="translate(235.367 371.311)" fill="#fafafa"/>
      <path id="Path_19789" data-name="Path 19789" d="M201.783,219.61s-2.4,6.367,3.2,6.769" transform="translate(-106.726 123.265)" fill="none" stroke="#ec977a" stroke-linecap="round" stroke-linejoin="round" stroke-width="1.044"/>
      <g id="Group_7269" data-name="Group 7269" transform="translate(63.724 44.652)">
        <path id="Path_19790" data-name="Path 19790" d="M215.583,121.534l5.771,17.763h18.677l-15.11,10.978,5.771,17.763-15.11-10.978-15.11,10.978,5.772-17.763L191.135,139.3h18.677Z" transform="translate(-191.135 -121.534)" fill="#f9a034"/>
        <path id="Path_19791" data-name="Path 19791" d="M237.509,121.534l5.771,17.763h18.677l-15.109,10.978,5.771,17.763-15.11-10.978L222.4,168.037l5.772-17.763L213.061,139.3h18.677Z" transform="translate(-146.389 -121.534)" fill="#f9a034"/>
        <path id="Path_19792" data-name="Path 19792" d="M259.436,121.534l5.771,17.763h18.677l-15.11,10.978,5.771,17.763-15.11-10.978-15.11,10.978,5.772-17.763L234.988,139.3h18.677Z" transform="translate(-101.643 -121.534)" fill="#f9a034"/>
        <path id="Path_19793" data-name="Path 19793" d="M281.362,121.534l5.771,17.763H305.81L290.7,150.274l5.771,17.763-15.11-10.978-15.11,10.978,5.772-17.763L256.914,139.3h18.677Z" transform="translate(-56.897 -121.534)" fill="#f9a034"/>
        <path id="Path_19794" data-name="Path 19794" d="M303.289,121.534,309.06,139.3h18.677l-15.11,10.978,5.771,17.763-15.11-10.978-15.11,10.978,5.772-17.763L278.841,139.3h18.677Z" transform="translate(-12.15 -121.534)" fill="#f9a034"/>
        <text transform="translate(8.098 72.066)" font-size="10" font-family="ArialMT, Arial"/>      </g>
    </g>
    <g id="Group_7275" data-name="Group 7275" transform="translate(19.915 89.246)">
      <ellipse id="Ellipse_2337" data-name="Ellipse 2337" cx="145.179" cy="52.427" rx="145.179" ry="52.427" transform="translate(141.768 940.02)" fill="#e3e3e3"/>
      <g id="Group_7273" data-name="Group 7273">
        <path id="Path_19795" data-name="Path 19795" d="M78.093,297.721S56,257.587,91.95,222.053,182.317,197.28,198.138,209.2c0,0,61.036.73,46.4,74.726Z" transform="translate(85.103 132.329)" fill="#529f95"/>
        <g id="Path_19796" data-name="Path 19796" transform="translate(-19.915 -89.246)" fill="#fff" stroke-miterlimit="10">
          <path d="M 309.2438354492188 405.6170959472656 C 282.7702026367188 405.6170959472656 254.4754028320312 404.7329406738281 225.1454010009766 402.9891662597656 C 190.2742004394531 400.9159545898438 153.4436645507812 397.5951538085938 115.6768264770508 393.1191101074219 C 106.3490371704102 392.0131225585938 97.27235412597656 389.5360717773438 88.69903564453125 385.7568969726562 C 80.30303955078125 382.0558471679688 72.49514007568359 377.1549987792969 65.49224853515625 371.1904907226562 C 58.49487686157227 365.2306823730469 52.40903472900391 358.3008422851562 47.40377426147461 350.5934143066406 C 42.30024719238281 342.7346496582031 38.38987731933594 334.1706237792969 35.78135299682617 325.1393737792969 C 30.4551944732666 306.7024841308594 26.47619438171387 287.45263671875 23.95487785339355 267.9245300292969 C 20.88461494445801 244.1449584960938 19.9564037322998 219.7347869873047 21.19603538513184 195.3721618652344 C 21.69787788391113 185.5110626220703 23.75240516662598 175.8401641845703 27.30261421203613 166.6281127929688 C 30.76640510559082 157.6400604248047 35.59061431884766 149.2436828613281 41.64109039306641 141.6721038818359 C 47.67850875854492 134.1169586181641 54.80856323242188 127.543212890625 62.83319473266602 122.1334762573242 C 71.02540588378906 116.6107406616211 79.99687957763672 112.4081649780273 89.49829864501953 109.6423721313477 C 109.3180389404297 103.8723220825195 130.0372467041016 99.29353332519531 151.0803985595703 96.03326416015625 C 176.9550323486328 92.02437591552734 203.4925079345703 89.99173736572266 229.9557800292969 89.99173736572266 C 248.3551483154297 89.99173736572266 267.0281982421875 90.97874450683594 285.4563598632812 92.92532348632812 C 305.5025024414062 95.0428466796875 325.7792053222656 98.35105895996094 345.7232055664062 102.7581634521484 C 358.5422058105469 105.5907440185547 370.6000366210938 110.6235809326172 381.5618286132812 117.7168960571289 C 386.8690795898438 121.1512145996094 391.9129943847656 125.0772705078125 396.553466796875 129.3860626220703 C 401.1588134765625 133.6622619628906 405.424560546875 138.3687896728516 409.2321472167969 143.3748931884766 C 413.0399780273438 148.3813781738281 416.4361267089844 153.7486877441406 419.3262329101562 159.3277435302734 C 422.2388305664062 164.9499969482422 424.6741027832031 170.8583679199219 426.564453125 176.8885803222656 C 430.4695129394531 189.3456878662109 432.0928344726562 202.3077392578125 431.3891906738281 215.4146881103516 C 428.8609313964844 262.5445861816406 424.8249206542969 306.6102600097656 419.3932495117188 346.3875732421875 C 418.3102416992188 354.3232727050781 415.85205078125 361.9123840332031 412.0868835449219 368.9440612792969 C 408.4299926757812 375.7736206054688 403.6468811035156 381.8880615234375 397.8704528808594 387.1174926757812 C 392.1021423339844 392.3395385742188 385.5379333496094 396.5032043457031 378.3601379394531 399.4928894042969 C 370.9885559082031 402.5632629394531 363.1876220703125 404.2997436523438 355.1739807128906 404.6541137695312 C 340.7060241699219 405.2931213378906 325.2528686523438 405.6170959472656 309.2438354492188 405.6170959472656 Z" stroke="none"/>
          <path d="M 229.9556579589844 90.73776245117188 C 203.5304870605469 90.73776245117188 177.0314331054688 92.76742553710938 151.1945495605469 96.77047729492188 C 130.1831665039062 100.0258178710938 109.4957275390625 104.5975341796875 89.70681762695312 110.358642578125 C 80.27960205078125 113.1027526855469 71.37826538085938 117.2724914550781 63.25015258789062 122.7519836425781 C 55.288330078125 128.1194458007812 48.21405029296875 134.6417541503906 42.223876953125 142.1378173828125 C 36.22103881835938 149.649658203125 31.43499755859375 157.9796447753906 27.9986572265625 166.8963317871094 C 24.4769287109375 176.0346069335938 22.43881225585938 185.6279907226562 21.94097900390625 195.4100952148438 C 20.70364379882812 219.728271484375 21.63015747070312 244.0935363769531 24.6947021484375 267.8289794921875 C 27.21121215820312 287.3195495605469 31.182373046875 306.5317993164062 36.498046875 324.9323120117188 C 39.08615112304688 333.8930053710938 42.96588134765625 342.3899536132812 48.02944946289062 350.1871032714844 C 52.99542236328125 357.8340454101562 59.03347778320312 364.70947265625 65.97598266601562 370.62255859375 C 72.92376708984375 376.5401611328125 80.670166015625 381.4024353027344 88.99993896484375 385.0742797851562 C 97.50543212890625 388.8235473632812 106.5104370117188 391.2809753417969 115.7646484375 392.3782653808594 C 153.5170593261719 396.8526000976562 190.3329772949219 400.1720886230469 225.1898193359375 402.2444458007812 C 254.5052185058594 403.9873657226562 282.7850952148438 404.87109375 309.2439880371094 404.87109375 C 325.2427673339844 404.87109375 340.684814453125 404.5473022460938 355.1410522460938 403.9088134765625 C 363.0671081542969 403.5583190917969 370.7825927734375 401.8409423828125 378.0732727050781 398.8042602539062 C 385.17236328125 395.8473815917969 391.6646728515625 391.7293090820312 397.3697814941406 386.5644226074219 C 403.0825500488281 381.3926391601562 407.8128356933594 375.3458251953125 411.42919921875 368.5919189453125 C 415.1523132324219 361.6387023925781 417.5830993652344 354.1342163085938 418.6541137695312 346.2866516113281 C 424.0830383300781 306.5291137695312 428.1170959472656 262.4840087890625 430.6442565917969 215.3746948242188 C 431.3430480957031 202.3570556640625 429.7309265136719 189.4835510253906 425.8526000976562 177.1116943359375 C 423.9751586914062 171.1227111816406 421.5565490722656 165.2547607421875 418.6638793945312 159.6708068847656 C 415.7933959960938 154.1297607421875 412.4203186035156 148.7989196777344 408.6383666992188 143.8264770507812 C 404.8566589355469 138.8543701171875 400.6199340820312 134.1798095703125 396.0458374023438 129.9327087402344 C 391.4369812011719 125.6533203125 386.427490234375 121.7540283203125 381.1565551757812 118.3432006835938 C 370.2697143554688 111.2983703613281 358.2940368652344 106.2998657226562 345.5621643066406 103.4866027832031 C 325.6453857421875 99.08554077148438 305.3964233398438 95.78182983398438 285.3779296875 93.66720581054688 C 266.9757080078125 91.723388671875 248.3289337158203 90.73776245117188 229.9556579589844 90.73776245117188 M 229.9556732177734 89.24575805664062 C 265.2806396484375 89.24575805664062 304.1985168457031 92.818359375 345.8840942382812 102.0297546386719 C 398.5068359375 113.6575012207031 435.0228271484375 161.6430358886719 432.1340942382812 215.4547119140625 C 430.0998840332031 253.3755950927734 426.4997253417969 299.8590393066406 420.1323852539062 346.488525390625 C 415.6655883789062 379.2188110351562 388.2108764648438 403.93994140625 355.2069396972656 405.3993835449219 C 306.8746948242188 407.5340576171875 227.1925964355469 407.0869750976562 115.5890502929688 393.85986328125 C 77.40365600585938 389.332275390625 45.73455810546875 362.2880859375 35.06466674804688 325.3463134765625 C 25.65060424804688 292.7589721679688 17.75082397460938 248.4009246826172 20.450927734375 195.3342590332031 C 22.50955200195312 154.883544921875 50.39898681640625 120.2467041015625 89.28982543945312 108.9260864257812 C 124.0043334960938 98.81976318359375 172.1568298339844 89.24575805664062 229.9556732177734 89.24575805664062 Z" stroke="none" fill="#586890"/>
        </g>
        <path id="Path_19797" data-name="Path 19797" d="M152.251,571.757,172.32,854.921l-28.428,29.541h70.232l-6.13-268.113s17.837.556,26.755-2.229l35.674,270.341h70.235L306.1,852.133,282.686,556.705s21.9-308.052,27.473-350.416l-23.754,4.442s-16.678-21.984-22.808-17.527,11.287,23.48,11.287,23.48L263.733,402.86s-56.3-4.458-117.056,10.034L89.266,212.228s15.365-23.83,8.675-27.175-17.685,17.463-17.685,17.463l-27.877-3.074Z" transform="translate(46.336 105.528)" fill="#fab99c"/>
        <g id="Group_7272" data-name="Group 7272" transform="translate(190.228 936.676)">
          <g id="Group_7271" data-name="Group 7271">
            <path id="Path_19798" data-name="Path 19798" d="M128.708,449.838h70.234l-34.559-32.33-1.533-19.338-41.026-.5Z" transform="translate(-2.176 -396.523)" fill="#956131"/>
            <path id="Path_19799" data-name="Path 19799" d="M152.708,450.6,151.5,397.81l-42.283-.52,1.685,23.772L82.475,450.6Z" transform="translate(-82.475 -397.29)" fill="#956131"/>
          </g>
        </g>
        <path id="Path_19800" data-name="Path 19800" d="M270.363,268.18a23.589,23.589,0,0,0-14.243,4.783A80.812,80.812,0,0,0,95.127,278.8a23.713,23.713,0,1,0,8.158,39.168,80.831,80.831,0,0,0,149.357-10.335,23.712,23.712,0,1,0,17.721-39.456Z" transform="translate(68.082 139.964)" fill="#fab99c"/>
        <path id="Path_19801" data-name="Path 19801" d="M73.6,281.43s22.486,14.5,49.8,0,46.544-36.8,46.544-36.8,16.724,22.018,36.51,29.544,28.142,1.411,28.142,1.411.009-77.359-74.823-75.27S73.132,249.247,73.6,281.43Z" transform="translate(89.611 137.339)" fill="#529f95"/>
        <circle id="Ellipse_2338" data-name="Ellipse 2338" cx="2.757" cy="2.757" r="2.757" transform="translate(209.205 427.292)" fill="#956131"/>
        <circle id="Ellipse_2339" data-name="Ellipse 2339" cx="2.757" cy="2.757" r="2.757" transform="translate(281.268 416.838)" fill="#956131"/>
        <path id="Path_19802" data-name="Path 19802" d="M104.464,229.769s-5.85,3.594-3.552,6.939,6.06,0,6.06,0" transform="translate(144.287 197.523)" fill="none" stroke="#f59d7f" stroke-linecap="round" stroke-linejoin="round" stroke-width="1.044"/>
        <path id="Path_19803" data-name="Path 19803" d="M106.006,245.821l26.479-11.914s.553,13.422-6.991,17.347C115.657,256.378,106.006,245.821,106.006,245.821Z" transform="translate(155.774 205.968)" fill="#f3f3f3"/>
        <path id="Path_19804" data-name="Path 19804" d="M215.659,307.034,85.224,322.086,105.293,605.25l41.111-.858-5.437-237.714s17.837.556,26.755-2.229l31.517,238.842,39.83-.83Z" transform="translate(113.364 355.199)" fill="#3679ce"/>
        <path id="Path_19805" data-name="Path 19805" d="M301.772,208.365,268.421,206.1l-10.2,170.235s-56.3-4.458-117.056,10.034L87.185,197.686c-9.226,1.615-21.093,3.737-32.107,5.832l91.666,341.716,130.435-15.052S293.9,294.843,301.772,208.365Z" transform="translate(51.844 132.051)" fill="#dd5f5f"/>
        <path id="Path_19806" data-name="Path 19806" d="M102.738,255.966c-1.3,0-2.585-.079-3.871-.14l.712,13.109a10.447,10.447,0,0,0,11,9.87h0a10.451,10.451,0,0,0,9.87-11l-.742-13.686A80.849,80.849,0,0,1,102.738,255.966Z" transform="translate(141.205 247.211)" fill="url(#linear-gradient-2)"/>
      </g>
      <g id="Group_7274" data-name="Group 7274" transform="translate(49.039 69.437)">
        <path id="Path_19807" data-name="Path 19807" d="M60.49,112.081l5.771,17.763H84.938l-15.11,10.978L75.6,158.585,60.49,147.607,45.38,158.585l5.772-17.763-15.11-10.978H54.719Z" transform="translate(-36.042 -112.081)" fill="#f09a32"/>
        <path id="Path_19808" data-name="Path 19808" d="M82.417,112.081l5.771,17.763h18.677l-15.11,10.978,5.771,17.763-15.11-10.978-15.11,10.978,5.772-17.763-15.11-10.978H76.645Z" transform="translate(8.704 -112.081)" fill="#f09a32"/>
        <path id="Path_19809" data-name="Path 19809" d="M104.343,112.081l5.771,17.763h18.677l-15.11,10.978,5.771,17.763-15.11-10.978-15.11,10.978,5.772-17.763L79.9,129.844H98.572Z" transform="translate(53.45 -112.081)" fill="#f09a32"/>
        <path id="Path_19810" data-name="Path 19810" d="M126.27,112.081l5.771,17.763h18.677l-15.11,10.978,5.771,17.763-15.11-10.978-15.11,10.978,5.772-17.763-15.11-10.978H120.5Z" transform="translate(98.196 -112.081)" fill="#f09a32"/>
        <path id="Path_19811" data-name="Path 19811" d="M148.2,112.081l5.771,17.763h18.677l-15.11,10.978,5.771,17.763L148.2,147.607l-15.11,10.978,5.772-17.763-15.11-10.978h18.677Z" transform="translate(142.942 -112.081)" fill="#f09a32"/>
        <text transform="translate(8.098 72.066)" font-size="10" font-family="ArialMT, Arial"/>      </g>
    </g>
    <g id="Group_7280" data-name="Group 7280" transform="translate(965.117 103.121)">
      <ellipse id="Ellipse_2340" data-name="Ellipse 2340" cx="158.022" cy="52.427" rx="158.022" ry="52.427" transform="translate(56.461 912.602)" fill="#e1e1e1"/>
      <g id="Group_7278" data-name="Group 7278">
        <g id="Path_19812" data-name="Path 19812" transform="translate(-330.763 -93.809)" fill="#fff" stroke-miterlimit="10">
          <path d="M 397.2089538574219 405.3316345214844 C 390.0538024902344 405.3312377929688 383.0834045410156 403.9778442382812 376.491455078125 401.30908203125 C 370.1039123535156 398.7230224609375 364.3125305175781 395.005615234375 359.2781982421875 390.2601318359375 C 348.9512329101562 380.5258483886719 342.8135681152344 367.3613586425781 341.9956970214844 353.1917419433594 L 331.6025085449219 173.0199127197266 C 331.1741333007812 165.6024627685547 332.2042541503906 158.3203430175781 334.664306640625 151.375732421875 C 335.8470764160156 148.0367431640625 337.36279296875 144.7929534912109 339.1693115234375 141.7344665527344 C 340.9589538574219 138.7045745849609 343.0498046875 135.8294677734375 345.3837890625 133.1891326904297 C 347.7178039550781 130.5487365722656 350.3145141601562 128.120849609375 353.1018981933594 125.9728469848633 C 355.9155883789062 123.8046264648438 358.9488525390625 121.9021835327148 362.1174621582031 120.3184585571289 C 368.7076416015625 117.0246276855469 375.8082580566406 115.1082916259766 383.2220153808594 114.6226806640625 L 687.7988891601562 94.69073486328125 C 689.1787719726562 94.60051727294922 690.5763549804688 94.55474090576172 691.952880859375 94.55474090576172 C 700.1898803710938 94.55474090576172 708.20849609375 96.14595794677734 715.7859497070312 99.28412628173828 C 719.43798828125 100.796630859375 722.9680786132812 102.6699600219727 726.2783203125 104.8521270751953 C 729.5629272460938 107.017463684082 732.6609497070312 109.506462097168 735.486328125 112.2500152587891 C 738.3159790039062 114.9977951049805 740.8970336914062 118.0250701904297 743.15771484375 121.2477416992188 C 745.4427490234375 124.5050735473633 747.4220581054688 127.9931259155273 749.040771484375 131.6148986816406 C 752.4108276367188 139.1553497314453 754.2269287109375 147.2059020996094 754.4384765625 155.5429534912109 L 758.962890625 333.9693603515625 C 759.177490234375 342.422119140625 757.7289428710938 350.6629028320312 754.65771484375 358.4627380371094 C 753.1817016601562 362.2113952636719 751.3291015625 365.8376159667969 749.1513061523438 369.2406311035156 C 746.994140625 372.6114501953125 744.4993286132812 375.7926330566406 741.736328125 378.6958618164062 C 738.9732055664062 381.5990295410156 735.9190673828125 384.2480163574219 732.658935546875 386.5691223144531 C 729.3676147460938 388.9124755859375 725.83740234375 390.9420776367188 722.1661987304688 392.6015625 C 714.5276489257812 396.0545043945312 706.3685302734375 397.908447265625 697.9155883789062 398.1119079589844 L 398.5626831054688 405.3153381347656 C 398.1122436523438 405.326171875 397.6567993164062 405.3316345214844 397.2089538574219 405.3316345214844 Z" stroke="none"/>
          <path d="M 397.2090148925781 404.5856323242188 L 397.2089538574219 404.5856323242188 C 397.6515808105469 404.5856323242188 398.1010131835938 404.5802307128906 398.5447692871094 404.5695190429688 L 697.8976440429688 397.3661193847656 C 706.2501831054688 397.1650390625 714.3118896484375 395.3333435058594 721.8589477539062 391.9218139648438 C 725.4862060546875 390.2821044921875 728.9743041992188 388.2767639160156 732.226318359375 385.9614562988281 C 735.44775390625 383.6678771972656 738.465576171875 381.05029296875 741.1959228515625 378.1815185546875 C 743.9262084960938 375.312744140625 746.3914184570312 372.1693420410156 748.5230102539062 368.8385314941406 C 750.6747436523438 365.4761047363281 752.5053100585938 361.8932189941406 753.963623046875 358.1893920898438 C 756.998046875 350.4830627441406 758.42919921875 342.3406372070312 758.2171630859375 333.98828125 L 753.6927490234375 155.5618743896484 C 753.4837036132812 147.3238220214844 751.6893920898438 139.3693389892578 748.3597412109375 131.9193420410156 C 746.7604370117188 128.3408813476562 744.8047485351562 124.8945846557617 742.5470581054688 121.6761703491211 C 740.3131713867188 118.4917602539062 737.7627563476562 115.5004043579102 734.9666748046875 112.7852249145508 C 732.1746826171875 110.0741729736328 729.1134033203125 107.6146392822266 725.8677368164062 105.4749374389648 C 722.596923828125 103.3187561035156 719.1089477539062 101.4677581787109 715.5005493164062 99.97334289550781 C 708.0139770507812 96.87281799316406 700.0914306640625 95.30069732666016 691.952880859375 95.30069732666016 C 690.5924682617188 95.30069732666016 689.2112426757812 95.34593200683594 687.8475952148438 95.43517303466797 L 383.2707824707031 115.3671112060547 C 375.9566040039062 115.8461685180664 368.9518127441406 117.7365798950195 362.4509887695312 120.9857559204102 C 356.1692504882812 124.1254653930664 350.6150512695312 128.3975219726562 345.9427795410156 133.6831665039062 C 341.2704162597656 138.9688720703125 337.7123413085938 145.0053405761719 335.3674621582031 151.6248168945312 C 332.9407653808594 158.4752807617188 331.9245910644531 165.6591644287109 332.3472290039062 172.9769287109375 L 342.740478515625 353.1487121582031 C 343.5473022460938 367.1272888183594 349.6022338867188 380.1142272949219 359.7898864746094 389.71728515625 C 364.756591796875 394.3989868164062 370.4700012207031 398.06640625 376.7714233398438 400.6175842285156 C 383.2740478515625 403.2501831054688 390.1502380371094 404.5852355957031 397.2090148925781 404.5856323242188 M 397.2089538574219 406.0776062011719 C 367.5905151367188 406.0760192871094 342.9667663574219 382.9611206054688 341.2509460449219 353.2347106933594 L 330.8576965332031 173.0628814697266 C 329.0819396972656 142.3151092529297 352.4407653808594 115.891227722168 383.1732482910156 113.878288269043 L 687.7501831054688 93.94635009765625 C 689.1607666015625 93.85408020019531 690.5599975585938 93.80872344970703 691.952880859375 93.80872344970703 C 725.9959106445312 93.80872344970703 754.3077392578125 120.9866180419922 755.184326171875 155.5239868164062 L 759.7086791992188 333.9504699707031 C 760.5967407226562 368.9430541992188 732.9262084960938 398.0154113769531 697.9335327148438 398.8576965332031 L 398.5806579589844 406.0610961914062 C 398.1212463378906 406.0721435546875 397.6660461425781 406.07763671875 397.2089538574219 406.0776062011719 Z" stroke="none" fill="#5e709a"/>
        </g>
        <path id="Path_19813" data-name="Path 19813" d="M370.857,280.924c2.658-21.7,6.69-88.762,94.9-77.475s86.539,113.294,80.686,169.523-10.871,109.74-49.749,110.992-97.826-32.606-111.622-113.711S370.857,280.924,370.857,280.924Z" transform="translate(-248.942 127.345)"/>
        <path id="Path_19814" data-name="Path 19814" d="M357.168,215.144l24.353-.587s6.723-22.4,12.02-19.616-4.926,26.573-4.926,26.573L438.48,417.7s39.3-10.138,86.119-5.349l57.765-197.276s-10.731-24.207-3.625-27.552,12.017,22.006,12.017,22.006l19.044-.459S543,390.381,539.651,479.428s10.311,108,30.38,363.013L603.2,868.011H543.832L533.518,735.974s-64.25,3.977-88.777,1.748l-3.752,131.751h-58.8l32.049-26.755S420.087,690.6,421.759,573.1,357.168,215.144,357.168,215.144Z" transform="translate(-276.877 96.807)" fill="#f9b89c"/>
        <g id="Group_7277" data-name="Group 7277" transform="translate(105.306 939.247)">
          <g id="Group_7276" data-name="Group 7276">
            <path id="Path_19815" data-name="Path 19815" d="M424.964,402.774l-27.519.049-32.051,26.756H424.2Z" transform="translate(-365.395 -402.544)" fill="#f3f3f3"/>
            <path id="Path_19816" data-name="Path 19816" d="M446.092,402.7l-28.191.05,1.993,25.521h59.364Z" transform="translate(-258.245 -402.699)" fill="#f3f3f3"/>
          </g>
        </g>
        <path id="Path_19817" data-name="Path 19817" d="M499.758,304.245,380.486,309.63c.438,8.672.629,16.928.52,24.642-.751,52.678-2.341,112.312-3.868,162.08a232.051,232.051,0,0,0,26.85,2.545c24.526,2.229,88.777-1.748,88.777-1.748s9.782-1.037,26.926-4.181C509.89,390.529,502.638,345.252,499.758,304.245Z" transform="translate(-236.124 335.633)" fill="#ea5f83"/>
        <path id="Path_19818" data-name="Path 19818" d="M556.424,299.5a23.81,23.81,0,0,0-7.413,1.192,80.257,80.257,0,0,0-148.715-54.4,23.87,23.87,0,1,0-10.345,42.527,80.247,80.247,0,0,0,144.872,44.525,23.821,23.821,0,1,0,21.6-33.84Z" transform="translate(-266.618 134.23)" fill="#f9b89c"/>
        <path id="Path_19819" data-name="Path 19819" d="M377.185,247.95s-6.328,13.823-2.357,15.286,15.888-16.3,15.888-16.3,24.663,19.233,77.757,9.2c0,0,20.069,33.235,47.241,45.568,0,0-4.145,14.164.42,15.052,6.966,1.353,9.767-14.395,9.767-14.395s25.347-68.59-46.347-92.21S377.185,247.95,377.185,247.95Z" transform="translate(-243.508 132.567)"/>
        <path id="Path_19820" data-name="Path 19820" d="M535.473,451.34c2.521-67.1,41.074-186.588,59.924-241.409l-21.933-6.823L520.422,384.258c-46.821-4.789-86.119,5.349-86.119,5.349L386.356,200.979l-27.141,9.505c15.112,58.148,52.878,211.494,57.847,309.883l119.272-5.385A564.316,564.316,0,0,1,535.473,451.34Z" transform="translate(-272.7 124.896)" fill="#ea5f83"/>
        <path id="Path_19821" data-name="Path 19821" d="M388.195,227.111a3.135,3.135,0,1,0-3.135,3.138A3.136,3.136,0,0,0,388.195,227.111Z" transform="translate(-226.355 171.826)" fill="#9f6835"/>
        <path id="Path_19822" data-name="Path 19822" d="M411.017,237.285a3.135,3.135,0,1,0-3.135,3.138A3.135,3.135,0,0,0,411.017,237.285Z" transform="translate(-179.782 192.589)" fill="#9f6835"/>
        <path id="Path_19823" data-name="Path 19823" d="M374.6,303.376c5.525,33.767,9.651,66.549,11.077,94.807h0L504.945,392.8a565.052,565.052,0,0,1-.86-63.642c.286-7.611,1.046-15.909,2.177-24.7-6.507-10.749-12.653-24.587-17.229-42.381-6.957-.712-13.741-1.086-20.263-1.222-3.6,14.574-11,32.98-25.512,34.232-14.763,1.271-22.468-16.432-26.241-30.483-8.879,1.478-14.1,2.822-14.1,2.822S394.713,284.8,374.6,303.376Z" transform="translate(-241.311 247.08)" fill="#cd1818"/>
        <path id="Path_19824" data-name="Path 19824" d="M395.75,228.082s-5.157-.28-5.574,2.928,2.785,4.458,2.785,4.458" transform="translate(-209.594 180.193)" fill="none" stroke="#f59c7e" stroke-linecap="round" stroke-linejoin="round" stroke-width="1.044"/>
        <path id="Path_19825" data-name="Path 19825" d="M391.061,237.794s11.1,10.451,26.147,9.2" transform="translate(-207.711 200.025)" fill="none" stroke="#f59c7e" stroke-linecap="round" stroke-linejoin="round" stroke-width="1.044"/>
        <path id="Path_19826" data-name="Path 19826" d="M405.1,258.864a81.027,81.027,0,0,1-11.035-.769v10.4a10.4,10.4,0,0,0,10.4,10.405h.934A10.4,10.4,0,0,0,415.8,268.5V258.135A81.188,81.188,0,0,1,405.1,258.864Z" transform="translate(-201.579 241.454)" fill="url(#linear-gradient-3)"/>
      </g>
      <g id="Group_7279" data-name="Group 7279" transform="translate(54.202 51.022)">
        <path id="Path_19827" data-name="Path 19827" d="M372.147,114.838l6.625,17.462,18.655-.9-14.56,11.7,6.625,17.462-15.624-10.233-14.56,11.7,4.9-18.021-15.624-10.233,18.655-.9Z" transform="translate(-348.588 -101.916)" fill="#ef9932"/>
        <path id="Path_19828" data-name="Path 19828" d="M394.048,113.776l6.625,17.462,18.655-.9-14.56,11.7,6.625,17.462-15.624-10.233-14.56,11.7,4.9-18.021L370.489,132.7l18.655-.9Z" transform="translate(-303.895 -104.084)" fill="#ef9932"/>
        <path id="Path_19829" data-name="Path 19829" d="M415.949,112.713l6.625,17.462,18.654-.9-14.56,11.7,6.625,17.462L417.67,148.2l-14.56,11.7,4.9-18.021L392.39,131.64l18.655-.9Z" transform="translate(-259.201 -106.252)" fill="#ef9932"/>
        <path id="Path_19830" data-name="Path 19830" d="M437.849,111.651l6.625,17.462,18.655-.9-14.56,11.7,6.625,17.462-15.624-10.233-14.56,11.7,4.9-18.021-15.624-10.233,18.655-.9Z" transform="translate(-214.508 -108.42)" fill="#ef9932"/>
        <path id="Path_19831" data-name="Path 19831" d="M459.75,110.588l6.625,17.462,18.655-.9-14.56,11.7,6.625,17.462-15.624-10.233-14.56,11.7,4.9-18.021-15.624-10.233,18.655-.9Z" transform="translate(-169.814 -110.588)" fill="#ef9932"/>
      </g>
    </g>
  </g>
</svg>
