<?xml version="1.0" encoding="utf-8"?>
<!-- Generator: Adobe Illustrator 16.0.0, SVG Export Plug-In . SVG Version: 6.00 Build 0)  -->
<!DOCTYPE svg PUBLIC "-//W3C//DTD SVG 1.1//EN" "http://www.w3.org/Graphics/SVG/1.1/DTD/svg11.dtd">
<svg version="1.1" id="Layer_1" xmlns="http://www.w3.org/2000/svg" xmlns:xlink="http://www.w3.org/1999/xlink" x="0px" y="0px"
	 width="430.145px" height="403.289px" viewBox="0 0 430.145 403.289" enable-background="new 0 0 430.145 403.289"
	 xml:space="preserve">
<g id="Group_7295" transform="translate(-2541.211 28752.195)">
	<g id="Group_7287" transform="translate(3012.211 388.385)">
		<path id="Path_19833" fill="#473080" d="M-196.672-28737.291h119.868c19.854,0,35.948-14.424,35.948-32.217v-305.516
			c0-17.793-16.095-32.215-35.948-32.215h-358.248c-19.853,0-35.948,14.422-35.948,32.215v305.516
			c0,17.793,16.1,32.217,35.948,32.217h124.227"/>
	</g>
</g>
<g id="Online_PR" transform="translate(393.632 28945.002)">
	<g id="Group_6209" transform="translate(98.368 162.237)">
		<g id="Group_6193">
			<path id="Path_17402" fill="#FFFFFF" d="M-116.955-28908.945h-320.51v-185.461c0-7.086,5.744-12.832,12.831-12.832h294.848
				c7.085,0,12.829,5.744,12.829,12.83c0,0,0,0.002,0,0.002v185.461H-116.955z"/>
			<path id="Path_17403" fill="#1CAEE4" d="M-131.133-28917.219h-292.149c-2.982,0-5.4-2.418-5.4-5.4v-170.943
				c0-2.984,2.418-5.402,5.4-5.402l0,0h292.149c2.982,0,5.399,2.418,5.399,5.402v170.943
				C-125.733-28919.637-128.15-28917.219-131.133-28917.219z"/>
			<path id="Path_17404" fill="#E6E7E8" d="M-98.048-28879.686h-358.323c-8.079,0-14.629-6.549-14.629-14.629l0,0
				c0-8.08,6.55-14.629,14.629-14.629h358.323c8.079,0,14.629,6.549,14.629,14.629l0,0
				C-83.419-28886.234-89.969-28879.686-98.048-28879.686z"/>
			<path id="Path_17405" fill="#D1D3D4" d="M-96.014-28879.844c0.333-0.045,0.666-0.09,0.991-0.158c0.2-0.041,0.387-0.1,0.58-0.15
				c0.287-0.074,0.577-0.143,0.857-0.234c0.2-0.064,0.394-0.143,0.59-0.215c0.264-0.102,0.529-0.193,0.786-0.307
				c0.2-0.086,0.386-0.186,0.58-0.279c0.244-0.119,0.488-0.238,0.725-0.371c0.191-0.107,0.371-0.225,0.558-0.338
				c0.226-0.141,0.452-0.283,0.669-0.432c0.18-0.127,0.353-0.26,0.525-0.395c0.208-0.16,0.414-0.32,0.613-0.492
				c0.168-0.145,0.328-0.293,0.491-0.443c0.19-0.178,0.376-0.359,0.557-0.547c0.153-0.16,0.3-0.326,0.447-0.494
				c0.17-0.199,0.336-0.395,0.5-0.6c0.137-0.174,0.271-0.354,0.399-0.535c0.15-0.211,0.296-0.428,0.436-0.646
				c0.12-0.188,0.236-0.379,0.348-0.574c0.13-0.227,0.252-0.459,0.371-0.693c0.101-0.199,0.2-0.4,0.292-0.604
				c0.107-0.242,0.206-0.488,0.3-0.736c0.081-0.207,0.16-0.42,0.231-0.633c0.084-0.254,0.155-0.516,0.226-0.775
				c0.059-0.215,0.12-0.432,0.168-0.652c0.06-0.268,0.101-0.543,0.147-0.814c0.036-0.225,0.076-0.445,0.1-0.67
				c0.033-0.283,0.046-0.57,0.064-0.855c0.013-0.225,0.03-0.449,0.036-0.676c0-0.305-0.016-0.613-0.03-0.922
				c-0.01-0.201-0.013-0.408-0.03-0.605c-0.7-7.652-7.625-13.258-15.317-13.258h-105.134c-0.063,0-0.117,0.041-0.136,0.102
				c-2.935,8.682-11.078,14.525-20.243,14.529h-105.785c-9.165-0.004-17.307-5.85-20.243-14.529c-0.019-0.059-0.073-0.1-0.135-0.102
				h-105.134c-7.694,0-14.617,5.602-15.318,13.258c-0.018,0.199-0.02,0.4-0.031,0.605c-0.015,0.307-0.036,0.617-0.031,0.922
				c0,0.23,0.02,0.453,0.036,0.676c0.015,0.285,0.031,0.572,0.061,0.855c0.025,0.225,0.066,0.449,0.1,0.674
				c0.043,0.271,0.089,0.547,0.147,0.814c0.048,0.219,0.109,0.436,0.168,0.654c0.071,0.26,0.142,0.52,0.226,0.773
				c0.071,0.217,0.153,0.426,0.234,0.637c0.094,0.246,0.193,0.492,0.3,0.732c0.092,0.205,0.191,0.406,0.292,0.604
				c0.12,0.234,0.242,0.465,0.371,0.693c0.112,0.191,0.229,0.383,0.348,0.57c0.14,0.219,0.285,0.436,0.435,0.646
				c0.13,0.182,0.262,0.361,0.4,0.537c0.16,0.199,0.328,0.398,0.5,0.6c0.147,0.168,0.295,0.332,0.447,0.492
				c0.181,0.189,0.369,0.369,0.557,0.547c0.16,0.15,0.323,0.301,0.491,0.445c0.2,0.17,0.4,0.33,0.613,0.49
				c0.173,0.137,0.348,0.271,0.526,0.395c0.219,0.152,0.445,0.293,0.671,0.434c0.186,0.113,0.366,0.23,0.557,0.336
				c0.236,0.133,0.481,0.25,0.722,0.371c0.193,0.094,0.384,0.191,0.582,0.279c0.257,0.111,0.519,0.205,0.783,0.299
				c0.2,0.074,0.389,0.154,0.59,0.217c0.282,0.088,0.57,0.16,0.857,0.234c0.193,0.049,0.384,0.107,0.58,0.15
				c0.325,0.068,0.659,0.111,0.989,0.16c0.168,0.021,0.331,0.057,0.5,0.074c0.51,0.055,1.023,0.082,1.536,0.082h358.326
				c0.514,0,1.027-0.027,1.538-0.082C-96.345-28879.785-96.182-28879.82-96.014-28879.844z"/>
			<path id="Path_17406" fill="#BCBEC0" d="M-83.488-28895.688c-0.203-2.07-0.876-4.066-1.968-5.836
				c-0.084,0.143-0.168,0.283-0.257,0.42c-0.14,0.219-0.285,0.436-0.436,0.646c-0.13,0.18-0.264,0.359-0.399,0.535
				c-0.16,0.199-0.325,0.4-0.5,0.6c-0.146,0.168-0.295,0.334-0.447,0.494c-0.181,0.188-0.366,0.369-0.557,0.547
				c-0.16,0.148-0.323,0.301-0.491,0.445c-0.2,0.17-0.4,0.33-0.613,0.49c-0.173,0.133-0.348,0.268-0.525,0.395
				c-0.22,0.152-0.442,0.291-0.669,0.436c-0.187,0.113-0.366,0.23-0.558,0.336c-0.235,0.133-0.48,0.254-0.725,0.371
				c-0.193,0.094-0.384,0.193-0.58,0.281c-0.257,0.111-0.521,0.205-0.786,0.301c-0.2,0.072-0.389,0.152-0.59,0.215
				c-0.282,0.09-0.57,0.16-0.857,0.234c-0.192,0.047-0.381,0.107-0.58,0.15c-0.325,0.068-0.658,0.113-0.991,0.158
				c-0.168,0.023-0.328,0.059-0.5,0.078c-0.512,0.053-1.024,0.08-1.538,0.08h-358.316c-0.513,0-1.026-0.027-1.536-0.08
				c-0.168-0.02-0.333-0.055-0.5-0.078c-0.333-0.045-0.666-0.09-0.989-0.158c-0.2-0.041-0.386-0.1-0.58-0.15
				c-0.287-0.074-0.577-0.143-0.857-0.234c-0.2-0.064-0.394-0.145-0.59-0.215c-0.262-0.102-0.526-0.191-0.783-0.301
				c-0.2-0.086-0.389-0.188-0.582-0.281c-0.244-0.117-0.488-0.234-0.722-0.367c-0.191-0.107-0.371-0.225-0.557-0.34
				c-0.226-0.139-0.453-0.281-0.671-0.434c-0.181-0.125-0.353-0.26-0.526-0.395c-0.208-0.16-0.414-0.32-0.613-0.49
				c-0.168-0.146-0.331-0.295-0.491-0.445c-0.191-0.178-0.376-0.359-0.557-0.547c-0.153-0.16-0.3-0.326-0.447-0.494
				c-0.17-0.199-0.338-0.393-0.5-0.6c-0.137-0.174-0.272-0.354-0.4-0.535c-0.15-0.211-0.295-0.428-0.435-0.646
				c-0.089-0.137-0.173-0.281-0.254-0.418c-1.092,1.77-1.765,3.766-1.968,5.834c-0.018,0.201-0.02,0.4-0.031,0.605
				c-0.015,0.307-0.036,0.617-0.031,0.922c0,0.229,0.02,0.453,0.036,0.678c0.015,0.283,0.031,0.57,0.061,0.854
				c0.025,0.225,0.066,0.449,0.1,0.674c0.043,0.271,0.089,0.547,0.147,0.813c0.048,0.223,0.109,0.438,0.168,0.656
				c0.071,0.26,0.142,0.52,0.226,0.773c0.071,0.217,0.153,0.426,0.234,0.637c0.094,0.246,0.193,0.492,0.3,0.73
				c0.092,0.207,0.191,0.408,0.292,0.605c0.119,0.234,0.242,0.465,0.371,0.693c0.112,0.193,0.229,0.383,0.348,0.572
				c0.14,0.219,0.285,0.434,0.435,0.645c0.13,0.182,0.262,0.361,0.4,0.537c0.16,0.199,0.328,0.4,0.5,0.6
				c0.147,0.168,0.295,0.332,0.447,0.492c0.181,0.188,0.369,0.369,0.557,0.547c0.16,0.15,0.323,0.301,0.491,0.445
				c0.2,0.17,0.4,0.332,0.613,0.492c0.173,0.135,0.348,0.27,0.526,0.393c0.219,0.154,0.445,0.293,0.671,0.432
				c0.186,0.115,0.366,0.232,0.557,0.34c0.236,0.131,0.481,0.248,0.722,0.367c0.193,0.094,0.384,0.193,0.582,0.281
				c0.257,0.111,0.519,0.205,0.783,0.301c0.2,0.072,0.389,0.152,0.59,0.215c0.282,0.09,0.57,0.16,0.857,0.234
				c0.193,0.047,0.384,0.107,0.58,0.15c0.325,0.068,0.659,0.111,0.989,0.158c0.168,0.023,0.331,0.059,0.5,0.078
				c0.51,0.053,1.023,0.08,1.536,0.08h358.33c0.514,0,1.027-0.027,1.538-0.08c0.168-0.02,0.331-0.055,0.5-0.078
				c0.333-0.045,0.666-0.09,0.992-0.158c0.199-0.041,0.386-0.1,0.58-0.15c0.286-0.074,0.576-0.143,0.856-0.234
				c0.2-0.064,0.395-0.143,0.59-0.215c0.265-0.102,0.529-0.193,0.786-0.307c0.2-0.086,0.386-0.186,0.58-0.279
				c0.244-0.121,0.488-0.238,0.725-0.371c0.191-0.107,0.371-0.225,0.558-0.338c0.226-0.141,0.453-0.283,0.669-0.432
				c0.181-0.127,0.353-0.26,0.526-0.395c0.208-0.16,0.413-0.32,0.612-0.49c0.168-0.146,0.328-0.295,0.491-0.445
				c0.191-0.178,0.376-0.359,0.557-0.547c0.153-0.16,0.301-0.326,0.447-0.494c0.17-0.199,0.336-0.395,0.5-0.6
				c0.137-0.174,0.272-0.354,0.4-0.535c0.149-0.211,0.295-0.428,0.435-0.646c0.119-0.188,0.236-0.379,0.349-0.574
				c0.13-0.227,0.252-0.459,0.37-0.693c0.101-0.199,0.2-0.4,0.292-0.604c0.107-0.242,0.206-0.488,0.301-0.736
				c0.081-0.207,0.159-0.42,0.23-0.633c0.084-0.254,0.155-0.516,0.227-0.775c0.058-0.215,0.119-0.432,0.168-0.652
				c0.058-0.268,0.1-0.543,0.146-0.814c0.036-0.225,0.076-0.445,0.101-0.67c0.032-0.283,0.046-0.57,0.063-0.855
				c0.013-0.225,0.03-0.449,0.036-0.676c0-0.305-0.015-0.613-0.031-0.922C-83.472-28895.283-83.472-28895.49-83.488-28895.688z"/>
		</g>
		<path id="Path_17407" fill="#009ADD" d="M-125.733-29085.982c-0.019-2.973-2.437-5.371-5.409-5.365h-44.24
			c-0.229,0.199-0.433,0.406-0.636,0.609c-3.051,2.889-5.873,6.008-8.441,9.332c-1.271,1.652-2.492,3.355-3.636,5.109
			c-0.559,0.863-1.119,1.754-1.653,2.645c-1.093,1.779-2.085,3.609-3.026,5.465c-0.457,0.941-0.914,1.857-1.348,2.822
			c-0.863,1.881-1.652,3.814-2.363,5.771c-0.356,0.992-0.687,1.984-1.018,2.975c-0.637,1.982-1.195,3.992-1.7,6.025
			c-1.571,6.664-2.307,13.496-2.187,20.342v10.4c0.024,0.508,0.024,1.016,0.051,1.551l-16.45,23.898
			c-0.222,0.336-0.426,0.684-0.61,1.043c-0.166,0.355-0.31,0.721-0.432,1.094c-0.229,0.715-0.34,1.461-0.331,2.211v10.449
			c-0.216,4.273,3.073,7.912,7.347,8.127c0.127,0.006,0.255,0.01,0.383,0.01h18.025v31.172c-0.004,8.533,6.91,15.453,15.444,15.457
			c0.005,0,0.009,0,0.014,0c10.234-0.029,20.448-0.914,30.535-2.645l2.771,10.268h13.511c2.982,0,5.399-2.418,5.399-5.4V-29085.982
			L-125.733-29085.982z"/>
		<g id="Group_6194" transform="translate(251.826 8.263)">
			<path id="Path_17408" fill="#F7CB15" d="M-377.555-29018.531v87.639c0.009,2.982-2.402,5.408-5.385,5.416
				c-0.011,0-0.021,0-0.031,0h-11.441l-4.831-17.9l-0.534-1.957l-2.288-8.416l-17.492-64.781h42H-377.555z"/>
			<path id="Path_17409" fill="#E7AD27" d="M-383.606-28925.477h-10.806l-4.831-17.9l-0.534-1.957l-2.263-8.416h-0.025
				l-17.492-64.781h10.831l16.984,62.9l2.771,10.246L-383.606-28925.477z"/>
			<path id="Path_17410" fill="#F7CB15" d="M-377.554-29101.824v153.566c-3.764,1.068-7.577,2.01-11.416,2.873
				c-3.407,0.736-6.84,1.424-10.272,2.01c-10.087,1.73-20.301,2.615-30.535,2.645c-8.533,0.004-15.454-6.912-15.458-15.445
				c0-0.004,0-0.008,0-0.012v-31.172h-18.026c-4.277-0.004-7.742-3.477-7.738-7.754c0-0.129,0.004-0.256,0.01-0.383v-10.449
				c-0.009-0.752,0.104-1.498,0.331-2.213c0.122-0.373,0.267-0.738,0.433-1.094c0.184-0.357,0.387-0.705,0.609-1.041l16.45-23.9
				c-0.025-0.533-0.025-1.041-0.052-1.551v-10.4c-0.119-6.844,0.615-13.676,2.188-20.34c0.508-2.033,1.068-4.043,1.7-6.025
				c0.331-0.992,0.661-1.982,1.017-2.975c0.713-1.959,1.5-3.891,2.364-5.771c0.433-0.967,0.89-1.881,1.349-2.822
				c0.94-1.855,1.932-3.688,3.025-5.467c0.534-0.889,1.093-1.779,1.652-2.643c1.145-1.754,2.365-3.459,3.637-5.111
				c2.568-3.322,5.391-6.443,8.441-9.33c0.199-0.199,0.406-0.406,0.636-0.609h44.239c2.981-0.01,5.407,2.398,5.417,5.383
				C-377.554-29101.846-377.554-29101.834-377.554-29101.824z"/>
			<path id="Path_17411" fill="#FEDE3A" d="M-377.555-29101.824v142.736c-4.679,1.322-9.407,2.492-14.188,3.457
				c-3.432,0.736-6.839,1.35-10.3,1.881h-0.025c-9.168,1.439-18.433,2.172-27.713,2.188c-8.533,0.004-15.454-6.91-15.458-15.443
				c0-0.006,0-0.01,0-0.014v-31.168h-18.023c-4.269,0-7.729-3.459-7.729-7.727c0-0.012,0-0.02,0-0.029
				c-0.009-0.75,0.103-1.498,0.331-2.213c0.122-0.371,0.266-0.736,0.432-1.092c0.185-0.357,0.389-0.705,0.61-1.041l16.45-23.902
				l0.863-1.246c-0.555-3.539-0.861-7.115-0.914-10.699c-0.12-6.844,0.615-13.676,2.187-20.34c0.508-2.033,1.067-4.043,1.7-6.025
				c0.331-0.992,0.66-1.982,1.017-2.975c0.712-1.959,1.5-3.891,2.365-5.771c0.433-0.967,0.89-1.881,1.349-2.822
				c0.94-1.855,1.957-3.688,3.025-5.465c0.534-0.891,1.093-1.781,1.652-2.645c1.145-1.754,2.365-3.459,3.637-5.109
				c2.568-3.324,5.391-6.445,8.441-9.332c0.199-0.199,0.406-0.406,0.636-0.609h44.239c2.981-0.01,5.406,2.4,5.415,5.383
				C-377.555-29101.84-377.555-29101.832-377.555-29101.824z"/>
		</g>
		<g id="Group_6196" transform="translate(58.017 21.573)">
			<path id="Path_17412" fill="#009ADD" d="M-290.687-29062.193h-175.228c-2.808-0.002-5.084-2.277-5.085-5.086v-24.699
				c0.001-2.809,2.277-5.084,5.085-5.086h175.23c2.809,0,5.086,2.275,5.087,5.082v24.701c0.001,2.809-2.276,5.086-5.086,5.088
				C-290.685-29062.193-290.686-29062.193-290.687-29062.193z"/>
			<path id="Path_17413" fill="#D1D3D4" d="M-290.687-29067.279h-175.228c-2.808-0.002-5.084-2.277-5.085-5.084v-24.703
				c0.001-2.809,2.277-5.084,5.085-5.086h175.23c2.809,0,5.086,2.275,5.087,5.084c0,0,0,0.002,0,0.002v24.699
				c0.001,2.809-2.276,5.088-5.086,5.088C-290.685-29067.279-290.686-29067.279-290.687-29067.279z"/>
			<path id="Path_17414" fill="#FFFFFF" d="M-290.687-29072.363h-175.228c-2.808-0.002-5.084-2.277-5.085-5.086v-24.703
				c0.001-2.809,2.277-5.084,5.085-5.084h175.23c2.809-0.002,5.086,2.273,5.087,5.082c0,0.002,0,0.002,0,0.002v24.701
				c0.001,2.809-2.276,5.088-5.086,5.088C-290.685-29072.363-290.686-29072.363-290.687-29072.363z"/>
			<g id="Group_6195" transform="translate(46.93 5.871)">
				<path id="Path_17415" fill="#009ADD" d="M-443.618-29107.236h-0.88c-0.718,0-1.346,0.482-1.531,1.176l-3.964,14.875
					l-4.532-14.926c-0.203-0.666-0.818-1.123-1.515-1.123h-0.892c-0.697,0-1.312,0.453-1.515,1.121l-4.556,14.91l-3.985-14.857
					c-0.187-0.691-0.814-1.172-1.531-1.17h-0.895c-0.875-0.002-1.585,0.707-1.587,1.582c0,0.141,0.019,0.281,0.056,0.418
					l5.853,21.684c0.187,0.691,0.814,1.172,1.531,1.172h0.908c0.7,0,1.316-0.457,1.518-1.129l4.645-15.492l4.607,15.49
					c0.201,0.67,0.819,1.131,1.52,1.131h0.908c0.716,0,1.344-0.48,1.531-1.172l5.84-21.686c0.227-0.848-0.278-1.719-1.126-1.945
					c-0.133-0.037-0.27-0.055-0.407-0.055L-443.618-29107.236z"/>
				<path id="Path_17416" fill="#009ADD" d="M-412.333-29107.236h-0.88c-0.718,0-1.346,0.482-1.531,1.176l-3.964,14.875
					l-4.533-14.926c-0.204-0.666-0.818-1.123-1.515-1.123h-0.892c-0.696,0-1.311,0.453-1.515,1.121l-4.556,14.91l-3.987-14.857
					c-0.185-0.693-0.813-1.176-1.531-1.174h-0.895c-0.875-0.002-1.585,0.707-1.586,1.58c0,0.143,0.019,0.283,0.056,0.42
					l5.853,21.684c0.187,0.691,0.814,1.172,1.531,1.172h0.908c0.699,0,1.316-0.459,1.518-1.129l4.645-15.492l4.607,15.49
					c0.201,0.67,0.819,1.131,1.52,1.131h0.908c0.716,0,1.344-0.48,1.531-1.172l5.84-21.686c0.227-0.848-0.278-1.721-1.126-1.945
					C-412.06-29107.219-412.197-29107.234-412.333-29107.236L-412.333-29107.236z"/>
				<path id="Path_17417" fill="#009ADD" d="M-379.787-29106.617c-0.301-0.391-0.766-0.621-1.26-0.619h-0.879
					c-0.718,0-1.346,0.482-1.531,1.176l-3.964,14.875l-4.531-14.926c-0.204-0.666-0.818-1.123-1.515-1.123h-0.893
					c-0.696,0-1.312,0.453-1.515,1.121l-4.556,14.91l-3.987-14.857c-0.185-0.693-0.813-1.176-1.531-1.174h-0.895
					c-0.875-0.002-1.585,0.707-1.586,1.58c0,0.143,0.018,0.283,0.055,0.42l5.853,21.684c0.187,0.691,0.814,1.172,1.531,1.172h0.908
					c0.7,0,1.316-0.459,1.518-1.129l4.645-15.492l4.607,15.49c0.202,0.67,0.819,1.131,1.52,1.131h0.908
					c0.716,0,1.344-0.48,1.531-1.172l5.841-21.686C-379.386-29105.715-379.488-29106.223-379.787-29106.617z"/>
			</g>
		</g>
		<path id="Path_17418" fill="#BCBEC0" d="M-117.598-29060.611l-0.031-0.023c-0.219-0.182-0.453-0.342-0.676-0.516
			c-0.463-0.361-0.926-0.723-1.411-1.055c-0.295-0.201-0.601-0.385-0.9-0.578c-0.437-0.275-0.877-0.551-1.33-0.809
			c-0.328-0.182-0.664-0.35-1-0.523c-0.45-0.232-0.904-0.453-1.368-0.658c-0.351-0.16-0.699-0.301-1.06-0.445
			c-0.119-0.047-0.236-0.102-0.356-0.148v25.523c0.898,1.271,1.55,2.699,1.921,4.211c-0.093,0.395-0.229,0.77-0.356,1.148
			c-0.186,0.553-0.409,1.09-0.671,1.611c-0.195,0.412-0.412,0.813-0.651,1.201c-0.074,0.111-0.16,0.213-0.242,0.316v25.521
			c2.954-1.127,5.701-2.732,8.132-4.752l0.641,0.213v-50.451L-117.598-29060.611z"/>
		<path id="Path_17419" fill="#E7AD27" d="M-125.728-29031.355c-0.128,0.168-0.253,0.336-0.382,0.5
			c-0.252,0.326-0.5,0.652-0.782,0.951c-0.231,0.244-0.483,0.469-0.732,0.695c-0.313,0.281-0.636,0.553-0.976,0.805
			c-0.263,0.193-0.529,0.371-0.807,0.545c-0.382,0.234-0.776,0.449-1.182,0.641c-0.275,0.133-0.547,0.268-0.831,0.379
			c-0.477,0.182-0.964,0.332-1.459,0.453c-0.252,0.064-0.493,0.15-0.75,0.199c-1.561,0.32-3.169,0.32-4.729,0
			c-0.257-0.047-0.5-0.131-0.75-0.199c-0.495-0.121-0.982-0.271-1.459-0.453c-0.284-0.111-0.557-0.246-0.831-0.379
			c-0.404-0.191-0.799-0.406-1.182-0.641c-0.277-0.174-0.547-0.354-0.806-0.545c-0.339-0.252-0.665-0.52-0.977-0.805
			c-0.249-0.227-0.5-0.451-0.731-0.695c-0.277-0.303-0.538-0.619-0.783-0.951c-0.208-0.271-0.435-0.527-0.62-0.818
			c-0.238-0.389-0.455-0.789-0.651-1.199c-0.261-0.521-0.485-1.061-0.671-1.611c-0.138-0.377-0.257-0.76-0.355-1.148
			c1.593-6.717,8.329-10.871,15.046-9.279c3.011,0.713,5.65,2.52,7.407,5.066v-25.518c-0.101-0.045-0.206-0.092-0.313-0.129
			l-0.341-1.648l-2.618-12.617c-0.084-0.41-0.239-0.805-0.46-1.16c-0.658-1.07-1.826-1.725-3.084-1.723h-6.91
			c-1.716,0-3.196,1.205-3.544,2.885l-2.614,12.619l-0.341,1.646c-0.226,0.084-0.441,0.191-0.669,0.281
			c-0.355,0.143-0.709,0.287-1.06,0.443c-0.463,0.207-0.918,0.432-1.368,0.66c-0.336,0.17-0.671,0.34-1,0.523
			c-0.453,0.254-0.89,0.529-1.325,0.807c-0.3,0.193-0.613,0.377-0.908,0.58c-0.482,0.332-0.945,0.691-1.408,1.053
			c-0.225,0.174-0.461,0.336-0.68,0.52c-0.01,0.006-0.019,0.014-0.027,0.021l-13.84-4.574c-1.629-0.539-3.413,0.141-4.271,1.625
			l-3.455,5.986c-0.184,0.328-0.313,0.684-0.386,1.053c-0.022,0.127-0.037,0.254-0.046,0.381c-0.023,0.137-0.04,0.275-0.049,0.412
			v5.668c-0.026,1.061,0.414,2.078,1.205,2.785l10.468,9.328v4.699l-10.466,9.322c-0.272,0.252-0.504,0.545-0.686,0.867
			c-0.046,0.072-0.089,0.148-0.127,0.227c-0.158,0.309-0.271,0.639-0.333,0.979c-0.013,0.07-0.008,0.135-0.018,0.199
			c-0.026,0.17-0.041,0.34-0.044,0.512v5.668c-0.01,0.646,0.157,1.285,0.481,1.846l3.455,5.984c0.857,1.486,2.642,2.166,4.271,1.627
			l13.84-4.576c2.516,2.098,5.371,3.75,8.443,4.885l2.954,14.266c0.348,1.68,1.828,2.887,3.544,2.887h6.91
			c1.716,0,3.196-1.207,3.544-2.887l2.954-14.266c0.107-0.041,0.206-0.092,0.313-0.133V-29031.355L-125.728-29031.355z"/>
		<g id="Group_6201" transform="translate(294.558 14.418)">
			<path id="Path_17420" fill="#D1D3D4" d="M-401.785-29062.539l10.467-9.326c0.792-0.705,1.233-1.725,1.208-2.787v-5.666
				c0.009-0.648-0.157-1.287-0.481-1.848l-3.455-5.986c-0.857-1.486-2.642-2.166-4.271-1.625l-13.839,4.574
				c-2.516-2.098-5.372-3.748-8.444-4.883l-2.954-14.266c-0.348-1.682-1.828-2.887-3.544-2.887h-6.91
				c-1.716,0-3.196,1.205-3.544,2.887l-2.954,14.266c-3.072,1.135-5.928,2.785-8.443,4.883l-13.84-4.574
				c-1.629-0.539-3.413,0.139-4.271,1.625l-3.455,5.986c-0.322,0.561-0.488,1.199-0.48,1.848v5.666
				c-0.027,1.063,0.413,2.082,1.205,2.787l10.468,9.326v4.701l-10.469,9.33c-0.792,0.705-1.232,1.725-1.205,2.785v5.668
				c-0.01,0.648,0.156,1.287,0.48,1.848l3.455,5.984c0.857,1.488,2.642,2.168,4.271,1.629l13.84-4.576
				c2.516,2.096,5.371,3.748,8.443,4.883l2.954,14.268c0.348,1.68,1.828,2.885,3.544,2.885h6.91c1.716,0,3.196-1.205,3.544-2.885
				l2.954-14.268c3.072-1.135,5.929-2.785,8.444-4.883l13.839,4.576c1.629,0.539,3.413-0.141,4.271-1.629l3.455-5.984
				c0.323-0.563,0.489-1.199,0.481-1.848v-5.668c0.026-1.061-0.415-2.08-1.208-2.785l-10.467-9.326v-4.701L-401.785-29062.539z
				 M-430.553-29050.539c-5.812,0-10.861-3.996-12.2-9.65c1.591-6.736,8.341-10.908,15.077-9.316
				c4.619,1.092,8.226,4.697,9.316,9.316c-1.338,5.654-6.384,9.646-12.193,9.652V-29050.539z"/>
			<g id="Group_6200" transform="translate(0 0.005)">
				<g id="Group_6197" transform="translate(30.224)">
					<path id="Path_17421" fill="#FFFFFF" d="M-450.553-29088.781H-471l3.224-15.57c0.348-1.682,1.828-2.887,3.544-2.887h6.91
						c1.716,0,3.196,1.205,3.544,2.887L-450.553-29088.781z"/>
					<path id="Path_17422" fill="#FFFFFF" d="M-471-29037.395h20.446l-3.224,15.57c-0.348,1.682-1.828,2.887-3.544,2.887h-6.91
						c-1.716,0-3.196-1.205-3.544-2.887L-471-29037.395z"/>
				</g>
				<g id="Group_6198" transform="translate(0 17.271)">
					<path id="Path_17423" fill="#FFFFFF" d="M-457.915-29076.365l10.224,17.709l-15.101,4.992
						c-1.629,0.539-3.413-0.141-4.271-1.627l-3.455-5.984c-0.857-1.486-0.554-3.369,0.727-4.51L-457.915-29076.365z"/>
					<path id="Path_17424" fill="#FFFFFF" d="M-403.188-29084.354l-10.223-17.709l15.1-4.992c1.629-0.539,3.413,0.141,4.271,1.627
						l3.455,5.984c0.857,1.486,0.554,3.369-0.727,4.51L-403.188-29084.354z"/>
				</g>
				<g id="Group_6199" transform="translate(0 17.273)">
					<path id="Path_17425" fill="#FFFFFF" d="M-413.411-29058.662l10.223-17.709l11.873,10.578c1.28,1.141,1.584,3.023,0.727,4.51
						l-3.455,5.986c-0.858,1.484-2.642,2.164-4.271,1.625L-413.411-29058.662z"/>
					<path id="Path_17426" fill="#FFFFFF" d="M-447.691-29102.063l-10.224,17.709l-11.872-10.58
						c-1.281-1.141-1.584-3.023-0.728-4.51l3.455-5.984c0.858-1.486,2.642-2.166,4.271-1.627L-447.691-29102.063z"/>
				</g>
			</g>
			<path id="Path_17427" fill="#FFFFFF" d="M-430.55-29091.852c-15.89,0-28.771,12.881-28.771,28.77
				c0,15.891,12.881,28.771,28.771,28.771s28.771-12.881,28.771-28.771l0,0C-401.779-29078.971-414.661-29091.852-430.55-29091.852z
				 M-430.55-29050.537c-6.928,0-12.545-5.617-12.545-12.545c0-6.93,5.616-12.545,12.545-12.545s12.545,5.615,12.545,12.545l0,0
				C-418.005-29056.154-423.621-29050.537-430.55-29050.537z"/>
			<path id="Path_17428" fill="#E6E7E8" d="M-430.55-29091.852c-15.89,0-28.771,12.881-28.771,28.77
				c0,15.891,12.881,28.771,28.771,28.771s28.771-12.881,28.771-28.771l0,0C-401.779-29078.971-414.661-29091.852-430.55-29091.852z
				 M-430.55-29041.006c-12.191,0.002-22.076-9.879-22.079-22.07c-0.002-12.191,9.88-22.076,22.071-22.08
				c12.191-0.002,22.077,9.879,22.079,22.072c0,0.002,0,0.006,0,0.01C-408.482-29050.887-418.362-29041.008-430.55-29041.006z"/>
		</g>
		<path id="Path_17429" fill="#009ADD" d="M-231.641-29028.758h-82.354c-2.241,0-4.057,1.816-4.058,4.057v93.328
			c0,2.24,1.816,4.057,4.058,4.057h82.354c2.242,0,4.059-1.816,4.059-4.057v-93.328
			C-227.582-29026.941-229.4-29028.758-231.641-29028.758z"/>
		<g id="Group_6202" transform="translate(152.948 70.851)">
			<path id="Path_17430" fill="#E7AD27" d="M-384.589-29005.797h-82.354c-2.24,0.002-4.057-1.814-4.058-4.055v-88.863
				c0-2.242,1.816-4.059,4.058-4.059h82.354c2.242,0,4.059,1.816,4.059,4.059v88.865
				C-380.533-29007.609-382.349-29005.797-384.589-29005.797z"/>
			<path id="Path_17431" fill="#FFFFFF" d="M-384.589-29010.258h-82.354c-2.241,0-4.058-1.816-4.058-4.059v-88.863
				c0-2.242,1.816-4.059,4.058-4.059h82.354c2.242,0,4.059,1.816,4.059,4.059v88.863
				C-380.531-29012.074-382.348-29010.258-384.589-29010.258z"/>
			<path id="Path_17432" fill="#F7CB15" d="M-445.095-29052.543l-25.885,38.016c0.099,2.385,2.059,4.268,4.444,4.27h57.611
				l-28.791-42.285c-1.384-2.039-4.159-2.568-6.197-1.184C-444.377-29053.41-444.779-29053.01-445.095-29052.543z"/>
			<path id="Path_17433" fill="#F7CB15" d="M-380.533-29060.451l-11.47-16.846c-1.388-2.037-4.164-2.564-6.202-1.176
				c-0.462,0.314-0.86,0.715-1.175,1.176l-45.644,67.039h60.028c2.464,0,4.461-1.996,4.462-4.461V-29060.451z"/>
			<circle id="Ellipse_2118" fill="#F7CB15" cx="-441.406" cy="-29078.578" r="11.436"/>
		</g>
		<path id="Path_17434" fill="#009ADD" d="M-328.639-28959.248c-0.902-2.914-2.353-5.631-4.274-8v-51.799
			c0-5.428-4.399-9.828-9.827-9.828c0,0-0.001,0-0.002,0h-60.412c-5.428,0-9.828,4.4-9.829,9.828v81.908
			c0,5.428,4.401,9.828,9.829,9.826h37.258c11.125,7.672,26.362,4.873,34.033-6.252c2.819-4.088,4.327-8.936,4.325-13.9v-4.5
			C-327.536-28954.434-327.907-28956.891-328.639-28959.248z"/>
		<g id="Group_6208" transform="translate(58.017 70.729)">
			<g id="Group_6204">
				<path id="Path_17435" fill="#D1D3D4" d="M-400.759-29005.672h-60.412c-5.428,0-9.828-4.398-9.829-9.828v-74.537
					c0-5.428,4.401-9.828,9.829-9.83h60.415c5.428,0,9.827,4.4,9.827,9.828c0,0,0,0.002,0,0.002v74.535
					C-390.929-29010.074-395.33-29005.672-400.759-29005.672L-400.759-29005.672z"/>
				<path id="Path_17436" fill="#FFFFFF" d="M-400.759-29013.043h-60.412c-5.428,0-9.829-4.4-9.829-9.828v-74.539
					c0-5.428,4.399-9.828,9.827-9.828c0.001,0,0.001,0,0.002,0h60.415c5.428,0,9.827,4.4,9.827,9.828v74.539
					C-390.93-29017.443-395.33-29013.043-400.759-29013.043z"/>
				<g id="Group_6203" transform="translate(10.231 39.391)">
					<path id="Path_17437" fill="#D1D3D4" d="M-415.032-29099.955h-52.327c-2.01,0.002-3.641-1.629-3.641-3.639c0,0,0-0.002,0-0.002
						l0,0c0-2.01,1.628-3.641,3.639-3.641c0,0,0.001,0,0.002,0h52.327c2.01-0.002,3.641,1.629,3.641,3.639c0,0,0,0,0,0.002l0,0
						c0,2.01-1.628,3.641-3.639,3.641C-415.031-29099.955-415.031-29099.955-415.032-29099.955z"/>
					<path id="Path_17438" fill="#D1D3D4" d="M-415.032-29083.131h-52.327c-2.01,0-3.641-1.629-3.641-3.639c0,0,0-0.002,0-0.002l0,0
						c0-2.01,1.628-3.641,3.639-3.641c0,0,0.001,0,0.002,0h52.327c2.01-0.002,3.641,1.627,3.641,3.639c0,0,0,0,0,0.002l0,0
						c0,2.01-1.628,3.641-3.639,3.641C-415.031-29083.131-415.031-29083.131-415.032-29083.131z"/>
					<path id="Path_17439" fill="#D1D3D4" d="M-415.032-29066.309h-52.327c-2.01,0.002-3.641-1.629-3.641-3.639c0,0,0-0.002,0-0.002
						l0,0c0-2.01,1.628-3.641,3.639-3.641c0,0,0.001,0,0.002,0h52.327c2.01,0,3.641,1.629,3.641,3.639c0,0.002,0,0.002,0,0.002l0,0
						c0,2.012-1.628,3.641-3.639,3.641C-415.031-29066.309-415.031-29066.309-415.032-29066.309z"/>
				</g>
				<path id="Path_17440" fill="#D1D3D4" d="M-403.83-29097.34h-54.269c-1.474,0-2.669,1.195-2.67,2.668c0,0.002,0,0.002,0,0.004
					v13.117c0,1.473,1.194,2.668,2.668,2.67c0,0,0.001,0,0.002,0h54.269c1.474,0,2.669-1.193,2.67-2.668c0-0.002,0-0.002,0-0.002
					v-13.117c0-1.475-1.194-2.672-2.668-2.672C-403.829-29097.34-403.829-29097.34-403.83-29097.34z"/>
			</g>
			<path id="Path_17441" fill="#BCBEC0" d="M-390.93-29037.979c-0.074-0.096-0.14-0.201-0.216-0.287
				c-0.998-1.211-2.108-2.32-3.316-3.32c-0.605-0.498-1.233-0.967-1.884-1.408c-8.273-5.572-19.099-5.572-27.372,0
				c-0.65,0.439-1.278,0.91-1.884,1.408c-0.605,0.5-1.185,1.027-1.739,1.58c-0.554,0.553-1.081,1.135-1.579,1.738
				c-3.622,4.381-5.6,9.887-5.591,15.57v4.5c0.001,4.414,1.203,8.744,3.476,12.529h30.281c5.427,0,9.828-4.398,9.829-9.828v-22.482
				H-390.93z"/>
			<g id="Group_6207" transform="translate(36.485 52.434)">
				<g id="Group_6205">
					<path id="Path_17442" fill="#E43D91" d="M-471-29078.26c0,13.52,10.959,24.479,24.479,24.479s24.479-10.959,24.479-24.479v-4.5
						c0-13.52-10.959-24.479-24.479-24.479S-471-29096.279-471-29082.76l0,0V-29078.26z"/>
					<circle id="Ellipse_2119" fill="#EF5A9D" cx="-446.521" cy="-29082.758" r="24.479"/>
				</g>
				<g id="Group_6206" transform="translate(17.548 13.203)">
					<path id="Path_17443" fill="#E43D91" d="M-471-29084.645v-15.98c-0.001-1.561,1.262-2.824,2.821-2.826
						c0.594,0,1.172,0.188,1.654,0.533l11.085,7.992c1.266,0.912,1.552,2.676,0.64,3.941c-0.178,0.246-0.394,0.463-0.64,0.641
						l-11.085,7.99c-1.265,0.912-3.03,0.627-3.942-0.639C-470.814-29083.473-471-29084.051-471-29084.645z"/>
					<path id="Path_17444" fill="#FFFFFF" d="M-471-29088.426v-15.98c-0.001-1.559,1.262-2.824,2.821-2.824
						c0.594-0.002,1.172,0.186,1.654,0.533l11.085,7.99c1.266,0.912,1.552,2.678,0.64,3.941c-0.178,0.246-0.394,0.463-0.64,0.641
						l-11.085,7.992c-1.264,0.91-3.029,0.625-3.941-0.639C-470.814-29087.252-471-29087.832-471-29088.426z"/>
					<path id="Path_17445" fill="#D1D3D4" d="M-455.44-29096.309l-11.085,7.99c-1.264,0.912-3.029,0.627-3.941-0.639
						c-0.348-0.48-0.534-1.059-0.534-1.652v2.184c-0.001,1.559,1.262,2.824,2.821,2.824c0.594,0,1.172-0.186,1.654-0.533
						l11.085-7.99c1.065-0.77,1.455-2.176,0.938-3.385C-454.697-29097.029-455.021-29096.613-455.44-29096.309z"/>
				</g>
			</g>
		</g>
	</g>
</g>
</svg>
