<?xml version="1.0" encoding="utf-8"?>
<!-- Generator: Adobe Illustrator 16.0.0, SVG Export Plug-In . SVG Version: 6.00 Build 0)  -->
<!DOCTYPE svg PUBLIC "-//W3C//DTD SVG 1.1//EN" "http://www.w3.org/Graphics/SVG/1.1/DTD/svg11.dtd">
<svg version="1.1" id="Layer_1" xmlns="http://www.w3.org/2000/svg" xmlns:xlink="http://www.w3.org/1999/xlink" x="0px" y="0px"
	 width="1920px" height="3272.609px" viewBox="0 0 1920 3272.609" enable-background="new 0 0 1920 3272.609" xml:space="preserve">
<g id="Group_7202" transform="translate(-7387 282.492)">
	<g id="BACKGROUND" transform="translate(7387 -282.492)">
		
			<linearGradient id="Rectangle_1268_1_" gradientUnits="userSpaceOnUse" x1="860.6577" y1="1907.2588" x2="860.6597" y2="1908.1379" gradientTransform="matrix(1920 0 0 -3272.6101 -1651505.5 6244741.5)">
			<stop  offset="0.277" style="stop-color:#A0DCFF"/>
			<stop  offset="1" style="stop-color:#2896FF"/>
		</linearGradient>
		<rect id="Rectangle_1268" fill="url(#Rectangle_1268_1_)" width="1920" height="3272.61"/>
	</g>
	<g id="OBJECTS" transform="translate(7387 -222.706)">
		<g id="Group_7200">
			<g>
				<defs>
					<rect id="SVGID_1_" y="0" width="1920" height="3212.823"/>
				</defs>
				<clipPath id="SVGID_2_">
					<use xlink:href="#SVGID_1_"  overflow="visible"/>
				</clipPath>
				<g id="Group_7199" clip-path="url(#SVGID_2_)">
					
						<linearGradient id="Path_19655_1_" gradientUnits="userSpaceOnUse" x1="860.5732" y1="1850.1907" x2="860.5732" y2="1849.1907" gradientTransform="matrix(1534.5291 0 0 -571.2943 -1319776.625 1058305.375)">
						<stop  offset="0" style="stop-color:#A0DCFF"/>
						<stop  offset="1" style="stop-color:#91D3FF;stop-opacity:0"/>
					</linearGradient>
					<path id="Path_19655" fill="url(#Path_19655_1_)" d="M1461.974,1781.091c24.876-32.249,39.659-74.5,38.763-120.656
						c-1.792-92.011-67.553-168.787-149.715-174.479c-92.947-6.441-170.131,75.931-170.131,178.458c0,1.286,0.064,2.553,0.088,3.831
						c-20.223-25.418-49.611-41.521-82.436-41.521c-8.428,0.033-16.817,1.139-24.966,3.289c-7-80.979-67.99-144.3-142.238-144.406
						c0.028-1.369,0.092-2.728,0.092-4.105c0-99.025-71.8-179.3-160.376-179.3c-71.545,0-132.125,52.386-152.781,124.71
						c-41.027-78.315-118.781-129.661-206.87-124.324c-111.5,6.754-202.819,106.134-211.856,230.565
						c-2.46,33.146,1,66.467,10.218,98.4c-36.944,17.725-62.835,58.734-62.835,106.534c0,28.246,9.057,54.111,24.076,74.22
						c-82.882,7.391-140.223,23.28-140.223,41.68c0,25.465,1534.529,30,1534.529-10.768
						C1565.314,1817.131,1524.114,1794.22,1461.974,1781.091z"/>
					
						<linearGradient id="Path_19656_1_" gradientUnits="userSpaceOnUse" x1="860.5737" y1="1849.928" x2="860.5737" y2="1848.928" gradientTransform="matrix(1534.5291 0 0 -649.9551 -1319446.625 1203448.5)">
						<stop  offset="0" style="stop-color:#A0DCFF"/>
						<stop  offset="1" style="stop-color:#91D3FF;stop-opacity:0"/>
					</linearGradient>
					<path id="Path_19656" fill="url(#Path_19656_1_)" d="M1792.423,1623.302c24.873-36.688,39.659-84.759,38.759-137.268
						c-1.789-104.678-67.549-192.027-149.712-198.5c-92.95-7.328-170.131,86.389-170.131,203.028c0,1.464,0.063,2.9,0.087,4.359
						c-20.224-28.918-49.61-47.235-82.434-47.235c-8.459,0.041-16.868,1.301-24.968,3.739c-7-92.129-67.987-164.168-142.238-164.286
						c0.028-1.561,0.095-3.106,0.095-4.675c0-112.656-71.8-203.984-160.376-203.984c-71.545,0-132.125,59.601-152.782,141.882
						c-41.027-89.101-118.781-147.518-206.873-141.447c-111.5,7.68-202.815,120.747-211.853,262.309
						c-2.473,37.622,0.976,75.399,10.218,111.952c-36.947,20.165-62.836,66.827-62.836,121.2c0,32.135,9.057,61.562,24.074,84.439
						c-82.881,8.409-140.221,26.479-140.221,47.427c0,28.97,1534.528,34.13,1534.528-12.25
						C1895.76,1664.308,1854.558,1638.24,1792.423,1623.302z"/>
					
						<linearGradient id="Path_19657_1_" gradientUnits="userSpaceOnUse" x1="859.5298" y1="1850.2981" x2="860.5298" y2="1850.2981" gradientTransform="matrix(674.4788 0 0 -446.508 -579660.875 827406.25)">
						<stop  offset="0" style="stop-color:#A0DCFF"/>
						<stop  offset="1" style="stop-color:#91D3FF;stop-opacity:0"/>
					</linearGradient>
					<path id="Path_19657" fill="url(#Path_19657_1_)" d="M727.508,1351.597c-7.173-7.8-11.77-20.44-13.5-34.64
						c-6.294-51.577-51.825-93.609-74.8-111.769c-8.048-6.363-15.051-16.044-20.278-28.263c-27.28-63.8-72.899-94.432-117.135-82.5
						c-16.963,4.57-34.22-4.487-47.355-23.333c-26.414-37.905-60.5-60.75-97.732-60.75c-64.368,0-119.349,68.264-141.479,164.6
						c-14.7-17.972-32.667-28.668-52.138-28.668c-67.215,0-110.076,199.548-79.766,300.465
						c-3.383,15.08,664.576,19.534,664.576-31.876C747.9,1388.255,739.766,1364.906,727.508,1351.597z"/>
					
						<linearGradient id="Path_19658_1_" gradientUnits="userSpaceOnUse" x1="860.1313" y1="1851.2258" x2="860.1313" y2="1852.1008" gradientTransform="matrix(753.5043 0 0 -299.119 -647685.4375 555560.25)">
						<stop  offset="0" style="stop-color:#A0DCFF"/>
						<stop  offset="1" style="stop-color:#FFFFFF"/>
					</linearGradient>
					<path id="Path_19658" fill="url(#Path_19658_1_)" d="M773.88,1841.053c15.69,0,29.179-13.194,30.192-30.483
						c0.008-0.125,0.013-0.252,0.021-0.375c0.759-15.221-6.077-28.721-16.7-36.35c-6.037-4.338-10.042-11.262-11.5-19.051
						c-7.978-42.591-45.1-70.759-83.32-65c-9.99,1.505-19.53-5.659-21.763-16.513c-10.271-49.919-50.692-87.188-99.019-87.188
						c-11.528-0.003-22.957,2.142-33.7,6.324c-5.882,2.281-12.294,1.089-17.682-2.371c-7.786-5.04-17.746-5.271-25.758-0.6
						c-8.189,4.717-18.158,2.6-24.576-4.731c-23.082-26.372-55.439-42.78-91.282-42.78c-38.636,0-73.221,19.071-96.5,49.137
						c-4.242,5.732-10.774,9.329-17.887,9.85c-40.515,2.213-71.6,40.016-71.029,83.628c0.149,11.358-5.726,21.601-15.083,26.321
						c-17.92,9.049-32.726,24.3-42.168,43.272c-3.278,6.743-9.43,11.641-16.736,13.324c-17.074,3.8-31.581,16.14-39.362,33.3
						c-16.423,1.338-29.382,16.44-29.382,34.914c0.012,1.799,0.148,3.594,0.408,5.373L773.88,1841.053z"/>
					
						<linearGradient id="Path_19659_1_" gradientUnits="userSpaceOnUse" x1="860.3462" y1="1849.4055" x2="860.3462" y2="1848.5575" gradientTransform="matrix(999.9169 0 0 -961.6969 -859743.125 1780495.125)">
						<stop  offset="0" style="stop-color:#FFFFFF"/>
						<stop  offset="1" style="stop-color:#91D3FF;stop-opacity:0"/>
					</linearGradient>
					<path id="Path_19659" fill="url(#Path_19659_1_)" d="M974.264,2411.484c-13.292-11.612-23.522-30.721-28.369-53.748
						c-22.1-105-83.88-180.608-156.69-180.608c-9.749,0.006-19.451,1.362-28.828,4.031c-41.276,11.675-83.419-11.567-110.16-63.422
						c-30.668-59.464-76.978-97.347-128.8-97.347c-64.2,0-119.933,58.151-147.948,143.451c-8.911,27.134-26.837,43.059-45.931,43
						h-0.35c-97.456,0.002-178.134,115.317-192.107,265.656c-60.022,6.346-107.109,88.793-104.166,187.881
						c2.7,91.09,48.542,165.375,105.211,170.453c32.924,2.953,62.948-17.048,84.5-50.911c30.6,32.331,67.206,51.2,106.567,51.2
						c22.292,0,43.683-6.111,63.623-17.217c25.649,98.763,86.307,168.184,157.069,168.184c93.969,0,170.142-122.393,170.142-273.375
						c0-8.92-0.285-17.729-0.801-26.43c21.766,16.929,46.183,26.43,71.985,26.43c21.155,0,41.361-6.449,59.958-18.078
						c20.027,30.033,47.161,48,76.919,46.563c56.469-2.727,102.648-76.629,104.55-167.349
						C1032.061,2501.541,1008.89,2441.743,974.264,2411.484z"/>
					
						<linearGradient id="Path_19660_1_" gradientUnits="userSpaceOnUse" x1="860.4155" y1="1849.7034" x2="860.4155" y2="1848.7244" gradientTransform="matrix(1119.0809 0 0 -805.0497 -961537.75 1490888)">
						<stop  offset="0" style="stop-color:#FFFFFF"/>
						<stop  offset="1" style="stop-color:#91D3FF;stop-opacity:0"/>
					</linearGradient>
					<path id="Path_19660" fill="url(#Path_19660_1_)" d="M1833.547,2349.706c5.688-106.083-53.066-204.887-142.654-230.64
						c-3.6-1.033-7.199-1.937-10.8-2.709c-58.374-12.54-110.5-51.825-142.341-111.525c-25.334-47.506-65.54-83.8-115.048-98.036
						c-70.44-20.248-141.149,9.519-185.949,70.136c-14.283,19.325-36.6,26.756-57.589,20.674l-0.382-0.109
						c-82.472-23.708-165.272,11.588-217.258,83.122c-25.742,35.425-58.257,63.458-95.806,77.279
						c-41.947,15.442-76.035,56.605-86.152,111.76c-13.984,76.227,24.11,153.731,86.744,176.207
						c35.657,12.794,71.914,5.966,101.144-14.84c28.278,36.015,65.356,62.944,108.57,75.364c23.583,6.829,48.292,8.884,72.68,6.046
						c11.9,88.601,67.063,164.334,144.75,186.665c103.161,29.651,206.935-46.084,231.787-169.159c1.469-7.271,2.6-14.546,3.468-21.8
						c21.106,20.667,46.348,36.118,74.677,44.261c22.341,6.477,45.841,7.905,68.801,4.184
						c17.812,32.191,46.312,56.082,81.266,63.247c61.147,12.537,121.2-32.988,137.81-104.308
						C1906.712,2449.154,1881.131,2381.559,1833.547,2349.706z"/>
					
						<linearGradient id="Path_19661_1_" gradientUnits="userSpaceOnUse" x1="859.0435" y1="1853.3157" x2="860.0435" y2="1853.3157" gradientTransform="matrix(449.384 0 0 -214.035 -384699.875 398441.0625)">
						<stop  offset="0" style="stop-color:#A0DCFF"/>
						<stop  offset="1" style="stop-color:#91D3FF;stop-opacity:0"/>
					</linearGradient>
					<path id="Path_19661" fill="url(#Path_19661_1_)" d="M1717.462,1841.407c4.352-9.223,6.599-19.296,6.581-29.493
						c0.126-22-10.437-42.691-28.329-55.492c-6.146-54.587-50.924-96.957-105.282-96.957c-52.6,0-96.236,39.68-104.567,91.709
						c-10.875-5.054-22.881-7.181-34.83-6.17c-32.927,2.735-60.154,29.307-64.627,63.2c-1.503,11.168-0.513,22.531,2.899,33.271
						c-27.6,1.978-48.688,12.45-48.688,25.109c0,14.07,449.384,3.987,449.384-6.494
						C1790.001,1850.742,1758.686,1842.982,1717.462,1841.407z"/>
					
						<linearGradient id="Path_19662_1_" gradientUnits="userSpaceOnUse" x1="859.6357" y1="1851.9768" x2="859.6357" y2="1852.9678" gradientTransform="matrix(480.093 0 0 -248.1808 -412414.8125 461866.5)">
						<stop  offset="0" style="stop-color:#A0DCFF"/>
						<stop  offset="1" style="stop-color:#FFFFFF"/>
					</linearGradient>
					<path id="Path_19662" fill="url(#Path_19662_1_)" d="M470.381,2179.146c-2.935,0-5.814,0.133-8.637,0.375
						c12.399-55.915-13.163-117.8-51.915-117.8c-11.959,0-22.995,6.194-32.021,16.601c-13.591-55.783-47.36-95.313-86.894-95.313
						c-22.867,0-43.8,13.231-60.027,35.176c-8.068,10.913-18.668,16.159-29.087,13.512c-27.177-6.91-55.206,10.839-71.96,47.8
						c-3.2,7.062-7.494,12.646-12.428,16.319c-14.106,10.51-42.086,34.855-45.951,64.724c-1.064,8.224-3.893,15.546-8.3,20.063
						c-7.525,7.713-12.515,21.225-12.515,36.63c0,29.762,480.093,5.643,480.093-14.178
						C530.738,2183.029,503.715,2179.146,470.381,2179.146z"/>
					
						<linearGradient id="Path_19665_1_" gradientUnits="userSpaceOnUse" x1="860.1318" y1="1850.6155" x2="860.1318" y2="1851.8624" gradientTransform="matrix(753.5035 0 0 -344.5995 -646628.0625 638801.1875)">
						<stop  offset="0" style="stop-color:#A0DCFF"/>
						<stop  offset="1" style="stop-color:#FFFFFF"/>
					</linearGradient>
					<path id="Path_19665" fill="url(#Path_19665_1_)" d="M1832.382,972.873c-7.76-48.039-45.031-79.883-83.424-73.409
						c-9.988,1.686-19.527-6.334-21.759-18.49c-10.276-55.906-50.693-97.643-99.021-97.643c-11.601,0.011-23.074,2.421-33.7,7.079
						c-5.882,2.557-12.291,1.22-17.682-2.656c-7.583-5.637-17.889-5.904-25.755-0.669c-8.188,5.282-18.159,2.915-24.576-5.3
						c-23.082-29.537-55.438-47.912-91.282-47.912c-38.637,0-73.221,21.36-96.5,55.029c-4.519,6.53-10.946,10.6-17.887,11.027
						c-40.518,2.481-71.6,44.813-71.03,93.657c0.149,12.72-5.725,24.181-15.083,29.473c-17.92,10.135-32.726,27.214-42.171,48.461
						c-3.475,7.817-9.662,13.16-16.732,14.922c-17.077,4.26-31.583,18.075-39.362,37.295c-16.426,1.5-29.384,18.407-29.384,39.1
						c0,21.247,715.115,14.995,721.266,14.065c17.489-2.636,31.214-20.856,32.181-42.607c0.756-16.966-6.014-32.024-16.55-40.589
						C1837.663,988.408,1833.554,980.996,1832.382,972.873z"/>
					
						<linearGradient id="Path_19666_1_" gradientUnits="userSpaceOnUse" x1="860.4985" y1="1849.4397" x2="860.4985" y2="1849.9702" gradientTransform="matrix(1303.8608 0 0 -618.3757 -1121317.875 1146290.625)">
						<stop  offset="0" style="stop-color:#A0DCFF"/>
						<stop  offset="1" style="stop-color:#FFFFFF"/>
					</linearGradient>
					<path id="Path_19666" fill="url(#Path_19666_1_)" d="M1258.813,2663.967c-10.416-71.319-72.822-121.2-139.555-114.782
						c-17.361,1.672-33.345-10.906-36.445-28.974c-14.268-83.101-81.5-147.791-164.994-151.71
						c-19.856-0.947-39.722,1.656-58.663,7.687c-10.321,3.287-21.313,0.8-30.384-5.339c-13.19-8.939-30.165-10.112-44.459-3.07
						c-14.476,7.109-31.552,2.818-42.13-9.786c-38.039-45.333-92.8-75-154.722-77.9c-66.748-3.131-127.823,25.495-170.147,73.152
						c-7.944,9.2-19.435,14.577-31.589,14.78c-70.152,0.363-126.486,60.14-128.543,132.061c-0.536,18.73-11.4,35.122-27.893,42.15
						c-31.588,13.459-58.233,37.392-75.875,67.894c-6.35,10.998-17.306,18.561-29.84,20.6
						c-29.766,4.886-55.688,24.038-70.325,51.687c-28.469,0.872-51.91,24.707-53.2,55.154c-1.322,31.264,21.111,57.422,49.76,60.136
						c8.675,0.913,16.781,4.752,22.984,10.885c26.275,25.31,63.287,33.228,96.331,21.846c10.649-3.635,22.396-1.925,31.568,4.595
						c36.398,25.918,82.394,34.419,125.651,23.222c12.101-3.144,24.963-0.507,34.4,8.063
						c36.072,33.062,89.536,38.605,131.625,13.649c31.622-18.626,69.7-18.469,101.921-1.021
						c45.023,24.393,99.011,25.725,145.183,3.582c44.152-21.136,93.732-24.406,140.935-12.664
						c41.993,10.429,86.445,0.438,119.938-26.957c28.836-23.264,65.848-33.409,101.236-24.785
						c26.257,6.404,53.89,4.016,78.657-6.801c11.271-4.868,24.077-4.742,35.251,0.349c9.345,4.172,19.594,5.912,29.792,5.058
						c30.379-2.462,55.224-28.162,58.251-60.091c2.359-24.899-8.395-47.608-26.065-61.067
						C1267.343,2687.889,1260.644,2676.539,1258.813,2663.967z"/>
					
						<linearGradient id="Path_19675_1_" gradientUnits="userSpaceOnUse" x1="859.5142" y1="1853.3743" x2="859.5142" y2="1853.9053" gradientTransform="matrix(440.3811 0 0 -208.8436 -377245.5313 389363.2188)">
						<stop  offset="0" style="stop-color:#A0DCFF"/>
						<stop  offset="1" style="stop-color:#FFFFFF"/>
					</linearGradient>
					<path id="Path_19675" fill="url(#Path_19675_1_)" d="M1473.041,2305.161c-3.518-24.087-24.6-40.934-47.133-38.767
						c-6.029,0.454-11.391-3.81-12.307-9.786c-4.818-28.065-27.525-49.914-55.725-51.237c-6.706-0.319-13.416,0.562-19.813,2.6
						c-3.516,1.013-7.302,0.349-10.263-1.8c-4.454-3.02-10.188-3.415-15.015-1.037c-4.936,2.336-10.829,0.967-14.229-3.305
						c-12.848-15.312-31.343-25.329-52.257-26.311c-22.545-1.057-43.172,8.611-57.466,24.706c-2.683,3.108-6.563,4.924-10.669,4.992
						c-23.693,0.123-42.72,20.313-43.415,44.601c-0.086,6.179-3.766,11.74-9.42,14.235c-10.796,4.671-19.788,12.715-25.63,22.925
						c-2.145,3.715-5.845,6.27-10.078,6.958c-10.212,1.783-19.001,8.243-23.751,17.457c-9.615,0.294-17.532,8.345-17.967,18.628
						c-0.447,10.56,7.13,19.395,16.806,20.311c2.931,0.308,5.668,1.604,7.763,3.676c8.584,8.402,21.167,11.256,32.535,7.378
						c3.597-1.228,7.564-0.65,10.662,1.552c12.293,8.754,27.827,11.625,42.438,7.844c4.084-1.128,8.461-0.102,11.619,2.723
						c12.183,11.166,30.239,13.038,44.454,4.609c10.604-6.197,23.694-6.328,34.419-0.344c15.207,8.238,33.44,8.688,49.034,1.21
						c14.912-7.138,31.657-8.243,47.601-4.276c14.182,3.523,29.195,0.15,40.508-9.101c9.739-7.856,22.239-11.282,34.191-8.37
						c8.869,2.161,18.201,1.354,26.566-2.301c3.808-1.644,8.133-1.602,11.906,0.118c3.156,1.409,6.617,1.997,10.062,1.708
						c10.261-0.831,18.651-9.511,19.675-20.3c0.825-7.934-2.502-15.731-8.801-20.625
						C1475.925,2313.24,1473.66,2309.407,1473.041,2305.161z"/>
					
						<linearGradient id="Path_19673_1_" gradientUnits="userSpaceOnUse" x1="860.1948" y1="1850.6516" x2="860.1948" y2="1851.1826" gradientTransform="matrix(812.6715 0 0 -385.4109 -697601.5 716109.9375)">
						<stop  offset="0" style="stop-color:#A0DCFF"/>
						<stop  offset="1" style="stop-color:#FFFFFF"/>
					</linearGradient>
					<path id="Path_19673" fill="url(#Path_19673_1_)" d="M1832.462,2862.077c-6.492-44.451-45.388-75.538-86.979-71.539
						c-10.822,1.041-20.782-6.8-22.716-18.059c-8.893-51.793-50.8-92.111-102.835-94.555c-12.375-0.59-24.757,1.032-36.563,4.791
						c-6.433,2.049-13.284,0.5-18.938-3.326c-8.22-5.572-18.799-6.303-27.708-1.914c-9.021,4.431-19.664,1.756-26.258-6.101
						c-23.708-28.254-57.838-46.742-96.433-48.552c-41.601-1.951-79.67,15.89-106.047,45.593
						c-4.952,5.734-12.113,9.085-19.688,9.212c-43.724,0.227-78.834,37.483-80.117,82.309c-0.157,11.401-6.947,21.665-17.379,26.27
						c-19.921,8.625-36.513,23.471-47.289,42.316c-3.958,6.854-10.786,11.568-18.6,12.84c-18.552,3.045-34.708,14.981-43.831,32.214
						c-17.744,0.543-32.353,15.399-33.155,34.376c-0.824,19.484,13.158,35.789,31.014,37.479c5.406,0.569,10.459,2.962,14.324,6.784
						c15.84,15.505,39.06,20.771,60.037,13.616c6.638-2.266,13.96-1.199,19.676,2.865c22.685,16.153,51.352,21.452,78.313,14.474
						c7.536-2.079,15.612-0.186,21.439,5.026c22.482,20.605,55.805,24.062,82.037,8.507c19.709-11.609,43.44-11.511,63.522-0.636
						c28.063,15.201,61.71,16.03,90.487,2.229c27.518-13.173,58.42-15.212,87.839-7.893c26.173,6.5,53.878,0.273,74.753-16.8
						c17.972-14.5,41.04-20.822,63.1-15.448c16.365,3.991,33.587,2.503,49.024-4.237c7.025-3.034,15.006-2.955,21.97,0.217
						c5.824,2.601,12.212,3.685,18.568,3.152c18.934-1.534,34.419-17.553,36.305-37.453c1.522-14.642-4.619-29.032-16.245-38.063
						C1837.78,2876.988,1833.604,2869.914,1832.462,2862.077z"/>
					
						<linearGradient id="Path_19674_1_" gradientUnits="userSpaceOnUse" x1="860.1948" y1="1850.6516" x2="860.1948" y2="1851.1831" gradientTransform="matrix(812.6715 0 0 -385.4109 -698561.5 716192.9375)">
						<stop  offset="0" style="stop-color:#A0DCFF"/>
						<stop  offset="1" style="stop-color:#FFFFFF"/>
					</linearGradient>
					<path id="Path_19674" fill="url(#Path_19674_1_)" d="M872.609,2944.93c-6.492-44.451-45.389-75.538-86.979-71.539
						c-10.822,1.041-20.782-6.8-22.715-18.058c-8.894-51.793-50.8-92.112-102.835-94.555c-12.376-0.591-24.758,1.031-36.563,4.791
						c-6.433,2.049-13.283,0.5-18.937-3.328c-8.221-5.571-18.8-6.302-27.708-1.913c-9.022,4.431-19.665,1.756-26.258-6.101
						c-23.708-28.254-57.838-46.742-96.434-48.552c-41.6-1.951-79.67,15.89-106.047,45.593c-4.951,5.734-12.112,9.086-19.688,9.212
						c-43.724,0.228-78.834,37.483-80.117,82.309c-0.157,11.401-6.947,21.665-17.379,26.27
						c-19.922,8.625-36.513,23.472-47.289,42.316c-3.958,6.854-10.787,11.569-18.6,12.84c-18.552,3.045-34.708,14.981-43.831,32.214
						c-17.744,0.543-32.353,15.4-33.155,34.376c-0.824,19.485,13.158,35.789,31.013,37.479c5.407,0.569,10.459,2.962,14.325,6.785
						c15.839,15.504,39.059,20.771,60.037,13.615c6.637-2.266,13.959-1.199,19.675,2.865c22.686,16.154,51.352,21.452,78.313,14.475
						c7.536-2.08,15.613-0.187,21.439,5.025c22.482,20.605,55.805,24.061,82.037,8.507c19.709-11.608,43.441-11.511,63.522-0.636
						c28.063,15.201,61.711,16.03,90.487,2.229c27.519-13.173,58.42-15.212,87.839-7.893c26.173,6.5,53.879,0.273,74.753-16.8
						c17.973-14.5,41.04-20.822,63.101-15.448c16.364,3.992,33.587,2.504,49.023-4.237c7.025-3.034,15.007-2.955,21.971,0.218
						c5.824,2.6,12.212,3.684,18.567,3.151c18.935-1.534,34.419-17.552,36.305-37.453c1.522-14.642-4.619-29.032-16.244-38.062
						C877.928,2959.841,873.751,2952.767,872.609,2944.93z"/>
				</g>
			</g>
		</g>
		<g id="Group_7201" transform="translate(146.479 49.867)">
			
				<linearGradient id="Path_19667_1_" gradientUnits="userSpaceOnUse" x1="713.5923" y1="1804.4175" x2="713.5923" y2="1802.8035" gradientTransform="matrix(704.365 0 0 -211.7371 -502276.875 382324.6563)">
				<stop  offset="0" style="stop-color:#A0DCFF"/>
				<stop  offset="1" style="stop-color:#91D3FF;stop-opacity:0"/>
			</linearGradient>
			<path id="Path_19667" fill="url(#Path_19667_1_)" d="M624.106,503.824c-0.78-43.161-40.817-77.942-90.122-77.942
				c-8.852-0.009-17.666,1.139-26.221,3.413c-21.457-62.542-89.552-95.848-152.093-74.391
				c-37.969,13.026-66.882,44.213-77.003,83.057c-15.926-8.038-33.534-12.179-51.373-12.079c-45.42,0-83.52,25.595-93.971,60.116
				C58.478,488.639,0,511.335,0,538.943c0,42.367,704.365,10.853,704.365-5.679C704.365,518.561,669.735,506.341,624.106,503.824z"
				/>
			
				<linearGradient id="Path_19668_1_" gradientUnits="userSpaceOnUse" x1="713.7051" y1="1802.7974" x2="713.7051" y2="1801.7974" gradientTransform="matrix(802.139 0 0 -267.1219 -571195 482020.875)">
				<stop  offset="0" style="stop-color:#A0DCFF"/>
				<stop  offset="1" style="stop-color:#91D3FF;stop-opacity:0"/>
			</linearGradient>
			<path id="Path_19668" fill="url(#Path_19668_1_)" d="M1642.514,678.188c13.523-15.638,20.746-35.746,20.263-56.415
				c-0.936-43.018-35.31-78.917-78.259-81.578c-46.083-2.938-85.823,32.036-88.763,78.119c-0.113,1.771-0.17,3.544-0.17,5.318
				c0,0.6,0.031,1.2,0.045,1.794c-13.975-15.871-35.562-22.745-56.141-17.877c-3.744-38.272-35.897-67.47-74.352-67.518
				c0.016-0.642,0.047-1.276,0.047-1.922c-0.005-46.302-37.544-83.834-83.846-83.83c-36.464,0.004-68.744,23.575-79.849,58.308
				c-22.268-38.148-64.034-60.602-108.137-58.134c-58.287,3.158-106.021,49.627-110.742,107.8
				c-1.282,15.539,0.533,31.179,5.341,46.011c-27.504,11.78-40.25,43.627-28.47,71.131c2.071,4.836,4.836,9.344,8.207,13.383
				c-43.325,3.456-73.3,10.884-73.3,19.49c0,11.907,802.139,14.029,802.139-5.034
				C1696.534,695.042,1674.997,684.329,1642.514,678.188z"/>
			
				<linearGradient id="Path_19669_1_" gradientUnits="userSpaceOnUse" x1="714.0703" y1="1801.9302" x2="714.0703" y2="1803.3488" gradientTransform="matrix(1452.3572 0 0 -258.4832 -1036465.25 466820.4688)">
				<stop  offset="0" style="stop-color:#A0DCFF;stop-opacity:0.6"/>
				<stop  offset="1" style="stop-color:#FFFFFF"/>
			</linearGradient>
			<path id="Path_19669" fill="url(#Path_19669_1_)" d="M1280.843,992.891c-2.365-35.545-41.055-63.835-88.578-63.835
				c-0.112,0-0.219,0.013-0.335,0.016c-20.821-27.257-59.7-45.606-104.272-45.606c-15.336-0.036-30.592,2.216-45.263,6.684
				c-27.588-25.961-69.87-42.589-117.3-42.589c-63.772,0-118.246,30.05-140.17,72.461c-15.905-8.426-33.656-12.764-51.654-12.621
				c-11.769-0.034-23.472,1.764-34.688,5.329c-1.468-49.399-54.763-89.106-120.346-89.106c-17.763-0.068-35.401,2.966-52.121,8.964
				c-5.8-5.46-14.673-8.964-24.645-8.964c-12.374,0-23.058,5.399-28.246,13.242c-27.171-29.689-72.462-49.147-123.773-49.147
				c-50.753,0-95.6,19.042-122.868,48.184c-2.667-0.185-5.354-0.31-8.083-0.31c-49.046,0-88.805,30.109-88.805,67.251
				c0.038,5.754,1.03,11.462,2.935,16.891c-35.311,6.089-64.049,25.229-76.911,50.376c-0.157,0-0.306-0.016-0.459-0.016
				c-33.182,0-60.659,18.269-66.033,42.235c-0.339,0-0.678-0.01-1.021-0.01c-52.155,0-94.432,11.473-94.432,25.62
				c0,14.148,1452.357,8.574,1452.357-5.045C1346.133,1020.549,1317.792,994.694,1280.843,992.891z"/>
			
				<linearGradient id="Path_19670_1_" gradientUnits="userSpaceOnUse" x1="713.75" y1="1801.6675" x2="713.75" y2="1802.5065" gradientTransform="matrix(848.241 0 0 -282.4771 -604174.9375 509139.5625)">
				<stop  offset="0" style="stop-color:#A0DCFF"/>
				<stop  offset="1" style="stop-color:#FFFFFF"/>
			</linearGradient>
			<path id="Path_19670" fill="url(#Path_19670_1_)" d="M1623.458,198.778c14.299-16.536,21.938-37.8,21.427-59.655
				c-0.989-45.491-37.343-83.453-82.759-86.268c-48.729-3.108-90.753,33.875-93.862,82.605c-0.119,1.874-0.179,3.751-0.179,5.629
				c0,0.636,0.033,1.262,0.047,1.894c-14.78-16.78-37.606-24.047-59.367-18.9c-3.963-40.47-37.962-71.344-78.625-71.4
				c0.016-0.676,0.05-1.349,0.05-2.029c-0.006-48.963-39.703-88.651-88.667-88.645c-38.557,0.004-72.689,24.929-84.433,61.654
				c-23.547-40.342-67.715-64.086-114.354-61.475c-61.637,3.337-112.112,52.476-117.106,114c-1.357,16.432,0.563,32.97,5.647,48.654
				c-29.086,12.458-42.565,46.136-30.107,75.221c2.189,5.113,5.112,9.879,8.676,14.15c-45.814,3.654-77.511,11.509-77.511,20.61
				c0,12.592,848.24,14.834,848.24-5.322C1680.582,216.599,1657.807,205.268,1623.458,198.778z"/>
			
				<linearGradient id="Path_19671_1_" gradientUnits="userSpaceOnUse" x1="713.1973" y1="1803.522" x2="713.1973" y2="1802.3979" gradientTransform="matrix(494.469 0 0 -231.0933 -351862.625 417732.125)">
				<stop  offset="0" style="stop-color:#FFFFFF"/>
				<stop  offset="1" style="stop-color:#91D3FF"/>
			</linearGradient>
			<path id="Path_19671" fill="url(#Path_19671_1_)" d="M958.662,1143.801c15.566-31.865,5.375-70.325-23.929-90.3
				c-7.537-63.98-65.514-109.737-129.494-102.2c-51.529,6.071-92.855,45.447-101.405,96.624c-12.02-5.379-25.202-7.635-38.325-6.556
				c-36.23,2.904-66.189,31.14-71.114,67.147c-1.648,11.874-0.554,23.969,3.2,35.354c-30.369,2.1-53.572,13.228-53.572,26.678
				c0,14.95,494.469,13.629,494.469,2.492C1038.483,1163.112,1004.022,1145.473,958.662,1143.801z"/>
			
				<linearGradient id="Path_19672_1_" gradientUnits="userSpaceOnUse" x1="713.4658" y1="1804.1323" x2="713.4658" y2="1805.1343" gradientTransform="matrix(620.6488 0 0 -178.0787 -441523.125 322499.5)">
				<stop  offset="0" style="stop-color:#A0DCFF"/>
				<stop  offset="1" style="stop-color:#FFFFFF"/>
			</linearGradient>
			<path id="Path_19672" fill="url(#Path_19672_1_)" d="M1528.419,1183.125c-0.687-38.027-35.965-68.676-79.4-68.676
				c-7.799-0.006-15.564,1.006-23.1,3.01c-18.904-55.105-78.9-84.451-134.006-65.548c-33.455,11.478-58.932,38.957-67.848,73.184
				c-14.033-7.084-29.55-10.733-45.27-10.646c-40.022,0-73.588,22.553-82.801,52.969c-65.947,2.329-119.264,22.392-117.473,46.649
				c1.327,17.943,620.605,9.563,620.605-5C1599.132,1196.108,1568.622,1185.344,1528.419,1183.125z"/>
		</g>
	</g>
</g>
</svg>
