<?xml version="1.0" encoding="utf-8"?>
<!-- Generator: Adobe Illustrator 16.0.0, SVG Export Plug-In . SVG Version: 6.00 Build 0)  -->
<!DOCTYPE svg PUBLIC "-//W3C//DTD SVG 1.1//EN" "http://www.w3.org/Graphics/SVG/1.1/DTD/svg11.dtd">
<svg version="1.1" id="Layer_1" xmlns="http://www.w3.org/2000/svg" xmlns:xlink="http://www.w3.org/1999/xlink" x="0px" y="0px"
	 width="430.145px" height="425.406px" viewBox="0 0 430.145 425.406" enable-background="new 0 0 430.145 425.406"
	 xml:space="preserve">
<g id="Group_7294" transform="translate(-1749.287 28172.408)">
	<g id="Group_7287" transform="translate(3012.211 388.385)">
		<path id="Path_19833" fill="#473080" d="M-988.596-28135.387h119.868c19.854,0,35.948-14.424,35.948-32.215v-305.518
			c0-17.793-16.095-32.217-35.948-32.217h-358.248c-19.853,0-35.948,14.424-35.948,32.217v305.518
			c0,17.791,16.1,32.215,35.948,32.215h124.227"/>
	</g>
</g>
<g id="Multi_Screen_Marketing" transform="translate(1205.298 28360.926)">
	<g id="Group_6060" transform="translate(90.076 144.408)">
		<g id="Group_6050">
			<g id="Group_6037" transform="translate(56.698)">
				<g id="Group_6036">
					<path id="Path_16966" fill="#BCBEC0" d="M-996.084-28321.313h-257.077c-5.392,0-9.763-4.371-9.763-9.762l0,0v-156.688
						c0-5.391,4.371-9.762,9.763-9.762h257.077c5.392,0,9.763,4.371,9.763,9.762l0,0v156.688
						C-986.322-28325.684-990.692-28321.313-996.084-28321.313z"/>
					<path id="Path_16967" fill="#E6E7E8" d="M-996.084-28329.121h-257.077c-5.392,0-9.763-4.371-9.763-9.764l0,0v-156.684
						c0-5.393,4.371-9.762,9.763-9.764h257.077c5.392,0.002,9.762,4.371,9.763,9.764v156.682
						C-986.322-28333.494-990.692-28329.125-996.084-28329.121z"/>
					<path id="Path_16968" fill="#D1D3D4" d="M-1090.456-28295.41h-68.337l0.416-0.906c4.195-9.027,6.065-18.963,5.442-28.898
						h56.622c-0.624,9.936,1.247,19.871,5.442,28.898L-1090.456-28295.41z"/>
					<path id="Path_16969" fill="#E6E7E8" d="M-1094.476-28306.406h-60.3c-0.906,3.461-2.11,6.838-3.6,10.09l-0.416,0.906h68.336
						l-0.416-0.906C-1092.363-28299.568-1093.568-28302.945-1094.476-28306.406z"/>
					<path id="Path_16970" fill="#FFFFFF" d="M-1087.183-28284.379h-74.88c-3.045,0-5.514-2.469-5.515-5.514l0,0
						c0-3.047,2.468-5.516,5.514-5.518l0,0h74.879c3.045,0,5.514,2.469,5.514,5.516c0,0,0,0,0,0.002l0,0
						C-1081.672-28286.848-1084.139-28284.381-1087.183-28284.379z"/>
					<path id="Path_16971" fill="#1CAEE4" d="M-996.084-28505.334h-257.077c-5.393,0-9.764,4.373-9.763,9.764
						c0,0.002,0,0.002,0,0.002v131.791h276.6v-131.791c0.004-5.389-4.362-9.762-9.752-9.766
						C-996.079-28505.334-996.082-28505.334-996.084-28505.334z"/>
					<path id="Path_16972" fill="#009ADD" d="M-998.367-28495.57h-252.516c-2.154,0-3.9,1.746-3.9,3.898l0,0v114.225
						c0,2.154,1.746,3.9,3.9,3.9h252.516c2.154,0,3.9-1.746,3.9-3.9v-114.219c0.002-2.154-1.741-3.902-3.896-3.904
						C-998.364-28495.57-998.365-28495.57-998.367-28495.57z"/>
					<circle id="Ellipse_2077" fill="#1CAEE4" cx="-1124.623" cy="-28348.16" r="7.077"/>
				</g>
			</g>
			<g id="Group_6043" transform="translate(0 37.146)">
				<g id="Group_6038">
					<path id="Path_16973" fill="#FFFFFF" d="M-1262.924-28329.383v-168.609c-0.001-4.055,3.287-7.344,7.342-7.344c0,0,0,0,0.001,0
						h98.721c4.053,0,7.338,3.285,7.338,7.338v168.619c0,4.051-3.285,7.338-7.338,7.338l0,0h-98.721
						C-1259.636-28322.041-1262.923-28325.328-1262.924-28329.383z"/>
					<path id="Path_16974" fill="#1CAEE4" d="M-1258.194-28330.148v-167.074c0-1.707,1.381-3.09,3.087-3.09c0,0,0.001,0,0.002,0
						h97.761c1.706,0,3.089,1.381,3.089,3.086c0,0.002,0,0.002,0,0.004v167.074c0,1.705-1.382,3.088-3.087,3.09
						c-0.001,0-0.001,0-0.002,0h-97.761c-1.706,0-3.088-1.383-3.089-3.088
						C-1258.194-28330.148-1258.194-28330.148-1258.194-28330.148z"/>
					<path id="Path_16975" fill="#009ADD" d="M-1258.194-28342.854v12.699c0,1.705,1.381,3.088,3.087,3.09c0,0,0.001,0,0.002,0
						h97.761c1.706,0,3.089-1.381,3.089-3.088c0,0,0,0,0-0.002v-12.699H-1258.194z"/>
				</g>
				<g id="Group_6039" transform="translate(11.576 10.258)">
					<path id="Path_16976" fill="#136DA0" d="M-1257.197-28493.881c-3.163,0-5.727-2.564-5.727-5.729
						c0-3.162,2.564-5.727,5.727-5.727s5.727,2.564,5.727,5.727l0,0C-1251.472-28496.445-1254.035-28493.883-1257.197-28493.881z
						 M-1257.197-28501.727c-1.169,0-2.119,0.945-2.121,2.117c-0.001,1.168,0.945,2.117,2.115,2.121c1.17,0,2.119-0.945,2.121-2.117
						c0,0,0,0,0-0.002C-1255.083-28500.775-1256.029-28501.723-1257.197-28501.727z"/>
				</g>
				<g id="Group_6042" transform="translate(93.134 11.352)">
					<g id="Group_6040">
						<rect id="Rectangle_1173" x="-1262.924" y="-28505.334" fill="#136DA0" width="7.821" height="3.609"/>
					</g>
					<g id="Group_6041" transform="translate(0 5.662)">
						<rect id="Rectangle_1174" x="-1262.924" y="-28505.334" fill="#136DA0" width="7.821" height="3.609"/>
					</g>
				</g>
			</g>
			<g id="Group_6049" transform="translate(295.772 95.805)">
				<g id="Group_6044">
					<path id="Path_16977" fill="#BCBEC0" d="M-1199.574-28384.121L-1199.574-28384.121c-19.673,5.246-40.377,5.246-60.05,0l0,0
						c-1.946-0.52-3.3-2.281-3.301-4.293v-104.25c0-2.016,1.354-3.777,3.301-4.293l0,0c19.673-5.246,40.377-5.246,60.05,0l0,0
						c1.945,0.518,3.3,2.279,3.3,4.293v104.25C-1196.275-28386.402-1197.629-28384.641-1199.574-28384.121z"/>
					<path id="Path_16978" fill="#FFFFFF" d="M-1199.574-28388.563L-1199.574-28388.563c-19.673,5.246-40.377,5.246-60.05,0l0,0
						c-1.946-0.52-3.3-2.279-3.301-4.293v-104.252c0-2.014,1.354-3.775,3.301-4.293l0,0c19.673-5.244,40.377-5.244,60.05,0l0,0
						c1.945,0.518,3.299,2.279,3.3,4.293v104.25C-1196.276-28390.844-1197.629-28389.082-1199.574-28388.563z"/>
					<path id="Path_16979" fill="#1CAEE4" d="M-1201.828-28397.5L-1201.828-28397.5c-18.1,5.541-37.443,5.541-55.542,0l0,0
						c-0.748-0.23-1.258-0.92-1.259-1.701v-91.561c0.001-0.783,0.511-1.473,1.259-1.701l0,0c18.099-5.541,37.442-5.541,55.542,0l0,0
						c0.747,0.229,1.258,0.918,1.258,1.701v91.564C-1200.573-28398.418-1201.083-28397.73-1201.828-28397.5z"/>
					<path id="Path_16980" fill="#009ADD" d="M-1201.828-28492.463L-1201.828-28492.463c-18.1-5.541-37.443-5.541-55.542,0l0,0
						c-0.748,0.229-1.258,0.918-1.259,1.701v3.148c0.001-0.781,0.511-1.473,1.259-1.701l0,0c18.099-5.541,37.442-5.541,55.542,0l0,0
						c0.747,0.229,1.258,0.92,1.258,1.701v-3.148C-1200.571-28491.543-1201.082-28492.234-1201.828-28492.463z"/>
					<circle id="Ellipse_2078" fill="#009ADD" cx="-1211.976" cy="-28499.631" r="1.602"/>
					<path id="Path_16981" fill="#009ADD" d="M-1235.128-28499.637c3.682-0.258,7.376-0.258,11.057,0
						c0.605,0.045,1.133-0.41,1.176-1.018c0.002-0.023,0.003-0.049,0.003-0.072l0,0c0.002-0.578-0.444-1.059-1.02-1.1
						c-3.788-0.275-7.59-0.275-11.377,0c-0.576,0.041-1.022,0.521-1.021,1.1l0,0c0.003,0.607,0.498,1.098,1.106,1.094
						C-1235.178-28499.633-1235.153-28499.633-1235.128-28499.637z"/>
					<path id="Path_16982" fill="#D1D3D4" d="M-1221.771-28390.801c-5.211,0.367-10.441,0.367-15.652,0
						c-0.854-0.066-1.602,0.574-1.667,1.43c-0.003,0.037-0.005,0.076-0.005,0.113l0,0c-0.002,0.818,0.628,1.5,1.443,1.563
						c5.361,0.391,10.745,0.391,16.106,0c0.815-0.064,1.444-0.744,1.443-1.563l0,0c0-0.855-0.693-1.547-1.549-1.547
						C-1221.691-28390.805-1221.731-28390.805-1221.771-28390.801z"/>
					<path id="Path_16983" fill="#D1D3D4" d="M-1196.073-28470.973h-0.2v-18.66h0.2c0.869,0,1.573,0.703,1.574,1.572v15.514
						C-1194.5-28471.678-1195.204-28470.973-1196.073-28470.973z"/>
					<path id="Path_16984" fill="#D1D3D4" d="M-1196.273-28462.422L-1196.273-28462.422v-6.219l0,0
						c0.981-0.002,1.777,0.793,1.778,1.775c0,0,0,0,0,0.002v2.666C-1194.496-28463.217-1195.292-28462.422-1196.273-28462.422z"/>
				</g>
				<g id="Group_6045" transform="translate(8.894 18.407)">
					<path id="Path_16985" fill="#136DA0" d="M-1258.885-28497.254c-2.23,0-4.039-1.809-4.039-4.039
						c0-2.232,1.809-4.039,4.039-4.039s4.039,1.807,4.039,4.039C-1254.849-28499.064-1256.655-28497.258-1258.885-28497.254z
						 M-1258.885-28502.787c-0.825,0-1.494,0.67-1.494,1.494s0.669,1.494,1.494,1.494s1.494-0.67,1.494-1.494
						s-0.668-1.494-1.493-1.496c-0.001,0-0.001,0-0.001,0V-28502.787z"/>
				</g>
				<g id="Group_6048" transform="translate(51.404 18.405)">
					<g id="Group_6046">
						<rect id="Rectangle_1175" x="-1262.924" y="-28505.332" fill="#136DA0" width="5.514" height="2.548"/>
					</g>
					<g id="Group_6047" transform="translate(0 3.995)">
						<rect id="Rectangle_1176" x="-1262.924" y="-28505.332" fill="#136DA0" width="5.514" height="2.548"/>
					</g>
				</g>
				<path id="Path_16986" fill="#009ADD" d="M-1258.628-28407.148v7.949c0.001,0.781,0.511,1.471,1.259,1.699
					c18.1,5.539,37.442,5.539,55.542,0c0.747-0.229,1.258-0.918,1.258-1.699v-7.949H-1258.628z"/>
			</g>
		</g>
		<path id="Path_16987" fill="#136DA0" d="M-985.583-28436.676c-0.01-6.779-4.596-12.697-11.157-14.4l0,0
			c-0.563-0.146-1.136-0.26-1.713-0.34l-0.194-0.029c-0.611-0.08-1.227-0.121-1.843-0.125l0,0l0.007,14.898l-0.014-28.438l0,0
			v-3.559c-0.011-5.902-4.805-10.68-10.707-10.668c-1.944,0.004-3.851,0.535-5.514,1.543l-8.129,4.93l-1.366,0.832
			c-10.54,6.393-15.923,10.113-26.222,10.949c-1.471,0.119-3.043,0.18-4.744,0.18l-23.334,0.012l-22.967,0.012h-0.007h-5.542
			c-4.65,0-8.419,3.771-8.418,8.422c0,0,0,0.002,0,0.004v4.947l0,0h-5.648h-2.219c-1.86-0.002-3.369,1.506-3.369,3.367
			c0,0.004,0,0.008,0,0.014v3.021l0,0v7.191l0,0v4.82c0,1.857,1.507,3.365,3.366,3.365c0.001,0,0.003,0,0.005,0h2.219l0,0h5.6h0.049
			v4.949c0.001,4.648,3.771,8.418,8.422,8.418c0.001,0,0.002,0,0.003,0h5.546h0.608l2.009,13.299l0.442,0.371l5.456,4.572
			l1.336,9.492l0.217,1.543c0.059,0.35,0.14,0.695,0.243,1.035c1.233,4.451,5.84,7.059,10.29,5.826
			c4.033-1.117,6.619-5.047,6.051-9.193l-0.056-0.387l-3.738-26.568l-20.641,0.01l20.752-0.01l23.334-0.012
			c10.562,0,16.137,2.299,23.729,6.736c0.588,0.346,1.189,0.701,1.807,1.068c1.681,1.008,3.463,2.1,5.441,3.299l4,2.422l5.5,3.332
			c2.067,1.271,4.51,1.789,6.916,1.467c2.273-0.311,4.39-1.334,6.045-2.922c2.098-2.006,3.273-4.787,3.252-7.688l-0.008-17.09l0,0
			c0.617-0.004,1.233-0.047,1.846-0.127c0.064-0.01,0.127-0.021,0.189-0.031c0.578-0.078,1.15-0.193,1.715-0.34l0,0
			c0.699-0.174,1.383-0.4,2.049-0.676c0.443-0.188,0.877-0.398,1.299-0.629c0.734-0.404,1.432-0.869,2.089-1.391
			C-987.688-28427.768-985.579-28432.094-985.583-28436.676z M-1117.449-28445.902v9.285V-28445.902z"/>
		<g id="Group_6052" transform="translate(134.238 19.043)">
			<path id="Path_16988" fill="#EF5A9D" d="M-1214.736-28438.359l-22.967,0.012c-7.714,0.006-13.971-6.244-13.976-13.957
				c0-0.002,0-0.004,0-0.006l-0.009-20.568c-0.005-7.715,6.245-13.973,13.958-13.977c0.001,0,0.003,0,0.004,0l22.967-0.012
				L-1214.736-28438.359z"/>
			<path id="Path_16989" fill="#E43D91" d="M-1251.683-28461.803l0.007,15.041c0.001,4.65,3.772,8.418,8.422,8.418
				c0.001,0,0.002,0,0.003,0l28.516-0.016l-0.007-12.781l-26.257,0.012c-5.896,0.004-10.68-4.773-10.684-10.67
				C-1251.683-28461.801-1251.683-28461.801-1251.683-28461.803z"/>
			<path id="Path_16990" fill="#F06EA9" d="M-1243.272-28486.854c-4.65,0-8.419,3.771-8.418,8.422c0,0.002,0,0.004,0,0.006v5.818
				c-0.004-5.898,4.774-10.684,10.673-10.689c0.002,0,0.004,0,0.006,0l26.257-0.012v-3.559L-1243.272-28486.854z"/>
			<g id="Group_6051" transform="translate(0 31.854)">
				<path id="Path_16991" fill="#E43D91" d="M-1251.679-28483.564h-5.65c-3.086,0.002-5.589-2.5-5.59-5.586v-10.594
					c-0.001-3.086,2.5-5.588,5.586-5.59h5.648L-1251.679-28483.564z"/>
				<path id="Path_16992" fill="#EF5A9D" d="M-1259.558-28505.332c-1.859,0-3.366,1.508-3.366,3.367c0,0,0,0.002,0,0.004v3.023
					c-0.001-2.648,2.143-4.795,4.789-4.797c0,0,0,0,0.001,0h6.443v-1.6L-1259.558-28505.332z"/>
				<path id="Path_16993" fill="#A72973" d="M-1262.92-28491.748v4.818c0,1.859,1.507,3.367,3.366,3.367c0.001,0,0.003,0,0.005,0
					h7.868v-3.4h-6.443c-2.645,0.004-4.792-2.137-4.796-4.781C-1262.92-28491.746-1262.92-28491.746-1262.92-28491.748z"/>
			</g>
			<path id="Path_16994" fill="#EF5A9D" d="M-1134.734-28477.551c8.229-0.006,14.904,6.66,14.91,14.891c0,0.002,0,0.006,0,0.008l0,0
				c0.006,8.23-6.661,14.906-14.89,14.91c-0.004,0-0.007,0-0.01,0L-1134.734-28477.551z"/>
			<path id="Path_16995" fill="#E43D91" d="M-1134.719-28447.746c1.266-0.006,2.525-0.174,3.75-0.5l-0.012-28.813
				c-1.225-0.324-2.485-0.49-3.752-0.494L-1134.719-28447.746z"/>
			<path id="Path_16996" fill="#E43D91" d="M-1134.721-28454.133v6.387c8.195,0.031,14.864-6.588,14.895-14.783
				c0.005-1.115-0.117-2.229-0.362-3.316C-1121.682-28459.014-1127.729-28454.141-1134.721-28454.133z"/>
			<path id="Path_16997" fill="#FEDE3A" d="M-1134.71-28430.656c0.002,5.898-4.777,10.682-10.676,10.686
				c-1.951,0-3.866-0.533-5.535-1.545l-9.5-5.752c-12.051-7.299-17.365-11.107-30.976-11.1l-23.334,0.012l-0.021-48.508
				l23.334-0.012c13.609-0.006,18.921-3.824,30.966-11.131l9.5-5.762c5.044-3.059,11.612-1.451,14.672,3.592
				c1.013,1.67,1.548,3.584,1.549,5.537L-1134.71-28430.656z"/>
			<path id="Path_16998" fill="#F7CB15" d="M-1150.928-28434.051l-9.5-5.752c-12.052-7.299-17.365-11.107-30.975-11.1l-23.334,0.012
				v12.535l23.334-0.012c13.609-0.008,18.926,3.805,30.975,11.1l9.5,5.752c5.047,3.055,11.613,1.441,14.668-3.605
				c1.01-1.668,1.545-3.584,1.543-5.535l-0.006-12.535c0.002,5.898-4.777,10.68-10.675,10.684
				C-1147.347-28432.508-1149.26-28433.041-1150.928-28434.051z"/>
			<path id="Path_16999" fill="#FFF335" d="M-1150.962-28503.77l-9.5,5.762c-12.045,7.305-17.355,11.125-30.965,11.129
				l-23.334,0.012v3.561l23.334-0.012c13.612-0.006,18.92-3.824,30.965-11.131l9.5-5.76c5.044-3.061,11.613-1.451,14.672,3.592
				c1.014,1.668,1.549,3.584,1.55,5.535v-3.559c-0.001-5.898-4.784-10.68-10.683-10.678
				C-1147.376-28505.318-1149.292-28504.781-1150.962-28503.77z"/>
			<path id="Path_17000" fill="#FEDE3A" d="M-1219.341-28401.865L-1219.341-28401.865c-4.177,0.004-7.717-3.07-8.3-7.205
				l-1.554-11.035l-5.9-4.943l-2.009-13.301l22.252-0.01l3.793,26.957c0.643,4.578-2.548,8.813-7.127,9.457
				C-1218.569-28401.893-1218.955-28401.865-1219.341-28401.865z"/>
			<path id="Path_17001" fill="#F7CB15" d="M-1211.382-28413.732c-1.106,3.465-4.325,5.818-7.961,5.822l0,0
				c-4.178,0.004-7.72-3.072-8.3-7.211l-1.554-11.035l-5.9-4.941l-1.1-7.25h-0.911l2.009,13.301l5.9,4.941l1.554,11.035
				c0.583,4.137,4.124,7.211,8.3,7.207l0,0c4.625-0.004,8.372-3.754,8.37-8.379c0-0.389-0.027-0.777-0.082-1.16L-1211.382-28413.732
				z"/>
			<path id="Path_17002" fill="#F7CB15" d="M-1214.605-28436.629l-4.044,0.578c-1.722,0.248-2.917,1.844-2.67,3.566l2.046,14.246
				c0.247,1.721,1.843,2.916,3.564,2.67c0,0,0,0,0-0.002l3.987-0.572L-1214.605-28436.629z"/>
			<path id="Path_17003" fill="#F06EA9" d="M-1119.968-28461.211c0.074-0.479,0.123-0.961,0.146-1.445c0-8.23-6.671-14.9-14.9-14.9
				c-0.003,0-0.006,0-0.01,0v2.893C-1127.079-28474.65-1120.689-28468.828-1119.968-28461.211z"/>
		</g>
		<path id="Path_17004" fill="#136DA0" d="M-913.284-28352.613c0.416-0.367,0.646-0.902,0.631-1.457v-2.969
			c-0.004-0.074-0.012-0.145-0.024-0.215c-0.005-0.068-0.012-0.135-0.023-0.201c-0.037-0.193-0.104-0.379-0.2-0.549l-1.81-3.135
			c-0.448-0.779-1.383-1.135-2.236-0.85l-7.248,2.398l-0.009-0.006c-0.603-0.494-1.243-0.943-1.914-1.34
			c-0.095-0.055-0.185-0.115-0.28-0.168c-0.655-0.371-1.337-0.691-2.041-0.959c-0.062-0.023-0.115-0.061-0.178-0.084l-1.547-7.471
			c-0.184-0.879-0.958-1.51-1.855-1.512h-3.62c-0.898,0.002-1.673,0.633-1.856,1.512l-1.547,7.471
			c-0.063,0.023-0.116,0.061-0.178,0.084c-0.704,0.268-1.386,0.588-2.041,0.959c-0.096,0.053-0.188,0.111-0.28,0.17
			c-0.671,0.396-1.311,0.844-1.914,1.336l-0.009,0.008l-7.248-2.4c-0.853-0.279-1.785,0.074-2.236,0.852l-1.81,3.133
			c-0.096,0.17-0.164,0.357-0.2,0.549c-0.011,0.066-0.019,0.133-0.023,0.201c-0.007,0.072-0.024,0.143-0.024,0.215v2.969
			c-0.013,0.555,0.218,1.088,0.631,1.459l5.482,4.883v2.461l-5.482,4.883c-0.188,0.172-0.337,0.379-0.439,0.613
			c-0.026,0.064-0.05,0.131-0.068,0.199c-0.059,0.17-0.093,0.346-0.101,0.525c0,0.041-0.022,0.08-0.022,0.121v2.971
			c-0.006,0.338,0.082,0.672,0.252,0.965l1.81,3.133c0.448,0.779,1.384,1.135,2.236,0.852l7.248-2.4
			c1.317,1.098,2.813,1.963,4.423,2.557l1.547,7.471c0.184,0.879,0.958,1.51,1.856,1.512h3.618c0.897-0.002,1.672-0.633,1.855-1.512
			l1.547-7.471c1.609-0.594,3.105-1.459,4.423-2.557l7.248,2.4c0.854,0.279,1.785-0.074,2.236-0.852l1.81-3.133
			c0.17-0.293,0.257-0.627,0.253-0.965v-2.971c-0.006-0.041-0.014-0.08-0.023-0.121c-0.008-0.18-0.041-0.355-0.1-0.525
			c-0.023-0.066-0.037-0.133-0.067-0.199c-0.104-0.232-0.253-0.441-0.439-0.613l-5.481-4.883v-2.463L-913.284-28352.613z
			 M-927.634-28345.912c-0.098,0.289-0.215,0.57-0.352,0.844c-0.103,0.217-0.217,0.426-0.342,0.629
			c-0.1,0.15-0.215,0.283-0.324,0.428c-0.132,0.172-0.264,0.344-0.41,0.5c-0.12,0.129-0.253,0.246-0.385,0.363
			c-0.162,0.148-0.333,0.289-0.511,0.422c-0.136,0.1-0.277,0.193-0.421,0.283c-0.2,0.125-0.407,0.236-0.62,0.338
			c-0.143,0.07-0.287,0.139-0.435,0.199c-0.25,0.096-0.506,0.176-0.766,0.238c-0.132,0.035-0.257,0.08-0.391,0.102
			c-0.816,0.166-1.658,0.166-2.475,0c-0.134-0.025-0.261-0.07-0.393-0.102c-0.26-0.063-0.515-0.143-0.765-0.238
			c-0.148-0.057-0.291-0.129-0.436-0.199c-0.213-0.102-0.42-0.213-0.62-0.338c-0.143-0.09-0.283-0.182-0.421-0.283
			c-0.178-0.133-0.347-0.273-0.511-0.422c-0.132-0.117-0.264-0.236-0.384-0.363c-0.148-0.156-0.277-0.324-0.409-0.5
			c-0.111-0.143-0.227-0.277-0.326-0.43c-0.124-0.203-0.237-0.412-0.34-0.627c-0.137-0.271-0.254-0.553-0.351-0.842
			c-0.067-0.199-0.14-0.4-0.188-0.6c0.841-3.525,4.379-5.701,7.903-4.859c2.406,0.574,4.285,2.453,4.858,4.859
			c-0.052,0.197-0.124,0.396-0.187,0.598H-927.634z"/>
		<g id="Group_6057" transform="translate(307.911 129.573)">
			<path id="Path_17005" fill="#D1D3D4" d="M-1226.675-28481.926l5.481-4.883c0.416-0.371,0.646-0.904,0.631-1.461v-2.969
				c0.006-0.338-0.081-0.672-0.252-0.965l-1.81-3.133c-0.449-0.779-1.383-1.135-2.236-0.852l-7.248,2.4
				c-1.317-1.1-2.813-1.963-4.423-2.557l-1.547-7.471c-0.184-0.879-0.958-1.51-1.856-1.512h-3.617
				c-0.898,0.002-1.673,0.633-1.856,1.512l-1.547,7.471c-1.609,0.594-3.104,1.459-4.423,2.557l-7.248-2.4
				c-0.853-0.281-1.785,0.074-2.236,0.852l-1.81,3.133c-0.17,0.293-0.257,0.627-0.252,0.965v2.969
				c-0.014,0.557,0.217,1.09,0.631,1.461l5.481,4.883v2.459l-5.481,4.883c-0.415,0.369-0.646,0.904-0.631,1.459v2.969
				c-0.006,0.34,0.081,0.674,0.252,0.967l1.81,3.133c0.449,0.779,1.384,1.135,2.236,0.852l7.248-2.4
				c1.317,1.098,2.813,1.963,4.423,2.557l1.547,7.471c0.185,0.879,0.958,1.508,1.856,1.51h3.617c0.898-0.002,1.672-0.631,1.856-1.51
				l1.547-7.471c1.609-0.594,3.104-1.459,4.423-2.557l7.248,2.4c0.853,0.279,1.785-0.076,2.236-0.852l1.81-3.133
				c0.17-0.293,0.257-0.627,0.252-0.967v-2.969c0.014-0.555-0.217-1.088-0.631-1.459l-5.481-4.883V-28481.926z M-1241.743-28475.645
				c-3.043,0-5.686-2.092-6.386-5.053c0.832-3.527,4.366-5.711,7.893-4.879c2.419,0.572,4.308,2.459,4.878,4.879
				C-1236.058-28477.736-1238.701-28475.645-1241.743-28475.645z"/>
			<g id="Group_6056" transform="translate(0.003)">
				<g id="Group_6053" transform="translate(15.827)">
					<path id="Path_17006" fill="#FFFFFF" d="M-1252.217-28495.668h-10.707l1.688-8.152c0.184-0.881,0.958-1.512,1.856-1.514h3.618
						c0.897,0.002,1.672,0.633,1.855,1.514L-1252.217-28495.668z"/>
					<path id="Path_17007" fill="#FFFFFF" d="M-1262.924-28468.758h10.707l-1.688,8.154c-0.184,0.879-0.958,1.51-1.855,1.512h-3.619
						c-0.898-0.002-1.673-0.633-1.856-1.512L-1262.924-28468.758z"/>
				</g>
				<g id="Group_6054" transform="translate(0 9.045)">
					<path id="Path_17008" fill="#FFFFFF" d="M-1256.072-28489.168l5.353,9.273l-7.9,2.615c-0.853,0.279-1.785-0.074-2.236-0.852
						l-1.81-3.133c-0.45-0.777-0.291-1.766,0.381-2.363L-1256.072-28489.168z"/>
					<path id="Path_17009" fill="#FFFFFF" d="M-1227.416-28493.35l-5.354-9.275l7.9-2.613c0.853-0.281,1.785,0.074,2.236,0.85
						l1.81,3.133c0.45,0.779,0.291,1.766-0.381,2.363L-1227.416-28493.35z"/>
				</g>
				<g id="Group_6055" transform="translate(0.003 9.047)">
					<path id="Path_17010" fill="#FFFFFF" d="M-1232.77-28479.898l5.354-9.273l6.217,5.539c0.67,0.6,0.829,1.586,0.381,2.363
						l-1.81,3.133c-0.448,0.779-1.383,1.135-2.236,0.852L-1232.77-28479.898z"/>
					<path id="Path_17011" fill="#FFFFFF" d="M-1250.72-28502.625l-5.353,9.273l-6.217-5.539c-0.67-0.6-0.828-1.586-0.381-2.363
						l1.81-3.133c0.449-0.779,1.384-1.135,2.236-0.852L-1250.72-28502.625z"/>
				</g>
			</g>
			<path id="Path_17012" fill="#FFFFFF" d="M-1241.739-28497.277c-8.32,0-15.063,6.748-15.061,15.068
				c0.002,8.32,6.748,15.063,15.068,15.061c8.319-0.002,15.062-6.746,15.062-15.064c0-8.32-6.743-15.064-15.063-15.064
				C-1241.735-28497.277-1241.737-28497.277-1241.739-28497.277z M-1241.739-28475.645c-3.628,0.002-6.569-2.939-6.57-6.566
				c0-3.629,2.94-6.57,6.568-6.57s6.569,2.939,6.57,6.568c0,0,0,0.002,0,0.002c0,3.627-2.94,6.568-6.568,6.57V-28475.645z"/>
			<path id="Path_17013" fill="#E6E7E8" d="M-1241.739-28497.277c-8.32,0-15.063,6.748-15.061,15.068
				c0.002,8.32,6.748,15.063,15.068,15.061c8.319-0.002,15.062-6.746,15.062-15.064c0-8.32-6.743-15.064-15.063-15.064
				C-1241.735-28497.277-1241.737-28497.277-1241.739-28497.277z M-1241.739-28470.654c-6.385,0-11.56-5.176-11.56-11.561
				c0-6.383,5.175-11.559,11.56-11.559s11.561,5.176,11.561,11.559l0,0C-1230.18-28475.83-1235.354-28470.654-1241.739-28470.654z"
				/>
		</g>
		<path id="Path_17014" fill="#136DA0" d="M-1173.068-28403.504h-66.314c-3.148,0-5.7,2.551-5.7,5.699v47.701
			c0,3.146,2.552,5.699,5.7,5.699h4.457l4.939,6.721c1.586,2.156,4.62,2.617,6.775,1.029c0.393-0.289,0.74-0.635,1.029-1.029
			l4.938-6.711h44.174c3.148,0,5.7-2.553,5.7-5.701v-47.699c0.005-3.148-2.543-5.705-5.691-5.709
			C-1173.063-28403.504-1173.065-28403.504-1173.068-28403.504z"/>
		<g id="Group_6058" transform="translate(17.839 94.894)">
			<path id="Path_17015" fill="#BCBEC0" d="M-1257.221-28499.301h66.316c3.148,0,5.7,2.551,5.7,5.699v41.676
				c0,3.148-2.552,5.699-5.7,5.699h-44.177l-4.938,6.713c-1.586,2.154-4.62,2.615-6.775,1.029c-0.393-0.289-0.74-0.637-1.029-1.029
				l-4.938-6.713h-4.458c-3.148,0-5.7-2.551-5.7-5.699v-41.674C-1262.922-28496.748-1260.37-28499.301-1257.221-28499.301
				C-1257.222-28499.301-1257.221-28499.301-1257.221-28499.301z"/>
			<path id="Path_17016" fill="#FFFFFF" d="M-1257.22-28505.336h66.316c3.148,0,5.7,2.553,5.7,5.701v41.674
				c0,3.148-2.552,5.701-5.7,5.701h-45.317l-5.849,8.154c-0.734,1.023-2.158,1.258-3.182,0.523c-0.202-0.145-0.379-0.32-0.524-0.523
				l-5.849-8.154h-5.6c-3.148,0-5.7-2.553-5.7-5.701v-41.672C-1262.922-28502.783-1260.369-28505.334-1257.22-28505.336z"/>
		</g>
		<g id="Group_6059" transform="translate(36.809 109.239)">
			<path id="Path_17017" fill="#009ADD" d="M-1251.288-28504.207c-0.256-0.676-0.902-1.123-1.625-1.127h-0.895
				c-0.723,0.004-1.369,0.451-1.625,1.127l-7.382,19.725c-0.334,0.896,0.123,1.895,1.02,2.229c0.194,0.072,0.398,0.109,0.605,0.109
				h0.8c0.724-0.004,1.37-0.451,1.625-1.129l1.776-4.766h7.253l1.785,4.766c0.254,0.676,0.9,1.125,1.623,1.125h0.8
				c0.958,0.002,1.735-0.773,1.735-1.732c0-0.207-0.037-0.414-0.11-0.607L-1251.288-28504.207z M-1251.304-28492.234h-4.123
				l2.065-5.525L-1251.304-28492.234z"/>
			<path id="Path_17018" fill="#009ADD" d="M-1224.433-28500.299c-0.818-1.545-2.053-2.832-3.565-3.713
				c-1.524-0.883-3.258-1.338-5.019-1.32h-5.459c-0.957,0.004-1.732,0.777-1.734,1.734v19.723c0.002,0.957,0.777,1.732,1.734,1.734
				h5.539c1.768,0.006,3.504-0.469,5.024-1.371c1.509-0.902,2.735-2.207,3.54-3.77c0.831-1.625,1.253-3.428,1.232-5.25v-2.586
				C-1223.143-28496.924-1223.587-28498.703-1224.433-28500.299z M-1227.341-28494.984v2.525c0.008,1.119-0.257,2.221-0.772,3.215
				c-0.458,0.889-1.155,1.629-2.014,2.141c-0.875,0.516-1.875,0.781-2.89,0.766h-2.995v-14.801h3.08
				c1.007,0,1.995,0.277,2.855,0.801c0.851,0.514,1.54,1.256,1.988,2.143
				C-1227.582-28497.201-1227.326-28496.098-1227.341-28494.984L-1227.341-28494.984z"/>
		</g>
	</g>
</g>
</svg>
