<?xml version="1.0" encoding="utf-8"?>
<!-- Generator: Adobe Illustrator 16.0.0, SVG Export Plug-In . SVG Version: 6.00 Build 0)  -->
<!DOCTYPE svg PUBLIC "-//W3C//DTD SVG 1.1//EN" "http://www.w3.org/Graphics/SVG/1.1/DTD/svg11.dtd">
<svg version="1.1" id="Layer_1" xmlns="http://www.w3.org/2000/svg" xmlns:xlink="http://www.w3.org/1999/xlink" x="0px" y="0px"
	 width="430.145px" height="428.982px" viewBox="0 0 430.145 428.982" enable-background="new 0 0 430.145 428.982"
	 xml:space="preserve">
<g id="Group_7290" transform="translate(-2267.211 27649.65)">
	<g id="Group_7287" transform="translate(3012.211 388.385)">
		<path id="Path_19833" fill="#473080" d="M-470.672-27609.055h119.868c19.854,0,35.948-14.422,35.948-32.215v-305.516
			c0-17.793-16.095-32.217-35.948-32.217h-358.248c-19.853,0-35.948,14.424-35.948,32.217v305.516
			c0,17.793,16.1,32.215,35.948,32.215h124.227"/>
	</g>
</g>
<g id="Group_7286" transform="translate(841 27979)">
	<g id="Group_5680" transform="translate(0 8.201)">
		<path id="Path_16298" fill="#FFFFFF" d="M-618.581-27816.758h-114.926c-6.348,0-11.493-5.146-11.493-11.492l0,0v-139.258
			c0-6.348,5.146-11.492,11.493-11.492h114.926c6.348-0.004,11.496,5.137,11.5,11.484c0,0.004,0,0.004,0,0.008v139.254
			c0.001,6.348-5.146,11.496-11.493,11.496C-618.576-27816.758-618.578-27816.758-618.581-27816.758z"/>
		<g id="Group_5679" transform="translate(17.621 67.851)">
			<path id="Path_16299" fill="#D1D3D4" d="M-648.599-27966.461h-90.131c-3.463,0-6.27-2.807-6.27-6.27l0,0
				c0-3.463,2.807-6.27,6.27-6.27h90.131c3.462,0,6.269,2.807,6.27,6.27l0,0C-642.33-27969.27-645.137-27966.461-648.599-27966.461z
				"/>
			<path id="Path_16300" fill="#D1D3D4" d="M-648.599-27937.484h-90.131c-3.463,0-6.27-2.809-6.27-6.27l0,0
				c0-3.465,2.807-6.271,6.27-6.271h90.131c3.462,0.002,6.269,2.809,6.27,6.271l0,0
				C-642.33-27940.293-645.137-27937.486-648.599-27937.484z"/>
			<path id="Path_16301" fill="#D1D3D4" d="M-648.599-27908.508h-90.131c-3.463,0-6.27-2.809-6.27-6.271l0,0
				c0-3.463,2.807-6.27,6.27-6.27l0,0h90.131c3.462,0,6.269,2.807,6.27,6.27l0,0
				C-642.33-27911.316-645.136-27908.508-648.599-27908.508z"/>
		</g>
		<path id="Path_16302" fill="#D1D3D4" d="M-629.305-27961.953h-93.476c-2.541,0-4.6,2.061-4.6,4.602v22.6c0,2.541,2.06,4.6,4.6,4.6
			h93.476c2.541,0,4.6-2.059,4.6-4.6l0,0v-22.6C-624.705-27959.893-626.765-27961.953-629.305-27961.953L-629.305-27961.953z"/>
	</g>
	<g id="Group_5681" transform="translate(155.686 125.031)">
		<path id="Path_16303" fill="#E7AD27" d="M-675.81-27897.773h-65.942c-1.795,0-3.248-1.455-3.248-3.25v-71.156
			c0.001-1.793,1.454-3.248,3.248-3.25h65.941c1.793,0,3.247,1.453,3.247,3.248c0,0,0,0.002,0,0.002v71.156
			c0.002,1.793-1.449,3.248-3.242,3.25C-675.807-27897.773-675.809-27897.773-675.81-27897.773z"/>
		<path id="Path_16304" fill="#009ADD" d="M-675.81-27901.348h-65.942c-1.793,0-3.247-1.453-3.248-3.246v-71.158
			c0.001-1.793,1.454-3.248,3.248-3.248h65.941c1.793,0,3.247,1.453,3.247,3.246c0,0,0,0,0,0.002v71.16
			C-672.565-27902.801-674.018-27901.348-675.81-27901.348z"/>
		<path id="Path_16305" fill="#F7CB15" d="M-724.259-27935.207l-20.728,30.443c0.078,1.908,1.647,3.416,3.558,3.418h46.13
			l-23.056-33.861c-1.11-1.631-3.333-2.051-4.964-0.941C-723.688-27935.896-724.007-27935.578-724.259-27935.207z"/>
		<path id="Path_16306" fill="#F7CB15" d="M-672.561-27941.539l-9.183-13.488c-1.11-1.633-3.333-2.055-4.965-0.945
			c-0.371,0.254-0.691,0.574-0.943,0.945l-36.55,53.682h48.066c1.974,0,3.573-1.6,3.574-3.572c0,0,0-0.002,0-0.002V-27941.539z"/>
		<circle id="Ellipse_1973" fill="#F7CB15" cx="-721.307" cy="-27956.053" r="9.157"/>
	</g>
	<path id="Path_16307" fill="#BCBEC0" d="M-703.561-27808.557h74.881l21.594-21.594v-75.748l-96,96l0,0l0,0L-703.561-27808.557z"/>
	<g id="Group_5682" transform="translate(21.344)">
		
			<rect id="Rectangle_1139" x="-664.089" y="-27965.6" transform="matrix(-0.7071 -0.7071 0.7071 -0.7071 18618.5215 -48026.2891)" fill="#F7CB15" width="53.562" height="192.869"/>
		
			<rect id="Rectangle_1140" x="-648.777" y="-27965.6" transform="matrix(-0.7071 -0.7071 0.7071 -0.7071 18619.1289 -48025.7109)" fill="#FEDE3A" width="22.937" height="192.869"/>
		<path id="Path_16308" fill="#E43D91" d="M-529.839-27950.203l-26.43-26.428c-3.162-3.156-8.283-3.156-11.445,0l-20.344,20.344
			l37.873,37.873l20.344-20.344C-526.68-27941.918-526.679-27947.043-529.839-27950.203z"/>
		<path id="Path_16309" fill="#EF5A9D" d="M-540.316-27960.682l-5.476-5.475c-3.162-3.156-8.282-3.156-11.445,0l-20.349,20.344
			l16.919,16.918l20.349-20.34c3.161-3.158,3.163-8.281,0.005-11.443C-540.314-27960.68-540.315-27960.68-540.316-27960.682z"/>
		<path id="Path_16310" fill="#E6E7E8" d="M-686.56-27782.035l-37.875-37.875l-20.565,58.441L-686.56-27782.035z"/>
		<path id="Path_16311" fill="#FFFFFF" d="M-697.386-27792.863l-16.222-16.217l-31.392,47.611L-697.386-27792.863z"/>
		<path id="Path_16312" fill="#FEDE3A" d="M-745-27761.469l15.067-5.301c-1.548-4.605-5.162-8.219-9.766-9.766L-745-27761.469z"/>
		<path id="Path_16313" fill="#E6E7E8" d="M-713.704-27819.814c-2.936-2.988-7.739-3.033-10.73-0.1l10.826,10.826
			C-710.673-27812.076-710.716-27816.879-713.704-27819.814z"/>
		<path id="Path_16314" fill="#E6E7E8" d="M-686.656-27792.766c-2.936-2.99-7.739-3.035-10.73-0.102l10.826,10.828
			C-683.626-27785.029-683.669-27789.83-686.656-27792.766z"/>
		<path id="Path_16315" fill="#FFFFFF" d="M-698.782-27807.691c-4.479-4.48-11.117-5.102-14.823-1.4l0,0l16.221,16.221l0,0
			C-693.678-27796.57-694.303-27803.207-698.782-27807.691z"/>
	</g>
	<g id="Group_5685" transform="translate(103.727 180.205)">
		<g id="Group_5683">
			<path id="Path_16316" fill="#E43D91" d="M-745-27938.533c0,18.881,15.306,34.188,34.187,34.188s34.188-15.307,34.188-34.188l0,0
				v-6.279c0-18.881-15.307-34.188-34.188-34.188s-34.187,15.307-34.187,34.188V-27938.533z"/>
			<circle id="Ellipse_1974" fill="#EF5A9D" cx="-710.813" cy="-27944.814" r="34.187"/>
		</g>
		<g id="Group_5684" transform="translate(24.505 18.44)">
			<path id="Path_16317" fill="#E43D91" d="M-745-27947.453v-22.32c0-2.178,1.766-3.943,3.943-3.943c0.828,0,1.635,0.26,2.307,0.744
				l15.481,11.16c1.768,1.273,2.168,3.738,0.895,5.504c-0.248,0.344-0.55,0.646-0.895,0.895l-15.481,11.16
				c-1.767,1.273-4.23,0.875-5.505-0.891C-744.74-27945.816-745.001-27946.625-745-27947.453z"/>
			<path id="Path_16318" fill="#FFFFFF" d="M-745-27952.73v-22.318c0-2.178,1.766-3.945,3.943-3.945c0.828,0,1.635,0.26,2.307,0.744
				l15.481,11.16c1.768,1.273,2.168,3.738,0.895,5.504c-0.248,0.346-0.55,0.648-0.895,0.895l-15.481,11.154
				c-1.767,1.273-4.23,0.875-5.505-0.891C-744.738-27951.098-745-27951.904-745-27952.73z"/>
			<path id="Path_16319" fill="#D1D3D4" d="M-723.268-27963.742l-15.481,11.16c-1.768,1.273-4.232,0.873-5.506-0.895
				c-0.484-0.672-0.744-1.479-0.744-2.305v3.047c0,2.18,1.766,3.945,3.943,3.945c0.828,0,1.635-0.26,2.307-0.744l15.481-11.158
				c1.487-1.076,2.031-3.039,1.31-4.727C-722.229-27964.748-722.683-27964.168-723.268-27963.742z"/>
		</g>
	</g>
</g>
</svg>
