<?xml version="1.0" encoding="utf-8"?>
<!-- Generator: Adobe Illustrator 16.0.0, SVG Export Plug-In . SVG Version: 6.00 Build 0)  -->
<!DOCTYPE svg PUBLIC "-//W3C//DTD SVG 1.1//EN" "http://www.w3.org/Graphics/SVG/1.1/DTD/svg11.dtd">
<svg version="1.1" id="Layer_1" xmlns="http://www.w3.org/2000/svg" xmlns:xlink="http://www.w3.org/1999/xlink" x="0px" y="0px"
	 width="765.175px" height="1933.195px" viewBox="0 0 765.175 1933.195" enable-background="new 0 0 765.175 1933.195"
	 xml:space="preserve">
<path id="Rectangle_1285" fill="#FFFFFF" d="M174,5.416h417.142c96.098,0,174,77.902,174,174v1579.779c0,96.098-77.902,174-174,174
	H174c-96.098,0-174-77.902-174-174V179.416C0,83.318,77.902,5.416,174,5.416z"/>
<path id="Path_19844" fill="#BB83F2" d="M765.173,59.83v185.257c-5.652-1.974-11.938-0.474-16.09,3.84l-0.127,0.069
	c-5.881,6.107-15.6,6.29-21.707,0.409c-0.139-0.134-0.275-0.27-0.408-0.409l-0.125-0.069c-5.869-6.105-15.574-6.298-21.68-0.43
	c-0.146,0.14-0.291,0.284-0.43,0.43l-0.064,0.069c-5.92,6.125-15.686,6.289-21.811,0.368c-0.125-0.121-0.248-0.243-0.367-0.368
	l-0.064-0.069c-5.912-6.125-15.67-6.296-21.795-0.383c-0.129,0.125-0.258,0.253-0.383,0.383l-0.064,0.069
	c-5.916,6.123-15.678,6.289-21.801,0.372c-0.125-0.122-0.25-0.246-0.371-0.372l-0.063-0.069c-5.914-6.125-15.672-6.296-21.797-0.383
	c-0.129,0.125-0.258,0.253-0.383,0.383v0.069c-5.922,6.125-15.688,6.289-21.811,0.368c-0.125-0.121-0.248-0.243-0.369-0.368
	l-0.057-0.069c-5.912-6.125-15.67-6.296-21.795-0.383c-0.131,0.125-0.258,0.253-0.385,0.383l-0.063,0.069
	c-5.922,6.125-15.686,6.289-21.811,0.368c-0.125-0.121-0.248-0.243-0.367-0.368v-0.073c-5.908-6.123-15.662-6.297-21.785-0.389
	c-0.131,0.127-0.262,0.257-0.389,0.389l-0.063,0.069c-5.922,6.125-15.688,6.289-21.813,0.368c-0.123-0.121-0.246-0.243-0.367-0.368
	v-0.069c-5.908-6.123-15.66-6.297-21.783-0.389c-0.133,0.127-0.262,0.257-0.389,0.389l-0.064,0.069
	c-5.922,6.125-15.688,6.289-21.813,0.366c-0.123-0.12-0.246-0.242-0.365-0.366v-0.069c-5.908-6.123-15.662-6.297-21.785-0.389
	c-0.131,0.127-0.262,0.257-0.389,0.389l-0.068,0.069c-5.918,6.123-15.68,6.289-21.801,0.372c-0.127-0.122-0.25-0.246-0.373-0.372
	v-0.069c-5.912-6.125-15.67-6.296-21.795-0.384c-0.131,0.126-0.258,0.254-0.383,0.384l-0.064,0.069
	c-5.916,6.123-15.677,6.289-21.8,0.372c-0.126-0.122-0.25-0.246-0.372-0.372l-0.063-0.069c-5.912-6.125-15.67-6.296-21.795-0.384
	c-0.13,0.126-0.258,0.254-0.384,0.384v0.069c-5.922,6.125-15.688,6.289-21.813,0.366c-0.124-0.12-0.246-0.242-0.366-0.366
	l-0.057-0.069c-5.912-6.125-15.67-6.296-21.795-0.383c-0.13,0.125-0.258,0.253-0.384,0.383v0.069
	c-5.921,6.125-15.687,6.289-21.811,0.368c-0.125-0.121-0.247-0.243-0.368-0.368l-0.063-0.069
	c-5.908-6.123-15.661-6.297-21.784-0.389c-0.132,0.127-0.262,0.257-0.389,0.389v0.069c-5.922,6.125-15.688,6.289-21.813,0.366
	c-0.124-0.12-0.246-0.242-0.366-0.366l-0.063-0.069c-5.908-6.123-15.661-6.297-21.784-0.389c-0.132,0.127-0.262,0.257-0.389,0.389
	v0.069c-5.921,6.125-15.687,6.289-21.812,0.368c-0.125-0.121-0.247-0.243-0.368-0.368l-0.063-0.069
	c-5.908-6.123-15.661-6.297-21.784-0.389c-0.132,0.127-0.262,0.257-0.389,0.389v0.069c-5.922,6.125-15.688,6.289-21.813,0.366
	c-0.125-0.12-0.247-0.242-0.367-0.366l-0.063-0.069c-5.913-6.125-15.67-6.296-21.795-0.384c-0.13,0.126-0.258,0.254-0.383,0.384
	v0.069c-5.918,6.123-15.678,6.289-21.801,0.372c-0.126-0.122-0.25-0.246-0.372-0.372v-0.069c-5.913-6.125-15.67-6.296-21.795-0.384
	c-0.13,0.126-0.258,0.254-0.383,0.384l-0.063,0.069c-5.918,6.123-15.678,6.289-21.801,0.372c-0.126-0.122-0.25-0.246-0.372-0.372
	v-0.069c-5.913-6.125-15.67-6.296-21.795-0.384c-0.13,0.126-0.258,0.254-0.384,0.384l-0.063,0.069
	c-5.917,6.123-15.678,6.289-21.801,0.372c-0.126-0.122-0.25-0.246-0.372-0.372v-0.069c-2.898-2.976-6.873-4.661-11.027-4.676
	c-1.684,0.003-3.355,0.285-4.946,0.836V59.83C0.029,26.776,24.361,0,54.398,0h656.414C740.843,0,765.173,26.776,765.173,59.83z"/>
<rect id="Rectangle_1286" x="78.745" y="346.257" fill="#F2F2F2" width="607.651" height="136.679"/>
<rect id="Rectangle_1288" x="78.745" y="619.688" fill="#F2F2F2" width="607.651" height="136.678"/>
<rect id="Rectangle_1289" x="78.745" y="899.878" fill="#F2F2F2" width="607.651" height="136.678"/>
<rect id="Rectangle_1290" x="78.745" y="1180.069" fill="#F2F2F2" width="607.651" height="136.678"/>
<g id="Group_7314" transform="translate(137.498 375.624)">
	<path id="Path_19859" fill="#378D00" d="M20.29,55.117L0.001,32.79l8.814-9.7L20.29,35.718l27.536-30.3l8.815,9.7L20.29,55.117z"/>
</g>
<g id="Group_7320" transform="translate(137.498 515.719)">
	<path id="Path_19889" fill="#378D00" d="M20.29,55.117L0.001,32.791l8.814-9.7L20.29,35.72L47.826,5.42l8.815,9.7L20.29,55.117z"/>
</g>
<g id="Group_7329" transform="translate(137.498 795.91)">
	<path id="Path_19889-2" fill="#378D00" d="M20.29,55.117L0.001,32.791l8.814-9.7L20.29,35.72l27.536-30.3l8.815,9.7L20.29,55.117z"
		/>
</g>
<g id="Group_7331" transform="translate(137.498 1076.101)">
	<path id="Path_19889-3" fill="#378D00" d="M20.29,55.117L0.001,32.791l8.814-9.699L20.29,35.72L47.826,5.42l8.815,9.7L20.29,55.117
		z"/>
</g>
<g id="Group_7332" transform="translate(137.498 1356.292)">
	<path id="Path_19889-4" fill="#378D00" d="M20.29,55.117L0.001,32.791l8.814-9.7L20.29,35.72l27.536-30.3l8.815,9.7L20.29,55.117z"
		/>
</g>
<g id="Group_7323" transform="translate(137.498 655.815)">
	<path id="Path_19907" fill="#378D00" d="M20.29,55.117L0.001,32.791l8.814-9.7L20.29,35.719l27.536-30.3l8.815,9.699L20.29,55.117z
		"/>
</g>
<g id="Group_7328" transform="translate(137.498 936.006)">
	<path id="Path_19907-2" fill="#378D00" d="M20.29,55.117L0.001,32.791l8.814-9.7L20.29,35.719l27.536-30.3l8.815,9.7L20.29,55.117z
		"/>
</g>
<g id="Group_7330" transform="translate(137.498 1216.197)">
	<path id="Path_19907-3" fill="#378D00" d="M20.29,55.117L0.001,32.791l8.814-9.7L20.29,35.719l27.536-30.3l8.815,9.7L20.29,55.117z
		"/>
</g>
<image overflow="visible" enable-background="new    " width="1351" height="709" id="Image_7" xlink:href="CF5F4832.png"  transform="matrix(0.4048 0 0 0.4048 108.3159 1568.8535)">
</image>
</svg>
