<?xml version="1.0" encoding="utf-8"?>
<!-- Generator: Adobe Illustrator 16.0.0, SVG Export Plug-In . SVG Version: 6.00 Build 0)  -->
<!DOCTYPE svg PUBLIC "-//W3C//DTD SVG 1.1//EN" "http://www.w3.org/Graphics/SVG/1.1/DTD/svg11.dtd">
<svg version="1.1" id="Layer_1" xmlns="http://www.w3.org/2000/svg" xmlns:xlink="http://www.w3.org/1999/xlink" x="0px" y="0px"
	 width="430.145px" height="461.982px" viewBox="0 0 430.145 461.982" enable-background="new 0 0 430.145 461.982"
	 xml:space="preserve">
<g id="Group_7289" transform="translate(-2785.211 27649.65)">
	<g id="Group_7287" transform="translate(3012.211 388.385)">
		<path id="Path_19833" fill="#473080" d="M47.328-27576.055h119.868c19.854,0,35.948-14.422,35.948-32.215v-305.516
			c0-17.793-16.095-32.217-35.948-32.217h-358.248c-19.853,0-35.948,14.424-35.948,32.217v305.516
			c0,17.793,16.1,32.215,35.948,32.215h124.227"/>
	</g>
</g>
<g id="Group_7016" transform="translate(303 27946)">
	<g id="Social_Marketing" transform="translate(0 0.001)">
		<path id="Path_18510" fill="#382B73" d="M40.302-27932.002h-156.55c-6.431,0-11.644,5.213-11.644,11.645v10.035h-31.394
			c-3.355,0.002-6.074,2.721-6.074,6.076l0,0v50.826c0,3.355,2.719,6.076,6.074,6.076l0,0h4.748l5.262,7.152
			c1.689,2.297,4.92,2.789,7.217,1.098c0.42-0.309,0.791-0.68,1.099-1.098l5.262-7.152h7.806v8l0,0v27.951
			c-0.76,0.182-1.539,0.348-2.338,0.494c-1.564,0.285-3.216,0.5-4.986,0.643s-3.664,0.217-5.712,0.217l-28.09,0.012l0,0
			l-34.326,0.016c-5.597,0.002-10.133,4.541-10.132,10.137c0,0.002,0,0.004,0,0.004l0,0l0,0v0.141v5.816l0,0h-9.472
			c-2.239,0-4.054,1.814-4.054,4.055c0,0,0,0,0,0.002l0,0v0.006l0.008,18.09c0.001,2.238,1.817,4.055,4.056,4.055h9.472v5.582v0.373
			c0,0.064,0.018,0.123,0.02,0.188c0.076,4.74,3.436,8.791,8.08,9.74c0.672,0.137,1.356,0.207,2.042,0.207h7.408l2.418,16.008
			l0.99,0.83l6.11,5.121l1.358,9.648l0.512,3.635c0.379,2.348,1.536,4.504,3.286,6.117c0.03,0.025,0.054,0.061,0.084,0.088
			c4.213,3.646,10.584,3.186,14.229-1.029c1.902-2.195,2.763-5.107,2.364-7.986l-0.094-0.664l-4.472-31.783h0.134l28.09-0.012
			c4.375-0.072,8.742,0.375,13.01,1.334v8.031l0,0v26.701c-10.179,3.156-18.792,10.037-24.118,19.268
			c-0.654,1.131-1.228,2.287-1.768,3.453c-0.142,0.309-0.278,0.617-0.412,0.926c-0.448,1.031-0.858,2.07-1.218,3.121
			c-0.052,0.154-0.116,0.307-0.168,0.459c-0.392,1.184-0.716,2.379-1,3.578c-0.072,0.311-0.136,0.621-0.2,0.934
			c-0.212,1-0.39,2.012-0.528,3.023c-0.032,0.238-0.076,0.48-0.106,0.719c-0.144,1.201-0.23,2.41-0.27,3.617
			c-0.01,0.285-0.006,0.57-0.01,0.857c-0.006,0.5-0.028,1-0.016,1.5v7.139c0.359,23.461,19.671,42.191,43.134,41.832
			c12.782-0.195,24.796-6.137,32.712-16.176H40.3c6.427,0,11.636-5.209,11.635-11.637c0,0,0-0.002,0-0.004v-267.398
			c0.002-6.424-5.205-11.633-11.63-11.635C40.304-27932.002,40.303-27932.002,40.302-27932.002z M-213.465-27771.793l-0.008-20.201
			l0,0l0.006,12.133l0,0v8.064L-213.465-27771.793z"/>
		<g id="Group_6694" transform="translate(0)">
			<g id="Group_6693">
				<g id="Group_6650" transform="translate(99.108)">
					<g id="Group_6649">
						<path id="Path_18511" fill="#FFFFFF" d="M-227-27666.98v-267.377c0-6.432,5.213-11.645,11.644-11.645h156.55
							c6.427,0,11.636,5.209,11.636,11.635v267.395c0,6.428-5.209,11.637-11.636,11.637h-156.55
							C-221.787-27655.336-227-27660.549-227-27666.98z"/>
						<path id="Path_18512" fill="#1CAEE4" d="M-219.498-27668.195v-264.947c0-2.705,2.194-4.9,4.9-4.9l0,0h155.03
							c2.706,0,4.9,2.195,4.9,4.9v264.949c0,2.705-2.194,4.9-4.9,4.9h-155.03c-2.706,0-4.9-2.195-4.9-4.9
							C-219.498-27668.195-219.498-27668.195-219.498-27668.195z"/>
						<path id="Path_18513" fill="#009ADD" d="M-219.498-27688.338v20.145c0,2.705,2.194,4.9,4.9,4.9h155.03
							c2.706,0,4.9-2.195,4.9-4.9v-20.145H-219.498z"/>
					</g>
				</g>
				<g id="Group_6651" transform="translate(184.162 27.132)">
					<path id="Path_18514" fill="#009ADD" d="M-188.334-27770.93c-21.352-0.004-38.664,17.303-38.667,38.654
						c-0.001,10.154,3.993,19.902,11.118,27.137c0.488,0.488,0.977,0.977,1.48,1.414c1.99,1.822,4.163,3.436,6.484,4.813
						c0.016,0,0.016,0.016,0.031,0c1.266,0.758,2.58,1.432,3.935,2.016c0.212,0.113,0.422,0.193,0.634,0.291h0.016
						c1.874,0.791,3.81,1.426,5.787,1.9c0.424,0.115,0.846,0.213,1.252,0.293c1.646,0.34,3.313,0.574,4.99,0.699
						c0.975,0.08,1.949,0.115,2.941,0.115s1.966-0.033,2.941-0.115c1.678-0.125,3.344-0.359,4.99-0.699h0.017
						c0.405-0.1,0.828-0.182,1.235-0.293c1.978-0.475,3.913-1.109,5.786-1.9h0.017c0.212-0.1,0.422-0.178,0.634-0.291
						c1.358-0.588,2.678-1.26,3.95-2.016l0.016-0.018c2.324-1.365,4.499-2.973,6.486-4.793c0.5-0.457,1.008-0.926,1.479-1.43
						c14.981-15.207,14.799-39.68-0.408-54.66C-168.425-27766.941-178.177-27770.936-188.334-27770.93z"/>
					<path id="Path_18515" fill="#009ADD" d="M-188.334-27858.469c-21.352-0.004-38.664,17.305-38.667,38.656
						c-0.001,10.154,3.993,19.902,11.118,27.137c0.488,0.488,0.977,0.975,1.48,1.414c1.99,1.822,4.163,3.434,6.484,4.811
						c0.016,0,0.016,0.018,0.031,0c1.266,0.76,2.58,1.432,3.935,2.018c0.212,0.113,0.422,0.193,0.634,0.291h0.016
						c1.874,0.791,3.81,1.426,5.787,1.9c0.424,0.113,0.846,0.211,1.252,0.291c1.646,0.342,3.313,0.576,4.99,0.701
						c0.975,0.082,1.949,0.113,2.941,0.113s1.966-0.031,2.941-0.113c1.678-0.125,3.344-0.359,4.99-0.701h0.017
						c0.405-0.1,0.828-0.178,1.235-0.291c1.978-0.475,3.913-1.109,5.786-1.9h0.017c0.212-0.1,0.422-0.178,0.634-0.291
						c1.358-0.588,2.678-1.262,3.95-2.018l0.016-0.016c2.325-1.367,4.499-2.975,6.486-4.799c0.5-0.455,1.008-0.928,1.479-1.432
						c14.981-15.205,14.8-39.676-0.405-54.658c-7.237-7.129-16.989-11.123-27.148-11.117V-27858.469z"/>
					<path id="Path_18516" fill="#009ADD" d="M-214.402-27878.799c1.99,1.822,4.163,3.436,6.484,4.813c0.016,0,0.016,0.016,0.031,0
						c1.266,0.758,2.58,1.432,3.935,2.016c0.212,0.113,0.422,0.201,0.634,0.291h0.016c1.874,0.791,3.81,1.426,5.787,1.9
						c0.424,0.115,0.846,0.213,1.252,0.293c1.646,0.342,3.313,0.574,4.99,0.699c0.975,0.082,1.949,0.115,2.941,0.115
						s1.966-0.033,2.941-0.115c1.678-0.125,3.344-0.359,4.99-0.699h0.017c0.405-0.1,0.828-0.178,1.235-0.293
						c1.978-0.475,3.913-1.109,5.786-1.9h0.02c0.212-0.1,0.422-0.178,0.634-0.291c1.358-0.588,2.678-1.26,3.95-2.016l0.016-0.018
						c2.324-1.363,4.499-2.971,6.486-4.793c0.5-0.457,1.008-0.926,1.479-1.43c14.974-15.219,14.773-39.695-0.446-54.668
						c-15.22-14.975-39.696-14.773-54.669,0.445c-14.807,15.051-14.8,39.197,0.016,54.238
						C-215.394-27879.725-214.906-27879.236-214.402-27878.799z"/>
				</g>
				<g id="Group_6676" transform="translate(184.16 19.13)">
					<g id="Group_6659" transform="translate(0 175.074)">
						<path id="Path_18517" fill="#136DA0" d="M-149.664-27907.336c0.021,10.148-3.977,19.896-11.118,27.109
							c-0.472,0.5-0.976,0.977-1.479,1.43c-1.986,1.822-4.16,3.43-6.484,4.793l-0.016,0.018c-1.272,0.756-2.592,1.428-3.95,2.016
							c-0.212,0.113-0.422,0.193-0.634,0.291h-0.017c-1.873,0.791-3.809,1.426-5.786,1.9c-0.405,0.115-0.828,0.201-1.235,0.293
							h-0.017c-1.646,0.342-3.313,0.574-4.99,0.699c-0.976,0.082-1.949,0.115-2.941,0.115s-1.967-0.033-2.941-0.115
							c-1.678-0.125-3.344-0.359-4.99-0.699c-0.406-0.082-0.83-0.178-1.252-0.293c-1.979-0.475-3.913-1.109-5.787-1.9h-0.016
							c-0.212-0.1-0.422-0.178-0.634-0.291c-1.354-0.584-2.669-1.258-3.935-2.016c-0.016,0.016-0.016,0-0.031,0
							c-2.322-1.377-4.495-2.988-6.486-4.811c-0.5-0.438-0.992-0.926-1.479-1.414c-14.98-15.217-14.789-39.697,0.428-54.68
							c15.217-14.98,39.697-14.789,54.679,0.428C-153.655-27927.23-149.664-27917.486-149.664-27907.336L-149.664-27907.336z"/>
						<g id="Group_6658" transform="translate(11.12 15.514)">
							<g id="Group_6657">
								<g id="Group_6656">
									<path id="Path_18518" fill="#D1D3D4" d="M-185.164-27901.852l-0.91-0.424h-0.016l-0.016-0.014h-26.688l-14.207,6.566
										c0.488,0.488,0.977,0.977,1.479,1.414c1.99,1.824,4.164,3.436,6.486,4.811c0.016,0,0.016,0.016,0.031,0
										c1.266,0.758,2.58,1.432,3.935,2.016c0.212,0.113,0.422,0.193,0.634,0.291h0.016c1.874,0.791,3.809,1.426,5.787,1.9
										c0.422,0.115,0.846,0.213,1.252,0.293c1.646,0.342,3.313,0.574,4.99,0.699c0.975,0.082,1.949,0.115,2.941,0.115
										s1.966-0.033,2.941-0.115c1.678-0.125,3.344-0.359,4.99-0.699h0.017c0.405-0.1,0.83-0.178,1.235-0.293
										c1.978-0.475,3.913-1.109,5.786-1.9h0.017c0.212-0.1,0.422-0.178,0.634-0.291c1.358-0.588,2.678-1.26,3.95-2.016
										l0.016-0.018c2.324-1.363,4.498-2.971,6.484-4.793c0.5-0.457,1.008-0.926,1.479-1.43L-185.164-27901.852z"/>
									<rect id="Rectangle_1242" x="-210.208" y="-27914.346" fill="#E7AD27" width="21.514" height="19.574"/>
									<path id="Path_18519" fill="#009ADD" d="M-199.45-27884.184c-0.992,0-1.967-0.033-2.941-0.115l0.323-3.119l0.212-1.918
										l0.292-2.701h4.226l0.293,2.701l0.211,1.918l0.326,3.119C-197.484-27884.217-198.46-27884.184-199.45-27884.184z"/>
									<path id="Path_18520" fill="#136DA0" d="M-197.335-27892.041h-4.232l-0.492,4.623l0.114,0.113
										c1.376,1.377,3.609,1.379,4.986,0.002c0.001-0.002,0.001-0.002,0.002-0.002l0.114-0.113L-197.335-27892.041z"/>
									<path id="Path_18521" fill="#1CAEE4" d="M-194.337-27892.041l-2.621,2.623c-1.377,1.377-3.609,1.377-4.986,0
										c-0.001,0-0.002,0-0.002,0l-2.622-2.623c-0.276-0.271-0.28-0.713-0.01-0.99c0.003-0.004,0.007-0.006,0.01-0.01l5.116-5.115
										l5.115,5.115c0.277,0.271,0.281,0.713,0.011,0.99C-194.329-27892.047-194.333-27892.043-194.337-27892.041z"/>
									<path id="Path_18522" fill="#EF5A9D" d="M-185.164-27901.852l-0.91-0.424h-0.016l-0.017-0.014l-0.438,1.4l-0.229,0.717
										l-0.357,1.168l-4.372,14.012c0.405-0.102,0.83-0.18,1.235-0.293c1.978-0.473,3.913-1.109,5.786-1.898h0.017
										c0.212-0.102,0.422-0.18,0.634-0.293c1.358-0.588,2.678-1.262,3.95-2.016l0.016-0.016c2.324-1.367,4.499-2.973,6.486-4.795
										c0.5-0.455,1.008-0.926,1.479-1.43L-185.164-27901.852z"/>
									<path id="Path_18523" fill="#EF5A9D" d="M-207.382-27884.996c-0.406-0.082-0.83-0.18-1.252-0.293
										c-1.979-0.473-3.913-1.109-5.787-1.898h-0.016c-0.212-0.102-0.422-0.18-0.634-0.293c-1.354-0.586-2.669-1.258-3.935-2.016
										c-0.016,0.016-0.016,0-0.031,0c-2.321-1.377-4.495-2.988-6.486-4.811c-0.5-0.438-0.992-0.926-1.479-1.414l14.207-6.566
										l0.438,1.4l0.229,0.713l0.39,1.268L-207.382-27884.996z"/>
									<path id="Path_18524" fill="#F06EA9" d="M-212.128-27900.18h-0.666l-0.422,0.195l-0.895,0.424l-0.031,0.016l-11.379,5.234
										c-0.5-0.438-0.992-0.926-1.478-1.414l14.206-6.564l0.438,1.4L-212.128-27900.18z"/>
									<path id="Path_18525" fill="#F06EA9" d="M-185.164-27901.852l13.262,6.111c-0.472,0.5-0.976,0.975-1.479,1.43
										l-11.379-5.234l-0.016-0.016l-0.91-0.424l-0.422-0.195h-0.666l0.229-0.713l0.438-1.4l0.017,0.016h0.016L-185.164-27901.852
										z"/>
									<g id="Group_6652" transform="translate(14.206 41.972)">
										<path id="Path_18526" fill="#E6E7E8" d="M-213.658-27940.131l-8.592,10.963l-4.75-15.1l1.785-1.434
											c0.452-0.363,1.08-0.412,1.582-0.123L-213.658-27940.131z"/>
									</g>
									<g id="Group_6653" transform="translate(27.554 41.973)">
										<path id="Path_18527" fill="#E6E7E8" d="M-227-27940.131l8.592,10.965l4.744-15.1l-1.782-1.434
											c-0.451-0.363-1.078-0.412-1.582-0.125L-227-27940.131z"/>
									</g>
									<path id="Path_18528" fill="#FFFFFF" d="M-189.474-27902.102c0.503-0.289,1.132-0.238,1.582,0.125l1.345,1.08l0.438-1.391
										l-1.782-1.432c-0.451-0.363-1.078-0.414-1.582-0.125l-9.972,5.686l0.943,1.199L-189.474-27902.102z"/>
									<path id="Path_18529" fill="#FFFFFF" d="M-209.426-27902.102c-0.502-0.289-1.131-0.238-1.582,0.125l-1.344,1.08
										l-0.438-1.391l1.781-1.432c0.452-0.363,1.08-0.414,1.582-0.125l9.973,5.689l-0.944,1.199L-209.426-27902.102z"/>
									
										<ellipse id="Ellipse_2247" transform="matrix(-0.1779 -0.9841 0.9841 -0.1779 27223.4473 -33103.5547)" fill="#F7CB15" cx="-216.71" cy="-27923.9" rx="6.004" ry="4.674"/>
									
										<ellipse id="Ellipse_2248" transform="matrix(-0.9841 -0.1779 0.1779 -0.9841 4605.3203 -55434.9844)" fill="#F7CB15" cx="-181.94" cy="-27923.904" rx="4.674" ry="6.004"/>
									<path id="Path_18530" fill="#FFF335" d="M-217.805-27928.803c2.539-0.459,5.075,1.814,5.666,5.076
										c0.05,0.289,0.084,0.582,0.1,0.875c0.045-0.629,0.012-1.264-0.1-1.885c-0.591-3.262-3.127-5.537-5.666-5.076
										c-2.311,0.418-3.82,2.951-3.633,5.861C-221.262-27926.416-219.844-27928.434-217.805-27928.803z"/>
									<path id="Path_18531" fill="#FFF335" d="M-186.568-27923.725c0.59-3.262,3.126-5.537,5.666-5.076
										c2.038,0.367,3.456,2.387,3.632,4.854c0.188-2.908-1.321-5.443-3.632-5.861c-2.54-0.461-5.078,1.814-5.666,5.076
										c-0.112,0.621-0.146,1.256-0.1,1.885C-186.652-27923.141-186.619-27923.434-186.568-27923.725z"/>
									<path id="Path_18532" fill="#E7AD27" d="M-215.671-27919.898c-2.539,0.461-5.077-1.814-5.666-5.076
										c-0.025-0.141-0.041-0.279-0.057-0.416c-0.102,0.771-0.082,1.555,0.057,2.32c0.591,3.262,3.127,5.535,5.666,5.076
										c2.431-0.439,3.979-3.225,3.591-6.322C-212.383-27922.051-213.753-27920.246-215.671-27919.898z"/>
									<path id="Path_18533" fill="#E7AD27" d="M-177.37-27924.975c-0.59,3.262-3.126,5.537-5.666,5.076
										c-1.916-0.346-3.286-2.152-3.59-4.418c-0.389,3.1,1.158,5.883,3.59,6.322c2.54,0.459,5.076-1.814,5.666-5.076
										c0.141-0.766,0.16-1.549,0.058-2.32C-177.328-27925.254-177.348-27925.115-177.37-27924.975z"/>
									<path id="Path_18534" fill="#FEDE3A" d="M-199.45-27946c-9.654,0-17.482,7.238-17.482,18.799
										c0,11.563,7.826,23.07,17.482,23.07s17.481-11.508,17.481-23.07C-181.968-27938.762-189.796-27946-199.45-27946z"/>
									<path id="Path_18535" fill="#F7CB15" d="M-199.45-27907.482c-9.184,0-16.708-10.412-17.42-21.379
										c-0.036,0.545-0.061,1.096-0.061,1.658c0,11.563,7.826,23.07,17.482,23.07s17.482-11.508,17.482-23.07
										c0-0.563-0.024-1.115-0.061-1.658C-182.744-27917.895-190.27-27907.482-199.45-27907.482z"/>
									<path id="Path_18536" fill="#1CAEE4" d="M-199.45-27946c-5.312-0.09-10.355,2.324-13.616,6.52
										c4.511,7.52,14.264,9.957,21.783,5.447c2.235-1.342,4.105-3.213,5.447-5.447
										C-189.095-27943.674-194.139-27946.09-199.45-27946z"/>
									<path id="Path_18537" fill="#1CAEE4" d="M-199.45-27946c-5.312-0.09-10.355,2.324-13.616,6.52
										c4.511,7.52,14.264,9.957,21.783,5.447c2.235-1.342,4.105-3.213,5.447-5.447
										C-189.095-27943.674-194.139-27946.09-199.45-27946z"/>
									<path id="Path_18538" fill="#009ADD" d="M-199.452-27933.188c-5.242,0.002-10.146-2.588-13.1-6.918
										c-0.174,0.201-0.347,0.41-0.511,0.625c4.511,7.52,14.264,9.957,21.783,5.447c2.235-1.342,4.106-3.213,5.447-5.447
										c-0.164-0.215-0.336-0.42-0.51-0.625C-189.299-27935.773-194.207-27933.184-199.452-27933.188z"/>
									<path id="Path_18539" fill="#1CAEE4" d="M-215.548-27920.373c0.342,0,0.617-0.279,0.617-0.619
										c0-0.037-0.004-0.072-0.01-0.105c-0.213-1.289-0.32-2.594-0.322-3.9c0-10.459,7.08-17,15.813-17
										c8.731,0,15.812,6.545,15.812,17c-0.002,1.307-0.109,2.611-0.321,3.9c-0.06,0.336,0.166,0.656,0.502,0.715
										c0.035,0.008,0.07,0.01,0.105,0.01l0,0c0.288,0.002,0.539-0.193,0.608-0.475c0.509-2.08,0.769-4.213,0.773-6.355
										c0-11.563-7.825-18.799-17.481-18.799s-17.482,7.236-17.482,18.799c0.006,2.143,0.266,4.275,0.774,6.355
										C-216.089-27920.566-215.837-27920.373-215.548-27920.373z"/>
									<g id="Group_6654" transform="translate(10.774 7.89)">
										<path id="Path_18540" fill="#009ADD" d="M-198.809-27946.004c-0.14,0.17-0.282,0.34-0.43,0.5
											c3.247,3.379,4.989,7.93,4.829,12.613c-0.002,1.307-0.109,2.611-0.321,3.9c-0.063,0.334,0.158,0.654,0.491,0.715
											c0.164,0.031,0.333-0.006,0.469-0.104c0.213-1.326,0.321-2.668,0.324-4.014
											C-193.448-27938.201-195.509-27942.871-198.809-27946.004z"/>
										<path id="Path_18541" fill="#009ADD" d="M-221.216-27945.5c-0.148-0.164-0.29-0.334-0.43-0.5
											c-3.292,3.133-5.354,7.801-5.354,13.613c0.002,1.344,0.11,2.686,0.323,4.014c0.276,0.197,0.659,0.133,0.856-0.145
											c0.097-0.135,0.134-0.305,0.104-0.467c-0.213-1.289-0.32-2.594-0.322-3.9
											C-226.198-27937.568-224.46-27942.117-221.216-27945.5z"/>
									</g>
									<g id="Group_6655" transform="translate(10.068)">
										<path id="Path_18542" fill="#27C1E6" d="M-225.332-27923.236c0.002,0.891,0.055,1.781,0.156,2.666
											c0.136-0.141,0.197-0.336,0.168-0.531c-0.163-0.996-0.264-2.004-0.3-3.016
											C-225.325-27923.826-225.332-27923.533-225.332-27923.236z"/>
										<path id="Path_18543" fill="#27C1E6" d="M-209.518-27944.238c9.358,0,17,6.801,17.46,17.746
											c0.006-0.236,0.022-0.475,0.022-0.711c0-11.563-7.826-18.799-17.482-18.799s-17.482,7.236-17.482,18.799
											c0,0.236,0.017,0.475,0.022,0.711C-226.518-27937.438-218.875-27944.238-209.518-27944.238z"/>
										<path id="Path_18544" fill="#27C1E6" d="M-193.724-27924.117c-0.037,1.012-0.137,2.02-0.3,3.016
											c-0.031,0.193,0.03,0.391,0.166,0.531c0.102-0.885,0.154-1.775,0.156-2.666
											C-193.706-27923.533-193.714-27923.826-193.724-27924.117z"/>
									</g>
								</g>
								<path id="Path_18545" fill="#E43D91" d="M-208.633-27885.291c-1.979-0.473-3.913-1.109-5.787-1.9h-0.016
									c-0.212-0.1-0.422-0.178-0.634-0.291c-1.354-0.584-2.669-1.258-3.935-2.016c-0.016,0.016-0.016,0-0.031,0l4.893-10.045
									l0.649-1.316v0.033l0.276,0.846L-208.633-27885.291z"/>
								<path id="Path_18546" fill="#F06EA9" d="M-207.382-27884.996c-0.406-0.082-0.83-0.18-1.252-0.293
									c-1.979-0.473-3.913-1.109-5.787-1.898h-0.016c-0.212-0.102-0.422-0.18-0.634-0.293c-1.354-0.586-2.669-1.258-3.935-2.016
									l4.893-10.061l0.618-1.268l0.7-1.463l0.438,1.4l0.229,0.715l0.39,1.268L-207.382-27884.996z"/>
								<path id="Path_18547" fill="#E43D91" d="M-184.639-27899.316l-0.113-0.229l-0.017-0.016l-0.634-1.301l-0.276,0.879
									l-4.584,14.693c1.978-0.473,3.913-1.109,5.786-1.898h0.017c0.212-0.102,0.422-0.18,0.634-0.293
									c1.358-0.588,2.678-1.262,3.95-2.016l0.016-0.016L-184.639-27899.316z"/>
								<path id="Path_18548" fill="#F06EA9" d="M-179.882-27889.498c-1.272,0.756-2.592,1.428-3.95,2.016
									c-0.212,0.113-0.422,0.193-0.634,0.291h-0.017c-1.873,0.791-3.809,1.426-5.786,1.9c-0.405,0.115-0.828,0.201-1.235,0.293
									l4.372-14.01l0.374-1.172l0.666-2.1h0.016l0.666,1.414l0.634,1.301l0.016,0.016l0.114,0.229L-179.882-27889.498z"/>
							</g>
						</g>
					</g>
					<g id="Group_6667" transform="translate(0 87.536)">
						<path id="Path_18549" fill="#136DA0" d="M-149.664-27907.334c0.021,10.15-3.977,19.896-11.118,27.109
							c-0.472,0.5-0.976,0.977-1.479,1.432c-1.986,1.822-4.16,3.43-6.484,4.793l-0.016,0.016c-1.272,0.756-2.592,1.43-3.95,2.016
							c-0.212,0.115-0.422,0.195-0.634,0.293h-0.017c-1.873,0.791-3.809,1.426-5.786,1.9c-0.405,0.113-0.828,0.199-1.235,0.291
							h-0.017c-1.646,0.342-3.313,0.576-4.99,0.701c-0.976,0.08-1.949,0.113-2.941,0.113s-1.967-0.033-2.941-0.113
							c-1.678-0.127-3.344-0.361-4.99-0.701c-0.406-0.082-0.83-0.18-1.252-0.291c-1.979-0.475-3.913-1.109-5.787-1.9h-0.016
							c-0.212-0.1-0.422-0.178-0.634-0.293c-1.354-0.584-2.669-1.258-3.935-2.016c-0.016,0.016-0.016,0-0.031,0
							c-2.322-1.375-4.496-2.988-6.486-4.813c-0.5-0.438-0.992-0.926-1.479-1.414c-14.98-15.215-14.789-39.697,0.428-54.678
							c15.217-14.982,39.697-14.791,54.679,0.428C-153.655-27927.229-149.664-27917.484-149.664-27907.334L-149.664-27907.334z"/>
						<g id="Group_6666" transform="translate(11.12 15.516)">
							<g id="Group_6665">
								<g id="Group_6664">
									<path id="Path_18550" fill="#D1D3D4" d="M-185.164-27901.852l-0.91-0.422h-0.016l-0.017-0.016h-26.688l-14.207,6.57
										c0.488,0.488,0.977,0.975,1.479,1.414c1.99,1.822,4.164,3.436,6.486,4.811c0.016,0,0.016,0.018,0.031,0
										c1.266,0.76,2.58,1.432,3.935,2.018c0.212,0.113,0.422,0.193,0.634,0.291h0.016c1.874,0.791,3.809,1.426,5.787,1.9
										c0.422,0.113,0.846,0.211,1.252,0.291c1.646,0.342,3.313,0.576,4.99,0.701c0.975,0.082,1.949,0.113,2.941,0.113
										s1.966-0.031,2.941-0.113c1.678-0.127,3.344-0.359,4.99-0.701h0.017c0.405-0.1,0.83-0.18,1.235-0.291
										c1.978-0.475,3.913-1.109,5.786-1.9h0.017c0.212-0.1,0.422-0.178,0.634-0.291c1.358-0.588,2.678-1.262,3.95-2.018
										l0.016-0.016c2.324-1.365,4.498-2.971,6.484-4.795c0.5-0.455,1.008-0.926,1.479-1.43L-185.164-27901.852z"/>
									<rect id="Rectangle_1243" x="-210.208" y="-27914.348" fill="#E7AD27" width="21.514" height="19.574"/>
									<path id="Path_18551" fill="#009ADD" d="M-199.45-27884.184c-0.992,0-1.967-0.031-2.941-0.113l0.323-3.123l0.212-1.918
										l0.292-2.699h4.226l0.293,2.699l0.211,1.918l0.326,3.123C-197.484-27884.219-198.46-27884.184-199.45-27884.184z"/>
									<path id="Path_18552" fill="#136DA0" d="M-197.335-27892.039h-4.232l-0.492,4.621l0.114,0.113
										c1.376,1.379,3.609,1.379,4.986,0.002c0.001,0,0.001,0,0.002-0.002l0.114-0.113L-197.335-27892.039z"/>
									<path id="Path_18553" fill="#1CAEE4" d="M-194.337-27892.041l-2.621,2.621c-1.377,1.377-3.609,1.379-4.986,0.002
										c-0.001,0-0.002,0-0.002-0.002l-2.622-2.621c-0.276-0.271-0.28-0.715-0.01-0.99c0.003-0.004,0.007-0.008,0.01-0.01
										l5.116-5.117l5.115,5.117c0.277,0.27,0.281,0.713,0.011,0.99C-194.329-27892.049-194.333-27892.045-194.337-27892.041z"/>
									<path id="Path_18554" fill="#EF5A9D" d="M-185.164-27901.852l-0.91-0.422h-0.016l-0.017-0.016l-0.438,1.398l-0.229,0.717
										l-0.357,1.17l-4.372,14.01c0.405-0.1,0.83-0.18,1.235-0.291c1.978-0.475,3.913-1.109,5.786-1.9h0.017
										c0.212-0.1,0.422-0.178,0.634-0.291c1.358-0.588,2.678-1.262,3.95-2.018l0.016-0.016c2.325-1.367,4.499-2.975,6.486-4.799
										c0.5-0.455,1.008-0.928,1.479-1.432L-185.164-27901.852z"/>
									<path id="Path_18555" fill="#EF5A9D" d="M-207.382-27884.998c-0.406-0.082-0.83-0.18-1.252-0.291
										c-1.979-0.475-3.913-1.109-5.787-1.9h-0.016c-0.212-0.1-0.422-0.178-0.634-0.291c-1.354-0.586-2.669-1.26-3.935-2.018
										c-0.016,0.018-0.016,0-0.031,0c-2.322-1.377-4.496-2.988-6.486-4.811c-0.5-0.439-0.992-0.926-1.479-1.414l14.207-6.566
										l0.438,1.398l0.229,0.715l0.39,1.268L-207.382-27884.998z"/>
									<path id="Path_18556" fill="#F06EA9" d="M-212.128-27900.178h-0.666l-0.422,0.201l-0.895,0.422l-0.031,0.018l-11.379,5.232
										c-0.5-0.438-0.992-0.926-1.478-1.414l14.206-6.564l0.438,1.4L-212.128-27900.178z"/>
									<path id="Path_18557" fill="#F06EA9" d="M-185.164-27901.852l13.262,6.111c-0.472,0.5-0.976,0.977-1.479,1.432
										l-11.379-5.234l-0.016-0.016l-0.91-0.426l-0.422-0.199h-0.666l0.229-0.715l0.438-1.398l0.017,0.016h0.016
										L-185.164-27901.852z"/>
									<g id="Group_6660" transform="translate(14.206 41.972)">
										<path id="Path_18558" fill="#E6E7E8" d="M-213.658-27940.127l-8.592,10.965l-4.75-15.1l1.785-1.434
											c0.452-0.363,1.079-0.414,1.582-0.127L-213.658-27940.127z"/>
									</g>
									<g id="Group_6661" transform="translate(27.554 41.974)">
										<path id="Path_18559" fill="#E6E7E8" d="M-227-27940.129l8.592,10.965l4.746-15.1l-1.782-1.432
											c-0.451-0.363-1.078-0.412-1.582-0.127L-227-27940.129z"/>
									</g>
									<path id="Path_18560" fill="#FFFFFF" d="M-189.474-27902.102c0.503-0.289,1.132-0.238,1.582,0.125l1.345,1.082l0.438-1.391
										l-1.782-1.434c-0.451-0.361-1.078-0.41-1.582-0.125l-9.972,5.689l0.943,1.201L-189.474-27902.102z"/>
									<path id="Path_18561" fill="#FFFFFF" d="M-209.426-27902.102c-0.502-0.289-1.131-0.238-1.582,0.125l-1.344,1.082
										l-0.438-1.391l1.781-1.434c0.452-0.361,1.079-0.41,1.582-0.125l9.973,5.689l-0.944,1.201L-209.426-27902.102z"/>
									
										<ellipse id="Ellipse_2249" transform="matrix(-0.1778 -0.9841 0.9841 -0.1778 27223.8125 -33101.5625)" fill="#F7CB15" cx="-216.718" cy="-27923.896" rx="6.004" ry="4.674"/>
									
										<ellipse id="Ellipse_2250" transform="matrix(-0.984 -0.1779 0.1779 -0.984 4607.2256 -55434.6719)" fill="#F7CB15" cx="-181.949" cy="-27923.914" rx="4.674" ry="6.004"/>
									<path id="Path_18562" fill="#FFF335" d="M-217.805-27928.801c2.539-0.461,5.075,1.813,5.666,5.074
										c0.051,0.291,0.084,0.584,0.1,0.879c0.045-0.631,0.012-1.264-0.1-1.887c-0.591-3.262-3.127-5.535-5.666-5.074
										c-2.311,0.418-3.82,2.951-3.633,5.861C-221.262-27926.416-219.844-27928.434-217.805-27928.801z"/>
									<path id="Path_18563" fill="#FFF335" d="M-186.568-27923.727c0.59-3.262,3.126-5.535,5.666-5.074
										c2.038,0.367,3.456,2.385,3.632,4.854c0.188-2.91-1.321-5.443-3.632-5.861c-2.54-0.461-5.078,1.813-5.666,5.074
										c-0.112,0.623-0.146,1.256-0.1,1.887C-186.652-27923.143-186.619-27923.436-186.568-27923.727z"/>
									<path id="Path_18564" fill="#E7AD27" d="M-215.671-27919.898c-2.539,0.457-5.077-1.814-5.666-5.078
										c-0.025-0.139-0.041-0.277-0.057-0.414c-0.102,0.771-0.081,1.555,0.059,2.32c0.591,3.262,3.127,5.535,5.666,5.076
										c2.431-0.439,3.979-3.223,3.591-6.322C-212.383-27922.051-213.753-27920.246-215.671-27919.898z"/>
									<path id="Path_18565" fill="#E7AD27" d="M-177.37-27924.973c-0.59,3.264-3.126,5.537-5.666,5.078
										c-1.916-0.348-3.286-2.152-3.59-4.418c-0.389,3.098,1.158,5.881,3.59,6.32c2.54,0.461,5.076-1.813,5.666-5.074
										c0.141-0.768,0.16-1.551,0.058-2.324C-177.328-27925.254-177.348-27925.115-177.37-27924.973z"/>
									<path id="Path_18566" fill="#FEDE3A" d="M-199.45-27946.002c-9.654,0-17.482,7.238-17.482,18.801
										c0,11.561,7.826,23.068,17.482,23.068s17.481-11.508,17.481-23.068C-181.968-27938.764-189.796-27946.002-199.45-27946.002
										z"/>
									<path id="Path_18567" fill="#F7CB15" d="M-199.45-27907.48c-9.184,0-16.708-10.414-17.42-21.379
										c-0.036,0.543-0.061,1.094-0.061,1.658c0,11.561,7.826,23.07,17.482,23.07s17.478-11.51,17.478-23.074
										c0-0.564-0.023-1.115-0.06-1.658C-182.744-27917.895-190.27-27907.48-199.45-27907.48z"/>
									<path id="Path_18568" fill="#1CAEE4" d="M-199.45-27946.002c-5.313-0.09-10.355,2.326-13.616,6.521
										c4.511,7.518,14.264,9.957,21.783,5.445c2.235-1.34,4.105-3.211,5.447-5.445
										C-189.095-27943.676-194.139-27946.09-199.45-27946.002z"/>
									<path id="Path_18569" fill="#1CAEE4" d="M-199.45-27946.002c-5.313-0.09-10.355,2.326-13.616,6.521
										c4.511,7.518,14.264,9.957,21.783,5.445c2.235-1.34,4.105-3.211,5.447-5.445
										C-189.095-27943.676-194.139-27946.09-199.45-27946.002z"/>
									<path id="Path_18570" fill="#009ADD" d="M-199.452-27933.188c-5.242,0.002-10.146-2.588-13.1-6.918
										c-0.174,0.199-0.347,0.41-0.511,0.625c4.511,7.518,14.264,9.957,21.783,5.445c2.235-1.34,4.106-3.211,5.447-5.445
										c-0.164-0.215-0.336-0.422-0.51-0.625C-189.299-27935.773-194.207-27933.184-199.452-27933.188z"/>
									<path id="Path_18571" fill="#1CAEE4" d="M-215.548-27920.375c0.342,0,0.617-0.277,0.617-0.621
										c0-0.035-0.004-0.07-0.01-0.105c-0.213-1.289-0.32-2.592-0.322-3.898c0-10.459,7.08-17,15.813-17
										c8.731,0,15.812,6.545,15.812,17c-0.002,1.307-0.109,2.609-0.321,3.898c-0.06,0.338,0.166,0.658,0.502,0.719
										c0.035,0.004,0.07,0.008,0.105,0.008l0,0c0.288,0.002,0.539-0.195,0.608-0.473c0.509-2.08,0.769-4.215,0.773-6.355
										c0-11.563-7.825-18.799-17.481-18.799s-17.482,7.236-17.482,18.799c0.006,2.141,0.266,4.273,0.774,6.355
										C-216.089-27920.57-215.837-27920.375-215.548-27920.375z"/>
									<g id="Group_6662" transform="translate(10.774 7.888)">
										<path id="Path_18572" fill="#009ADD" d="M-198.809-27946.002c-0.14,0.17-0.282,0.34-0.43,0.5
											c3.247,3.379,4.989,7.93,4.829,12.613c-0.002,1.307-0.109,2.611-0.321,3.9c-0.063,0.334,0.158,0.654,0.491,0.715
											c0.164,0.031,0.333-0.006,0.469-0.102c0.213-1.328,0.321-2.672,0.324-4.016
											C-193.448-27938.199-195.509-27942.871-198.809-27946.002z"/>
										<path id="Path_18573" fill="#009ADD" d="M-221.216-27945.498c-0.148-0.164-0.29-0.332-0.43-0.5
											c-3.292,3.131-5.354,7.799-5.354,13.611c0.002,1.344,0.11,2.688,0.323,4.016c0.276,0.195,0.659,0.131,0.856-0.145
											c0.097-0.137,0.134-0.305,0.104-0.469c-0.213-1.289-0.32-2.594-0.322-3.9
											C-226.198-27937.566-224.46-27942.117-221.216-27945.498z"/>
									</g>
									<g id="Group_6663" transform="translate(10.068)">
										<path id="Path_18574" fill="#27C1E6" d="M-225.332-27923.232c0.002,0.891,0.055,1.781,0.156,2.666
											c0.136-0.141,0.197-0.336,0.168-0.531c-0.163-0.996-0.264-2.004-0.3-3.016
											C-225.325-27923.826-225.332-27923.533-225.332-27923.232z"/>
										<path id="Path_18575" fill="#27C1E6" d="M-209.518-27944.238c9.358,0,17,6.801,17.46,17.746
											c0.006-0.234,0.022-0.473,0.022-0.709c0-11.563-7.826-18.801-17.482-18.801s-17.482,7.238-17.482,18.801
											c0,0.236,0.017,0.475,0.022,0.709C-226.518-27937.438-218.875-27944.238-209.518-27944.238z"/>
										<path id="Path_18576" fill="#27C1E6" d="M-193.724-27924.115c-0.037,1.01-0.137,2.018-0.3,3.016
											c-0.031,0.193,0.03,0.389,0.166,0.529c0.102-0.885,0.154-1.773,0.156-2.664
											C-193.706-27923.533-193.714-27923.826-193.724-27924.115z"/>
									</g>
								</g>
								<path id="Path_18577" fill="#E43D91" d="M-208.633-27885.289c-1.979-0.475-3.913-1.109-5.787-1.9h-0.016
									c-0.212-0.1-0.422-0.178-0.634-0.291c-1.354-0.586-2.669-1.26-3.935-2.018c-0.016,0.018-0.016,0-0.031,0l4.893-10.043
									l0.649-1.316v0.031l0.276,0.846L-208.633-27885.289z"/>
								<path id="Path_18578" fill="#F06EA9" d="M-207.382-27884.998c-0.406-0.082-0.83-0.18-1.252-0.291
									c-1.979-0.475-3.913-1.109-5.787-1.9h-0.016c-0.212-0.1-0.422-0.178-0.634-0.291c-1.354-0.586-2.669-1.26-3.935-2.018
									l4.893-10.061l0.618-1.268l0.7-1.461l0.438,1.4l0.229,0.713l0.39,1.268L-207.382-27884.998z"/>
								<path id="Path_18579" fill="#E43D91" d="M-184.639-27899.316l-0.113-0.227l-0.017-0.016l-0.634-1.301l-0.276,0.879
									l-4.584,14.691c1.978-0.475,3.913-1.109,5.786-1.9h0.017c0.212-0.1,0.422-0.178,0.634-0.291
									c1.358-0.588,2.678-1.262,3.95-2.018l0.016-0.016L-184.639-27899.316z"/>
								<path id="Path_18580" fill="#F06EA9" d="M-179.882-27889.5c-1.272,0.756-2.592,1.43-3.95,2.016
									c-0.212,0.115-0.422,0.195-0.634,0.293h-0.017c-1.873,0.791-3.809,1.426-5.786,1.9c-0.405,0.113-0.828,0.199-1.235,0.291
									l4.372-14.01l0.374-1.17l0.666-2.1h0.016l0.666,1.414l0.634,1.299l0.016,0.016l0.114,0.229L-179.882-27889.5z"/>
							</g>
						</g>
					</g>
					<g id="Group_6675">
						<path id="Path_18581" fill="#136DA0" d="M-149.664-27907.336c0.021,10.15-3.977,19.896-11.118,27.109
							c-0.472,0.5-0.976,0.977-1.479,1.43c-1.986,1.822-4.16,3.43-6.484,4.793l-0.016,0.018c-1.272,0.756-2.592,1.428-3.95,2.016
							c-0.212,0.113-0.422,0.193-0.634,0.291h-0.017c-1.873,0.791-3.809,1.426-5.786,1.9c-0.405,0.115-0.828,0.201-1.235,0.293
							h-0.017c-1.646,0.342-3.313,0.574-4.99,0.699c-0.976,0.082-1.949,0.115-2.941,0.115s-1.967-0.033-2.941-0.115
							c-1.678-0.125-3.344-0.359-4.99-0.699c-0.406-0.082-0.83-0.182-1.252-0.293c-1.979-0.473-3.913-1.109-5.787-1.9h-0.016
							c-0.212-0.1-0.422-0.178-0.634-0.291c-1.354-0.584-2.669-1.258-3.935-2.016c-0.016,0.016-0.016,0-0.031,0
							c-2.322-1.377-4.495-2.988-6.486-4.811c-0.5-0.438-0.992-0.926-1.479-1.414c-14.98-15.217-14.789-39.697,0.428-54.68
							c15.217-14.98,39.697-14.789,54.679,0.428C-153.655-27927.23-149.664-27917.486-149.664-27907.336L-149.664-27907.336z"/>
						<g id="Group_6674" transform="translate(11.12 15.516)">
							<g id="Group_6673">
								<g id="Group_6672">
									<path id="Path_18582" fill="#D1D3D4" d="M-185.164-27901.852l-0.91-0.422h-0.016l-0.017-0.018h-26.688l-14.207,6.566
										c0.488,0.488,0.977,0.977,1.479,1.414c1.99,1.822,4.164,3.436,6.486,4.811c0.016,0,0.016,0.016,0.031,0
										c1.266,0.758,2.58,1.432,3.935,2.016c0.212,0.113,0.422,0.193,0.634,0.293h0.016c1.874,0.789,3.809,1.426,5.787,1.898
										c0.422,0.113,0.846,0.213,1.252,0.293c1.646,0.34,3.313,0.574,4.99,0.699c0.975,0.082,1.949,0.113,2.941,0.113
										s1.966-0.031,2.941-0.113c1.678-0.125,3.344-0.359,4.99-0.699h0.017c0.405-0.102,0.83-0.18,1.235-0.293
										c1.978-0.473,3.913-1.109,5.786-1.898h0.017c0.212-0.102,0.422-0.18,0.634-0.293c1.358-0.588,2.678-1.262,3.95-2.016
										l0.016-0.016c2.324-1.365,4.498-2.973,6.484-4.795c0.5-0.455,1.008-0.926,1.479-1.43L-185.164-27901.852z"/>
									<rect id="Rectangle_1244" x="-210.208" y="-27914.35" fill="#E7AD27" width="21.514" height="19.574"/>
									<path id="Path_18583" fill="#009ADD" d="M-199.45-27884.188c-0.992,0-1.967-0.031-2.941-0.113l0.323-3.119l0.212-1.918
										l0.292-2.701h4.226l0.293,2.701l0.211,1.918l0.326,3.119C-197.484-27884.219-198.46-27884.188-199.45-27884.188z"/>
									<path id="Path_18584" fill="#136DA0" d="M-197.335-27892.041h-4.232l-0.492,4.623l0.114,0.113
										c1.376,1.377,3.609,1.379,4.986,0.002c0.001-0.002,0.001-0.002,0.002-0.002l0.114-0.113L-197.335-27892.041z"/>
									<path id="Path_18585" fill="#1CAEE4" d="M-194.337-27892.043l-2.621,2.623c-1.377,1.377-3.609,1.377-4.986,0.002
										c-0.001-0.002-0.002-0.002-0.002-0.002l-2.622-2.623c-0.276-0.27-0.28-0.713-0.01-0.988
										c0.003-0.004,0.007-0.008,0.01-0.012l5.116-5.115l5.115,5.115c0.277,0.271,0.281,0.715,0.011,0.99
										C-194.329-27892.049-194.333-27892.047-194.337-27892.043z"/>
									<path id="Path_18586" fill="#EF5A9D" d="M-185.164-27901.854l-0.91-0.424h-0.016l-0.017-0.016l-0.438,1.398l-0.229,0.715
										l-0.357,1.17l-4.372,14.01c0.405-0.1,0.83-0.178,1.235-0.291c1.978-0.475,3.913-1.109,5.786-1.9h0.017
										c0.212-0.1,0.422-0.178,0.634-0.293c1.358-0.586,2.678-1.26,3.95-2.016l0.016-0.016c2.324-1.365,4.499-2.973,6.486-4.793
										c0.5-0.457,1.008-0.926,1.479-1.43L-185.164-27901.854z"/>
									<path id="Path_18587" fill="#EF5A9D" d="M-207.382-27884.998c-0.406-0.082-0.83-0.182-1.252-0.293
										c-1.979-0.473-3.913-1.107-5.787-1.9h-0.016c-0.212-0.1-0.422-0.178-0.634-0.291c-1.354-0.584-2.669-1.258-3.935-2.016
										c-0.016,0.016-0.016,0-0.031,0c-2.321-1.377-4.495-2.988-6.486-4.811c-0.5-0.438-0.992-0.926-1.479-1.414l14.207-6.566
										l0.438,1.4l0.229,0.715l0.39,1.268L-207.382-27884.998z"/>
									<path id="Path_18588" fill="#F06EA9" d="M-212.128-27900.18h-0.666l-0.422,0.195l-0.895,0.424l-0.031,0.016l-11.379,5.234
										c-0.5-0.438-0.992-0.926-1.478-1.414l14.206-6.566l0.438,1.4L-212.128-27900.18z"/>
									<path id="Path_18589" fill="#F06EA9" d="M-185.164-27901.852l13.262,6.111c-0.472,0.5-0.976,0.975-1.479,1.43
										l-11.379-5.234l-0.016-0.016l-0.91-0.424l-0.422-0.195h-0.666l0.229-0.713l0.438-1.4l0.017,0.016h0.016L-185.164-27901.852
										z"/>
									<g id="Group_6668" transform="translate(14.206 41.97)">
										<path id="Path_18590" fill="#E6E7E8" d="M-213.658-27940.127l-8.592,10.963l-4.75-15.1l1.785-1.434
											c0.452-0.361,1.08-0.412,1.582-0.123L-213.658-27940.127z"/>
									</g>
									<g id="Group_6669" transform="translate(27.554 41.971)">
										<path id="Path_18591" fill="#E6E7E8" d="M-227-27940.125l8.592,10.963l4.746-15.1l-1.782-1.432
											c-0.451-0.363-1.078-0.412-1.582-0.127L-227-27940.125z"/>
									</g>
									<path id="Path_18592" fill="#FFFFFF" d="M-189.474-27902.105c0.503-0.287,1.132-0.236,1.582,0.127l1.345,1.08l0.438-1.391
										l-1.782-1.434c-0.451-0.363-1.078-0.414-1.582-0.127l-9.972,5.689l0.943,1.201L-189.474-27902.105z"/>
									<path id="Path_18593" fill="#FFFFFF" d="M-209.426-27902.105c-0.502-0.287-1.131-0.236-1.582,0.127l-1.344,1.08
										l-0.438-1.391l1.781-1.432c0.452-0.363,1.08-0.412,1.582-0.127l9.973,5.691l-0.944,1.199L-209.426-27902.105z"/>
									
										<ellipse id="Ellipse_2251" transform="matrix(-0.1778 -0.9841 0.9841 -0.1778 27223.8262 -33101.5781)" fill="#F7CB15" cx="-216.718" cy="-27923.91" rx="6.004" ry="4.674"/>
									
										<ellipse id="Ellipse_2252" transform="matrix(-0.984 -0.1779 0.1779 -0.984 4607.2271 -55434.6719)" fill="#F7CB15" cx="-181.948" cy="-27923.912" rx="4.674" ry="6.004"/>
									<path id="Path_18594" fill="#FFF335" d="M-217.805-27928.803c2.539-0.459,5.075,1.814,5.666,5.076
										c0.05,0.289,0.084,0.582,0.1,0.875c0.045-0.629,0.012-1.262-0.1-1.885c-0.591-3.262-3.127-5.537-5.666-5.076
										c-2.311,0.418-3.82,2.953-3.633,5.863C-221.262-27926.418-219.844-27928.434-217.805-27928.803z"/>
									<path id="Path_18595" fill="#FFF335" d="M-186.568-27923.727c0.59-3.262,3.126-5.535,5.666-5.076
										c2.038,0.369,3.456,2.387,3.632,4.854c0.188-2.91-1.321-5.443-3.632-5.861c-2.54-0.459-5.078,1.814-5.666,5.076
										c-0.112,0.621-0.146,1.256-0.1,1.887C-186.652-27923.143-186.619-27923.436-186.568-27923.727z"/>
									<path id="Path_18596" fill="#E7AD27" d="M-215.671-27919.902c-2.539,0.459-5.077-1.814-5.666-5.078
										c-0.025-0.139-0.041-0.277-0.057-0.414c-0.102,0.77-0.082,1.553,0.057,2.32c0.591,3.262,3.127,5.535,5.666,5.074
										c2.431-0.439,3.979-3.223,3.591-6.32C-212.383-27922.053-213.753-27920.246-215.671-27919.902z"/>
									<path id="Path_18597" fill="#E7AD27" d="M-177.37-27924.977c-0.59,3.262-3.126,5.535-5.666,5.076
										c-1.916-0.346-3.286-2.152-3.59-4.418c-0.389,3.1,1.158,5.881,3.59,6.322c2.54,0.459,5.076-1.814,5.666-5.076
										c0.141-0.768,0.16-1.549,0.058-2.322C-177.328-27925.254-177.348-27925.117-177.37-27924.977z"/>
									<path id="Path_18598" fill="#FEDE3A" d="M-199.45-27946.002c-9.654,0-17.482,7.236-17.482,18.799s7.826,23.07,17.482,23.07
										s17.479-11.508,17.479-23.07S-189.796-27946.002-199.45-27946.002z"/>
									<path id="Path_18599" fill="#F7CB15" d="M-199.45-27907.482c-9.184,0-16.708-10.412-17.42-21.377
										c-0.036,0.543-0.061,1.094-0.061,1.656c0,11.563,7.826,23.07,17.482,23.07s17.478-11.504,17.478-23.07
										c0-0.563-0.023-1.115-0.06-1.656C-182.744-27917.896-190.27-27907.482-199.45-27907.482z"/>
									<path id="Path_18600" fill="#1CAEE4" d="M-199.45-27946.002c-5.312-0.09-10.355,2.326-13.616,6.52
										c4.511,7.52,14.264,9.959,21.783,5.447c2.235-1.34,4.105-3.211,5.447-5.447
										C-189.095-27943.676-194.139-27946.092-199.45-27946.002z"/>
									<path id="Path_18601" fill="#1CAEE4" d="M-199.45-27946.002c-5.312-0.09-10.355,2.326-13.616,6.52
										c4.511,7.52,14.264,9.959,21.783,5.447c2.235-1.34,4.105-3.211,5.447-5.447
										C-189.095-27943.676-194.139-27946.092-199.45-27946.002z"/>
									<path id="Path_18602" fill="#009ADD" d="M-199.452-27933.188c-5.242,0-10.146-2.59-13.1-6.918
										c-0.174,0.199-0.347,0.41-0.511,0.623c4.511,7.52,14.264,9.959,21.783,5.447c2.235-1.34,4.106-3.211,5.447-5.447
										c-0.164-0.213-0.336-0.42-0.51-0.623C-189.299-27935.773-194.207-27933.184-199.452-27933.188z"/>
									<path id="Path_18603" fill="#1CAEE4" d="M-215.548-27920.375c0.342,0,0.619-0.279,0.617-0.621
										c0-0.035-0.004-0.07-0.01-0.105c-0.213-1.289-0.32-2.594-0.322-3.9c0-10.459,7.08-17,15.813-17
										c8.731,0,15.812,6.545,15.812,17c-0.002,1.307-0.109,2.611-0.321,3.9c-0.06,0.336,0.167,0.658,0.504,0.719
										c0.034,0.004,0.069,0.008,0.104,0.008l0,0c0.288,0.002,0.539-0.195,0.608-0.473c0.509-2.08,0.769-4.215,0.773-6.355
										c0-11.563-7.825-18.799-17.481-18.799s-17.482,7.236-17.482,18.799c0.006,2.141,0.266,4.275,0.774,6.355
										C-216.089-27920.568-215.837-27920.373-215.548-27920.375z"/>
									<g id="Group_6670" transform="translate(10.774 7.888)">
										<path id="Path_18604" fill="#009ADD" d="M-198.809-27946.004c-0.14,0.172-0.282,0.34-0.43,0.5
											c3.247,3.381,4.989,7.93,4.829,12.615c-0.002,1.307-0.109,2.611-0.321,3.9c-0.063,0.332,0.158,0.652,0.491,0.715
											c0.164,0.031,0.333-0.008,0.469-0.104c0.213-1.328,0.321-2.67,0.324-4.014
											C-193.448-27938.201-195.509-27942.871-198.809-27946.004z"/>
										<path id="Path_18605" fill="#009ADD" d="M-221.216-27945.5c-0.148-0.164-0.29-0.332-0.43-0.5
											c-3.292,3.133-5.354,7.801-5.354,13.613c0.002,1.344,0.11,2.686,0.323,4.014c0.276,0.197,0.659,0.133,0.856-0.143
											c0.097-0.137,0.134-0.305,0.104-0.469c-0.213-1.289-0.32-2.594-0.322-3.9
											C-226.198-27937.568-224.46-27942.117-221.216-27945.5z"/>
									</g>
									<g id="Group_6671" transform="translate(10.068)">
										<path id="Path_18606" fill="#27C1E6" d="M-225.332-27923.236c0.002,0.891,0.055,1.781,0.156,2.666
											c0.136-0.141,0.197-0.336,0.168-0.531c-0.163-0.996-0.264-2.004-0.3-3.016
											C-225.325-27923.826-225.332-27923.535-225.332-27923.236z"/>
										<path id="Path_18607" fill="#27C1E6" d="M-209.518-27944.238c9.358,0,17,6.801,17.46,17.746
											c0.006-0.236,0.022-0.475,0.022-0.711c0-11.563-7.826-18.799-17.482-18.799s-17.482,7.236-17.482,18.799
											c0,0.236,0.017,0.475,0.022,0.711C-226.518-27937.441-218.875-27944.238-209.518-27944.238z"/>
										<path id="Path_18608" fill="#27C1E6" d="M-193.724-27924.119c-0.037,1.012-0.137,2.018-0.3,3.018
											c-0.031,0.191,0.03,0.389,0.166,0.529c0.102-0.885,0.154-1.775,0.156-2.666
											C-193.706-27923.535-193.714-27923.826-193.724-27924.119z"/>
									</g>
								</g>
								<path id="Path_18609" fill="#E43D91" d="M-208.633-27885.291c-1.979-0.473-3.913-1.107-5.787-1.9h-0.016
									c-0.212-0.1-0.422-0.176-0.634-0.291c-1.354-0.584-2.669-1.258-3.935-2.016c-0.016,0.016-0.016,0-0.031,0l4.893-10.045
									l0.649-1.316v0.033l0.276,0.846L-208.633-27885.291z"/>
								<path id="Path_18610" fill="#F06EA9" d="M-207.382-27884.998c-0.406-0.082-0.83-0.182-1.252-0.293
									c-1.979-0.473-3.913-1.107-5.787-1.9h-0.016c-0.212-0.1-0.422-0.178-0.634-0.291c-1.354-0.584-2.669-1.258-3.935-2.016
									l4.893-10.061l0.618-1.268l0.7-1.463l0.438,1.4l0.229,0.715l0.39,1.268L-207.382-27884.998z"/>
								<path id="Path_18611" fill="#E43D91" d="M-184.639-27899.318l-0.113-0.229l-0.017-0.016l-0.634-1.301l-0.276,0.879
									l-4.584,14.693c1.978-0.473,3.913-1.107,5.786-1.9h0.017c0.212-0.1,0.422-0.178,0.634-0.291
									c1.358-0.588,2.678-1.26,3.95-2.016l0.016-0.018L-184.639-27899.318z"/>
								<path id="Path_18612" fill="#F06EA9" d="M-179.882-27889.5c-1.272,0.754-2.592,1.428-3.95,2.016
									c-0.212,0.113-0.422,0.193-0.634,0.293h-0.017c-1.873,0.789-3.809,1.426-5.786,1.898c-0.405,0.113-0.828,0.201-1.235,0.293
									l4.372-14.01l0.374-1.17l0.666-2.102h0.016l0.666,1.414l0.634,1.301l0.016,0.016l0.114,0.229L-179.882-27889.5z"/>
							</g>
						</g>
					</g>
				</g>
				<g id="Group_6677" transform="translate(99.108 107.752)">
					<path id="Path_18613" fill="#D1D3D4" d="M-219.498-27927.73c-2.415,1.092-4.925,1.957-7.5,2.586v61.113
						c2.572,0.617,5.082,1.469,7.5,2.539V-27927.73z"/>
					<path id="Path_18614" fill="#009ADD" d="M-169.336-27912.379c-0.08-0.012-0.155-0.027-0.235-0.037
						c-0.735-0.096-1.477-0.146-2.218-0.15l0,0l0.008,17.941l-0.016-34.232l0,0v-4.287c-0.027-7.113-5.817-12.859-12.933-12.832
						c-2.325,0.008-4.604,0.645-6.596,1.844l-10.792,6.549l-0.638,0.389c-6.72,4.074-11.7,7.227-16.74,9.459v66.238
						c0.644,0.283,1.286,0.572,1.93,0.887c0.568,0.275,1.139,0.564,1.714,0.863c3.9,2.037,8.008,4.607,13.136,7.713l4.812,2.91
						l6.626,4.014c6.084,3.672,13.992,1.717,17.665-4.367c1.208-2.002,1.849-4.295,1.851-6.633l-0.01-20.572h0.008
						c0.74-0.006,1.48-0.057,2.215-0.152c0.075-0.01,0.151-0.023,0.228-0.035c0.695-0.094,1.385-0.23,2.063-0.408l0,0
						c7.911-2.039,13.434-9.182,13.416-17.35l0,0l0,0C-153.848-27903.586-160.462-27911.164-169.336-27912.379z"/>
				</g>
				<g id="Group_6680" transform="translate(0 99.744)">
					<g id="Group_6679">
						<path id="Path_18615" fill="#EF5A9D" d="M-168.99-27865.379l-34.328,0.016c-5.599,0.004-10.139-4.533-10.142-10.131
							l-0.018-38.119c-0.002-5.598,4.534-10.137,10.132-10.141l34.328-0.016L-168.99-27865.379z"/>
						<path id="Path_18616" fill="#E43D91" d="M-213.466-27893.602l0.008,18.107c0.002,5.598,4.542,10.135,10.14,10.131
							c0,0,0.001,0,0.002,0l34.326-0.016l-0.008-15.387l-31.606,0.014c-7.1,0.004-12.858-5.748-12.862-12.848
							C-213.466-27893.602-213.466-27893.602-213.466-27893.602z"/>
						<path id="Path_18617" fill="#F06EA9" d="M-203.344-27923.754c-5.598,0.002-10.134,4.543-10.132,10.141c0,0,0,0,0,0v7
							c-0.001-7.098,5.752-12.855,12.852-12.857c0.001,0,0.003,0,0.004,0l31.608-0.014v-4.283L-203.344-27923.754z"/>
						<g id="Group_6678" transform="translate(0 38.344)">
							<path id="Path_18618" fill="#E43D91" d="M-213.464-27919.797h-9.472c-2.238,0.004-4.054-1.811-4.056-4.049
								c0-0.002,0-0.002,0-0.004l-0.008-18.1c-0.001-2.24,1.813-4.055,4.052-4.057c0.001,0,0.001,0,0.002,0h9.472
								L-213.464-27919.797z"/>
							<path id="Path_18619" fill="#EF5A9D" d="M-222.946-27945.996c-2.239,0.002-4.054,1.816-4.054,4.057v3.639
								c-0.001-3.188,2.582-5.771,5.768-5.773l0,0h7.756v-1.922H-222.946z"/>
							<path id="Path_18620" fill="#A72973" d="M-226.992-27929.646v5.801c0.001,2.24,1.817,4.053,4.056,4.053h9.472v-4.086h-7.756
								C-224.406-27923.879-226.989-27926.461-226.992-27929.646z"/>
						</g>
						<path id="Path_18621" fill="#EF5A9D" d="M-72.684-27912.559c9.908-0.004,17.943,8.023,17.947,17.934l0,0
							c0.005,9.906-8.023,17.941-17.932,17.947L-72.684-27912.559z"/>
						<path id="Path_18622" fill="#E43D91" d="M-72.668-27876.678c1.525-0.008,3.043-0.209,4.516-0.6l-0.016-34.688
							c-1.475-0.391-2.992-0.59-4.516-0.596L-72.668-27876.678z"/>
						<path id="Path_18623" fill="#E43D91" d="M-72.672-27884.367v7.689c9.863,0.039,17.893-7.924,17.932-17.787
							c0.006-1.348-0.141-2.691-0.438-4.006C-56.976-27890.246-64.253-27884.379-72.672-27884.367z"/>
						<path id="Path_18624" fill="#FEDE3A" d="M-72.658-27856.104c0.001,7.1-5.754,12.857-12.855,12.857
							c-2.348,0-4.651-0.641-6.66-1.857l-11.436-6.924c-14.506-8.783-20.9-13.373-37.288-13.367l-28.09,0.012l-0.026-58.395
							l28.09-0.012c16.386-0.008,22.778-4.6,37.276-13.398l11.43-6.934c6.071-3.684,13.979-1.746,17.661,4.324
							c1.219,2.008,1.863,4.313,1.865,6.66L-72.658-27856.104z"/>
						<path id="Path_18625" fill="#F7CB15" d="M-92.182-27860.191l-11.436-6.926c-14.508-8.783-20.9-13.371-37.29-13.365
							l-28.09,0.012l0.006,15.092l28.09-0.014c16.386-0.008,22.782,4.582,37.29,13.367l11.436,6.924
							c6.074,3.678,13.979,1.734,17.656-4.34c1.217-2.008,1.859-4.313,1.859-6.66l-0.004-15.096
							c0.006,7.1-5.746,12.861-12.846,12.865C-87.862-27858.33-90.17-27858.973-92.182-27860.191z"/>
						<path id="Path_18626" fill="#FFF335" d="M-92.22-27944.115l-11.43,6.934c-14.5,8.801-20.892,13.393-37.276,13.4l-28.09,0.012
							v4.287l28.09-0.014c16.386-0.008,22.778-4.6,37.276-13.398l11.432-6.938c6.071-3.682,13.979-1.746,17.661,4.328
							c1.219,2.008,1.863,4.311,1.865,6.658v-4.285c-0.006-7.102-5.766-12.854-12.867-12.85
							C-87.908-27945.979-90.211-27945.334-92.22-27944.115z"/>
						<path id="Path_18627" fill="#FEDE3A" d="M-174.536-27821.445L-174.536-27821.445c-5.026,0.004-9.286-3.699-9.986-8.676
							l-1.87-13.285l-7.1-5.951l-2.418-16.008l26.786-0.012l4.566,32.445c0.776,5.514-3.063,10.611-8.575,11.389
							C-173.598-27821.479-174.067-27821.445-174.536-27821.445z"/>
						<path id="Path_18628" fill="#F7CB15" d="M-164.954-27835.738c-1.332,4.17-5.206,7.002-9.584,7.008l0,0
							c-5.026,0-9.286-3.699-9.986-8.676l-1.87-13.285l-7.1-5.951l-1.32-8.729h-1.1l2.418,16.01l7.1,5.951l1.87,13.285
							c0.701,4.977,4.96,8.676,9.986,8.674l0,0c5.566-0.002,10.077-4.516,10.075-10.08c0-0.471-0.033-0.939-0.099-1.404
							L-164.954-27835.738z"/>
						<path id="Path_18629" fill="#F7CB15" d="M-168.832-27863.297l-4.868,0.701c-2.072,0.297-3.511,2.219-3.214,4.291l2.464,17.15
							c0.297,2.072,2.219,3.512,4.291,3.215c0,0,0.001,0,0.001,0l4.8-0.689L-168.832-27863.297z"/>
						<path id="Path_18630" fill="#F06EA9" d="M-54.907-27892.885c0.088-0.576,0.146-1.158,0.175-1.74
							c-0.004-9.906-8.038-17.936-17.944-17.932c-0.001,0-0.003,0-0.005,0v3.482
							C-63.471-27909.063-55.777-27902.055-54.907-27892.885z"/>
					</g>
				</g>
				<path id="Path_18631" fill="#D1D3D4" d="M-115.49-27663.297c-2.706,0-4.9-2.193-4.9-4.898v-20.143h46.65
					c-0.088-0.391-0.156-0.787-0.256-1.174c-0.063-0.242-0.109-0.488-0.176-0.729c-0.301-1.111-0.66-2.205-1.053-3.289
					c-0.113-0.318-0.237-0.633-0.359-0.949c-0.368-0.947-0.768-1.883-1.2-2.807c-0.084-0.18-0.157-0.361-0.243-0.537
					c-0.519-1.053-1.091-2.082-1.701-3.094c-0.166-0.277-0.338-0.549-0.51-0.824c-0.58-0.922-1.189-1.826-1.844-2.705
					c-0.082-0.109-0.154-0.223-0.236-0.33c-0.728-0.961-1.514-1.885-2.33-2.787c-0.209-0.23-0.424-0.459-0.64-0.688
					c-0.808-0.854-1.644-1.688-2.532-2.48c-0.052-0.045-0.1-0.1-0.149-0.141c-0.934-0.826-1.924-1.602-2.94-2.355
					c-0.252-0.188-0.508-0.369-0.768-0.551c-1.044-0.736-2.116-1.447-3.242-2.102l-0.008-0.004
					c-10.295-5.959-22.619-7.32-33.966-3.754v52.66c0,6.43,5.213,11.643,11.644,11.645h40.314c1.067-2.568,1.881-5.234,2.43-7.961
					h-41.984V-27663.297z"/>
				<path id="Path_18632" fill="#136DA0" d="M-120.39-27668.195c0,2.705,2.194,4.898,4.9,4.898h41.986
					c0.621-3.055,0.9-6.168,0.834-9.285v-6.887c0-0.086,0-0.168,0-0.254c-0.01-0.559-0.051-1.117-0.08-1.676
					c-0.016-0.281-0.02-0.563-0.042-0.844c-0.086-1.141-0.228-2.273-0.399-3.4c-0.055-0.348-0.121-0.691-0.185-1.037
					c-0.101-0.557-0.238-1.1-0.36-1.656h-46.654V-27668.195z"/>
				<g id="Group_6689" transform="translate(53.722 198.868)">
					<path id="Path_18633" fill="#A72973" d="M-211.424-27879.861c0.317,23.482,19.612,42.264,43.095,41.945
						c23.483-0.316,42.264-19.611,41.945-43.096c-0.002-0.145-0.004-0.293-0.008-0.439v-6.887c0-0.086,0-0.17,0-0.256
						c-0.315-23.482-19.608-42.264-43.091-41.949c-23.483,0.316-42.265,19.609-41.95,43.092c0.002,0.148,0.005,0.297,0.008,0.445
						V-27879.861z"/>
					<g id="Group_6683">
						<g id="Group_6682">
							<g id="Group_6681">
								<circle id="Ellipse_2253" fill="#EF5A9D" cx="-168.918" cy="-27887.918" r="42.519"/>
							</g>
						</g>
					</g>
					<path id="Path_18634" fill="#E43D91" d="M-145.09-27889.506c0.48-0.43,0.748-1.049,0.732-1.693v-3.439
						c0-0.084-0.022-0.168-0.03-0.252c-0.005-0.076-0.015-0.152-0.028-0.23c-0.043-0.223-0.123-0.439-0.234-0.639l-2.1-3.635
						c-0.521-0.9-1.603-1.313-2.592-0.988l-5.386,1.783l-3.016,1l-0.012-0.01c-0.698-0.572-1.439-1.09-2.218-1.549
						c-0.11-0.066-0.214-0.135-0.324-0.201c-0.759-0.43-1.55-0.801-2.366-1.111c-0.07-0.027-0.134-0.068-0.206-0.1l-1.792-8.66
						c-0.102-0.496-0.372-0.939-0.764-1.258c-0.392-0.318-0.881-0.492-1.386-0.494h-4.194c-0.763,0.002-1.472,0.396-1.872,1.049
						c-0.133,0.215-0.227,0.451-0.278,0.699l-1.794,8.66c-0.072,0.025-0.134,0.07-0.206,0.1c-0.815,0.311-1.606,0.684-2.366,1.111
						c-0.11,0.063-0.216,0.133-0.324,0.201c-0.778,0.459-1.52,0.977-2.218,1.549c-0.004,0.004-0.008,0.008-0.012,0.01l-8.4-2.779
						c-0.989-0.324-2.071,0.088-2.592,0.988l-2.1,3.635c-0.112,0.199-0.191,0.416-0.234,0.639c-0.013,0.078-0.022,0.156-0.028,0.232
						c-0.008,0.084-0.03,0.166-0.03,0.25v3.439c-0.016,0.645,0.252,1.264,0.732,1.693l6.354,5.662v2.854l-0.8,0.713l-5.552,4.947
						c-0.217,0.199-0.391,0.441-0.51,0.709c-0.03,0.076-0.057,0.154-0.08,0.232c-0.068,0.197-0.107,0.4-0.116,0.607
						c0,0.049-0.028,0.096-0.026,0.143v3.439c-0.006,0.395,0.095,0.781,0.292,1.123l2.1,3.631c0.521,0.902,1.604,1.314,2.592,0.988
						l8.4-2.777c1.527,1.273,3.261,2.275,5.126,2.965l1.794,8.66c0.212,1.02,1.11,1.75,2.152,1.75h4.194
						c1.041,0,1.939-0.729,2.153-1.746l1.792-8.66c1.865-0.689,3.599-1.691,5.126-2.965l8.4,2.777
						c0.989,0.326,2.071-0.086,2.592-0.988l2.1-3.631c0.196-0.342,0.297-0.729,0.292-1.123v-3.439c0-0.047-0.026-0.094-0.028-0.143
						c-0.008-0.207-0.047-0.41-0.116-0.607c-0.021-0.08-0.048-0.158-0.08-0.232c-0.119-0.27-0.292-0.512-0.51-0.711l-6.354-5.662
						v-2.854L-145.09-27889.506z M-161.728-27881.732c-0.208,0.592-0.477,1.162-0.8,1.701c-0.114,0.176-0.25,0.332-0.378,0.5
						c-0.148,0.199-0.308,0.391-0.476,0.574c-0.14,0.15-0.294,0.285-0.446,0.422c-0.19,0.172-0.384,0.336-0.592,0.488
						c-0.158,0.119-0.322,0.229-0.492,0.332c-0.232,0.143-0.471,0.271-0.716,0.389c-0.166,0.08-0.332,0.162-0.506,0.23
						c-0.289,0.109-0.584,0.201-0.884,0.273c-0.152,0.041-0.3,0.09-0.456,0.119c-0.947,0.193-1.923,0.193-2.87,0
						c-0.156-0.029-0.3-0.078-0.456-0.119c-0.3-0.072-0.596-0.166-0.886-0.273c-0.172-0.068-0.338-0.15-0.5-0.23
						c-0.247-0.117-0.486-0.248-0.718-0.391c-0.168-0.1-0.332-0.213-0.49-0.33c-0.206-0.152-0.4-0.316-0.592-0.488
						c-0.152-0.137-0.3-0.271-0.444-0.418c-0.172-0.184-0.324-0.381-0.478-0.578c-0.126-0.164-0.264-0.322-0.376-0.5
						c-0.145-0.234-0.276-0.479-0.394-0.727c-0.159-0.318-0.296-0.646-0.41-0.982c-0.078-0.23-0.16-0.455-0.216-0.693
						c0.971-4.088,5.071-6.613,9.158-5.643c2.795,0.664,4.978,2.846,5.642,5.643c-0.062,0.238-0.137,0.473-0.224,0.703V-27881.732z"
						/>
					<g id="Group_6688" transform="translate(33.535 28.008)">
						<path id="Path_18635" fill="#D1D3D4" d="M-184.98-27918.869l6.354-5.66c0.48-0.43,0.748-1.049,0.732-1.693v-3.439
							c0.006-0.393-0.095-0.781-0.292-1.123l-2.1-3.631c-0.521-0.9-1.603-1.314-2.592-0.988l-8.4,2.779
							c-1.527-1.273-3.261-2.275-5.126-2.965l-1.792-8.66c-0.212-1.02-1.11-1.75-2.152-1.752h-4.2
							c-1.042,0.002-1.94,0.732-2.152,1.752l-1.794,8.66c-1.865,0.689-3.599,1.691-5.126,2.965l-8.4-2.779
							c-0.989-0.326-2.07,0.088-2.592,0.988l-2.1,3.631c-0.196,0.342-0.297,0.73-0.292,1.123v3.439
							c-0.016,0.645,0.252,1.264,0.732,1.693l6.354,5.658v2.855l-6.354,5.662c-0.48,0.43-0.748,1.047-0.732,1.691v3.439
							c-0.006,0.395,0.095,0.781,0.292,1.123l2.1,3.631c0.521,0.902,1.603,1.314,2.592,0.988l8.4-2.777
							c1.527,1.273,3.261,2.275,5.126,2.965l1.794,8.66c0.212,1.02,1.11,1.75,2.152,1.75h4.2c1.042,0,1.94-0.73,2.152-1.75
							l1.792-8.66c1.865-0.689,3.599-1.691,5.126-2.965l8.4,2.777c0.989,0.326,2.071-0.086,2.592-0.988l2.1-3.631
							c0.196-0.342,0.297-0.729,0.292-1.123v-3.439c0.016-0.645-0.252-1.262-0.732-1.691l-6.354-5.662v-2.855V-27918.869z
							 M-202.444-27911.582c-3.525-0.004-6.587-2.43-7.4-5.859c0.966-4.09,5.065-6.621,9.154-5.654
							c2.803,0.662,4.992,2.852,5.654,5.654C-195.85-27914.008-198.916-27911.584-202.444-27911.582L-202.444-27911.582z"/>
						<g id="Group_6687" transform="translate(0.003)">
							<g id="Group_6684" transform="translate(18.347)">
								<path id="Path_18636" fill="#FFFFFF" d="M-214.588-27934.797H-227l1.958-9.453c0.212-1.02,1.11-1.75,2.152-1.75h4.2
									c1.042,0,1.94,0.73,2.152,1.75L-214.588-27934.797z"/>
								<path id="Path_18637" fill="#FFFFFF" d="M-227-27903.604h12.412l-1.958,9.453c-0.212,1.02-1.11,1.75-2.152,1.752h-4.2
									c-1.042-0.002-1.94-0.732-2.152-1.752L-227-27903.604z"/>
							</g>
							<g id="Group_6685" transform="translate(0.001 10.485)">
								<path id="Path_18638" fill="#FFFFFF" d="M-219.058-27927.26l6.206,10.75l-9.164,3.033c-0.989,0.324-2.071-0.088-2.592-0.988
									l-2.1-3.633c-0.52-0.902-0.336-2.043,0.44-2.738L-219.058-27927.26z"/>
								<path id="Path_18639" fill="#FFFFFF" d="M-185.836-27932.109l-6.206-10.75l9.164-3.031c0.989-0.324,2.071,0.086,2.592,0.988
									l2.1,3.633c0.519,0.902,0.334,2.043-0.442,2.738L-185.836-27932.109z"/>
							</g>
							<g id="Group_6686" transform="translate(0 10.487)">
								<path id="Path_18640" fill="#FFFFFF" d="M-192.043-27916.514l6.206-10.75l7.208,6.422c0.777,0.693,0.961,1.836,0.442,2.738
									l-2.1,3.633c-0.521,0.9-1.603,1.313-2.592,0.986L-192.043-27916.514z"/>
								<path id="Path_18641" fill="#FFFFFF" d="M-212.85-27942.859l-6.206,10.75l-7.208-6.422c-0.778-0.693-0.962-1.838-0.44-2.738
									l2.1-3.633c0.521-0.902,1.604-1.313,2.592-0.988L-212.85-27942.859z"/>
							</g>
						</g>
						<path id="Path_18642" fill="#FFFFFF" d="M-202.447-27936.664c-9.645,0-17.464,7.818-17.464,17.463
							c0,9.646,7.819,17.465,17.464,17.465s17.464-7.818,17.464-17.465C-184.983-27928.846-192.802-27936.664-202.447-27936.664
							L-202.447-27936.664z M-202.447-27911.582c-4.206,0-7.616-3.41-7.616-7.617s3.41-7.615,7.616-7.615s7.616,3.408,7.616,7.615
							l0,0C-194.831-27914.992-198.241-27911.582-202.447-27911.582z"/>
						<path id="Path_18643" fill="#E6E7E8" d="M-202.447-27936.664c-9.645,0-17.464,7.818-17.464,17.463
							c0,9.646,7.819,17.465,17.464,17.465s17.464-7.818,17.464-17.465C-184.983-27928.846-192.802-27936.664-202.447-27936.664
							L-202.447-27936.664z M-202.447-27905.799c-7.401,0-13.4-6-13.4-13.4s5.999-13.4,13.4-13.4c7.4,0,13.4,6,13.4,13.4l0,0
							C-189.047-27911.799-195.047-27905.799-202.447-27905.799z"/>
					</g>
				</g>
				<rect id="Rectangle_1245" x="-127.892" y="-27916.322" fill="#D1D3D4" width="7.502" height="62.976"/>
				<path id="Path_18644" fill="#009ADD" d="M-78.734-27916.322h-41.656v62.979h41.656c3.355,0,6.074-2.721,6.074-6.074
					c0-0.002,0-0.002,0-0.004v-50.824c0.002-3.354-2.717-6.074-6.07-6.076C-78.732-27916.322-78.732-27916.322-78.734-27916.322z"/>
				<g id="Group_6692" transform="translate(61.64 21.682)">
					<g id="Group_6690">
						<path id="Path_18645" fill="#BCBEC0" d="M-220.926-27939.576h80.552c3.354,0.002,6.074,2.721,6.074,6.074v44.4
							c0,3.355-2.72,6.074-6.074,6.074h-56.964l-5.262,7.15c-1.689,2.295-4.92,2.787-7.217,1.1c-0.42-0.311-0.791-0.68-1.099-1.1
							l-5.262-7.15h-4.748c-3.354,0-6.073-2.719-6.074-6.074v-44.4C-226.999-27936.855-224.28-27939.574-220.926-27939.576z"/>
						<path id="Path_18646" fill="#FFFFFF" d="M-220.926-27946.002h80.552c3.355,0.002,6.074,2.721,6.074,6.076l0,0v44.4
							c0,3.354-2.72,6.072-6.074,6.074h-58.18l-6.23,8.688c-0.782,1.092-2.3,1.342-3.391,0.561c-0.216-0.156-0.405-0.344-0.56-0.561
							l-6.23-8.688h-5.962c-3.354-0.002-6.073-2.721-6.074-6.074v-44.4C-227-27943.281-224.281-27946-220.926-27946.002z"/>
					</g>
					<g id="Group_6691" transform="translate(20.137 12.906)">
						<path id="Path_18647" fill="#009ADD" d="M-212.22-27944.57c-0.326-0.857-1.146-1.426-2.064-1.43h-1.136
							c-0.918,0.004-1.739,0.572-2.064,1.43l-9.378,25.057c-0.425,1.139,0.153,2.404,1.291,2.83c0.248,0.094,0.51,0.141,0.775,0.141
							h1.014c0.919-0.004,1.74-0.574,2.064-1.436l2.254-6.049h9.211l2.268,6.055c0.321,0.859,1.144,1.43,2.062,1.43h1.016
							c1.215,0.002,2.202-0.98,2.205-2.195c0-0.266-0.047-0.531-0.141-0.779L-212.22-27944.57z M-212.244-27929.361h-5.234
							l2.625-7.018L-212.244-27929.361z"/>
						<path id="Path_18648" fill="#009ADD" d="M-178.113-27939.605c-1.04-1.965-2.608-3.598-4.528-4.719
							c-1.937-1.121-4.139-1.699-6.376-1.678h-6.934c-1.213,0.004-2.196,0.986-2.2,2.201v25.053c0.004,1.213,0.987,2.197,2.2,2.201
							h7.034c2.245,0.008,4.45-0.594,6.38-1.742c1.918-1.145,3.477-2.803,4.5-4.789c1.056-2.063,1.593-4.352,1.566-6.668v-3.275
							C-176.47-27935.318-177.034-27937.578-178.113-27939.605z M-181.807-27932.855v3.205c0.01,1.42-0.327,2.82-0.98,4.08
							c-0.581,1.129-1.468,2.07-2.558,2.719c-1.111,0.654-2.381,0.992-3.67,0.973h-3.8v-18.791h3.912
							c1.279,0,2.535,0.352,3.628,1.016c1.082,0.652,1.957,1.596,2.526,2.723C-182.11-27935.67-181.787-27934.27-181.807-27932.855z
							"/>
					</g>
				</g>
			</g>
		</g>
	</g>
</g>
</svg>
