<svg xmlns="http://www.w3.org/2000/svg" width="1535.435" height="347.598" viewBox="0 0 1535.435 347.598">
  <g id="Group_7311" data-name="Group 7311" transform="translate(-327.538 -370.563)">
    <g id="Group_62" data-name="Group 62" transform="translate(327.538 370.563)">
      <g id="Group_55" data-name="Group 55" transform="translate(0 0)">
        <path id="Path_189" data-name="Path 189" d="M408.783,646.418c.173-3.578.5-7.155.5-10.733.03-65.7.139-131.41-.137-197.112-.032-7.581,1.812-9.015,7.677-9.013q728.23.25,1456.461.185c2.245,0,4.588-.659,6.728.811,1.3,2.87.655,5.983.656,8.97q.064,98.945.061,197.891c0,3-.554,6.1.578,9.015l.053.025c2.977,2.654,3.094,6.6,3.115,10.5.148,28.542.317,57.086-.083,85.626-.145,10.4-2.261,12.725-10.767,12.749-34.319.1-68.64.048-102.959.032-2.518,0-5.051.076-7.385-1.375-2.731-.528-5.483-.263-8.224-.263q-611.05-.022-1222.1.431c-38.136.066-76.32.523-114.478,1.173-11.286.193-12.71-1.53-12.811-15.237-.2-27.164-.144-54.329-.008-81.492C405.681,654.221,405.367,649.581,408.783,646.418Z" transform="translate(-375.875 -407.791)" fill="#ffd837"/>
        <path id="Path_192" data-name="Path 192" d="M1155.379,411.894h756.68c10.681,0,10.694,0,10.694,19.179q.006,150.925-.089,301.849c-.008,6.229,2.137,16.623-3.857,16.885-6.484.286-4.527-10.508-4.535-17.234q-.159-145.917.069-291.83c.027-10.864-1.346-13.8-7.526-13.795q-751.5.436-1502.992-.015c-6.536-.005-7.83,3.494-7.8,14.539q.342,145.288.13,290.579c0,3.339.086,6.7-.066,10.015-.214,4.645-1.423,7.981-4.258,8.122-2.949.146-4.016-3.254-4.16-7.981-.09-2.915-.066-5.844-.066-8.764q0-152.18,0-304.356c0-17.174.03-17.191,9.717-17.191Q776.349,411.893,1155.379,411.894Z" transform="translate(-387.595 -411.894)" fill="#ee980f"/>
        <path id="Path_195" data-name="Path 195" d="M1480.4,761.953c-2.057-3-1.759-6.97-1.756-10.739q.079-160.528.2-321.055c1.9,4.273.941,9.1.944,13.638q.1,150.817.074,301.635C1479.865,750.938,1480.215,756.447,1480.4,761.953Z" transform="translate(24.348 -414.355)" fill="#e7a40f"/>
        <path id="Path_196" data-name="Path 196" d="M1514.43,578.665c0,15.182-.21,30.367.113,45.545.111,5.273-2.288,7.339-9.514,7.3-34.7-.163-69.4-.064-104.1-.08-3.879,0-8.715.175-8.877-3.7-.18-4.339,4.868-4.177,9.069-4.179,31.671-.007,63.345-.144,95.013.107,6.567.052,8.252-1.365,8.2-6.175-.3-27.7-.147-55.393-.146-83.091,0-1.436.019-2.872.015-4.308,0-2.819,1.419-5.058,5.555-4.943,3.792.106,4.653,2.425,4.653,4.9q0,13.541.023,27.081Q1514.44,567.894,1514.43,578.665Z" transform="translate(-32.223 -300.941)" fill="#fefdfc"/>
        <path id="Path_197" data-name="Path 197" d="M491.734,628.942c-20.379,0-40.765-.182-61.138.092-7.658.1-10.008-2.043-9.947-7.593.283-25.849.119-51.7.136-77.553,0-2.84-.661-6.523,4.762-6.594,5.888-.076,5.41,3.73,5.41,6.827,0,23.8.187,47.6-.155,71.4-.068,4.726,1.862,5.822,7.9,5.79,36.9-.19,73.807-.095,110.712-.092,2.2,0,4.408.02,6.61.021,3.3,0,6.471.618,6.685,3.413.231,3.046-2.746,4.243-6.529,4.265-6.885.041-13.771.026-20.655.027Q513.628,628.948,491.734,628.942Z" transform="translate(-366 -298.119)" fill="#fefefd"/>
      </g>
    </g>
  </g>
</svg>
