<?xml version="1.0" encoding="utf-8"?>
<!-- Generator: Adobe Illustrator 16.0.0, SVG Export Plug-In . SVG Version: 6.00 Build 0)  -->
<!DOCTYPE svg PUBLIC "-//W3C//DTD SVG 1.1//EN" "http://www.w3.org/Graphics/SVG/1.1/DTD/svg11.dtd">
<svg version="1.1" id="Layer_1" xmlns="http://www.w3.org/2000/svg" xmlns:xlink="http://www.w3.org/1999/xlink" x="0px" y="0px"
	 width="430.145px" height="425.406px" viewBox="0 0 430.145 425.406" enable-background="new 0 0 430.145 425.406"
	 xml:space="preserve">
<g id="Group_7293" transform="translate(-2267.211 28172.408)">
	<g id="Group_7287" transform="translate(3012.211 388.385)">
		<path id="Path_19833" fill="#473080" d="M-470.672-28135.387h119.868c19.854,0,35.948-14.424,35.948-32.215v-305.518
			c0-17.793-16.095-32.217-35.948-32.217h-358.248c-19.853,0-35.948,14.424-35.948,32.217v305.518
			c0,17.791,16.1,32.215,35.948,32.215h124.227"/>
	</g>
</g>
<g id="Group_5919" transform="translate(815 28505.334)">
	<g id="Group_5912">
		<g id="Group_5911">
			<path id="Path_16705" fill="#FFFFFF" d="M-733.38-28505.334h266.821c6.417,0,11.619,5.203,11.619,11.619v156.227
				c-0.001,6.412-5.197,11.609-11.608,11.609h-266.84c-6.412,0-11.611-5.197-11.612-11.609v-156.227
				C-745-28500.131-739.797-28505.334-733.38-28505.334z"/>
			<path id="Path_16706" fill="#1CAEE4" d="M-732.168-28497.848h264.4c2.699,0,4.887,2.189,4.888,4.889v154.707
				c-0.001,2.699-2.188,4.887-4.888,4.889h-264.4c-2.699-0.002-4.888-2.189-4.888-4.889v-154.707
				C-737.056-28495.658-734.868-28497.848-732.168-28497.848L-732.168-28497.848z"/>
			<path id="Path_16707" fill="#009ADD" d="M-737.056-28358.066v20.1c0,2.699,2.189,4.887,4.888,4.889h264.4
				c2.699-0.002,4.887-2.189,4.888-4.889v-20.1H-737.056z"/>
		</g>
	</g>
	<g id="Group_5913" transform="translate(16.577 7.487)">
		<path id="Path_16708" fill="#27C1E6" d="M-744.995-28432.023c-0.013,49.902,40.432,90.367,90.335,90.379
			c49.903,0.014,90.368-40.43,90.381-90.334c0.007-29.07-13.973-56.369-37.565-73.355h-105.591
			C-731.032-28488.373-745.014-28461.084-744.995-28432.023z"/>
		<path id="Path_16709" fill="#009ADD" d="M-728.92-28432.023c-0.002,41.021,33.251,74.279,74.274,74.281
			c41.022,0.002,74.28-33.252,74.282-74.273c0.002-36.418-26.398-67.467-62.343-73.318h-23.871
			C-702.517-28499.479-728.915-28468.438-728.92-28432.023z"/>
		<circle id="Ellipse_2041" fill="#136DA0" cx="-654.644" cy="-28432.023" r="58.794"/>
		<circle id="Ellipse_2042" fill="#009ADD" cx="-654.644" cy="-28432.023" r="39.532"/>
		<circle id="Ellipse_2043" fill="#27C1E6" cx="-654.644" cy="-28432.023" r="23.99"/>
	</g>
	<g id="Group_5915" transform="translate(48.981 68.451)">
		<path id="Path_16710" fill="#FEDE3A" d="M-602.137-28427.379v43.557c0.002,3.729-1.104,7.373-3.178,10.473
			c-2.061,3.104-3.159,6.748-3.156,10.473v6.432h-77.184c-2.131,3.639-4.141,5.609-4,0c0.261-11.879-47.437-32.945-47.437-32.945
			l0.08-0.039c-6.609-2.75-9.737-10.336-6.988-16.945c2.57-6.178,9.421-9.383,15.812-7.396l26.4,8.178
			c1.061,0.328,2.188-0.266,2.516-1.326c0.059-0.193,0.089-0.393,0.089-0.594v-85.266c-0.087-6.203,4.419-11.518,10.553-12.447
			c6.64-0.875,12.731,3.799,13.605,10.438c0.069,0.525,0.104,1.053,0.104,1.582v53.768c0.002-5.236,3.366-9.881,8.342-11.518h0.02
			c0.339-0.125,0.689-0.219,1.045-0.281c0.224-0.066,0.452-0.113,0.683-0.141c0.099-0.023,0.199-0.037,0.3-0.039
			c0.216-0.059,0.439-0.084,0.663-0.082c0.36-0.039,0.723-0.059,1.085-0.059c0.342,0,0.683,0.02,1.005,0.039
			c0.189,0.016,0.377,0.043,0.563,0.08c1.082,0.121,2.139,0.406,3.136,0.844c0.364,0.146,0.72,0.314,1.065,0.5
			c0.342,0.182,0.663,0.383,0.985,0.584c0.335,0.213,0.651,0.455,0.945,0.723c0.302,0.246,0.591,0.508,0.864,0.785
			c0.287,0.264,0.549,0.553,0.784,0.863c0.505,0.594,0.943,1.242,1.307,1.93c0.181,0.322,0.342,0.664,0.5,1.006
			c0,0.02,0.02,0.02,0.02,0.041c0.623,1.496,0.944,3.102,0.945,4.723v6.031c0,0,0.04-0.564,0.08-1.408
			c0.543-4.693,3.769-8.643,8.261-10.111c0.3-0.1,0.6-0.18,0.925-0.262c0.241-0.059,0.481-0.119,0.724-0.16
			c0.332-0.066,0.668-0.115,1.006-0.141c0.381-0.041,0.763-0.061,1.146-0.061c0.342,0,0.683,0.021,1.005,0.041
			c0.2,0.02,0.4,0.039,0.6,0.08c0.324,0.027,0.646,0.074,0.965,0.141c0.343,0.08,0.701,0.182,1.025,0.281
			c0.281,0.1,0.563,0.182,0.824,0.299c0.2,0.082,0.4,0.162,0.583,0.242c0.218,0.086,0.427,0.195,0.623,0.322
			c0.747,0.361,1.442,0.822,2.069,1.365c0.303,0.246,0.592,0.508,0.865,0.785c0.261,0.262,0.521,0.543,0.783,0.844v0.02
			c0.23,0.27,0.445,0.551,0.643,0.844l0.121,0.182c0.182,0.281,0.363,0.564,0.523,0.865c0.016,0.016,0.023,0.037,0.02,0.059
			c0.971,1.768,1.477,3.754,1.468,5.77v6.029c-0.062-6.699,5.321-12.18,12.021-12.24s12.18,5.32,12.24,12.021
			c0.001,0.072,0.001,0.146,0,0.219L-602.137-28427.379z"/>
		<g id="Group_5914" transform="translate(54.165)">
			<path id="Path_16711" fill="#F7CB15" d="M-736.656-28493.203v46.189c0.001,4.182,3.392,7.572,7.574,7.572l0,0v-53.4
				c0.072-5.701-3.752-10.717-9.268-12.154c-2.198-0.535-4.501-0.441-6.649,0.268
				C-740.02-28503.094-736.655-28498.443-736.656-28493.203z"/>
			<path id="Path_16712" fill="#F7CB15" d="M-680.563-28433.41v6.029h-1.548c-3.33,0-6.03-2.699-6.03-6.029l0,0
				c0.004-5.24-3.362-9.887-8.342-11.518c0.3-0.1,0.601-0.182,0.925-0.262c0.241-0.061,0.482-0.121,0.725-0.16
				c0.331-0.068,0.667-0.115,1.004-0.143c0.381-0.039,0.764-0.059,1.146-0.059c0.342,0,0.684,0.02,1.005,0.039
				c0.2,0.02,0.4,0.041,0.601,0.08c0.324,0.027,0.646,0.074,0.965,0.143c0.342,0.078,0.699,0.18,1.025,0.279
				c0.28,0.1,0.563,0.182,0.823,0.301c0.2,0.08,0.4,0.16,0.583,0.24c0.218,0.088,0.426,0.195,0.623,0.322
				c0.747,0.363,1.443,0.822,2.07,1.367c0.303,0.244,0.59,0.506,0.863,0.783c0.262,0.262,0.523,0.543,0.785,0.844v0.021
				c0.229,0.268,0.444,0.551,0.643,0.844l0.121,0.182c0.181,0.281,0.361,0.563,0.522,0.863c0.016,0.016,0.022,0.039,0.021,0.061
				C-681.061-28437.414-680.555-28435.428-680.563-28433.41z"/>
			<path id="Path_16713" fill="#F7CB15" d="M-704.825-28439.439v6.029h-1.548c-3.33,0-6.03-2.699-6.03-6.029l0,0
				c-0.008-5.23-3.359-9.869-8.322-11.518c0.339-0.125,0.689-0.219,1.045-0.281c0.224-0.066,0.452-0.113,0.683-0.141
				c0.099-0.023,0.199-0.037,0.3-0.041c0.216-0.057,0.439-0.084,0.663-0.08c0.36-0.039,0.723-0.061,1.085-0.061
				c0.342,0,0.683,0.021,1.005,0.041c0.189,0.016,0.377,0.041,0.563,0.078c1.082,0.123,2.139,0.406,3.136,0.846
				c0.364,0.146,0.72,0.313,1.065,0.5c0.342,0.182,0.663,0.381,0.985,0.582c0.335,0.213,0.651,0.457,0.945,0.725
				c0.302,0.246,0.591,0.508,0.864,0.783c0.287,0.264,0.549,0.553,0.784,0.865c0.505,0.594,0.943,1.24,1.307,1.93
				c0.181,0.322,0.342,0.662,0.5,1.004c0,0.021,0.02,0.021,0.02,0.041C-705.15-28442.668-704.827-28441.063-704.825-28439.439z"/>
			<path id="Path_16714" fill="#F7CB15" d="M-739.82-28356.455h-4.01C-743.953-28350.844-741.957-28352.816-739.82-28356.455z"/>
			<path id="Path_16715" fill="#F7CB15" d="M-668.431-28439.52c-1.287,0-2.564,0.207-3.787,0.611
				c4.978,1.635,8.342,6.281,8.344,11.52v43.57c0,3.729-1.104,7.373-3.172,10.475s-3.172,6.746-3.172,10.473v6.418h7.574v-6.418
				c0-3.727,1.104-7.371,3.172-10.473s3.172-6.746,3.172-10.475v-43.57C-656.3-28434.088-661.732-28439.52-668.431-28439.52z"/>
		</g>
		<path id="Path_16716" fill="#F7CB15" d="M-743.975-28406.436c-0.167,0.393-0.314,0.793-0.44,1.201
			c-1.978,6.385,1.224,13.227,7.393,15.799l-0.062,0.047c0,0,47.681,21.053,47.419,32.932c-0.123,5.611,1.871,3.639,4.01,0h77.176
			v-6.418c0-3.727,1.104-7.371,3.172-10.473s3.172-6.746,3.172-10.475v-10.049
			C-602.135-28363.004-730.401-28381.854-743.975-28406.436z"/>
		<path id="Path_16717" fill="#FFFFFF" d="M-597.618-28348.393v33.057c0,4.453-3.609,8.061-8.062,8.063h-86.946
			c-4.452-0.002-8.062-3.609-8.062-8.063v-33.057c0-4.453,3.61-8.063,8.062-8.063h86.945
			C-601.227-28356.455-597.618-28352.846-597.618-28348.393z"/>
		<path id="Path_16718" fill="#D1D3D4" d="M-613.743-28348.393v33.057c0,4.453-3.609,8.061-8.062,8.063h16.128
			c4.451-0.002,8.061-3.609,8.062-8.063v-33.057c-0.001-4.453-3.61-8.063-8.062-8.063h-16.128
			C-617.352-28356.455-613.743-28352.846-613.743-28348.393z"/>
	</g>
	<path id="Path_16719" fill="#009ADD" d="M-484.088-28426.418c-0.258-2.547-0.771-5.059-1.53-7.5
		c-0.374-1.201-0.805-2.379-1.292-3.531c-8.271-19.551-30.824-28.695-50.375-20.426c-9.205,3.895-16.531,11.221-20.425,20.426
		c-0.487,1.15-0.917,2.328-1.292,3.531c-0.759,2.441-1.271,4.953-1.53,7.5c-0.132,1.305-0.199,2.615-0.2,3.926v7.059
		c0,21.219,17.201,38.42,38.421,38.42c21.219,0,38.421-17.201,38.421-38.42v-7.059
		C-483.888-28423.803-483.953-28425.113-484.088-28426.418z"/>
	<g id="Group_5918" transform="translate(184.27 36.382)">
		<g id="Group_5916">
			<path id="Path_16720" fill="#E43D91" d="M-745-28459.857c0,21.219,17.201,38.42,38.42,38.42c21.22,0,38.421-17.201,38.421-38.42
				l0,0v-7.057c0-21.219-17.201-38.42-38.421-38.42c-21.219,0-38.42,17.201-38.42,38.42V-28459.857z"/>
			<circle id="Ellipse_2044" fill="#EF5A9D" cx="-706.581" cy="-28466.914" r="38.42"/>
		</g>
		<g id="Group_5917" transform="translate(27.54 20.724)">
			<path id="Path_16721" fill="#E43D91" d="M-744.999-28469.879v-25.084c-0.002-2.449,1.98-4.436,4.429-4.438
				c0.932,0,1.84,0.293,2.596,0.838l17.4,12.539c1.985,1.434,2.435,4.203,1.003,6.189c-0.278,0.387-0.617,0.725-1.003,1.004
				l-17.4,12.541c-1.985,1.432-4.755,0.984-6.188-1.002C-744.706-28468.045-744.999-28468.949-744.999-28469.879z"/>
			<path id="Path_16722" fill="#FFFFFF" d="M-744.999-28475.813v-25.086c-0.002-2.449,1.98-4.436,4.429-4.438
				c0.932,0,1.84,0.293,2.596,0.836l17.4,12.541c1.985,1.432,2.435,4.203,1.003,6.189c-0.278,0.387-0.617,0.725-1.003,1.004
				l-17.4,12.539c-1.985,1.434-4.755,0.984-6.188-1C-744.705-28473.98-744.998-28474.883-744.999-28475.813z"/>
			<path id="Path_16723" fill="#D1D3D4" d="M-720.576-28488.188l-17.4,12.539c-1.986,1.434-4.757,0.982-6.188-1.004
				c-0.545-0.754-0.838-1.664-0.838-2.596v3.43c-0.002,2.447,1.981,4.436,4.43,4.436c0.932,0.002,1.84-0.291,2.596-0.836
				l17.4-12.541c1.671-1.209,2.282-3.414,1.473-5.311C-719.409-28489.318-719.919-28488.666-720.576-28488.188z"/>
		</g>
	</g>
</g>
</svg>
