<?xml version="1.0" encoding="utf-8"?>
<!-- Generator: Adobe Illustrator 16.0.0, SVG Export Plug-In . SVG Version: 6.00 Build 0)  -->
<!DOCTYPE svg PUBLIC "-//W3C//DTD SVG 1.1//EN" "http://www.w3.org/Graphics/SVG/1.1/DTD/svg11.dtd">
<svg version="1.1" id="Layer_1" xmlns="http://www.w3.org/2000/svg" xmlns:xlink="http://www.w3.org/1999/xlink" x="0px" y="0px"
	 width="312.377px" height="157.408px" viewBox="0 0 312.377 157.408" enable-background="new 0 0 312.377 157.408"
	 xml:space="preserve">
<g id="Group_4061">
	<path id="Path_14117" fill="#FED25E" d="M67.102,47.19h-4.281c-3.447,0-6.893-0.009-10.34,0c-3.479-0.039-6.856,1.178-9.51,3.429
		c-1.912,1.578-3.365,3.639-4.207,5.97c-0.074,0.334-0.398,0.55-0.735,0.489c-2.434-0.016-4.868-0.008-7.3-0.008
		c-3.367-0.102-6.18,2.545-6.282,5.913c-0.003,0.12-0.003,0.24,0,0.36c0,8.036,0,16.072,0,24.106
		c-0.083,3.375,2.586,6.176,5.96,6.258c0.097,0.004,0.193,0.004,0.291,0.002h25.777c3.368,0.055,6.145-2.631,6.2-6
		c0.001-0.068,0.001-0.139,0-0.209c0-8.085,0-16.169,0-24.254c0.013-0.49-0.044-0.979-0.17-1.453
		c-0.1-0.356-0.062-0.482,0.353-0.471c1.11,0.029,2.221,0.01,3.332,0.01c3.006,0,6.011,0.006,9.017-0.008
		c0.367,0,0.529,0.075,0.515,0.477c-0.019,0.537,0.037,1.076,0.037,1.614c0,8.019,0,16.039,0,24.057
		c0.092,5.131-1.93,10.072-5.591,13.668c-3.489,3.627-8.315,5.662-13.348,5.629c-8.837,0.033-17.674,0.01-26.512,0.01
		c-7.99-0.086-15.091-5.115-17.821-12.625c-0.759-2.141-1.143-4.396-1.137-6.67c0.008-8.064,0.008-16.133,0-24.204
		c-0.059-8.208,5.116-15.543,12.869-18.24c1.956-0.698,4.017-1.055,6.094-1.054c8.788-0.004,17.576-0.004,26.365,0
		c3.512-0.003,6.955,0.977,9.94,2.829c0.125,0.076,0.247,0.159,0.368,0.242C67.029,47.098,67.067,47.142,67.102,47.19z"/>
	<path id="Path_14118" fill="#FFFFFF" d="M154.517,77.408c0-9.244-0.004-18.488-0.01-27.732c0-0.44,0.1-0.554,0.549-0.552
		c4.018,0.019,8.036,0.019,12.055,0c0.408,0,0.5,0.1,0.5,0.5c-0.012,14.667-0.02,29.333-0.023,43.999c0,0.5,0.117,0.605,0.607,0.6
		c8.754-0.018,17.508-0.008,26.264-0.023c0.449,0,0.549,0.115,0.547,0.555c-0.018,3.51-0.018,7.021,0,10.533
		c0,0.377-0.1,0.447-0.457,0.445c-13.199-0.008-26.397-0.008-39.593,0c-0.438,0-0.444-0.178-0.444-0.506
		C154.521,95.957,154.522,86.683,154.517,77.408z"/>
	<path id="Path_14119" fill="#FFFFFF" d="M51.977,92.207h-0.545c-3.708,0-7.416-0.004-11.124,0.008
		c-0.369,0-0.484-0.074-0.484-0.469c0.012-10.012,0.016-20.023,0.012-30.036c-0.031-6.164,4.461-11.419,10.555-12.348
		c0.482-0.081,0.971-0.123,1.461-0.125c13.982-0.006,27.965-0.008,41.948-0.005h0.347c-0.575,1.051-1.259,2.04-2.039,2.949
		c-3.287,3.943-7.973,6.461-13.076,7.025c-0.697,0.081-1.398,0.12-2.1,0.116c-6.583,0.008-13.167,0.008-19.749,0
		c-3.864-0.125-7.098,2.905-7.224,6.77c-0.002,0.059-0.003,0.118-0.003,0.177c-0.075,7.039-0.033,14.079-0.011,21.116
		C49.971,89.195,50.699,90.923,51.977,92.207z"/>
	<path id="Path_14120" fill="#FED25E" d="M131.181,87.234c0.691,0.779,1.377,1.561,2.073,2.334c2.047,2.277,4.097,4.551,6.149,6.82
		c0.119,0.133,0.262,0.244,0.393,0.365c1.965,2.18,3.929,4.359,5.894,6.537c0.718,0.797,1.438,1.592,2.162,2.389
		c-0.146,0.154-0.3,0.086-0.432,0.086c-3.801,0-7.606,0-11.409,0.01c-0.29,0.016-0.569-0.109-0.75-0.336
		c-0.853-0.965-1.731-1.9-2.601-2.85c-0.525-0.701-1.099-1.363-1.716-1.984c-2.133-2.389-4.292-4.754-6.441-7.127
		c-0.025-0.02-0.055-0.035-0.084-0.047c-0.269-0.123-0.5-0.314-0.672-0.555c-2.176-2.428-4.363-4.844-6.563-7.252
		c-0.518-0.563-1.008-1.152-1.529-1.715c-0.14-0.15-0.367-0.301-0.259-0.533s0.369-0.168,0.573-0.168
		c3.345-0.006,6.69-0.006,10.036,0c0.194,0.016,0.391,0.016,0.586,0c0.776-0.115,1.548,0.24,1.966,0.904
		c0.729,0.9,1.527,1.738,2.311,2.59C131.029,86.841,131.139,87.027,131.181,87.234z"/>
	<path id="Path_14121" fill="#FFFFFF" d="M70.754,104.386c1.422-0.977,2.67-2.184,3.693-3.572c1.337-1.816,2.238-3.916,2.632-6.137
		c0.041-0.23,0.08-0.385,0.382-0.367c6.917,0.199,13.228,3.994,16.648,10.008c0.006,0.01-0.005,0.029-0.014,0.068H70.754z"/>
	<path id="Path_14122" fill="#FFFFFF" d="M254.49,49.125c-0.006,0.163-0.02,0.325-0.02,0.488c0,18.527,0,37.053,0,55.58
		c0,0.162,0.014,0.324,0.02,0.488c0.033,0.01,0.045,0.025,0.041,0.045c-0.006,0.018-0.014,0.033-0.021,0.033
		c-0.211-0.186-0.1-0.432-0.1-0.645c-0.006-17.973-0.008-35.943-0.006-53.915c0-0.539,0-1.077,0-1.616
		C254.404,49.433,254.342,49.258,254.49,49.125z"/>
	<path id="Path_14123" fill="#FFFFFF" d="M267.537,105.685c0.006-0.199,0.02-0.391,0.02-0.586c0-5.691-0.004-11.383-0.012-17.074
		c0-0.449,0.117-0.559,0.561-0.555c2.479,0.021,4.957,0.008,7.436,0.014c0.17,0,0.359-0.074,0.512,0.074
		c-2.645,0-5.289,0.006-7.934-0.016c-0.434,0-0.5,0.15-0.5,0.535c0.01,5.697,0.01,11.395,0,17.092c0,0.199,0.1,0.428-0.105,0.596
		c-0.023-0.025-0.029-0.045-0.016-0.059C267.508,105.693,267.521,105.685,267.537,105.685z"/>
	<path id="Path_14124" fill="#FFFFFF" d="M286.852,105.683h14.799c-0.115,0.18-0.299,0.094-0.445,0.094
		c-4.613,0.006-9.229,0.006-13.844,0C287.188,105.779,286.996,105.837,286.852,105.683z"/>
	<path id="Path_14125" fill="#FFFFFF" d="M267.539,105.685c-0.008,0.025-0.014,0.053-0.02,0.078
		c-2.658,0.006-5.314,0.012-7.973,0.018c-1.68,0-3.359-0.012-5.037-0.018c-0.006-0.025-0.012-0.053-0.02-0.078H267.539z"/>
	<path id="Path_14126" fill="#FFFFFF" d="M301.486,105.335c-3.979-6.732-7.959-13.467-11.941-20.199
		c-0.158-0.266-0.301-0.43,0.107-0.662c6.438-3.699,9.592-11.441,8.699-18.298c-0.725-5.576-3.752-10.593-8.35-13.831
		c-2.799-2.051-6.17-3.175-9.641-3.215c-8.561-0.027-17.117-0.013-25.676-0.015c-0.066,0-0.131,0.011-0.195,0.017
		c-0.053,0.172-0.066,0.354-0.041,0.532c0,18.501,0,37,0,55.5c-0.025,0.178-0.012,0.359,0.039,0.531
		c0.125,0.039,0.256,0.051,0.387,0.035c4.094,0,8.189,0,12.283,0c0.131,0.02,0.262,0.006,0.385-0.041
		c0.047-0.189,0.059-0.387,0.035-0.582c0-5.701-0.004-11.4-0.008-17.1c0-0.4,0.1-0.52,0.512-0.518
		c2.514,0.02,5.031,0.01,7.545,0.012c0.143,0,0.295-0.043,0.428,0.053c0.387,0.643,0.777,1.283,1.162,1.926
		c3.211,5.4,6.422,10.801,9.633,16.201c0.135,0.057,0.285,0.072,0.43,0.045c4.645,0,9.291,0,13.936,0
		c0.145,0.025,0.295,0.01,0.43-0.045C301.598,105.564,301.545,105.449,301.486,105.335z M285.074,68.837
		c0.053,2.316-0.906,4.54-2.629,6.089c-0.705,0.637-1.602,1.02-2.551,1.087c-0.111,0.029-0.227,0.038-0.34,0.027h-11.543
		c-0.131,0.019-0.264,0.006-0.387-0.039l0,0c-0.049-0.156-0.063-0.321-0.039-0.482c0-4.775,0-9.551,0-14.326
		c0-0.158-0.051-0.327,0.057-0.474l-0.012-0.012c0.104-0.05,0.221-0.066,0.332-0.046h11.238c0.098-0.01,0.195,0.001,0.289,0.032
		c1.922,0.291,3.6,1.464,4.531,3.171c0.701,1.179,1.066,2.528,1.055,3.9c0.082,0.352,0.082,0.717,0,1.069L285.074,68.837z"/>
	<path id="Path_14127" fill="#FFFFFF" d="M267.643,60.71c-0.004,4.375-0.008,8.751-0.012,13.127c0,0.718,0,1.437-0.006,2.155
		c-0.115-0.145-0.061-0.315-0.061-0.472c-0.004-4.785-0.004-9.569,0-14.354C267.564,61.015,267.486,60.839,267.643,60.71z"/>
	<path id="Path_14128" fill="#FFFFFF" d="M267.627,75.996l12.268,0.013c-0.135,0.058-0.285,0.075-0.43,0.049
		c-3.805,0-7.609,0-11.414,0C267.908,76.057,267.752,76.106,267.627,75.996z"/>
	<path id="Path_14129" fill="#FFFFFF" d="M279.488,60.683l-11.857,0.015c0.133-0.14,0.307-0.087,0.463-0.087
		c3.641,0,7.283,0,10.924,0C279.176,60.611,279.348,60.568,279.488,60.683z"/>
	<path id="Path_14130" fill="#FFFFFF" d="M285.074,68.837c0-0.359,0-0.718,0-1.077C285.221,68.104,285.221,68.493,285.074,68.837z"
		/>
	<path id="Path_14131" fill="#FFFFFF" d="M146.668,73.045c-0.881-6.108-3.729-11.763-8.115-16.105
		c-6.8-6.781-15.048-9.437-24.477-7.754c-9.284,1.657-15.99,7.011-20.263,15.365c-2.818,5.456-3.738,11.694-2.615,17.73
		c1.014,6.287,4.09,12.061,8.744,16.408c5.291,5.092,12.447,7.777,19.781,7.422c3.33-0.107,6.615-0.801,9.706-2.045
		c1.1-0.438,2.14-1.012,3.229-1.477c0.101-0.199-0.063-0.299-0.165-0.418c-1.115-1.277-2.263-2.527-3.399-3.783
		c-1.438-1.582-2.846-3.189-4.312-4.746c-0.114-0.121-0.21-0.266-0.399-0.27c0.01,0.02,0.02,0.041,0.03,0.061
		c-1.127,0.51-2.333,0.824-3.566,0.928c-2.632,0.363-5.313-0.006-7.749-1.063c-3.579-1.602-6.337-4.609-7.622-8.314
		c-2.158-5.45-1.862-11.568,0.812-16.786c1.752-3.852,5.244-6.631,9.39-7.475c8.281-1.691,14.365,2.976,16.74,9.332
		c1.59,4.2,1.757,8.807,0.476,13.111c-0.392,1.424-0.969,2.793-1.715,4.068l-0.05-0.055l0,0c-0.006,0.148,0.057,0.293,0.17,0.391
		c0.969,1.057,1.927,2.125,2.888,3.189c0.753,0.836,1.521,1.658,2.265,2.5c0.98,1.113,2.01,2.182,2.973,3.311
		c0.092,0.107,0.199,0.229,0.371,0.18c0.028-0.041,0.053-0.082,0.084-0.119C145.62,90.214,148.12,81.529,146.668,73.045z"/>
	<path id="Path_14132" fill="#FFFFFF" d="M248.771,105.232c-0.469-1.162-0.873-2.348-1.301-3.525
		c-6.346-17.4-12.689-34.799-19.031-52.199c-0.051-0.254-0.295-0.421-0.551-0.378c-3.609,0.011-7.221,0.018-10.83-0.006
		c-0.367-0.057-0.713,0.187-0.783,0.552c-4.287,11.794-8.582,23.585-12.885,35.373c-2.459,6.742-4.924,13.48-7.395,20.219
		c-0.148,0.406-0.068,0.475,0.342,0.475c4.166-0.014,8.332-0.014,12.5,0c0.258,0.047,0.508-0.119,0.563-0.377
		c1.334-3.965,2.684-7.922,4.018-11.887c0.102-0.301,0.219-0.428,0.566-0.428c5.586,0.014,11.172,0.014,16.758,0
		c0.258-0.041,0.502,0.135,0.545,0.393c1.354,3.957,2.732,7.908,4.088,11.865c0.057,0.289,0.332,0.48,0.623,0.432
		c2.074-0.018,4.148-0.01,6.225-0.01c2.057,0,4.115-0.008,6.174,0.008C248.809,105.742,248.969,105.722,248.771,105.232z
		 M215.648,84.009l6.74-19.899l6.582,19.899H215.648z"/>
</g>
</svg>
