<svg xmlns="http://www.w3.org/2000/svg" width="1919.999" height="2368.103" viewBox="0 0 1919.999 2368.103">
  <path id="Union_12" data-name="Union 12" d="M1446.2,7064.538c-107.241-11.682-210.751-39.862-351.011-98.572-29.54-12.365-69.515-28.667-122.942-46.527-16.667-5.569-55-16.321-55-16.321s-67.2-13.88-125.5-11.906S645.42,6912.5,645.42,6912.5s-105.493,35.43-161.824,53.471-131.025,26.4-131.025,26.4-104.539,11.261-199.987-2.216S-40,6938.782-40,6938.782V6117.175h0V4702.3s190.753-14.559,502.157,83.1c142.583,44.718,347.257,30.229,452.819,0,.2-.059.386-.112.587-.167l.111-.033c.169-.048.316-.089.485-.14l.114-.03c.179-.053.35-.1.529-.152l.063-.018.606-.172.029-.008.562-.159.082-.023c55.119-15.623,112.071-27.618,165.2-37.03l.009,0,3.563-.628c.036-.006.077-.012.114-.02l1.127-.2.063-.01.49-.087.152-.025.41-.072.14-.025c.353-.06.7-.122,1.057-.184.106-.018.215-.037.321-.057.058-.008.108-.018.164-.026l.336-.059.229-.041.471-.082.3-.051.336-.058c.048-.01.082-.014.13-.023l.393-.067c.019,0,.044-.008.063-.01.58-.1,1.164-.2,1.743-.3l.108-.02c44.49-7.654,85.948-13.512,120.951-18.214l-.01,0c42.493-5.71,75.481-9.715,92.831-13.156,50.084-9.938,233.872-9.938,349.316,0S1880,4750.116,1880,4750.116V6167.278l-.094.014c-.179.028-.613.1-1.306.2V7013.7s-148.4,55.936-336.341,55.944A887.141,887.141,0,0,1,1446.2,7064.538Z" transform="translate(40 -4701.537)" fill="#4a7ced" opacity="0.82"/>
</svg>
