<?xml version="1.0" encoding="utf-8"?>
<!-- Generator: Adobe Illustrator 16.0.0, SVG Export Plug-In . SVG Version: 6.00 Build 0)  -->
<!DOCTYPE svg PUBLIC "-//W3C//DTD SVG 1.1//EN" "http://www.w3.org/Graphics/SVG/1.1/DTD/svg11.dtd">
<svg version="1.1" id="Layer_1" xmlns="http://www.w3.org/2000/svg" xmlns:xlink="http://www.w3.org/1999/xlink" x="0px" y="0px"
	 width="1682px" height="538px" viewBox="898.5 496.5 1682 538" enable-background="new 898.5 496.5 1682 538" xml:space="preserve"
	>
<g id="Group_3560" transform="translate(-66.429 8666.085)">
	<g id="Group_3336" transform="translate(263.605 2974.868)">
		<g id="Group_3175" transform="translate(0 0)">
			<g id="Group_3174">
				<path id="Path_11864" fill="#DFB808" d="M2170.277-10746.974c-140.75,31.933-281.504,63.866-422.264,95.8
					c-19.391,4.399-38.795,8.736-58.187,13.141c-0.745,0.257-1.456,0.604-2.117,1.032h-3.711
					c4.47-14.394,11.227-27.946,16.907-41.894c9.186-22.543,18.567-45.014,27.866-67.513c3.354-2.752,7.44-1.867,11.254-1.867
					c83.394-0.053,166.806,0.815,250.185-0.34c56.415-0.78,112.812-0.407,169.213-0.816
					C2163.14-10749.459,2167.378-10750.619,2170.277-10746.974z"/>
				<path id="Path_12127" fill="#FCD009" d="M2282.435-10771.473c-20.458-0.095-40.923-0.242-61.392-0.262
					c-46.26-0.041-92.524-0.35-138.782,0.054c-120.686,1.054-241.377,0.147-362.058,0.5c-2.652,0.006-5.3,0.181-7.956,0.279
					c-33.005,0-66.008,0-99.008,0c-142.95,0-285.903,0.004-428.861,0.012c-138.15,0.028-276.306,0.137-414.467,0.324
					c-8.227,0.014-9.933-1.608-9.913-7.44c0.267-88.019,0.271-176.038,0.014-264.06c-0.014-5.448,1.908-6.826,9.228-6.639
					c77.361,1.941,154.726,3.741,232.091,5.399c47.32,1.077,94.64,2.157,141.958,3.24c90.638,2.188,181.271,4.403,271.9,6.644
					c44.132,1.049,88.274,1.76,132.399,2.775c60.336,1.382,120.658,2.954,180.983,4.355c74.445,1.728,148.888,3.406,223.325,5.036
					c50.771,1.155,101.537,2.332,152.3,3.531c50.241,1.171,100.481,2.349,150.722,3.536c8.5,0.207,16.991,0.724,25.492,0.732
					c4.411,0,5.265,1.367,5.23,4.239c-0.441,41.156-0.818,82.313-1.133,123.469c-0.166,19.209-0.375,38.415-0.5,57.618
					c-0.128,17.251-1.056,33.479-1.229,50.729C2282.772-10775.765,2282.435-10771.473,2282.435-10771.473z"/>
				<path id="Path_12128" fill="#DFB808" d="M917.395-10735.588"/>
				<path id="Path_12129" fill="#DFB808" d="M2110.379-10734.63l172.385-36.854l-1517.225-0.135L2110.379-10734.63z"/>
			</g>
		</g>
	</g>
</g>
</svg>
