<svg xmlns="http://www.w3.org/2000/svg" width="412.009" height="794.827" viewBox="0 0 412.009 794.827">
  <g id="confusing_man" data-name="confusing man" transform="translate(-124.19 18.462)">
    <g id="Group_5119" data-name="Group 5119" transform="translate(124.19 17.538)">
      <g id="q" transform="translate(357.75 -36)">
        <path id="svg_16" d="M335.257,80.589V76.008a24.421,24.421,0,0,1,.657-5.855,20.235,20.235,0,0,1,2.054-4.992,23.606,23.606,0,0,1,3.513-4.6,48.027,48.027,0,0,1,5.177-4.643c1.767-1.4,3.266-2.63,4.478-3.739a19.346,19.346,0,0,0,2.979-3.246,11.754,11.754,0,0,0,1.643-3.39,15.327,15.327,0,0,0,.493-4.109,7.889,7.889,0,0,0-2.424-5.937,10.375,10.375,0,0,0-7.375-2.424,27.22,27.22,0,0,0-9.368,1.849A101.67,101.67,0,0,0,326.691,39.4L320.24,25.43a61.06,61.06,0,0,1,5.916-3,65.23,65.23,0,0,1,6.635-2.527,51.354,51.354,0,0,1,6.964-1.726,38.681,38.681,0,0,1,6.964-.637,40.86,40.86,0,0,1,11.628,1.541,25.145,25.145,0,0,1,8.772,4.52,19.783,19.783,0,0,1,5.444,7.211,22.886,22.886,0,0,1,1.931,9.655,25.887,25.887,0,0,1-.883,7.108,20.975,20.975,0,0,1-2.629,5.834,28.576,28.576,0,0,1-4.355,5.177,79.941,79.941,0,0,1-6.163,5.28q-2.65,2.054-4.314,3.636a17.3,17.3,0,0,0-2.629,2.938,8.362,8.362,0,0,0-1.294,2.876,15.861,15.861,0,0,0-.349,3.513v3.78l-16.619-.021ZM333.2,102.2a12.921,12.921,0,0,1,.842-5.013,8.505,8.505,0,0,1,2.362-3.328,9.532,9.532,0,0,1,3.575-1.828,16,16,0,0,1,4.4-.575,14.894,14.894,0,0,1,4.109.575,9.327,9.327,0,0,1,3.492,1.828,8.813,8.813,0,0,1,2.4,3.328,12.511,12.511,0,0,1,.883,5.013,12.06,12.06,0,0,1-.883,4.869,9.408,9.408,0,0,1-2.4,3.349,9.531,9.531,0,0,1-3.492,1.931,14.894,14.894,0,0,1-4.109.6,16,16,0,0,1-4.4-.6,9.716,9.716,0,0,1-3.574-1.931,9.08,9.08,0,0,1-2.28-3.349,12.447,12.447,0,0,1-.945-4.869h.02Z" transform="translate(-320.24 -17.538)" fill="#fff"/>
      </g>
      <g id="man" transform="translate(0 17.884)">
        <g id="svg_17">
          <g id="h2" transform="translate(0 111.424)">
            <path id="svg_18" d="M173.764,181.574a25.781,25.781,0,0,1,3.806,7.561,9.325,9.325,0,0,1,.227,5.192,21.169,21.169,0,0,1-10.761,12.954c-4.788,2.016-8.745-1.084-11.542-7.561s1.058-39.794,1.058-39.794l20.162-8.342-4.259,28.781a5.518,5.518,0,0,1,1.386,1.361" transform="translate(-92.261 -5.52)" fill="#d65d24"/>
            <path id="svg_19" d="M154.1,151.294s-.151,5.04,0,10.081.3,10.434,1.134,11.543c1.159,1.588,13.307,1.184,21.245.151,1.134-7.561,2.193-14.214,3.1-20.162-6.956-2.923-18.3-6.351-25.378-1.638" transform="translate(-92.731 -8.306)" fill="#d9c6ba"/>
            <path id="svg_20" d="M149.879,200.628s7.737-24.723,19.91-30.242,23.589,9.249,24.194,22.228l-6.174.932s-2.52-18.221-12.047-17.919-18.221,25.026-18.221,25.026l-7.661-.025Z" transform="translate(-97.106 13.051)" fill="#3b1c3b" stroke="#000" stroke-width="1"/>
            <path id="svg_21" d="M254.837,195.748l-3.806,74.522A5.721,5.721,0,0,1,247,275.436c-16.684,5.217-82.94,25.782-96.65,29.159l-2.823.655a15.721,15.721,0,0,1-2.52.4c-7.561.428-19.406-1.613-20.691-8.443s7.712-89.013,9.753-97.028c1.411-5.544,6.4-6.1,12.248-7.258,4.209-.857,59.729-9.35,90.1-13.987a16.079,16.079,0,0,1,18.5,16.734" transform="translate(-124.19 23.125)" fill="#3b1c3b"/>
            <path id="svg_22" d="M147.6,196.313c-1.462,24.421-5.494,62.173-9.224,91.307l-2.823.655c3.755-29.411,7.762-67.34,9.3-92.038,0-1.789,2.873-1.714,2.747,0" transform="translate(-112.214 40.175)" fill="#766678" stroke="#000" stroke-width="1"/>
            <path id="svg_23" d="M131.893,187.353c-1.739.277-1.563,3.049.2,2.772a14.92,14.92,0,0,1,17.793,14.441c0,1.789,2.848,1.563,2.772-.2a17.641,17.641,0,0,0-20.766-17.011" transform="translate(-117.352 31.898)" fill="#766678" stroke="#000" stroke-width="1"/>
            <path id="svg_24" d="M190.759,188.82c-1.462,24.421-3.73,49.774-7.561,78.933-1.008.3-1.966.655-2.8.882,3.73-29.411,5.973-55.192,7.561-79.915,0-1.764,2.873-1.689,2.747,0" transform="translate(-64.926 32.269)" fill="#766678" stroke="#000" stroke-width="1"/>
            <path id="svg_25" d="M175.928,179.857c-1.764.277-1.563,3.049.2,2.772a14.945,14.945,0,0,1,17.793,14.441c0,1.789,2.823,1.563,2.772-.227a17.641,17.641,0,0,0-20.766-16.986" transform="translate(-70.936 23.995)" fill="#766678" stroke="#000" stroke-width="1"/>
            <path id="svg_26" d="M153.431,187.032l-6.653-2.8a1.386,1.386,0,0,0-1.059,2.52l6.628,2.772a1.386,1.386,0,0,0,1.084-2.52" transform="translate(-102.171 28.866)" fill="#766678" stroke="#000" stroke-width="1"/>
            <path id="svg_27" d="M157.022,186.325l-6.628-2.772a1.386,1.386,0,0,0-1.084,2.52l6.628,2.772a1.386,1.386,0,0,0,1.084-2.52" transform="translate(-98.403 28.137)" fill="#766678" stroke="#000" stroke-width="1"/>
            <path id="svg_28" d="M175.73,184.264l-6.628-2.772a1.386,1.386,0,0,0-1.084,2.52l6.628,2.772a1.386,1.386,0,0,0,1.084-2.52" transform="translate(-78.678 25.964)" fill="#766678" stroke="#000" stroke-width="1"/>
            <path id="svg_29" d="M179.312,183.589l-6.628-2.772a1.386,1.386,0,0,0-1.084,2.52l6.653,2.772a1.386,1.386,0,0,0,1.058-2.52" transform="translate(-74.902 25.252)" fill="#766678" stroke="#000" stroke-width="1"/>
            <path id="svg_30" d="M194.508,144.539c-13.66,18.927-43.625,86.695-42.314,87.98a4.234,4.234,0,0,0,1.815.454l2.52.227c8.72.58,27.369.479,28.05-.277s9.955-21.018,14.642-31.376c1.411-3.1,7.561-15.928,7.737-16.532,0,0,69.583-40.147,78.706-47.077,21.976-16.684,17.969-37.072,9.8-48.438-23.236-32.384-83.721,31.074-101.035,55.041" transform="translate(-94.71 -80.483)" fill="#3f5f8f"/>
            <path id="svg_31" d="M169.517,139.795c-1.512,7.561-3.68,19.884-5.04,28.2-1.084-.176-2.016-.378-2.747-.554,1.361-8.317,3.5-20.59,5.04-27.949.353-1.764,3.125-1.462,2.747.3" transform="translate(-84.612 -19.513)" fill="#3b1c3b" stroke="#000" stroke-width="1"/>
            <path id="svg_32" d="M166.826,147.7a4.587,4.587,0,0,0-1.361,5.318,3.554,3.554,0,0,0,4.612,1.185,3.881,3.881,0,0,0,2.067-1.941,4.335,4.335,0,0,0-.454-4.209,3.3,3.3,0,0,0-4.864-.353m2.823,2.52a1.411,1.411,0,0,1-.454,1.411.857.857,0,0,1-1.033,0c-.5-.454-.2-1.361.151-1.789a.733.733,0,0,1,1.336.252" transform="translate(-81.038 -10.564)" fill="#3b1c3b" stroke="#000" stroke-width="1"/>
            <path id="svg_33" d="M167.856,142.553a4.587,4.587,0,0,0-1.361,5.318,3.554,3.554,0,0,0,4.612,1.185,3.881,3.881,0,0,0,2.067-1.941,4.335,4.335,0,0,0-.454-4.209,3.3,3.3,0,0,0-4.864-.353m2.823,2.52a1.411,1.411,0,0,1-.454,1.411.857.857,0,0,1-1.033,0c-.5-.454-.2-1.361.151-1.789a.733.733,0,0,1,1.336.252" transform="translate(-79.952 -15.995)" fill="#3b1c3b" stroke="#000" stroke-width="1"/>
          </g>
          <path id="svg_34" d="M200.05,339.145l-13.281,57.586s-1.815,6.275-22.279-.806l10.081-56.805Z" transform="translate(-81.701 303.63)" fill="#d65d24"/>
          <path id="svg_35" d="M166.618,368.107s-5.04,18.8-4.007,25.2a7.208,7.208,0,0,0,7.309,6.427,65.375,65.375,0,0,0,19.38-2.092c19-5.04,35.283-9.652,45.666-15.524,3.78-2.167-.68-7.787-8.569-7.561-13.937.252-33.342,2.646-35.434-1.033a22.1,22.1,0,0,1-1.21-8.14,90.113,90.113,0,0,1-10.257,2.394,54.086,54.086,0,0,1-12.878.5" transform="translate(-83.83 331.322)" fill="#3b1c3b"/>
          <path id="svg_36" d="M263.456,340.923l2.848,58.544s0,9.249-21.749,4.914L238.783,347.4l24.673-6.477Z" transform="translate(-3.373 305.531)" fill="#d65d24"/>
          <path id="svg_37" d="M241.618,374.336s.4,17.641,1.487,23.891a8.417,8.417,0,0,0,7.913,7.082,46.752,46.752,0,0,0,17.137-2.369c18.8-5.57,34.224-10.207,44.507-16.1,3.78-2.167.932-7.233-6.931-7.082-13.962.277-35.913,2.142-40.071-4.612a24.95,24.95,0,0,1-2.293-5.721s-2.394,3.075-9.174,3.982a106.8,106.8,0,0,1-12.6.932" transform="translate(-0.41 335.578)" fill="#3b1c3b"/>
          <path id="svg_38" d="M337.358,311.428a12.613,12.613,0,0,0-.2-2.747h0c10.862-1.865,18.221-3.68,18.75-4.637,1.109-1.966-6.275-135.939-6.956-154.614v-2.848c0-.328,2.319-55.444-17.818-63.837a49.018,49.018,0,0,0-17.893-2.52,16.733,16.733,0,0,0-1.512-1.462c-4.335-3.579-11.089-5.57-19.254-6.124a46.548,46.548,0,0,0-31.049,9.678,23.739,23.739,0,0,0-4.335,7.561,2.739,2.739,0,0,1-.328.857c-16.86,6.048-21.523,14.189-28.856,24.345-9.829,13.634-22.682,208.194-23.866,215.653-15.121,98.993-46.548,317.293-43.675,321.6,3.68,5.57,37.5,2.772,42.843-1.84,1.26-1.109,50.656-170.693,60.888-205.9h0L247.941,361.43c-.353-1.739,2.319-2.52,2.7-.731l15.121,78.126a.961.961,0,0,1,.126-.529s41.205,229.337,43.549,234.5,51.412-1.84,51.412-9.728c0-6.275-16.734-251.844-23.564-351.619" transform="translate(-86.246 22.598)" fill="#3f5f8f"/>
          <path id="svg_39" d="M202.826,213.843l16.18,83.167h0c.857-2.949,1.437-5.04,1.714-5.822h0q-7.561-39.013-15.121-78.126c-.378-1.764-3.024-1.033-2.7.731" transform="translate(-41.283 169.655)" fill="#3b1c3b" stroke="#000" stroke-width="1"/>
          <path id="svg_40" d="M278.038,183.172a315.023,315.023,0,0,1-63.005,4.536,1.386,1.386,0,0,1,0-2.772,315.682,315.682,0,0,0,62.652-4.511c0,.932.151,1.815.2,2.747" transform="translate(-29.874 136.313)" fill="#3b1c3b" stroke="#000" stroke-width="1"/>
          <path id="svg_41" d="M264.931,78.814a462.081,462.081,0,0,0-58.191,12.1c.328-.932.781-2.067,1.285-3.251A467.343,467.343,0,0,1,262.562,76.37a13.633,13.633,0,0,1,2.369,2.52" transform="translate(-37.156 26.605)" fill="#3b1c3b" stroke="#000" stroke-width="1"/>
          <path id="svg_42" d="M261.931,113.1l-17.969-1.714c-1.789-.151-1.789-2.949,0-2.772l17.893,1.689v2.8" transform="translate(0.673 60.592)" fill="#3b1c3b" stroke="#000" stroke-width="1"/>
          <path id="svg_43" d="M256.289,111.664l-15.3,2.873c-1.764.328-1.008,3,.756,2.671l15.4-2.772c1.764-.328.983-3-.756-2.671" transform="translate(-2.102 63.817)" fill="#3b1c3b" stroke="#000" stroke-width="1"/>
          <path id="svg_44" d="M281.365,80.522A23.917,23.917,0,0,0,272.141,99.4c-17.919.454-61.745,7.863-79.109,12-1.739.428-1.008,3.1.731,2.7,17.137-4.083,60.712-11.467,78.3-11.921a89.141,89.141,0,0,0,1.31,13.181c.277,1.739,2.949,1.008,2.671-.756-1.739-10.938-3.352-24.068,6.729-31.679,1.386-1.059,0-3.478-1.411-2.52" transform="translate(-52.658 30.618)" fill="#3b1c3b" stroke="#000" stroke-width="1"/>
          <path id="svg_45" d="M239.494,151.986a189.773,189.773,0,0,1-11.543,23.639,1.39,1.39,0,1,0,2.394,1.411,192.973,192.973,0,0,0,11.82-24.295c.655-1.663-2.016-2.52-2.671-.756" transform="translate(-14.996 105.3)" fill="#3b1c3b" stroke="#000" stroke-width="1"/>
          <path id="svg_46" d="M261.013,135.091a200.055,200.055,0,0,1-36.039,36.644c-1.411,1.109.554,3.075,1.966,1.966a203.986,203.986,0,0,0,36.467-37.2c1.058-1.437-1.336-2.823-2.52-1.411" transform="translate(-18.445 87.896)" fill="#3b1c3b" stroke="#000" stroke-width="1"/>
          <path id="svg_47" d="M259.377,37.324c-8.14-7.233-25.2-2.319-35.459,6.351-9.728,8.165-11.795,15.121-12.1,31.1a96.043,96.043,0,0,0,2.949,25.2l-3.528,26.16L250.3,125.3l1.159-15.474c5.469-1.89,9.678-4.032,10.711-5.418,3.453-4.587,5.04-19.985,5.9-30.646s-1.537-30.091-8.695-36.467" transform="translate(-32.41 -18.247)" fill="#d65d24"/>
          <path id="svg_48" d="M274.673,40.23c-.176-1.235-.479-4.662-.932-6.477a9.325,9.325,0,0,0-10.66-7.384c-6.3.655-12.173,5.368-16.81,9.728-1.563-4.335-7.082-4.763-11.467-2.923a37.072,37.072,0,0,0-12.223,7.561A32.763,32.763,0,0,0,211.265,57.72a83.467,83.467,0,0,0-1.21,26.034c.907,14.617,2.218,24.043,11.114,26.513,14.063,3.957,28-2.52,32.989-12.1,4.234-8.039,8.317-29.839,11.215-33.846,0,0,10.081-5.368,13.458-9.8,3.856-5.04,3.049-16.2-4.158-14.365" transform="translate(-34.196 -26.244)" fill="#3b1c3b"/>
          <g id="h1" transform="translate(225.697 10.839)">
            <path id="svg_49" d="M271.276,47.218a16.608,16.608,0,0,1,7.435-14.567c5.04-2.923,9.778,0,13.836,6.7s4.713,43.877,4.713,43.877L276.518,95.354l.353-32.258c-.227,0-5.368-12.173-5.595-15.953" transform="translate(-194.827 -31.52)" fill="#d65d24"/>
            <path id="svg_50" d="M301.815,64.58s.126-14.92-1.714-16.986-25.378,4.133-27.722,6.275-.252,16.558-.252,16.558,19.254,2.747,29.763-5.847" transform="translate(-194.82 -15.011)" fill="#d9c6ba"/>
            <path id="svg_51" d="M324.994,149.253c15.424-17.49,18.246-95.339,16.633-96.2a3.906,3.906,0,0,0-1.865,0,12.747,12.747,0,0,0-2.52.479c-8.543,1.815-26.437,7.031-26.891,7.939s-3.831,22.934-5.494,34.174c-.529,3.377-2.823,17.364-2.949,18.019,0,0-.756,1.941-1.815,2.117a78.832,78.832,0,0,1-40.978-4.662c-8.09-4.536-14.29-3.579-19.632,6.527-5.04,9.678-9.6,26.714,1.058,35.762,25.782,17.389,64.895,17.994,84.5-4.234" transform="translate(-234.055 -8.932)" fill="#3f5f8f"/>
            <path id="svg_52" d="M274.064,120.549c-2.9-9.829-6.1-19.532-9.678-29.108,0-.706.126-3.4.252-7.208q6.779,17.389,12,35.283c.5,1.714-2.092,2.722-2.52,1.008" transform="translate(-202.075 24.057)" fill="#3b1c3b" stroke="#000" stroke-width="1"/>
            <path id="svg_53" d="M279.257,86.306c-.58-7.561-1.89-20.162-2.873-28.5l2.772-.227c.983,8.417,2.293,20.792,2.848,28.277.151,1.789-2.52,2.243-2.747.454" transform="translate(-189.426 -4.049)" fill="#3b1c3b" stroke="#000" stroke-width="1"/>
            <path id="svg_54" d="M278.471,67.1a4.562,4.562,0,0,0-.151-5.469,3.528,3.528,0,0,0-4.763,0,3.755,3.755,0,0,0-1.462,2.52,4.335,4.335,0,0,0,1.638,3.957,3.3,3.3,0,0,0,4.788-.983m-3.4-1.638a1.487,1.487,0,0,1,0-1.512.882.882,0,0,1,.958-.378c.6.3.554,1.26.328,1.764a.7.7,0,0,1-1.336,0" transform="translate(-193.982 -0.748)" fill="#3b1c3b" stroke="#000" stroke-width="1"/>
            <path id="svg_55" d="M278.874,72.267a4.562,4.562,0,0,0-.151-5.469,3.554,3.554,0,0,0-4.763.126,3.831,3.831,0,0,0-1.462,2.52,4.41,4.41,0,0,0,1.588,3.932,3.327,3.327,0,0,0,4.788-1.008m-3.4-1.638a1.487,1.487,0,0,1,0-1.512.882.882,0,0,1,.958-.378c.6.3.554,1.26.328,1.764a.7.7,0,0,1-1.336,0" transform="translate(-193.555 4.773)" fill="#3b1c3b" stroke="#000" stroke-width="1"/>
          </g>
        </g>
      </g>
    </g>
  </g>
</svg>
