<svg id="Footer" xmlns="http://www.w3.org/2000/svg" width="1920" height="765.391" viewBox="0 0 1920 765.391">
  <g id="Shape" transform="translate(0 0)">
    <path id="Rectangle" d="M0,61.963A1006.964,1006.964,0,0,0,118.74,33.538C183.521,13.826,303.424,2.7,336.7.2c58.079-4.362,335.717,63.857,347.381,65.953,92.353,16.6,210.908,9.414,349.93-23.2,18.67-4.38,89-19.723,109.589-21.668,10.054-.95,108.575-14.116,203.359-17.37C1442.341.641,1691.87,46.171,1691.87,46.171s22.6,5.429,38.738,7.6c37.875,5.09,45.457,6.878,77.824,8.194,39.385,1.6,111.569-1.253,111.569-1.253V765.392H0Z" transform="translate(0)" fill="#d6e1fb"/>
    <path id="Rectangle-2" data-name="Rectangle" d="M0,99.168l37.47-5.941s24.267,1.579,35.072,1.579c5.923,0,55.812.774,100.79-6.878,37.08-6.308,70.514-19.612,72.851-20.463,24.968-9.093,47.029-12.515,59.947-12.515s21.784,1.32,32.809,4.964c51.515,17.028,83.644,50.524,217.331,21.655,14.84-3.2,116.151-38.425,127.815-36.322,92.353,16.655,210.908,9.447,349.93-23.28,18.67-4.395,89-19.792,109.589-21.744,10.054-.953,33.759,1.952,33.759,1.952s59.409,4.97,156.884,34.991c87.206,26.859,156.228,31.469,181.812,31.469,55.758,0,175.812-43.44,175.812-43.44s22.6,5.448,38.738,7.625c37.875,5.108,45.457,6.9,77.824,8.222C1847.816,42.65,1920,39.786,1920,39.786V746.921H0" transform="translate(0 18.471)" fill="#86a7f3"/>
    <path id="Rectangle-3" data-name="Rectangle" d="M0,116.076l37.47-5.924s24.267,1.575,35.072,1.575c5.923,0,55.812.772,100.79-6.859,37.08-6.29,70.251-21.13,72.851-20.405,113.43,31.613,203.692,56.851,376.939,50.179,16.89-.65,103.321-9.908,129.084-15.821,59.892-13.746,158.8-39.3,297.825-71.931,38.81-9.111,127.332-27.533,127.332-27.533S1271.21-5.037,1395.207,1.2c178.375,8.978,275.707,48.014,275.707,48.014s24.978,10.049,36.178,15.041c43.195,19.253,76.49,33.567,101.34,40.61,46.941,13.3,111.569,15.238,111.569,15.238v641.9H0" transform="translate(0 3.386)" fill="#c1d2f9"/>
    <path id="Rectangle-4" data-name="Rectangle" d="M0,97.027l37.47-5.943s24.267,1.58,35.072,1.58c5.923,0,55.812.774,100.79-6.88,37.08-6.31,70.251-21.2,72.851-20.47,113.43,31.714,203.692,57.032,376.939,50.339,16.89-.653,103.321-9.94,129.084-15.872,59.892-13.79,158.8-39.421,297.825-72.16C1088.841,18.481,1177.362,0,1177.362,0s59.409,4.972,156.884,35c87.206,26.868,156.228,31.481,181.812,31.481,55.758,0,154.855-36.529,154.855-36.529s24.978,10.081,36.178,15.089c43.195,19.314,76.49,33.674,101.34,40.739C1855.373,99.129,1920,101.071,1920,101.071V745.016H0" transform="translate(0 20.376)" fill="#4a7ced"/>
  </g>
  <g id="syntra" transform="translate(198 254.75)">
    <text id="Sed_ut_perspiciatis" data-name="Sed ut perspiciatis" transform="translate(0 75.804)" fill="#fff" font-size="14" font-family="Poppins-Regular, Poppins"><tspan x="0" y="15">Sed ut perspiciatis unde omnis iste natus error sit </tspan><tspan x="0" y="36">voluptatem accusantium doloremque laudantium </tspan><tspan x="0" y="57">totam rem aperiam</tspan></text>
    <circle id="Oval" cx="21.5" cy="21.5" r="21.5" transform="translate(58 191.803)" fill="#fcaa23"/>
    <g id="Icon" transform="translate(115 191.804)">
      <circle id="Oval-2" data-name="Oval" cx="21.5" cy="21.5" r="21.5" fill="#fcaa23"/>
      <g id="Icon-2" data-name="Icon" transform="translate(12.21 13.145)">
        <g id="Icon-3" data-name="Icon" transform="translate(0 2.672)">
          <path id="Icon_Shape" data-name="Icon Shape" d="M8.841,12.655h0c-1.357-.014-2.55-.036-3.547-.066-1.039-.031-1.669-.055-1.978-.074l-.483-.041-.356-.038a5.182,5.182,0,0,1-.537-.1,2.928,2.928,0,0,1-.5-.211,1.941,1.941,0,0,1-.557-.411,2.09,2.09,0,0,1-.154-.186,3.277,3.277,0,0,1-.287-.589,3.824,3.824,0,0,1-.26-1.013C.126,9.5.085,9.039.054,8.554.027,8.1.005,7.7,0,7.414V5.644A21.6,21.6,0,0,1,.179,2.732a3.945,3.945,0,0,1,.246-1A2.422,2.422,0,0,1,.74,1.115L.879.945A2.341,2.341,0,0,1,1.164.677,1.944,1.944,0,0,1,1.471.482c.09-.047.17-.084.24-.116L1.745.351A1.346,1.346,0,0,1,2.028.271c.114-.02.189-.037.232-.047C2.33.212,2.4.2,2.487.2L2.655.181C4.3.061,6.379,0,8.841,0c1.139,0,2.188.014,3.2.044,1.127.036,1.826.066,2.265.1l.721.041.111.011L15.2.2c.081.006.161.016.227.028.047.011.13.028.23.047a1.346,1.346,0,0,1,.282.079c.083.037.172.078.277.132a2.05,2.05,0,0,1,.3.195,2.534,2.534,0,0,1,.287.268,2.1,2.1,0,0,1,.154.183,3.837,3.837,0,0,1,.285.589,3.735,3.735,0,0,1,.26,1.014c.053.413.095.862.127,1.373.023.414.047.843.052,1.14V7.011A21.142,21.142,0,0,1,17.5,9.924a3.949,3.949,0,0,1-.244,1,2.554,2.554,0,0,1-.318.617l-.137.173a2.57,2.57,0,0,1-.287.266,1.606,1.606,0,0,1-.3.189c-.105.052-.2.093-.277.126a1.334,1.334,0,0,1-.282.082l-.076.013-.018,0c-.061.011-.108.02-.142.027s-.123.019-.21.028l-.018,0-.018,0-.144.015C13.387,12.592,11.3,12.655,8.841,12.655ZM7.016,3.606V8.658l4.775-2.51Z" transform="translate(0 0)" fill="#fff"/>
        </g>
        <rect id="ViewBox" width="17.684" height="18" transform="translate(0)" fill="none"/>
      </g>
    </g>
    <g id="Icon-4" data-name="Icon" transform="translate(173 191.804)">
      <circle id="Oval-3" data-name="Oval" cx="21.5" cy="21.5" r="21.5" fill="#fcaa23"/>
      <g id="Icon-5" data-name="Icon" transform="translate(13 13.144)">
        <path id="Icon_Shape-2" data-name="Icon Shape" d="M4.627,15.7a4.832,4.832,0,0,1-3.3-1.269,4.85,4.85,0,0,1-1.272-3.3C.017,10.516,0,9.392,0,7.88S.017,5.24.052,4.627a4.833,4.833,0,0,1,1.272-3.3A4.828,4.828,0,0,1,4.627.052C5.251.018,6.375,0,7.88,0s2.625.018,3.25.052a4.831,4.831,0,0,1,3.3,1.272,4.833,4.833,0,0,1,1.272,3.3c.036.586.052,1.65.052,3.253s-.016,2.664-.052,3.251a4.845,4.845,0,0,1-1.272,3.3,4.832,4.832,0,0,1-3.3,1.269c-.592.036-1.655.052-3.25.052S5.219,15.74,4.627,15.7Zm4.035-1.356c.238,0,.447,0,.627,0s.332,0,.454,0c.262-.005.585-.014.991-.032a8.574,8.574,0,0,0,1.057-.1,4.108,4.108,0,0,0,.733-.191,2.671,2.671,0,0,0,.9-.594,2.7,2.7,0,0,0,.594-.905,4.035,4.035,0,0,0,.191-.732,8.387,8.387,0,0,0,.1-1.057c.017-.434.028-.751.03-.989s0-.608,0-1.081c0-.3,0-.522,0-.65v-.03c0-.056,0-.091,0-.1s0-.052,0-.11V7.732c0-.131,0-.342,0-.637,0-.473,0-.837,0-1.081,0-.224-.012-.521-.03-.991a8.243,8.243,0,0,0-.1-1.055,4.2,4.2,0,0,0-.191-.735,2.679,2.679,0,0,0-1.5-1.5,3.985,3.985,0,0,0-.733-.19,8.152,8.152,0,0,0-1.057-.1c-.355-.014-.721-.027-.991-.03l-.454,0-.627,0-.652,0H7.751l-.657,0-.63,0-.455,0c-.222,0-.51.011-.988.03a8.132,8.132,0,0,0-1.057.1,3.985,3.985,0,0,0-.733.19,2.7,2.7,0,0,0-1.5,1.5,4.3,4.3,0,0,0-.188.735,7.858,7.858,0,0,0-.1,1.055c-.019.471-.028.767-.031.991-.005.244-.005.608,0,1.081,0,.295,0,.507.005.637V7.77c0,.058,0,.1,0,.11s0,.049,0,.1v.03q0,.193-.005.65c-.005.473-.005.837,0,1.081s.013.555.031.989a7.968,7.968,0,0,0,.1,1.057,4.192,4.192,0,0,0,.188.732,2.69,2.69,0,0,0,1.5,1.5,4.108,4.108,0,0,0,.733.191,8.574,8.574,0,0,0,1.057.1c.4.018.72.027.988.032.122,0,.274,0,.455,0s.392,0,.63,0c.432,0,.69-.005.782-.005S8.22,14.343,8.662,14.348ZM5.016,10.742A3.914,3.914,0,0,1,3.837,7.88a4.029,4.029,0,0,1,4.04-4.044A4.032,4.032,0,0,1,11.92,7.88a4.029,4.029,0,0,1-4.042,4.041A3.92,3.92,0,0,1,5.016,10.742ZM6.021,6.023a2.626,2.626,0,0,0,0,3.713,2.63,2.63,0,0,0,3.714,0,2.623,2.623,0,0,0,0-3.713,2.622,2.622,0,0,0-3.714,0Zm5.4-1.683a.943.943,0,0,1,0-1.334.943.943,0,0,1,1.61.666.943.943,0,0,1-1.61.667Z" transform="translate(0 0)" fill="#fff"/>
      </g>
    </g>
    <g id="Icon-6" data-name="Icon" transform="translate(230 191.804)">
      <circle id="Oval-4" data-name="Oval" cx="21.5" cy="21.5" r="21.5" fill="#fcaa23"/>
      <g id="Icon-7" data-name="Icon" transform="translate(13.6 13.145)">
        <g id="Icon-8" data-name="Icon" transform="translate(0 1.125)">
          <path id="Icon_Shape-3" data-name="Icon Shape" d="M13.5,15.756a.565.565,0,0,1-.563-.543,12.944,12.944,0,0,0-12.4-12.4A.565.565,0,0,1,0,2.254V.564A.562.562,0,0,1,.58,0,15.768,15.768,0,0,1,15.756,15.175a.563.563,0,0,1-.564.581Zm-5.073,0a.563.563,0,0,1-.564-.524A7.879,7.879,0,0,0,.524,7.891.563.563,0,0,1,0,7.327V5.637a.562.562,0,0,1,.591-.563A10.693,10.693,0,0,1,10.682,15.166a.562.562,0,0,1-.563.591ZM0,13.5a2.252,2.252,0,1,1,2.252,2.253A2.253,2.253,0,0,1,0,13.5Z" fill="#fff"/>
        </g>
        <rect id="ViewBox-2" data-name="ViewBox" width="15.756" height="18.007" fill="none"/>
      </g>
    </g>
    <g id="Icon-9" data-name="Icon" transform="translate(0 191.804)">
      <circle id="Oval-5" data-name="Oval" cx="21.5" cy="21.5" r="21.5" fill="#fcaa23"/>
      <g id="Icon-10" data-name="Icon" transform="translate(12 14.345)">
        <path id="Icon_Path" data-name="Icon Path" d="M18,1.737a7.732,7.732,0,0,1-1.85,1.908q.011.16.011.48a10.488,10.488,0,0,1-.434,2.965,10.717,10.717,0,0,1-1.319,2.839A11.16,11.16,0,0,1,12.3,12.334,9.381,9.381,0,0,1,9.354,14a10.781,10.781,0,0,1-3.689.623A10.241,10.241,0,0,1,0,12.968a7.893,7.893,0,0,0,.891.046,7.221,7.221,0,0,0,4.58-1.577A3.7,3.7,0,0,1,2.022,8.878a4.672,4.672,0,0,0,.7.057,3.815,3.815,0,0,0,.971-.126A3.629,3.629,0,0,1,1.57,7.535,3.566,3.566,0,0,1,.731,5.187V5.142A3.659,3.659,0,0,0,2.4,5.61,3.686,3.686,0,0,1,1.2,4.3a3.6,3.6,0,0,1-.445-1.76,3.617,3.617,0,0,1,.5-1.862A10.458,10.458,0,0,0,4.62,3.4,10.276,10.276,0,0,0,8.863,4.536a4.1,4.1,0,0,1-.091-.846A3.557,3.557,0,0,1,9.851,1.08a3.7,3.7,0,0,1,5.305.086A7.232,7.232,0,0,0,17.5.274a3.583,3.583,0,0,1-1.622,2.034A7.348,7.348,0,0,0,18,1.737Z" fill="#fff"/>
      </g>
    </g>
    <g id="Group_4061" data-name="Group 4061">
      <path id="Path_14117" data-name="Path 14117" d="M830.056,882.809h-4.281c-3.447,0-6.893-.009-10.34,0a14.452,14.452,0,0,0-9.51,3.429,13.834,13.834,0,0,0-4.207,5.97.636.636,0,0,1-.735.489c-2.434-.016-4.868-.008-7.3-.008a6.1,6.1,0,0,0-6.282,6.273q0,12.054,0,24.108a6.111,6.111,0,0,0,6.251,6.258h25.777a6.1,6.1,0,0,0,6.2-6.209q0-12.127,0-24.254a5.106,5.106,0,0,0-.17-1.453c-.1-.356-.062-.482.353-.471,1.11.029,2.221.01,3.332.01,3.006,0,6.011.006,9.017-.008.367,0,.529.075.515.477-.019.537.037,1.076.037,1.614q0,12.029,0,24.059a18.681,18.681,0,0,1-5.591,13.667,18.358,18.358,0,0,1-13.348,5.63c-8.837.033-17.674.009-26.512.009a19.18,19.18,0,0,1-17.821-12.625,19.8,19.8,0,0,1-1.137-6.669q.012-12.1,0-24.206a19.166,19.166,0,0,1,12.869-18.24,18.127,18.127,0,0,1,6.094-1.054q13.182-.006,26.365,0a18.824,18.824,0,0,1,9.94,2.829c.125.076.247.159.368.242A1,1,0,0,1,830.056,882.809Z" transform="translate(-774.307 -879.602)" fill="#fed25e"/>
      <path id="Path_14118" data-name="Path 14118" d="M2234.692,960.318q0-13.866-.01-27.732c0-.44.1-.554.549-.552q6.027.029,12.055,0c.408,0,.5.1.5.5q-.018,22-.023,44c0,.5.117.605.607.6,8.755-.017,17.51-.008,26.265-.023.449,0,.55.115.548.553q-.029,5.267,0,10.534c0,.377-.1.447-.458.446q-19.8-.014-39.594,0c-.439,0-.445-.179-.444-.507Q2234.7,974.233,2234.692,960.318Z" transform="translate(-2091.528 -926.893)" fill="#fff"/>
      <path id="Path_14119" data-name="Path 14119" d="M1076.908,976.123h-.545c-3.708,0-7.416-.005-11.124.008-.369,0-.484-.075-.484-.469q.018-15.018.012-30.037a12.428,12.428,0,0,1,10.555-12.348,9.122,9.122,0,0,1,1.461-.125q20.974-.01,41.948-.005h.347a17.218,17.218,0,0,1-2.039,2.949,19.86,19.86,0,0,1-13.076,7.025,17.255,17.255,0,0,1-2.1.116q-9.875.012-19.749,0a7,7,0,0,0-7.227,6.946c-.075,7.039-.033,14.079-.011,21.118A6.973,6.973,0,0,0,1076.908,976.123Z" transform="translate(-1036.284 -927.898)" fill="#fff"/>
      <path id="Path_14120" data-name="Path 14120" d="M1851.192,1283.46c.691.779,1.377,1.561,2.073,2.335q3.071,3.414,6.15,6.82c.119.132.261.244.392.365q2.947,3.269,5.894,6.537,1.077,1.194,2.162,2.388c-.145.155-.3.087-.432.087-3.8,0-7.606,0-11.409.01a.9.9,0,0,1-.75-.337c-.852-.964-1.731-1.9-2.6-2.85a19.162,19.162,0,0,0-1.716-1.984c-2.133-2.389-4.292-4.753-6.442-7.126a.325.325,0,0,0-.084-.047,1.687,1.687,0,0,1-.671-.555q-3.264-3.641-6.563-7.251c-.518-.564-1.008-1.154-1.529-1.716-.14-.15-.367-.3-.259-.533s.369-.168.573-.169q5.018-.007,10.036,0a3.542,3.542,0,0,0,.586,0,1.98,1.98,0,0,1,1.966.905c.73.9,1.527,1.739,2.311,2.591A.949.949,0,0,1,1851.192,1283.46Z" transform="translate(-1731.364 -1240.208)" fill="#fed25e"/>
      <path id="Path_14121" data-name="Path 14121" d="M1380.283,1403.085a15.416,15.416,0,0,0,3.693-3.571,14.693,14.693,0,0,0,2.632-6.138c.041-.23.08-.385.382-.367a19.806,19.806,0,0,1,16.648,10.009c.006.009-.005.029-.014.068Z" transform="translate(-1320.882 -1342.681)" fill="#fff"/>
      <path id="Path_14122" data-name="Path 14122" d="M3253.626,932.1c-.007.163-.02.325-.02.488q0,27.791,0,55.581c0,.163.013.325.02.488.032.011.045.026.04.045s-.013.033-.021.033c-.211-.185-.1-.43-.1-.644q-.009-26.958-.005-53.916c0-.539,0-1.077,0-1.616C3253.54,932.408,3253.477,932.233,3253.626,932.1Z" transform="translate(-3010.487 -926.958)" fill="#fff"/>
      <path id="Path_14123" data-name="Path 14123" d="M3387.4,1341.427c.007-.2.019-.391.019-.586q0-8.537-.01-17.074c0-.449.116-.56.559-.556,2.479.023,4.958.009,7.437.015.17,0,.359-.074.511.073-2.645,0-5.29.006-7.934-.016-.434,0-.5.152-.5.536q.016,8.546,0,17.092c0,.2.1.428-.106.595-.023-.024-.029-.044-.015-.059A.048.048,0,0,1,3387.4,1341.427Z" transform="translate(-3131.215 -1279.723)" fill="#fff"/>
      <path id="Path_14124" data-name="Path 14124" d="M3584.783,1509.046h14.8c-.116.179-.3.093-.446.093q-6.921.008-13.843,0C3585.12,1509.141,3584.928,1509.2,3584.783,1509.046Z" transform="translate(-3309.284 -1447.344)" fill="#fff"/>
      <path id="Path_14125" data-name="Path 14125" d="M3267.712,1509.069a.6.6,0,0,0-.019.078q-3.987.009-7.973.017c-1.679,0-3.359-.011-5.038-.017a.6.6,0,0,0-.019-.078Z" transform="translate(-3011.525 -1447.365)" fill="#fff"/>
      <path id="Path_14126" data-name="Path 14126" d="M3301.209,988.135q-5.968-10.1-11.942-20.2c-.157-.265-.3-.429.108-.661,6.438-3.7,9.592-11.443,8.7-18.3a20.082,20.082,0,0,0-8.349-13.831,16.644,16.644,0,0,0-9.642-3.215c-8.559-.027-17.117-.013-25.676-.015-.065,0-.13.011-.195.017a1.222,1.222,0,0,0-.04.532q0,27.752,0,55.5a1.229,1.229,0,0,0,.039.532.89.89,0,0,0,.386.035q6.142,0,12.284,0a.762.762,0,0,0,.385-.04,1.666,1.666,0,0,0,.034-.583q0-8.55-.007-17.1c0-.4.1-.519.511-.516,2.515.019,5.031.009,7.546.011.143,0,.295-.043.428.053.387.642.777,1.282,1.161,1.926q4.818,8.1,9.633,16.2a.761.761,0,0,0,.43.046q6.968,0,13.936,0a.779.779,0,0,0,.43-.046A3.716,3.716,0,0,0,3301.209,988.135Zm-16.412-36.5a7.945,7.945,0,0,1-2.628,6.089,4.254,4.254,0,0,1-2.551,1.087,1,1,0,0,1-.34.027h-11.544a.783.783,0,0,1-.385-.039l0,0a1.083,1.083,0,0,1-.039-.482q0-7.163,0-14.326c0-.158-.052-.327.056-.474l-.011-.012a.551.551,0,0,1,.332-.046h11.237a.685.685,0,0,1,.289.032,6.222,6.222,0,0,1,4.531,3.171,7.517,7.517,0,0,1,1.056,3.9A2.4,2.4,0,0,1,3284.8,951.631Z" transform="translate(-3011.075 -926.781)" fill="#fff"/>
      <path id="Path_14127" data-name="Path 14127" d="M3387.938,1050.247q-.006,6.563-.012,13.127c0,.718,0,1.437-.006,2.155-.116-.145-.061-.315-.061-.472q-.005-7.177,0-14.354C3387.859,1050.552,3387.782,1050.376,3387.938,1050.247Z" transform="translate(-3131.647 -1033.52)" fill="#fff"/>
      <path id="Path_14128" data-name="Path 14128" d="M3388.675,1206.178l12.268.013a.749.749,0,0,1-.43.049q-5.707,0-11.415,0C3388.957,1206.239,3388.8,1206.288,3388.675,1206.178Z" transform="translate(-3132.4 -1174.165)" fill="#fff"/>
      <path id="Path_14129" data-name="Path 14129" d="M3400.577,1049.215l-11.858.015c.133-.14.307-.087.463-.087q5.462,0,10.924,0C3400.264,1049.143,3400.435,1049.1,3400.577,1049.215Z" transform="translate(-3132.44 -1032.515)" fill="#fff"/>
      <path id="Path_14130" data-name="Path 14130" d="M3566.661,1123.2q0-.538,0-1.077A1.378,1.378,0,0,1,3566.661,1123.2Z" transform="translate(-3292.939 -1098.346)" fill="#fff"/>
      <path id="Path_14131" data-name="Path 14131" d="M1640.128,952.02a28.358,28.358,0,0,0-8.115-16.105c-6.8-6.781-15.048-9.437-24.477-7.754-9.284,1.657-15.99,7.011-20.263,15.365a27.62,27.62,0,0,0-2.615,17.731,28.7,28.7,0,0,0,8.744,16.408,26.673,26.673,0,0,0,19.781,7.423,28.491,28.491,0,0,0,9.706-2.046c1.1-.438,2.14-1.012,3.229-1.476.1-.2-.063-.3-.165-.418-1.116-1.277-2.263-2.528-3.4-3.783-1.437-1.582-2.846-3.19-4.311-4.746-.115-.122-.21-.267-.4-.271.01.02.02.042.031.061a10.87,10.87,0,0,1-3.567.929,14.5,14.5,0,0,1-7.749-1.064,14.209,14.209,0,0,1-7.622-8.313,20.373,20.373,0,0,1,.812-16.788,13.211,13.211,0,0,1,9.39-7.475c8.281-1.691,14.366,2.976,16.74,9.332a20.505,20.505,0,0,1,.476,13.111,16.969,16.969,0,0,1-1.715,4.069l-.05-.055,0,0a.494.494,0,0,0,.17.391c.969,1.057,1.927,2.125,2.888,3.19.753.835,1.521,1.657,2.265,2.5.98,1.113,2.01,2.181,2.972,3.31.092.107.2.228.372.179.028-.04.052-.082.083-.119A28.228,28.228,0,0,0,1640.128,952.02Z" transform="translate(-1504.813 -922.958)" fill="#fff"/>
      <path id="Path_14132" data-name="Path 14132" d="M2710.062,988.123c-.468-1.161-.873-2.348-1.3-3.525q-9.52-26.1-19.031-52.2a.481.481,0,0,0-.551-.378c-3.61.011-7.22.018-10.83-.006a.691.691,0,0,0-.784.552q-6.43,17.691-12.885,35.373-3.688,10.113-7.393,20.219c-.15.407-.068.476.341.475q6.248-.019,12.5,0a.485.485,0,0,0,.562-.377c1.334-3.964,2.685-7.922,4.019-11.887.1-.3.217-.428.565-.427q8.379.021,16.759,0a.477.477,0,0,1,.544.392c1.354,3.958,2.732,7.908,4.089,11.865a.543.543,0,0,0,.622.432c2.074-.017,4.149-.009,6.224-.009,2.058,0,4.116-.009,6.175.008C2710.1,988.634,2710.259,988.613,2710.062,988.123ZM2676.939,966.9l6.741-19.9,6.582,19.9Z" transform="translate(-2472.643 -926.873)" fill="#fff"/>
    </g>
  </g>
  <text id="Copyright_2020_SYN" data-name="Copyright © 2020 SYN" transform="translate(198 715.942)" fill="#fff" font-size="16" font-family="Poppins-Light, Poppins" font-weight="300"><tspan x="0" y="0">Copyright © 2020 SYNTRA. All rights reserved.</tspan></text>
  <text id="Terms_of_Service" data-name="Terms of Service" transform="translate(1388 717.087)" fill="#fff" font-size="16" font-family="Poppins-Regular, Poppins"><tspan x="0" y="0">Terms of Service</tspan></text>
  <text id="Privacy_Policy" data-name="Privacy Policy" transform="translate(1546 717.087)" fill="#fff" font-size="16" font-family="Poppins-Regular, Poppins"><tspan x="0" y="0">Privacy Policy</tspan></text>
  <text id="Legal" transform="translate(1679 717.087)" fill="#fff" font-size="16" font-family="Poppins-Regular, Poppins"><tspan x="0" y="0">Legal</tspan></text>
  <g id="Information" transform="translate(622 273.863)">
    <text id="About_Us" data-name="About Us" transform="translate(0 85)" fill="#fff" font-size="19" font-family="Poppins-Regular, Poppins"><tspan x="0" y="0">About Us</tspan></text>
    <text id="Services" transform="translate(0 126)" fill="#fff" font-size="19" font-family="Poppins-Regular, Poppins"><tspan x="0" y="0">Services</tspan></text>
    <text id="Our_Team" data-name="Our Team" transform="translate(0 167)" fill="#fff" font-size="19" font-family="Poppins-Regular, Poppins"><tspan x="0" y="0">Our Team</tspan></text>
    <text id="Our_Price" data-name="Our Price" transform="translate(0 208)" fill="#fff" font-size="19" font-family="Poppins-Regular, Poppins"><tspan x="0" y="0">Our Price</tspan></text>
    <text id="Contact" transform="translate(0 248)" fill="#fff" font-size="19" font-family="Poppins-Regular, Poppins"><tspan x="0" y="0">Contact</tspan></text>
    <text id="Information-2" data-name="Information" transform="translate(0 27)" fill="#ffbe56" font-size="26" font-family="Poppins-Medium, Poppins" font-weight="500"><tspan x="0" y="0">Information</tspan></text>
  </g>
  <g id="Icon-11" data-name="Icon" transform="translate(269 459.052)">
    <g id="Icon-12" data-name="Icon" transform="translate(0.081 0.425)">
      <path id="Icon_Path-2" data-name="Icon Path" d="M17.438,8.719A8.719,8.719,0,1,0,7.356,17.332V11.239H5.142V8.719H7.356V6.8A3.076,3.076,0,0,1,10.65,3.406a13.418,13.418,0,0,1,1.952.17V5.721H11.5a1.26,1.26,0,0,0-1.421,1.362V8.719H12.5l-.387,2.52H10.081v6.093A8.722,8.722,0,0,0,17.438,8.719Z" fill="#fff"/>
    </g>
    <rect id="ViewBox-3" data-name="ViewBox" width="18" height="18" fill="none"/>
  </g>
  <g id="Contact_Us" data-name="Contact Us" transform="translate(882 267.975)">
    <text id="Contact_Us-2" data-name="Contact Us" transform="translate(0 27)" fill="#ffbe56" font-size="26" font-family="Poppins-Medium, Poppins" font-weight="500"><tspan x="0" y="0">Contact Us</tspan></text>
    <text id="_280_Jefferson_Street" data-name="280 Jefferson Street" transform="translate(35 62)" fill="#fff" font-size="16" font-family="Poppins-Regular, Poppins"><tspan x="0" y="17">280 Jefferson Street Port Charlotte, FL </tspan><tspan x="0" y="41">33952</tspan></text>
    <text id="_012_3456_564" data-name="+012 3456 564" transform="translate(35 152)" fill="#fff" font-size="19" font-family="Poppins-Regular, Poppins"><tspan x="0" y="0">+012 3456 564</tspan></text>
    <text id="Syntra_support.com" data-name="Syntra@support.com" transform="translate(35 193)" fill="#fff" font-size="19" font-family="Poppins-Regular, Poppins"><tspan x="0" y="0">email@support.com</tspan></text>
    <g id="Icon-13" data-name="Icon" transform="translate(0 135.944)">
      <path id="Icon_Path-3" data-name="Icon Path" d="M18,14.216a4.22,4.22,0,0,1-.128.9,5.079,5.079,0,0,1-.268.876,3.428,3.428,0,0,1-1.56,1.355A4.957,4.957,0,0,1,13.666,18a5.074,5.074,0,0,1-.678-.045,5.253,5.253,0,0,1-.735-.16q-.4-.115-.6-.185t-.71-.262q-.511-.192-.626-.23A11.578,11.578,0,0,1,8.08,16.057,19.269,19.269,0,0,1,4.7,13.3,19.269,19.269,0,0,1,1.943,9.92,11.578,11.578,0,0,1,.882,7.683q-.038-.115-.23-.626T.39,6.347q-.07-.2-.185-.6a5.252,5.252,0,0,1-.16-.735A5.073,5.073,0,0,1,0,4.334,4.957,4.957,0,0,1,.652,1.956,3.428,3.428,0,0,1,2.007.4,5.079,5.079,0,0,1,2.883.128,4.22,4.22,0,0,1,3.784,0a.716.716,0,0,1,.268.038q.23.077.678.972.141.243.384.69t.447.812q.2.364.4.684.038.051.224.32a3.571,3.571,0,0,1,.275.454.834.834,0,0,1,.089.364,1.061,1.061,0,0,1-.364.639,6.232,6.232,0,0,1-.793.7,7.7,7.7,0,0,0-.793.678.974.974,0,0,0-.364.588.864.864,0,0,0,.064.288,2.791,2.791,0,0,0,.109.262q.045.089.179.307t.147.243a13.419,13.419,0,0,0,2.224,3,13.419,13.419,0,0,0,3,2.224q.026.013.243.147t.307.179a2.791,2.791,0,0,0,.262.109.864.864,0,0,0,.288.064.974.974,0,0,0,.588-.364,7.7,7.7,0,0,0,.678-.793,6.232,6.232,0,0,1,.7-.793,1.061,1.061,0,0,1,.639-.364.834.834,0,0,1,.364.089,3.571,3.571,0,0,1,.454.275q.268.185.32.224.32.192.684.4t.812.447q.447.243.69.384.895.447.972.678A.716.716,0,0,1,18,14.216Z" transform="translate(0 0)" fill="#ffbe56"/>
    </g>
    <g id="Icon-14" data-name="Icon" transform="translate(0 177.944)">
      <path id="Icon_Shape-4" data-name="Icon Shape" d="M1.607,14.143a1.546,1.546,0,0,1-1.135-.472A1.549,1.549,0,0,1,0,12.536V4.56a5.357,5.357,0,0,0,1.014.875Q4.651,7.905,6.007,8.9q.572.423.929.659a5.8,5.8,0,0,0,.949.482,2.9,2.9,0,0,0,1.1.246H9.01a2.9,2.9,0,0,0,1.1-.246,5.844,5.844,0,0,0,.949-.482q.356-.237.929-.659Q13.7,7.665,17,5.435a5.565,5.565,0,0,0,1-.875v7.976a1.611,1.611,0,0,1-1.607,1.607ZM8.99,9a1.614,1.614,0,0,1-.5-.09,3.107,3.107,0,0,1-.578-.271q-.306-.181-.522-.327c-.145-.1-.325-.224-.543-.381s-.36-.259-.427-.307Q5.5,6.981,3.786,5.791T1.728,4.359A4.959,4.959,0,0,1,.553,3.2,2.345,2.345,0,0,1,0,1.828,2.027,2.027,0,0,1,.417.523,1.433,1.433,0,0,1,1.607,0H16.393a1.554,1.554,0,0,1,1.13.472A1.543,1.543,0,0,1,18,1.607a2.651,2.651,0,0,1-.492,1.516,4.761,4.761,0,0,1-1.226,1.236q-3.776,2.623-4.7,3.265c-.067.048-.21.149-.428.307s-.4.284-.542.381-.318.206-.523.327a3.1,3.1,0,0,1-.577.271,1.625,1.625,0,0,1-.5.09Z" transform="translate(0 0)" fill="#ffbe56"/>
    </g>
    <g id="Icon-15" data-name="Icon" transform="translate(1 63.999)">
      <g id="Icon-16" data-name="Icon" transform="translate(0.2 2.82)">
        <path id="Icon_Shape-5" data-name="Icon Shape" d="M6,17.051a1.566,1.566,0,0,1-.79-.21,1.3,1.3,0,0,1-.546-.577L.388,7.671A4.434,4.434,0,0,1,0,5.683,5.352,5.352,0,0,1,1.757,1.666,5.967,5.967,0,0,1,6,0a5.967,5.967,0,0,1,4.243,1.666A5.352,5.352,0,0,1,12,5.683a4.487,4.487,0,0,1-.387,1.988L7.349,16.263a1.385,1.385,0,0,1-.559.577A1.56,1.56,0,0,1,6,17.051ZM6,2.84a2.976,2.976,0,0,0-2.12.834,2.733,2.733,0,0,0,0,4.02A2.985,2.985,0,0,0,6,8.525a2.981,2.981,0,0,0,2.12-.831,2.738,2.738,0,0,0,0-4.02A2.972,2.972,0,0,0,6,2.84Z" transform="translate(0 0)" fill="#ffbe56"/>
      </g>
      <rect id="ViewBox-4" data-name="ViewBox" width="12" height="22" fill="none"/>
    </g>
  </g>
  <g id="Newsletter" transform="translate(1304 269.95)">
    <text id="Newsletter-2" data-name="Newsletter" transform="translate(0 27)" fill="#ffbe56" font-size="26" font-family="Poppins-Medium, Poppins" font-weight="500"><tspan x="0" y="0">Newsletter</tspan></text>
    <text id="Sed_ut_perspiciatis-2" data-name="Sed ut perspiciatis" transform="translate(0 62)" fill="#fff" font-size="14" font-family="Poppins-Regular, Poppins"><tspan x="0" y="15">Sed ut perspiciatis unde omnis iste natus error sit </tspan><tspan x="0" y="36">voluptatem accusantium doloremque laudantium totam </tspan><tspan x="0" y="57">rem aperiam</tspan></text>
    <rect id="Rectangle-5" data-name="Rectangle" width="419" height="59" rx="24.5" transform="translate(0 160.999)" fill="#fff"/>
    <text id="Your_Email_Address" data-name="Your Email Address" transform="translate(38 194)" fill="#8b99af" font-size="14" font-family="Poppins-Regular, Poppins"><tspan x="0" y="0">Your Email Address</tspan></text>
    <path id="Rectangle-6" data-name="Rectangle" d="M0,0H60.7A24.5,24.5,0,0,1,85.2,24.5v9.8A24.5,24.5,0,0,1,60.7,58.8H0a0,0,0,0,1,0,0V0A0,0,0,0,1,0,0Z" transform="translate(333.436 161.144)" fill="#fd9e01"/>
    <g id="Icon-17" data-name="Icon" transform="translate(361.6 180.344)">
      <path id="Icon_Shape-6" data-name="Icon Shape" d="M1.607,14.143a1.546,1.546,0,0,1-1.135-.472A1.549,1.549,0,0,1,0,12.536V4.56a5.357,5.357,0,0,0,1.014.875Q4.651,7.905,6.007,8.9q.572.423.929.659a5.8,5.8,0,0,0,.949.482,2.9,2.9,0,0,0,1.1.246H9.01a2.9,2.9,0,0,0,1.1-.246,5.844,5.844,0,0,0,.949-.482q.356-.237.929-.659Q13.7,7.665,17,5.435a5.565,5.565,0,0,0,1-.875v7.976a1.611,1.611,0,0,1-1.607,1.607ZM8.99,9a1.614,1.614,0,0,1-.5-.09,3.107,3.107,0,0,1-.578-.271q-.306-.181-.522-.327c-.145-.1-.325-.224-.543-.381s-.36-.259-.427-.307Q5.5,6.981,3.786,5.791T1.728,4.359A4.959,4.959,0,0,1,.553,3.2,2.345,2.345,0,0,1,0,1.828,2.027,2.027,0,0,1,.417.523,1.433,1.433,0,0,1,1.607,0H16.393a1.554,1.554,0,0,1,1.13.472A1.543,1.543,0,0,1,18,1.607a2.651,2.651,0,0,1-.492,1.516,4.761,4.761,0,0,1-1.226,1.236q-3.776,2.623-4.7,3.265c-.067.048-.21.149-.428.307s-.4.284-.542.381-.318.206-.523.327a3.1,3.1,0,0,1-.577.271,1.625,1.625,0,0,1-.5.09Z" transform="translate(0 0)" fill="#fff"/>
    </g>
  </g>
  <path id="Line_2" data-name="Line 2" d="M0,.5H1522.8" transform="translate(198.6 667.092)" fill="none" stroke="#6b94f0" stroke-linecap="square" stroke-miterlimit="10" stroke-width="1"/>
</svg>
