<svg xmlns="http://www.w3.org/2000/svg" xmlns:xlink="http://www.w3.org/1999/xlink" width="696.513" height="530.855" viewBox="0 0 696.513 530.855">
  <defs>
    <filter id="Union_7" x="0" y="0" width="696.513" height="530.855" filterUnits="userSpaceOnUse">
      <feOffset dy="3" input="SourceAlpha"/>
      <feGaussianBlur stdDeviation="3" result="blur"/>
      <feFlood flood-opacity="0.161"/>
      <feComposite operator="in" in2="blur"/>
      <feComposite in="SourceGraphic"/>
    </filter>
    <filter id="Union_8" x="7" y="7.001" width="686.573" height="514.854" filterUnits="userSpaceOnUse">
      <feOffset dy="3" input="SourceAlpha"/>
      <feGaussianBlur stdDeviation="3" result="blur-2"/>
      <feFlood flood-opacity="0.161"/>
      <feComposite operator="in" in2="blur-2"/>
      <feComposite in="SourceGraphic"/>
    </filter>
  </defs>
  <g id="Group_5077" data-name="Group 5077" transform="translate(-983 -6993.173)">
    <g transform="matrix(1, 0, 0, 1, 983, 6993.17)" filter="url(#Union_7)">
      <path id="Union_7-2" data-name="Union 7" d="M141.9,512.855c-44.842,0-81.52-37.039-81.52-82.316V82.31a82.92,82.92,0,0,1,.863-11.952c-3.337-.412-6.745-.719-10.194-.894C23.408,68.066-.91,71.746-1.36,72.2A233.536,233.536,0,0,1,26.575,44.242c18.235-15.4,42.7-30.8,64.937-27.513q.53.078,1.048.169A80.518,80.518,0,0,1,141.9,0H595.625c44.842,0,81.526,37.04,81.526,82.31V402.728c0,60.811-48.841,110.127-109.081,110.127Z" transform="translate(686.15 518.86) rotate(180)" fill="#ff003c"/>
    </g>
    <g transform="matrix(1, 0, 0, 1, 983, 6993.17)" filter="url(#Union_8)">
      <path id="Union_8-2" data-name="Union 8" d="M149.079,496.854a79.974,79.974,0,0,1-79.742-79.747V79.742a79.175,79.175,0,0,1,2.924-21.363,83.147,83.147,0,0,0-10.943-1.3c-26.937-1.35-56.577,3.856-57.229,4.329A246.988,246.988,0,0,1,33.3,38.564C52.448,25.783,77.893,13,99.79,16.207q.519.076,1.026.164A79.251,79.251,0,0,1,149.079,0H592.906a79.977,79.977,0,0,1,79.747,79.742V390.164a106.7,106.7,0,0,1-106.7,106.69ZM4.083,61.418l.006-.005-.009.008Z" transform="translate(688.65 509.86) rotate(180)" fill="#fff"/>
    </g>
    <g id="Group_5075" data-name="Group 5075" transform="translate(1081.411 7034.879)">
      <g id="Group_5073" data-name="Group 5073" transform="translate(0)">
        <rect id="Rectangle_857" data-name="Rectangle 857" width="424.317" height="5.337" transform="translate(0 410.096)" fill="#ff003c"/>
        <g id="Group_5071" data-name="Group 5071" transform="translate(0.001 28.196)">
          <path id="Path_14949" data-name="Path 14949" d="M326.355,44.61h-157.4v5.336H325.32A44.044,44.044,0,0,1,326.355,44.61Z" transform="translate(-168.952 -44.61)" fill="#ff003c"/>
          <path id="Path_14950" data-name="Path 14950" d="M217.491,44.61a27.428,27.428,0,0,1,2.947,5.336H384.111V44.61Z" transform="translate(40.206 -44.61)" fill="#ff003c"/>
        </g>
        <g id="Group_5072" data-name="Group 5072" transform="translate(166.09)">
          <path id="Path_14951" data-name="Path 14951" d="M238.419,39.3V43.35Q220.3,53.774,216.057,69.784q4.595-2.986,8.356-2.989a13.4,13.4,0,0,1,10.592,5.065,18.455,18.455,0,0,1,4.322,12.391,18.185,18.185,0,0,1-5.681,13.607,19.32,19.32,0,0,1-13.968,5.5q-8.29,0-13.867-7t-5.575-17.408q0-14.669,11.218-26.29A43.067,43.067,0,0,1,238.419,39.3Zm47.516,0V43.35q-18.117,10.424-22.362,26.434Q268.168,66.8,272,66.795a13.344,13.344,0,0,1,10.522,5.065,18.45,18.45,0,0,1,4.316,12.391A18.23,18.23,0,0,1,281.2,97.858a19.211,19.211,0,0,1-13.936,5.5q-8.354,0-13.9-7t-5.543-17.408q0-14.669,11.186-26.29A42.91,42.91,0,0,1,285.935,39.3Z" transform="translate(-200.236 -39.299)" fill="#ff003c"/>
        </g>
      </g>
    </g>
  </g>
</svg>
