<svg xmlns="http://www.w3.org/2000/svg" width="496.461" height="681.701" viewBox="0 0 496.461 681.701">
  <g id="Group_7020" data-name="Group 7020" transform="translate(-403 -30425.299)">
    <text id="Marketing_Agency" data-name="Marketing Agency" transform="translate(651 31023)" fill="#233d63" font-size="55" font-family="Poppins-SemiBold, Poppins" font-weight="600"><tspan x="-115.362" y="0">WEBSITE</tspan><tspan x="-118.965" y="65">OWNERS</tspan></text>
    <g id="Online_PR" data-name="Online PR" transform="translate(394.4 30416.699)">
      <g id="Group_6192" data-name="Group 6192" transform="translate(8.6 8.6)">
        <g id="Group_6190" data-name="Group 6190">
          <circle id="Ellipse_2116" data-name="Ellipse 2116" cx="248.23" cy="248.23" r="248.23" fill="#382b73"/>
        </g>
        <g id="Group_6191" data-name="Group 6191" transform="translate(33.474 33.474)">
          <circle id="Ellipse_2117" data-name="Ellipse 2117" cx="214.757" cy="214.757" r="214.757" transform="translate(0 0)" fill="#473080"/>
        </g>
      </g>
      <path id="Path_17401" data-name="Path 17401" d="M368.7,263.6c0-.3-.023-.59-.044-.884,0-.081,0-.16-.012-.239v0a11.96,11.96,0,0,0-11.906-10.838H341.281V160.387l10.792,3.57a2.955,2.955,0,0,0,3.491-1.331l2.825-4.894a2.965,2.965,0,0,0,.393-1.511v-4.634a3.153,3.153,0,0,0-.035-.418c-.006-.056,0-.112-.015-.166a2.93,2.93,0,0,0-.272-.8c-.031-.062-.066-.123-.1-.183a2.871,2.871,0,0,0-.563-.709l-8.559-7.626v-3.844l8.559-7.626a2.957,2.957,0,0,0,.988-2.279V123.3c0-.112-.029-.225-.039-.339a2.628,2.628,0,0,0-.037-.31,2.869,2.869,0,0,0-.316-.861l-2.825-4.894a2.954,2.954,0,0,0-3.491-1.328l-5.52,1.825-5.272,1.744V99.993A10.49,10.49,0,0,0,330.791,89.5H89.693A10.492,10.492,0,0,0,79.2,99.993V251.644H63.741a11.961,11.961,0,0,0-11.906,10.838v0c-.015.148-.017.3-.023.449-.012.225-.033.447-.033.674,0,.042.006.083.006.127h0c0,.168.015.335.025.5.012.252.025.5.054.753h0c.015.133.037.262.06.391a11.922,11.922,0,0,0,.468,1.992h0c.054.162.114.322.177.48.081.216.166.428.26.638v0c.075.166.156.331.239.495h0c.125.247.258.486.4.724.062.1.125.208.189.31v0a12,12,0,0,0,3.79,3.744h0c.083.052.166.1.247.152a11.871,11.871,0,0,0,4.382,1.524h0c.137.019.27.048.407.062h0a11.952,11.952,0,0,0,1.256.066h293A12.507,12.507,0,0,0,358,275.5h0c.137-.015.27-.044.405-.062h0a11.858,11.858,0,0,0,3.106-.867h0c.162-.071.316-.152.474-.229,0,0,0,0,0,0,.272-.133.536-.274.8-.426l.247-.15h0a12.135,12.135,0,0,0,2.634-2.216c.023-.025.046-.05.066-.075v0c.218-.249.424-.509.622-.775.037-.05.077-.1.112-.15l0,0c.123-.173.241-.347.353-.526h0c.1-.154.193-.31.285-.47h0c.106-.183.2-.37.3-.559a.007.007,0,0,1,0,0c.054-.108.106-.22.158-.331a11.7,11.7,0,0,0,.759-2.148c.027-.1.056-.2.079-.3v0c.048-.218.083-.439.121-.661v0c.029-.183.062-.364.083-.549h0A10.618,10.618,0,0,0,368.7,263.6Z" transform="translate(46.589 87.292)" fill="#382b73"/>
      <g id="Group_6209" data-name="Group 6209" transform="translate(98.368 162.237)">
        <g id="Group_6193" data-name="Group 6193">
          <path id="Path_17402" data-name="Path 17402" d="M327.05,244.644H64.969V92.993A10.492,10.492,0,0,1,75.462,82.5h241.1a10.491,10.491,0,0,1,10.491,10.493V244.644Z" transform="translate(-37.547 -82.5)" fill="#fff"/>
          <path id="Path_17403" data-name="Path 17403" d="M311.729,234.369H72.84a4.418,4.418,0,0,1-4.418-4.418V90.171a4.418,4.418,0,0,1,4.418-4.418h238.89a4.418,4.418,0,0,1,4.418,4.418V229.953A4.419,4.419,0,0,1,311.729,234.369Z" transform="translate(-33.821 -78.99)" fill="#1caee4"/>
          <path id="Path_17404" data-name="Path 17404" d="M356.741,184.417h-293a11.962,11.962,0,0,1-11.962-11.962h0a11.962,11.962,0,0,1,11.962-11.962h293A11.962,11.962,0,0,1,368.7,172.454h0A11.962,11.962,0,0,1,356.741,184.417Z" transform="translate(-51.779 1.652)" fill="#e6e7e8"/>
          <path id="Path_17405" data-name="Path 17405" d="M358.4,184.289c.272-.037.545-.075.811-.131.16-.033.316-.081.474-.123.235-.06.472-.116.7-.191.164-.052.322-.116.482-.177.216-.079.432-.158.642-.249.162-.071.316-.152.474-.229.2-.1.4-.2.592-.3.156-.087.3-.183.455-.277.185-.114.37-.231.547-.353.148-.1.289-.212.43-.322.171-.131.339-.262.5-.4.137-.119.268-.241.4-.364.156-.146.308-.293.455-.447.125-.131.247-.266.366-.4.139-.16.274-.322.405-.489.112-.143.222-.289.328-.439.123-.173.241-.349.356-.528.1-.154.193-.31.285-.47.106-.185.206-.374.3-.565.083-.164.164-.328.239-.495.087-.2.168-.4.245-.6.067-.17.131-.343.189-.518.069-.208.127-.422.185-.634.048-.177.1-.353.137-.534.048-.218.085-.443.121-.665.029-.183.062-.364.083-.549.027-.231.037-.466.052-.7.01-.185.025-.368.029-.553,0-.249-.012-.5-.025-.755-.008-.164-.01-.333-.025-.495-.574-6.258-6.235-10.84-12.526-10.84H270.152a.116.116,0,0,0-.11.081,17.479,17.479,0,0,1-16.553,11.881h-86.5a17.482,17.482,0,0,1-16.553-11.881.118.118,0,0,0-.11-.081H64.358c-6.291,0-11.952,4.582-12.526,10.84-.015.162-.017.331-.025.495-.012.252-.029.505-.025.755,0,.187.017.37.029.553.012.233.025.468.05.7.021.185.054.368.085.551.035.222.073.447.121.665.04.181.089.358.137.536.058.212.116.424.185.632.058.177.125.347.191.52.077.2.158.4.245.6.075.168.156.333.239.495.1.191.2.38.3.565.091.158.187.314.285.468.114.179.233.355.356.528.106.148.214.3.328.439.131.166.268.328.407.489.121.137.241.272.366.4.148.154.3.3.455.447.131.123.264.247.4.364.162.139.331.27.5.4.141.11.285.22.43.322.179.125.364.239.549.353.152.094.3.189.455.277.193.108.393.2.59.3.158.077.314.158.476.229.21.091.424.168.64.247.16.06.318.125.482.177.231.073.466.131.7.191.158.039.314.087.474.123.266.056.538.091.809.131.137.019.27.048.407.062a11.944,11.944,0,0,0,1.256.067h293a11.983,11.983,0,0,0,1.258-.067C358.131,184.337,358.264,184.308,358.4,184.289Z" transform="translate(-51.776 1.651)" fill="#d1d3d4"/>
          <path id="Path_17406" data-name="Path 17406" d="M368.642,168.182a11.171,11.171,0,0,0-1.609-4.771c-.069.116-.137.231-.21.343-.114.179-.233.356-.356.528-.106.148-.216.3-.328.439-.131.166-.266.328-.405.489-.118.137-.241.272-.366.4-.148.154-.3.3-.455.447-.131.123-.264.247-.4.364-.162.139-.331.27-.5.4-.141.108-.285.218-.43.322-.179.125-.362.239-.547.355-.152.094-.3.189-.455.277-.193.108-.393.206-.593.3-.158.077-.314.158-.474.229-.21.091-.426.168-.642.247-.16.06-.318.125-.482.177-.231.073-.466.131-.7.191-.158.039-.312.087-.474.123-.266.056-.538.094-.811.131-.137.019-.268.048-.407.062a11.962,11.962,0,0,1-1.258.066h-293a11.922,11.922,0,0,1-1.256-.066c-.137-.015-.272-.044-.407-.062-.272-.037-.545-.075-.809-.131-.16-.033-.316-.081-.474-.123-.235-.06-.472-.116-.7-.191-.164-.052-.322-.118-.482-.177-.214-.079-.43-.156-.64-.247-.162-.071-.318-.152-.476-.229-.2-.1-.4-.193-.59-.3-.156-.087-.3-.183-.455-.276-.185-.114-.37-.231-.549-.356-.148-.1-.289-.212-.43-.322-.17-.131-.339-.262-.5-.4-.137-.119-.27-.241-.4-.364-.156-.146-.308-.293-.455-.447-.125-.131-.245-.266-.366-.4-.139-.16-.277-.322-.407-.489-.112-.143-.222-.289-.328-.439-.123-.173-.241-.349-.356-.528-.073-.112-.141-.229-.208-.343a11.172,11.172,0,0,0-1.609,4.771c-.015.162-.017.331-.025.495-.012.252-.029.505-.025.755,0,.187.017.37.029.553.012.233.025.468.05.7.021.185.054.368.085.551.035.222.073.447.121.665.039.181.089.358.137.536.058.212.116.424.185.632.058.177.125.347.191.52.077.2.158.4.245.6.075.168.156.333.239.495.1.191.2.38.3.565.091.158.187.314.285.468.114.179.233.356.356.528.106.148.214.3.328.439.131.166.268.328.407.489.121.137.241.272.366.4.148.154.3.3.455.447.131.123.264.247.4.364.162.139.331.27.5.4.141.11.285.22.43.322.179.125.364.239.549.353.152.094.3.189.455.276.193.108.393.2.59.3.158.077.314.158.476.229.21.091.424.168.64.247.16.06.318.125.482.177.231.073.466.131.7.191.158.039.314.087.474.123.266.056.538.091.809.131.137.019.27.048.407.062a11.944,11.944,0,0,0,1.256.067h293A11.983,11.983,0,0,0,358,181.2c.137-.015.27-.044.407-.062.272-.037.545-.075.811-.131.16-.033.316-.081.474-.123.235-.06.472-.116.7-.191.164-.052.322-.116.482-.177.216-.079.432-.158.642-.249.162-.071.316-.152.474-.229.2-.1.4-.2.593-.3.156-.087.3-.183.455-.276.185-.114.37-.231.547-.353.148-.1.289-.212.43-.322.17-.131.339-.262.5-.4.137-.119.268-.241.4-.364.156-.146.308-.293.455-.447.125-.131.247-.266.366-.4.139-.16.274-.322.405-.489.112-.143.222-.289.328-.439.123-.173.241-.349.356-.528.1-.154.193-.31.285-.47.106-.185.206-.374.3-.565.083-.164.164-.328.239-.495.087-.2.168-.4.245-.6.067-.17.131-.343.189-.518.069-.208.127-.422.185-.634.048-.177.1-.353.137-.534.048-.218.085-.443.121-.665.029-.183.062-.364.083-.549.027-.231.037-.466.052-.7.01-.185.025-.368.029-.553,0-.249-.012-.5-.025-.755C368.659,168.513,368.657,168.344,368.642,168.182Z" transform="translate(-51.774 4.802)" fill="#bcbec0"/>
        </g>
        <path id="Path_17407" data-name="Path 17407" d="M227.232,93.137a4.416,4.416,0,0,0-4.424-4.387H186.634c-.187.166-.353.333-.52.5a66.489,66.489,0,0,0-6.9,7.63c-1.039,1.351-2.037,2.744-2.973,4.179-.457.707-.915,1.434-1.351,2.162-.894,1.455-1.7,2.952-2.474,4.47-.374.769-.748,1.518-1.1,2.308-.707,1.538-1.351,3.118-1.933,4.719-.291.811-.561,1.622-.832,2.432-.52,1.622-.977,3.264-1.393,4.927a67.316,67.316,0,0,0-1.788,16.632v8.5c.021.416.021.832.042,1.268l-13.451,19.542a9.066,9.066,0,0,0-.5.852,7.963,7.963,0,0,0-.353.894,5.724,5.724,0,0,0-.27,1.809v8.545a6.334,6.334,0,0,0,6.32,6.653h14.74v25.488a12.635,12.635,0,0,0,12.64,12.64A150.165,150.165,0,0,0,209.5,222.74l2.266,8.395h11.048a4.418,4.418,0,0,0,4.418-4.418V93.137Z" transform="translate(55.091 -75.756)" fill="#009add"/>
        <g id="Group_6194" data-name="Group 6194" transform="translate(205.918 6.757)">
          <path id="Path_17408" data-name="Path 17408" d="M205.4,120.64V192.3a4.419,4.419,0,0,1-4.428,4.428h-9.355l-3.95-14.636-.437-1.6-1.871-6.881-14.3-52.972H205.4Z" transform="translate(-128.995 -48.104)" fill="#f7cb15"/>
          <path id="Path_17409" data-name="Path 17409" d="M200.457,196.731h-8.836l-3.95-14.636-.437-1.6-1.85-6.881h-.021l-14.3-52.972h8.857L193.8,172.074l2.266,8.378Z" transform="translate(-128.995 -48.104)" fill="#e7ad27"/>
          <path id="Path_17410" data-name="Path 17410" d="M227.236,90.178V215.749c-3.077.873-6.2,1.642-9.335,2.349-2.786.6-5.592,1.164-8.4,1.642a150.165,150.165,0,0,1-24.969,2.162,12.635,12.635,0,0,1-12.64-12.64V183.774h-14.74a6.334,6.334,0,0,1-6.32-6.653v-8.545a5.724,5.724,0,0,1,.27-1.809,7.973,7.973,0,0,1,.353-.894,9.067,9.067,0,0,1,.5-.852l13.451-19.542c-.021-.437-.021-.852-.042-1.268v-8.5a67.316,67.316,0,0,1,1.788-16.632c.416-1.663.873-3.306,1.393-4.927.27-.811.541-1.622.832-2.432.582-1.6,1.227-3.181,1.933-4.719.353-.79.728-1.538,1.1-2.308.769-1.518,1.58-3.015,2.474-4.47.437-.728.894-1.455,1.351-2.162.936-1.435,1.933-2.827,2.973-4.179a66.486,66.486,0,0,1,6.9-7.63c.166-.166.333-.333.52-.5h36.174A4.419,4.419,0,0,1,227.236,90.178Z" transform="translate(-150.826 -85.75)" fill="#f7cb15"/>
          <path id="Path_17411" data-name="Path 17411" d="M227.233,90.178V206.892c-3.825,1.081-7.692,2.037-11.6,2.827-2.807.6-5.592,1.1-8.42,1.538h-.021a147.786,147.786,0,0,1-22.661,1.788,12.635,12.635,0,0,1-12.64-12.64V174.918H157.15a6.319,6.319,0,0,1-6.32-6.341,5.724,5.724,0,0,1,.27-1.809,7.973,7.973,0,0,1,.353-.894,9.067,9.067,0,0,1,.5-.852L165.4,145.479l.707-1.019a62.43,62.43,0,0,1-.748-8.753,67.316,67.316,0,0,1,1.788-16.632c.416-1.663.873-3.306,1.393-4.927.27-.811.541-1.622.832-2.432.582-1.6,1.227-3.181,1.933-4.719.353-.79.728-1.538,1.1-2.308.769-1.518,1.6-3.015,2.474-4.47.437-.728.894-1.455,1.351-2.162.936-1.435,1.933-2.827,2.973-4.179a66.486,66.486,0,0,1,6.9-7.63c.166-.166.333-.333.52-.5H222.8A4.419,4.419,0,0,1,227.233,90.178Z" transform="translate(-150.823 -85.75)" fill="#fede3a"/>
        </g>
        <g id="Group_6196" data-name="Group 6196" transform="translate(47.44 17.64)">
          <path id="Path_17412" data-name="Path 17412" d="M222.039,123.5H78.756a4.159,4.159,0,0,1-4.158-4.158v-20.2a4.159,4.159,0,0,1,4.158-4.158H222.042a4.158,4.158,0,0,1,4.158,4.158v20.2A4.16,4.16,0,0,1,222.039,123.5Z" transform="translate(-74.598 -86.669)" fill="#009add"/>
          <path id="Path_17413" data-name="Path 17413" d="M222.039,121.5H78.756a4.159,4.159,0,0,1-4.158-4.158v-20.2a4.159,4.159,0,0,1,4.158-4.158H222.042a4.158,4.158,0,0,1,4.158,4.158v20.2A4.16,4.16,0,0,1,222.039,121.5Z" transform="translate(-74.598 -88.827)" fill="#d1d3d4"/>
          <path id="Path_17414" data-name="Path 17414" d="M222.039,119.5H78.756a4.159,4.159,0,0,1-4.158-4.158v-20.2a4.159,4.159,0,0,1,4.158-4.158H222.042a4.158,4.158,0,0,1,4.158,4.158v20.2A4.16,4.16,0,0,1,222.039,119.5Z" transform="translate(-74.598 -90.985)" fill="#fff"/>
          <g id="Group_6195" data-name="Group 6195" transform="translate(38.374 4.8)">
            <path id="Path_17415" data-name="Path 17415" d="M115.446,93.294h-.719a1.3,1.3,0,0,0-1.252.963l-3.241,12.162-3.707-12.2a1.3,1.3,0,0,0-1.239-.919h-.73a1.3,1.3,0,0,0-1.239.917l-3.726,12.193-3.258-12.15a1.3,1.3,0,0,0-1.252-.96h-.732A1.3,1.3,0,0,0,93.1,94.93l4.786,17.732a1.3,1.3,0,0,0,1.252.958h.742a1.3,1.3,0,0,0,1.241-.923l3.8-12.669,3.767,12.667a1.3,1.3,0,0,0,1.243.925h.742a1.3,1.3,0,0,0,1.252-.958L116.7,94.93a1.3,1.3,0,0,0-1.254-1.636Z" transform="translate(-93.056 -93.294)" fill="#009add"/>
            <path id="Path_17416" data-name="Path 17416" d="M127.752,93.294h-.719a1.3,1.3,0,0,0-1.252.963l-3.241,12.162-3.707-12.2a1.3,1.3,0,0,0-1.239-.919h-.73a1.3,1.3,0,0,0-1.239.917L111.9,106.406l-3.26-12.15a1.3,1.3,0,0,0-1.252-.96h-.732a1.3,1.3,0,0,0-1.252,1.634l4.786,17.732a1.3,1.3,0,0,0,1.252.958h.742a1.3,1.3,0,0,0,1.241-.923l3.8-12.669,3.767,12.667a1.3,1.3,0,0,0,1.243.925h.742a1.3,1.3,0,0,0,1.252-.958L129,94.93a1.3,1.3,0,0,0-1.252-1.636Z" transform="translate(-79.78 -93.294)" fill="#009add"/>
            <path id="Path_17417" data-name="Path 17417" d="M141.088,93.8a1.3,1.3,0,0,0-1.029-.507h-.719a1.3,1.3,0,0,0-1.252.963l-3.241,12.162-3.707-12.2A1.3,1.3,0,0,0,129.9,93.3h-.73a1.3,1.3,0,0,0-1.239.917l-3.726,12.193-3.26-12.15a1.3,1.3,0,0,0-1.252-.96h-.732a1.3,1.3,0,0,0-1.252,1.634l4.786,17.732a1.3,1.3,0,0,0,1.252.958h.742a1.3,1.3,0,0,0,1.241-.923l3.8-12.669L133.3,112.7a1.3,1.3,0,0,0,1.243.925h.742a1.3,1.3,0,0,0,1.252-.958L141.31,94.93A1.3,1.3,0,0,0,141.088,93.8Z" transform="translate(-66.503 -93.294)" fill="#009add"/>
          </g>
        </g>
        <path id="Path_17418" data-name="Path 17418" d="M194.23,102.857l-.025-.019c-.179-.148-.37-.279-.553-.422-.378-.3-.757-.59-1.154-.863-.241-.166-.491-.314-.738-.472-.358-.227-.717-.451-1.087-.661-.268-.15-.543-.287-.817-.428-.368-.189-.74-.37-1.118-.538-.287-.129-.576-.247-.867-.364-.1-.037-.193-.079-.291-.121v20.869a10.183,10.183,0,0,1,1.57,3.445c-.075.322-.187.628-.291.938a10.056,10.056,0,0,1-.549,1.318,10.315,10.315,0,0,1-.532.979c-.06.091-.131.175-.2.26v20.867a23.494,23.494,0,0,0,6.649-3.886l.524.175V102.682Z" transform="translate(94.747 -64.73)" fill="#bcbec0"/>
        <path id="Path_17419" data-name="Path 17419" d="M209.1,134.111c-.1.137-.206.274-.312.41-.206.266-.41.532-.64.778-.189.2-.395.383-.6.568-.256.231-.52.453-.8.659-.214.158-.432.3-.659.445a10.08,10.08,0,0,1-.967.524c-.225.108-.447.218-.68.31a9.935,9.935,0,0,1-1.193.37c-.206.052-.4.123-.613.162a9.662,9.662,0,0,1-3.867,0c-.21-.039-.41-.108-.613-.162a10.173,10.173,0,0,1-1.193-.37c-.233-.091-.455-.2-.68-.31a10.3,10.3,0,0,1-.967-.524c-.227-.141-.447-.289-.659-.445a10.025,10.025,0,0,1-.8-.659c-.2-.185-.412-.368-.6-.568a10.019,10.019,0,0,1-.64-.778c-.17-.222-.355-.432-.507-.669a10.583,10.583,0,0,1-.532-.979,10.063,10.063,0,0,1-.549-1.318,9.6,9.6,0,0,1-.291-.938,10.218,10.218,0,0,1,18.359-3.445V106.3c-.085-.037-.168-.075-.256-.106l-.279-1.347-2.137-10.318a2.911,2.911,0,0,0-.376-.948,2.958,2.958,0,0,0-2.522-1.41h-5.651a2.96,2.96,0,0,0-2.9,2.36l-2.137,10.318-.279,1.347c-.185.069-.362.156-.547.229-.291.116-.58.235-.867.364-.378.168-.75.351-1.118.538-.274.139-.549.279-.817.428-.37.208-.728.432-1.083.659-.247.158-.5.308-.742.474-.395.272-.773.565-1.152.861-.183.143-.376.274-.555.424a.22.22,0,0,0-.023.019l-11.316-3.742a2.959,2.959,0,0,0-3.493,1.331l-2.825,4.894a2.907,2.907,0,0,0-.316.861,3.119,3.119,0,0,0-.037.312,3.087,3.087,0,0,0-.039.337v4.634a2.956,2.956,0,0,0,.985,2.279l8.559,7.626v3.844l-8.559,7.626a2.9,2.9,0,0,0-.561.709,2.006,2.006,0,0,0-.1.185,2.916,2.916,0,0,0-.272.8c-.01.056-.006.11-.015.166a3.12,3.12,0,0,0-.035.418v4.634a2.922,2.922,0,0,0,.393,1.509l2.825,4.894a2.958,2.958,0,0,0,3.493,1.331l11.316-3.742a23.492,23.492,0,0,0,6.9,3.994l2.416,11.665a2.96,2.96,0,0,0,2.9,2.36h5.651a2.96,2.96,0,0,0,2.9-2.36l2.416-11.665c.087-.033.168-.075.256-.108V134.111Z" transform="translate(73.228 -72.062)" fill="#e7ad27"/>
        <g id="Group_6201" data-name="Group 6201" transform="translate(240.859 11.79)">
          <path id="Path_17420" data-name="Path 17420" d="M224.229,124.722l8.559-7.626a2.957,2.957,0,0,0,.988-2.279v-4.634a2.934,2.934,0,0,0-.393-1.511l-2.825-4.894a2.958,2.958,0,0,0-3.493-1.331l-11.316,3.742a23.493,23.493,0,0,0-6.9-3.994l-2.416-11.665a2.96,2.96,0,0,0-2.9-2.36h-5.651a2.96,2.96,0,0,0-2.9,2.36L192.567,102.2a23.493,23.493,0,0,0-6.9,3.994l-11.316-3.742a2.959,2.959,0,0,0-3.493,1.331l-2.825,4.894a2.965,2.965,0,0,0-.393,1.511v4.634a2.949,2.949,0,0,0,.985,2.279l8.559,7.626v3.844l-8.559,7.626a2.948,2.948,0,0,0-.985,2.279V143.1a2.934,2.934,0,0,0,.393,1.511l2.825,4.894a2.958,2.958,0,0,0,3.493,1.331l11.316-3.742a23.492,23.492,0,0,0,6.9,3.994l2.416,11.665a2.96,2.96,0,0,0,2.9,2.36h5.651a2.96,2.96,0,0,0,2.9-2.36l2.416-11.665a23.466,23.466,0,0,0,6.9-3.994l11.316,3.742a2.959,2.959,0,0,0,3.493-1.331l2.825-4.894a2.965,2.965,0,0,0,.393-1.511V138.47a2.951,2.951,0,0,0-.988-2.279l-8.559-7.626v-3.844Zm-23.524,9.813a10.253,10.253,0,0,1-9.973-7.892,10.247,10.247,0,0,1,19.946,0A10.253,10.253,0,0,1,200.706,134.534Z" transform="translate(-167.632 -88.171)" fill="#d1d3d4"/>
          <g id="Group_6200" data-name="Group 6200" transform="translate(0 0.004)">
            <g id="Group_6197" data-name="Group 6197" transform="translate(24.714)">
              <path id="Path_17421" data-name="Path 17421" d="M196.24,103.264H179.521l2.636-12.732a2.96,2.96,0,0,1,2.9-2.36h5.651a2.96,2.96,0,0,1,2.9,2.36Z" transform="translate(-179.521 -88.173)" fill="#fff"/>
              <path id="Path_17422" data-name="Path 17422" d="M179.521,115.644H196.24L193.6,128.376a2.96,2.96,0,0,1-2.9,2.36h-5.651a2.96,2.96,0,0,1-2.9-2.36Z" transform="translate(-179.521 -58.532)" fill="#fff"/>
            </g>
            <g id="Group_6198" data-name="Group 6198" transform="translate(0 14.122)">
              <path id="Path_17423" data-name="Path 17423" d="M178.333,107.109l8.36,14.48-12.345,4.083a2.959,2.959,0,0,1-3.493-1.331l-2.825-4.894a2.958,2.958,0,0,1,.595-3.688Z" transform="translate(-167.633 -81.863)" fill="#fff"/>
              <path id="Path_17424" data-name="Path 17424" d="M198.644,113.679l-8.36-14.48,12.345-4.083a2.959,2.959,0,0,1,3.493,1.331l2.825,4.894a2.959,2.959,0,0,1-.595,3.688Z" transform="translate(-143.194 -94.966)" fill="#fff"/>
            </g>
            <g id="Group_6199" data-name="Group 6199" transform="translate(0 14.124)">
              <path id="Path_17425" data-name="Path 17425" d="M190.284,121.588l8.36-14.48,9.709,8.649a2.959,2.959,0,0,1,.595,3.688l-2.825,4.894a2.961,2.961,0,0,1-3.493,1.331Z" transform="translate(-143.194 -81.867)" fill="#fff"/>
              <path id="Path_17426" data-name="Path 17426" d="M186.693,99.2l-8.36,14.48-9.709-8.651a2.959,2.959,0,0,1-.595-3.688l2.825-4.894a2.961,2.961,0,0,1,3.493-1.331Z" transform="translate(-167.633 -94.967)" fill="#fff"/>
            </g>
          </g>
          <path id="Path_17427" data-name="Path 17427" d="M195.752,94.222a23.526,23.526,0,1,0,23.526,23.526A23.526,23.526,0,0,0,195.752,94.222Zm0,33.783a10.258,10.258,0,1,1,10.258-10.258A10.258,10.258,0,0,1,195.752,128.005Z" transform="translate(-162.678 -81.642)" fill="#fff"/>
          <path id="Path_17428" data-name="Path 17428" d="M195.752,94.222a23.526,23.526,0,1,0,23.526,23.526A23.526,23.526,0,0,0,195.752,94.222Zm0,41.578a18.051,18.051,0,1,1,18.05-18.05A18.05,18.05,0,0,1,195.752,135.8Z" transform="translate(-162.678 -81.642)" fill="#e6e7e8"/>
        </g>
        <path id="Path_17429" data-name="Path 17429" d="M182.594,113.367h-67.34a3.319,3.319,0,0,0-3.318,3.318V193a3.318,3.318,0,0,0,3.318,3.318h67.34A3.318,3.318,0,0,0,185.912,193V116.685A3.319,3.319,0,0,0,182.594,113.367Z" transform="translate(13.129 -49.195)" fill="#009add"/>
        <g id="Group_6202" data-name="Group 6202" transform="translate(125.065 57.935)">
          <path id="Path_17430" data-name="Path 17430" d="M182.594,191.422h-67.34a3.317,3.317,0,0,1-3.318-3.316V115.441a3.318,3.318,0,0,1,3.318-3.318h67.34a3.318,3.318,0,0,1,3.318,3.318v72.665A3.319,3.319,0,0,1,182.594,191.422Z" transform="translate(-111.936 -108.472)" fill="#e7ad27"/>
          <path id="Path_17431" data-name="Path 17431" d="M182.594,189.668h-67.34a3.318,3.318,0,0,1-3.318-3.318V113.685a3.318,3.318,0,0,1,3.318-3.318h67.34a3.318,3.318,0,0,1,3.318,3.318V186.35A3.319,3.319,0,0,1,182.594,189.668Z" transform="translate(-111.936 -110.367)" fill="#fff"/>
          <path id="Path_17432" data-name="Path 17432" d="M133.11,132.708l-21.166,31.087a3.642,3.642,0,0,0,3.634,3.491h47.108l-23.542-34.578A3.648,3.648,0,0,0,133.11,132.708Z" transform="translate(-111.927 -87.985)" fill="#f7cb15"/>
          <path id="Path_17433" data-name="Path 17433" d="M174.886,136.746l-9.378-13.775a3.65,3.65,0,0,0-6.033,0l-37.322,54.819h49.085a3.649,3.649,0,0,0,3.649-3.649V136.746Z" transform="translate(-100.912 -98.489)" fill="#f7cb15"/>
          <circle id="Ellipse_2118" data-name="Ellipse 2118" cx="9.351" cy="9.351" r="9.351" transform="translate(14.848 14.083)" fill="#f7cb15"/>
        </g>
        <path id="Path_17434" data-name="Path 17434" d="M143.566,170.257a19.573,19.573,0,0,0-3.495-6.543V121.355a8.036,8.036,0,0,0-8.037-8.035h-49.4a8.037,8.037,0,0,0-8.037,8.035v66.977a8.036,8.036,0,0,0,8.037,8.035H113.1a20.008,20.008,0,0,0,31.366-16.48v-3.676A20.028,20.028,0,0,0,143.566,170.257Z" transform="translate(-27.158 -49.246)" fill="#009add"/>
        <g id="Group_6208" data-name="Group 6208" transform="translate(47.44 57.835)">
          <g id="Group_6204" data-name="Group 6204">
            <path id="Path_17435" data-name="Path 17435" d="M132.034,190.24h-49.4A8.037,8.037,0,0,1,74.6,182.2v-60.95a8.038,8.038,0,0,1,8.037-8.037h49.4a8.036,8.036,0,0,1,8.035,8.037V182.2A8.038,8.038,0,0,1,132.034,190.24Z" transform="translate(-74.598 -107.191)" fill="#d1d3d4"/>
            <path id="Path_17436" data-name="Path 17436" d="M132.034,187.341h-49.4A8.038,8.038,0,0,1,74.6,179.3v-60.95a8.036,8.036,0,0,1,8.037-8.035h49.4a8.035,8.035,0,0,1,8.035,8.035V179.3A8.038,8.038,0,0,1,132.034,187.341Z" transform="translate(-74.598 -110.319)" fill="#fff"/>
            <g id="Group_6203" data-name="Group 6203" transform="translate(8.366 32.21)">
              <path id="Path_17437" data-name="Path 17437" d="M124.387,131.766H81.6a2.977,2.977,0,0,1-2.977-2.977h0a2.977,2.977,0,0,1,2.977-2.977h42.788a2.977,2.977,0,0,1,2.977,2.977h0A2.977,2.977,0,0,1,124.387,131.766Z" transform="translate(-78.622 -125.812)" fill="#d1d3d4"/>
              <path id="Path_17438" data-name="Path 17438" d="M124.387,138.383H81.6a2.977,2.977,0,0,1-2.977-2.977h0a2.977,2.977,0,0,1,2.977-2.977h42.788a2.977,2.977,0,0,1,2.977,2.977h0A2.977,2.977,0,0,1,124.387,138.383Z" transform="translate(-78.622 -118.672)" fill="#d1d3d4"/>
              <path id="Path_17439" data-name="Path 17439" d="M124.387,145H81.6a2.977,2.977,0,0,1-2.977-2.977h0a2.977,2.977,0,0,1,2.977-2.977h42.788a2.977,2.977,0,0,1,2.977,2.977h0A2.977,2.977,0,0,1,124.387,145Z" transform="translate(-78.622 -111.533)" fill="#d1d3d4"/>
            </g>
            <path id="Path_17440" data-name="Path 17440" d="M125.181,114.212H80.8a2.183,2.183,0,0,0-2.183,2.183v10.73a2.183,2.183,0,0,0,2.183,2.183h44.376a2.183,2.183,0,0,0,2.183-2.183v-10.73A2.183,2.183,0,0,0,125.181,114.212Z" transform="translate(-70.256 -106.119)" fill="#d1d3d4"/>
          </g>
          <path id="Path_17441" data-name="Path 17441" d="M124.587,141.461c-.06-.077-.114-.16-.177-.235a20.153,20.153,0,0,0-2.713-2.713q-.742-.611-1.541-1.152a20.031,20.031,0,0,0-22.382,0q-.8.54-1.541,1.152c-.495.407-.969.84-1.422,1.291s-.884.927-1.291,1.422a19.931,19.931,0,0,0-4.572,12.732v3.676a19.91,19.91,0,0,0,2.842,10.245h24.761a8.037,8.037,0,0,0,8.037-8.035V141.461Z" transform="translate(-59.114 -84.829)" fill="#bcbec0"/>
          <g id="Group_6207" data-name="Group 6207" transform="translate(29.833 42.875)">
            <g id="Group_6205" data-name="Group 6205">
              <path id="Path_17442" data-name="Path 17442" d="M88.948,154.635a20.016,20.016,0,1,0,40.033,0v-3.676a20.016,20.016,0,1,0-40.033,0Z" transform="translate(-88.948 -130.941)" fill="#e43d91"/>
              <circle id="Ellipse_2119" data-name="Ellipse 2119" cx="20.016" cy="20.016" r="20.016" fill="#ef5a9d"/>
            </g>
            <g id="Group_6206" data-name="Group 6206" transform="translate(14.349 10.796)">
              <path id="Path_17443" data-name="Path 17443" d="M95.85,153V139.936a2.309,2.309,0,0,1,3.659-1.873l9.064,6.534a2.309,2.309,0,0,1,0,3.746l-9.064,6.534A2.309,2.309,0,0,1,95.85,153Z" transform="translate(-95.85 -134.531)" fill="#e43d91"/>
              <path id="Path_17444" data-name="Path 17444" d="M95.85,151.517V138.449a2.309,2.309,0,0,1,3.659-1.873l9.064,6.534a2.309,2.309,0,0,1,0,3.746l-9.064,6.534A2.308,2.308,0,0,1,95.85,151.517Z" transform="translate(-95.85 -136.135)" fill="#fff"/>
              <path id="Path_17445" data-name="Path 17445" d="M108.573,140.942l-9.064,6.534A2.308,2.308,0,0,1,95.85,145.6v1.786a2.309,2.309,0,0,0,3.659,1.873l9.064-6.534a2.3,2.3,0,0,0,.767-2.767A2.263,2.263,0,0,1,108.573,140.942Z" transform="translate(-95.85 -132.007)" fill="#d1d3d4"/>
            </g>
          </g>
        </g>
      </g>
    </g>
  </g>
</svg>
