<svg xmlns="http://www.w3.org/2000/svg" width="478.8" height="663.369" viewBox="0 0 478.8 663.369">
  <g id="Group_7019" data-name="Group 7019" transform="translate(-1330 -29670.631)">
    <text id="Marketing_Agency" data-name="Marketing Agency" transform="translate(1570 30250)" fill="#233d63" font-size="55" font-family="Poppins-SemiBold, Poppins" font-weight="600"><tspan x="-126.94" y="0">AFFILIATE</tspan><tspan x="-159.775" y="65">MARKETERS</tspan></text>
    <g id="Multi_Screen_Marketing" data-name="Multi Screen Marketing" transform="translate(1321.4 29662.031)">
      <g id="Group_6035" data-name="Group 6035" transform="translate(8.6 8.6)">
        <g id="Group_6033" data-name="Group 6033">
          <circle id="Ellipse_2075" data-name="Ellipse 2075" cx="239.4" cy="239.4" r="239.4" fill="#382b73"/>
        </g>
        <g id="Group_6034" data-name="Group 6034" transform="translate(32.283 32.283)">
          <circle id="Ellipse_2076" data-name="Ellipse 2076" cx="207.117" cy="207.117" r="207.117" fill="#473080"/>
        </g>
      </g>
      <path id="Path_16965" data-name="Path 16965" d="M363.718,196.219a1.366,1.366,0,0,0,1.365-1.365V181.4a1.366,1.366,0,0,0-1.365-1.365h-.176v-6.48a3.851,3.851,0,0,0-2.861-3.723,101.035,101.035,0,0,0-22.394-3.294V91.8a8.46,8.46,0,0,0-8.467-8.467H106.874c-.058,0-.112.016-.172.018A8.409,8.409,0,0,0,98.407,91.8v23.75H55.6a6.368,6.368,0,0,0-6.368,6.368V268.143a6.368,6.368,0,0,0,6.368,6.368h85.615a6.364,6.364,0,0,0,6.364-6.364V242.926H193.9a51.128,51.128,0,0,1-1.7,12.926h0c-.351,1.339-.774,2.669-1.231,3.988-.092.265-.184.529-.281.792-.487,1.335-1.015,2.663-1.614,3.972l-.361.786h-2.837a4.783,4.783,0,0,0,0,9.566h64.939a4.783,4.783,0,0,0,0-9.566H247.98l-.361-.786c-.6-1.309-1.127-2.637-1.614-3.972-.1-.263-.188-.527-.281-.792-.457-1.321-.88-2.649-1.231-3.988h0a51.1,51.1,0,0,1-1.7-12.926h62.946V267.82a3.853,3.853,0,0,0,2.861,3.723,101.066,101.066,0,0,0,52.079,0,3.854,3.854,0,0,0,2.861-3.723V203.638a1.541,1.541,0,0,0,1.542-1.542v-2.312a1.542,1.542,0,0,0-1.542-1.542v-2.023Z" transform="translate(40.84 75.11)" fill="#382b73"/>
      <g id="Group_6060" data-name="Group 6060" transform="translate(90.076 144.408)">
        <g id="Group_6050" data-name="Group 6050">
          <g id="Group_6037" data-name="Group 6037" transform="translate(49.171)">
            <g id="Group_6036" data-name="Group 6036">
              <path id="Path_16966" data-name="Path 16966" d="M305.174,232.531H82.227a8.467,8.467,0,0,1-8.467-8.467V88.179a8.468,8.468,0,0,1,8.467-8.467H305.174a8.467,8.467,0,0,1,8.467,8.467V224.064A8.468,8.468,0,0,1,305.174,232.531Z" transform="translate(-73.76 -72.939)" fill="#bcbec0"/>
              <path id="Path_16967" data-name="Path 16967" d="M305.174,229.153H82.227a8.467,8.467,0,0,1-8.467-8.467V84.8a8.468,8.468,0,0,1,8.467-8.467H305.174a8.468,8.468,0,0,1,8.467,8.467V220.686A8.469,8.469,0,0,1,305.174,229.153Z" transform="translate(-73.76 -76.334)" fill="#e6e7e8"/>
              <path id="Path_16968" data-name="Path 16968" d="M178.066,180.092H118.8l.361-.786a51.8,51.8,0,0,0,4.72-25.065h49.105a51.772,51.772,0,0,0,4.72,25.065Z" transform="translate(-28.493 1.965)" fill="#d1d3d4"/>
              <path id="Path_16969" data-name="Path 16969" d="M174.579,162.377H122.288a53.665,53.665,0,0,1-3.126,8.752l-.361.786h59.265l-.361-.786A53.728,53.728,0,0,1,174.579,162.377Z" transform="translate(-28.493 10.141)" fill="#e6e7e8"/>
              <path id="Path_16970" data-name="Path 16970" d="M184.722,176.7H119.783A4.782,4.782,0,0,1,115,171.918h0a4.783,4.783,0,0,1,4.782-4.784h64.939a4.782,4.782,0,0,1,4.782,4.784h0A4.782,4.782,0,0,1,184.722,176.7Z" transform="translate(-32.312 14.922)" fill="#fff"/>
              <path id="Path_16971" data-name="Path 16971" d="M305.174,76.334H82.227A8.468,8.468,0,0,0,73.76,84.8V199.1H313.637V84.8A8.463,8.463,0,0,0,305.174,76.334Z" transform="translate(-73.76 -76.334)" fill="#1caee4"/>
              <path id="Path_16972" data-name="Path 16972" d="M299.663,80.557h-219a3.386,3.386,0,0,0-3.387,3.386V183a3.386,3.386,0,0,0,3.387,3.386h219A3.386,3.386,0,0,0,303.049,183V83.943A3.386,3.386,0,0,0,299.663,80.557Z" transform="translate(-70.223 -72.09)" fill="#009add"/>
              <circle id="Ellipse_2077" data-name="Ellipse 2077" cx="6.137" cy="6.137" r="6.137" transform="translate(113.803 130.172)" fill="#1caee4"/>
            </g>
          </g>
          <g id="Group_6043" data-name="Group 6043" transform="translate(0 32.215)">
            <g id="Group_6038" data-name="Group 6038">
              <path id="Path_16973" data-name="Path 16973" d="M49.236,244.994V98.769A6.368,6.368,0,0,1,55.6,92.4h85.615a6.364,6.364,0,0,1,6.364,6.364V245a6.364,6.364,0,0,1-6.364,6.364H55.6A6.368,6.368,0,0,1,49.236,244.994Z" transform="translate(-49.236 -92.401)" fill="#fff"/>
              <path id="Path_16974" data-name="Path 16974" d="M51.282,242.147V97.252a2.678,2.678,0,0,1,2.679-2.679h84.783a2.678,2.678,0,0,1,2.679,2.679v144.9a2.678,2.678,0,0,1-2.679,2.679H53.961A2.678,2.678,0,0,1,51.282,242.147Z" transform="translate(-47.18 -90.218)" fill="#1caee4"/>
              <path id="Path_16975" data-name="Path 16975" d="M51.282,162.68V173.7a2.678,2.678,0,0,0,2.679,2.679h84.783a2.678,2.678,0,0,0,2.679-2.679V162.68Z" transform="translate(-47.18 -21.769)" fill="#009add"/>
            </g>
            <g id="Group_6039" data-name="Group 6039" transform="translate(10.039 8.896)">
              <path id="Path_16976" data-name="Path 16976" d="M59.209,106.771a4.966,4.966,0,1,1,4.966-4.966A4.97,4.97,0,0,1,59.209,106.771Zm0-6.8a1.837,1.837,0,1,0,1.835,1.837A1.839,1.839,0,0,0,59.209,99.968Z" transform="translate(-54.243 -96.838)" fill="#136da0"/>
            </g>
            <g id="Group_6042" data-name="Group 6042" transform="translate(80.77 9.845)">
              <g id="Group_6040" data-name="Group 6040">
                <rect id="Rectangle_1173" data-name="Rectangle 1173" width="6.783" height="3.13" fill="#136da0"/>
              </g>
              <g id="Group_6041" data-name="Group 6041" transform="translate(0 4.91)">
                <rect id="Rectangle_1174" data-name="Rectangle 1174" width="6.783" height="3.13" fill="#136da0"/>
              </g>
            </g>
          </g>
          <g id="Group_6049" data-name="Group 6049" transform="translate(256.507 83.087)">
            <g id="Group_6044" data-name="Group 6044">
              <path id="Path_16977" data-name="Path 16977" d="M232.108,220.964h0a101.066,101.066,0,0,1-52.079,0h0a3.854,3.854,0,0,1-2.861-3.723V126.83a3.851,3.851,0,0,1,2.861-3.723h0a101.066,101.066,0,0,1,52.079,0h0a3.854,3.854,0,0,1,2.861,3.723V217.24A3.856,3.856,0,0,1,232.108,220.964Z" transform="translate(-177.168 -115.843)" fill="#bcbec0"/>
              <path id="Path_16978" data-name="Path 16978" d="M232.108,219.043h0a101.066,101.066,0,0,1-52.079,0h0a3.854,3.854,0,0,1-2.861-3.723V124.909a3.851,3.851,0,0,1,2.861-3.723h0a101.066,101.066,0,0,1,52.079,0h0a3.854,3.854,0,0,1,2.861,3.723v90.411A3.859,3.859,0,0,1,232.108,219.043Z" transform="translate(-177.168 -117.773)" fill="#fff"/>
              <path id="Path_16979" data-name="Path 16979" d="M228.286,207.5h0a82.265,82.265,0,0,1-48.169,0h0a1.542,1.542,0,0,1-1.091-1.474V126.62a1.542,1.542,0,0,1,1.091-1.474h0a82.264,82.264,0,0,1,48.169,0h0a1.542,1.542,0,0,1,1.091,1.474V206.03A1.544,1.544,0,0,1,228.286,207.5Z" transform="translate(-175.301 -113.985)" fill="#1caee4"/>
              <path id="Path_16980" data-name="Path 16980" d="M228.286,125.147h0a82.264,82.264,0,0,0-48.169,0h0a1.542,1.542,0,0,0-1.091,1.474v2.731a1.542,1.542,0,0,1,1.091-1.474h0a82.264,82.264,0,0,1,48.169,0h0a1.542,1.542,0,0,1,1.091,1.474V126.62A1.544,1.544,0,0,0,228.286,125.147Z" transform="translate(-175.301 -113.985)" fill="#009add"/>
              <circle id="Ellipse_2078" data-name="Ellipse 2078" cx="1.389" cy="1.389" r="1.389" transform="translate(42.795 3.556)" fill="#009add"/>
              <path id="Path_16981" data-name="Path 16981" d="M189.7,121.281a68.313,68.313,0,0,1,9.588,0,.951.951,0,0,0,1.023-.946h0a.958.958,0,0,0-.884-.956,68.087,68.087,0,0,0-9.867,0,.958.958,0,0,0-.884.956h0A.95.95,0,0,0,189.7,121.281Z" transform="translate(-165.598 -116.34)" fill="#009add"/>
              <path id="Path_16982" data-name="Path 16982" d="M202.5,167.315a96.451,96.451,0,0,1-13.574,0,1.347,1.347,0,0,0-1.45,1.339h0a1.355,1.355,0,0,0,1.251,1.353,96.1,96.1,0,0,0,13.969,0,1.356,1.356,0,0,0,1.251-1.353h0A1.344,1.344,0,0,0,202.5,167.315Z" transform="translate(-166.81 -67.986)" fill="#d1d3d4"/>
              <path id="Path_16983" data-name="Path 16983" d="M206.171,140.747H206V124.564h.176a1.366,1.366,0,0,1,1.365,1.365v13.454A1.365,1.365,0,0,1,206.171,140.747Z" transform="translate(-148.196 -110.948)" fill="#d1d3d4"/>
              <path id="Path_16984" data-name="Path 16984" d="M206,139.04h0v-5.4h0a1.541,1.541,0,0,1,1.542,1.542V137.5A1.542,1.542,0,0,1,206,139.04Z" transform="translate(-148.196 -101.823)" fill="#d1d3d4"/>
            </g>
            <g id="Group_6045" data-name="Group 6045" transform="translate(7.713 15.963)">
              <path id="Path_16985" data-name="Path 16985" d="M184.518,132.741a3.5,3.5,0,1,1,3.5-3.5A3.507,3.507,0,0,1,184.518,132.741Zm0-4.8a1.3,1.3,0,1,0,1.3,1.3A1.3,1.3,0,0,0,184.518,127.943Z" transform="translate(-181.015 -125.735)" fill="#136da0"/>
            </g>
            <g id="Group_6048" data-name="Group 6048" transform="translate(44.58 15.961)">
              <g id="Group_6046" data-name="Group 6046">
                <rect id="Rectangle_1175" data-name="Rectangle 1175" width="4.782" height="2.21" fill="#136da0"/>
              </g>
              <g id="Group_6047" data-name="Group 6047" transform="translate(0 3.465)">
                <rect id="Rectangle_1176" data-name="Rectangle 1176" width="4.782" height="2.21" fill="#136da0"/>
              </g>
            </g>
            <path id="Path_16986" data-name="Path 16986" d="M179.026,160.242v6.893a1.542,1.542,0,0,0,1.091,1.474,82.3,82.3,0,0,0,48.169,0,1.542,1.542,0,0,0,1.091-1.474v-6.893Z" transform="translate(-175.301 -75.091)" fill="#009add"/>
          </g>
        </g>
        <path id="Path_16987" data-name="Path 16987" d="M231.4,124.584a12.923,12.923,0,0,0-9.676-12.491h0a12.977,12.977,0,0,0-1.486-.295l-.168-.026a13.149,13.149,0,0,0-1.6-.108h0l.006,12.924-.012-24.662v0l0-3.088A9.269,9.269,0,0,0,204.4,88.926l-7.05,4.277-1.185.72c-9.141,5.544-13.809,8.772-22.741,9.5-1.275.1-2.639.156-4.114.156l-20.237.01-19.918.01h-.006l-4.806,0a7.3,7.3,0,0,0-7.3,7.306l0,4.291h0l-4.9,0h-1.925a2.921,2.921,0,0,0-2.919,2.923l0,2.621h0l0,6.238h0l0,4.18a2.919,2.919,0,0,0,2.923,2.919l1.925,0h0l4.856,0h.042l0,4.291a7.3,7.3,0,0,0,7.306,7.3l4.81,0h.527l1.742,11.533.383.321,4.732,3.966,1.159,8.233.188,1.337a7.32,7.32,0,0,0,.211.9,7.251,7.251,0,0,0,14.172-2.921l-.048-.335-3.242-23.042-17.9.008,18-.008,20.237-.01c9.159,0,14,2,20.58,5.843q.764.448,1.566.926c1.458.874,3,1.823,4.72,2.861l3.467,2.1,4.774,2.889a9.121,9.121,0,0,0,6,1.271A9.413,9.413,0,0,0,215.674,159a9.125,9.125,0,0,0,2.819-6.667l-.006-14.821h0a12.763,12.763,0,0,0,1.6-.11l.164-.026a13.1,13.1,0,0,0,1.488-.295h0a12.628,12.628,0,0,0,1.776-.587,12.454,12.454,0,0,0,1.129-.545,13.089,13.089,0,0,0,1.811-1.205A12.887,12.887,0,0,0,231.4,124.584Zm-114.361-8,0,8.054,0-8.054Z" transform="translate(9.12 -65.041)" fill="#136da0"/>
        <g id="Group_6052" data-name="Group 6052" transform="translate(116.418 16.515)">
          <path id="Path_16988" data-name="Path 16988" d="M144.205,134.627l-19.918.01a12.113,12.113,0,0,1-12.12-12.11l-.008-17.839a12.113,12.113,0,0,1,12.108-12.12l19.918-.01Z" transform="translate(-102.415 -76.544)" fill="#ef5a9d"/>
          <path id="Path_16989" data-name="Path 16989" d="M112.161,103.4l.006,13.045a7.3,7.3,0,0,0,7.306,7.3l24.73-.012-.006-11.086-22.771.01A9.26,9.26,0,0,1,112.161,103.4Z" transform="translate(-102.413 -65.648)" fill="#e43d91"/>
          <path id="Path_16990" data-name="Path 16990" d="M119.458,92.57a7.3,7.3,0,0,0-7.3,7.306l0,5.047a9.263,9.263,0,0,1,9.259-9.267l22.771-.01,0-3.088Z" transform="translate(-102.416 -76.544)" fill="#f06ea9"/>
          <g id="Group_6051" data-name="Group 6051" transform="translate(0 27.626)">
            <path id="Path_16991" data-name="Path 16991" d="M117.051,117.228l-4.9,0a4.846,4.846,0,0,1-4.848-4.844l0-9.187a4.846,4.846,0,0,1,4.844-4.848l4.9,0Z" transform="translate(-107.299 -98.349)" fill="#e43d91"/>
            <path id="Path_16992" data-name="Path 16992" d="M110.218,98.351a2.919,2.919,0,0,0-2.919,2.923l0,2.621a4.156,4.156,0,0,1,4.154-4.158l5.588,0V98.349Z" transform="translate(-107.299 -98.349)" fill="#ef5a9d"/>
            <path id="Path_16993" data-name="Path 16993" d="M107.3,104.225l0,4.18a2.919,2.919,0,0,0,2.923,2.919l6.823,0,0-2.945-5.588,0A4.153,4.153,0,0,1,107.3,104.225Z" transform="translate(-107.297 -92.443)" fill="#a72973"/>
          </g>
          <path id="Path_16994" data-name="Path 16994" d="M162.746,96.588a12.924,12.924,0,0,1,12.93,12.918h0a12.924,12.924,0,0,1-12.918,12.93Z" transform="translate(-51.573 -72.493)" fill="#ef5a9d"/>
          <path id="Path_16995" data-name="Path 16995" d="M162.759,122.438a12.88,12.88,0,0,0,3.252-.431L166,97.016a12.893,12.893,0,0,0-3.254-.429Z" transform="translate(-51.574 -72.494)" fill="#e43d91"/>
          <path id="Path_16996" data-name="Path 16996" d="M162.751,111.809l0,5.54a12.87,12.87,0,0,0,12.6-15.7A12.915,12.915,0,0,1,162.751,111.809Z" transform="translate(-51.568 -67.406)" fill="#e43d91"/>
          <path id="Path_16997" data-name="Path 16997" d="M197.551,149.336a9.262,9.262,0,0,1-14.059,7.928l-8.239-4.989c-10.45-6.328-15.06-9.634-26.863-9.628l-20.237.01-.018-42.067,20.237-.01c11.8-.006,16.409-3.316,26.855-9.654l8.235-5a9.263,9.263,0,0,1,14.067,7.916Z" transform="translate(-86.358 -84.571)" fill="#fede3a"/>
          <path id="Path_16998" data-name="Path 16998" d="M183.48,122.731l-8.239-4.989c-10.452-6.328-15.06-9.634-26.863-9.628l-20.237.01,0,10.871,20.237-.01c11.8-.006,16.413,3.3,26.863,9.628l8.239,4.989a9.262,9.262,0,0,0,14.059-7.928l-.006-10.871A9.261,9.261,0,0,1,183.48,122.731Z" transform="translate(-86.352 -60.909)" fill="#f7cb15"/>
          <path id="Path_16999" data-name="Path 16999" d="M183.46,85.929l-8.235,5c-10.446,6.336-15.052,9.648-26.855,9.652l-20.237.01,0,3.088,20.237-.01c11.806-.006,16.409-3.316,26.855-9.652l8.235-5a9.263,9.263,0,0,1,14.067,7.916l0-3.088A9.262,9.262,0,0,0,183.46,85.929Z" transform="translate(-86.36 -84.571)" fill="#fff335"/>
          <path id="Path_17000" data-name="Path 17000" d="M133.869,145.188h0a7.262,7.262,0,0,1-7.194-6.25l-1.347-9.57-5.115-4.287-1.742-11.533,19.3-.008,3.288,23.377A7.261,7.261,0,0,1,133.869,145.188Z" transform="translate(-96.072 -55.455)" fill="#fede3a"/>
          <path id="Path_17001" data-name="Path 17001" d="M140.772,134.893a7.257,7.257,0,0,1-6.905,5.049h0a7.26,7.26,0,0,1-7.194-6.252l-1.347-9.57-5.115-4.287-.95-6.288h-.79l1.742,11.533,5.115,4.287,1.347,9.57a7.262,7.262,0,0,0,7.194,6.25h0a7.262,7.262,0,0,0,7.188-8.273Z" transform="translate(-96.072 -55.451)" fill="#f7cb15"/>
          <path id="Path_17002" data-name="Path 17002" d="M131.132,114.288l-3.507.5a2.732,2.732,0,0,0-2.316,3.092l1.774,12.355a2.731,2.731,0,0,0,3.092,2.316l3.457-.5Z" transform="translate(-89.227 -54.704)" fill="#f7cb15"/>
          <path id="Path_17003" data-name="Path 17003" d="M175.551,110.761a12.322,12.322,0,0,0,.126-1.255,12.924,12.924,0,0,0-12.93-12.918l0,2.508A12.886,12.886,0,0,1,175.551,110.761Z" transform="translate(-51.572 -72.494)" fill="#f06ea9"/>
        </g>
        <path id="Path_17004" data-name="Path 17004" d="M218.607,150.44a1.632,1.632,0,0,0,.547-1.265V146.6a1.476,1.476,0,0,0-.022-.186,1.691,1.691,0,0,0-.02-.172,1.611,1.611,0,0,0-.174-.477l-1.57-2.717a1.639,1.639,0,0,0-1.939-.738l-6.286,2.079-.008-.006a13.3,13.3,0,0,0-1.66-1.161c-.082-.048-.16-.1-.243-.146a12.965,12.965,0,0,0-1.77-.832c-.054-.02-.1-.052-.154-.072l-1.341-6.478a1.644,1.644,0,0,0-1.61-1.311h-3.138a1.644,1.644,0,0,0-1.61,1.311l-1.341,6.478c-.054.02-.1.052-.154.072a12.975,12.975,0,0,0-1.77.832c-.082.046-.162.1-.243.148a13.288,13.288,0,0,0-1.66,1.159l-.008.006-6.286-2.079a1.644,1.644,0,0,0-1.939.738l-1.57,2.717a1.575,1.575,0,0,0-.174.477,1.676,1.676,0,0,0-.02.172c-.006.062-.022.124-.022.186v2.574a1.645,1.645,0,0,0,.547,1.265l4.754,4.235v2.133l-4.754,4.235a1.593,1.593,0,0,0-.381.531,1.623,1.623,0,0,0-.06.174,1.6,1.6,0,0,0-.086.455c0,.036-.02.07-.02.106v2.574a1.618,1.618,0,0,0,.219.838l1.57,2.717a1.639,1.639,0,0,0,1.939.738l6.286-2.079a13.058,13.058,0,0,0,3.836,2.218l1.341,6.478a1.644,1.644,0,0,0,1.61,1.311h3.138a1.644,1.644,0,0,0,1.61-1.311l1.341-6.478a13.058,13.058,0,0,0,3.836-2.218l6.286,2.079a1.644,1.644,0,0,0,1.939-.738l1.57-2.717a1.637,1.637,0,0,0,.219-.838V162.31a.983.983,0,0,0-.02-.106,1.6,1.6,0,0,0-.086-.455c-.02-.058-.032-.116-.058-.174a1.621,1.621,0,0,0-.381-.531l-4.754-4.235v-2.135Zm-12.445,5.809a5.864,5.864,0,0,1-.3.732,5.948,5.948,0,0,1-.3.545c-.084.13-.186.247-.281.371-.114.148-.229.3-.357.433-.1.112-.219.213-.333.315a5.481,5.481,0,0,1-.443.365c-.118.086-.241.168-.365.247a5.338,5.338,0,0,1-.537.293c-.124.06-.249.12-.377.172a5.658,5.658,0,0,1-.664.207c-.114.03-.223.068-.339.09a5.368,5.368,0,0,1-2.145,0c-.116-.022-.227-.06-.341-.09a5.667,5.667,0,0,1-.664-.207c-.128-.05-.253-.112-.377-.172a5.348,5.348,0,0,1-.537-.293c-.124-.078-.247-.158-.365-.247-.154-.114-.3-.237-.443-.365-.114-.1-.229-.2-.333-.315-.128-.136-.241-.283-.355-.431-.1-.124-.2-.241-.283-.373a5.9,5.9,0,0,1-.295-.543,5.716,5.716,0,0,1-.3-.73c-.058-.172-.12-.345-.162-.523a5.689,5.689,0,0,1,11.068,0C206.282,155.906,206.22,156.076,206.162,156.249Z" transform="translate(84.617 -17.994)" fill="#136da0"/>
        <g id="Group_6057" data-name="Group 6057" transform="translate(267.035 112.372)">
          <path id="Path_17005" data-name="Path 17005" d="M213.856,152.676l4.754-4.235a1.632,1.632,0,0,0,.547-1.265V144.6a1.618,1.618,0,0,0-.219-.838l-1.57-2.717a1.641,1.641,0,0,0-1.939-.738l-6.286,2.079a13.058,13.058,0,0,0-3.836-2.218l-1.341-6.478a1.644,1.644,0,0,0-1.61-1.311h-3.138a1.644,1.644,0,0,0-1.61,1.311l-1.341,6.478a13.083,13.083,0,0,0-3.836,2.218l-6.286-2.079a1.644,1.644,0,0,0-1.939.738l-1.57,2.717a1.637,1.637,0,0,0-.219.838v2.574a1.645,1.645,0,0,0,.547,1.265l4.754,4.235v2.133l-4.754,4.235a1.634,1.634,0,0,0-.547,1.265v2.574a1.618,1.618,0,0,0,.219.838l1.57,2.717a1.641,1.641,0,0,0,1.939.738l6.286-2.079a13.058,13.058,0,0,0,3.836,2.218l1.341,6.478a1.644,1.644,0,0,0,1.61,1.309h3.138a1.644,1.644,0,0,0,1.61-1.309l1.341-6.478a13.083,13.083,0,0,0,3.836-2.218l6.286,2.079a1.644,1.644,0,0,0,1.939-.738l1.57-2.717a1.637,1.637,0,0,0,.219-.838v-2.574a1.645,1.645,0,0,0-.547-1.265l-4.754-4.235v-2.133Zm-13.065,5.45a5.693,5.693,0,0,1-5.538-4.383,5.69,5.69,0,0,1,11.076,0A5.693,5.693,0,0,1,200.791,158.126Z" transform="translate(-182.419 -132.377)" fill="#d1d3d4"/>
          <g id="Group_6056" data-name="Group 6056" transform="translate(0.003)">
            <g id="Group_6053" data-name="Group 6053" transform="translate(13.726)">
              <path id="Path_17006" data-name="Path 17006" d="M198.551,140.762h-9.285l1.464-7.072a1.644,1.644,0,0,1,1.61-1.311h3.138a1.644,1.644,0,0,1,1.61,1.311Z" transform="translate(-189.266 -132.379)" fill="#fff"/>
              <path id="Path_17007" data-name="Path 17007" d="M189.266,148.2h9.285l-1.464,7.072a1.644,1.644,0,0,1-1.61,1.311H192.34a1.644,1.644,0,0,1-1.61-1.311Z" transform="translate(-189.266 -116.479)" fill="#fff"/>
            </g>
            <g id="Group_6054" data-name="Group 6054" transform="translate(0 7.845)">
              <path id="Path_17008" data-name="Path 17008" d="M188.363,143.284,193,151.326l-6.855,2.268a1.644,1.644,0,0,1-1.939-.738l-1.57-2.717a1.643,1.643,0,0,1,.331-2.049Z" transform="translate(-182.42 -129.264)" fill="#fff"/>
              <path id="Path_17009" data-name="Path 17009" d="M200.107,146.685l-4.644-8.042,6.855-2.268a1.644,1.644,0,0,1,1.939.738l1.57,2.717a1.643,1.643,0,0,1-.331,2.049Z" transform="translate(-169.312 -136.291)" fill="#fff"/>
            </g>
            <g id="Group_6055" data-name="Group 6055" transform="translate(0.003 7.846)">
              <path id="Path_17010" data-name="Path 17010" d="M195.464,151.325l4.644-8.042,5.392,4.8a1.645,1.645,0,0,1,.331,2.049l-1.57,2.717a1.641,1.641,0,0,1-1.939.738Z" transform="translate(-169.313 -129.267)" fill="#fff"/>
              <path id="Path_17011" data-name="Path 17011" d="M193.005,138.642l-4.642,8.042-5.391-4.8a1.645,1.645,0,0,1-.331-2.049l1.57-2.717a1.641,1.641,0,0,1,1.939-.738Z" transform="translate(-182.421 -136.292)" fill="#fff"/>
            </g>
          </g>
          <path id="Path_17012" data-name="Path 17012" d="M198.131,135.863A13.065,13.065,0,1,0,211.2,148.928,13.064,13.064,0,0,0,198.131,135.863Zm0,18.763a5.7,5.7,0,1,1,5.7-5.7A5.7,5.7,0,0,1,198.131,154.626Z" transform="translate(-179.758 -128.877)" fill="#fff"/>
          <path id="Path_17013" data-name="Path 17013" d="M198.131,135.863A13.065,13.065,0,1,0,211.2,148.928,13.064,13.064,0,0,0,198.131,135.863Zm0,23.09a10.025,10.025,0,1,1,10.025-10.025A10.026,10.026,0,0,1,198.131,158.953Z" transform="translate(-179.758 -128.877)" fill="#e6e7e8"/>
        </g>
        <path id="Path_17014" data-name="Path 17014" d="M119.408,120.379H61.9a4.944,4.944,0,0,0-4.944,4.944V166.7A4.944,4.944,0,0,0,61.9,171.64h3.866l4.283,5.821a4.2,4.2,0,0,0,6.769,0L81.1,171.64h38.31a4.946,4.946,0,0,0,4.946-4.944V125.323A4.946,4.946,0,0,0,119.408,120.379Z" transform="translate(-41.48 -32.068)" fill="#136da0"/>
        <g id="Group_6058" data-name="Group 6058" transform="translate(15.471 82.296)">
          <path id="Path_17015" data-name="Path 17015" d="M61.9,119.989H119.41a4.944,4.944,0,0,1,4.944,4.944v36.143a4.944,4.944,0,0,1-4.944,4.944H81.1l-4.283,5.821a4.2,4.2,0,0,1-6.769,0l-4.283-5.821H61.9a4.944,4.944,0,0,1-4.944-4.944V124.933A4.944,4.944,0,0,1,61.9,119.989Z" transform="translate(-56.951 -114.756)" fill="#bcbec0"/>
          <path id="Path_17016" data-name="Path 17016" d="M61.9,117.379h57.512a4.944,4.944,0,0,1,4.944,4.944v36.143a4.944,4.944,0,0,1-4.944,4.944H80.11l-5.073,7.072a1.977,1.977,0,0,1-3.214,0l-5.073-7.072H61.9a4.944,4.944,0,0,1-4.944-4.944V122.323A4.948,4.948,0,0,1,61.9,117.379Z" transform="translate(-56.952 -117.379)" fill="#fff"/>
        </g>
        <g id="Group_6059" data-name="Group 6059" transform="translate(31.923 94.737)">
          <path id="Path_17017" data-name="Path 17017" d="M75.248,124.56a1.513,1.513,0,0,0-1.41-.976h-.776a1.513,1.513,0,0,0-1.41.976l-6.4,17.107a1.5,1.5,0,0,0,1.41,2.027h.694a1.51,1.51,0,0,0,1.41-.978l1.54-4.132h6.29l1.548,4.132a1.5,1.5,0,0,0,1.408.976h.694a1.5,1.5,0,0,0,1.41-2.031Zm-.014,10.384H71.659l1.79-4.792Z" transform="translate(-65.157 -123.584)" fill="#009add"/>
          <path id="Path_17018" data-name="Path 17018" d="M88.664,127.95a8.118,8.118,0,0,0-3.092-3.22,8.509,8.509,0,0,0-4.353-1.145H76.486a1.507,1.507,0,0,0-1.5,1.5v17.1a1.507,1.507,0,0,0,1.5,1.5h4.8a8.475,8.475,0,0,0,4.357-1.189,8.168,8.168,0,0,0,3.07-3.27,9.743,9.743,0,0,0,1.069-4.553v-2.238A9.627,9.627,0,0,0,88.664,127.95Zm-2.522,4.61v2.189a5.96,5.96,0,0,1-.67,2.787,4.63,4.63,0,0,1-1.746,1.857,4.787,4.787,0,0,1-2.506.664h-2.6V127.224h2.671a4.762,4.762,0,0,1,2.476.694,4.582,4.582,0,0,1,1.724,1.859A5.951,5.951,0,0,1,86.142,132.56Z" transform="translate(-55.283 -123.583)" fill="#009add"/>
        </g>
      </g>
    </g>
  </g>
</svg>
