<svg xmlns="http://www.w3.org/2000/svg" width="236.659" height="236.659" viewBox="0 0 236.659 236.659">
  <g id="Group_3542" data-name="Group 3542" transform="translate(-1335.663 -6647.122)">
    <g id="Group_3526" data-name="Group 3526" transform="translate(1185.704 5486.713)">
      <path id="Path_12509" data-name="Path 12509" d="M386.618,1278.739a118.33,118.33,0,1,1-118.331-118.33A118.332,118.332,0,0,1,386.618,1278.739Z" fill="#27bec5"/>
      <path id="Path_12510" data-name="Path 12510" d="M244.073,1365.824a118.314,118.314,0,0,0,118.222-114.05H362.2l-61.223-61.562h-1.062v-.072l-125.851,0,0,.068H173V1304.66l60.885,60.542v.156C237.247,1365.647,240.638,1365.824,244.073,1365.824Z" transform="translate(24.215 31.244)" fill="#1aa3a3"/>
      <g id="Group_3521" data-name="Group 3521" transform="translate(197.242 1221.443)">
        <rect id="Rectangle_526" data-name="Rectangle 526" width="127.976" height="114.45" transform="translate(0 0.072)" fill="#3b4350"/>
        <rect id="Rectangle_527" data-name="Rectangle 527" width="125.85" height="112.391" transform="translate(1.063)" fill="#fff"/>
        <rect id="Rectangle_528" data-name="Rectangle 528" width="127.976" height="17.341" transform="translate(0 0.072)" fill="#3b4350"/>
        <g id="Group_3520" data-name="Group 3520" transform="translate(92.006 5.38)">
          <path id="Path_12511" data-name="Path 12511" d="M224.6,1196.157a3.365,3.365,0,1,1-3.361-3.365A3.36,3.36,0,0,1,224.6,1196.157Z" transform="translate(-217.875 -1192.792)" fill="#fff"/>
          <path id="Path_12512" data-name="Path 12512" d="M229.2,1196.157a3.365,3.365,0,1,1-3.366-3.365A3.361,3.361,0,0,1,229.2,1196.157Z" transform="translate(-213.047 -1192.792)" fill="#fff"/>
          <path id="Path_12513" data-name="Path 12513" d="M233.793,1196.157a3.365,3.365,0,1,1-3.368-3.365A3.367,3.367,0,0,1,233.793,1196.157Z" transform="translate(-208.218 -1192.792)" fill="#fff"/>
        </g>
        <rect id="Rectangle_529" data-name="Rectangle 529" width="50.762" height="6.053" transform="translate(11.798 5.38)" fill="#fff"/>
      </g>
      <g id="Group_3525" data-name="Group 3525" transform="translate(212.283 1256.069)">
        <g id="Group_3523" data-name="Group 3523">
          <g id="Group_3522" data-name="Group 3522">
            <path id="Path_12514" data-name="Path 12514" d="M261.228,1306.264a8.173,8.173,0,0,1-3.776-1.042L237.9,1294.939a13.951,13.951,0,0,0-11.292,0l-19.555,10.283c-3.019,1.585-5.927,1.29-7.562-.648-.8-.95-1.647-2.705-1.136-5.673l3.737-21.774a14.028,14.028,0,0,0-3.491-10.74l-15.823-15.425c-2.818-2.752-2.586-5.173-2.2-6.37s1.622-3.288,5.519-3.852l21.865-3.181a14.017,14.017,0,0,0,9.135-6.635l9.779-19.812c1.745-3.536,4.116-4.061,5.375-4.061s3.632.525,5.375,4.061l9.779,19.812a14.018,14.018,0,0,0,9.133,6.635l21.867,3.181c3.9.564,5.129,2.658,5.519,3.852s.623,3.618-2.2,6.37l-15.819,15.425a14.034,14.034,0,0,0-3.495,10.74l3.737,21.774c.511,2.968-.336,4.723-1.136,5.673A4.854,4.854,0,0,1,261.228,1306.264Z" transform="translate(-180.347 -1207.052)" fill="#ffce34"/>
          </g>
        </g>
        <g id="Group_3524" data-name="Group 3524" transform="translate(0 0.025)">
          <path id="Path_12515" data-name="Path 12515" d="M232.251,1293.753a12.625,12.625,0,0,0-5.646,1.194l-19.555,10.283c-3.019,1.585-5.927,1.294-7.562-.646-.8-.949-1.647-2.7-1.136-5.671l3.737-21.777a14.033,14.033,0,0,0-3.491-10.742l-15.823-15.421c-2.818-2.752-2.586-5.172-2.2-6.37s1.622-3.288,5.519-3.854l21.865-3.177a14.017,14.017,0,0,0,9.135-6.641l9.779-19.812c1.745-3.53,4.116-4.057,5.375-4.057Z" transform="translate(-180.347 -1207.064)" fill="#eab234"/>
        </g>
      </g>
    </g>
  </g>
</svg>
