<svg xmlns="http://www.w3.org/2000/svg" width="1820" height="1363.913" viewBox="0 0 1820 1363.913">
  <g id="Group_7044" data-name="Group 7044" transform="translate(-49.5 -9454.146)">
    <g id="Group_3509" data-name="Group 3509" transform="translate(-724.595 9764.668)">
      <path id="Path_12484" data-name="Path 12484" d="M5607.628,744.269l4.648,1a4.211,4.211,0,0,1,3.235,3.236l1,4.648,1-4.648a4.211,4.211,0,0,1,3.236-3.236l4.648-1-4.648-1a4.211,4.211,0,0,1-3.236-3.235l-1-4.648-1,4.648a4.211,4.211,0,0,1-3.235,3.235Z" transform="translate(-3031.293 -215.004)" fill="#ffb700"/>
      <path id="Path_12485" data-name="Path 12485" d="M4999.87,1466.646l14.252,3.054a12.91,12.91,0,0,1,9.92,9.92l3.054,14.252,3.054-14.252a12.912,12.912,0,0,1,9.92-9.92l14.252-3.054-14.252-3.054a12.911,12.911,0,0,1-9.92-9.92l-3.054-14.252-3.054,14.252a12.91,12.91,0,0,1-9.92,9.92Z" transform="translate(-2635.775 -663.941)" fill="#ffb700"/>
      <path id="Path_12486" data-name="Path 12486" d="M5202.035,618.765l2.585.554a2.341,2.341,0,0,1,1.8,1.8l.554,2.585.554-2.585a2.342,2.342,0,0,1,1.8-1.8l2.584-.554-2.584-.554a2.342,2.342,0,0,1-1.8-1.8l-.554-2.585-.554,2.585a2.341,2.341,0,0,1-1.8,1.8Z" transform="translate(-2767.341 -139.853)" fill="#fff"/>
      <path id="Path_12487" data-name="Path 12487" d="M1565.2,1890.82l2.585.554a2.341,2.341,0,0,1,1.8,1.8l.554,2.585.554-2.585a2.341,2.341,0,0,1,1.8-1.8l2.585-.554-2.585-.554a2.341,2.341,0,0,1-1.8-1.8l-.554-2.585-.554,2.585a2.341,2.341,0,0,1-1.8,1.8Z" transform="translate(-514.838 -950.448)" fill="#fff"/>
      <path id="Path_12488" data-name="Path 12488" d="M1187.595,632.9l2.585.554a2.342,2.342,0,0,1,1.8,1.8l.554,2.585.554-2.585a2.341,2.341,0,0,1,1.8-1.8l2.585-.554-2.585-.554a2.341,2.341,0,0,1-1.8-1.8l-.554-2.585-.554,2.585a2.342,2.342,0,0,1-1.8,1.8Z" transform="translate(-269.098 -149.055)" fill="#fff"/>
      <path id="Path_12489" data-name="Path 12489" d="M4004.2,1435.225l4.938,1.058a4.473,4.473,0,0,1,3.437,3.437l1.058,4.938,1.058-4.938a4.474,4.474,0,0,1,3.437-3.437l4.938-1.058-4.937-1.058a4.473,4.473,0,0,1-3.437-3.437l-1.058-4.938-1.058,4.938a4.473,4.473,0,0,1-3.437,3.437Z" transform="translate(-2025.67 -656.153)" fill="#fff"/>
      <path id="Path_12490" data-name="Path 12490" d="M2301.723,478.952l11.667,2.5a10.57,10.57,0,0,1,8.121,8.121l2.5,11.667,2.5-11.667a10.569,10.569,0,0,1,8.121-8.121l11.667-2.5-11.667-2.5a10.569,10.569,0,0,1-8.121-8.121l-2.5-11.667-2.5,11.667a10.57,10.57,0,0,1-8.121,8.121Z" transform="translate(-957.45 -37.575)" fill="#ffb700"/>
      <path id="Path_12491" data-name="Path 12491" d="M3932.989,624.87l17.955,3.847a16.266,16.266,0,0,1,12.5,12.5l3.847,17.955,3.847-17.955a16.267,16.267,0,0,1,12.5-12.5l17.955-3.847-17.955-3.847a16.267,16.267,0,0,1-12.5-12.5l-3.847-17.955-3.847,17.955a16.266,16.266,0,0,1-12.5,12.5Z" transform="translate(-1978.744 -124.718)" fill="#0bf"/>
      <path id="Path_12492" data-name="Path 12492" d="M997.736,1398.3l6.035,1.293a5.468,5.468,0,0,1,4.2,4.2l1.293,6.035,1.293-6.036a5.468,5.468,0,0,1,4.2-4.2l6.035-1.293-6.035-1.293a5.466,5.466,0,0,1-4.2-4.2l-1.293-6.035-1.293,6.035a5.467,5.467,0,0,1-4.2,4.2Z" transform="translate(-145.541 -631.125)" fill="#fff"/>
      <path id="Path_12493" data-name="Path 12493" d="M4543.54,1411.6l6.035,1.293a5.468,5.468,0,0,1,4.2,4.2l1.293,6.035,1.293-6.035a5.468,5.468,0,0,1,4.2-4.2l6.035-1.293-6.035-1.293a5.468,5.468,0,0,1-4.2-4.2l-1.293-6.035-1.293,6.035a5.468,5.468,0,0,1-4.2,4.2Z" transform="translate(-2363.682 -639.62)" fill="#fff"/>
      <path id="Path_12494" data-name="Path 12494" d="M3576.209,1837.55l5.188,1.111a4.7,4.7,0,0,1,3.61,3.611l1.112,5.187,1.111-5.187a4.7,4.7,0,0,1,3.611-3.611l5.187-1.111-5.187-1.112a4.7,4.7,0,0,1-3.611-3.611l-1.111-5.187-1.112,5.188a4.7,4.7,0,0,1-3.61,3.611Z" transform="translate(-1757.231 -912.545)" fill="#ffb700"/>
      <path id="Path_12495" data-name="Path 12495" d="M2304.765,1662.678l11.111,2.381a10.065,10.065,0,0,1,7.734,7.734l2.381,11.111,2.381-11.111a10.065,10.065,0,0,1,7.734-7.734l11.111-2.381L2336.1,1660.3a10.065,10.065,0,0,1-7.734-7.734l-2.381-11.111-2.381,11.111a10.066,10.066,0,0,1-7.734,7.734Z" transform="translate(-959.404 -791.378)" fill="#fff"/>
      <path id="Path_12496" data-name="Path 12496" d="M1201.735,1568.563l15.629,3.348a14.16,14.16,0,0,1,10.879,10.879l3.348,15.628,3.349-15.629a14.159,14.159,0,0,1,10.878-10.878l15.629-3.348-15.629-3.349a14.159,14.159,0,0,1-10.878-10.878l-3.349-15.629-3.348,15.628a14.16,14.16,0,0,1-10.879,10.879Z" transform="translate(-278.3 -724.514)" fill="#fff"/>
      <path id="Path_12497" data-name="Path 12497" d="M3706.591,1503.951l11.111,2.381a10.067,10.067,0,0,1,7.734,7.734l2.381,11.111,2.381-11.111a10.066,10.066,0,0,1,7.734-7.734l11.111-2.381-11.111-2.381a10.065,10.065,0,0,1-7.734-7.734l-2.381-11.111-2.381,11.111a10.066,10.066,0,0,1-7.734,7.734Z" transform="translate(-1838.051 -691.913)" fill="#9bd900"/>
      <path id="Path_12547" data-name="Path 12547" d="M3706.591,1503.951l11.111,2.381a10.067,10.067,0,0,1,7.734,7.734l2.381,11.111,2.381-11.111a10.066,10.066,0,0,1,7.734-7.734l11.111-2.381-11.111-2.381a10.065,10.065,0,0,1-7.734-7.734l-2.381-11.111-2.381,11.111a10.066,10.066,0,0,1-7.734,7.734Z" transform="translate(-1251.051 -506.913)" fill="#9bd900"/>
      <path id="Path_12498" data-name="Path 12498" d="M4335.515,420.152l11.111,2.38a10.066,10.066,0,0,1,7.734,7.734l2.381,11.111,2.38-11.111a10.067,10.067,0,0,1,7.734-7.734l11.111-2.38-11.111-2.381a10.067,10.067,0,0,1-7.734-7.734l-2.38-11.111-2.381,11.111a10.066,10.066,0,0,1-7.734,7.734Z" transform="translate(-2232.252 0)" fill="#fff"/>
      <path id="Path_12499" data-name="Path 12499" d="M1626.856,755.332l11.111,2.381a10.065,10.065,0,0,1,7.734,7.734l2.38,11.111,2.381-11.111a10.066,10.066,0,0,1,7.734-7.734l11.111-2.381-11.111-2.381a10.066,10.066,0,0,1-7.734-7.734l-2.381-11.111-2.381,11.111a10.066,10.066,0,0,1-7.734,7.734Z" transform="translate(-554.96 -213.984)" fill="#d10f0f"/>
      <path id="Path_12500" data-name="Path 12500" d="M2137.562,1461.864l3.356.719a3.041,3.041,0,0,1,2.336,2.336l.719,3.356.719-3.356a3.041,3.041,0,0,1,2.336-2.336l3.356-.719-3.356-.719a3.04,3.04,0,0,1-2.336-2.336l-.719-3.356-.719,3.356a3.04,3.04,0,0,1-2.336,2.336Z" transform="translate(-855.176 -675.252)" fill="#fff"/>
      <path id="Path_12501" data-name="Path 12501" d="M3688.232,798.382l3.356.719a3.041,3.041,0,0,1,2.336,2.336l.719,3.356.719-3.356a3.041,3.041,0,0,1,2.336-2.336l3.356-.719-3.356-.719a3.041,3.041,0,0,1-2.336-2.336l-.719-3.356-.719,3.356a3.041,3.041,0,0,1-2.336,2.336Z" transform="translate(-1827.767 -251.204)" fill="#fff"/>
      <path id="Path_12502" data-name="Path 12502" d="M1983.7,695.2l3.356.719a3.041,3.041,0,0,1,2.336,2.336l.719,3.356.719-3.356a3.041,3.041,0,0,1,2.336-2.336l3.356-.719-3.356-.719a3.041,3.041,0,0,1-2.336-2.336l-.719-3.356-.719,3.356a3.041,3.041,0,0,1-2.336,2.336Z" transform="translate(-758.674 -185.258)" fill="#fff"/>
      <path id="Path_12503" data-name="Path 12503" d="M2967.2,1812.794l3.356.719a3.039,3.039,0,0,1,2.336,2.336l.719,3.356.719-3.356a3.04,3.04,0,0,1,2.336-2.336l3.356-.719-3.356-.719a3.04,3.04,0,0,1-2.336-2.336l-.719-3.356-.719,3.356a3.039,3.039,0,0,1-2.336,2.336Z" transform="translate(-1375.53 -898.711)" fill="#fff"/>
      <g id="Group_3506" data-name="Group 3506" transform="translate(1170.446 752.139)">
        <path id="Path_12504" data-name="Path 12504" d="M1845.86,1394.922a8.76,8.76,0,1,1,8.76-8.76A8.77,8.77,0,0,1,1845.86,1394.922Zm0-15.424a6.664,6.664,0,1,0,6.665,6.664A6.672,6.672,0,0,0,1845.86,1379.5Z" transform="translate(-1837.1 -1377.402)" fill="#fff"/>
      </g>
      <g id="Group_3507" data-name="Group 3507" transform="translate(2054.586 853.237)">
        <path id="Path_12505" data-name="Path 12505" d="M4217.109,1668.027a8.76,8.76,0,1,1,8.76-8.76A8.77,8.77,0,0,1,4217.109,1668.027Zm0-15.425a6.665,6.665,0,1,0,6.665,6.665A6.672,6.672,0,0,0,4217.109,1652.6Z" transform="translate(-4208.349 -1650.507)" fill="#fff"/>
      </g>
      <circle id="Ellipse_1762" data-name="Ellipse 1762" cx="7.712" cy="7.712" r="7.712" transform="translate(1012.895 549.202)" fill="#fff"/>
      <circle id="Ellipse_1763" data-name="Ellipse 1763" cx="7.712" cy="7.712" r="7.712" transform="translate(1230.398 855.876)" fill="#ffb700"/>
      <circle id="Ellipse_1764" data-name="Ellipse 1764" cx="7.712" cy="7.712" r="7.712" transform="translate(774.095 606.581)" fill="#0095ff"/>
      <circle id="Ellipse_1765" data-name="Ellipse 1765" cx="9.307" cy="9.307" r="9.307" transform="translate(1390.389 547.446)" fill="#fff"/>
      <circle id="Ellipse_1766" data-name="Ellipse 1766" cx="7.165" cy="7.165" r="7.165" transform="translate(1867.37 412.863)" fill="#fff"/>
      <g id="Group_3508" data-name="Group 3508" transform="translate(2266.838 509.587)">
        <path id="Path_12506" data-name="Path 12506" d="M4727.432,717.7a6.058,6.058,0,1,1,6.058-6.058A6.065,6.065,0,0,1,4727.432,717.7Zm0-10.02a3.962,3.962,0,1,0,3.962,3.962A3.967,3.967,0,0,0,4727.432,707.68Z" transform="translate(-4721.374 -705.585)" fill="#fff"/>
      </g>
      <circle id="Ellipse_1767" data-name="Ellipse 1767" cx="5.608" cy="5.608" r="5.608" transform="translate(1394.07 755.484)" fill="#fff"/>
    </g>
    <g id="Group_3514" data-name="Group 3514" transform="translate(917.919 8989.928)">
      <path id="Path_12507" data-name="Path 12507" d="M760.436,571.484a43.725,43.725,0,0,1,3.914-4.2,13.537,13.537,0,0,1,2.255-1.656,8.338,8.338,0,0,1,2.476-.952,6.832,6.832,0,0,1,3.754.333,3.533,3.533,0,0,1,2.312,2.448c.451,1.606-.641,2.642-2.078,3.715l-1.122.816c-.191.14-.384.282-.574.428s-.37.294-.551.448a6.887,6.887,0,0,0-1.787,2.172,5.319,5.319,0,0,1,2.6-.889,9.439,9.439,0,0,1,2.679-.052,3.242,3.242,0,0,1,1.5.78,5.594,5.594,0,0,1,1.094,1.271,1.83,1.83,0,0,1-.1,1.619,5.842,5.842,0,0,1-.639,1.1,7.1,7.1,0,0,1-1.063,1.146,8.534,8.534,0,0,1-3.708,1.769,10.133,10.133,0,0,1-2.047.259A13.115,13.115,0,0,0,772,583.173a12.118,12.118,0,0,0,1.242.314c.218.043.442.08.668.11s.468.047.706.059a8.288,8.288,0,0,0,2.9-.348,3.43,3.43,0,0,1,3.629.775,1.676,1.676,0,0,1-.43,2.7,15.562,15.562,0,0,0-3.125,2.848,12.68,12.68,0,0,0-1.027,1.426,12.214,12.214,0,0,0-.706,1.325,11.092,11.092,0,0,0-.717,2.09,6.512,6.512,0,0,0-.146.831,13.642,13.642,0,0,1,1.172-1.118A14.957,14.957,0,0,1,779.1,592.2a7.7,7.7,0,0,1,3.741-.939,4.867,4.867,0,0,1,3.673,1.834,2.864,2.864,0,0,1,.813,2.408,9.783,9.783,0,0,1-.841,2.633,16.786,16.786,0,0,0-1.026,2.768,5.026,5.026,0,0,0-.136,1.414,3.32,3.32,0,0,0,.375,1.4c.124-.291.244-.6.374-.925s.274-.655.429-.974a5.27,5.27,0,0,1,1.164-1.666,2.6,2.6,0,0,1,1.3-.621,3.205,3.205,0,0,1,.7-.042,4.555,4.555,0,0,1,2.95,1.221,2.725,2.725,0,0,1,.735,1.482,4.652,4.652,0,0,1-.157,1.8,45.555,45.555,0,0,1-1.626,4.339,11.635,11.635,0,0,0-.953,4.826,6.249,6.249,0,0,0,2.688,4.658,4.191,4.191,0,0,0,.418.3,7.978,7.978,0,0,1-.724-3.921,6.123,6.123,0,0,1,1.325-3.456,5.211,5.211,0,0,1,3.248-1.882,4.446,4.446,0,0,1,1.763.093,4.589,4.589,0,0,1,.843.315,4.671,4.671,0,0,1,.82.467,2.2,2.2,0,0,1,.91,1.977,6.58,6.58,0,0,1-.671,2.445,14.524,14.524,0,0,1-1.187,2.071c-.366.537-.643.875-.643.875a15.286,15.286,0,0,0,2.56-.5,17.493,17.493,0,0,0,2.51-.9,16.035,16.035,0,0,0,2.764-1.63,2.277,2.277,0,0,1,2.6-.118c1.594.814,2.177,1.838,1.237,3.759-.233.473-.648,1.107-.891,1.6a3.422,3.422,0,0,0-.047,2.02,3.737,3.737,0,0,0,1.072,1.968,7.41,7.41,0,0,1,.6-2.382,4.145,4.145,0,0,1,2.185-2.139,3.513,3.513,0,0,1,1.3-.266,4.7,4.7,0,0,1,.628.043,2.736,2.736,0,0,1,.587.157,3.383,3.383,0,0,1,1.45,1.16,5.38,5.38,0,0,1,.826,1.716,5.854,5.854,0,0,1,1.96-2.048c.315.357.634.71.871,1.041a6.235,6.235,0,0,0,.823,6.075,7.66,7.66,0,0,1,.282-2.863,5.773,5.773,0,0,1,2.314-3.3,4.084,4.084,0,0,1,1.548-.6,3.79,3.79,0,0,1,1.614.018,3.166,3.166,0,0,1,1.579.845,4.15,4.15,0,0,1,.533.662,5.054,5.054,0,0,1,.41.8,30.725,30.725,0,0,1,1.1,4.383,21.818,21.818,0,0,0,.742,2.614,13.2,13.2,0,0,0,1.3,2.628,11.957,11.957,0,0,0,2.192,2.521,14.89,14.89,0,0,0,3.435,2.085,44.688,44.688,0,0,1-2.8-4.995,13.223,13.223,0,0,1-.881-2.679,8.3,8.3,0,0,1-.147-2.645,6.654,6.654,0,0,1,1.467-3.448,3.586,3.586,0,0,1,3.045-1.476,2.527,2.527,0,0,1,1.857.966,7.221,7.221,0,0,1,1.041,2.16c.288.845.554,1.772.917,2.661a9.336,9.336,0,0,0,.635,1.288,5.428,5.428,0,0,0,.877,1.1,5.318,5.318,0,0,1-.04-2.75,9.532,9.532,0,0,1,.779-2.575,3.254,3.254,0,0,1,1.208-1.2,7.03,7.03,0,0,1,1.55-.618c.77-.218,2.212.776,3.12,2.914a8.56,8.56,0,0,1,.53,4.078,9.881,9.881,0,0,1-.391,2.008s.24-.2.6-.561a13.035,13.035,0,0,0,1.3-1.594A9.445,9.445,0,0,0,856,623.886a3.52,3.52,0,0,1,1.858-3.248,1.7,1.7,0,0,1,1.422-.02,1.922,1.922,0,0,1,1.017,1.3,14.045,14.045,0,0,0,3.812,6.352,12.045,12.045,0,0,0,.969.814,8.831,8.831,0,0,0,.8.527,6.326,6.326,0,0,0,.741.384,13.476,13.476,0,0,1-.7-1.456,14.933,14.933,0,0,1-.978-3.406,7.875,7.875,0,0,1,.26-3.876,4.584,4.584,0,0,1,1.028-1.637,6.319,6.319,0,0,1,.809-.7,5.9,5.9,0,0,1,1.044-.585,3.022,3.022,0,0,1,1.344-.276,2.708,2.708,0,0,1,.313.029,2.888,2.888,0,0,1,.3.05,3.275,3.275,0,0,1,.587.193,9.049,9.049,0,0,1,2.238,1.6,17.17,17.17,0,0,0,2.328,1.863,4.061,4.061,0,0,0,2.738.61,9.783,9.783,0,0,1-2.779-2.959,3.043,3.043,0,0,1,.279-2.766,4.7,4.7,0,0,1,.846-1.065,4.01,4.01,0,0,1,.931-.708,3.189,3.189,0,0,1,3.306.48,43.262,43.262,0,0,1,3.609,2.851,18.014,18.014,0,0,0,2.048,1.454,8,8,0,0,0,2.264.961,6.028,6.028,0,0,0,2.506.067,6.815,6.815,0,0,0,1.357-.4,8.3,8.3,0,0,0,1.385-.808c.138-.1.273-.2.408-.31a8.057,8.057,0,0,1-2.017.015q-.248-.03-.492-.075c-.165-.034-.329-.073-.491-.117a7.764,7.764,0,0,1-.941-.323,6.23,6.23,0,0,1-2.894-2.344,5.1,5.1,0,0,1-.775-3.645,4.661,4.661,0,0,1,.24-.847,4.475,4.475,0,0,1,1.641-2.15,2.2,2.2,0,0,1,1.069-.4,2.486,2.486,0,0,1,1.09.143,6.4,6.4,0,0,1,2.109,1.375,14.618,14.618,0,0,1,1.608,1.77c.4.514.634.881.634.881a14.881,14.881,0,0,0,.338-2.558,16.926,16.926,0,0,0-.791-5.806,2.376,2.376,0,0,1,.666-2.53,4.578,4.578,0,0,1,.957-.726,2.352,2.352,0,0,1,.946-.288,2.792,2.792,0,0,1,2.067,1.009c.378.368.855.959,1.245,1.342a3.334,3.334,0,0,0,1.892.653,3.863,3.863,0,0,0,2.231-.385,7.5,7.5,0,0,1-2.089-1.309,4.289,4.289,0,0,1-.979-1.323,3.906,3.906,0,0,1-.252-.7,4.037,4.037,0,0,1-.126-.711,3.265,3.265,0,0,1,.707-2.417,3.138,3.138,0,0,1,.713-.6,3.738,3.738,0,0,1,.838-.42,4.847,4.847,0,0,1,1.877-.263,5.905,5.905,0,0,1-1.348-2.576,8.724,8.724,0,0,1-.237-1.779,12.915,12.915,0,0,0,1.515,1.357,6.339,6.339,0,0,0,6.048,1.112,7.766,7.766,0,0,1-2.645-1.164,5.813,5.813,0,0,1-2.418-3.223,3.915,3.915,0,0,1,.44-3.182,3.33,3.33,0,0,1,2.968-1.688,9.416,9.416,0,0,1,1.007-.005c.349.014.706.038,1.081.072.749.068,1.556.168,2.411.245a22.369,22.369,0,0,0,2.7.1c.472-.015.954-.05,1.445-.114a10.793,10.793,0,0,0,1.489-.29,11.838,11.838,0,0,0,3.045-1.317q.389-.236.78-.512a8.7,8.7,0,0,0,.775-.6,16.333,16.333,0,0,0,1.5-1.5,38.956,38.956,0,0,1-5.616,1.111,10.458,10.458,0,0,1-5.373-.673,6.754,6.754,0,0,1-2.84-2.474,4.183,4.183,0,0,1-.614-1.626,3.15,3.15,0,0,1,.168-1.718,2.409,2.409,0,0,1,1.518-1.455,7.1,7.1,0,0,1,2.361-.325c1.776-.029,3.842.138,5.558-.75a5.327,5.327,0,0,1-2.629-.81,9.748,9.748,0,0,1-2.211-1.535,4.084,4.084,0,0,1-.883-3.182,1.835,1.835,0,0,1,1-1.258,6.239,6.239,0,0,1,2.709-.818,8.552,8.552,0,0,1,4.042.747,9.942,9.942,0,0,1,1.8.99s-.118-.291-.355-.744a11.107,11.107,0,0,0-1.1-1.722,9.538,9.538,0,0,0-4.389-3.351,3.926,3.926,0,0,1-1.781-1.188,2.96,2.96,0,0,1-.729-1.575c-.115-1.039.535-1.95,1.978-1.929a13.949,13.949,0,0,0,7.194-1.678,11.356,11.356,0,0,0,1.832-1.267,5.6,5.6,0,0,0,.455-.424c.1-.1.147-.161.147-.161a13.457,13.457,0,0,1-1.6.216,14.982,14.982,0,0,1-3.544-.118,7.949,7.949,0,0,1-3.619-1.441,4.663,4.663,0,0,1-1.258-1.485,4.732,4.732,0,0,1-.388-.986,7.108,7.108,0,0,1-.242-1.175,2.9,2.9,0,0,1,.789-2.427,6.566,6.566,0,0,1,1-.864c.374-.266.786-.517,1.209-.767a16.949,16.949,0,0,0,2.471-1.634,3.892,3.892,0,0,0,1.456-2.415c-.544.325-1.135.728-1.751,1.061a5.26,5.26,0,0,1-1.922.66,2.6,2.6,0,0,1-1.415-.265,3.766,3.766,0,0,1-1.134-.858,4.391,4.391,0,0,1-1.125-2.243,3.254,3.254,0,0,1,.006-.86,2.494,2.494,0,0,1,.263-.768,4.683,4.683,0,0,1,1.187-1.36,17.026,17.026,0,0,1,1.8-1.254c.666-.418,1.38-.842,2.067-1.3a11.633,11.633,0,0,0,3.612-3.344,6.249,6.249,0,0,0,.561-5.353,4.786,4.786,0,0,0-.161-.487,8.017,8.017,0,0,1-1.72,3.6,6.117,6.117,0,0,1-3.1,2.017,5.213,5.213,0,0,1-3.734-.387,4.443,4.443,0,0,1-1.371-1.11,4.316,4.316,0,0,1-.495-.75,4.7,4.7,0,0,1-.39-.859c-.543-1.6.867-2.849,2.4-3.719a14.6,14.6,0,0,1,2.179-.981c.612-.22,1.035-.331,1.035-.331a15.31,15.31,0,0,0-2.369-1.1,17.481,17.481,0,0,0-2.563-.743,13.925,13.925,0,0,0-1.535-.229,15.828,15.828,0,0,0-1.655-.075A2.277,2.277,0,0,1,910.685,518a3.025,3.025,0,0,1-.41-2.106,2.853,2.853,0,0,1,1.613-1.663c.466-.246,1.174-.516,1.658-.77a3.414,3.414,0,0,0,1.221-1.608,4.409,4.409,0,0,0,.328-1.153,2.744,2.744,0,0,0-.037-1.071,7.4,7.4,0,0,1-1.879,1.579,4.155,4.155,0,0,1-3.027.452,3.46,3.46,0,0,1-2.069-1.423,3.377,3.377,0,0,1-.5-1.789,4.78,4.78,0,0,1,.087-.962c.03-.159.068-.316.112-.47s.088-.3.143-.444a6.091,6.091,0,0,1-2.893.51,2.92,2.92,0,0,1-1.32-.554,11.343,11.343,0,0,0,1.327-.8,6.244,6.244,0,0,0,2.9-5.4,7.663,7.663,0,0,1-1.911,2.15,5.768,5.768,0,0,1-3.812,1.311,4.137,4.137,0,0,1-1.61-.422,3.792,3.792,0,0,1-1.293-.966,3.176,3.176,0,0,1-.779-1.614,4.126,4.126,0,0,1,.1-1.739,30.756,30.756,0,0,1,1.693-4.2,15.734,15.734,0,0,0,1.433-5.437,11.976,11.976,0,0,0-.017-1.61q-.032-.417-.1-.849c-.046-.285-.109-.568-.181-.859a14.722,14.722,0,0,0-1.534-3.725,44.159,44.159,0,0,1-.694,5.7,13.249,13.249,0,0,1-.854,2.67,8.322,8.322,0,0,1-1.441,2.225,6.762,6.762,0,0,1-1.49,1.2,6.677,6.677,0,0,1-.848.428,6.1,6.1,0,0,1-.89.3,3.543,3.543,0,0,1-3.314-.618c-1.308-1.038-1.035-2.517-.5-4.23s1.322-3.613.995-5.5a5.32,5.32,0,0,1-1.585,2.248,9.427,9.427,0,0,1-2.137,1.614,3.332,3.332,0,0,1-1.677.254,5.589,5.589,0,0,1-1.63-.39,1.836,1.836,0,0,1-.867-1.373,5.693,5.693,0,0,1-.133-1.261,7.131,7.131,0,0,1,.189-1.553,8.541,8.541,0,0,1,1.965-3.608,10.109,10.109,0,0,1,1.5-1.409,13.076,13.076,0,0,0-2.8.625,10.355,10.355,0,0,0-2.4,1.149,8.268,8.268,0,0,0-2.145,1.982,3.935,3.935,0,0,1-1.687,1.332,3.153,3.153,0,0,1-.886.216,3.113,3.113,0,0,1-.822-.044,1.681,1.681,0,0,1-1.234-2.445,15.592,15.592,0,0,0,.861-4.142c.02-.313.029-.617.028-.911s-.015-.57-.036-.84a12.258,12.258,0,0,0-.206-1.488,11.1,11.1,0,0,0-.645-2.116,6.554,6.554,0,0,0-.369-.759,13.668,13.668,0,0,1-.293,1.594,14.968,14.968,0,0,1-1.21,3.333,7.752,7.752,0,0,1-2.478,2.959,4.872,4.872,0,0,1-4.047.672,2.862,2.862,0,0,1-2.071-1.47,9.806,9.806,0,0,1-.866-2.626,16.719,16.719,0,0,0-.8-2.84,5.006,5.006,0,0,0-.723-1.222,3.836,3.836,0,0,0-.5-.509,2.894,2.894,0,0,0-.623-.41c.145.608.342,1.318.467,2.015a5.271,5.271,0,0,1,.039,2.031,2.609,2.609,0,0,1-.687,1.268,3.948,3.948,0,0,1-1.16.791,4.426,4.426,0,0,1-2.483.4,2.567,2.567,0,0,1-.814-.288,2.751,2.751,0,0,1-.651-.486,4.61,4.61,0,0,1-.932-1.537,44.262,44.262,0,0,1-1.241-4.464,16.483,16.483,0,0,0-.8-2.366,8.475,8.475,0,0,0-1.268-2.093,6.158,6.158,0,0,0-1.985-1.561,7.531,7.531,0,0,0-2.928-.611c-.169,0-.339,0-.512,0a7.983,7.983,0,0,1,2.892,2.72,6.425,6.425,0,0,1,.766,1.754,5.754,5.754,0,0,1,.2,1.842,5.345,5.345,0,0,1-.47,1.914,5.12,5.12,0,0,1-.46.8,4.909,4.909,0,0,1-.586.7,4.443,4.443,0,0,1-3.286,1.3c-1.692.045-2.443-1.673-2.794-3.4a14.65,14.65,0,0,1-.258-2.379c-.02-.65.006-1.084.006-1.084s-.2.166-.524.48c-.162.157-.354.35-.567.581s-.445.516-.688.825a16.778,16.778,0,0,0-2.783,5.132,2.331,2.331,0,0,1-2.026,1.664,3.253,3.253,0,0,1-2.134-.3,2.8,2.8,0,0,1-1.077-2.035c-.089-.52-.126-1.278-.217-1.817a3.34,3.34,0,0,0-1.146-1.644,3.878,3.878,0,0,0-2.032-1.007,7.516,7.516,0,0,1,.919,2.289,4.194,4.194,0,0,1-.511,3.016,3.02,3.02,0,0,1-2.923,1.6,3.721,3.721,0,0,1-.924-.153,4.847,4.847,0,0,1-1.673-.891,5.907,5.907,0,0,1-.422,2.876,7.924,7.924,0,0,1-.863,1.508,12.766,12.766,0,0,0-.418-1.919,6.328,6.328,0,0,0-4.241-4.449,7.764,7.764,0,0,1,1.458,2.495,6.508,6.508,0,0,1,.393,2.178,5.215,5.215,0,0,1-.089.961,4.935,4.935,0,0,1-.24.884A3.9,3.9,0,0,1,816.666,483a3.342,3.342,0,0,1-3.392-.373,13.95,13.95,0,0,1-1.655-1.285c-.567-.494-1.161-1.047-1.808-1.61a16.446,16.446,0,0,0-4.744-3.063,11.809,11.809,0,0,0-3.235-.715,13.253,13.253,0,0,0-1.915-.015,16.3,16.3,0,0,0-2.1.338c.825.341,1.708.692,2.589,1.076.221.1.44.194.66.3s.443.214.663.325c.439.222.87.455,1.287.7a10.442,10.442,0,0,1,3.954,3.694,6.77,6.77,0,0,1,.85,3.672,4.2,4.2,0,0,1-.455,1.68,3.274,3.274,0,0,1-1.147,1.289,2.4,2.4,0,0,1-2.082.29,7.212,7.212,0,0,1-2.1-1.126c-1.455-1.019-3.029-2.366-4.937-2.655a5.325,5.325,0,0,1,1.652,2.2,9.728,9.728,0,0,1,.886,2.539,4.087,4.087,0,0,1-1.157,3.1c-.5.625-2.234.687-4.225-.5a8.552,8.552,0,0,1-2.829-2.982,9.959,9.959,0,0,1-.87-1.856s-.075.3-.151.81c-.038.253-.075.556-.1.9s-.03.735-.02,1.145a9.51,9.51,0,0,0,1.57,5.287,3.54,3.54,0,0,1,.4,3.715,1.7,1.7,0,0,1-1.135.857,1.958,1.958,0,0,1-1.591-.454,14.044,14.044,0,0,0-6.816-2.893,11.978,11.978,0,0,0-1.262-.088,8.465,8.465,0,0,0-.956.041,6.313,6.313,0,0,0-.825.125,13.484,13.484,0,0,1,1.42.768,14.955,14.955,0,0,1,2.793,2.181,7.865,7.865,0,0,1,2.067,3.289,4.585,4.585,0,0,1,.13,1.93,5.6,5.6,0,0,1-.746,2.128,3.031,3.031,0,0,1-.928,1.013,3.165,3.165,0,0,1-1.131.488,9.071,9.071,0,0,1-2.754.016,16.524,16.524,0,0,0-2.973-.139,4.075,4.075,0,0,0-2.58,1.109,9.807,9.807,0,0,1,3.989.768,3.033,3.033,0,0,1,1.394,2.4,4.858,4.858,0,0,1-.061,1.359,3.7,3.7,0,0,1-.335,1.121,2.489,2.489,0,0,1-1.19,1.152,5.069,5.069,0,0,1-1.767.4,43.384,43.384,0,0,1-4.6-.194,18.075,18.075,0,0,0-2.514.023,10.21,10.21,0,0,0-1.234.184,7.175,7.175,0,0,0-1.158.368,6.042,6.042,0,0,0-2.072,1.416,6.452,6.452,0,0,0-.861,1.124,8.665,8.665,0,0,0-.646,1.469c-.054.161-.1.323-.149.491a7.529,7.529,0,0,1,3.483-1.913,6.239,6.239,0,0,1,3.721.2,4.927,4.927,0,0,1,3.233,4.2,4.5,4.5,0,0,1-.23,1.822,2.245,2.245,0,0,1-.628.954,2.488,2.488,0,0,1-.965.524,6.406,6.406,0,0,1-2.515.126,14.619,14.619,0,0,1-2.341-.487c-.625-.182-1.03-.34-1.03-.34a14.841,14.841,0,0,0,1.229,2.269,16.861,16.861,0,0,0,4.057,4.231,2.38,2.38,0,0,1,.543.534,2.109,2.109,0,0,1,.179.3,2.265,2.265,0,0,1,.137.312,2.538,2.538,0,0,1,.089,1.294,3.019,3.019,0,0,1-.946,1.938,2.8,2.8,0,0,1-2.265.4c-.522-.075-1.256-.272-1.8-.351a3.311,3.311,0,0,0-1.909.587,3.834,3.834,0,0,0-1.567,1.626,7.481,7.481,0,0,1,2.457-.172,4.071,4.071,0,0,1,2.693,1.41,3.315,3.315,0,0,1,.868,2.371,2.929,2.929,0,0,1-.185.819,42.233,42.233,0,0,0-5.542,7.278,7.711,7.711,0,0,1,2.816-.614,5.7,5.7,0,0,1,3.838,1.186,4.528,4.528,0,0,1,.6.6,4.078,4.078,0,0,1,.476.684,3.769,3.769,0,0,1,.462,1.544,3.514,3.514,0,0,1-.05.949,3.2,3.2,0,0,1-.115.422,2.877,2.877,0,0,1-.151.391,4.059,4.059,0,0,1-1.1,1.348,31.025,31.025,0,0,1-3.85,2.4,20.357,20.357,0,0,0-2.237,1.5,13.325,13.325,0,0,0-2.115,2.047,12.013,12.013,0,0,0-.937,1.313c-.144.237-.294.487-.419.743s-.245.523-.357.8A14.64,14.64,0,0,0,760.436,571.484Zm19.406-23.777c0-.15.008-.308.012-.48.016-.425,0-.915.06-1.459s.088-1.148.138-1.805q.036-.493.076-1.025l.142-1.1.148-1.168.076-.61c.025-.206.049-.416.092-.625l.472-2.644a66.014,66.014,0,0,1,3.729-12.2,64.679,64.679,0,0,1,7.146-12.768c.7-1.036,1.5-2,2.262-2.979.372-.5.791-.958,1.2-1.427l1.211-1.4,1.267-1.33.628-.661.313-.329.328-.312,1.3-1.239.643-.613.668-.576a65.581,65.581,0,0,1,10.361-7.477c1.6-.967,3.153-1.711,4.5-2.408l1.941-.875.861-.392.8-.314,1.355-.534.546-.217,3.077-1.055c.141-.054.358-.111.639-.191l2.436-.693c.13-.041.267-.073.407-.1l.431-.1.922-.212,1-.232.528-.123.552-.1,2.385-.426c.105-.018.21-.04.317-.056l.324-.04.659-.082,1.364-.174a66.682,66.682,0,0,1,12.79-.214l.88.066.443.032c.147.014.294.037.442.055l1.781.228.9.112c.3.035.6.1.9.153l1.806.322c.608.092,1.205.245,1.808.384l1.812.416c.152.031.3.076.45.119l.448.128.9.256.9.254c.3.084.6.164.895.272a66.039,66.039,0,0,1,13.346,5.982,63.892,63.892,0,0,1,10.308,7.553c.362.3.682.628,1.009.934l.95.906c.633.575,1.174,1.179,1.7,1.727l.763.8c.122.13.247.252.36.381l.329.382,1.185,1.369c.178.207.351.4.507.586l.421.539.666.848s1.7,2.286,2.042,2.763c.168.24.383.53.623.88l.785,1.229.466.726.251.389c.087.132.173.268.252.413l1.061,1.848c.4.649.744,1.381,1.137,2.138l.6,1.167c.108.2.191.408.287.615l.285.633a63.82,63.82,0,0,1,4.15,12.065,66,66,0,0,1,1.745,14.537,64.059,64.059,0,0,1-1.548,14.562A64.8,64.8,0,0,1,904,575.83l-.565,1.252-.272.605-.3.577-1.1,2.157c-.372.663-.734,1.276-1.06,1.848l-.47.821c-.149.262-.316.5-.46.729-.328.507-.612.954-.857,1.337-.017.025-2.033,2.928-2.12,3.051-.045.061-.1.14-.164.228l-.24.3-1.567,2c-.347.422-.753.871-1.181,1.372l-.672.778c-.118.133-.23.276-.359.407l-.389.406-1.672,1.757-1.947,1.855a66.651,66.651,0,0,1-10.2,7.7,65.241,65.241,0,0,1-13.274,6.141c-1.172.43-2.384.73-3.576,1.08l-.448.128-.223.064-.227.052-.905.207-1.8.417c-.149.038-.3.066-.451.091l-.452.08-.9.16-.9.161-.446.081c-.148.028-.3.054-.447.07l-1.781.224-.881.113c-.146.018-.292.041-.438.054l-.439.032a67.865,67.865,0,0,1-12.8-.035l-2.665-.34c-.211-.027-.421-.05-.627-.08l-.6-.11-1.158-.208c-.748-.135-1.452-.243-2.089-.409l-1.761-.407c-.265-.063-.519-.114-.754-.176l-.656-.188-1.035-.295-.863-.244c-.121.142-.775-.116-1.563-.472l0-.032-.286-.1c-1.273-.587-2.76-1.328-2.938-1.069l-1.681-.664-1.939-.879-.528-.238c-.179-.08-.362-.159-.539-.255l-1.108-.57-1.168-.6-.3-.153-.3-.17-.6-.347a64.45,64.45,0,0,1-10.458-7.34l-1.34-1.158-1.3-1.24-.657-.625-.33-.314-.314-.331-1.267-1.33c-.21-.224-.43-.441-.635-.671l-.606-.7-1.22-1.407c-.1-.115-.2-.237-.3-.36l-.288-.368-.577-.736-.579-.736-.29-.367c-.1-.124-.182-.254-.273-.38a66.445,66.445,0,0,1-7.3-12.68,62.814,62.814,0,0,1-3.895-12.151c-.05-.228-.112-.452-.152-.677l-.118-.669-.23-1.291c-.073-.42-.156-.827-.216-1.227l-.146-1.168c-.092-.755-.195-1.46-.264-2.115l-.135-1.806c-.039-.545-.086-1.031-.108-1.455s-.018-.787-.025-1.08C779.834,551.162,779.842,547.707,779.842,547.707Z" fill="#ed8f2b" opacity="0.43"/>
      <g id="Group_3511" data-name="Group 3511" transform="translate(777.687 482.214)">
        <circle id="Ellipse_1768" data-name="Ellipse 1768" cx="67.139" cy="67.139" r="67.139" transform="translate(0)" fill="#ffb700"/>
      </g>
      <g id="Group_3513" data-name="Group 3513" transform="translate(777.689 482.231)" opacity="0.3" style="mix-blend-mode: multiply;isolation: isolate">
        <g id="Group_3512" data-name="Group 3512">
          <path id="Path_12508" data-name="Path 12508" d="M975.386,588.628l1.022,1.076c.2.216.429.437.65.7l.711.827a64,64,0,0,1,7.725,10.906l1.078,1.941,1.034,2.092c.368.707.681,1.461,1.013,2.224s.69,1.537.979,2.357a64.445,64.445,0,0,1,3.2,10.773,67.8,67.8,0,0,1,1.4,12.7,67.082,67.082,0,0,1-1.266,14.1,68.545,68.545,0,0,1-4.707,14.651c-.251.618-.574,1.205-.864,1.811s-.589,1.211-.9,1.81l-.994,1.782-.5.9c-.175.294-.362.583-.543.875l-1.1,1.757c-.371.586-.787,1.144-1.181,1.721l-.6.861-.3.431-.323.417-1.3,1.674c-.422.57-.9,1.1-1.36,1.641s-.926,1.087-1.4,1.624l-1.488,1.565-.747.786c-.255.257-.524.5-.785.753l-1.584,1.506c-.536.5-1.106.96-1.659,1.443-1.095.983-2.288,1.859-3.46,2.775a66.378,66.378,0,0,1-7.574,4.875c-1.309.769-2.7,1.4-4.067,2.09-.7.319-1.4.615-2.109.925l-1.06.459-1.083.409a67.138,67.138,0,0,1-18.274,4.232l-2.382.171c-.8.046-1.6.046-2.394.071-.4.008-.8.023-1.2.024l-1.2-.029-1.2-.029c-.4-.008-.8-.015-1.2-.051l-2.408-.173c-.8-.064-1.6-.183-2.4-.272-.4-.05-.8-.093-1.2-.148l-1.2-.2-1.2-.2c-.4-.066-.8-.131-1.195-.225l-2.379-.521c-.792-.182-1.572-.415-2.36-.621-.392-.108-.787-.207-1.178-.323l-1.164-.375-1.165-.376c-.389-.123-.777-.249-1.157-.4l-2.294-.866c-.761-.3-1.5-.645-2.257-.965-.375-.166-.754-.321-1.125-.495l-1.1-.545-1.1-.545c-.369-.18-.737-.361-1.092-.568l-2.151-1.2c-.713-.407-1.4-.863-2.1-1.292l-1.045-.655-1.012-.706-1.013-.706c-.335-.238-.682-.462-1-.721l-1.953-1.513c-.161-.127-.328-.249-.486-.381l-.469-.4-.937-.805-.938-.8c-.316-.265-.6-.562-.9-.842l-1.792-1.7-1.7-1.791c-.28-.3-.577-.589-.842-.9l-.805-.937-.8-.937-.4-.469c-.132-.158-.254-.324-.381-.486l-1.513-1.953c-.26-.32-.483-.666-.721-1l-.706-1.013-.706-1.012-.655-1.045c-.429-.7-.885-1.386-1.292-2.1l-1.2-2.151c-.207-.355-.389-.723-.568-1.091l-.545-1.1-.545-1.1c-.174-.371-.329-.75-.495-1.124-.32-.753-.665-1.5-.965-2.257l-.865-2.294c-.151-.38-.278-.768-.4-1.157l-.376-1.165-.375-1.164c-.116-.39-.215-.786-.323-1.178-.206-.788-.439-1.568-.621-2.359l-.52-2.379c-.094-.395-.16-.795-.226-1.195l-.2-1.2-.2-1.2c-.055-.4-.1-.8-.148-1.2-.089-.8-.208-1.6-.272-2.4s-.115-1.607-.173-2.408c-.036-.4-.043-.8-.052-1.2l-.029-1.2-.028-1.2c0-.4.017-.8.024-1.2.025-.8.024-1.6.071-2.394s.114-1.59.171-2.382a67.15,67.15,0,0,1,4.232-18.274l.409-1.083.459-1.06c.309-.7.6-1.413.924-2.108.689-1.368,1.321-2.758,2.09-4.067a66.357,66.357,0,0,1,4.875-7.574c.916-1.171,1.792-2.365,2.775-3.46.484-.553.946-1.124,1.443-1.659l1.506-1.585c.252-.262.5-.53.753-.785l.786-.748,1.565-1.488c.537-.476,1.085-.936,1.624-1.4s1.071-.938,1.641-1.359l1.674-1.3.417-.322.432-.3.861-.6c.577-.394,1.135-.81,1.721-1.181l1.757-1.1c.293-.181.581-.368.875-.543l.9-.5,1.782-.993c.6-.315,1.21-.6,1.81-.9s1.193-.613,1.811-.864a68.531,68.531,0,0,1,14.651-4.707,67.08,67.08,0,0,1,14.1-1.266,67.807,67.807,0,0,1,12.7,1.4,64.446,64.446,0,0,1,10.773,3.2c.82.289,1.591.653,2.357.979s1.517.645,2.224,1.013l2.092,1.034,1.941,1.078a63.979,63.979,0,0,1,10.906,7.725l.828.711c.26.22.481.45.7.649l1.075,1.023.877.834Zm-1.714-1.707-1.084-1.013c-.218-.2-.441-.425-.7-.644l-.833-.7-.936-.79c-.331-.275-.667-.579-1.051-.858-.753-.577-1.583-1.2-2.494-1.845l-1.453-.957-.764-.5c-.258-.173-.521-.345-.8-.5-1.109-.641-2.253-1.379-3.557-1.988a54.655,54.655,0,0,0-8.745-3.635c-.824-.25-1.655-.525-2.513-.767l-2.651-.638c-1.815-.36-3.682-.747-5.644-.94-.971-.142-1.974-.178-2.98-.262s-2.031-.107-3.069-.114c-1.035-.032-2.088.03-3.147.068-1.059.023-2.131.127-3.21.24a55.3,55.3,0,0,0-13.126,3.024l-1.63.635-.816.317c-.272.106-.538.237-.807.354-1.072.491-2.15.964-3.2,1.54l-1.58.828-1.545.922c-1.039.591-2.025,1.3-3.028,1.967-.508.319-.979.715-1.464,1.079s-.967.731-1.44,1.114l-1.393,1.188-.694.591c-.227.205-.446.421-.669.63l-1.331,1.258c-.441.421-.852.885-1.279,1.323l-.631.666-.314.334-.3.355-1.19,1.411c-.405.456-.768.963-1.141,1.453s-.747.977-1.11,1.472l-1.039,1.536-.518.762c-.2.22.207-.2.136-.109l-.076.116-.151.231-.3.463-1.217,1.86-.153.233-.093.19-.183.376-.365.744c-.474.916-1.007,2.106-1.521,3.195a55.5,55.5,0,0,0-2.5,6.839c-.373,1.141-.606,2.34-.9,3.494l-.343,1.766-.176.874-.126.889a57.1,57.1,0,0,0-.393,14.032,60.113,60.113,0,0,0,1.07,6.781l.376,1.654c.127.549.3,1.09.448,1.632l.225.81.255.8.246.8c.079.267.157.533.262.794a58.907,58.907,0,0,0,5.666,11.84q.447.679.879,1.362c.295.452.634.877.941,1.319.156.22.3.447.452.669l.494.642.487.645c.164.214.312.438.5.638,1.375,1.663,2.8,3.29,4.338,4.829-.806-.787-.159-.158-.309-.306l.113.105.226.211.445.429.889.859.444.43.222.215a.688.688,0,0,0,.078.069l.058.047q.233.188.46.382t.448.4l.22.2c.081.072.206.162.306.242.428.327.84.674,1.249,1.027.2.184.424.331.638.5l.644.487.641.494.67.45.666.457c.221.154.429.331.662.467q.683.431,1.36.878a7.767,7.767,0,0,0,.693.419l.7.4c.233.137.469.271.7.414s.476.257.714.389c.48.252.948.535,1.435.777s.982.469,1.473.711c.123.059.244.125.369.178s.251.107.376.162l.75.338.75.345c.253.108.511.2.767.3.514.194,1.021.42,1.542.6s1.042.371,1.565.563a57.422,57.422,0,0,0,27.217,2.429l.886-.125.871-.174c.581-.119,1.172-.223,1.756-.349,1.15-.291,2.346-.522,3.483-.891l.868-.254c.29-.085.585-.163.864-.27l1.709-.6c.583-.185,1.124-.441,1.688-.665l.846-.342c.285-.112.57-.223.841-.358,1.095-.519,2.231-1,3.292-1.6.536-.292,1.093-.563,1.621-.873l1.577-.949.4-.238.2-.119.1-.059c.076-.062-.319.351-.1.137l.892-.649,1.775-1.292,1.362-1a16.453,16.453,0,0,0,1.378-1.053l1.409-1.184.354-.3.333-.313.669-.626.667-.63c.219-.213.454-.416.656-.642l1.256-1.326c.209-.222.424-.441.629-.667l.59-.692,1.186-1.387c.382-.471.739-.956,1.112-1.435s.759-.953,1.086-1.455a55.45,55.45,0,0,0,6.578-12.564c.209-.542.373-1.093.562-1.638s.376-1.09.534-1.639l.44-1.647c.14-.549.31-1.094.415-1.643a55.01,55.01,0,0,0,1.1-6.532,56.242,56.242,0,0,0-.037-12.392l-.177-1.453q-.044-.361-.088-.72c-.034-.238-.086-.471-.127-.705-.182-.934-.338-1.862-.532-2.764l-.634-2.649c-.1-.436-.245-.853-.371-1.272l-.385-1.243c-.237-.828-.549-1.609-.827-2.387s-.548-1.542-.871-2.263l-.936-2.121-.987-1.974-.477-.95c-.163-.309-.339-.6-.5-.9-.331-.593-.67-1.16-.995-1.712-.157-.279-.33-.543-.5-.8l-.5-.764-.957-1.452q-.975-1.363-1.835-2.5c-.279-.384-.583-.72-.858-1.052l-.79-.936-.7-.833c-.218-.262-.446-.485-.643-.7l-1.013-1.084-.826-.884Z" transform="translate(-859.941 -568.103)" fill="#ffb700"/>
        </g>
      </g>
    </g>
    <g id="Group_3549" data-name="Group 3549" transform="translate(-1156.264 9187.348)">
      <g id="Group_3544" data-name="Group 3544" transform="translate(1248.434 321.447)">
        <path id="Path_12523" data-name="Path 12523" d="M2646.454,1002.449a38.625,38.625,0,0,0,13.812,29.637,38.48,38.48,0,0,0,24.9,9.073c.887,0,1.762-.029,2.632-.087a38.893,38.893,0,0,0,27.35-14.162c.006-.006-.1-.006-.1-.012a38.3,38.3,0,0,0,8.542-24.321v-.128a37.694,37.694,0,0,0-11.417-27.659c-.041-.041-.042-.082-.083-.117a38.71,38.71,0,0,0-34.141-10.264,36.819,36.819,0,0,0-4.025.986c-.887.268-1.756.566-2.613.9a38.743,38.743,0,0,0-16.916,12.662c-.5.659-.992,1.336-1.453,2.031a38.646,38.646,0,0,0-4.417,8.94,37.693,37.693,0,0,0-1.389,5.263A38.666,38.666,0,0,0,2646.454,1002.449Z" transform="translate(-2646.454 -963.66)" fill="#0bf"/>
        <path id="Path_12524" data-name="Path 12524" d="M2784.612,964.409c2.993,3.163,9.5,4.814,13.5,4.814,3.863,0,5.911-1.587,7.948-2.784a38.918,38.918,0,0,0-21.444-2.031Z" transform="translate(-2753.113 -963.66)" fill="#fff"/>
        <path id="Path_12525" data-name="Path 12525" d="M2806.4,1164.784c-1.038-.04-2.1-.069-3.159-.069-9.674,0-15.006,3.435-15.006,6.042,0,.681,6.676,18.5,11.012,18.5,2.647,0,2.911-1.765,2.911-4.373,0-.189,0-.378,0-.566,0-5.691,4.429-4.9,8.642-12.533.023-.041,2.526-4.909,2.526-5.088,0-1.661-3.526-1.9-5.181-1.9h-.712C2807.074,1164.8,2806.728,1164.8,2806.4,1164.784Z" transform="translate(-2755.906 -1118.816)" fill="#9bd900"/>
        <path id="Path_12526" data-name="Path 12526" d="M2898.275,1039.273c.164.163.14.519.327.648a4.334,4.334,0,0,0,2.515.858c1.908,0,12.02-7.014,15.481-12.633a38.641,38.641,0,0,0-9.943-16.327c-.041-.041-.082-.082-.123-.116-5.135.928-7.271,12.067-7.271,13.964,0,2.515.537,5.147.537,7.726A10.542,10.542,0,0,1,2898.275,1039.273Z" transform="translate(-2840.862 -1000.689)" fill="#9bd900"/>
        <path id="Path_12527" data-name="Path 12527" d="M2681.288,987.611c1.266,2.328,3.979,4.446,9.26,5.894,1.8.5,1.791,6.716,5.952,6.716,1.861,0,3.25-2.089,4.68-3.215.834-.665,6.495.2,6.495-6.419a8.349,8.349,0,0,0-.9-3.793c-2.2-4.266-4.907-8.823-8.572-11.845A38.745,38.745,0,0,0,2681.288,987.611Z" transform="translate(-2673.346 -972.315)" fill="#9bd900"/>
        <path id="Path_12528" data-name="Path 12528" d="M2646.454,1091.127a38.624,38.624,0,0,0,13.812,29.637c9.657-8.2,1.873-18.93.63-24.49-.91-4.044,6.4-7.189,3.74-12.167-1.523-2.859-6.039-4.161-9.395-4.476-2.13-.2-4.429-.706-6.716-1.027A38.659,38.659,0,0,0,2646.454,1091.127Z" transform="translate(-2646.454 -1052.338)" fill="#9bd900"/>
        <path id="Path_12529" data-name="Path 12529" d="M2737.185,1274.142a38.576,38.576,0,0,0,18.025,4.44c.887,0,1.762-.029,2.632-.087-3.332-3.145-8.321-7.218-15.329-7.218C2740.8,1271.277,2738.714,1272.713,2737.185,1274.142Z" transform="translate(-2716.499 -1201.083)" fill="#fff"/>
        <path id="Path_12530" data-name="Path 12530" d="M2856.869,1018.616c-.312,2.026-1.741,4.459-3.642,4.459-1.509,0-7.375-3.309-7.375-7.215a4.321,4.321,0,0,1,4.311-4.243c1.4,0,6.892.885,6.892,4.991A13.366,13.366,0,0,1,2856.869,1018.616Z" transform="translate(-2800.391 -1000.623)" fill="#fff"/>
        <path id="Path_12531" data-name="Path 12531" d="M2783.485,1103.857v.076s29.5,17.453,29.55,17.651a17.225,17.225,0,0,0,7.93,10.819,38.558,38.558,0,0,0,8.7-24.4c-2.264,2.427-3.846,7.44-7.3,7.44-.286,0-10.97-7.1-19.145-7.1-.939,0-2.136.082-2.3.082-5.865,0-9.354-8.035-13.672-8.035A3.73,3.73,0,0,0,2783.485,1103.857Z" transform="translate(-2752.243 -1069.153)" fill="#fff"/>
        <path id="Path_12532" data-name="Path 12532" d="M2646.454,1108.95a39.025,39.025,0,0,0,.765,7.714c.233-.017.49-.035.793-.035,4.114,0,7.6,2.655,11.221,2.655,1.214,0,1.558-.28,3.239-.28,5.87,0,10.521,4.318,16.024,4.318.583,0,1.967.076,1.967-1.575,0-5.631-8.613-9.57-14.583-11.2-6.733-1.838-12.528-5.894-18.743-8.858A38.666,38.666,0,0,0,2646.454,1108.95Z" transform="translate(-2646.454 -1070.161)" fill="#fff"/>
        <path id="Path_12533" data-name="Path 12533" d="M2833.624,1210.609c0,.408,4.563,9.657,13.2,16.129a38.692,38.692,0,0,0,9.1-6.291c-8.747-4.277-5.847-1.243-17.582-10.562a2.747,2.747,0,0,0-1.757-.572C2835.865,1209.314,2833.624,1209.7,2833.624,1210.609Z" transform="translate(-2790.951 -1153.247)" fill="#fff"/>
        <g id="Group_3543" data-name="Group 3543" transform="translate(0.216 0)" opacity="0.3" style="mix-blend-mode: multiply;isolation: isolate">
          <path id="Path_12534" data-name="Path 12534" d="M2719.176,981.99A38.585,38.585,0,0,1,2723,990.4a35.364,35.364,0,0,1,1.12,4.488c.122.762.263,1.521.368,2.285l.132,1.15.094,1.154a39.2,39.2,0,0,1-.474,9.224,38.51,38.51,0,0,1-2.646,8.848c-.305.709-.668,1.391-1,2.088s-.7,1.376-1.089,2.041a38.927,38.927,0,0,1-16.811,15.411,38.788,38.788,0,0,1-13.333,3.607c-.769.061-1.539.111-2.311.125a5.115,5.115,0,0,0-.577.031h-.579c-.386,0-.772,0-1.157-.021a39.352,39.352,0,0,1-9.134-1.373,37.858,37.858,0,0,1-8.543-3.508,38.95,38.95,0,0,1-7.518-5.367,15.26,15.26,0,0,1-1.609-1.66c-.509-.58-.987-1.186-1.469-1.789-.944-1.22-1.857-2.466-2.682-3.77-.43-.641-.809-1.314-1.209-1.973-.367-.678-.762-1.343-1.1-2.038a39.972,39.972,0,0,1-1.86-4.236,36.38,36.38,0,0,1-2.124-8.986c.031-.043.072-.077.1-.12a39.4,39.4,0,0,1,.616-11.829,38.43,38.43,0,0,1,4.156-11.089,38.848,38.848,0,0,1,3.307-4.934c.617-.775,1.254-1.535,1.944-2.247l1.016-1.085c.348-.352.706-.7,1.065-1.036a38.462,38.462,0,0,1,21.144-10.037,40.062,40.062,0,0,1,5.93-.35,39.25,39.25,0,0,1,5.913.557,38.8,38.8,0,0,1,26.49,18.034Zm-10.236-11.1q-1.2-.873-2.47-1.647c-.846-.513-1.72-.979-2.6-1.42a37.819,37.819,0,0,0-5.488-2.207,38.309,38.309,0,0,0-5.758-1.275,35.6,35.6,0,0,0-5.858-.331c-.976.028-1.949.087-2.918.182-.489.053-.957.114-1.453.187-.479.074-.953.151-1.431.244a37.716,37.716,0,0,0-5.586,1.52l-.339.123-.326.126-.695.268c-.447.186-.871.36-1.308.558q-1.311.588-2.568,1.272a36.735,36.735,0,0,0-8.9,6.953c-.163.168-.315.346-.473.518l-.235.26-.117.13-.029.032c-.054.056.057-.058.04-.04l-.015.018-.059.072-.947,1.149-.473.575-.118.144-.03.036-.015.018c.03-.033-.087.1.063-.069l-.056.075-.223.3c-.316.411-.551.764-.811,1.131a35.935,35.935,0,0,0-2.753,4.781,38.852,38.852,0,0,0-1.982,5.086c-.136.423-.263.886-.373,1.286-.14.512-.228.883-.329,1.33q-.3,1.32-.494,2.655a34.456,34.456,0,0,0-.367,5.347,34.9,34.9,0,0,0,.362,5.315l.02.14v.314a4.267,4.267,0,0,1-.5,1.972c-.04.074-.081.145-.123.214l-.027.044-.026.041-.054.081-.113.159-.069.09-.115.14-.088.1-.057.065c-.007.008-.01.013.007,0l.063-.07.1-.124.066-.086.111-.155.053-.079.025-.04.027-.043c.042-.069.083-.14.123-.214a4.255,4.255,0,0,0,.5-1.97l-.021-.462a40.047,40.047,0,0,0,.834,3.978,34.1,34.1,0,0,0,1.319,3.86,39.119,39.119,0,0,0,3.866,7.286c.75,1.17,1.587,2.294,2.452,3.4.443.546.881,1.1,1.351,1.623l.346.4.086.1.043.05c-.084-.089.219.234-.183-.193l.026.025.17.165.407.4.332.314a35.616,35.616,0,0,0,6.566,4.767l.452.259.227.129c-.018-.009.08.043-.033-.016l.032.017.064.034.128.068.51.273c.167.089.354.192.481.251l.852.42.925.42.939.392.952.362.96.346.972.318a37.77,37.77,0,0,0,8.084,1.529,40.138,40.138,0,0,0,8.313-.285,34.507,34.507,0,0,0,4.116-.859c.68-.181,1.352-.393,2.023-.614l.979-.347,1.028-.4a35.255,35.255,0,0,0,7.507-4.058,36.911,36.911,0,0,0,6.46-5.833c.485-.554.938-1.11,1.4-1.708.445-.574.882-1.175,1.294-1.781q.31-.457.605-.923l.147-.234.018-.029c.029-.055-.019.043-.008.021l.036-.063.072-.126.287-.5.574-1.008.286-.5.07-.127.035-.063c-.057.128-.007.017-.015.037l.016-.032.127-.26a37.291,37.291,0,0,0,3.034-8.439,35.988,35.988,0,0,0,.739-4.47,39.176,39.176,0,0,0,.151-4.552l-.046-1.142-.084-1.141c-.069-.734-.2-1.521-.293-2.279a35.121,35.121,0,0,0-.977-4.478,37.2,37.2,0,0,0-3.64-8.45,36.826,36.826,0,0,0-10.184-11.135Z" transform="translate(-2647.402 -963.396)" fill="#0bf"/>
        </g>
      </g>
      <g id="Group_3546" data-name="Group 3546" transform="translate(1268.239 1553.12)">
        <path id="Path_12535" data-name="Path 12535" d="M2174.55,1854.1a40.39,40.39,0,0,0,1.869,11.8,38.771,38.771,0,0,0,36.959,26.933,32.559,32.559,0,0,0,13.074-2.307,35.731,35.731,0,0,0,9.858-5.194,38.711,38.711,0,0,0,7.677-7.444c.506-.641.982-1.288,1.446-1.964a38.5,38.5,0,0,0,6.625-19.05c.065-.917.1-1.839.1-2.773a38.9,38.9,0,0,0-1.017-8.976,42.233,42.233,0,0,0-2.81-7.959c-.012-.024-.024-.053-.035-.076a38.934,38.934,0,0,0-34.884-21.692,18.417,18.417,0,0,0-5.244.394c-.082.023-.17.047-.253.076a39.823,39.823,0,0,0-11.7,3.551c-.029.012-.059.03-.088.041-.006,0-.012-.065-.018-.065a38.74,38.74,0,0,0-19.9,23.885c-.024.071-.041.147-.065.218-.053.118-.112.247-.176.382a4.639,4.639,0,0,0-.564,1.864A39.209,39.209,0,0,0,2174.55,1854.1Z" transform="translate(-2174.55 -1815.384)" fill="#0bf"/>
        <path id="Path_12536" data-name="Path 12536" d="M2175.986,2042.767a38.207,38.207,0,0,0,1.611,7.677c17.653,6.667,35.36,12.821,50.021,24.714a38.579,38.579,0,0,0,9.858-5.238C2217.131,2055.482,2192.511,2046.7,2175.986,2042.767Z" transform="translate(-2175.716 -1999.932)" fill="#0095ff"/>
        <path id="Path_12537" data-name="Path 12537" d="M2179.637,1965.829c17.518,6.843,47.158,19.2,68.48,32.168.506-.641.982-1.3,1.446-1.975-19.993-15.872-44.413-26.73-69.227-32.656l-.07-.018c-.059.206-.118.412-.17.617C2179.925,1964.583,2179.772,1965.2,2179.637,1965.829Z" transform="translate(-2178.679 -1935.474)" fill="#0095ff"/>
        <path id="Path_12538" data-name="Path 12538" d="M2494.221,1991.425c0,5.926,8.5,13.027,15.431,15.173a38.486,38.486,0,0,0,1.857-9.423,32.59,32.59,0,0,0-9.188-7.066,14.944,14.944,0,0,0-5.844-1.858C2494.462,1988.25,2494.221,1989.443,2494.221,1991.425Z" transform="translate(-2434 -1955.685)" fill="#0095ff"/>
        <path id="Path_12539" data-name="Path 12539" d="M2288.981,1820.78c14.914,5.961,37.6,15.026,55,25.725a.125.125,0,0,1,.035.023,42.205,42.205,0,0,0-2.81-7.959,1.054,1.054,0,0,0-.094-.077,122.488,122.488,0,0,0-40.322-21.375A38.112,38.112,0,0,0,2288.981,1820.78Z" transform="translate(-2267.424 -1816.791)" fill="#0095ff"/>
        <g id="Group_3545" data-name="Group 3545" transform="translate(0.148 0.013)" opacity="0.3" style="mix-blend-mode: multiply;isolation: isolate">
          <path id="Path_12540" data-name="Path 12540" d="M2251.8,1862.682a3.536,3.536,0,0,1-.142,1.008,4.532,4.532,0,0,1-.172.481l-.1.234a.253.253,0,0,0-.024.124c-.008.036.04.1-.005.112l-.015.253c0,.017,0,.051-.015.053a.378.378,0,0,1-.016-.061c-.01-.078-.034.021-.043.046l-.155.483-.31.967c-.2.648-.466,1.271-.7,1.908s-.527,1.247-.787,1.872-.588,1.219-.878,1.831-.647,1.189-.967,1.785-.706,1.155-1.055,1.735-.763,1.118-1.14,1.68-.819,1.078-1.225,1.619-.875,1.033-1.309,1.552-.93.984-1.392,1.478-.983.93-1.472,1.4-1.036.872-1.551,1.31-1.086.807-1.628,1.214c-.553.39-1.135.738-1.7,1.109-.581.347-1.181.662-1.77,1,0,0-1.833.873-1.857.882-.057.125-.193.161-.307.219l-.351.167-.7.329q-.706.325-1.421.632c-.954.407-1.921.783-2.907,1.1q-.74.239-1.492.439t-1.518.337q-.766.136-1.54.216l-.776.057-.777.019a1.51,1.51,0,0,1-.038.189c-.017.055-.041.14-.112.137s-.1-.079-.161-.1a1.85,1.85,0,0,0-.186.047c-.248.07-.5.126-.75.178a14.209,14.209,0,0,1-1.525.216,29.577,29.577,0,0,1-3.08.093c-1.026-.051-2.057-.042-3.079-.142l-1.533-.165-.766-.083-.759-.134c-1.01-.191-2.03-.335-3.019-.62l-1.494-.382c-.495-.139-.977-.318-1.467-.474s-.98-.312-1.458-.5l-1.426-.587c-.964-.362-1.865-.862-2.791-1.308-.467-.215-.906-.483-1.35-.743l-1.331-.778c-.858-.563-1.712-1.138-2.546-1.737l-1.213-.952a15.008,15.008,0,0,1-1.185-.985c-.76-.692-1.547-1.355-2.241-2.115l-1.073-1.107-1-1.174c-.687-.766-1.284-1.6-1.892-2.432l-.457-.62-.415-.65-.828-1.3c-.537-.875-1-1.8-1.5-2.693.017-.041.076-.041.107-.071,0-.04-.031-.081-.045-.121l-.11-.243-.214-.488q-.21-.49-.406-.986-.391-.992-.725-2.005c-.447-1.35-.825-2.722-1.159-4.13a38.336,38.336,0,0,1-.97-7.019c-.027-.591-.044-1.182-.045-1.773s.038-1.182.056-1.773a31.259,31.259,0,0,1,.28-3.535,38.621,38.621,0,0,1,4.366-13.42c.566-1.038,1.178-2.052,1.838-3.034.327-.493.69-.961,1.032-1.444s.695-.959,1.072-1.415a39.73,39.73,0,0,1,4.931-5.1,45.28,45.28,0,0,1,5.913-4.141,28.724,28.724,0,0,1,6.593-3.006v0a20.039,20.039,0,0,1,4.233-1.43,31.324,31.324,0,0,1,4.479-.634,45.035,45.035,0,0,1,4.6-.108l2.3.1c.772.047,1.528.177,2.3.262l1.147.145,1.134.237c.754.171,1.521.285,2.264.5l2.226.656c.742.219,1.449.539,2.176.8l1.082.419,1.047.5,1.047.5a10.047,10.047,0,0,1,1.03.533l2.009,1.163c.657.407,1.281.868,1.922,1.3.314.225.648.425.946.672l.9.73c.594.5,1.226.947,1.77,1.5l1.688,1.594,1.56,1.719c.542.555.98,1.2,1.464,1.8l.712.917c.241.3.434.64.653.958.419.65.868,1.282,1.263,1.947l1.125,2.031a9.878,9.878,0,0,1,.514,1.039l.481,1.056.481,1.056.4,1.089c.257.73.545,1.449.777,2.187s.431,1.486.612,2.239a38.472,38.472,0,0,1,.806,4.569,36.954,36.954,0,0,1,.229,4.634A39.139,39.139,0,0,1,2251.8,1862.682Zm.739-12.984a37.158,37.158,0,0,0-.9-4.542c-.208-.743-.437-1.479-.693-2.205-.255-.707-.567-1.434-.86-2.145l-.456-1.068-.531-1.017a21.69,21.69,0,0,0-1.1-2l-1.253-1.914c-.436-.623-.923-1.211-1.379-1.814-.238-.3-.448-.609-.706-.887l-.761-.841a21.806,21.806,0,0,0-1.6-1.6l-1.672-1.5-1.776-1.36a17.153,17.153,0,0,0-1.857-1.224l-.94-.58c-.309-.2-.653-.344-.975-.519-.659-.328-1.294-.684-1.957-.984-.673-.285-1.348-.555-2.02-.817a8.867,8.867,0,0,0-1.026-.348l-1.033-.313-1.023-.312-1.047-.229c-.7-.141-1.375-.329-2.081-.405l-2.092-.239c-.69-.08-1.4-.056-2.084-.091l-1.029-.033-1.033.056c-.686.048-1.36.049-2.035.13l-2.007.281a37.672,37.672,0,0,0-4.086.816,22.382,22.382,0,0,0-3.554,1.215,14.441,14.441,0,0,0-2.805,1.633l-.268.2-2.858.446,2.475-.4c-.712.443-1.434.9-2.146,1.425s-1.423,1.1-2.127,1.721-1.418,1.26-2.123,1.949l-.265.259-.091.089c.027-.02-.073.056.06-.042l-.04.039-.161.154c-.1.1-.231.217-.307.3l-.179.209c-.262.3-.582.651-.857.987-.562.69-1.126,1.373-1.652,2.091s-1.021,1.458-1.485,2.215l-.171.286-.085.143-.027.044c-.15.2.2-.261.146-.185l-.056.1-.449.771-.468.757-.234.379-.051.083c.121-.172-.281.4.27-.382l-.055.1-.11.193-.11.193-.055.1-.028.059-.111.233-.272.56c-.182.385-.356.773-.519,1.165-.336.779-.6,1.586-.887,2.372-.27.783-.516,1.621-.706,2.379l-.115.413-.054.238-.134.588c-.09.4-.166.81-.237,1.217-.146.813-.271,1.629-.35,2.452l-.1,1.236-.017.31a.352.352,0,0,0,.012.1c.043-.81.046-.217.046-.38l-.026.055-.031.222-.023.887-.021.887-.005.443.009.222.03.028c-.006.446.068-.592.068-.466l-.06.055-.059.111.025,1.3c.027.844.1,1.673.193,2.488s.208,1.616.364,2.4c0,0,.313,2.68.319,2.7l-.314-2.686c.117.561.222,1.11.345,1.64s.249,1.045.386,1.542.265.983.411,1.449l.223.687.116.335.06.165s.015.041.026.072l.919,3.076.118,1.369a11.28,11.28,0,0,1-2.084,6.829c-.243.338-.365.487-.567.732-.186.22-.381.434-.583.64s-.412.4-.627.591l-.345.289c-.193.155-.392.305-.595.447l-.307.209-.164.107-.312.193-.292.171-.172.1-.3.175-.281.181-.043.116a.569.569,0,0,1,0-.1c.09-.046.262-.2.871-.544.245-.139.485-.288.718-.445l.3-.207.363-.273c.238-.187.469-.384.69-.588a11.3,11.3,0,0,0,1.455-1.635,11.055,11.055,0,0,0,.643-.988,11.2,11.2,0,0,0,1.5-5.118c.024-1.047,0-.289,0-.518l-1.188-5.051c.311.665.567,1.37.893,2.039l.5,1,.25.5.29.48c.383.644.758,1.3,1.18,1.93l.615.967.686.919c.435.641.96,1.2,1.457,1.8.243.307.5.6.772.877l.8.869c.558.551,1.137,1.09,1.725,1.632l.925.757a10.735,10.735,0,0,0,.938.764c.653.467,1.288,1,1.991,1.409l1.041.666c.353.214.721.393,1.081.607s.724.425,1.1.613l1.141.537a25.2,25.2,0,0,0,2.363.978l.606.233.618.185,1.25.379c.841.247,1.7.392,2.573.6.954.177,1.825.318,2.545.415.363.047.7.087.995.108l.427.03.051.017s.025.031.038.031c-1.2,0,1.641-.279,1.354-.233l.012-.027a5.272,5.272,0,0,1,1.638.242,5.338,5.338,0,0,1,1.136.519q.152.094.3.2c.1.071.2.153.213.161s.175.148.174.152l-.156-.121-.143-.1-.208-.138-.26-.153a4.816,4.816,0,0,0-.435-.213,5.016,5.016,0,0,0-.5-.182,4.932,4.932,0,0,0-.819-.182,5.03,5.03,0,0,0-.877-.04,4.989,4.989,0,0,0-3.32,1.442q-.153.151-.295.318a4.879,4.879,0,0,0-.483.684,4.522,4.522,0,0,0-.337.707c-.044.117-.082.233-.115.354l-.033.127-.018.074-.027.142a.889.889,0,0,0-.011.11s4.975-4.424,4.978-4.424c-.054,0,.125.1-.12.1,0,0,.006.1.042.1l.049.006.1.013.2.026.39.051.439.086c.381.041.774.068,1.18.079s.826,0,1.255-.03.868-.075,1.315-.133a22.826,22.826,0,0,0,2.757-.546q.7-.184,1.421-.393l.72-.216.363-.112.224-.069c-.067.034.152-.078-.145.076l-.031.018a3.128,3.128,0,0,0-.592.433l-.134.132-.08.088-.12.146-.083.113-.046.069-.062.1c-.05.088-.039.073.033-.043l.08-.121.058-.082.092-.121.135-.159.086-.091.118-.115a3.145,3.145,0,0,1,.34-.274,3.188,3.188,0,0,1,.65-.351l.031-.012,1.156-.216-1.245.258,1.768-.526c.578-.215,1.166-.427,1.74-.676.562-.271,1.143-.52,1.7-.815.549-.311,1.123-.6,1.665-.933s1.1-.667,1.621-1.045,1.049-.758,1.54-1.182,1.013-.822,1.479-1.278.974-.882,1.417-1.367l.683-.715a7.728,7.728,0,0,0,.657-.742c.408-.518.857-1.011,1.235-1.555s.807-1.059,1.16-1.623.755-1.1,1.081-1.685.708-1.141.988-1.749.619-1.192.877-1.812.566-1.223.781-1.86l.344-.949.173-.475.025-.067c.018-.036-.038.069.056-.1.262-.161.4.129.338.049a.263.263,0,0,1,.028.083s.006.03.006.037c-.009-.013.017.02-.031-.06.118,0-.262-.149-.33.015a.065.065,0,0,0-.017.044l.023-.237.019-.1s.174.107.178.107h-.032s.033-.115-.055-.077c-.111.092-.078.087-.082.1,0-.022,0-.079,0-.114a.49.49,0,0,1,.058-.221l.134-.231a4.913,4.913,0,0,0,.234-.46,3.144,3.144,0,0,0,.267-.981l-.1-.012c.328-1.363.516-2.739.714-4.129a33.784,33.784,0,0,0,.306-4.2A36.169,36.169,0,0,0,2252.538,1849.7Z" transform="translate(-2175.338 -1815.454)" fill="#0bf"/>
        </g>
      </g>
      <g id="Group_3548" data-name="Group 3548" transform="translate(2868.046 1169.071)">
        <path id="Path_12541" data-name="Path 12541" d="M3489.388,823.112a44.5,44.5,0,0,0-61.863-1.053c-.373.337-.739.693-1.1,1.053a45.034,45.034,0,0,0-9.749,14.638,44.75,44.75,0,0,0-.89,31.33,44.119,44.119,0,0,0,5.337,10.622,44.994,44.994,0,0,0,11.192,11.343q1.572,1.1,3.2,2.049a43.874,43.874,0,0,0,10.523,4.423,44.573,44.573,0,0,0,53.727-27.7c.314-.873.605-1.746.855-2.625a44.472,44.472,0,0,0,1.8-12.944c0-1.176-.059-2.351-.169-3.521a44.37,44.37,0,0,0-12.869-27.617Z" transform="translate(-3413.38 -810.071)" fill="#ff6373"/>
        <path id="Path_12542" data-name="Path 12542" d="M3413.381,905.9a44.406,44.406,0,0,0,.584,7.219,14.116,14.116,0,0,1,3.918-.691c4.84,0,24.578,15.985,30.5,15.985,3.753,0,7.325-3.449,11.564-3.449,9.062,0,11.145,12.766,15.195,22a44.75,44.75,0,0,0,22.783-21.524,10.629,10.629,0,0,0-1.473-.1c-3.375,0-6.848,1.276-10.338,1.276-4.963,0-4.058-4.725-8.849-4.725-1.58,0-3.2.535-4.8.535-7.572,0-2.963-10.2-11.556-10.2-4.881,0-8.75,6.206-13.713,6.206-5.358,0-6.889-8.371-11.292-10.256-9.614-4.124-15.631-13.45-19.195-19.2A44.341,44.341,0,0,0,3413.381,905.9Z" transform="translate(-3413.381 -861.363)" fill="#ff9263"/>
        <path id="Path_12543" data-name="Path 12543" d="M3479.761,823.231c24.257,16.009,49.724,23.87,64.35,27.722a43.875,43.875,0,0,0-4.313-10.569c-20.1-.642-38.851-10.8-57.576-18.4C3481.382,822.375,3480.56,822.787,3479.761,823.231Z" transform="translate(-3456.532 -817.813)" fill="#ff9263"/>
        <path id="Path_12544" data-name="Path 12544" d="M3443.184,850.419c22.018,18.907,49.123,32.908,77.857,36.883a46.23,46.23,0,0,0,.766-8.394,45.763,45.763,0,0,0-.659-7.818h-.749c-24.866,0-58.243-15.649-74.845-23.419C3444.724,848.5,3443.933,849.513,3443.184,850.419Z" transform="translate(-3432.755 -834.514)" fill="#ff9263"/>
        <path id="Path_12545" data-name="Path 12545" d="M3431.517,1002.844a44.421,44.421,0,0,0,2.922,4.272c28.315,10.61,31.731,13.153,33.731,17.293.5.025,1.012.033,1.523.033a43.822,43.822,0,0,0,8.3-.782C3468.2,1009.643,3449.263,1005.585,3431.517,1002.844Z" transform="translate(-3425.17 -935.388)" fill="#ff9263"/>
        <g id="Group_3547" data-name="Group 3547" transform="translate(0.008 0.005)" opacity="0.5" style="mix-blend-mode: multiply;isolation: isolate">
          <path id="Path_12546" data-name="Path 12546" d="M3489.962,823.695c.369.38.907.953,1.581,1.724a44.308,44.308,0,0,1,9.967,20.1c.274,1.3.488,2.663.646,4.069a42.7,42.7,0,0,1,.282,4.354,44.847,44.847,0,0,1-.844,9.354,39.425,39.425,0,0,1-1.266,4.853,40.512,40.512,0,0,1-1.848,4.867,44.559,44.559,0,0,1-5.7,9.309,41.7,41.7,0,0,1-3.846,4.214l-1.06.99c-.357.328-.7.675-1.087.971l-1.138.926-.571.465a6.609,6.609,0,0,1-.588.446,43.951,43.951,0,0,1-10.54,5.81,45.041,45.041,0,0,1-24.848,2.1A44.507,44.507,0,0,1,3416,869.669a47.376,47.376,0,0,1-1.731-6.237,44.842,44.842,0,0,1,2.1-24.848,44.549,44.549,0,0,1,9.6-14.991c.333-.348.679-.681,1.027-1.011l.518-.5.535-.474c.716-.627,1.407-1.274,2.16-1.837a44.24,44.24,0,0,1,28.371-9.684c.747.009,1.483.063,2.21.091s1.439.133,2.144.194a39.1,39.1,0,0,1,4.07.636,44.414,44.414,0,0,1,20.1,9.966c.773.673,1.343,1.214,1.724,1.581l.573.562Zm-1.135-1.135c-.383-.365-.956-.9-1.732-1.571s-1.757-1.467-2.961-2.335a39.753,39.753,0,0,0-4.3-2.729,42.137,42.137,0,0,0-12.893-4.565,36.422,36.422,0,0,0-4.046-.518c-.7-.035-1.429-.117-2.144-.116s-1.438-.028-2.172-.011l-2.235.1c-.751.074-1.512.143-2.277.232l-2.307.377-2.327.512a42.872,42.872,0,0,0-9.29,3.5,42.241,42.241,0,0,0-8.6,5.995c-.685.576-1.306,1.234-1.951,1.868l-.467.467-.49.525-.492.527c-.067.068.022-.019-.009.015l-.06.068-.12.135-.231.265a41.447,41.447,0,0,0-3.308,4.395c-.253.386-.5.779-.738,1.175l-.372.62c-.136.223-.231.4-.347.6-.457.808-.89,1.638-1.3,2.481a41.777,41.777,0,0,0-2.08,5.235l-.24.731-.119.365-.088.33-.357,1.316c-.207.924-.44,1.851-.59,2.8a38.612,38.612,0,0,0-.609,5.712,45.441,45.441,0,0,0,.148,5.774,48.336,48.336,0,0,0,.933,5.723,42.94,42.94,0,0,0,1.724,5.573c.333.863.718,1.786,1.127,2.658s.853,1.746,1.327,2.594.979,1.678,1.514,2.488c.264.4.54.818.808,1.2l.434.612.431.583c.584.779,1.2,1.534,1.841,2.268q.482.549.983,1.083l.507.528.5.5.547.537.523.5q.532.5,1.083.984,1.1.963,2.264,1.84a45.665,45.665,0,0,0,4.9,3.177,39.039,39.039,0,0,0,5.268,2.453c.906.342,1.82.67,2.746.955l.086.027c-.25-.064-.013,0-.043-.01l.2.052.391.1.781.21.781.21c.251.064.542.156.749.187l1.342.268c.45.089.883.2,1.375.249l1.434.211c.239.034.478.076.717.1l.721.058c.961.077,1.922.18,2.885.167l1.443.027,1.439-.052a40.872,40.872,0,0,0,11.231-1.987c.458-.124.895-.3,1.335-.47l1.322-.5c.45-.147.865-.366,1.3-.549l1.286-.572c.847-.4,1.656-.865,2.486-1.291.813-.454,1.584-.97,2.378-1.449a5.812,5.812,0,0,0,.576-.385l.562-.4,1.123-.806c.384-.257.723-.565,1.078-.854l1.057-.875a39.52,39.52,0,0,0,3.886-3.781,42.6,42.6,0,0,0,5.989-8.6c.387-.761.756-1.525,1.093-2.3l.251-.578.031-.072s.037-.1.015-.025l.058-.152.115-.3.456-1.2.227-.6.113-.3c.013-.034-.006.029.014-.033l.025-.075.051-.15c.139-.406.261-.791.381-1.173.238-.777.458-1.557.651-2.334a40.888,40.888,0,0,0,1.232-9.145,41.836,41.836,0,0,0-.123-4.308,38.337,38.337,0,0,0-.521-4.045,41.7,41.7,0,0,0-1.937-7.151,45.346,45.346,0,0,0-2.619-5.743,42.606,42.606,0,0,0-5.062-7.265c-.67-.775-1.2-1.35-1.571-1.732l-.558-.578S3489.211,822.924,3488.828,822.56Z" transform="translate(-3413.401 -810.084)" fill="#ff6373"/>
        </g>
      </g>
    </g>
  </g>
</svg>
