<svg xmlns="http://www.w3.org/2000/svg" width="478.4" height="645" viewBox="0 0 478.4 645">
  <g id="Group_7025" data-name="Group 7025" transform="translate(-721 -28967)">
    <text id="Marketing_Agency" data-name="Marketing Agency" transform="translate(960 29528)" fill="#233d63" font-size="55" font-family="Poppins-SemiBold, Poppins" font-weight="600"><tspan x="-164.89" y="0">AUTHORS &amp; </tspan><tspan x="-159.307" y="65">PUBLISHERS</tspan></text>
    <g id="Create_Content" data-name="Create Content" transform="translate(712.4 28958.4)">
      <g id="Group_5677" data-name="Group 5677" transform="translate(8.6 8.6)">
        <g id="Group_5675" data-name="Group 5675">
          <circle id="Ellipse_1971" data-name="Ellipse 1971" cx="239.2" cy="239.2" r="239.2" fill="#382b73"/>
        </g>
        <g id="Group_5676" data-name="Group 5676" transform="translate(32.256 32.256)">
          <circle id="Ellipse_1972" data-name="Ellipse 1972" cx="206.944" cy="206.944" r="206.944" fill="#473080"/>
        </g>
      </g>
      <g id="Group_5678" data-name="Group 5678" transform="translate(124.356 145.79)">
        <path id="Path_16296" data-name="Path 16296" d="M239.306,139.491H173.363a3.249,3.249,0,0,0-3.247,3.249V199.69a34.142,34.142,0,0,0-51.957,29.165v6.279a34.187,34.187,0,0,0,68.374,0v-6.279a34.221,34.221,0,0,0-1.014-8.134h53.79a3.247,3.247,0,0,0,3.247-3.249V142.738A3.252,3.252,0,0,0,239.306,139.491Z" transform="translate(-14.43 -14.46)" fill="#382b73"/>
        <path id="Path_16297" data-name="Path 16297" d="M302.887,105.878,289.672,92.664l-2.737-2.737h0L276.458,79.45a8.1,8.1,0,0,0-11.445,0L244.669,99.794,204.3,140.167V96.775A11.494,11.494,0,0,0,192.8,85.281H77.874A11.493,11.493,0,0,0,66.381,96.775V236.03a11.494,11.494,0,0,0,11.493,11.493H104.3l-11.269,32.02h0l-3.636,10.335-1.665,4.732h0l15.067-5.3h0l43.373-15.264h0l26.52-26.52H192.8A11.493,11.493,0,0,0,204.3,236.03V215.912l78.247-78.247,20.344-20.344A8.094,8.094,0,0,0,302.887,105.878Z" transform="translate(-66.381 -77.08)" fill="#382b73"/>
      </g>
      <g id="Group_5686" data-name="Group 5686" transform="translate(124.356 131.766)">
        <g id="Group_5680" data-name="Group 5680" transform="translate(0 8.201)">
          <path id="Path_16298" data-name="Path 16298" d="M192.8,236.417H77.874a11.493,11.493,0,0,1-11.493-11.493V85.667A11.494,11.494,0,0,1,77.874,74.174H192.8A11.493,11.493,0,0,1,204.3,85.667V224.922A11.494,11.494,0,0,1,192.8,236.417Z" transform="translate(-66.381 -74.174)" fill="#fff"/>
          <g id="Group_5679" data-name="Group 5679" transform="translate(17.621 67.851)">
            <path id="Path_16299" data-name="Path 16299" d="M171.578,120.584H81.447a6.271,6.271,0,0,1-6.27-6.27h0a6.271,6.271,0,0,1,6.27-6.27h90.131a6.271,6.271,0,0,1,6.27,6.27h0A6.272,6.272,0,0,1,171.578,120.584Z" transform="translate(-75.177 -108.043)" fill="#d1d3d4"/>
            <path id="Path_16300" data-name="Path 16300" d="M171.578,135.048H81.447a6.271,6.271,0,0,1-6.27-6.27h0a6.27,6.27,0,0,1,6.27-6.27h90.131a6.271,6.271,0,0,1,6.27,6.27h0A6.272,6.272,0,0,1,171.578,135.048Z" transform="translate(-75.177 -93.531)" fill="#d1d3d4"/>
            <path id="Path_16301" data-name="Path 16301" d="M171.578,149.512H81.447a6.271,6.271,0,0,1-6.27-6.271h0a6.27,6.27,0,0,1,6.27-6.27h90.131a6.271,6.271,0,0,1,6.27,6.27h0A6.272,6.272,0,0,1,171.578,149.512Z" transform="translate(-75.177 -79.018)" fill="#d1d3d4"/>
          </g>
          <path id="Path_16302" data-name="Path 16302" d="M173.251,82.684H79.775a4.6,4.6,0,0,0-4.6,4.6v22.6a4.6,4.6,0,0,0,4.6,4.6h93.476a4.6,4.6,0,0,0,4.6-4.6v-22.6A4.6,4.6,0,0,0,173.251,82.684Z" transform="translate(-57.556 -65.635)" fill="#d1d3d4"/>
        </g>
        <g id="Group_5681" data-name="Group 5681" transform="translate(155.686 125.031)">
          <path id="Path_16303" data-name="Path 16303" d="M213.284,211.93H147.341a3.248,3.248,0,0,1-3.247-3.249V137.523a3.25,3.25,0,0,1,3.247-3.249h65.942a3.247,3.247,0,0,1,3.247,3.249V208.68A3.246,3.246,0,0,1,213.284,211.93Z" transform="translate(-144.094 -130.702)" fill="#e7ad27"/>
          <path id="Path_16304" data-name="Path 16304" d="M213.284,210.145H147.341a3.248,3.248,0,0,1-3.247-3.247V135.74a3.25,3.25,0,0,1,3.247-3.249h65.942a3.247,3.247,0,0,1,3.247,3.249V206.9A3.246,3.246,0,0,1,213.284,210.145Z" transform="translate(-144.094 -132.491)" fill="#009add"/>
          <path id="Path_16305" data-name="Path 16305" d="M164.828,155.134,144.1,185.577a3.565,3.565,0,0,0,3.558,3.418h46.129l-23.055-33.861A3.572,3.572,0,0,0,164.828,155.134Z" transform="translate(-144.087 -111.34)" fill="#f7cb15"/>
          <path id="Path_16306" data-name="Path 16306" d="M206.116,158.729l-9.183-13.489a3.573,3.573,0,0,0-5.908,0l-36.549,53.682h48.066a3.573,3.573,0,0,0,3.574-3.574V158.729Z" transform="translate(-133.677 -121.267)" fill="#f7cb15"/>
          <circle id="Ellipse_1973" data-name="Ellipse 1973" cx="9.157" cy="9.157" r="9.157" transform="translate(14.536 13.791)" fill="#f7cb15"/>
        </g>
        <path id="Path_16307" data-name="Path 16307" d="M87.066,203.913h74.881l21.594-21.594V106.57l-96,96,0,0h0Z" transform="translate(-45.627 -33.468)" fill="#bcbec0"/>
        <g id="Group_5682" data-name="Group 5682" transform="translate(21.344)">
          <rect id="Rectangle_1139" data-name="Rectangle 1139" width="53.562" height="192.869" transform="translate(156.944 22.709) rotate(45)" fill="#f7cb15"/>
          <rect id="Rectangle_1140" data-name="Rectangle 1140" width="22.938" height="192.869" transform="translate(167.771 33.536) rotate(45)" fill="#fede3a"/>
          <path id="Path_16308" data-name="Path 16308" d="M213.594,98.878,187.164,72.45a8.1,8.1,0,0,0-11.445,0L155.375,92.794l37.873,37.873,20.344-20.344A8.093,8.093,0,0,0,213.594,98.878Z" transform="translate(1.567 -70.08)" fill="#e43d91"/>
          <path id="Path_16309" data-name="Path 16309" d="M197.869,83.154l-5.475-5.475a8.1,8.1,0,0,0-11.445,0L160.6,98.023l16.918,16.918L197.867,94.6A8.091,8.091,0,0,0,197.869,83.154Z" transform="translate(6.815 -64.834)" fill="#ef5a9d"/>
          <path id="Path_16310" data-name="Path 16310" d="M135.475,187.367,97.6,149.492,77.035,207.934Z" transform="translate(-77.035 9.598)" fill="#e6e7e8"/>
          <path id="Path_16311" data-name="Path 16311" d="M124.649,171.116,108.427,154.9,77.035,202.511Z" transform="translate(-77.035 15.021)" fill="#fff"/>
          <path id="Path_16312" data-name="Path 16312" d="M77.035,186.21l15.067-5.3a15.515,15.515,0,0,0-9.766-9.764Z" transform="translate(-77.035 31.321)" fill="#fede3a"/>
          <path id="Path_16313" data-name="Path 16313" d="M98.031,150.678a7.59,7.59,0,0,0-10.73-.1l10.826,10.826A7.586,7.586,0,0,0,98.031,150.678Z" transform="translate(-66.735 8.509)" fill="#e6e7e8"/>
          <path id="Path_16314" data-name="Path 16314" d="M111.532,164.179a7.588,7.588,0,0,0-10.73-.1l10.826,10.826A7.588,7.588,0,0,0,111.532,164.179Z" transform="translate(-53.188 22.056)" fill="#e6e7e8"/>
          <path id="Path_16315" data-name="Path 16315" d="M107.529,157.5c-4.479-4.479-11.117-5.1-14.823-1.4h0l16.221,16.221h0C112.633,168.622,112.008,161.984,107.529,157.5Z" transform="translate(-61.311 13.809)" fill="#fff"/>
        </g>
        <g id="Group_5685" data-name="Group 5685" transform="translate(103.727 180.205)">
          <g id="Group_5683" data-name="Group 5683">
            <path id="Path_16316" data-name="Path 16316" d="M118.158,200.5a34.187,34.187,0,1,0,68.374,0v-6.279a34.187,34.187,0,0,0-68.374,0V200.5Z" transform="translate(-118.158 -160.032)" fill="#e43d91"/>
            <circle id="Ellipse_1974" data-name="Ellipse 1974" cx="34.187" cy="34.187" r="34.187" transform="translate(0)" fill="#ef5a9d"/>
          </g>
          <g id="Group_5684" data-name="Group 5684" transform="translate(24.505 18.44)">
            <path id="Path_16317" data-name="Path 16317" d="M130.39,198.141V175.822a3.944,3.944,0,0,1,6.25-3.2l15.482,11.159a3.944,3.944,0,0,1,0,6.4L136.64,201.341A3.943,3.943,0,0,1,130.39,198.141Z" transform="translate(-130.39 -166.594)" fill="#e43d91"/>
            <path id="Path_16318" data-name="Path 16318" d="M130.39,195.507V173.188a3.944,3.944,0,0,1,6.25-3.2l15.482,11.159a3.944,3.944,0,0,1,0,6.4L136.64,198.7A3.943,3.943,0,0,1,130.39,195.507Z" transform="translate(-130.39 -169.237)" fill="#fff"/>
            <path id="Path_16319" data-name="Path 16319" d="M152.122,177.691,136.64,188.851a3.944,3.944,0,0,1-6.25-3.2V188.7a3.944,3.944,0,0,0,6.25,3.2l15.482-11.159a3.928,3.928,0,0,0,1.31-4.726A3.86,3.86,0,0,1,152.122,177.691Z" transform="translate(-130.39 -162.433)" fill="#d1d3d4"/>
          </g>
        </g>
      </g>
    </g>
  </g>
</svg>
