<svg xmlns="http://www.w3.org/2000/svg" xmlns:xlink="http://www.w3.org/1999/xlink" width="698.833" height="530.854" viewBox="0 0 698.833 530.854">
  <defs>
    <filter id="Union_6" x="0" y="0" width="698.833" height="530.854" filterUnits="userSpaceOnUse">
      <feOffset dy="3" input="SourceAlpha"/>
      <feGaussianBlur stdDeviation="3" result="blur"/>
      <feFlood flood-opacity="0.161"/>
      <feComposite operator="in" in2="blur"/>
      <feComposite in="SourceGraphic"/>
    </filter>
    <filter id="Union_3" x="2.472" y="7" width="689.362" height="514.854" filterUnits="userSpaceOnUse">
      <feOffset dy="3" input="SourceAlpha"/>
      <feGaussianBlur stdDeviation="3" result="blur-2"/>
      <feFlood flood-opacity="0.161"/>
      <feComposite operator="in" in2="blur-2"/>
      <feComposite in="SourceGraphic"/>
    </filter>
  </defs>
  <g id="Group_5078" data-name="Group 5078" transform="translate(-243.026 -6993.174)">
    <g id="Group_5076" data-name="Group 5076" transform="translate(-8)">
      <g transform="matrix(1, 0, 0, 1, 251.03, 6993.17)" filter="url(#Union_6)">
        <path id="Union_6-2" data-name="Union 6" d="M505.055,5218.854H114a80.515,80.515,0,0,1-49.338-16.9q-.518.091-1.049.169c-22.224,3.282-47.3-12.367-66.138-28.016a249.807,249.807,0,0,1-29.054-28.453c.449.456,28.206,3.611,55.844,2.213,3.01-.152,5.981-.4,8.894-.713a82.966,82.966,0,0,1-.68-10.614V4788.315C32.481,4743.04,69.159,4706,114,4706h426.17c60.238,0,109.081,49.315,109.081,110.127v320.417c0,45.271-36.684,82.311-81.526,82.311Z" transform="translate(40.58 -4700)" fill="#006ba2"/>
      </g>
      <g transform="matrix(1, 0, 0, 1, 251.03, 6993.17)" filter="url(#Union_3)">
        <path id="Union_3-2" data-name="Union 3" d="M493.2,5202.854H110.678a79.252,79.252,0,0,1-48.263-16.37q-.507.087-1.026.164c-21.875,3.2-48.063-9.858-67.934-22.917a269,269,0,0,1-30.552-23.4c.753.5,33.112,6.784,60.014,5.437a83.128,83.128,0,0,0,10.943-1.3,79.178,79.178,0,0,1-2.924-21.363V4785.747A79.974,79.974,0,0,1,110.678,4706H527.551a106.705,106.705,0,0,1,106.7,106.691v310.421a79.978,79.978,0,0,1-79.748,79.742Zm-530.307-62.527.009.007Z" transform="translate(48.58 -4693)" fill="#fff"/>
      </g>
      <g id="Group_5074" data-name="Group 5074" transform="translate(427.13 7034.879)">
        <g id="Group_5073" data-name="Group 5073">
          <rect id="Rectangle_857" data-name="Rectangle 857" width="424.317" height="5.337" transform="translate(0.001 410.096)" fill="#006ba2"/>
          <g id="Group_5071" data-name="Group 5071" transform="translate(0 28.196)">
            <path id="Path_14949" data-name="Path 14949" d="M168.952,44.61h157.4v5.336H169.987A44.044,44.044,0,0,0,168.952,44.61Z" transform="translate(97.961 -44.61)" fill="#006ba2"/>
            <path id="Path_14950" data-name="Path 14950" d="M384.111,44.61a27.43,27.43,0,0,0-2.947,5.336H217.491V44.61Z" transform="translate(-217.491 -44.61)" fill="#006ba2"/>
          </g>
          <g id="Group_5072" data-name="Group 5072" transform="translate(174.621)">
            <path id="Path_14951" data-name="Path 14951" d="M238.419,39.3V43.35Q220.3,53.774,216.057,69.784q4.595-2.986,8.356-2.989a13.4,13.4,0,0,1,10.592,5.065,18.454,18.454,0,0,1,4.322,12.391,18.185,18.185,0,0,1-5.681,13.607,19.32,19.32,0,0,1-13.968,5.5q-8.29,0-13.867-7t-5.575-17.408q0-14.669,11.218-26.29A43.067,43.067,0,0,1,238.419,39.3Zm47.516,0V43.35q-18.117,10.424-22.362,26.434Q268.168,66.8,272,66.795a13.344,13.344,0,0,1,10.522,5.065,18.45,18.45,0,0,1,4.316,12.391A18.23,18.23,0,0,1,281.2,97.858a19.211,19.211,0,0,1-13.936,5.5q-8.354,0-13.9-7t-5.543-17.408q0-14.669,11.186-26.29A42.91,42.91,0,0,1,285.935,39.3Z" transform="translate(-200.236 -39.299)" fill="#006ba2"/>
          </g>
        </g>
      </g>
    </g>
  </g>
</svg>
