<svg xmlns="http://www.w3.org/2000/svg" width="883.968" height="173.137" viewBox="0 0 883.968 173.137">
  <g id="Group_3937" data-name="Group 3937" transform="translate(0)">
    <g id="Group_3178" data-name="Group 3178" transform="translate(0 0)">
      <path id="Path_11881" data-name="Path 11881" d="M5448.819,4156.121c-10.826-.045-21.653-.115-32.481-.124-24.476-.02-48.953-.167-73.424.025-63.852.5-127.706.07-191.554.238-1.4,0-2.807.087-4.209.135H5094.77q-113.444,0-226.894.005-109.638.021-219.28.155c-4.353.007-5.256-.771-5.246-3.567q.212-63.294.007-126.591c-.007-2.612,1.01-3.272,4.882-3.183q61.394,1.4,122.791,2.587,37.554.773,75.105,1.553,71.93,1.574,143.854,3.185c23.348.5,46.7.844,70.048,1.33,31.923.662,63.837,1.416,95.753,2.088q59.079,1.241,118.152,2.414,40.3.831,80.58,1.693,39.871.841,79.74,1.7c4.5.1,8.99.346,13.489.351,2.333,0,2.785.656,2.767,2.032q-.35,29.6-.6,59.193c-.087,9.208-.2,18.415-.267,27.621-.067,8.271-.076,16.539-.167,24.809C5449.479,4154.553,5450.074,4155.471,5448.819,4156.121Z" transform="translate(-4602.641 -4006.396)" fill="#f50825"/>
      <path id="Path_11882" data-name="Path 11882" d="M4948.894,4025.6q47.208,1.1,94.415,2.186c22.207.49,44.415.883,66.62,1.331q13.072.262,26.136.573c1.294.031,3.3-.3,3.145,1.118-.128,1.139-1.861,1.136-3.333,1.1q-21.925-.471-43.85-.915-33.941-.735-67.877-1.5-47.64-1.047-95.282-2.087-44.7-.955-89.392-1.867-38.576-.821-77.147-1.692c-1.477-.033-3.613.25-3.5-1.26.122-1.586,2.372-.987,3.7-.959q65.356,1.379,130.708,2.832,27.823.6,55.65,1.186Z" transform="translate(-4311.041 -4008.719)" fill="#fcd009"/>
      <path id="Path_11883" data-name="Path 11883" d="M4936.858,4085.148c-31.076,0-61.481.024-91.883-.006q-57.855-.054-115.7-.187c-3.232,0-6.465-.12-9.7-.19-1.046-.024-2-.137-1.9-1.077.074-.731.85-.92,1.72-.965.98-.051,1.971-.033,2.955-.03q107.049.141,214.108.29" transform="translate(-4414.978 -3925.65)" fill="#fcd009"/>
      <path id="Path_11884" data-name="Path 11884" d="M4916.507,4021.67q33.075.8,66.15,1.591,30.543.732,61.094,1.452c.561.015,1.123.045,1.686.052,1.18.017,2.484.128,2.325,1.118-.129.835-1.286,1.094-2.555,1.066-5.06-.118-10.122-.182-15.177-.3q-42.344-1.02-84.687-2.063-51.822-1.288-103.638-2.61c-17.552-.436-35.111-.821-52.667-1.252-1.4-.033-3.643.418-3.491-1.172.142-1.506,2.3-1.007,3.728-.971q42.973,1.039,85.944,2.112,20.643.5,41.287.948Z" transform="translate(-4243.576 -4012.831)" fill="#fcd009"/>
      <path id="Path_11885" data-name="Path 11885" d="M4689.846,4119.625c-15.2,0-30.395-.073-45.591.054-3.621.028-4.5-.808-4.488-3.076.107-18.788.061-37.575.063-56.36a8.128,8.128,0,0,1,.088-1.688c.158-.733.787-1.174,2-1.121,1.174.052,1.246.632,1.281,1.2.041.658.017,1.316.017,1.973,0,18.036.062,36.071-.07,54.108-.014,2.345.762,2.918,4.467,2.781,8.979-.33,18-.181,27.006-.224q30.819-.144,61.636-.285c1.124,0,2.251,0,3.374.047.94.035,1.565.323,1.586,1.035.018.735-.606.962-1.575.993-1.686.055-3.368.183-5.053.186q-22.371.021-44.745.008Z" transform="translate(-4611.692 -3959.94)" fill="#fcd009"/>
      <path id="Path_11886" data-name="Path 11886" d="M4955.341,4088.339c-3.31,8.35-6.739,16.68-9.849,25.063-.9,2.408-2.27,3.279-6.236,3.225-29.617-.41-59.238-.62-88.856-.9-.7-.006-1.41-.1-2.1-.073-1.322.057-2.943.073-2.965-.99-.029-1.238,1.819-1.238,3.193-1.23,6.036.031,12.071.106,18.107.169,23.717.25,47.438.47,71.157.8,3.045.042,4.3-.533,5.106-2.568,6.576-16.614,13.361-33.19,20.084-49.781.223-.542.427-1.09.674-1.629a1.787,1.787,0,0,1,2.233-.835c.807.2,1.267.712,1.013,1.363-.145.363-.269.731-.414,1.094q-5.227,13.2-10.464,26.409Z" transform="translate(-4092.599 -3957.121)" fill="#fcd009"/>
      <path id="Path_11887" data-name="Path 11887" d="M4782.633,4087.052h72.193c.562,0,1.125-.009,1.688,0,1.259.033,2.842-.042,2.744,1.16-.089,1.1-1.584,1.116-2.888,1.111q-11.183-.046-22.367-.09c-1.267-.006-2.528-.086-3.793-.089q-60.16-.152-120.323-.3c-.843,0-1.688.005-2.532-.007-.925-.011-1.671-.207-1.708-.931-.04-.655.471-1.094,1.43-1.165,1.115-.08,2.246-.071,3.366-.073q36.1,0,72.19,0Z" transform="translate(-4445.334 -3920.238)" fill="#fcd009"/>
      <path id="Path_11888" data-name="Path 11888" d="M4757.6,4016.079c5.375.031,9.6,2.872,9.552,6.429-.042,3.523-4.381,6.425-9.652,6.456-5.436.032-9.92-3.029-9.754-6.66C4747.907,4018.7,4752.111,4016.046,4757.6,4016.079Z" transform="translate(-4339.041 -4016.079)" fill="#fcd009"/>
      <path id="Path_11889" data-name="Path 11889" d="M4689.329,4089.979c.512-1.53-1.459-4.013.932-5.02,2.729-1.148,5.182,1.12,7.638,1.99,10.2,3.609,8.465,3.487.1,6.77-1.2.472-2.426.922-3.633,1.387-4.429,1.707-5.019,1.466-5.04-2.06C4689.327,4092.113,4689.329,4091.177,4689.329,4089.979Z" transform="translate(-4487.247 -3922.997)" fill="#fcd009"/>
      <path id="Path_11890" data-name="Path 11890" d="M4637.967,4037.448c-3.536-.063-6.281-2.02-6.161-4.387.119-2.339,3.166-4.2,6.651-4.057,3.289.129,6.078,2.084,6.057,4.245C4644.492,4035.536,4641.407,4037.512,4637.967,4037.448Z" transform="translate(-4631.802 -3998.541)" fill="#fcd009"/>
      <path id="Path_11891" data-name="Path 11891" d="M4652.705,4016.948c35.75.729,70.757,1.422,105.763,2.16q37.95.8,75.9,1.676,52.928,1.148,105.849,2.267c8.577.182,17.151.354,25.729.575,1.423.038,3.737-.275,3.714,1.073-.021,1.393-2.232,1.384-3.979,1.347q-37.945-.842-75.894-1.67-52.928-1.143-105.853-2.271-37.956-.82-75.909-1.673-26.985-.587-53.979-1.139a3.074,3.074,0,0,1-.834-.031c-1.436-.517-4.463.476-4.285-1.363C4649.1,4016.121,4651.918,4017.229,4652.705,4016.948Z" transform="translate(-4588.576 -4015.014)" fill="#fcd009"/>
      <path id="Path_11892" data-name="Path 11892" d="M4761.33,4021.318c-.094,2.284-3.2,4.238-6.6,4.151-3.347-.085-6.216-2.23-6.021-4.5s2.937-3.99,6.333-3.966C4758.562,4017.025,4761.425,4018.989,4761.33,4021.318Z" transform="translate(-4336.6 -4014.824)" fill="#fcd009"/>
      <path id="Path_11893" data-name="Path 11893" d="M4880.629,4050.868c2.087-.785,3.767-1.422,5.456-2.051.339-.125.706-.219,1.345-.415v5.1A26.662,26.662,0,0,1,4880.629,4050.868Z" transform="translate(-4003.461 -3972.194)" fill="#fcd009"/>
      <path id="Path_11894" data-name="Path 11894" d="M4697.161,4088.569l-6.981,2.711v-5.362Z" transform="translate(-4484.385 -3921.263)" fill="#fcd009"/>
    </g>
  </g>
</svg>
