<svg id="Group_3828" data-name="Group 3828" xmlns="http://www.w3.org/2000/svg" width="327.16" height="384.947" viewBox="0 0 327.16 384.947">
  <g id="MEN_2" data-name="MEN 2" transform="translate(0 16.121)">
    <g id="Group_545" data-name="Group 545" transform="translate(0 0)">
      <g id="Group_536" data-name="Group 536" transform="translate(95.754)">
        <path id="Path_1445" data-name="Path 1445" d="M712.06,334.9c15.78,3.972,44.863,18.113,50.953,42.3,9.133,36.317-9.142,89.624,19.8,141.774,9.238,16.613-159.926,38.957-159.926,38.957L590.253,374.442s40.768-39.825,49.111-42.512C656.63,326.374,680.535,326.975,712.06,334.9Z" transform="translate(-578.23 -291.427)" fill="#86c0f0"/>
        <g id="Group_533" data-name="Group 533" transform="translate(0 82.755)">
          <path id="Path_1446" data-name="Path 1446" d="M599.262,339.111c-5.875,14.662-20.721,101.892-4.169,122.456,1.907,2.376-8.589,6.073-6.691,16.924.325,1.82,3.486,10.466,3.486,10.466l13.522,3.521,40.846-23.251-7.822-9.519-3.7.07s-3.49-3.249-2.521-7.265c.96-3.994-9.37-10.505-25-78.2C602.612,354.4,600.555,335.879,599.262,339.111Z" transform="translate(-587.511 -338.742)" fill="#74b2e8"/>
          <path id="Path_1447" data-name="Path 1447" d="M604.554,368.47l12.084-2.666,4.9-.776a8.946,8.946,0,0,0,2.679,5.783l-9.365.3-10.974,2.355-13.263,7.559Z" transform="translate(-577.002 -249.775)" fill="#ecb60d"/>
        </g>
        <path id="Path_1448" data-name="Path 1448" d="M617.54,368.383s-9.339-.11-17.306,4.784c-6.051,3.731-11.619,11.842-6.059,16.231s14.144,8.484,14.144,8.484S629.593,398.47,617.54,368.383Z" transform="translate(-572.703 -155.665)" fill="#c4d1e1"/>
        <path id="Path_1449" data-name="Path 1449" d="M593.853,374.852l5.691-1.215s19.594-1.771,22.383-.246,11.777,7.6,11.777,7.6l1.846,1.7s-4.367,2.727-10.264-1.4c-5.915-4.13-6.393-.956-6.393-.956l.982,5.222-.079,6.665.912,2.815s.829,1.521.18,2.078a3.714,3.714,0,0,1-3.722.851l-5.959-10.409-1.618,11.325a4.134,4.134,0,0,1-2.675,1.929c-1.754.377-1.767-.083-1.767-.083l-1.342-2.881a3.54,3.54,0,0,1-1.188,1.973,5.726,5.726,0,0,1-3.552,1l.552-11.921-2.442,6.06A4.481,4.481,0,0,1,594.5,396.9c-1.982.465-2.512.614-2.512.614Z" transform="translate(-572.351 -140.812)" fill="#e4eef3"/>
        <g id="Group_535" data-name="Group 535" transform="translate(51.642 61.37)">
          <g id="Group_534" data-name="Group 534" transform="translate(15.259)">
            <path id="Path_1450" data-name="Path 1450" d="M658.86,373.193s-14.228,36.036-48.4,45.678c-5.919,1.675-9.55,8.063-6.7,10.111,3.656,2.631,8.659,3.205,17.244,3.174,17.867-.035,42.188-5.6,59.012-21.879,24.9-24.093,32.748-35.05,30.223-47.173C707.734,350.972,658.86,373.193,658.86,373.193Z" transform="translate(-602.769 -247.165)" fill="#e9d6b8"/>
            <path id="Path_1451" data-name="Path 1451" d="M684.227,346.135c7.235,11.891,11.417,31,11.369,58.336-.052,21.151-18.3,55.8-21.107,66.452-.469,1.776-1.579,9.4-1.579,9.4l-20.23,19.849-40.584-27.5,12.334-18.937,3.679.382s2.333-10.435,1.71-14.517c-.636-4.06,11.238-58.639,17.109-93.623C650.308,325.83,677.054,334.336,684.227,346.135Z" transform="translate(-571.199 -333.864)" fill="#74b2e8"/>
            <path id="Path_1452" data-name="Path 1452" d="M635.541,364.883l-11.812-3.665-4.814-1.188a8.953,8.953,0,0,1-3.166,5.538l9.3,1.074,10.747,3.28,12.588,8.651Z" transform="translate(-558.838 -245.309)" fill="#86c0f0"/>
          </g>
          <path id="Path_1453" data-name="Path 1453" d="M624.842,377.373l-20.669-5.665s-5.854,7.857-4.744,9.813-.013,13.574-.013,13.574l10.01,8.506,8.146-2.705s.57-3.556-2.214-3.9,1.881-2.368,3.337-3.205S632.147,386.782,624.842,377.373Z" transform="translate(-599.289 -205.781)" fill="#e9d6b8"/>
        </g>
        <rect id="Rectangle_81" data-name="Rectangle 81" width="37.696" height="56.843" rx="2.881" transform="translate(58.655 12.474) rotate(-19.324)" fill="#e4eef3"/>
      </g>
      <path id="Path_1454" data-name="Path 1454" d="M567.237,436.282c5.034,13.925,93.3,65.176,122.886,62.138l89.159,4.253C855.1,493.421,890.97,375.618,890.97,375.618c-3.021-29.583-77.712,13.3-104.33,26.575-42.166,21.05-68.824,22.107-68.824,22.107-28.206,2.889-60.9-18.871-96.5-19.63C582.206,403.841,559.3,414.337,567.237,436.282Z" transform="translate(-565.672 -165.688)" fill="#282723"/>
      <g id="Group_539" data-name="Group 539" transform="translate(24.258 170.38)">
        <path id="Path_1455" data-name="Path 1455" d="M728.731,383.462a.773.773,0,0,1,.07-.11v-3.714l-153.459-2.793-.07,3.7a.213.213,0,0,0,0,.123l.381.7c1.916,3.249,5.446,3.893,9.5,3.968L718.7,387.768c4.047.079,7.6-.434,9.633-3.613Z" transform="translate(-557.469 -297.402)" fill="#b6c2c9"/>
        <path id="Path_1456" data-name="Path 1456" d="M601.832,380.649a.241.241,0,0,0,0,.1l.368.579a6.314,6.314,0,0,0,2.21,1.925l23.339.417c3.9.075,7.309-.32,9.252-2.9l.386-.548c.022-.031.044-.061.07-.105l-.009-1.806-35.554-.649Z" transform="translate(-467.566 -294.637)" fill="#d8e5ed"/>
        <g id="Group_537" data-name="Group 537" transform="translate(36.889 80.651)">
          <rect id="Rectangle_82" data-name="Rectangle 82" width="2.618" height="76.698" transform="translate(0 2.617) rotate(-88.96)" fill="#879ba6"/>
        </g>
        <g id="Group_538" data-name="Group 538" transform="translate(0)">
          <path id="Path_1457" data-name="Path 1457" d="M704.7,440.148,686.187,364.37a5.023,5.023,0,0,0-4.49-3.683l-107.658-1.96a2.682,2.682,0,0,0-2.727,3.551l18.529,75.769Z" transform="translate(-571.205 -358.727)" fill="#d9e1e4"/>
          <path id="Path_1458" data-name="Path 1458" d="M598.85,373.536c.956,3.867-1.4,6.949-5.253,6.884a9.729,9.729,0,0,1-8.686-7.129c-.947-3.876,1.412-6.958,5.261-6.884A9.691,9.691,0,0,1,598.85,373.536Z" transform="translate(-525.521 -332.737)" fill="#b6c2c9"/>
        </g>
      </g>
      <g id="Group_541" data-name="Group 541" transform="translate(181.086 309.892)">
        <path id="Path_1459" data-name="Path 1459" d="M653.12,437.263c-10.624,1.824-18.713-10.514-18.713-10.514l-27.434-21.594,5.8-14.609L666.2,414.56S663.74,435.453,653.12,437.263Z" transform="translate(-606.973 -390.546)" fill="#e9d6b8"/>
        <path id="Path_1460" data-name="Path 1460" d="M613.22,412.428s-.035,1.28,2.022,6.9,4.555,7.59,7.2,8.375c10.242,3.017,17.622,1.491,42.258,6.244s32.02,1.162,39.233-10.19-.268-20.261-12.286-21.186c-17.389-1.311-27.079.675-36.129-.7-9.488-1.447-10.089-3.565-15.631-6.976-5.222-3.205-10.014,15.85-5.09,20.274C639.15,419.057,616.916,419.653,613.22,412.428Z" transform="translate(-585.83 -377.053)" fill="#316091"/>
        <path id="Path_1461" data-name="Path 1461" d="M615.79,414.651c10.242,3.017,17.626,1.5,42.263,6.239s32.02,1.171,39.242-10.185c3.332-5.253,3.49-9.94,1.543-13.592,5.415,3.731,7.274,10.247,2.394,17.911-7.212,11.352-14.6,14.934-39.233,10.19s-32.016-3.227-42.258-6.244c-2.047-.6-4-1.934-5.722-5.069A8.62,8.62,0,0,0,615.79,414.651Z" transform="translate(-583.126 -368.319)" fill="#e4eef3"/>
        <path id="Path_1462" data-name="Path 1462" d="M613.26,398.952a2.3,2.3,0,0,1-.04-.338,3.691,3.691,0,0,0,.241.381C613.4,398.982,613.321,398.969,613.26,398.952Z" transform="translate(-585.83 -363.239)" fill="#e9d6b8"/>
        <g id="Group_540" data-name="Group 540" transform="translate(63.739 22.943)">
          <path id="Path_1463" data-name="Path 1463" d="M626.329,416.2c.793.285,1.5-1.193,1.745-3.293a59.348,59.348,0,0,1,2.846-12.689c.71-2.083.7-3.924-.162-4.152-.877-.228-2.258,1.25-2.938,3.28a59.807,59.807,0,0,0-2.7,12.553C624.913,413.974,625.539,415.885,626.329,416.2Z" transform="translate(-609.423 -394.896)" fill="#fff"/>
          <path id="Path_1464" data-name="Path 1464" d="M624.642,414.956c.846.171,1.6-1.285,1.828-3.249a54.285,54.285,0,0,1,2.815-11.943c.693-1.956.653-3.648-.263-3.762s-2.346,1.359-3,3.306a53.948,53.948,0,0,0-2.661,11.816C623.164,413.066,623.826,414.767,624.642,414.956Z" transform="translate(-615.374 -395.044)" fill="#fff"/>
          <path id="Path_1465" data-name="Path 1465" d="M622.776,415.339c.864.118,1.723-1.429,2.039-3.464a60.738,60.738,0,0,1,3.332-12.325c.776-2.017.785-3.727-.18-3.771-.947-.048-2.459,1.539-3.214,3.538a59.78,59.78,0,0,0-3.174,12.193C621.3,413.52,621.9,415.23,622.776,415.339Z" transform="translate(-621.51 -395.779)" fill="#fff"/>
        </g>
      </g>
      <path id="Path_1466" data-name="Path 1466" d="M790.557,453.1S601.982,375.563,591.2,375.454c-36.422-.338-28.074,36.519-9.615,53.86C603.359,449.763,768.924,487.2,768.924,487.2Z" transform="translate(-565.192 -131.742)" fill="#323b31"/>
      <g id="Group_544" data-name="Group 544" transform="translate(58.674 170.135)">
        <path id="Path_1467" data-name="Path 1467" d="M620.6,450.678l51.483-48.8-21.943-21.731-56.209,59.081Z" transform="translate(-528.713 -285.997)" fill="#e9d6b8"/>
        <path id="Path_1468" data-name="Path 1468" d="M597.578,484.977s131-120.088,139.845-123.666c29.9-12.141,48.432,20.883,47.379,32.3-1.364,14.785-134.465,135.057-134.465,135.057Z" transform="translate(-516.359 -358.671)" fill="#3c463b"/>
        <g id="Group_543" data-name="Group 543" transform="translate(0 143.489)">
          <path id="Path_1469" data-name="Path 1469" d="M582.636,416.407c-3.06,2.828-3.582,11.146-3.582,11.146s43.718,16.539,59.073,16.837c3.99.088,11.172-1.522,18.038-3.429,1.166-.307,3.828-3.306,4.955-3.644,2.091-.609,2.569,1.425,4.367.855,4.656-1.5,7.98-2.749,8.094-2.99,9.243-19.63,6.112-29.3,6.112-29.3s-20.081,5.748-16.644,1.258c7.366-9.62-13.684-19.472-18.38-14.337C625.951,413.285,591.51,408.221,582.636,416.407Z" transform="translate(-579.054 -391.397)" fill="#316091"/>
          <path id="Path_1470" data-name="Path 1470" d="M580.211,398.03c13.434,5.349,41.671,16.376,47.292,16.758,23.006,1.64,39.093-6.537,49.835-11.347a85.752,85.752,0,0,1-3.757,9.291c-.114.241-3.438,1.491-8.094,2.99-1.8.57-2.276-1.465-4.367-.855-1.127.338-3.788,3.337-4.955,3.644-6.866,1.907-14.048,3.516-18.038,3.429-15.354-.3-59.073-16.837-59.073-16.837A30.071,30.071,0,0,1,580.211,398.03Z" transform="translate(-579.054 -368.947)" fill="#e4eef3"/>
          <g id="Group_542" data-name="Group 542" transform="translate(31.996 9.177)">
            <path id="Path_1471" data-name="Path 1471" d="M586.411,395.8c-.4.754,1.3,1.648,3.758,2.166a83.525,83.525,0,0,1,14.763,4.472c2.389.987,4.569,1.2,4.906.373.311-.846-1.328-2.42-3.683-3.363a82.582,82.582,0,0,0-14.6-4.305C589.116,394.665,586.818,395.042,586.411,395.8Z" transform="translate(-586.352 -388.618)" fill="#fff"/>
            <path id="Path_1472" data-name="Path 1472" d="M588.64,394.9c-.364.789,1.3,1.877,3.692,2.569a84.216,84.216,0,0,1,14.267,5.617c2.293,1.153,4.393,1.513,4.7.64.289-.873-1.28-2.626-3.556-3.745a83.048,83.048,0,0,0-14.149-5.424C591.239,393.892,589.008,394.134,588.64,394.9Z" transform="translate(-578.777 -391.191)" fill="#fff"/>
            <path id="Path_1473" data-name="Path 1473" d="M590.79,394.157c-.342.811,1.28,2.074,3.6,2.951a85.007,85.007,0,0,1,13.754,6.7c2.205,1.311,4.218,1.8,4.494.881.294-.9-1.21-2.819-3.4-4.108a83.784,83.784,0,0,0-13.658-6.507C593.294,393.227,591.136,393.341,590.79,394.157Z" transform="translate(-571.483 -393.49)" fill="#fff"/>
          </g>
        </g>
      </g>
    </g>
  </g>
  <g id="MEN_HEAD_2" data-name="MEN HEAD 2" transform="translate(133.525 0)">
    <g id="Group_546" data-name="Group 546">
      <path id="Path_1474" data-name="Path 1474" d="M612.041,391.312A8.151,8.151,0,0,0,622.069,397l35.383-9.751a8.148,8.148,0,0,0,5.691-10.027L648.7,324.811a8.146,8.146,0,0,0-10.027-5.691l-35.379,9.743A8.164,8.164,0,0,0,597.6,338.9Z" transform="translate(-592.125 -307.28)" fill="#e9d6b8"/>
      <path id="Path_1475" data-name="Path 1475" d="M604.524,340.811s-6.143-3.766-7.884-6.643c-.863-1.443-.969-7.831,2.319-11.207s7.748-.026,7.748-.026-5.318,5.231-5.283,6.634S604.524,340.811,604.524,340.811Z" transform="translate(-596.126 -298.376)" fill="#163f59"/>
      <path id="Path_1476" data-name="Path 1476" d="M662.761,356.578s-.2-21.844-2.85-27.513c-2.626-5.691-4.433-9.646-11.891-8.291-11.163,2.013-10.659,4.367-16.863,2.517s-17.924-7.208-21.418-7.1c-5.823.175-13.868,4.363-11.374,14.706,1.833,7.633-2.42,10.812-2.21,11.049.671.816,2.907,1.136,6.844,1.912,11.295,2.227,17.529,1.578,24.588-2.5s20.046-12.294,23.247-7.129,7.287,22.563,8.318,23.7S661.7,357.942,662.761,356.578Z" transform="translate(-596.048 -316.191)" fill="#194866"/>
      <path id="Path_1477" data-name="Path 1477" d="M612.835,344.71a2.722,2.722,0,0,0,3.337,1.89l7.655-2.1a2.718,2.718,0,0,0,1.889-3.345l-3.841-13.969a2.733,2.733,0,0,0-3.354-1.907l-7.642,2.109a2.726,2.726,0,0,0-1.9,3.345Z" transform="translate(-552.958 -285.785)" fill="#e9d6b8"/>
      <path id="Path_1478" data-name="Path 1478" d="M602.425,347.555a2.732,2.732,0,0,0,3.354,1.912l7.643-2.1a2.733,2.733,0,0,0,1.894-3.345l-3.85-13.978a2.714,2.714,0,0,0-3.345-1.9l-7.643,2.109a2.716,2.716,0,0,0-1.9,3.341Z" transform="translate(-588.147 -276.086)" fill="#e9d6b8"/>
      <path id="Path_1479" data-name="Path 1479" d="M649.908,326.6s5.682,20.642,7.585,27.517c1.71,6.213,2.995,20.555-32.143,30.236-20.8,5.731-24.247-9.769-25.637-14.784-1.056-3.832.114-16.477,1.714-19.27.048-.092,2.341,8.51,2.341,8.51s2.034-9.484,11.93-12.22c15.955-4.385,22.138,3.946,29.126,1.859C650.2,346.819,651.837,336.875,649.908,326.6Z" transform="translate(-585.348 -280.953)" fill="#194866"/>
      <path id="Path_1480" data-name="Path 1480" d="M616.725,337.6l-10.917,3.016a2.726,2.726,0,0,1-3.337-1.907l-.425-1.517,16.161-4.463.421,1.534A2.71,2.71,0,0,1,616.725,337.6Z" transform="translate(-576.087 -260.226)" fill="#e9d6b8"/>
    </g>
  </g>
</svg>
