<svg xmlns="http://www.w3.org/2000/svg" width="294.945" height="270.129" viewBox="0 0 294.945 270.129">
  <g id="Group_3833" data-name="Group 3833" transform="matrix(0.951, 0.309, -0.309, 0.951, -335.192, -441.762)">
    <path id="Path_13443" data-name="Path 13443" d="M1204.532,704.755s3.457,4.324,7.284,5.812,10.951,1.118,18.5.665,12.968,1.142,15.256,3.375,4.84,6.592,4.627,8.081-3.615-.638-7.868-2.871-10.952-2.871-15.736-2.552-13.609-.957-17.543-3.4-11.377-12.015-11.377-12.015Z" transform="translate(-474.222 -292.954)" fill="#bec628"/>
    <path id="Path_13444" data-name="Path 13444" d="M1206.451,705.568s2.623,4.8,5.813,6.539a14.74,14.74,0,0,0,7.112,1.468s-4.988-1.988-6.594-4-1.606-2.574-1.606-2.574Z" transform="translate(-480.199 -295.488)" fill="#a0a01d"/>
    <path id="Path_13445" data-name="Path 13445" d="M1174.351,681.124s9.373,3.709,11.282,4.378a1.4,1.4,0,0,1,.845,2.233s-8.4-2.193-11.428-3.305-4.433-1.51-4.433-1.51Z" transform="translate(-455.795 -278.841)" fill="#a0a01d"/>
    <path id="Path_13446" data-name="Path 13446" d="M896.283,868.514s-3.4,3.89-6.7,3.571-9.888-.739-6.379,1.438,13.44,1.858,14.854,1.433,1.733-5.542,1.733-5.542l-4.36-1.745Z" transform="translate(-259.379 -405.883)" fill="#282528"/>
    <path id="Path_13447" data-name="Path 13447" d="M981,900.684s-.693,3.4-2.26,4.572-7.2,1.914-4.226,2.871,10.207-.638,10.633-1.808-2.233-6.8-2.233-6.8Z" transform="translate(-321.664 -427.571)" fill="#282528"/>
    <path id="Path_13448" data-name="Path 13448" d="M1009.467,784.95s-15.45,14.078-15.646,15.741.142,21.337,0,22.115,4.575-.957,4.575-.957-2.538-19.989-1.475-21.052,26.6-17.822,26.6-17.822Z" transform="translate(-335.349 -348.205)" fill="#282528"/>
    <path id="Path_13449" data-name="Path 13449" d="M1140.995,506.353h6.379s5.529-5.316,5.21-6.486-2.151,1.063-2.151,1.063.933-8.293,0-7.868-2.833,7.017-3.637,6.06.153-7.762-.91-6.8-1.3,5.954-2.565,5.848-.572-6.7-1.449-5.423-.027,5.954-1.409,5.742-3.333-5.316-3.527-3.509,3.977,10.327,3.977,10.327Z" transform="translate(-432.853 -150.197)" fill="#ffd29c"/>
    <path id="Path_13450" data-name="Path 13450" d="M1140.379,578.248s-.312-13.755,0-15.2,1.169-18.166.638-20.619.741-6.919.741-6.919l-.759-2.658s8.683.425,10.836.957-.373.851-1.024,1.489-4.022,8.825-4.2,11.27-.069,9.675-.335,10.207-1.92,21.75-1.92,21.75Z" transform="translate(-435.108 -177.861)" fill="#15b771"/>
    <path id="Path_13451" data-name="Path 13451" d="M1156.107,585.217s-2.5,5.943-11.109,6.9c0,0,.535,9.037,6.383,10.951s14.035-4.359,14.035-4.359Z" transform="translate(-438.348 -213.525)" fill="#e57089"/>
    <path id="Path_13452" data-name="Path 13452" d="M1176.251,589.015l-1.411,1.122s.434,5.47,2.264,7.384a39.777,39.777,0,0,0,4.753,3.987l1.116-3.4Z" transform="translate(-458.671 -216.112)" fill="#fff"/>
    <path id="Path_13453" data-name="Path 13453" d="M1161.285,623.388s-1.648-3.828-4.572-4.891a17.7,17.7,0,0,0-6.539-.744,6.077,6.077,0,0,0,3.3,5.21C1156.873,624.823,1161.285,623.388,1161.285,623.388Z" transform="translate(-441.872 -235.652)" fill="#dd172a"/>
    <path id="Path_13454" data-name="Path 13454" d="M1158.139,654.581s-2.243,4.019-4.524,4.657-.973,3.161,1.3,4.292a25.012,25.012,0,0,0,4.716,1.711l6.167-4.2Z" transform="translate(-443.405 -260.764)" fill="#e8bb89"/>
    <path id="Path_13455" data-name="Path 13455" d="M864.913,619.681a12.5,12.5,0,0,0,.212,6.658c1.143,3.31,17.031,18.711,19.006,21.332s5.627,13.639,9.17,19.646a77.853,77.853,0,0,0,9.808,12.373s0-18.223.08-21.811-2.073-18.58-2.073-18.58l-23.205-25.119S865.445,607.081,864.913,619.681Z" transform="translate(-247.359 -231.893)" fill="#710377"/>
    <path id="Path_13456" data-name="Path 13456" d="M634.849,857.755s-3.934,1.276-5.16.744-8.456-2.611-8.35.13,12.029,7.042,13.51,6.805,2.651-4.865,2.651-4.865Z" transform="translate(-81.721 -398.782)" fill="#282528"/>
    <path id="Path_13457" data-name="Path 13457" d="M693.336,918.515s-6.471,1.807-8.491,1.063-11.27-.251-4.891,3.33,12.121,5.07,14.035,4.006,4.785-5.21,4.785-5.21Z" transform="translate(-120.134 -440.51)" fill="#282528"/>
    <path id="Path_13458" data-name="Path 13458" d="M723.242,611.59s.31,8.744.31,9.476-.213,5.2-.744,5.941-16.825,6.937-24.574,11.177-20.4,13.7-24.016,18.168-13.716,24.774-14.248,25.624a48.6,48.6,0,0,1-3.3,3.721s2.126,3.269,4.359,4.453,2.552.651,2.552.651-.518-4.4,4.359-13.609,15.311-22.966,16.161-23.711,25.335-12,26.968-12.487,9.926-3.33,11.309-2.811,15.1,2.811,15.1,2.811,12.546-17.768,10.739-23.108-8.719-13.208-8.719-13.208l-10.659-.235Z" transform="translate(-105.786 -226.619)" fill="#282528"/>
    <path id="Path_13459" data-name="Path 13459" d="M504.744,594.124s-7.655-9.7,0-11.584,8.718,7.391,8.718,7.391l112.876,35.6L728.45,661.745l6.38,8.052L513.037,594.358Z" transform="translate(0 -211.531)" fill="#7a3e20"/>
    <path id="Path_13460" data-name="Path 13460" d="M778.567,651.922s-27,16.538-31.465,21.323-24.773,42.636-25.837,43.806-3.314,3.3-3.314,3.3,3.143,4.678,5.142,5.848A20.983,20.983,0,0,0,727.325,728s15.2-34.908,17.969-40.1a94.293,94.293,0,0,1,10.542-14.443c.622-.426,33.149-13.619,38.469-19.037a18.462,18.462,0,0,0,5.183-12.223L786.7,627.53Z" transform="translate(-147.516 -242.342)" fill="#3a343a"/>
    <path id="Path_13461" data-name="Path 13461" d="M853.476,463.863s5.939,9.518,6.191,11.563l.252,2.046,9.481-6.8-5.656-12.418Z" transform="translate(-239.813 -127.058)" fill="#e8bb89"/>
    <path id="Path_13462" data-name="Path 13462" d="M747.689,355.515s4.891,3.156,6.592,4.023a18.992,18.992,0,0,0,3.277,1.293s-7.105,7.691-7.849,10.278a27.678,27.678,0,0,0-.767,5.458c-.19,1.169-2.157,12.064-1.253,16.437,1.7,8.23,6.555,9.313,9.869,9.941s9.482,2.054,12.352,2.032,7.061,0,7.061,0l3.2-1.335,1.624,3.864,6.431-6.783s3.536-.961,4.053-.789c2.3.766,2.153,1.2,2.756,2.151s5.369,13.226,7.058,16.8c1.565,3.31,5.625,17.478,12.741,24.61.56.562,3.278,4.059,3.877,4.525,8.2,6.379,14.035,6.242,18.713,14.5s18.181,21.723,22.328,23.76,6.379,7.867,5.316,7.717-9.379-4.119-15.96-7.717-6.156-2.206-14.768-5.453-26.113-14.334-32.354-18.307-17.618-21.337-18.15-22.6l-3.075,10.33s-1.458-12.44-1.477-14.567a10.4,10.4,0,0,1,1.043-4.2s-9.2,10.168-9.544,11.917-6.4,15.562-5.767,18.172a56.338,56.338,0,0,1,1.008,6.347s-9.285-11.105-10.144-13.057c0,0,4.777-7.068,6.159-9.022s17.006-28.345,17.006-28.345l-.876-4.669s-26.084-2.435-31-4.62-5.771-7.693-6.032-15.2S747.689,355.515,747.689,355.515Z" transform="translate(-163.308 -57.092)" fill="#940a9b"/>
    <path id="Path_13463" data-name="Path 13463" d="M797.544,405.908s1.3,11.851-1,15.254a3.924,3.924,0,0,0,2.807,2.552c2.233.532,9.995.626,11.164-.485s7.588-21.445,6.505-22.017S797.544,405.908,797.544,405.908Z" transform="translate(-201.04 -88.184)" fill="#e57089"/>
    <path id="Path_13464" data-name="Path 13464" d="M799.684,403.274s1.034,2.552,1.034,2.791a27.559,27.559,0,0,0,5.9,1.754,21.8,21.8,0,0,0,2.871-.452s6.759-2.634,6.842-2.872,4.083-6.565,4.083-6.565Z" transform="translate(-203.179 -85.979)" fill="#eaeaea"/>
    <path id="Path_13465" data-name="Path 13465" d="M819.63,438.431s-4.946.281-8.134,2.073-5.821,6.806-5.821,6.806,7.68.985,9.422,0S819.63,438.431,819.63,438.431Z" transform="translate(-207.26 -113.56)" fill="#dd172a"/>
    <path id="Path_13466" data-name="Path 13466" d="M899.776,373.114l5,3.084s-30.409.638-34.024,0S840.341,363.4,840.341,363.4Z" transform="translate(-230.868 -62.464)" fill="#710377"/>
    <path id="Path_13467" data-name="Path 13467" d="M763.538,346.987s-5.529,1.479-6.273,5.236.27,5.246-.822,6.521-4.589-.319-6.243,0,.28,2.533-3.271.5-4.443-3.054-4.868-2.629-3.19-.106-3.828.107,4.906,2.488,5.917,3.37.994,2.265,2.164,2.9,4.04-.212,5.21,0,3.083,2.02,3.083,2.02a17.914,17.914,0,0,1,.425,3.083c-.106.532,6.988,3.084,9.129,3.084s12.889-8.056,11.29-4.135-5.08,16.648-9.134,17.3-11.391-2.147-11.391-.8-.837,3.049-1.907,3.368-2.027.532-2.346,1.276-2.02.213-1.914,1.276,3.934,1.524,5.635,1.666,6.911-.663,8.506-.685a65.03,65.03,0,0,1,6.7.2c1.276.2,8.081-.122,9.569-.653s12.333-8.187,12.333-8.187,7.974-9.675,8.506-16.587a32.4,32.4,0,0,0-1.914-13.007Z" transform="translate(-161.294 -51.284)" fill="#ffd29c"/>
    <path id="Path_13468" data-name="Path 13468" d="M862.008,349.515s1.081,7.974,1.922,9.782,3.217,8.931,3.217,8.931.921,23.544,8.471,23.946,23.923-6.971,27.432-6.9,13.822-1.948,16.268-3.65,7.655-3.4,9.037-4.147,11.7-2.233,12.653-3.615-5.848-1.382-6.592-1.276a71.131,71.131,0,0,1-7.23-.744c-3.721-.426-5.529-.107-8.506-.213s-6.167-.319-8.719-2.127-4.147-1.488-7.868-2.233-2.764.35-8.4-2.126-7.868-2.476-7.868-2.476l-6.7-5.5Z" transform="translate(-245.624 -53.006)" fill="#eaeaea"/>
    <path id="Path_13469" data-name="Path 13469" d="M885.261,385.713s-.428,4.814,0,5.239,1.748,6.486,1.748,6.486,13.109-13.688,12.115-13.7-2.477-.859-4.823,0a12.423,12.423,0,0,1-5.338.662C888.128,384.318,885.261,385.713,885.261,385.713Z" transform="translate(-261.33 -76.05)" fill="#ffd29c"/>
    <path id="Path_13470" data-name="Path 13470" d="M809.675,369.085s1.051-6.866,4.625-4.447,1.485,7.637,1.485,7.637l-1.166-.478s1.34-5.185-.356-6.054c-3.342-1.712-4.03,3.925-4.03,3.925Z" transform="translate(-209.984 -62.953)" fill="#211e21"/>
    <path id="Path_13471" data-name="Path 13471" d="M1179.057,578.067s-4.36-11.283-13.5-11.269-8.187-4.8-9.357-3.785-4.153,5.341-5.426,6.052.96,8.864,5.638,12.07-13.822,9.586-15.1-6.15c0,0-4.147-3.509-2.658,4.359s9.148,16.48,14.409,17.225c0,0-.268,4.33,3.879,4.5s9.144-1.25,8.825-3.515l-.319-2.265S1182.035,594.971,1179.057,578.067Z" transform="translate(-433.807 -198.308)" fill="#ffd29c"/>
    <path id="Path_13472" data-name="Path 13472" d="M1211.52,570.011s1.466-3.315,3.486-4.059,5.635-.957,10.526.532,1.808,1.489.425,1.808,1.07,3.19,2.236,4.253,7.014,2.765,10.31,6.592,6.061,6.524,3.615,5.335-3.19-2.817-3.3-1.631-1.595,1.08,2.233,5.014,7.337,7.921,7.017,9.7-5.1-6.082-7.017-6.616-9.888,2.176-9.25,4.808,14.992,9.818,14.779,11.594-14.46-5.985-15.949-6.2-5.1,2.233-5,3.828-.744,5.316-1.7,5.635-.877-1.169-4.107-2.764a25.1,25.1,0,0,0-6.951-2.407c-2.126-.464-6.774-5.477-6.774-5.477l-.165-2.4s-6.777.718-7.2.611-1.063-1.382-1.063-1.382,6.7-.48,7.443-1.037,6.06-2.9,7.655-5.555,3.084-6.562,4.04-7.587-2.233-2.832-2.339-3.9.851-1.382.532-2.339S1210.415,571.932,1211.52,570.011Z" transform="translate(-474.222 -200.013)" fill="#842100"/>
    <path id="Path_13473" data-name="Path 13473" d="M976.695,761.312s-28.72,3.911-31.358,4.762-14.759,15.1-15.61,16.587-2.339,10.845-2.339,10.845l-6.379-1.914s16.092-25.336,19.351-28.348,16.81-5.307,16.81-5.307a33.526,33.526,0,0,0,2.328-3.877C959.751,753.248,976.695,761.312,976.695,761.312Z" transform="translate(-285.804 -328.473)" fill="#3a343a"/>
    <path id="Path_13474" data-name="Path 13474" d="M1222.675,588.342s3.1-2.106,4.418.958c1.124,2.617-3.262,3.7-3.262,3.7h-.519s3.71-1.4,3.07-3.473-3.708-.678-3.708-.678Z" transform="translate(-491.248 -215.173)" fill="#211e21"/>
    <path id="Path_13475" data-name="Path 13475" d="M1182.267,812.608s24.242-4.532,42.742,3.123,34.609,22.328,35.725,23.923-9.41-3.031-9.41-3.031,10.1,5.9,8.242,5.9-10.794-2.392-10.794-2.392,9.006,4.625,5.061,4.625-21.333-4.142-21.333-4.142,15.315,8.847,12.444,8.408-31.1-9.37-31.1-9.37,7.177,4.626,3.509,3.589-19.231-8.78-34.814-25c0,0-11.969,3.552-10.985,1.638a10.406,10.406,0,0,1,1.828-2.7s-5.825,1.131-3.734,0,2.758-.789,2.758-.789-3.645.615-2.076-.821a7.718,7.718,0,0,1,3.75-1.723s-5.113-8.006-2.291-6.89,3.14,2.315,3.14,2.315-3.349-7.106,0-5.109,3.987,3.788,3.987,3.788-1.595-3.735.319-2.125S1182.267,812.608,1182.267,812.608Z" transform="translate(-454.827 -362.394)" fill="#ff900b"/>
    <path id="Path_13476" data-name="Path 13476" d="M759.965,666.292s-9.074,3.58-10.563,5.387-3.509,5.487-3.4,5.88,2.06,1.164,2.06,1.164.173,1.7.811,1.581,2.127-.416,2.127-.416-.213,1.679.531,1.679h.745s-.451,1.4.708,1.548a17.258,17.258,0,0,0,2.907,0l9.463-12.327Z" transform="translate(-166.616 -268.74)" fill="#ffd29c"/>
    <path id="Path_13477" data-name="Path 13477" d="M895.407,387.181s-4.147,1.475-4.7,3.429-.4,5.488.279,5.894,5.5-6.133,5.781-6.691a11.4,11.4,0,0,0,.359-2.632Z" transform="translate(-264.935 -78.658)" fill="#e8bb89"/>
    <path id="Path_13478" data-name="Path 13478" d="M910.237,402.556a19.261,19.261,0,0,0,4.831,3.748c2.944,1.595,11.118,4.2,13.789,4.213s8.931.89,12.28.651a27,27,0,0,1,7.336.8s-11-.279-12.958-.239-12.639-.439-14.354-1-8.812-2.592-10.925-2.911a16.1,16.1,0,0,1-4.889-2.1l.885-.951s3.047,1.1,4.762,1.933a47.362,47.362,0,0,0,6.14,1.994,25.341,25.341,0,0,0,2.512.638s-7.1-4.067-7.815-4.785A17.7,17.7,0,0,1,910.237,402.556Z" transform="translate(-275.14 -89.128)" fill="#d3d3d3"/>
    <path id="Path_13479" data-name="Path 13479" d="M887.352,421.563a21.8,21.8,0,0,0,3.586,5.1c1.794,1.595,6.95,3.11,8.858,3.27s10.64.877,13.79-.319a23.929,23.929,0,0,1,7.855-1.156c.359.04-3.429-.319-4.505-.478s-4.027-.2-6.3-.239a57.7,57.7,0,0,1-7.895-1.116c-.558-.16,5.542.518,6.978.4s7.855-.359,9.689-.279a87.086,87.086,0,0,0,9.29.4c2.99-.2,5.462-.319,7.177-1.037s5.622-1.754,5.622-1.754a60.309,60.309,0,0,1-6.977-.08c-1.356-.279-3.748-1.276-5.383-1.515s-3.708-.359-3.708-.359,4.466-.6,5.542-.04a19.867,19.867,0,0,0,6.34,1.2c2.273.08,4.7.279,5.781.239s-.8,1-1,1.116-8.214,2.951-10.845,3.03a99.2,99.2,0,0,0-15.862,3.23c-2.519.957-12.806,4.187-14.72,4.545s-11.12,3.11-13.315,1.4-4.428-7.364-4.428-7.364,3.828,7.085,7.417,7.045a49.2,49.2,0,0,0,13.118-2.671c3.349-1.236,4.944-1.874,4.944-1.874s-5.7-.6-7.536-.8-9.219-1.236-10.79-2.113a13.033,13.033,0,0,1-3.444-2.814c-.239-.415-1.085-3.06-1.085-3.06l.766-.7a18.56,18.56,0,0,0,1,2.392,12.222,12.222,0,0,0,3.19,2.512,40.609,40.609,0,0,0,5.3,2.552s-5.2-2.552-7.127-4.864-1.885-3.193-1.885-3.193Z" transform="translate(-259.868 -102.073)" fill="#d3d3d3"/>
    <path id="Path_13480" data-name="Path 13480" d="M923.451,391.12l10.6,5.632s6.14,1.461,8.134,1.927a15.21,15.21,0,0,0,3.907.346s-8.533-2.431-12.041-3.787a52.916,52.916,0,0,1-8.23-4.544l-1.808-.231Z" transform="translate(-287.468 -80.892)" fill="#d3d3d3"/>
    <path id="Path_13481" data-name="Path 13481" d="M867.6,502.8s-6.55,14-6.71,14.4a32.587,32.587,0,0,1-2.127,2.711l-1.52-6.778.855-6.7,3.933.155Z" transform="translate(-242.379 -157.397)" fill="#7f0a89"/>
    <path id="Path_13482" data-name="Path 13482" d="M810.531,518.327s10.888-16.77,13.846-14.547-12.131,28.034-12.131,28.034l-9.79,12.067s-5.434,16.625-5.5,18.5a53.054,53.054,0,0,0,.737,6.694s-7.951-6.832-10.325-13.382C787.366,555.693,803.535,525.548,810.531,518.327Z" transform="translate(-194.791 -157.926)" fill="#a50baa"/>
    <path id="Path_13483" data-name="Path 13483" d="M864.675,502.722s2.373-6.96,5.054-9.182,6.668-2.86,9.778-2.86,11.324,1.754,15.151,2.233-2.153,1.276-6.459,1.276-13.317-.8-14.035-.8S864.834,502.244,864.675,502.722Z" transform="translate(-247.44 -149.144)" fill="#a50baa"/>
    <path id="Path_13484" data-name="Path 13484" d="M861.44,504.532s-1.515-3.19-1.515-4.545a58.9,58.9,0,0,1,1.267-6.648s2.405,4.361,2.636,5.173-.933,4.355-.933,4.355Z" transform="translate(-244.205 -150.954)" fill="#a50baa"/>
    <path id="Path_13485" data-name="Path 13485" d="M943.675,641.374s7.576-.449,8.852-.449,3.3-.25,3.3-.25S949.337,636.321,943.675,641.374Z" transform="translate(-301.241 -250.106)" fill="#7f0a89"/>
    <path id="Path_13486" data-name="Path 13486" d="M955.541,646.812s-7.659,4.193-8.7,4.751-2.613,1.276-2.613,1.276,8.453-1.276,9.361-1.675,2.612-4.575,2.612-4.575Z" transform="translate(-301.621 -255.321)" fill="#7f0a89"/>
    <path id="Path_13487" data-name="Path 13487" d="M983.983,659.867s-.558,7.177-.558,7.735a68.9,68.9,0,0,0,1.754-7.735c0-.8-1.276-.4-1.276-.4Z" transform="translate(-328.312 -264.025)" fill="#7f0a89"/>
    <path id="Path_13488" data-name="Path 13488" d="M864.649,525.868a53.118,53.118,0,0,1,0,6.379c-.239,2.153,3.2,23.606,3.2,23.606s8.915,15.892,18.25,22.259,24.594,15.947,33.528,18.741l8.934,2.794s-24.514-10.623-33.286-16.684-22.727-18.58-26.315-27.113c0,0-4.439-26.509-3.455-30.6Z" transform="translate(-247.415 -172.688)" fill="#a50baa"/>
    <path id="Path_13489" data-name="Path 13489" d="M790.008,292.217s1.808,7.241,12.015,11.029,21.584,5.006,31.791,6.417,21.231-1.672,28.956,1.2l7.726,2.871s-7.549-6.8-15.736-9.463-11.483-3.332-11.483-3.332,5.21-1.453,7.655-3.154,10.1-10.845,21.265-11.8,10.1.85,16.8,1.7,12.759.319,17.65.106,19-1.88,14.035-3.828-12.653-1.169-21.371-4.785-13.681-8.66-33.581-7.254-25.429,1.832-29.044,1.3a31.746,31.746,0,0,0-14.288,1.169c-5.808,1.808-17.969,15.736-17.969,15.736l-1.766-1.595s-4.785-3.3-6.592-2.552S790.008,292.217,790.008,292.217Z" transform="translate(-196.59 0)" fill="#a50baa"/>
    <path id="Path_13490" data-name="Path 13490" d="M774.036,301.155c-7.868-.531-10.124,16.676-10.124,16.676l-.792.951,3.89,2.435,3.9-8.94s5.84,3.012,7.764,2.453c.893-.259.438-.912-.305-1.536a4.545,4.545,0,0,0,2.774.614c2.1-.4-3.069-4.32-3.069-4.32s4.678,3.576,6.592,3.47-2.233-4.466-2.233-4.466,2.233,1.808,3.68,1.7S781.9,301.687,774.036,301.155Z" transform="translate(-178.279 -20.064)" fill="#ffd29c"/>
    <path id="Path_13491" data-name="Path 13491" d="M896.185,352.454h-11.4c-3.748,0-16.507-4.829-17.3-5.883s3.668,2.507,9.33,2.72S889.247,348.308,896.185,352.454Z" transform="translate(-249.286 -50.869)" fill="#940a9b"/>
    <path id="Path_13492" data-name="Path 13492" d="M1003.925,310.4s1.914-6.756,6.619-8.43,10.686-2.5,10.287-1.607S1007.129,307.328,1003.925,310.4Z" transform="translate(-342.273 -19.288)" fill="#940a9b"/>
    <path id="Path_13493" data-name="Path 13493" d="M897.675,307.774s7.815-3.389,11.563-3.15,12.121-1.515,11.244-.558-12.72,6.7-12.72,6.7Z" transform="translate(-269.914 -21.858)" fill="#940a9b"/>
    <path id="Path_13494" data-name="Path 13494" d="M874.062,329.381s-12.227-7.141-21.9-8.231-16.946-2.579-16.946-2.579l4.623-4.988s26.039-1.392,30.612,4.669a52.485,52.485,0,0,0,8.787,9.3Z" transform="translate(-227.376 -28.442)" fill="#2d2d2d"/>
    <ellipse id="Ellipse_1799" data-name="Ellipse 1799" cx="3.258" cy="2.797" rx="3.258" ry="2.797" transform="translate(597.63 309.156)" fill="#fc7caa"/>
    <ellipse id="Ellipse_1800" data-name="Ellipse 1800" cx="2.797" cy="3.258" rx="2.797" ry="3.258" transform="translate(722.842 377.638) rotate(-39.136)" fill="#fc7caa"/>
    <g id="Group_3832" data-name="Group 3832" transform="translate(671.399 400.661)">
      <path id="Path_13495" data-name="Path 13495" d="M1070.109,692.1s9.611,10.34,13.477,12.358c.335-.981.031-1.218.844-2.128,1.063-1.188,21.349-19.835,21.349-19.835-.979-2.843-15.927-6.454-15.927-6.454s-8.08,7.382-9.994,9.4c-.886.935-5.232,3.782-9.75,6.656Z" transform="translate(-1058.745 -676.037)" fill="#15b771"/>
      <path id="Path_13496" data-name="Path 13496" d="M1045.25,752.357c-.643-.382-9.436-3.018-10.692-3.477-1.049.861,9.023,8.389,11.468,10.178s7.975,1.507,9.569,2.358,3.3-.212,3.19-1.008c-.038-.284-.2-.766-.334-1.36l-12-6.218Z" transform="translate(-1034.482 -725.645)" fill="#15b771"/>
    </g>
    <path id="Path_13497" data-name="Path 13497" d="M1129.58,661.825s2.226-2.977,3.08-2.977,6.81,2.407,7.765,4.253,3.19,5.394,6.805,5.993,9.463-.3,10.526,1.906,1.169,5.771,0,5.954-11.26-5.631-12.491-5.954-17.918-5.347-18.343-5.879S1129.58,661.825,1129.58,661.825Z" transform="translate(-426.01 -263.67)" fill="#bec628"/>
    <path id="Path_13498" data-name="Path 13498" d="M1245.261,579.656s1.994-2.723,3.828-2.484,3.907.449,4.386-.015-.9.732-1.449.812-4.213,1.618-4.452,1.686,3.748.361,5.343,1.211a47.436,47.436,0,0,1,8.851,6.246c2.632,2.578,5.423,5.688,7.336,6.8s-.479,1.116-2.073,0-8.911-8.214-11.952-9.729-5.831-2.552-7.107-2.552-3.022-.1-3.022-.1Z" transform="translate(-506.418 -207.964)" fill="#6b1d08"/>
    <path id="Path_13499" data-name="Path 13499" d="M1256.253,604.772s.718-.279,2.791,1.556,2.472,3.589,4.7,5.9,6.858,4.147,6.858,4.147-3.269.4-4.864-.4-6.539-6.682-6.858-7.089a18.782,18.782,0,0,0-2.631-1.683s3.21,6.459,3.917,8.373,6.609,8.054,6.609,8.054-5.981-5.143-7.5-7.157a49.355,49.355,0,0,1-3.828-5.859,16.8,16.8,0,0,0-1.432-2.3l2.309,2.19a23.064,23.064,0,0,0-2.309-3.38,13.484,13.484,0,0,1-1.6-1.893,11.168,11.168,0,0,1,4.692,1.494l1.848,1.276A5.526,5.526,0,0,0,1256.253,604.772Z" transform="translate(-511.508 -226.833)" fill="#6b1d08"/>
    <path id="Path_13500" data-name="Path 13500" d="M1251.082,639s-.08,1.754,2.95,3.987,9.091,4.055,10.207,4.659,6.459,3.816,6.459,3.816l-9.809-4.248s-4.944-1.276-6.858-2.632-6.937-4.067-7.895-4.944a5.2,5.2,0,0,1-1.188-1.385s4.378,2.182,5.973,3.219l1.595,1.037a19.6,19.6,0,0,1-3.509-4.785,30.617,30.617,0,0,1-1.276-3.377Z" transform="translate(-506.418 -246.982)" fill="#6b1d08"/>
    <path id="Path_13501" data-name="Path 13501" d="M1233.649,661.606a18.344,18.344,0,0,0,5.024,3.463c2.631,1.083,6.15,2.917,6.15,2.917l-4.236-.4-10.7-7.655Z" transform="translate(-496.161 -264.408)" fill="#6b1d08"/>
    <path id="Path_13502" data-name="Path 13502" d="M1114.925,699.765s.16,2.674,1.356,3.809a28.722,28.722,0,0,0,3.612,3.288c.614.239.662-.558,0-1.356s-2.711-2.632-2.484-2.951,7.4-.369,8.839-.753a5.219,5.219,0,0,0,1.994-.878l-13.317-2.994Z" transform="translate(-417.867 -290.287)" fill="#169b5e"/>
    <path id="Path_13503" data-name="Path 13503" d="M1092.175,724.783v4.263s2.711,4.271,3.19,4.648.8-1.634.8-1.634l-3.987-7.878Z" transform="translate(-402.374 -308.164)" fill="#169b5e"/>
    <path id="Path_13504" data-name="Path 13504" d="M986.428,644.881s-2.847-3.126-4.078-2.661-3.891.13-3.893,1.584-1.293,3.691,0,4.365,9.247,1.174,9.247,1.174Z" transform="translate(-324.537 -252.314)" fill="#ffd29c"/>
    <path id="Path_13505" data-name="Path 13505" d="M1054.711,665.96s3.459-2.207-.236-4.049-44.8-11.675-47.525-12.383-8.8-2.939-8.8-2.939-1.267,4.795-.744,6.276,11.524,3.588,18.627,5.237S1052.049,669.831,1054.711,665.96Z" transform="translate(-337.747 -255.321)" fill="#2ece85"/>
    <path id="Path_13506" data-name="Path 13506" d="M1201,670.53s1.037-1.236.4-1.754-7.749-.608-7.921.553-1.13,2.2.7,2.477,4.426-.052,5.1-.963,1.156-1.514,1.156-1.514l.2.4a8.258,8.258,0,0,1-1.794,2.17A7.43,7.43,0,0,0,1201,670.53Z" transform="translate(-471.091 -270.182)" fill="#e8bb89"/>
    <path id="Path_13507" data-name="Path 13507" d="M1135.8,670.108a6.663,6.663,0,0,1,2.99.354c1.01.55,3.3,2.57,3.987,2.889s1.223,1.7-.319.744-4.211-2.794-5.242-2.806S1135.8,670.108,1135.8,670.108Z" transform="translate(-432.084 -271.316)" fill="#a0a01d"/>
    <path id="Path_13508" data-name="Path 13508" d="M1193.441,824.5s-2.552-6.8-2.552-5.848a46.833,46.833,0,0,0,1.648,5.848s-6.06-5.9-5.529-4.572,3.881,4.572,3.881,4.572-4.519-1.276-3.562-.744,3.562,1.595,3.562,1.595-5.954.585-5.316.957,6.326.479,6.326.479-4.519,1.542-2.977,1.489a15.555,15.555,0,0,0,3.668-.8Z" transform="translate(-465.948 -372.438)" fill="#e27d0e"/>
    <path id="Path_13509" data-name="Path 13509" d="M1214.341,833.786s32.961-.41,55.289,13.052c1.116.673,15.63,8.444,14.673,8.338s-22.966-12.753-36.151-15.414-19.457-2.661-19.457-2.661,27.775,7.779,32.867,9.737a76.574,76.574,0,0,1,9.663,4.617s-47.1-14.67-50.823-15.469-6.061-1.437-6.061-1.437Z" transform="translate(-485.572 -382.807)" fill="#e27d0e"/>
    <path id="Path_13510" data-name="Path 13510" d="M1211.739,840.686s23.477,8.575,30.813,10.852,22.594,7.381,22.594,7.381L1223.1,846.692s16.267,9.463,21.69,12.227,15.949,8.719,15.949,8.719-32-14.992-38.383-19.457a95.391,95.391,0,0,0-10.612-6.592Z" transform="translate(-483.8 -387.507)" fill="#e27d0e"/>
    <path id="Path_13511" data-name="Path 13511" d="M1211.739,847.515a146.225,146.225,0,0,0,18.48,12.865c8.825,4.891,20.2,9.675,20.2,9.675Z" transform="translate(-483.8 -392.158)" fill="#e27d0e"/>
    <path id="Path_13512" data-name="Path 13512" d="M1207.676,829.268s-1.382,6.519-.953,6.4l.43-.121s.219.456.523.441.594-.458.594-.458-.194.932.3.868,1.781-7.141,1.165-7.05-1.281.2-1.281.2-.256-.694-.416-.694S1207.676,829.268,1207.676,829.268Z" transform="translate(-480.328 -379.445)" fill="#282528"/>
  </g>
</svg>
