<svg xmlns="http://www.w3.org/2000/svg" xmlns:xlink="http://www.w3.org/1999/xlink" width="495.6" height="619" viewBox="0 0 495.6 619">
  <defs>
    <filter id="Ellipse_2245" x="0" y="0" width="495.6" height="495.6" filterUnits="userSpaceOnUse">
      <feOffset dy="3" input="SourceAlpha"/>
      <feGaussianBlur stdDeviation="3" result="blur"/>
      <feFlood flood-opacity="0.161"/>
      <feComposite operator="in" in2="blur"/>
      <feComposite in="SourceGraphic"/>
    </filter>
  </defs>
  <g id="Group_7024" data-name="Group 7024" transform="translate(-98 -28961)">
    <g id="Group_7016" data-name="Group 7016" transform="translate(-119 -119.027)">
      <g id="Social_Marketing" data-name="Social Marketing" transform="translate(226 29086.027)">
        <g id="Group_6648" data-name="Group 6648">
          <g id="Group_6646" data-name="Group 6646">
            <g transform="matrix(1, 0, 0, 1, -9, -6)" filter="url(#Ellipse_2245)">
              <circle id="Ellipse_2245-2" data-name="Ellipse 2245" cx="238.8" cy="238.8" r="238.8" transform="translate(9 6)" fill="#382b73"/>
            </g>
          </g>
          <g id="Group_6647" data-name="Group 6647" transform="translate(32.202 32.202)">
            <circle id="Ellipse_2246" data-name="Ellipse 2246" cx="206.598" cy="206.598" r="206.598" fill="#473080"/>
          </g>
        </g>
        <path id="Path_18510" data-name="Path 18510" d="M313.567,59.283H157.017a11.645,11.645,0,0,0-11.644,11.644V80.963H113.979a6.075,6.075,0,0,0-6.074,6.076v50.826a6.075,6.075,0,0,0,6.074,6.076h4.748l5.262,7.152a5.162,5.162,0,0,0,8.316,0l5.262-7.152h7.806v8h0v27.952q-1.14.273-2.338.494c-1.564.284-3.216.5-4.986.642s-3.664.216-5.712.216l-28.09.012h0l-34.326.016a10.135,10.135,0,0,0-10.132,10.142v0h0v.14l0,5.816h0l-9.472,0a4.054,4.054,0,0,0-4.054,4.056h0v.006l.008,18.09a4.056,4.056,0,0,0,4.056,4.054l9.472,0,0,5.584v.372c0,.064.018.124.02.188a10.107,10.107,0,0,0,8.08,9.74,10.263,10.263,0,0,0,2.042.206l7.408,0,2.418,16.008.99.83,6.11,5.122,1.358,9.648.512,3.634a10.625,10.625,0,0,0,3.286,6.118c.03.026.054.06.084.088A10.088,10.088,0,0,0,108.7,272.1l-.094-.664-4.472-31.784h.134l28.09-.012a55.325,55.325,0,0,1,13.01,1.334v8.032h0v26.7a42.315,42.315,0,0,0-24.118,19.268c-.654,1.132-1.228,2.288-1.768,3.454-.142.308-.278.616-.412.926-.448,1.03-.858,2.07-1.218,3.12-.052.154-.116.306-.168.46-.392,1.184-.716,2.378-1,3.578-.072.31-.136.62-.2.932-.212,1-.39,2.012-.528,3.024-.032.24-.076.48-.106.72-.144,1.2-.23,2.41-.27,3.616-.01.286-.006.572-.01.858-.006.5-.028,1-.016,1.5V324.3a42.488,42.488,0,0,0,75.846,25.658H313.565A11.636,11.636,0,0,0,325.2,338.317V70.919A11.633,11.633,0,0,0,313.567,59.283ZM59.8,219.491l-.008-20.2h0l.006,12.132h0l0,8.064Z" transform="translate(29.065 42.083)" fill="#382b73"/>
        <g id="Group_6694" data-name="Group 6694" transform="translate(75.33 87.366)">
          <g id="Group_6693" data-name="Group 6693">
            <g id="Group_6650" data-name="Group 6650" transform="translate(99.108)">
              <g id="Group_6649" data-name="Group 6649">
                <path id="Path_18511" data-name="Path 18511" d="M95.819,331.305V63.927a11.645,11.645,0,0,1,11.644-11.644h156.55a11.636,11.636,0,0,1,11.636,11.636V331.313a11.636,11.636,0,0,1-11.636,11.636H107.463A11.644,11.644,0,0,1,95.819,331.305Z" transform="translate(-95.819 -52.283)" fill="#fff"/>
                <path id="Path_18512" data-name="Path 18512" d="M99.57,326.109V61.163a4.9,4.9,0,0,1,4.9-4.9H259.5a4.9,4.9,0,0,1,4.9,4.9V326.111a4.9,4.9,0,0,1-4.9,4.9H104.47A4.9,4.9,0,0,1,99.57,326.109Z" transform="translate(-92.068 -48.303)" fill="#1caee4"/>
                <path id="Path_18513" data-name="Path 18513" d="M99.57,181.115v20.144a4.9,4.9,0,0,0,4.9,4.9H259.5a4.9,4.9,0,0,0,4.9-4.9V181.115Z" transform="translate(-92.068 76.549)" fill="#009add"/>
              </g>
            </g>
            <g id="Group_6651" data-name="Group 6651" transform="translate(184.162 27.132)">
              <path id="Path_18514" data-name="Path 18514" d="M177.012,153.385a38.661,38.661,0,0,0-27.548,65.792c.488.488.976.976,1.48,1.414a39.224,39.224,0,0,0,6.484,4.812c.016,0,.016.016.032,0a33.3,33.3,0,0,0,3.934,2.016c.212.114.422.194.634.292h.016a37.244,37.244,0,0,0,5.786,1.9c.424.114.846.212,1.252.292a39.067,39.067,0,0,0,4.99.7c.976.08,1.95.114,2.942.114s1.966-.032,2.942-.114a39.066,39.066,0,0,0,4.99-.7h.016c.406-.1.828-.18,1.236-.292a37.173,37.173,0,0,0,5.786-1.9H192c.212-.1.422-.178.634-.292a34.752,34.752,0,0,0,3.95-2.016l.016-.016a38.335,38.335,0,0,0,6.486-4.794c.5-.456,1.008-.926,1.48-1.43a38.652,38.652,0,0,0-27.554-65.778Z" transform="translate(-138.346 21.687)" fill="#009add"/>
              <path id="Path_18515" data-name="Path 18515" d="M177.012,109.616a38.661,38.661,0,0,0-27.548,65.792c.488.488.976.976,1.48,1.414a39.224,39.224,0,0,0,6.484,4.812c.016,0,.016.016.032,0a33.3,33.3,0,0,0,3.934,2.016c.212.114.422.194.634.292h.016a37.244,37.244,0,0,0,5.786,1.9c.424.114.846.212,1.252.292a38.714,38.714,0,0,0,4.99.7c.976.082,1.95.114,2.942.114s1.966-.032,2.942-.114a38.713,38.713,0,0,0,4.99-.7h.016c.406-.1.828-.178,1.236-.292a37.173,37.173,0,0,0,5.786-1.9H192c.212-.1.422-.178.634-.292a34.752,34.752,0,0,0,3.95-2.016l.016-.016a38.239,38.239,0,0,0,6.486-4.8c.5-.454,1.008-.926,1.48-1.43a38.65,38.65,0,0,0-27.554-65.776Z" transform="translate(-138.346 -22.082)" fill="#009add"/>
              <path id="Path_18516" data-name="Path 18516" d="M150.941,133.053a39.222,39.222,0,0,0,6.484,4.812c.016,0,.016.016.032,0a33.307,33.307,0,0,0,3.934,2.016c.212.114.422.2.634.292h.016a37.244,37.244,0,0,0,5.786,1.9c.424.114.846.212,1.252.292a38.712,38.712,0,0,0,4.99.7c.976.082,1.95.114,2.942.114s1.966-.032,2.942-.114a39.066,39.066,0,0,0,4.99-.7h.016c.406-.1.828-.178,1.236-.292a37.176,37.176,0,0,0,5.786-1.9H192c.212-.1.422-.178.634-.292a34.748,34.748,0,0,0,3.95-2.016l.016-.016a38.335,38.335,0,0,0,6.486-4.794c.5-.456,1.008-.926,1.48-1.43a38.658,38.658,0,1,0-55.1.016C149.949,132.127,150.437,132.615,150.941,133.053Z" transform="translate(-138.343 -65.849)" fill="#009add"/>
            </g>
            <g id="Group_6676" data-name="Group 6676" transform="translate(184.16 19.13)">
              <g id="Group_6659" data-name="Group 6659" transform="translate(0 175.074)">
                <path id="Path_18517" data-name="Path 18517" d="M215.681,188.051a38.417,38.417,0,0,1-11.118,27.11c-.472.5-.976.976-1.48,1.43a38.134,38.134,0,0,1-6.484,4.794l-.016.016a34.752,34.752,0,0,1-3.95,2.016c-.212.114-.422.194-.634.292h-.016a37.175,37.175,0,0,1-5.786,1.9c-.406.114-.828.2-1.236.292h-.016a38.712,38.712,0,0,1-4.99.7c-.976.082-1.95.114-2.942.114s-1.966-.032-2.942-.114a39.066,39.066,0,0,1-4.99-.7c-.406-.082-.83-.178-1.252-.292a37.1,37.1,0,0,1-5.786-1.9h-.016c-.212-.1-.422-.178-.634-.292a33.461,33.461,0,0,1-3.934-2.016c-.016.016-.016,0-.032,0a39.31,39.31,0,0,1-6.486-4.81c-.5-.438-.992-.926-1.478-1.414a38.665,38.665,0,1,1,66.218-27.126Z" transform="translate(-138.345 -149.385)" fill="#136da0"/>
                <g id="Group_6658" data-name="Group 6658" transform="translate(11.12 15.514)">
                  <g id="Group_6657" data-name="Group 6657">
                    <g id="Group_6656" data-name="Group 6656">
                      <path id="Path_18518" data-name="Path 18518" d="M185.741,179.436l-.91-.422h-.016L184.8,179H158.111l-14.206,6.566c.488.488.976.976,1.478,1.414a39.033,39.033,0,0,0,6.486,4.81c.016,0,.016.016.032,0a33.3,33.3,0,0,0,3.934,2.016c.212.114.422.194.634.292h.016a37.106,37.106,0,0,0,5.786,1.9c.422.114.846.212,1.252.292a38.712,38.712,0,0,0,4.99.7c.976.082,1.95.114,2.942.114s1.966-.032,2.942-.114a39.066,39.066,0,0,0,4.99-.7h.016c.406-.1.83-.178,1.236-.292a37.1,37.1,0,0,0,5.786-1.9h.016c.212-.1.422-.178.634-.292a34.752,34.752,0,0,0,3.95-2.016l.016-.016a38.24,38.24,0,0,0,6.484-4.794c.5-.456,1.008-.926,1.48-1.43Z" transform="translate(-143.905 -135.286)" fill="#d1d3d4"/>
                      <rect id="Rectangle_1242" data-name="Rectangle 1242" width="21.514" height="19.574" transform="translate(16.792 31.656)" fill="#e7ad27"/>
                      <path id="Path_18519" data-name="Path 18519" d="M159.151,191.976c-.992,0-1.966-.032-2.942-.114l.324-3.12.212-1.918.292-2.7h4.226l.292,2.7.212,1.918.326,3.12C161.117,191.944,160.141,191.976,159.151,191.976Z" transform="translate(-131.601 -130.158)" fill="#009add"/>
                      <path id="Path_18520" data-name="Path 18520" d="M161.1,184.123h-4.232l-.492,4.622.114.114a3.526,3.526,0,0,0,4.988,0l.114-.114Z" transform="translate(-131.435 -130.161)" fill="#136da0"/>
                      <path id="Path_18521" data-name="Path 18521" d="M165.457,187.18l-2.622,2.622a3.526,3.526,0,0,1-4.988,0l-2.622-2.622a.7.7,0,0,1,0-1l5.116-5.116,5.116,5.116A.7.7,0,0,1,165.457,187.18Z" transform="translate(-132.793 -133.218)" fill="#1caee4"/>
                      <path id="Path_18522" data-name="Path 18522" d="M167.992,179.436l-.91-.422h-.016L167.05,179l-.438,1.4-.228.716-.358,1.17-4.372,14.01c.406-.1.83-.18,1.236-.292a37.173,37.173,0,0,0,5.786-1.9h.016c.212-.1.422-.178.634-.292a34.752,34.752,0,0,0,3.95-2.016l.016-.016a38.335,38.335,0,0,0,6.486-4.794c.5-.456,1.008-.926,1.48-1.43Z" transform="translate(-126.156 -135.286)" fill="#ef5a9d"/>
                      <path id="Path_18523" data-name="Path 18523" d="M163.523,196.291c-.406-.082-.83-.178-1.252-.292a37.1,37.1,0,0,1-5.786-1.9h-.016c-.212-.1-.422-.178-.634-.292a33.461,33.461,0,0,1-3.934-2.016c-.016.016-.016,0-.032,0a39.31,39.31,0,0,1-6.486-4.81c-.5-.438-.992-.926-1.478-1.414L158.111,179l.438,1.4.228.714.39,1.268Z" transform="translate(-143.905 -135.285)" fill="#ef5a9d"/>
                      <path id="Path_18524" data-name="Path 18524" d="M158.776,181.11h-.666l-.422.194-.894.424-.032.016-11.378,5.234c-.5-.438-.992-.926-1.478-1.414L158.112,179l.438,1.4Z" transform="translate(-143.904 -135.286)" fill="#f06ea9"/>
                      <path id="Path_18525" data-name="Path 18525" d="M165.628,179.436l13.262,6.112c-.472.5-.976.976-1.48,1.43l-11.378-5.234-.016-.016-.91-.424-.422-.194h-.666l.228-.714.438-1.4.016.016h.016Z" transform="translate(-123.792 -135.286)" fill="#f06ea9"/>
                      <g id="Group_6652" data-name="Group 6652" transform="translate(14.206 41.972)">
                        <path id="Path_18526" data-name="Path 18526" d="M164.35,184l-8.592,10.964-4.75-15.1,1.786-1.434a1.409,1.409,0,0,1,1.582-.124Z" transform="translate(-151.008 -178.128)" fill="#e6e7e8"/>
                      </g>
                      <g id="Group_6653" data-name="Group 6653" transform="translate(27.554 41.973)">
                        <path id="Path_18527" data-name="Path 18527" d="M157.682,184l8.592,10.964,4.744-15.1-1.782-1.432a1.41,1.41,0,0,0-1.582-.126Z" transform="translate(-157.682 -178.128)" fill="#e6e7e8"/>
                      </g>
                      <path id="Path_18528" data-name="Path 18528" d="M167.654,180.056a1.406,1.406,0,0,1,1.582.126l1.344,1.08.438-1.39-1.782-1.432a1.41,1.41,0,0,0-1.582-.126L157.682,184l.944,1.2Z" transform="translate(-130.128 -136.156)" fill="#fff"/>
                      <path id="Path_18529" data-name="Path 18529" d="M154.374,180.056a1.406,1.406,0,0,0-1.582.126l-1.344,1.08-.438-1.39,1.782-1.432a1.41,1.41,0,0,1,1.582-.126l9.972,5.69-.944,1.2Z" transform="translate(-136.8 -136.156)" fill="#fff"/>
                      <ellipse id="Ellipse_2247" data-name="Ellipse 2247" cx="4.674" cy="6.004" rx="4.674" ry="6.004" transform="translate(4.622 17.025) rotate(-10.247)" fill="#f7cb15"/>
                      <ellipse id="Ellipse_2248" data-name="Ellipse 2248" cx="6.004" cy="4.674" rx="6.004" ry="4.674" transform="translate(39.392 27.176) rotate(-79.753)" fill="#f7cb15"/>
                      <path id="Path_18530" data-name="Path 18530" d="M150.326,166.277c2.54-.46,5.076,1.814,5.666,5.076a7.446,7.446,0,0,1,.1.876,7.566,7.566,0,0,0-.1-1.886c-.59-3.262-3.126-5.536-5.666-5.076-2.31.418-3.82,2.952-3.632,5.862C146.87,168.663,148.288,166.645,150.326,166.277Z" transform="translate(-141.132 -149.077)" fill="#fff335"/>
                      <path id="Path_18531" data-name="Path 18531" d="M164.182,171.353c.59-3.262,3.126-5.536,5.666-5.076,2.038.368,3.456,2.386,3.632,4.854.188-2.91-1.322-5.444-3.632-5.862-2.54-.46-5.078,1.814-5.666,5.076a7.562,7.562,0,0,0-.1,1.886A7.328,7.328,0,0,1,164.182,171.353Z" transform="translate(-123.75 -149.075)" fill="#fff335"/>
                      <path id="Path_18532" data-name="Path 18532" d="M152.464,172.94c-2.54.46-5.078-1.814-5.666-5.076-.026-.14-.042-.278-.058-.416a7.511,7.511,0,0,0,.058,2.32c.59,3.262,3.126,5.536,5.666,5.076,2.43-.44,3.978-3.224,3.59-6.322C155.75,170.788,154.382,172.592,152.464,172.94Z" transform="translate(-141.134 -146.836)" fill="#e7ad27"/>
                      <path id="Path_18533" data-name="Path 18533" d="M173.378,167.864c-.59,3.262-3.126,5.536-5.666,5.076-1.916-.346-3.286-2.152-3.59-4.418-.388,3.1,1.158,5.882,3.59,6.322,2.54.46,5.076-1.814,5.666-5.076a7.451,7.451,0,0,0,.058-2.32C173.42,167.584,173.4,167.724,173.378,167.864Z" transform="translate(-123.748 -146.836)" fill="#e7ad27"/>
                      <path id="Path_18534" data-name="Path 18534" d="M166.421,157.143c-9.654,0-17.482,7.238-17.482,18.8s7.826,23.07,17.482,23.07,17.482-11.508,17.482-23.07S176.075,157.143,166.421,157.143Z" transform="translate(-138.871 -157.141)" fill="#fede3a"/>
                      <path id="Path_18535" data-name="Path 18535" d="M166.42,187.091c-9.184,0-16.708-10.412-17.42-21.378-.036.544-.06,1.094-.06,1.658,0,11.562,7.826,23.07,17.482,23.07s17.482-11.508,17.482-23.07c0-.564-.024-1.116-.06-1.658C183.126,176.679,175.6,187.091,166.42,187.091Z" transform="translate(-138.87 -148.571)" fill="#f7cb15"/>
                      <path id="Path_18536" data-name="Path 18536" d="M164.488,157.143a16.887,16.887,0,0,0-13.616,6.52,15.877,15.877,0,0,0,27.23,0A16.885,16.885,0,0,0,164.488,157.143Z" transform="translate(-136.938 -157.141)" fill="#1caee4"/>
                      <path id="Path_18537" data-name="Path 18537" d="M164.488,157.143a16.887,16.887,0,0,0-13.616,6.52,15.877,15.877,0,0,0,27.23,0A16.885,16.885,0,0,0,164.488,157.143Z" transform="translate(-136.938 -157.141)" fill="#1caee4"/>
                      <path id="Path_18538" data-name="Path 18538" d="M164.486,167.01a15.854,15.854,0,0,1-13.1-6.918c-.174.2-.346.41-.51.624a15.877,15.877,0,0,0,27.23,0c-.164-.214-.336-.42-.51-.624A15.859,15.859,0,0,1,164.486,167.01Z" transform="translate(-136.938 -154.194)" fill="#009add"/>
                      <path id="Path_18539" data-name="Path 18539" d="M150.324,182.772a.619.619,0,0,0,.608-.726,24.222,24.222,0,0,1-.322-3.9c0-10.458,7.08-17,15.812-17s15.812,6.546,15.812,17a24.221,24.221,0,0,1-.322,3.9.619.619,0,0,0,.608.726h0a.624.624,0,0,0,.608-.474,27.009,27.009,0,0,0,.774-6.356c0-11.562-7.826-18.8-17.482-18.8s-17.482,7.238-17.482,18.8a27.115,27.115,0,0,0,.774,6.356.632.632,0,0,0,.612.474Z" transform="translate(-138.872 -157.142)" fill="#1caee4"/>
                      <g id="Group_6654" data-name="Group 6654" transform="translate(10.774 7.89)">
                        <path id="Path_18540" data-name="Path 18540" d="M163.6,161.087c-.14.17-.282.34-.43.5A17.351,17.351,0,0,1,168,174.2a24.221,24.221,0,0,1-.322,3.9.614.614,0,0,0,.96.612,25.649,25.649,0,0,0,.324-4.014C168.961,168.889,166.9,164.219,163.6,161.087Z" transform="translate(-135.409 -161.087)" fill="#009add"/>
                        <path id="Path_18541" data-name="Path 18541" d="M155.076,161.591c-.148-.164-.29-.334-.43-.5-3.292,3.132-5.354,7.8-5.354,13.612a25.649,25.649,0,0,0,.324,4.014.614.614,0,0,0,.96-.612,23.994,23.994,0,0,1-.322-3.9A17.359,17.359,0,0,1,155.076,161.591Z" transform="translate(-149.292 -161.087)" fill="#009add"/>
                      </g>
                      <g id="Group_6655" data-name="Group 6655" transform="translate(10.068)">
                        <path id="Path_18542" data-name="Path 18542" d="M149.773,168.965a23.719,23.719,0,0,0,.156,2.666.628.628,0,0,0,.168-.53,24.146,24.146,0,0,1-.3-3.016C149.781,168.375,149.773,168.669,149.773,168.965Z" transform="translate(-148.105 -146.199)" fill="#27c1e6"/>
                        <path id="Path_18543" data-name="Path 18543" d="M166.421,158.906c9.358,0,17,6.8,17.46,17.746.006-.236.022-.474.022-.71,0-11.562-7.826-18.8-17.482-18.8s-17.482,7.238-17.482,18.8c0,.236.016.474.022.71C149.421,165.706,157.063,158.906,166.421,158.906Z" transform="translate(-148.939 -157.142)" fill="#27c1e6"/>
                        <path id="Path_18544" data-name="Path 18544" d="M165.733,168.085a24.151,24.151,0,0,1-.3,3.016.62.62,0,0,0,.166.53,23.72,23.72,0,0,0,.156-2.666C165.751,168.669,165.743,168.375,165.733,168.085Z" transform="translate(-132.457 -146.199)" fill="#27c1e6"/>
                      </g>
                    </g>
                    <path id="Path_18545" data-name="Path 18545" d="M158.289,195.283a37.1,37.1,0,0,1-5.786-1.9h-.016c-.212-.1-.422-.178-.634-.292a33.461,33.461,0,0,1-3.934-2.016c-.016.016-.016,0-.032,0l4.892-10.044.65-1.316v.032l.276.846Z" transform="translate(-139.923 -134.571)" fill="#e43d91"/>
                    <path id="Path_18546" data-name="Path 18546" d="M159.525,196.291c-.406-.082-.83-.178-1.252-.292a37.1,37.1,0,0,1-5.786-1.9h-.016c-.212-.1-.422-.178-.634-.292a33.461,33.461,0,0,1-3.934-2.016l4.892-10.06.618-1.268.7-1.462.438,1.4.228.714.39,1.268Z" transform="translate(-139.907 -135.285)" fill="#f06ea9"/>
                    <path id="Path_18547" data-name="Path 18547" d="M167.9,181.257l-.114-.228-.016-.016-.634-1.3-.276.878-4.584,14.694a37.1,37.1,0,0,0,5.786-1.9h.016c.212-.1.422-.178.634-.292a34.752,34.752,0,0,0,3.95-2.016l.016-.016Z" transform="translate(-125.539 -134.571)" fill="#e43d91"/>
                    <path id="Path_18548" data-name="Path 18548" d="M173.275,191.781a34.752,34.752,0,0,1-3.95,2.016c-.212.114-.422.194-.634.292h-.016a37.175,37.175,0,0,1-5.786,1.9c-.406.114-.828.2-1.236.292l4.372-14.01.374-1.17.666-2.1h.016l.666,1.414.634,1.3.016.016.114.228Z" transform="translate(-126.157 -135.277)" fill="#f06ea9"/>
                  </g>
                </g>
              </g>
              <g id="Group_6667" data-name="Group 6667" transform="translate(0 87.536)">
                <path id="Path_18549" data-name="Path 18549" d="M215.681,144.284a38.417,38.417,0,0,1-11.118,27.11c-.472.5-.976.976-1.48,1.43a38.134,38.134,0,0,1-6.484,4.794l-.016.016a34.752,34.752,0,0,1-3.95,2.016c-.212.114-.422.194-.634.292h-.016a37.175,37.175,0,0,1-5.786,1.9c-.406.114-.828.2-1.236.292h-.016a38.712,38.712,0,0,1-4.99.7c-.976.082-1.95.114-2.942.114s-1.966-.032-2.942-.114a39.066,39.066,0,0,1-4.99-.7c-.406-.082-.83-.18-1.252-.292a37.1,37.1,0,0,1-5.786-1.9h-.016c-.212-.1-.422-.178-.634-.292a33.461,33.461,0,0,1-3.934-2.016c-.016.016-.016,0-.032,0a39.208,39.208,0,0,1-6.486-4.812c-.5-.438-.992-.926-1.478-1.414a38.665,38.665,0,1,1,66.218-27.124Z" transform="translate(-138.345 -105.616)" fill="#136da0"/>
                <g id="Group_6666" data-name="Group 6666" transform="translate(11.12 15.516)">
                  <g id="Group_6665" data-name="Group 6665">
                    <g id="Group_6664" data-name="Group 6664">
                      <path id="Path_18550" data-name="Path 18550" d="M185.741,135.668l-.91-.422h-.016l-.016-.016H158.111L143.905,141.8c.488.488.976.976,1.478,1.414a39.157,39.157,0,0,0,6.486,4.812c.016,0,.016.016.032,0a33.3,33.3,0,0,0,3.934,2.016c.212.114.422.194.634.292h.016a37.106,37.106,0,0,0,5.786,1.9c.422.114.846.212,1.252.292a38.712,38.712,0,0,0,4.99.7c.976.082,1.95.114,2.942.114s1.966-.032,2.942-.114a39.066,39.066,0,0,0,4.99-.7h.016c.406-.1.83-.18,1.236-.292a37.1,37.1,0,0,0,5.786-1.9h.016c.212-.1.422-.178.634-.292a34.752,34.752,0,0,0,3.95-2.016l.016-.016a38.24,38.24,0,0,0,6.484-4.794c.5-.456,1.008-.926,1.48-1.43Z" transform="translate(-143.905 -91.518)" fill="#d1d3d4"/>
                      <rect id="Rectangle_1243" data-name="Rectangle 1243" width="21.514" height="19.574" transform="translate(16.792 31.654)" fill="#e7ad27"/>
                      <path id="Path_18551" data-name="Path 18551" d="M159.151,148.209c-.992,0-1.966-.032-2.942-.114l.324-3.122.212-1.918.292-2.7h4.226l.292,2.7.212,1.918.326,3.122C161.117,148.175,160.141,148.209,159.151,148.209Z" transform="translate(-131.601 -86.391)" fill="#009add"/>
                      <path id="Path_18552" data-name="Path 18552" d="M161.1,140.355h-4.232l-.492,4.622.114.114a3.526,3.526,0,0,0,4.988,0l.114-.114Z" transform="translate(-131.435 -86.393)" fill="#136da0"/>
                      <path id="Path_18553" data-name="Path 18553" d="M165.457,143.411l-2.622,2.622a3.526,3.526,0,0,1-4.988,0l-2.622-2.622a.7.7,0,0,1,0-1l5.116-5.116,5.116,5.116A.7.7,0,0,1,165.457,143.411Z" transform="translate(-132.793 -89.451)" fill="#1caee4"/>
                      <path id="Path_18554" data-name="Path 18554" d="M167.992,135.668l-.91-.422h-.016l-.016-.016-.438,1.4-.228.716-.358,1.17-4.372,14.01c.406-.1.83-.18,1.236-.292a37.173,37.173,0,0,0,5.786-1.9h.016c.212-.1.422-.178.634-.292a34.431,34.431,0,0,0,3.95-2.016l.016-.016a38.239,38.239,0,0,0,6.486-4.8c.5-.454,1.008-.926,1.48-1.43Z" transform="translate(-126.156 -91.518)" fill="#ef5a9d"/>
                      <path id="Path_18555" data-name="Path 18555" d="M163.523,152.523c-.406-.082-.83-.18-1.252-.292a37.1,37.1,0,0,1-5.786-1.9h-.016c-.212-.1-.422-.178-.634-.292a33.461,33.461,0,0,1-3.934-2.016c-.016.016-.016,0-.032,0a39.208,39.208,0,0,1-6.486-4.812c-.5-.438-.992-.926-1.478-1.414l14.206-6.566.438,1.4.228.714.39,1.268Z" transform="translate(-143.905 -91.519)" fill="#ef5a9d"/>
                      <path id="Path_18556" data-name="Path 18556" d="M158.776,137.341h-.666l-.422.2-.894.424-.032.016-11.378,5.234c-.5-.438-.992-.926-1.478-1.414l14.206-6.566.438,1.4Z" transform="translate(-143.904 -91.517)" fill="#f06ea9"/>
                      <path id="Path_18557" data-name="Path 18557" d="M165.628,135.669l13.262,6.112c-.472.5-.976.976-1.48,1.43l-11.378-5.234-.016-.016-.91-.424-.422-.2h-.666l.228-.714.438-1.4.016.016h.016Z" transform="translate(-123.792 -91.519)" fill="#f06ea9"/>
                      <g id="Group_6660" data-name="Group 6660" transform="translate(14.206 41.972)">
                        <path id="Path_18558" data-name="Path 18558" d="M164.35,140.236,155.758,151.2l-4.75-15.1,1.786-1.434a1.413,1.413,0,0,1,1.582-.126Z" transform="translate(-151.008 -134.36)" fill="#e6e7e8"/>
                      </g>
                      <g id="Group_6661" data-name="Group 6661" transform="translate(27.554 41.974)">
                        <path id="Path_18559" data-name="Path 18559" d="M157.682,140.235l8.592,10.964,4.746-15.1-1.782-1.432a1.414,1.414,0,0,0-1.582-.126Z" transform="translate(-157.682 -134.361)" fill="#e6e7e8"/>
                      </g>
                      <path id="Path_18560" data-name="Path 18560" d="M167.654,136.287a1.406,1.406,0,0,1,1.582.126l1.344,1.08.438-1.39-1.782-1.432a1.414,1.414,0,0,0-1.582-.126l-9.972,5.69.944,1.2Z" transform="translate(-130.128 -92.387)" fill="#fff"/>
                      <path id="Path_18561" data-name="Path 18561" d="M154.374,136.287a1.406,1.406,0,0,0-1.582.126l-1.344,1.08-.438-1.39,1.782-1.432a1.414,1.414,0,0,1,1.582-.126l9.972,5.69-.944,1.2Z" transform="translate(-136.8 -92.387)" fill="#fff"/>
                      <ellipse id="Ellipse_2249" data-name="Ellipse 2249" cx="4.674" cy="6.004" rx="4.674" ry="6.004" transform="translate(4.614 17.028) rotate(-10.247)" fill="#f7cb15"/>
                      <ellipse id="Ellipse_2250" data-name="Ellipse 2250" cx="6.004" cy="4.674" rx="6.004" ry="4.674" transform="translate(39.383 27.165) rotate(-79.753)" fill="#f7cb15"/>
                      <path id="Path_18562" data-name="Path 18562" d="M150.326,122.508c2.54-.46,5.076,1.814,5.666,5.076a7.43,7.43,0,0,1,.1.878,7.562,7.562,0,0,0-.1-1.886c-.59-3.262-3.126-5.536-5.666-5.076-2.31.418-3.82,2.952-3.632,5.862C146.87,124.894,148.288,122.876,150.326,122.508Z" transform="translate(-141.132 -105.308)" fill="#fff335"/>
                      <path id="Path_18563" data-name="Path 18563" d="M164.182,127.584c.59-3.262,3.126-5.536,5.666-5.076,2.038.368,3.456,2.386,3.632,4.854.188-2.91-1.322-5.444-3.632-5.862-2.54-.46-5.078,1.814-5.666,5.076a7.562,7.562,0,0,0-.1,1.886A7.424,7.424,0,0,1,164.182,127.584Z" transform="translate(-123.75 -105.308)" fill="#fff335"/>
                      <path id="Path_18564" data-name="Path 18564" d="M152.464,129.171c-2.54.458-5.078-1.814-5.666-5.076-.026-.14-.042-.278-.058-.416A7.511,7.511,0,0,0,146.8,126c.59,3.262,3.126,5.536,5.666,5.076,2.43-.44,3.978-3.222,3.59-6.322C155.75,127.021,154.382,128.825,152.464,129.171Z" transform="translate(-141.134 -103.069)" fill="#e7ad27"/>
                      <path id="Path_18565" data-name="Path 18565" d="M173.378,124.1c-.59,3.262-3.126,5.536-5.666,5.076-1.916-.346-3.286-2.152-3.59-4.418-.388,3.1,1.158,5.882,3.59,6.322,2.54.46,5.076-1.814,5.666-5.076a7.462,7.462,0,0,0,.058-2.322C173.42,123.818,173.4,123.956,173.378,124.1Z" transform="translate(-123.748 -103.07)" fill="#e7ad27"/>
                      <path id="Path_18566" data-name="Path 18566" d="M166.421,113.374c-9.654,0-17.482,7.238-17.482,18.8s7.826,23.07,17.482,23.07,17.482-11.508,17.482-23.07S176.075,113.374,166.421,113.374Z" transform="translate(-138.871 -113.374)" fill="#fede3a"/>
                      <path id="Path_18567" data-name="Path 18567" d="M166.42,143.323c-9.184,0-16.708-10.412-17.42-21.378-.036.544-.06,1.094-.06,1.658,0,11.562,7.826,23.07,17.482,23.07S183.9,135.165,183.9,123.6c0-.564-.024-1.116-.06-1.658C183.126,132.911,175.6,143.323,166.42,143.323Z" transform="translate(-138.87 -104.803)" fill="#f7cb15"/>
                      <path id="Path_18568" data-name="Path 18568" d="M164.488,113.374a16.882,16.882,0,0,0-13.616,6.52,15.877,15.877,0,0,0,27.23,0A16.885,16.885,0,0,0,164.488,113.374Z" transform="translate(-136.938 -113.374)" fill="#1caee4"/>
                      <path id="Path_18569" data-name="Path 18569" d="M164.488,113.374a16.882,16.882,0,0,0-13.616,6.52,15.877,15.877,0,0,0,27.23,0A16.885,16.885,0,0,0,164.488,113.374Z" transform="translate(-136.938 -113.374)" fill="#1caee4"/>
                      <path id="Path_18570" data-name="Path 18570" d="M164.486,123.241a15.854,15.854,0,0,1-13.1-6.918c-.174.2-.346.41-.51.624a15.877,15.877,0,0,0,27.23,0c-.164-.214-.336-.42-.51-.624A15.854,15.854,0,0,1,164.486,123.241Z" transform="translate(-136.938 -110.427)" fill="#009add"/>
                      <path id="Path_18571" data-name="Path 18571" d="M150.324,139a.619.619,0,0,0,.608-.726,24.221,24.221,0,0,1-.322-3.9c0-10.458,7.08-17,15.812-17s15.812,6.546,15.812,17a24.221,24.221,0,0,1-.322,3.9.619.619,0,0,0,.608.726h0a.624.624,0,0,0,.608-.474,27.005,27.005,0,0,0,.774-6.354c0-11.562-7.826-18.8-17.482-18.8s-17.482,7.238-17.482,18.8a27.1,27.1,0,0,0,.774,6.354.632.632,0,0,0,.612.474Z" transform="translate(-138.872 -113.373)" fill="#1caee4"/>
                      <g id="Group_6662" data-name="Group 6662" transform="translate(10.774 7.888)">
                        <path id="Path_18572" data-name="Path 18572" d="M163.6,117.318c-.14.17-.282.34-.43.5A17.351,17.351,0,0,1,168,130.432a24.222,24.222,0,0,1-.322,3.9.614.614,0,0,0,.96.612,25.649,25.649,0,0,0,.324-4.014C168.961,125.12,166.9,120.45,163.6,117.318Z" transform="translate(-135.409 -117.318)" fill="#009add"/>
                        <path id="Path_18573" data-name="Path 18573" d="M155.076,117.821c-.148-.164-.29-.332-.43-.5-3.292,3.132-5.354,7.8-5.354,13.612a25.65,25.65,0,0,0,.324,4.014.614.614,0,0,0,.96-.612,23.994,23.994,0,0,1-.322-3.9A17.36,17.36,0,0,1,155.076,117.821Z" transform="translate(-149.292 -117.317)" fill="#009add"/>
                      </g>
                      <g id="Group_6663" data-name="Group 6663" transform="translate(10.068)">
                        <path id="Path_18574" data-name="Path 18574" d="M149.773,125.2a23.72,23.72,0,0,0,.156,2.666.628.628,0,0,0,.168-.53,24.145,24.145,0,0,1-.3-3.016C149.781,124.607,149.773,124.9,149.773,125.2Z" transform="translate(-148.105 -102.431)" fill="#27c1e6"/>
                        <path id="Path_18575" data-name="Path 18575" d="M166.421,115.138c9.358,0,17,6.8,17.46,17.746.006-.236.022-.474.022-.71,0-11.562-7.826-18.8-17.482-18.8s-17.482,7.238-17.482,18.8c0,.236.016.474.022.71C149.421,121.938,157.063,115.138,166.421,115.138Z" transform="translate(-148.939 -113.374)" fill="#27c1e6"/>
                        <path id="Path_18576" data-name="Path 18576" d="M165.733,124.317a24.152,24.152,0,0,1-.3,3.016.62.62,0,0,0,.166.53,23.748,23.748,0,0,0,.156-2.666C165.751,124.9,165.743,124.607,165.733,124.317Z" transform="translate(-132.457 -102.431)" fill="#27c1e6"/>
                      </g>
                    </g>
                    <path id="Path_18577" data-name="Path 18577" d="M158.289,151.515a37.1,37.1,0,0,1-5.786-1.9h-.016c-.212-.1-.422-.178-.634-.292a33.461,33.461,0,0,1-3.934-2.016c-.016.016-.016,0-.032,0l4.892-10.044.65-1.316v.032l.276.846Z" transform="translate(-139.923 -90.803)" fill="#e43d91"/>
                    <path id="Path_18578" data-name="Path 18578" d="M159.525,152.522c-.406-.082-.83-.18-1.252-.292a37.1,37.1,0,0,1-5.786-1.9h-.016c-.212-.1-.422-.178-.634-.292a33.461,33.461,0,0,1-3.934-2.016l4.892-10.06.618-1.268.7-1.462.438,1.4.228.714.39,1.268Z" transform="translate(-139.907 -91.518)" fill="#f06ea9"/>
                    <path id="Path_18579" data-name="Path 18579" d="M167.9,137.489l-.114-.228-.016-.016-.634-1.3-.276.878-4.584,14.692a37.1,37.1,0,0,0,5.786-1.9h.016c.212-.1.422-.178.634-.292a34.752,34.752,0,0,0,3.95-2.016l.016-.016Z" transform="translate(-125.539 -90.803)" fill="#e43d91"/>
                    <path id="Path_18580" data-name="Path 18580" d="M173.275,148.012a34.752,34.752,0,0,1-3.95,2.016c-.212.114-.422.194-.634.292h-.016a37.175,37.175,0,0,1-5.786,1.9c-.406.114-.828.2-1.236.292l4.372-14.01.374-1.17.666-2.1h.016l.666,1.414.634,1.3.016.016.114.228Z" transform="translate(-126.157 -91.51)" fill="#f06ea9"/>
                  </g>
                </g>
              </g>
              <g id="Group_6675" data-name="Group 6675">
                <path id="Path_18581" data-name="Path 18581" d="M215.681,100.514a38.417,38.417,0,0,1-11.118,27.11c-.472.5-.976.976-1.48,1.43a38.134,38.134,0,0,1-6.484,4.794l-.016.016a34.752,34.752,0,0,1-3.95,2.016c-.212.114-.422.194-.634.292h-.016a37.171,37.171,0,0,1-5.786,1.9c-.406.114-.828.2-1.236.292h-.016a38.717,38.717,0,0,1-4.99.7c-.976.082-1.95.114-2.942.114s-1.966-.032-2.942-.114a39.066,39.066,0,0,1-4.99-.7c-.406-.082-.83-.18-1.252-.292a37.1,37.1,0,0,1-5.786-1.9h-.016c-.212-.1-.422-.178-.634-.292a33.457,33.457,0,0,1-3.934-2.016c-.016.016-.016,0-.032,0a39.313,39.313,0,0,1-6.486-4.81c-.5-.438-.992-.926-1.478-1.414a38.665,38.665,0,1,1,66.218-27.126Z" transform="translate(-138.345 -61.848)" fill="#136da0"/>
                <g id="Group_6674" data-name="Group 6674" transform="translate(11.12 15.516)">
                  <g id="Group_6673" data-name="Group 6673">
                    <g id="Group_6672" data-name="Group 6672">
                      <path id="Path_18582" data-name="Path 18582" d="M185.741,91.9l-.91-.422h-.016l-.016-.016H158.111l-14.206,6.566c.488.488.976.976,1.478,1.414a39.033,39.033,0,0,0,6.486,4.81c.016,0,.016.016.032,0a33.3,33.3,0,0,0,3.934,2.016c.212.114.422.194.634.292h.016a37.1,37.1,0,0,0,5.786,1.9c.422.114.846.212,1.252.292a38.714,38.714,0,0,0,4.99.7c.976.082,1.95.114,2.942.114s1.966-.032,2.942-.114a39.066,39.066,0,0,0,4.99-.7h.016c.406-.1.83-.18,1.236-.292a37.1,37.1,0,0,0,5.786-1.9h.016c.212-.1.422-.178.634-.292a34.75,34.75,0,0,0,3.95-2.016l.016-.016a38.24,38.24,0,0,0,6.484-4.794c.5-.456,1.008-.926,1.48-1.43Z" transform="translate(-143.905 -47.75)" fill="#d1d3d4"/>
                      <rect id="Rectangle_1244" data-name="Rectangle 1244" width="21.514" height="19.574" transform="translate(16.792 31.654)" fill="#e7ad27"/>
                      <path id="Path_18583" data-name="Path 18583" d="M159.151,104.439c-.992,0-1.966-.032-2.942-.114l.324-3.12.212-1.918.292-2.7h4.226l.292,2.7.212,1.918.326,3.12C161.117,104.407,160.141,104.439,159.151,104.439Z" transform="translate(-131.601 -42.623)" fill="#009add"/>
                      <path id="Path_18584" data-name="Path 18584" d="M161.1,96.587h-4.232l-.492,4.622.114.114a3.526,3.526,0,0,0,4.988,0l.114-.114Z" transform="translate(-131.435 -42.625)" fill="#136da0"/>
                      <path id="Path_18585" data-name="Path 18585" d="M165.457,99.643l-2.622,2.622a3.526,3.526,0,0,1-4.988,0l-2.622-2.622a.7.7,0,0,1,0-1l5.116-5.116,5.116,5.116A.7.7,0,0,1,165.457,99.643Z" transform="translate(-132.793 -45.683)" fill="#1caee4"/>
                      <path id="Path_18586" data-name="Path 18586" d="M167.992,91.9l-.91-.424h-.016l-.016-.016-.438,1.4-.228.714-.358,1.17-4.372,14.01c.406-.1.83-.178,1.236-.292a37.174,37.174,0,0,0,5.786-1.9h.016c.212-.1.422-.178.634-.292a34.75,34.75,0,0,0,3.95-2.016l.016-.016a38.335,38.335,0,0,0,6.486-4.794c.5-.456,1.008-.926,1.48-1.43Z" transform="translate(-126.156 -47.751)" fill="#ef5a9d"/>
                      <path id="Path_18587" data-name="Path 18587" d="M163.523,108.754c-.406-.082-.83-.18-1.252-.292a37.1,37.1,0,0,1-5.786-1.9h-.016c-.212-.1-.422-.178-.634-.292a33.457,33.457,0,0,1-3.934-2.016c-.016.016-.016,0-.032,0a39.312,39.312,0,0,1-6.486-4.81c-.5-.438-.992-.926-1.478-1.414l14.206-6.566.438,1.4.228.714.39,1.268Z" transform="translate(-143.905 -47.75)" fill="#ef5a9d"/>
                      <path id="Path_18588" data-name="Path 18588" d="M158.776,93.574h-.666l-.422.194-.894.424-.032.016-11.378,5.234c-.5-.438-.992-.926-1.478-1.414l14.206-6.566.438,1.4Z" transform="translate(-143.904 -47.75)" fill="#f06ea9"/>
                      <path id="Path_18589" data-name="Path 18589" d="M165.628,91.9l13.262,6.112c-.472.5-.976.976-1.48,1.43l-11.378-5.234-.016-.016-.91-.424-.422-.194h-.666l.228-.714.438-1.4.016.016h.016Z" transform="translate(-123.792 -47.75)" fill="#f06ea9"/>
                      <g id="Group_6668" data-name="Group 6668" transform="translate(14.206 41.97)">
                        <path id="Path_18590" data-name="Path 18590" d="M164.35,96.467l-8.592,10.964-4.75-15.1,1.786-1.434a1.409,1.409,0,0,1,1.582-.124Z" transform="translate(-151.008 -90.591)" fill="#e6e7e8"/>
                      </g>
                      <g id="Group_6669" data-name="Group 6669" transform="translate(27.554 41.971)">
                        <path id="Path_18591" data-name="Path 18591" d="M157.682,96.467l8.592,10.964,4.746-15.1L169.238,90.9a1.41,1.41,0,0,0-1.582-.126Z" transform="translate(-157.682 -90.591)" fill="#e6e7e8"/>
                      </g>
                      <path id="Path_18592" data-name="Path 18592" d="M167.654,92.519a1.406,1.406,0,0,1,1.582.126l1.344,1.08.438-1.39L169.236,90.9a1.41,1.41,0,0,0-1.582-.126l-9.972,5.69.944,1.2Z" transform="translate(-130.128 -48.621)" fill="#fff"/>
                      <path id="Path_18593" data-name="Path 18593" d="M154.374,92.519a1.406,1.406,0,0,0-1.582.126l-1.344,1.08-.438-1.39,1.782-1.432a1.41,1.41,0,0,1,1.582-.126l9.972,5.69-.944,1.2Z" transform="translate(-136.8 -48.621)" fill="#fff"/>
                      <ellipse id="Ellipse_2251" data-name="Ellipse 2251" cx="4.674" cy="6.004" rx="4.674" ry="6.004" transform="translate(4.614 17.015) rotate(-10.247)" fill="#f7cb15"/>
                      <ellipse id="Ellipse_2252" data-name="Ellipse 2252" cx="6.004" cy="4.674" rx="6.004" ry="4.674" transform="translate(39.384 27.167) rotate(-79.753)" fill="#f7cb15"/>
                      <path id="Path_18594" data-name="Path 18594" d="M150.326,78.741c2.54-.46,5.076,1.814,5.666,5.076a7.446,7.446,0,0,1,.1.876,7.567,7.567,0,0,0-.1-1.886c-.59-3.262-3.126-5.536-5.666-5.076-2.31.418-3.82,2.952-3.632,5.862C146.87,81.125,148.288,79.109,150.326,78.741Z" transform="translate(-141.132 -61.541)" fill="#fff335"/>
                      <path id="Path_18595" data-name="Path 18595" d="M164.182,83.816c.59-3.262,3.126-5.536,5.666-5.076,2.038.368,3.456,2.386,3.632,4.854.188-2.91-1.322-5.444-3.632-5.862-2.54-.46-5.078,1.814-5.666,5.076a7.562,7.562,0,0,0-.1,1.886A7.375,7.375,0,0,1,164.182,83.816Z" transform="translate(-123.75 -61.54)" fill="#fff335"/>
                      <path id="Path_18596" data-name="Path 18596" d="M152.464,85.4c-2.54.46-5.078-1.814-5.666-5.076-.026-.14-.042-.278-.058-.416a7.511,7.511,0,0,0,.058,2.32c.59,3.262,3.126,5.536,5.666,5.076,2.43-.44,3.978-3.224,3.59-6.322C155.75,83.251,154.382,85.057,152.464,85.4Z" transform="translate(-141.134 -59.301)" fill="#e7ad27"/>
                      <path id="Path_18597" data-name="Path 18597" d="M173.378,80.328c-.59,3.262-3.126,5.536-5.666,5.076-1.916-.346-3.286-2.152-3.59-4.418-.388,3.1,1.158,5.882,3.59,6.322,2.54.46,5.076-1.814,5.666-5.076a7.462,7.462,0,0,0,.058-2.322C173.42,80.05,173.4,80.188,173.378,80.328Z" transform="translate(-123.748 -59.302)" fill="#e7ad27"/>
                      <path id="Path_18598" data-name="Path 18598" d="M166.421,69.606c-9.654,0-17.482,7.238-17.482,18.8s7.826,23.07,17.482,23.07S183.9,99.968,183.9,88.406,176.075,69.606,166.421,69.606Z" transform="translate(-138.871 -69.606)" fill="#fede3a"/>
                      <path id="Path_18599" data-name="Path 18599" d="M166.42,99.555c-9.184,0-16.708-10.412-17.42-21.378-.036.544-.06,1.094-.06,1.658,0,11.562,7.826,23.07,17.482,23.07S183.9,91.4,183.9,79.835c0-.564-.024-1.116-.06-1.658C183.126,89.141,175.6,99.555,166.42,99.555Z" transform="translate(-138.87 -61.035)" fill="#f7cb15"/>
                      <path id="Path_18600" data-name="Path 18600" d="M164.488,69.606a16.887,16.887,0,0,0-13.616,6.52,15.877,15.877,0,0,0,27.23,0A16.885,16.885,0,0,0,164.488,69.606Z" transform="translate(-136.938 -69.606)" fill="#1caee4"/>
                      <path id="Path_18601" data-name="Path 18601" d="M164.488,69.606a16.887,16.887,0,0,0-13.616,6.52,15.877,15.877,0,0,0,27.23,0A16.885,16.885,0,0,0,164.488,69.606Z" transform="translate(-136.938 -69.606)" fill="#1caee4"/>
                      <path id="Path_18602" data-name="Path 18602" d="M164.486,79.473a15.854,15.854,0,0,1-13.1-6.918c-.174.2-.346.41-.51.624a15.877,15.877,0,0,0,27.23,0c-.164-.214-.336-.42-.51-.624A15.859,15.859,0,0,1,164.486,79.473Z" transform="translate(-136.938 -66.659)" fill="#009add"/>
                      <path id="Path_18603" data-name="Path 18603" d="M150.324,95.234a.62.62,0,0,0,.608-.728,24.221,24.221,0,0,1-.322-3.9c0-10.458,7.08-17,15.812-17s15.812,6.546,15.812,17a24.221,24.221,0,0,1-.322,3.9.621.621,0,0,0,.608.728h0a.624.624,0,0,0,.608-.474,27.005,27.005,0,0,0,.774-6.354c0-11.562-7.826-18.8-17.482-18.8s-17.482,7.238-17.482,18.8a27.086,27.086,0,0,0,.774,6.354.629.629,0,0,0,.612.474Z" transform="translate(-138.872 -69.606)" fill="#1caee4"/>
                      <g id="Group_6670" data-name="Group 6670" transform="translate(10.774 7.888)">
                        <path id="Path_18604" data-name="Path 18604" d="M163.6,73.55c-.14.17-.282.34-.43.5A17.351,17.351,0,0,1,168,86.664a24.221,24.221,0,0,1-.322,3.9.614.614,0,0,0,.96.612,25.649,25.649,0,0,0,.324-4.014C168.961,81.352,166.9,76.682,163.6,73.55Z" transform="translate(-135.409 -73.55)" fill="#009add"/>
                        <path id="Path_18605" data-name="Path 18605" d="M155.076,74.054c-.148-.164-.29-.334-.43-.5-3.292,3.132-5.354,7.8-5.354,13.612a25.65,25.65,0,0,0,.324,4.014.614.614,0,0,0,.96-.612,23.994,23.994,0,0,1-.322-3.9A17.359,17.359,0,0,1,155.076,74.054Z" transform="translate(-149.292 -73.55)" fill="#009add"/>
                      </g>
                      <g id="Group_6671" data-name="Group 6671" transform="translate(10.068)">
                        <path id="Path_18606" data-name="Path 18606" d="M149.773,81.429a23.72,23.72,0,0,0,.156,2.666.628.628,0,0,0,.168-.53,24.145,24.145,0,0,1-.3-3.016C149.781,80.839,149.773,81.131,149.773,81.429Z" transform="translate(-148.105 -58.663)" fill="#27c1e6"/>
                        <path id="Path_18607" data-name="Path 18607" d="M166.421,71.37c9.358,0,17,6.8,17.46,17.746.006-.236.022-.474.022-.71,0-11.562-7.826-18.8-17.482-18.8s-17.482,7.238-17.482,18.8c0,.236.016.474.022.71C149.421,78.168,157.063,71.37,166.421,71.37Z" transform="translate(-148.939 -69.606)" fill="#27c1e6"/>
                        <path id="Path_18608" data-name="Path 18608" d="M165.733,80.548a24.152,24.152,0,0,1-.3,3.016.62.62,0,0,0,.166.53,23.72,23.72,0,0,0,.156-2.666C165.751,81.132,165.743,80.84,165.733,80.548Z" transform="translate(-132.457 -58.664)" fill="#27c1e6"/>
                      </g>
                    </g>
                    <path id="Path_18609" data-name="Path 18609" d="M158.289,107.747a37.1,37.1,0,0,1-5.786-1.9h-.016c-.212-.1-.422-.178-.634-.292a33.457,33.457,0,0,1-3.934-2.016c-.016.016-.016,0-.032,0l4.892-10.044.65-1.316v.032l.276.846Z" transform="translate(-139.923 -47.035)" fill="#e43d91"/>
                    <path id="Path_18610" data-name="Path 18610" d="M159.525,108.754c-.406-.082-.83-.18-1.252-.292a37.1,37.1,0,0,1-5.786-1.9h-.016c-.212-.1-.422-.178-.634-.292a33.457,33.457,0,0,1-3.934-2.016l4.892-10.06.618-1.268.7-1.462.438,1.4.228.714.39,1.268Z" transform="translate(-139.907 -47.75)" fill="#f06ea9"/>
                    <path id="Path_18611" data-name="Path 18611" d="M167.9,93.72l-.114-.228-.016-.016-.634-1.3-.276.878-4.584,14.694a37.1,37.1,0,0,0,5.786-1.9h.016c.212-.1.422-.178.634-.292a34.75,34.75,0,0,0,3.95-2.016l.016-.016Z" transform="translate(-125.539 -47.036)" fill="#e43d91"/>
                    <path id="Path_18612" data-name="Path 18612" d="M173.275,104.244a34.753,34.753,0,0,1-3.95,2.016c-.212.114-.422.194-.634.292h-.016a37.173,37.173,0,0,1-5.786,1.9c-.406.114-.828.2-1.236.292l4.372-14.01.374-1.17.666-2.1h.016l.666,1.414.634,1.3.016.016.114.228Z" transform="translate(-126.157 -47.742)" fill="#f06ea9"/>
                  </g>
                </g>
              </g>
            </g>
            <g id="Group_6677" data-name="Group 6677" transform="translate(99.108 107.752)">
              <path id="Path_18613" data-name="Path 18613" d="M103.321,115.295a42.9,42.9,0,0,1-7.5,2.586v61.112a43.79,43.79,0,0,1,7.5,2.54Z" transform="translate(-95.819 -97.023)" fill="#d1d3d4"/>
              <path id="Path_18614" data-name="Path 18614" d="M149.733,139.781c-.08-.012-.156-.026-.236-.036a18.011,18.011,0,0,0-2.218-.15h0l.008,17.94-.016-34.232v0l0-4.286a12.883,12.883,0,0,0-19.528-10.988l-10.792,6.548-.638.388c-6.72,4.076-11.7,7.228-16.74,9.46v66.238c.644.282,1.286.572,1.93.886q.852.414,1.714.864c3.9,2.038,8.008,4.608,13.136,7.712l4.812,2.912,6.626,4.012a12.867,12.867,0,0,0,19.516-11l-.01-20.572h.008a18,18,0,0,0,2.214-.152c.076-.01.152-.024.228-.034a17.607,17.607,0,0,0,2.064-.41h0a17.878,17.878,0,0,0,13.416-17.35h0v0A17.928,17.928,0,0,0,149.733,139.781Z" transform="translate(-92.069 -106.159)" fill="#009add"/>
            </g>
            <g id="Group_6680" data-name="Group 6680" transform="translate(0 99.744)">
              <g id="Group_6679" data-name="Group 6679">
                <path id="Path_18615" data-name="Path 18615" d="M97.514,171.663l-34.328.016a10.138,10.138,0,0,1-10.142-10.132l-.018-38.118a10.138,10.138,0,0,1,10.132-10.142l34.328-.016Z" transform="translate(-39.504 -91.039)" fill="#ef5a9d"/>
                <path id="Path_18616" data-name="Path 18616" d="M53.032,128.355l.008,18.108a10.136,10.136,0,0,0,10.142,10.132l34.326-.016L97.5,141.191l-31.606.014A12.855,12.855,0,0,1,53.032,128.355Z" transform="translate(-39.498 -75.955)" fill="#e43d91"/>
                <path id="Path_18617" data-name="Path 18617" d="M63.159,113.286a10.136,10.136,0,0,0-10.132,10.142l0,7A12.855,12.855,0,0,1,65.883,117.57l31.608-.014,0-4.284Z" transform="translate(-39.503 -91.038)" fill="#f06ea9"/>
                <g id="Group_6678" data-name="Group 6678" transform="translate(0 38.344)">
                  <path id="Path_18618" data-name="Path 18618" d="M59.8,147.533l-9.472,0a4.053,4.053,0,0,1-4.056-4.054l-.008-18.1a4.054,4.054,0,0,1,4.054-4.056l9.472,0Z" transform="translate(-46.264 -121.327)" fill="#e43d91"/>
                  <path id="Path_18619" data-name="Path 18619" d="M50.319,121.332a4.057,4.057,0,0,0-4.054,4.056l0,3.638a5.77,5.77,0,0,1,5.768-5.772l7.756,0v-1.922Z" transform="translate(-46.265 -121.326)" fill="#ef5a9d"/>
                  <path id="Path_18620" data-name="Path 18620" d="M46.269,129.505l0,5.8a4.056,4.056,0,0,0,4.056,4.054l9.472,0,0-4.088-7.756,0A5.771,5.771,0,0,1,46.269,129.505Z" transform="translate(-46.261 -113.149)" fill="#a72973"/>
                </g>
                <path id="Path_18621" data-name="Path 18621" d="M123.423,118.877a17.94,17.94,0,0,1,17.948,17.932h0a17.94,17.94,0,0,1-17.932,17.948Z" transform="translate(30.893 -85.433)" fill="#ef5a9d"/>
                <path id="Path_18622" data-name="Path 18622" d="M123.439,154.757a17.9,17.9,0,0,0,4.516-.6l-.016-34.688a17.9,17.9,0,0,0-4.516-.594Z" transform="translate(30.893 -85.433)" fill="#e43d91"/>
                <path id="Path_18623" data-name="Path 18623" d="M123.429,140.025l0,7.688a17.86,17.86,0,0,0,17.494-21.792A17.933,17.933,0,0,1,123.429,140.025Z" transform="translate(30.899 -78.389)" fill="#e43d91"/>
                <path id="Path_18624" data-name="Path 18624" d="M171.614,192.053a12.857,12.857,0,0,1-19.516,11l-11.436-6.924c-14.506-8.782-20.9-13.372-37.288-13.366l-28.09.012-.026-58.394,28.09-.012c16.386-.008,22.778-4.6,37.276-13.4l11.43-6.934a12.858,12.858,0,0,1,19.526,10.986Z" transform="translate(-17.272 -102.155)" fill="#fede3a"/>
                <path id="Path_18625" data-name="Path 18625" d="M152.082,155.205l-11.436-6.924c-14.508-8.784-20.9-13.372-37.29-13.366l-28.09.012.006,15.09,28.09-.012c16.386-.008,22.782,4.582,37.29,13.366l11.436,6.924a12.857,12.857,0,0,0,19.516-11L171.6,144.2A12.856,12.856,0,0,1,152.082,155.205Z" transform="translate(-17.264 -69.395)" fill="#f7cb15"/>
                <path id="Path_18626" data-name="Path 18626" d="M152.053,104.041l-11.43,6.934c-14.5,8.8-20.892,13.392-37.276,13.4l-28.09.012,0,4.286,28.09-.012c16.386-.008,22.778-4.6,37.276-13.4l11.432-6.936a12.858,12.858,0,0,1,19.526,10.986l0-4.286A12.858,12.858,0,0,0,152.053,104.041Z" transform="translate(-17.273 -102.154)" fill="#fff335"/>
                <path id="Path_18627" data-name="Path 18627" d="M83.185,186.4h0a10.079,10.079,0,0,1-9.986-8.676l-1.87-13.284-7.1-5.952-2.418-16.008,26.786-.012,4.566,32.446A10.08,10.08,0,0,1,83.185,186.4Z" transform="translate(-30.721 -61.843)" fill="#fede3a"/>
                <path id="Path_18628" data-name="Path 18628" d="M92.766,172.1a10.072,10.072,0,0,1-9.584,7.008h0a10.081,10.081,0,0,1-9.986-8.676l-1.87-13.284-7.1-5.952-1.32-8.728h-1.1l2.418,16.01,7.1,5.952,1.87,13.284a10.08,10.08,0,0,0,9.986,8.674h0a10.078,10.078,0,0,0,9.976-11.484Z" transform="translate(-30.72 -61.837)" fill="#f7cb15"/>
                <path id="Path_18629" data-name="Path 18629" d="M79.41,143.508l-4.868.7a3.792,3.792,0,0,0-3.214,4.292l2.464,17.15a3.791,3.791,0,0,0,4.292,3.214l4.8-.69Z" transform="translate(-21.242 -60.802)" fill="#f7cb15"/>
                <path id="Path_18630" data-name="Path 18630" d="M141.2,138.55a17.234,17.234,0,0,0,.174-1.742,17.937,17.937,0,0,0-17.948-17.93l0,3.482A17.878,17.878,0,0,1,141.2,138.55Z" transform="translate(30.893 -85.432)" fill="#f06ea9"/>
              </g>
            </g>
            <path id="Path_18631" data-name="Path 18631" d="M108.222,222.781a4.9,4.9,0,0,1-4.9-4.9V197.739h46.65c-.088-.39-.156-.786-.256-1.174-.062-.242-.11-.488-.176-.728-.3-1.112-.66-2.206-1.052-3.29-.114-.318-.238-.632-.36-.948q-.552-1.422-1.2-2.808c-.084-.178-.158-.36-.244-.536-.518-1.054-1.09-2.082-1.7-3.094-.166-.278-.338-.55-.51-.824-.58-.922-1.19-1.826-1.844-2.706-.082-.108-.154-.222-.236-.33-.728-.96-1.514-1.884-2.33-2.786-.21-.232-.424-.46-.64-.688-.808-.854-1.644-1.688-2.532-2.48-.052-.046-.1-.1-.15-.142-.934-.826-1.924-1.6-2.94-2.354-.252-.188-.508-.37-.768-.552-1.044-.736-2.116-1.446-3.242-2.1l-.008-.006a42.423,42.423,0,0,0-33.966-3.754V219.1a11.645,11.645,0,0,0,11.644,11.644h40.314a42.582,42.582,0,0,0,2.43-7.96H108.222Z" transform="translate(3.288 59.925)" fill="#d1d3d4"/>
            <path id="Path_18632" data-name="Path 18632" d="M99.57,201.257a4.9,4.9,0,0,0,4.9,4.9h41.986a42.113,42.113,0,0,0,.834-9.286v-6.886c0-.086,0-.17,0-.254-.01-.56-.05-1.118-.08-1.676-.016-.282-.02-.564-.042-.844-.086-1.14-.228-2.274-.4-3.4-.054-.348-.12-.692-.184-1.038-.1-.556-.238-1.1-.36-1.656H99.57Z" transform="translate(7.04 76.549)" fill="#136da0"/>
            <g id="Group_6689" data-name="Group 6689" transform="translate(53.722 198.868)">
              <path id="Path_18633" data-name="Path 18633" d="M80.919,210.084a42.524,42.524,0,1,0,85.032-1.59v-6.886c0-.086,0-.17,0-.256a42.524,42.524,0,1,0-85.032,1.588Z" transform="translate(-65.343 -143.944)" fill="#a72973"/>
              <g id="Group_6683" data-name="Group 6683">
                <g id="Group_6682" data-name="Group 6682">
                  <g id="Group_6681" data-name="Group 6681">
                    <circle id="Ellipse_2253" data-name="Ellipse 2253" cx="42.52" cy="42.52" r="42.52" transform="matrix(0.5, -0.866, 0.866, 0.5, 0, 73.645)" fill="#ef5a9d"/>
                  </g>
                </g>
              </g>
              <path id="Path_18634" data-name="Path 18634" d="M138.265,190.7a2.2,2.2,0,0,0,.732-1.692v-3.44c0-.084-.022-.168-.03-.252a2.186,2.186,0,0,0-.028-.23,2.131,2.131,0,0,0-.234-.64l-2.1-3.634a2.2,2.2,0,0,0-2.592-.988l-5.386,1.782-3.016,1-.012-.008a17.328,17.328,0,0,0-2.218-1.55c-.11-.066-.214-.134-.324-.2a17.257,17.257,0,0,0-2.366-1.112c-.07-.028-.134-.07-.206-.1l-1.792-8.66a2.182,2.182,0,0,0-.764-1.258,2.2,2.2,0,0,0-1.386-.494h-4.194a2.2,2.2,0,0,0-1.872,1.048,2.169,2.169,0,0,0-.278.7l-1.794,8.66c-.072.026-.134.07-.206.1a17.38,17.38,0,0,0-2.366,1.112c-.11.062-.216.132-.324.2a17.469,17.469,0,0,0-2.218,1.55.042.042,0,0,1-.012.008l-8.4-2.778a2.2,2.2,0,0,0-2.592.988l-2.1,3.634a2.13,2.13,0,0,0-.234.64,2.29,2.29,0,0,0-.028.232c-.008.084-.03.166-.03.25v3.44a2.2,2.2,0,0,0,.732,1.692l6.354,5.662v2.854l-.8.714-5.552,4.946a2.154,2.154,0,0,0-.51.71,2.445,2.445,0,0,0-.08.232,2.1,2.1,0,0,0-.116.608c0,.048-.028.094-.026.142v3.44a2.179,2.179,0,0,0,.292,1.122l2.1,3.632a2.2,2.2,0,0,0,2.592.988l8.4-2.778a17.461,17.461,0,0,0,5.126,2.964l1.794,8.66a2.2,2.2,0,0,0,2.152,1.752h4.194A2.2,2.2,0,0,0,118.7,224.6l1.792-8.66a17.461,17.461,0,0,0,5.126-2.964l8.4,2.778a2.2,2.2,0,0,0,2.592-.988l2.1-3.632a2.194,2.194,0,0,0,.292-1.122v-3.44c0-.048-.026-.094-.028-.142a2.112,2.112,0,0,0-.116-.608,1.9,1.9,0,0,0-.08-.234,2.126,2.126,0,0,0-.51-.71l-6.354-5.662v-2.854Zm-16.638,7.774a9.249,9.249,0,0,1-.8,1.7c-.114.176-.25.332-.378.5a7.267,7.267,0,0,1-.476.576c-.14.15-.294.284-.446.422-.19.17-.384.336-.592.488-.158.118-.322.228-.492.332a7.7,7.7,0,0,1-.716.388c-.166.08-.332.162-.506.23a7.415,7.415,0,0,1-.884.274c-.152.04-.3.09-.456.12a7.222,7.222,0,0,1-2.87,0c-.156-.03-.3-.08-.456-.12a7.712,7.712,0,0,1-.886-.274c-.172-.068-.338-.15-.5-.23a7.543,7.543,0,0,1-.718-.39c-.168-.1-.332-.214-.49-.33-.206-.152-.4-.318-.592-.488-.152-.138-.3-.272-.444-.42-.172-.182-.324-.38-.478-.578-.126-.164-.264-.322-.376-.5a7.468,7.468,0,0,1-.394-.726,7.7,7.7,0,0,1-.41-.982c-.078-.23-.16-.456-.216-.694a7.606,7.606,0,0,1,14.8,0A7.1,7.1,0,0,1,121.627,198.475Z" transform="translate(-56.355 -134.205)" fill="#e43d91"/>
              <g id="Group_6688" data-name="Group 6688" transform="translate(33.535 28.008)">
                <path id="Path_18635" data-name="Path 18635" d="M131.914,192.853l6.354-5.66A2.2,2.2,0,0,0,139,185.5v-3.44a2.179,2.179,0,0,0-.292-1.122l-2.1-3.632a2.2,2.2,0,0,0-2.592-.988l-8.4,2.778a17.461,17.461,0,0,0-5.126-2.964l-1.792-8.66a2.2,2.2,0,0,0-2.152-1.752h-4.2a2.2,2.2,0,0,0-2.152,1.752l-1.794,8.66a17.461,17.461,0,0,0-5.126,2.964l-8.4-2.778a2.2,2.2,0,0,0-2.592.988l-2.1,3.632a2.194,2.194,0,0,0-.292,1.122v3.44a2.2,2.2,0,0,0,.732,1.692l6.354,5.66v2.854l-6.354,5.662a2.2,2.2,0,0,0-.732,1.692v3.44a2.179,2.179,0,0,0,.292,1.122l2.1,3.632a2.2,2.2,0,0,0,2.592.988l8.4-2.778a17.461,17.461,0,0,0,5.126,2.964l1.794,8.66a2.2,2.2,0,0,0,2.152,1.752h4.2a2.2,2.2,0,0,0,2.152-1.752l1.792-8.66a17.461,17.461,0,0,0,5.126-2.964l8.4,2.778a2.2,2.2,0,0,0,2.592-.988l2.1-3.632A2.194,2.194,0,0,0,139,206.5v-3.44a2.2,2.2,0,0,0-.732-1.692l-6.354-5.662v-2.854Zm-17.464,7.286a7.614,7.614,0,0,1-7.4-5.858,7.608,7.608,0,0,1,14.808,0A7.614,7.614,0,0,1,114.45,200.139Z" transform="translate(-89.894 -165.721)" fill="#d1d3d4"/>
                <g id="Group_6687" data-name="Group 6687" transform="translate(0.003)">
                  <g id="Group_6684" data-name="Group 6684" transform="translate(18.347)">
                    <path id="Path_18636" data-name="Path 18636" d="M111.481,176.925H99.069l1.958-9.452a2.2,2.2,0,0,1,2.152-1.752h4.2a2.2,2.2,0,0,1,2.152,1.752Z" transform="translate(-99.069 -165.721)" fill="#fff"/>
                    <path id="Path_18637" data-name="Path 18637" d="M99.069,186.92h12.412l-1.958,9.452a2.2,2.2,0,0,1-2.152,1.752h-4.2a2.2,2.2,0,0,1-2.152-1.752Z" transform="translate(-99.069 -144.522)" fill="#fff"/>
                  </g>
                  <g id="Group_6685" data-name="Group 6685" transform="translate(0.001 10.485)">
                    <path id="Path_18638" data-name="Path 18638" d="M97.838,180.334l6.206,10.75-9.164,3.032a2.2,2.2,0,0,1-2.592-.988l-2.1-3.632a2.2,2.2,0,0,1,.44-2.738Z" transform="translate(-89.896 -161.593)" fill="#fff"/>
                    <path id="Path_18639" data-name="Path 18639" d="M113.581,184.856l-6.206-10.75,9.164-3.032a2.2,2.2,0,0,1,2.592.988l2.1,3.632a2.2,2.2,0,0,1-.442,2.738Z" transform="translate(-72.417 -170.964)" fill="#fff"/>
                  </g>
                  <g id="Group_6686" data-name="Group 6686" transform="translate(0 10.487)">
                    <path id="Path_18640" data-name="Path 18640" d="M107.374,191.083l6.206-10.75,7.208,6.422a2.2,2.2,0,0,1,.442,2.738l-2.1,3.632a2.2,2.2,0,0,1-2.592.988Z" transform="translate(-72.417 -161.596)" fill="#fff"/>
                    <path id="Path_18641" data-name="Path 18641" d="M104.045,174.105l-6.206,10.75-7.208-6.422a2.194,2.194,0,0,1-.44-2.738l2.1-3.632a2.2,2.2,0,0,1,2.592-.988Z" transform="translate(-89.895 -170.965)" fill="#fff"/>
                  </g>
                </g>
                <path id="Path_18642" data-name="Path 18642" d="M110.9,170.389a17.464,17.464,0,1,0,17.464,17.464A17.464,17.464,0,0,0,110.9,170.389Zm0,25.082a7.616,7.616,0,1,1,7.616-7.616A7.616,7.616,0,0,1,110.9,195.471Z" transform="translate(-86.347 -161.053)" fill="#fff"/>
                <path id="Path_18643" data-name="Path 18643" d="M110.9,170.389a17.464,17.464,0,1,0,17.464,17.464A17.464,17.464,0,0,0,110.9,170.389Zm0,30.866a13.4,13.4,0,1,1,13.4-13.4A13.4,13.4,0,0,1,110.9,201.255Z" transform="translate(-86.347 -161.053)" fill="#e6e7e8"/>
              </g>
            </g>
            <rect id="Rectangle_1245" data-name="Rectangle 1245" width="7.502" height="62.976" transform="translate(99.108 29.68)" fill="#d1d3d4"/>
            <path id="Path_18644" data-name="Path 18644" d="M141.226,67.123H99.57V130.1h41.656a6.074,6.074,0,0,0,6.074-6.076V73.2A6.074,6.074,0,0,0,141.226,67.123Z" transform="translate(7.04 -37.443)" fill="#009add"/>
            <g id="Group_6692" data-name="Group 6692" transform="translate(61.64 21.682)">
              <g id="Group_6690" data-name="Group 6690">
                <path id="Path_18645" data-name="Path 18645" d="M83.159,66.337h80.552a6.075,6.075,0,0,1,6.074,6.074v44.4a6.075,6.075,0,0,1-6.074,6.074H106.747l-5.262,7.15a5.162,5.162,0,0,1-8.316,0l-5.262-7.15H83.159a6.075,6.075,0,0,1-6.074-6.074v-44.4A6.075,6.075,0,0,1,83.159,66.337Z" transform="translate(-77.085 -59.911)" fill="#bcbec0"/>
                <path id="Path_18646" data-name="Path 18646" d="M83.159,63.124h80.552a6.075,6.075,0,0,1,6.074,6.076v44.4a6.075,6.075,0,0,1-6.074,6.074h-58.18l-6.23,8.688a2.43,2.43,0,0,1-3.95,0l-6.23-8.688H83.159a6.075,6.075,0,0,1-6.074-6.074V69.2A6.075,6.075,0,0,1,83.159,63.124Z" transform="translate(-77.085 -63.124)" fill="#fff"/>
              </g>
              <g id="Group_6691" data-name="Group 6691" transform="translate(20.137 12.906)">
                <path id="Path_18647" data-name="Path 18647" d="M101.933,71.008a2.217,2.217,0,0,0-2.064-1.43H98.733a2.215,2.215,0,0,0-2.064,1.43L87.291,96.064a2.2,2.2,0,0,0,2.066,2.97h1.014A2.213,2.213,0,0,0,92.435,97.6l2.254-6.05H103.9l2.268,6.054a2.2,2.2,0,0,0,2.062,1.43h1.016a2.2,2.2,0,0,0,2.064-2.974Zm-.024,15.208H96.675L99.3,79.2Z" transform="translate(-87.153 -69.576)" fill="#009add"/>
                <path id="Path_18648" data-name="Path 18648" d="M121.617,75.973a11.918,11.918,0,0,0-4.528-4.718,12.48,12.48,0,0,0-6.376-1.678h-6.934a2.207,2.207,0,0,0-2.2,2.2V96.831a2.207,2.207,0,0,0,2.2,2.2h7.034a12.411,12.411,0,0,0,6.38-1.74,11.948,11.948,0,0,0,4.5-4.79,14.254,14.254,0,0,0,1.566-6.668V82.557A14.007,14.007,0,0,0,121.617,75.973Zm-3.694,6.75v3.206a8.725,8.725,0,0,1-.98,4.08,6.764,6.764,0,0,1-2.558,2.718,7.015,7.015,0,0,1-3.67.972h-3.8V74.909h3.912a6.988,6.988,0,0,1,3.628,1.016,6.709,6.709,0,0,1,2.526,2.722A8.75,8.75,0,0,1,117.923,82.723Z" transform="translate(-72.73 -69.577)" fill="#009add"/>
              </g>
            </g>
          </g>
        </g>
      </g>
    </g>
    <text id="Marketing_Agency" data-name="Marketing Agency" transform="translate(346 29561)" fill="#233d63" font-size="55" font-family="Poppins-SemiBold, Poppins" font-weight="600"><tspan x="-180.482" y="0">ADVERTISERS</tspan></text>
  </g>
</svg>
