<svg xmlns="http://www.w3.org/2000/svg" width="1921" height="4475.845" viewBox="0 0 1921 4475.845">
  <g id="Group_7043" data-name="Group 7043" transform="translate(0.5 -9339.915)">
    <g id="Group_5156" data-name="Group 5156" transform="translate(0 327.902)">
      <rect id="Rectangle_862" data-name="Rectangle 862" width="1920" height="2079" transform="translate(0 11090)" fill="#fff"/>
      <g id="Group_3465" data-name="Group 3465" transform="translate(-87.11 9012.013)">
        <path id="Path_12548" data-name="Path 12548" d="M0,0H1921V1795.112H0Z" transform="translate(86.61)" fill="#430671"/>
        <path id="Path_12549" data-name="Path 12549" d="M2.124,1191.275c15.484,346.884,129.9,530.534,246.535,530.534,160.777,0,376.455-452.923,654.3-457.879,179.058-3.194,259.078,160.591,359.464,159.44,102.826-1.179,162.886-224.361,162.886-489.7,0-379.134-105.068-666.292-242.511-658.629-89.831,5.008-175.734,160.074-266.881,164.625C778.289,446.535,632.284-13.644,428.047.311,241.387,13.065,22.185,399.425,1.419,1011.159-.651,1072.161-.49,1132.737,2.124,1191.275Z" transform="translate(1923.535 177.679) rotate(90)" fill="#082054"/>
      </g>
      <g id="Group_4139" data-name="Group 4139" transform="translate(1920 13487.857) rotate(180)">
        <path id="Path_14168" data-name="Path 14168" d="M1920,258.072l-2.646,236.542H0V263.868C649.25-84.068,1270.75-89.864,1920,258.072Z" transform="translate(0 0)" fill="#fff"/>
        <g id="Group_4078" data-name="Group 4078" transform="translate(43.367 81.868)">
          <path id="Path_14169" data-name="Path 14169" d="M81.208,5.819C36.24,18.549,0,48.413,0,70.612,0,92.862,36.24,99.034,81.208,86.3c44.961-12.78,81.6-39.629,81.6-61.878C162.814,2.223,126.169-6.959,81.208,5.819Z" transform="translate(179.695 122.572)" fill="#afcded"/>
          <path id="Path_14170" data-name="Path 14170" d="M24.107,1.057C10.787,3.9,0,11.629,0,18.159s10.786,9.393,24.107,6.551S48.241,14.392,48.241,7.858,37.428-1.791,24.107,1.057Z" transform="translate(393.065 95.894)" fill="#afcded"/>
          <path id="Path_14171" data-name="Path 14171" d="M72.863,1.36C32.574,6.967,0,28.619,0,48.232c0,19.65,32.574,29.827,72.863,24.221,40.287-5.646,73.018-24.948,73.016-44.6C145.882,8.243,113.15-4.285,72.863,1.36Z" transform="translate(513.547 0)" fill="#afcded"/>
          <path id="Path_14172" data-name="Path 14172" d="M83.677.429C37.427,3.762,0,26.23,0,48.664c0,22.485,37.427,36.431,83.677,33.1,46.248-3.382,83.783-22.774,83.781-45.258C167.46,14.071,129.925-2.951,83.677.429Z" transform="translate(659.427 73.692)" fill="#afcded"/>
          <path id="Path_14173" data-name="Path 14173" d="M105.933,33.271C105.933,19.044,82.254,4.116,53,.709,23.747-2.72,0,6.667,0,20.893,0,35.137,23.747,48.831,53,52.259,82.255,55.666,105.932,47.515,105.933,33.271Z" transform="translate(1136.093 10.606)" fill="#afcded"/>
          <path id="Path_14174" data-name="Path 14174" d="M75.482,5.353C33.884-6.4,0,2.034,0,22.572,0,43.15,33.884,68.043,75.482,79.8c41.6,11.712,75.146,5.854,75.148-14.727C150.628,44.536,117.085,17.067,75.482,5.353Z" transform="translate(1488.848 112.689)" fill="#afcded"/>
          <path id="Path_14175" data-name="Path 14175" d="M35.439,4.621C15.9-3,0-.927,0,8.885s15.9,23.66,35.439,31.282,35.334,6.126,35.335-3.7S54.984,12.235,35.439,4.621Z" transform="translate(1757.85 164.051)" fill="#afcded"/>
          <path id="Path_14176" data-name="Path 14176" d="M34.788,1.246C15.589-2.464,0,2.417,0,11.808S15.589,31.562,34.788,35.271s34.741-.64,34.742-10.04S53.99,4.951,34.788,1.246Z" transform="translate(1330.177 109.907)" fill="#afcded"/>
          <path id="Path_14177" data-name="Path 14177" d="M44.388,5.659C19.825,15.116,0,33.243,0,45.562s19.826,14.187,44.388,4.731c24.558-9.473,44.551-26.671,44.549-39.006C88.939-1.03,68.947-3.813,44.388,5.659Z" transform="translate(0 172.248)" fill="#afcded"/>
          <path id="Path_14178" data-name="Path 14178" d="M59.293.968C26.571-3.292,0,6.958,0,22.88c0,15.948,26.571,31.536,59.293,35.8,32.725,4.236,59.2-4.466,59.2-20.414C118.493,22.341,92.017,5.2,59.293.968Z" transform="translate(1160 144.131)" fill="#afcded"/>
        </g>
        <g id="Group_4079" data-name="Group 4079" transform="translate(50.272 98.368)">
          <path id="Path_14179" data-name="Path 14179" d="M35.782,79c-11.46,0-20.949-1.89-27.443-5.462C1.743,69.906,0,65.506,0,63.685,0,59.562,4.538,48.1,21.71,34.263,37.018,21.925,57.2,11.805,78.53,5.765A142.827,142.827,0,0,1,116.787,0c12.458,0,22.948,2.169,30.336,6.272,7.571,4.207,9.571,9.18,9.57,11.224,0,3.992-4.563,14.956-21.842,27.921-15.031,11.279-35.3,20.9-57.081,27.09C62.776,76.753,48.256,79,35.784,79Z" transform="translate(179.501 122.572)" fill="#fff"/>
          <path id="Path_14180" data-name="Path 14180" d="M9.279,11.959A22.07,22.07,0,0,1,0,10.313C3.282,7.152,9.9,3.041,19.346,1.025A44.187,44.187,0,0,1,28.527,0a22.032,22.032,0,0,1,9.622,1.8c-3.253,3.086-9.8,7.049-19.377,9.1a45.718,45.718,0,0,1-9.491,1.066Z" transform="translate(394.862 95.893)" fill="#fff"/>
          <path id="Path_14181" data-name="Path 14181" d="M48.46,60.136c-14.486,0-27.381-2.385-36.311-6.712C2.232,48.615,0,42.923,0,41.308c0-2.493,3.511-11.895,19.109-22.033,13.7-8.9,31.766-15.268,50.884-17.928A136.289,136.289,0,0,1,88.847,0c14.889,0,28.373,2.7,37.966,7.6,10.754,5.5,12.952,11.907,12.951,13.323,0,2.416-3.514,11.426-19.131,20.863-13.445,8.125-31.563,14.1-51.017,16.828a154.318,154.318,0,0,1-21.152,1.517Z" transform="translate(513.354)" fill="#fff"/>
          <path id="Path_14182" data-name="Path 14182" d="M67.18,68.4c-19.362,0-36.922-3.215-49.445-9.054C3.186,52.566,0,44.337,0,41.738,0,38.509,3.988,27.8,22.2,17.164,37.979,7.952,58.761,2.008,80.717.426,84.58.143,88.468,0,92.276,0c19.46,0,37.455,3.69,50.67,10.391,15.092,7.654,18.4,16.446,18.4,19.187,0,1.884-1.3,5.617-4.948,9.951-3.919,4.65-9.881,9.182-17.242,13.1-15.424,8.219-36.247,13.648-58.632,15.284-4.481.323-8.969.486-13.339.486Z" transform="translate(659.233 73.691)" fill="#fff"/>
          <path id="Path_14183" data-name="Path 14183" d="M62.827,39.184a111.091,111.091,0,0,1-12.809-.763C36.708,36.861,24.1,33.084,14.528,27.788,3.033,21.429.477,15.511,0,14.036c.461-1.2,2.6-5.394,10.759-9.061C17.9,1.766,27.558,0,37.962,0A101.211,101.211,0,0,1,49.7.7c13.189,1.537,25.8,5.518,35.5,11.212,11.466,6.728,13.983,12.822,14.449,14.337-.464,1.151-2.572,5.1-10.427,8.441-6.917,2.94-16.045,4.494-26.4,4.494Z" transform="translate(1135.98 10.606)" fill="#fff"/>
          <path id="Path_14184" data-name="Path 14184" d="M111.344,71.918c-11.477,0-24.8-2.046-38.542-5.913C52.687,60.32,33.951,51.439,20.045,41,3.6,28.65,0,18.515,0,15.652,0,14.335,1.595,9.7,8.68,5.776,15.5,2,25.184,0,36.7,0A132.665,132.665,0,0,1,72.046,5.3c19.735,5.557,38.391,14.865,52.531,26.208,16.355,13.119,19.937,23.68,19.938,26.643,0,2.728-5.908,13.767-33.166,13.767Z" transform="translate(1488.654 112.688)" fill="#fff"/>
          <path id="Path_14185" data-name="Path 14185" d="M53.79,31.153c-6.015,0-13.645-1.681-21.482-4.734A86.271,86.271,0,0,1,9.243,13.161C3.809,8.672,1.129,4.9,0,2.727,1.406,1.524,4.546,0,10.433,0c6.05,0,13.255,1.563,20.837,4.52A82.47,82.47,0,0,1,54.3,18.041c5.391,4.6,8.05,8.446,9.171,10.66-1.22,1.018-3.955,2.452-9.68,2.452Z" transform="translate(1758.249 164.05)" fill="#fff"/>
          <path id="Path_14186" data-name="Path 14186" d="M44.11,22.741A67.986,67.986,0,0,1,31.3,21.449,69.135,69.135,0,0,1,8.976,13.175C3.587,9.889,1.1,6.969,0,5.263,2.2,3.009,8.057,0,18.595,0A64.51,64.51,0,0,1,30.778,1.221,66.2,66.2,0,0,1,53.089,9.729c5.069,3.2,7.726,6.227,8.935,8.117-2.008,1.983-7.255,4.9-17.913,4.9Z" transform="translate(1330.677 109.907)" fill="#fff"/>
          <path id="Path_14187" data-name="Path 14187" d="M13.565,42.437c-8.681,0-12.427-2.7-13.565-4.282.8-2.431,3.859-8.052,11.993-15.11A102.418,102.418,0,0,1,41.649,5.56C51.082,1.922,60.083,0,67.683,0c9.538,0,13.573,3.044,14.752,4.79-.811,2.374-3.907,7.862-12.107,14.706A108.186,108.186,0,0,1,40.623,36.544C30.611,40.4,21.254,42.437,13.569,42.437Z" transform="translate(0 172.247)" fill="#fff"/>
          <path id="Path_14188" data-name="Path 14188" d="M72.278,45.9A124.367,124.367,0,0,1,56.4,44.84c-15.235-1.983-29.573-6.51-40.373-12.746C3.76,25.014.3,18.061,0,15.992c.317-1.551,2.966-6.368,11.506-10.35C19.311,2,30,0,41.616,0A112,112,0,0,1,56.049.957C71.122,2.907,85.463,7.7,96.43,14.451c12.2,7.51,15.621,14.68,15.923,16.823-.2.734-1.822,5.513-11.062,9.581C93.8,44.152,83.768,45.9,72.28,45.9Z" transform="translate(1159.818 144.131)" fill="#fff"/>
        </g>
        <g id="Group_4138" data-name="Group 4138" transform="translate(32.771 25.274)">
          <g id="Group_4080" data-name="Group 4080" transform="translate(514.326 111.248)">
            <path id="Path_14189" data-name="Path 14189" d="M.918,18.343c-.3,0-.587-.325-.764-.925a3.948,3.948,0,0,1,.255-2.88C2.074,12.024,3.137,8.61,4.262,4.995c.436-1.4.887-2.848,1.37-4.216.316-.9.894-1.04,1.289-.325a4.088,4.088,0,0,1,.143,2.92c-.448,1.269-.864,2.6-1.3,4.014-1.173,3.767-2.385,7.662-4.335,10.606A.646.646,0,0,1,.918,18.343Z" transform="translate(0 0)" fill="#afcded"/>
          </g>
          <g id="Group_4081" data-name="Group 4081" transform="translate(523.099 120.707)">
            <path id="Path_14190" data-name="Path 14190" d="M.917,16.454a.506.506,0,0,1-.34-.149,3.372,3.372,0,0,1-.511-2.7A46.086,46.086,0,0,1,1.559,7.771a28.1,28.1,0,0,0,1.383-6.1c.1-1.125.582-1.854,1.079-1.63s.819,1.32.719,2.445a34.771,34.771,0,0,1-1.675,7.657,40.063,40.063,0,0,0-1.3,5.005C1.626,15.96,1.281,16.454.917,16.454Z" transform="translate(0 0)" fill="#afcded"/>
          </g>
          <g id="Group_4082" data-name="Group 4082" transform="translate(676.412 85.706)">
            <path id="Path_14191" data-name="Path 14191" d="M6.348,12.669a.505.505,0,0,1-.34-.149C4.336,11.006,2.974,8.492,1.659,6.061,1.211,5.237.79,4.458.367,3.739A4.046,4.046,0,0,1,.184.831c.3-.918.879-1.1,1.284-.415.453.769.909,1.611,1.35,2.426,1.209,2.232,2.459,4.542,3.871,5.82a3.369,3.369,0,0,1,.511,2.7C7.056,12.175,6.712,12.669,6.348,12.669Z" transform="translate(0 0)" fill="#afcded"/>
          </g>
          <g id="Group_4083" data-name="Group 4083" transform="translate(579.325 108.386)">
            <path id="Path_14192" data-name="Path 14192" d="M11.068,33.226A59.773,59.773,0,0,1,.847,32.345c-.5-.088-.883-1.086-.844-2.231s.479-2,.985-1.911a58.908,58.908,0,0,0,10.08.869C31,29.072,51.552,19.081,70.493.177,70.957-.287,71.5.191,71.7,1.24a3.486,3.486,0,0,1-.47,2.738C52.06,23.113,31.255,33.226,11.068,33.226Z" transform="translate(0 0)" fill="#afcded"/>
          </g>
          <g id="Group_4084" data-name="Group 4084" transform="translate(655.13 94.289)">
            <path id="Path_14193" data-name="Path 14193" d="M.918,9.96c-.279,0-.554-.287-.734-.832A4.044,4.044,0,0,1,.367,6.221,36.392,36.392,0,0,1,4.9.219c.454-.511,1-.1,1.231.93a3.64,3.64,0,0,1-.41,2.786A33.965,33.965,0,0,0,1.468,9.544C1.3,9.824,1.109,9.96.918,9.96Z" transform="translate(0 0)" fill="#afcded"/>
          </g>
          <g id="Group_4085" data-name="Group 4085" transform="translate(705.667 196.29)">
            <path id="Path_14194" data-name="Path 14194" d="M39.62,30.419A92.226,92.226,0,0,1,.734,21.528c-.5-.23-.816-1.327-.715-2.451S.6,17.228,1.1,17.457A91.353,91.353,0,0,0,39.62,26.265c22.587,0,44.2-8.791,64.241-26.127.474-.41,1,.129,1.184,1.2a3.319,3.319,0,0,1-.53,2.681C84.266,21.537,62.431,30.419,39.62,30.419Z" transform="translate(0 0)" fill="#afcded"/>
          </g>
          <g id="Group_4086" data-name="Group 4086" transform="translate(820.291 179.705)">
            <path id="Path_14195" data-name="Path 14195" d="M.917,11.619c-.384,0-.742-.55-.87-1.421a3.158,3.158,0,0,1,.58-2.627A20.762,20.762,0,0,0,4.276,3.366C5.056,2.3,5.863,1.2,6.733.219c.454-.511,1-.1,1.231.929a3.644,3.644,0,0,1-.41,2.788c-.805.911-1.581,1.968-2.331,2.99a22.443,22.443,0,0,1-4.015,4.587A.479.479,0,0,1,.917,11.619Z" transform="translate(0 0)" fill="#afcded"/>
          </g>
          <g id="Group_4087" data-name="Group 4087" transform="translate(657.694 196.291)">
            <path id="Path_14196" data-name="Path 14196" d="M.917,24.887c-.411,0-.785-.631-.889-1.574C-.1,22.2.2,21.071.695,20.794,4.328,18.738,6.049,10.818,7.714,3.16c.147-.678.293-1.35.439-2.012C8.38.123,8.931-.293,9.384.219a3.642,3.642,0,0,1,.41,2.787c-.144.654-.289,1.318-.434,1.988C7.6,13.106,5.6,22.3,1.14,24.824A.445.445,0,0,1,.917,24.887Z" transform="translate(0 0)" fill="#afcded"/>
          </g>
          <g id="Group_4088" data-name="Group 4088" transform="translate(670.145 212.047)">
            <path id="Path_14197" data-name="Path 14197" d="M.917,14.105c-.191,0-.385-.135-.55-.415a4.049,4.049,0,0,1-.183-2.909l3.3-9.95c.3-.918.879-1.1,1.284-.417a4.049,4.049,0,0,1,.184,2.909l-3.3,9.951C1.471,13.819,1.2,14.105.917,14.105Z" transform="translate(0 0)" fill="#afcded"/>
          </g>
          <g id="Group_4089" data-name="Group 4089" transform="translate(679.666 221.999)">
            <path id="Path_14198" data-name="Path 14198" d="M.918,12.447a.477.477,0,0,1-.291-.107,3.158,3.158,0,0,1-.58-2.627A30.916,30.916,0,0,1,.907,5.976a28.122,28.122,0,0,0,.952-4.4C1.982.461,2.48-.215,2.971.062s.79,1.405.667,2.518A34.377,34.377,0,0,1,2.464,8.17a25.758,25.758,0,0,0-.677,2.857C1.66,11.9,1.3,12.447.918,12.447Z" transform="translate(0 0)" fill="#afcded"/>
          </g>
          <g id="Group_4090" data-name="Group 4090" transform="translate(454.216 84.086)">
            <path id="Path_14199" data-name="Path 14199" d="M18.337,20.834a19.4,19.4,0,0,1-6.616-1.268,4.506,4.506,0,0,1-3.054,1.229,10.58,10.58,0,0,1-6.227-1.553A6.6,6.6,0,0,1,0,13.7C0,6.787,7.69,0,15.525,0c4.485,0,8.22.974,10.8,2.816a9.358,9.358,0,0,1,4,7.9C30.33,16.863,25.623,20.834,18.337,20.834Zm-6.723-5.489a.427.427,0,0,1,.151.027,18.709,18.709,0,0,0,6.572,1.307c7.091,0,10.159-3.948,10.159-5.962,0-.691-.569-2.4-2.722-3.939-1.676-1.2-4.815-2.624-10.249-2.624C7.76,4.154,1.834,10.933,1.834,13.7c0,.583,1.216,2.938,6.833,2.938a3.6,3.6,0,0,0,2.586-1.128A.519.519,0,0,1,11.614,15.345Z" fill="#afcded"/>
          </g>
          <g id="Group_4091" data-name="Group 4091" transform="translate(200.082 240.042)">
            <path id="Path_14200" data-name="Path 14200" d="M38.433,40.5A141.057,141.057,0,0,1,.806,35.386c-.5-.139-.861-1.176-.8-2.313s.519-1.949,1.022-1.81a140.227,140.227,0,0,0,37.4,5.082c34.17,0,69.313-12.2,104.452-36.256.485-.329,1,.289,1.143,1.387a3.055,3.055,0,0,1-.612,2.59C108.1,28.241,72.783,40.5,38.433,40.5Z" transform="translate(0 0)" fill="#afcded"/>
          </g>
          <g id="Group_4092" data-name="Group 4092" transform="translate(349.746 222.015)">
            <path id="Path_14201" data-name="Path 14201" d="M.917,11.365C.411,11.365,0,10.436,0,9.288S.411,7.211.917,7.211c1.184,0,1.989-2.253,2.767-4.431.281-.786.546-1.527.83-2.172.358-.812.939-.812,1.3,0a4.147,4.147,0,0,1,0,2.937c-.217.49-.452,1.15-.7,1.847C4.21,7.914,2.977,11.365.917,11.365Z" transform="translate(0 0)" fill="#afcded"/>
          </g>
          <g id="Group_4093" data-name="Group 4093" transform="translate(180.976 265.281)">
            <path id="Path_14202" data-name="Path 14202" d="M.917,26.989c-.444,0-.823-.719-.9-1.707A3.048,3.048,0,0,1,.6,22.966a6.189,6.189,0,0,0,.757-.775,1.177,1.177,0,0,1,.357-.47C4.366,17.963,5.326,10.2,6.185,3.263q.11-.892.219-1.757C6.543.4,7.051-.233,7.538.079a3,3,0,0,1,.63,2.569Q8.06,3.5,7.952,4.385c-.9,7.285-2,16.123-5.176,20.737C2.529,26.362,1.907,26.989.917,26.989Z" transform="translate(0 0)" fill="#afcded"/>
          </g>
          <g id="Group_4094" data-name="Group 4094" transform="translate(0 285.711)">
            <path id="Path_14203" data-name="Path 14203" d="M.917,20.981c-.384,0-.742-.55-.87-1.421a3.164,3.164,0,0,1,.58-2.628C3.69,14.62,4.777,7.485,4.777,2.077,4.777.93,5.187,0,5.694,0s.917.93.917,2.077c0,8.94-2.121,16.318-5.4,18.8A.484.484,0,0,1,.917,20.981Z" transform="translate(0 0)" fill="#afcded"/>
          </g>
          <g id="Group_4095" data-name="Group 4095" transform="translate(9.023 289.317)">
            <path id="Path_14204" data-name="Path 14204" d="M.917,16.173c-.235,0-.469-.2-.648-.609a4.149,4.149,0,0,1,0-2.937A24.45,24.45,0,0,0,2.653,2.077C2.653.93,3.064,0,3.571,0s.917.93.917,2.077A31.567,31.567,0,0,1,1.566,15.564C1.387,15.97,1.152,16.173.917,16.173Z" transform="translate(0)" fill="#afcded"/>
          </g>
          <g id="Group_4096" data-name="Group 4096" transform="translate(106.675 238.841)">
            <path id="Path_14205" data-name="Path 14205" d="M4.47,14.146c-.235,0-.469-.2-.649-.609A77.2,77.2,0,0,1,.154,3.229,3.95,3.95,0,0,1,.409.349C.83-.287,1.4-.03,1.68.925A72.548,72.548,0,0,0,5.119,10.6a4.15,4.15,0,0,1,0,2.938C4.94,13.942,4.705,14.146,4.47,14.146Z" transform="translate(0 0)" fill="#afcded"/>
          </g>
          <g id="Group_4097" data-name="Group 4097" transform="translate(38.743 271.289)">
            <path id="Path_14206" data-name="Path 14206" d="M.916,16.173c-.461,0-.859-.786-.911-1.848-.056-1.14.307-2.167.81-2.294a60.5,60.5,0,0,1,7.547-1.223C15.8,9.922,23.481,9.006,29.621.316c.43-.608,1-.312,1.264.661a3.89,3.89,0,0,1-.292,2.863C24.051,13.1,16.125,14.043,8.459,14.957a59.014,59.014,0,0,0-7.441,1.2A.392.392,0,0,1,.916,16.173Z" transform="translate(0 0)" fill="#afcded"/>
          </g>
          <g id="Group_4098" data-name="Group 4098" transform="translate(77.485 256.868)">
            <path id="Path_14207" data-name="Path 14207" d="M.917,11.365c-.428,0-.811-.683-.9-1.671-.1-1.124.223-2.219.72-2.443C1.9,6.724,2.862,5.362,3.881,3.92,4.994,2.345,6.146.716,7.637.041c.5-.225.98.5,1.079,1.629S8.493,3.888,8,4.113C6.834,4.64,5.872,6,4.853,7.443,3.74,9.019,2.588,10.649,1.1,11.324A.439.439,0,0,1,.917,11.365Z" transform="translate(0 0)" fill="#afcded"/>
          </g>
          <g id="Group_4099" data-name="Group 4099" transform="translate(166.116 260.473)">
            <path id="Path_14208" data-name="Path 14208" d="M1.717,31.857a5.835,5.835,0,0,1-.86-.066C.352,31.717-.031,30.727,0,29.583s.47-2.014.976-1.936a5.078,5.078,0,0,0,.739.056C7.35,27.7,10.7,17.352,13.937,7.342c.711-2.2,1.445-4.468,2.185-6.563.316-.894.894-1.041,1.289-.324a4.084,4.084,0,0,1,.143,2.919C16.839,5.4,16.149,7.537,15.418,9.8,12.072,20.137,8.28,31.857,1.717,31.857Z" transform="translate(0 0)" fill="#afcded"/>
          </g>
          <g id="Group_4100" data-name="Group 4100" transform="translate(364.076 220.814)">
            <path id="Path_14209" data-name="Path 14209" d="M6.755,12.567a.555.555,0,0,1-.41-.22c-.459-.52-.932-1-1.389-1.454A16.849,16.849,0,0,1,.184,3.323,4.046,4.046,0,0,1,.367.415c.405-.687.98-.5,1.284.416A13.929,13.929,0,0,0,5.7,7.1c.476.479.969.973,1.466,1.535a3.641,3.641,0,0,1,.41,2.786C7.415,12.146,7.091,12.567,6.755,12.567Z" transform="translate(0 0)" fill="#afcded"/>
          </g>
          <g id="Group_4101" data-name="Group 4101" transform="translate(399.634 181.604)">
            <path id="Path_14210" data-name="Path 14210" d="M.918,13.318c-.3,0-.587-.324-.764-.924A3.952,3.952,0,0,1,.409,9.513,32.181,32.181,0,0,0,4.134.925C4.415-.03,4.985-.286,5.406.349a3.948,3.948,0,0,1,.255,2.88A36.454,36.454,0,0,1,1.426,12.97.646.646,0,0,1,.918,13.318Z" transform="translate(0 0)" fill="#afcded"/>
          </g>
          <g id="Group_4102" data-name="Group 4102" transform="translate(1130.273 89.863)">
            <path id="Path_14211" data-name="Path 14211" d="M1.589,20.028a3.944,3.944,0,0,1-.748-.071c-.5-.095-.88-1.1-.838-2.242s.488-2.008.991-1.9a3.178,3.178,0,0,0,.6.056c3.51,0,7.038-6.1,8.387-14.5.173-1.08.7-1.635,1.176-1.243A3.262,3.262,0,0,1,11.7,2.788C10.071,12.938,5.913,20.028,1.589,20.028Z" transform="translate(0 0)" fill="#afcded"/>
          </g>
          <g id="Group_4103" data-name="Group 4103" transform="translate(1143.868 103.176)">
            <path id="Path_14212" data-name="Path 14212" d="M.918,10.811c-.3,0-.587-.324-.764-.924A3.955,3.955,0,0,1,.408,7.006,23.977,23.977,0,0,0,3.093.926c.281-.955.85-1.213,1.272-.577A3.952,3.952,0,0,1,4.62,3.23a28.518,28.518,0,0,1-3.193,7.232A.644.644,0,0,1,.918,10.811Z" transform="translate(0 0)" fill="#afcded"/>
          </g>
          <g id="Group_4104" data-name="Group 4104" transform="translate(1169.589 112.329)">
            <path id="Path_14213" data-name="Path 14213" d="M25.514,11.308a113.682,113.682,0,0,1-24.686-3C.324,8.194-.045,7.177,0,6.035s.5-1.983,1-1.864A112.916,112.916,0,0,0,25.514,7.153,68.87,68.87,0,0,0,56.939.049c.5-.248.985.462,1.093,1.582s-.2,2.229-.7,2.475A69.735,69.735,0,0,1,25.514,11.308Z" transform="translate(0 0)" fill="#afcded"/>
          </g>
          <g id="Group_4105" data-name="Group 4105" transform="translate(1237.934 109.834)">
            <path id="Path_14214" data-name="Path 14214" d="M2.629,7.55c-.32,0-.634-.018-.938-.037-.268-.016-.527-.032-.774-.032C.411,7.481,0,6.553,0,5.4S.411,3.327.917,3.327c.261,0,.537.017.822.033s.587.035.89.035c1.312,0,2.638-.317,3.45-2.616C6.4-.115,6.973-.262,7.369.454a4.088,4.088,0,0,1,.143,2.92C6.2,7.075,4.216,7.55,2.629,7.55Z" transform="translate(0 0)" fill="#afcded"/>
          </g>
          <g id="Group_4106" data-name="Group 4106" transform="translate(1254.836 113.161)">
            <path id="Path_14215" data-name="Path 14215" d="M3.122,15.8c-.235,0-.469-.2-.648-.609C.808,11.422.406,6.878.018,2.485-.081,1.359.241.265.737.04s.981.5,1.08,1.63c.35,3.961.681,7.7,1.954,10.588a4.148,4.148,0,0,1,0,2.937C3.592,15.6,3.357,15.8,3.122,15.8Z" transform="translate(0 0)" fill="#afcded"/>
          </g>
          <g id="Group_4107" data-name="Group 4107" transform="translate(1211.478 254.614)">
            <path id="Path_14216" data-name="Path 14216" d="M32.287,10.14C25.171,10.14,17.9,8.8,10.869,7.514,7.571,6.908,4.161,6.281.86,5.815.354,5.743-.03,4.757,0,3.613s.469-2.02.972-1.944c3.318.47,6.736,1.1,10.043,1.7,6.994,1.285,14.227,2.613,21.27,2.613,8.365,0,15.449-1.933,21.66-5.907.487-.313.995.329,1.132,1.434a2.984,2.984,0,0,1-.633,2.563C48.071,8.157,40.822,10.14,32.287,10.14Z" transform="translate(0 0)" fill="#afcded"/>
          </g>
          <g id="Group_4108" data-name="Group 4108" transform="translate(1274.678 249.621)">
            <path id="Path_14217" data-name="Path 14217" d="M.918,9.146C.411,9.146,0,8.217,0,7.069S.411,4.993.918,4.993c2.054,0,4.165-2.51,5.775-4.7.435-.59,1-.272,1.259.712a3.849,3.849,0,0,1-.314,2.85C5.823,6.321,3.422,9.146.918,9.146Z" transform="translate(0 0)" fill="#afcded"/>
          </g>
          <g id="Group_4109" data-name="Group 4109" transform="translate(1290.846 247.957)">
            <path id="Path_14218" data-name="Path 14218" d="M6.061,21.627a.673.673,0,0,1-.533-.386A35.974,35.974,0,0,1,0,2.077C0,.929.411,0,.917,0s.917.929.917,2.077A29.4,29.4,0,0,0,6.595,17.86a4.013,4.013,0,0,1,.213,2.9C6.629,21.325,6.347,21.627,6.061,21.627Z" transform="translate(0 0)" fill="#afcded"/>
          </g>
          <g id="Group_4110" data-name="Group 4110" transform="translate(1286.729 260.437)">
            <path id="Path_14219" data-name="Path 14219" d="M2.094,12.476c-.385,0-.743-.55-.87-1.421C1.136,10.461.976,9.784.8,9.066A23.453,23.453,0,0,1,0,3.426,16.872,16.872,0,0,1,.1,1.574C.225.46.723-.216,1.214.063S2,1.468,1.881,2.582a7.63,7.63,0,0,0-.047.845A16.087,16.087,0,0,0,2.422,7.1c.2.84.405,1.709.543,2.642a3.159,3.159,0,0,1-.581,2.626A.476.476,0,0,1,2.094,12.476Z" transform="translate(0 0)" fill="#afcded"/>
          </g>
          <g id="Group_4111" data-name="Group 4111" transform="translate(1160.403 231.06)">
            <path id="Path_14220" data-name="Path 14220" d="M.917,11.9C.411,11.9,0,10.969,0,9.821S.411,7.743.917,7.743c1.832,0,3-2.771,4.244-5.706.206-.488.41-.968.613-1.429.358-.812.939-.812,1.3,0a4.145,4.145,0,0,1,0,2.937c-.194.44-.388.9-.585,1.365C5.171,8.024,3.533,11.9.917,11.9Z" transform="translate(0 0)" fill="#afcded"/>
          </g>
          <g id="Group_4112" data-name="Group 4112" transform="translate(1332.734 178.895)">
            <path id="Path_14221" data-name="Path 14221" d="M1.858,9.355a2.689,2.689,0,0,1-1.12-.249C.24,8.882-.081,7.788.018,6.663S.6,4.81,1.1,5.033a1.837,1.837,0,0,0,.761.168c1.059,0,2.477-1.021,2.985-3.894C5.03.241,5.565-.278,6.034.15a3.367,3.367,0,0,1,.511,2.7C5.847,6.8,4.007,9.355,1.858,9.355Z" transform="translate(0 0)" fill="#afcded"/>
          </g>
          <g id="Group_4113" data-name="Group 4113" transform="translate(1362.497 198.865)">
            <path id="Path_14222" data-name="Path 14222" d="M17.641,6.818A48.861,48.861,0,0,1,7.448,5.368C5.3,4.907,3.087,4.43.866,4.151.361,4.087-.027,3.107,0,1.962S.466-.064.968,0C3.224.287,5.46.767,7.621,1.232a47.5,47.5,0,0,0,10.02,1.431,21.773,21.773,0,0,0,2.7-.164c.508-.069.938.813.967,1.958s-.359,2.126-.865,2.189A22.411,22.411,0,0,1,17.641,6.818Z" transform="translate(0 0)" fill="#afcded"/>
          </g>
          <g id="Group_4114" data-name="Group 4114" transform="translate(1389.687 201.36)">
            <path id="Path_14223" data-name="Path 14223" d="M.916,4.988c-.411,0-.785-.63-.889-1.574C-.1,2.3.2,1.174.695.9A2.475,2.475,0,0,1,1.964.584,7.237,7.237,0,0,1,3,.684a6.7,6.7,0,0,0,.948.093A1.632,1.632,0,0,0,5.283.221c.453-.515,1-.1,1.231.927A3.641,3.641,0,0,1,6.1,3.936a2.693,2.693,0,0,1-2.153.994,7.482,7.482,0,0,1-1.066-.1,6.634,6.634,0,0,0-.922-.092,1.6,1.6,0,0,0-.824.188A.457.457,0,0,1,.916,4.988Z" transform="translate(0 0)" fill="#afcded"/>
          </g>
          <g id="Group_4115" data-name="Group 4115" transform="translate(1411.734 195.537)">
            <path id="Path_14224" data-name="Path 14224" d="M3.49,16.635c-.235,0-.47-.2-.649-.608C1.492,12.969.542,8.413.018,2.484-.081,1.359.241.264.738.04s.98.5,1.079,1.629c.31,3.513.965,8.347,2.322,11.419a4.151,4.151,0,0,1,0,2.938C3.959,16.431,3.724,16.635,3.49,16.635Z" transform="translate(0 0)" fill="#afcded"/>
          </g>
          <g id="Group_4116" data-name="Group 4116" transform="translate(1408.427 205.522)">
            <path id="Path_14225" data-name="Path 14225" d="M.917,11.643C.411,11.643,0,10.713,0,9.566V2.077C0,.93.411,0,.917,0s.917.93.917,2.077V9.566C1.835,10.713,1.424,11.643.917,11.643Z" fill="#afcded"/>
          </g>
          <g id="Group_4117" data-name="Group 4117" transform="translate(1489.999 197.2)">
            <path id="Path_14226" data-name="Path 14226" d="M2.829,11.176A3.123,3.123,0,0,1,.462,9.708,3.8,3.8,0,0,1,.121,6.872c.251-.995.812-1.34,1.251-.773a1.944,1.944,0,0,0,1.457.922c1.581,0,3.071-3.148,3.939-6.1C7.049-.029,7.618-.288,8.04.35a3.948,3.948,0,0,1,.254,2.88C6.83,8.206,4.786,11.176,2.829,11.176Z" transform="translate(0 0)" fill="#afcded"/>
          </g>
          <g id="Group_4118" data-name="Group 4118" transform="translate(1497.348 211.345)">
            <path id="Path_14227" data-name="Path 14227" d="M.917,9.148c-.235,0-.469-.2-.649-.608a4.159,4.159,0,0,1,0-2.937,13.193,13.193,0,0,1,1.1-1.948A9.438,9.438,0,0,0,2.726.926C3.006-.029,3.575-.288,4,.35A3.948,3.948,0,0,1,4.252,3.23,13.222,13.222,0,0,1,2.4,7.094a10.262,10.262,0,0,0-.837,1.445C1.386,8.945,1.151,9.148.917,9.148Z" transform="translate(0 0)" fill="#afcded"/>
          </g>
          <g id="Group_4119" data-name="Group 4119" transform="translate(1538.135 233.812)">
            <path id="Path_14228" data-name="Path 14228" d="M76.853,18.826c-22.384,0-46.556-4.669-76.071-14.7C.281,3.96-.065,2.9.01,1.768S.553-.147,1.053.023c29.423,9.993,53.509,14.649,75.8,14.649,4.242,0,8.476-.177,12.584-.525.5-.036.931.851.951,2s-.377,2.11-.883,2.153C85.375,18.649,81.118,18.826,76.853,18.826Z" transform="translate(0 0)" fill="#afcded"/>
          </g>
          <g id="Group_4120" data-name="Group 4120" transform="translate(1635.507 243.796)">
            <path id="Path_14229" data-name="Path 14229" d="M.917,7.483C.411,7.483,0,6.553,0,5.406S.411,3.329.917,3.329c.685,0,1.455-.785,2.269-1.614A9.592,9.592,0,0,1,5.1.063c.491-.279.989.4,1.112,1.511S6.04,3.815,5.549,4.093A8.446,8.446,0,0,0,3.939,5.5C2.984,6.476,2,7.483.917,7.483Z" transform="translate(0 0)" fill="#afcded"/>
          </g>
          <g id="Group_4121" data-name="Group 4121" transform="translate(1645.79 240.469)">
            <path id="Path_14230" data-name="Path 14230" d="M1.6,5.951a1.993,1.993,0,0,1-.549-.1,1,1,0,0,0-.138-.036C.405,5.817,0,4.887,0,3.74S.416,1.663.922,1.663a1.319,1.319,0,0,1,.361.069c.067.02.137.04.2.053C1.546.776,1.93,0,2.392,0c.507,0,.917.929.917,2.077C3.309,4.43,2.638,5.951,1.6,5.951Z" fill="#afcded"/>
          </g>
          <g id="Group_4122" data-name="Group 4122" transform="translate(1793.875 257.941)">
            <path id="Path_14231" data-name="Path 14231" d="M23.625,12.5c-7.7,0-15.823-.66-23.1-8.544A3.587,3.587,0,0,1,.09,1.181C.308.147.856-.292,1.313.2c6.934,7.51,14.823,8.138,22.312,8.138.695,0,1.387-.005,2.076-.01s1.364-.009,2.04-.009c.506,0,.917.929.917,2.077s-.411,2.077-.917,2.077q-1.011,0-2.034.01C25.016,12.491,24.321,12.5,23.625,12.5Z" transform="translate(0 0)" fill="#afcded"/>
          </g>
          <g id="Group_4123" data-name="Group 4123" transform="translate(1841.275 269.59)">
            <path id="Path_14232" data-name="Path 14232" d="M2.754,12.477c-.411,0-.785-.631-.889-1.574A19.111,19.111,0,0,0,1.073,7.39,25.9,25.9,0,0,1,.028,2.582C-.1,1.468.2.34.695.063s.989.4,1.113,1.511A19.072,19.072,0,0,0,2.6,5.086,25.909,25.909,0,0,1,3.645,9.9c.122,1.113-.176,2.241-.668,2.519A.455.455,0,0,1,2.754,12.477Z" transform="translate(0 0)" fill="#afcded"/>
          </g>
          <g id="Group_4124" data-name="Group 4124" transform="translate(1834.293 277.913)">
            <path id="Path_14233" data-name="Path 14233" d="M.918,10.81C.411,10.81,0,9.88,0,8.733V2.077C0,.929.411,0,.918,0s.917.929.917,2.077V8.733C1.835,9.88,1.425,10.81.918,10.81Z" transform="translate(0 0)" fill="#afcded"/>
          </g>
          <g id="Group_4125" data-name="Group 4125" transform="translate(1861.852 242.966)">
            <path id="Path_14234" data-name="Path 14234" d="M20.025,10.81a.461.461,0,0,1-.259-.085C14.923,7.5,9.794,6.294,4.833,5.127,3.509,4.815,2.139,4.494.81,4.139c-.5-.133-.863-1.165-.8-2.3S.525-.117,1.025.014C2.341.365,3.7.685,5.023,1,10.066,2.18,15.279,3.407,20.283,6.74A3.025,3.025,0,0,1,20.9,9.319C20.787,10.224,20.421,10.81,20.025,10.81Z" transform="translate(0 0)" fill="#afcded"/>
          </g>
          <g id="Group_4126" data-name="Group 4126" transform="translate(1865.894 264.6)">
            <path id="Path_14235" data-name="Path 14235" d="M8.909,6.77A.6.6,0,0,1,8.455,6.5c-1.52-1.968-3.184-2-4.944-2.035A9.262,9.262,0,0,1,.788,4.133c-.5-.163-.85-1.215-.779-2.35S.548-.138,1.048.02A8.511,8.511,0,0,0,3.527.307c1.829.036,3.9.077,5.839,2.582a3.8,3.8,0,0,1,.342,2.834C9.537,6.393,9.228,6.77,8.909,6.77Z" transform="translate(0 0)" fill="#afcded"/>
          </g>
          <g id="Group_4127" data-name="Group 4127" transform="translate(1640.284 135.627)">
            <path id="Path_14236" data-name="Path 14236" d="M65.956,34.11a.444.444,0,0,1-.184-.043L.735,4.113c-.5-.229-.818-1.325-.716-2.449S.6-.187,1.1.042L66.138,30c.5.229.817,1.325.716,2.449C66.766,33.431,66.383,34.11,65.956,34.11Z" transform="translate(0 0)" fill="#afcded"/>
          </g>
          <g id="Group_4128" data-name="Group 4128" transform="translate(1715.242 171.406)">
            <path id="Path_14237" data-name="Path 14237" d="M4.591,4.154H.917C.411,4.154,0,3.225,0,2.077S.411,0,.917,0H4.591c.506,0,.917.93.917,2.077S5.1,4.154,4.591,4.154Z" transform="translate(0 0)" fill="#afcded"/>
          </g>
          <g id="Group_4129" data-name="Group 4129" transform="translate(1266.594 22.467)">
            <path id="Path_14238" data-name="Path 14238" d="M71.468,21.627a.411.411,0,0,1-.1-.012L.817,4.14c-.5-.125-.867-1.15-.812-2.291S.516-.1,1.018.011L71.566,17.484c.5.125.868,1.15.813,2.291C72.327,20.838,71.929,21.627,71.468,21.627Z" transform="translate(0 0)" fill="#afcded"/>
          </g>
          <g id="Group_4130" data-name="Group 4130" transform="translate(1345.594 39.94)">
            <path id="Path_14239" data-name="Path 14239" d="M7.163,4.154H.917C.411,4.154,0,3.224,0,2.077S.411,0,.917,0H7.163c.507,0,.917.929.917,2.077S7.67,4.154,7.163,4.154Z" fill="#afcded"/>
          </g>
          <g id="Group_4131" data-name="Group 4131" transform="translate(651.862 0.001)">
            <path id="Path_14240" data-name="Path 14240" d="M.916,14.97c-.483,0-.887-.855-.915-1.96-.029-1.146.358-2.127.864-2.191L85.745,0c.5-.057.939.811.967,1.956s-.358,2.127-.864,2.191L.969,14.967A.451.451,0,0,1,.916,14.97Z" transform="translate(0 0)" fill="#afcded"/>
          </g>
          <g id="Group_4132" data-name="Group 4132" transform="translate(745.193 0)">
            <path id="Path_14241" data-name="Path 14241" d="M6.8,4.154H.917C.411,4.154,0,3.224,0,2.077S.411,0,.917,0H6.8c.507,0,.917.93.917,2.077S7.3,4.154,6.8,4.154Z" fill="#afcded"/>
          </g>
          <g id="Group_4133" data-name="Group 4133" transform="translate(607.677 310.925)">
            <path id="Path_14242" data-name="Path 14242" d="M35.285,49.74c-9.265,0-17.987-2.4-24.559-6.76C3.709,38.327,0,32.065,0,24.87S3.709,11.413,10.726,6.759C17.3,2.4,26.021,0,35.285,0s17.987,2.4,24.56,6.759C66.861,11.413,70.57,17.676,70.57,24.87S66.861,38.327,59.845,42.98C53.272,47.339,44.55,49.74,35.285,49.74Zm0-45.585c-19.713,0-33.45,10.918-33.45,20.715s13.738,20.716,33.45,20.716S68.736,34.669,68.736,24.87,55,4.154,35.285,4.154Z" fill="#afcded"/>
          </g>
          <g id="Group_4134" data-name="Group 4134" transform="translate(106.675 356.479)">
            <path id="Path_14243" data-name="Path 14243" d="M11.266,31.131C5.135,31.131.4,28.9.023,23.222-.583,14.067,10.814,5.929,21.661,2.241s22.8-3.487,23.4,5.669c.277,4.181-1.867,8.341-6.373,12.361A45.188,45.188,0,0,1,23.428,28.89,39.066,39.066,0,0,1,11.266,31.131Zm22.3-26.938A36.554,36.554,0,0,0,21.933,6.348C8.535,10.9,1.63,19.476,1.838,22.6s7.92,6.731,21.318,2.177A44,44,0,0,0,38.02,16.406c4.457-3.976,5.287-7.037,5.231-7.88C43.114,6.463,39.712,4.193,33.569,4.193Z" transform="translate(0 0)" fill="#afcded"/>
          </g>
          <g id="Group_4135" data-name="Group 4135" transform="translate(1038.423 65.123)">
            <path id="Path_14244" data-name="Path 14244" d="M20.25,36.831C8.705,36.831,0,28.915,0,18.415S8.705,0,20.25,0,40.5,7.917,40.5,18.415,31.793,36.831,20.25,36.831Zm0-32.677C9.4,4.154,1.834,11.669,1.834,18.415S9.4,32.677,20.25,32.677s18.414-7.517,18.414-14.262S31.1,4.154,20.25,4.154Z" fill="#afcded"/>
          </g>
          <g id="Group_4136" data-name="Group 4136" transform="translate(1442.134 284.568)">
            <path id="Path_14245" data-name="Path 14245" d="M15.643,30.512C6.725,30.512,0,23.953,0,15.256S6.725,0,15.643,0,31.286,6.559,31.286,15.256,24.561,30.512,15.643,30.512Zm0-26.357c-8.138,0-13.809,5.85-13.809,11.1s5.671,11.1,13.809,11.1,13.808-5.851,13.808-11.1S23.78,4.155,15.643,4.155Z" fill="#afcded"/>
          </g>
          <g id="Group_4137" data-name="Group 4137" transform="translate(1681.256 321.921)">
            <path id="Path_14246" data-name="Path 14246" d="M62.161,43.525c-7.029,0-15.85-1.745-25.084-4.979A96.913,96.913,0,0,1,10.858,24.913C-.5,16.214-.093,10.323.039,8.388S.574.56,12.557.035c7.282-.31,16.8,1.437,26.812,4.943A96.911,96.911,0,0,1,65.588,18.61c11.353,8.7,10.952,14.59,10.818,16.527s-.534,7.827-12.518,8.352Q63.044,43.525,62.161,43.525ZM14.291,4.153q-.869,0-1.7.036C4.027,4.564,1.935,7.805,1.852,9.023S3.33,14.76,11.446,20.979A95.82,95.82,0,0,0,37.357,34.441c9.906,3.47,19.316,5.213,26.5,4.894,8.566-.375,10.658-3.616,10.741-4.834S73.116,28.763,65,22.545A95.773,95.773,0,0,0,39.089,9.083C29.945,5.88,21.225,4.153,14.291,4.153Z" transform="translate(0 0)" fill="#afcded"/>
          </g>
        </g>
      </g>
    </g>
    <g id="Group_7040" data-name="Group 7040" transform="translate(0 10796.34)">
      <path id="Path_14168-2" data-name="Path 14168" d="M1920,258.072l-2.646,236.542H0V263.868C649.25-84.068,1270.75-89.864,1920,258.072Z" transform="translate(0 0)" fill="#fff"/>
      <g id="Group_4078-2" data-name="Group 4078" transform="translate(43.367 81.868)">
        <path id="Path_14169-2" data-name="Path 14169" d="M81.208,5.819C36.24,18.549,0,48.413,0,70.612,0,92.862,36.24,99.034,81.208,86.3c44.961-12.78,81.6-39.629,81.6-61.878C162.814,2.223,126.169-6.959,81.208,5.819Z" transform="translate(179.695 122.572)" fill="#afcded"/>
        <path id="Path_14170-2" data-name="Path 14170" d="M24.107,1.057C10.787,3.9,0,11.629,0,18.159s10.786,9.393,24.107,6.551S48.241,14.392,48.241,7.858,37.428-1.791,24.107,1.057Z" transform="translate(393.065 95.894)" fill="#afcded"/>
        <path id="Path_14171-2" data-name="Path 14171" d="M72.863,1.36C32.574,6.967,0,28.619,0,48.232c0,19.65,32.574,29.827,72.863,24.221,40.287-5.646,73.018-24.948,73.016-44.6C145.882,8.243,113.15-4.285,72.863,1.36Z" transform="translate(513.547 0)" fill="#afcded"/>
        <path id="Path_14172-2" data-name="Path 14172" d="M83.677.429C37.427,3.762,0,26.23,0,48.664c0,22.485,37.427,36.431,83.677,33.1,46.248-3.382,83.783-22.774,83.781-45.258C167.46,14.071,129.925-2.951,83.677.429Z" transform="translate(659.427 73.692)" fill="#afcded"/>
        <path id="Path_14173-2" data-name="Path 14173" d="M105.933,33.271C105.933,19.044,82.254,4.116,53,.709,23.747-2.72,0,6.667,0,20.893,0,35.137,23.747,48.831,53,52.259,82.255,55.666,105.932,47.515,105.933,33.271Z" transform="translate(1136.093 10.606)" fill="#afcded"/>
        <path id="Path_14174-2" data-name="Path 14174" d="M75.482,5.353C33.884-6.4,0,2.034,0,22.572,0,43.15,33.884,68.043,75.482,79.8c41.6,11.712,75.146,5.854,75.148-14.727C150.628,44.536,117.085,17.067,75.482,5.353Z" transform="translate(1488.848 112.689)" fill="#afcded"/>
        <path id="Path_14175-2" data-name="Path 14175" d="M35.439,4.621C15.9-3,0-.927,0,8.885s15.9,23.66,35.439,31.282,35.334,6.126,35.335-3.7S54.984,12.235,35.439,4.621Z" transform="translate(1757.85 164.051)" fill="#afcded"/>
        <path id="Path_14176-2" data-name="Path 14176" d="M34.788,1.246C15.589-2.464,0,2.417,0,11.808S15.589,31.562,34.788,35.271s34.741-.64,34.742-10.04S53.99,4.951,34.788,1.246Z" transform="translate(1330.177 109.907)" fill="#afcded"/>
        <path id="Path_14177-2" data-name="Path 14177" d="M44.388,5.659C19.825,15.116,0,33.243,0,45.562s19.826,14.187,44.388,4.731c24.558-9.473,44.551-26.671,44.549-39.006C88.939-1.03,68.947-3.813,44.388,5.659Z" transform="translate(0 172.248)" fill="#afcded"/>
        <path id="Path_14178-2" data-name="Path 14178" d="M59.293.968C26.571-3.292,0,6.958,0,22.88c0,15.948,26.571,31.536,59.293,35.8,32.725,4.236,59.2-4.466,59.2-20.414C118.493,22.341,92.017,5.2,59.293.968Z" transform="translate(1160 144.131)" fill="#afcded"/>
      </g>
      <g id="Group_4079-2" data-name="Group 4079" transform="translate(50.272 98.368)">
        <path id="Path_14179-2" data-name="Path 14179" d="M35.782,79c-11.46,0-20.949-1.89-27.443-5.462C1.743,69.906,0,65.506,0,63.685,0,59.562,4.538,48.1,21.71,34.263,37.018,21.925,57.2,11.805,78.53,5.765A142.827,142.827,0,0,1,116.787,0c12.458,0,22.948,2.169,30.336,6.272,7.571,4.207,9.571,9.18,9.57,11.224,0,3.992-4.563,14.956-21.842,27.921-15.031,11.279-35.3,20.9-57.081,27.09C62.776,76.753,48.256,79,35.784,79Z" transform="translate(179.501 122.572)" fill="#fff"/>
        <path id="Path_14180-2" data-name="Path 14180" d="M9.279,11.959A22.07,22.07,0,0,1,0,10.313C3.282,7.152,9.9,3.041,19.346,1.025A44.187,44.187,0,0,1,28.527,0a22.032,22.032,0,0,1,9.622,1.8c-3.253,3.086-9.8,7.049-19.377,9.1a45.718,45.718,0,0,1-9.491,1.066Z" transform="translate(394.862 95.893)" fill="#fff"/>
        <path id="Path_14181-2" data-name="Path 14181" d="M48.46,60.136c-14.486,0-27.381-2.385-36.311-6.712C2.232,48.615,0,42.923,0,41.308c0-2.493,3.511-11.895,19.109-22.033,13.7-8.9,31.766-15.268,50.884-17.928A136.289,136.289,0,0,1,88.847,0c14.889,0,28.373,2.7,37.966,7.6,10.754,5.5,12.952,11.907,12.951,13.323,0,2.416-3.514,11.426-19.131,20.863-13.445,8.125-31.563,14.1-51.017,16.828a154.318,154.318,0,0,1-21.152,1.517Z" transform="translate(513.354)" fill="#fff"/>
        <path id="Path_14182-2" data-name="Path 14182" d="M67.18,68.4c-19.362,0-36.922-3.215-49.445-9.054C3.186,52.566,0,44.337,0,41.738,0,38.509,3.988,27.8,22.2,17.164,37.979,7.952,58.761,2.008,80.717.426,84.58.143,88.468,0,92.276,0c19.46,0,37.455,3.69,50.67,10.391,15.092,7.654,18.4,16.446,18.4,19.187,0,1.884-1.3,5.617-4.948,9.951-3.919,4.65-9.881,9.182-17.242,13.1-15.424,8.219-36.247,13.648-58.632,15.284-4.481.323-8.969.486-13.339.486Z" transform="translate(659.233 73.691)" fill="#fff"/>
        <path id="Path_14183-2" data-name="Path 14183" d="M62.827,39.184a111.091,111.091,0,0,1-12.809-.763C36.708,36.861,24.1,33.084,14.528,27.788,3.033,21.429.477,15.511,0,14.036c.461-1.2,2.6-5.394,10.759-9.061C17.9,1.766,27.558,0,37.962,0A101.211,101.211,0,0,1,49.7.7c13.189,1.537,25.8,5.518,35.5,11.212,11.466,6.728,13.983,12.822,14.449,14.337-.464,1.151-2.572,5.1-10.427,8.441-6.917,2.94-16.045,4.494-26.4,4.494Z" transform="translate(1135.98 10.606)" fill="#fff"/>
        <path id="Path_14184-2" data-name="Path 14184" d="M111.344,71.918c-11.477,0-24.8-2.046-38.542-5.913C52.687,60.32,33.951,51.439,20.045,41,3.6,28.65,0,18.515,0,15.652,0,14.335,1.595,9.7,8.68,5.776,15.5,2,25.184,0,36.7,0A132.665,132.665,0,0,1,72.046,5.3c19.735,5.557,38.391,14.865,52.531,26.208,16.355,13.119,19.937,23.68,19.938,26.643,0,2.728-5.908,13.767-33.166,13.767Z" transform="translate(1488.654 112.688)" fill="#fff"/>
        <path id="Path_14185-2" data-name="Path 14185" d="M53.79,31.153c-6.015,0-13.645-1.681-21.482-4.734A86.271,86.271,0,0,1,9.243,13.161C3.809,8.672,1.129,4.9,0,2.727,1.406,1.524,4.546,0,10.433,0c6.05,0,13.255,1.563,20.837,4.52A82.47,82.47,0,0,1,54.3,18.041c5.391,4.6,8.05,8.446,9.171,10.66-1.22,1.018-3.955,2.452-9.68,2.452Z" transform="translate(1758.249 164.05)" fill="#fff"/>
        <path id="Path_14186-2" data-name="Path 14186" d="M44.11,22.741A67.986,67.986,0,0,1,31.3,21.449,69.135,69.135,0,0,1,8.976,13.175C3.587,9.889,1.1,6.969,0,5.263,2.2,3.009,8.057,0,18.595,0A64.51,64.51,0,0,1,30.778,1.221,66.2,66.2,0,0,1,53.089,9.729c5.069,3.2,7.726,6.227,8.935,8.117-2.008,1.983-7.255,4.9-17.913,4.9Z" transform="translate(1330.677 109.907)" fill="#fff"/>
        <path id="Path_14187-2" data-name="Path 14187" d="M13.565,42.437c-8.681,0-12.427-2.7-13.565-4.282.8-2.431,3.859-8.052,11.993-15.11A102.418,102.418,0,0,1,41.649,5.56C51.082,1.922,60.083,0,67.683,0c9.538,0,13.573,3.044,14.752,4.79-.811,2.374-3.907,7.862-12.107,14.706A108.186,108.186,0,0,1,40.623,36.544C30.611,40.4,21.254,42.437,13.569,42.437Z" transform="translate(0 172.247)" fill="#fff"/>
        <path id="Path_14188-2" data-name="Path 14188" d="M72.278,45.9A124.367,124.367,0,0,1,56.4,44.84c-15.235-1.983-29.573-6.51-40.373-12.746C3.76,25.014.3,18.061,0,15.992c.317-1.551,2.966-6.368,11.506-10.35C19.311,2,30,0,41.616,0A112,112,0,0,1,56.049.957C71.122,2.907,85.463,7.7,96.43,14.451c12.2,7.51,15.621,14.68,15.923,16.823-.2.734-1.822,5.513-11.062,9.581C93.8,44.152,83.768,45.9,72.28,45.9Z" transform="translate(1159.818 144.131)" fill="#fff"/>
      </g>
      <g id="Group_4138-2" data-name="Group 4138" transform="translate(32.771 25.274)">
        <g id="Group_4080-2" data-name="Group 4080" transform="translate(514.326 111.248)">
          <path id="Path_14189-2" data-name="Path 14189" d="M.918,18.343c-.3,0-.587-.325-.764-.925a3.948,3.948,0,0,1,.255-2.88C2.074,12.024,3.137,8.61,4.262,4.995c.436-1.4.887-2.848,1.37-4.216.316-.9.894-1.04,1.289-.325a4.088,4.088,0,0,1,.143,2.92c-.448,1.269-.864,2.6-1.3,4.014-1.173,3.767-2.385,7.662-4.335,10.606A.646.646,0,0,1,.918,18.343Z" transform="translate(0 0)" fill="#afcded"/>
        </g>
        <g id="Group_4081-2" data-name="Group 4081" transform="translate(523.099 120.707)">
          <path id="Path_14190-2" data-name="Path 14190" d="M.917,16.454a.506.506,0,0,1-.34-.149,3.372,3.372,0,0,1-.511-2.7A46.086,46.086,0,0,1,1.559,7.771a28.1,28.1,0,0,0,1.383-6.1c.1-1.125.582-1.854,1.079-1.63s.819,1.32.719,2.445a34.771,34.771,0,0,1-1.675,7.657,40.063,40.063,0,0,0-1.3,5.005C1.626,15.96,1.281,16.454.917,16.454Z" transform="translate(0 0)" fill="#afcded"/>
        </g>
        <g id="Group_4082-2" data-name="Group 4082" transform="translate(676.412 85.706)">
          <path id="Path_14191-2" data-name="Path 14191" d="M6.348,12.669a.505.505,0,0,1-.34-.149C4.336,11.006,2.974,8.492,1.659,6.061,1.211,5.237.79,4.458.367,3.739A4.046,4.046,0,0,1,.184.831c.3-.918.879-1.1,1.284-.415.453.769.909,1.611,1.35,2.426,1.209,2.232,2.459,4.542,3.871,5.82a3.369,3.369,0,0,1,.511,2.7C7.056,12.175,6.712,12.669,6.348,12.669Z" transform="translate(0 0)" fill="#afcded"/>
        </g>
        <g id="Group_4083-2" data-name="Group 4083" transform="translate(579.325 108.386)">
          <path id="Path_14192-2" data-name="Path 14192" d="M11.068,33.226A59.773,59.773,0,0,1,.847,32.345c-.5-.088-.883-1.086-.844-2.231s.479-2,.985-1.911a58.908,58.908,0,0,0,10.08.869C31,29.072,51.552,19.081,70.493.177,70.957-.287,71.5.191,71.7,1.24a3.486,3.486,0,0,1-.47,2.738C52.06,23.113,31.255,33.226,11.068,33.226Z" transform="translate(0 0)" fill="#afcded"/>
        </g>
        <g id="Group_4084-2" data-name="Group 4084" transform="translate(655.13 94.289)">
          <path id="Path_14193-2" data-name="Path 14193" d="M.918,9.96c-.279,0-.554-.287-.734-.832A4.044,4.044,0,0,1,.367,6.221,36.392,36.392,0,0,1,4.9.219c.454-.511,1-.1,1.231.93a3.64,3.64,0,0,1-.41,2.786A33.965,33.965,0,0,0,1.468,9.544C1.3,9.824,1.109,9.96.918,9.96Z" transform="translate(0 0)" fill="#afcded"/>
        </g>
        <g id="Group_4085-2" data-name="Group 4085" transform="translate(705.667 196.29)">
          <path id="Path_14194-2" data-name="Path 14194" d="M39.62,30.419A92.226,92.226,0,0,1,.734,21.528c-.5-.23-.816-1.327-.715-2.451S.6,17.228,1.1,17.457A91.353,91.353,0,0,0,39.62,26.265c22.587,0,44.2-8.791,64.241-26.127.474-.41,1,.129,1.184,1.2a3.319,3.319,0,0,1-.53,2.681C84.266,21.537,62.431,30.419,39.62,30.419Z" transform="translate(0 0)" fill="#afcded"/>
        </g>
        <g id="Group_4086-2" data-name="Group 4086" transform="translate(820.291 179.705)">
          <path id="Path_14195-2" data-name="Path 14195" d="M.917,11.619c-.384,0-.742-.55-.87-1.421a3.158,3.158,0,0,1,.58-2.627A20.762,20.762,0,0,0,4.276,3.366C5.056,2.3,5.863,1.2,6.733.219c.454-.511,1-.1,1.231.929a3.644,3.644,0,0,1-.41,2.788c-.805.911-1.581,1.968-2.331,2.99a22.443,22.443,0,0,1-4.015,4.587A.479.479,0,0,1,.917,11.619Z" transform="translate(0 0)" fill="#afcded"/>
        </g>
        <g id="Group_4087-2" data-name="Group 4087" transform="translate(657.694 196.291)">
          <path id="Path_14196-2" data-name="Path 14196" d="M.917,24.887c-.411,0-.785-.631-.889-1.574C-.1,22.2.2,21.071.695,20.794,4.328,18.738,6.049,10.818,7.714,3.16c.147-.678.293-1.35.439-2.012C8.38.123,8.931-.293,9.384.219a3.642,3.642,0,0,1,.41,2.787c-.144.654-.289,1.318-.434,1.988C7.6,13.106,5.6,22.3,1.14,24.824A.445.445,0,0,1,.917,24.887Z" transform="translate(0 0)" fill="#afcded"/>
        </g>
        <g id="Group_4088-2" data-name="Group 4088" transform="translate(670.145 212.047)">
          <path id="Path_14197-2" data-name="Path 14197" d="M.917,14.105c-.191,0-.385-.135-.55-.415a4.049,4.049,0,0,1-.183-2.909l3.3-9.95c.3-.918.879-1.1,1.284-.417a4.049,4.049,0,0,1,.184,2.909l-3.3,9.951C1.471,13.819,1.2,14.105.917,14.105Z" transform="translate(0 0)" fill="#afcded"/>
        </g>
        <g id="Group_4089-2" data-name="Group 4089" transform="translate(679.666 221.999)">
          <path id="Path_14198-2" data-name="Path 14198" d="M.918,12.447a.477.477,0,0,1-.291-.107,3.158,3.158,0,0,1-.58-2.627A30.916,30.916,0,0,1,.907,5.976a28.122,28.122,0,0,0,.952-4.4C1.982.461,2.48-.215,2.971.062s.79,1.405.667,2.518A34.377,34.377,0,0,1,2.464,8.17a25.758,25.758,0,0,0-.677,2.857C1.66,11.9,1.3,12.447.918,12.447Z" transform="translate(0 0)" fill="#afcded"/>
        </g>
        <g id="Group_4090-2" data-name="Group 4090" transform="translate(454.216 84.086)">
          <path id="Path_14199-2" data-name="Path 14199" d="M18.337,20.834a19.4,19.4,0,0,1-6.616-1.268,4.506,4.506,0,0,1-3.054,1.229,10.58,10.58,0,0,1-6.227-1.553A6.6,6.6,0,0,1,0,13.7C0,6.787,7.69,0,15.525,0c4.485,0,8.22.974,10.8,2.816a9.358,9.358,0,0,1,4,7.9C30.33,16.863,25.623,20.834,18.337,20.834Zm-6.723-5.489a.427.427,0,0,1,.151.027,18.709,18.709,0,0,0,6.572,1.307c7.091,0,10.159-3.948,10.159-5.962,0-.691-.569-2.4-2.722-3.939-1.676-1.2-4.815-2.624-10.249-2.624C7.76,4.154,1.834,10.933,1.834,13.7c0,.583,1.216,2.938,6.833,2.938a3.6,3.6,0,0,0,2.586-1.128A.519.519,0,0,1,11.614,15.345Z" fill="#afcded"/>
        </g>
        <g id="Group_4091-2" data-name="Group 4091" transform="translate(200.082 240.042)">
          <path id="Path_14200-2" data-name="Path 14200" d="M38.433,40.5A141.057,141.057,0,0,1,.806,35.386c-.5-.139-.861-1.176-.8-2.313s.519-1.949,1.022-1.81a140.227,140.227,0,0,0,37.4,5.082c34.17,0,69.313-12.2,104.452-36.256.485-.329,1,.289,1.143,1.387a3.055,3.055,0,0,1-.612,2.59C108.1,28.241,72.783,40.5,38.433,40.5Z" transform="translate(0 0)" fill="#afcded"/>
        </g>
        <g id="Group_4092-2" data-name="Group 4092" transform="translate(349.746 222.015)">
          <path id="Path_14201-2" data-name="Path 14201" d="M.917,11.365C.411,11.365,0,10.436,0,9.288S.411,7.211.917,7.211c1.184,0,1.989-2.253,2.767-4.431.281-.786.546-1.527.83-2.172.358-.812.939-.812,1.3,0a4.147,4.147,0,0,1,0,2.937c-.217.49-.452,1.15-.7,1.847C4.21,7.914,2.977,11.365.917,11.365Z" transform="translate(0 0)" fill="#afcded"/>
        </g>
        <g id="Group_4093-2" data-name="Group 4093" transform="translate(180.976 265.281)">
          <path id="Path_14202-2" data-name="Path 14202" d="M.917,26.989c-.444,0-.823-.719-.9-1.707A3.048,3.048,0,0,1,.6,22.966a6.189,6.189,0,0,0,.757-.775,1.177,1.177,0,0,1,.357-.47C4.366,17.963,5.326,10.2,6.185,3.263q.11-.892.219-1.757C6.543.4,7.051-.233,7.538.079a3,3,0,0,1,.63,2.569Q8.06,3.5,7.952,4.385c-.9,7.285-2,16.123-5.176,20.737C2.529,26.362,1.907,26.989.917,26.989Z" transform="translate(0 0)" fill="#afcded"/>
        </g>
        <g id="Group_4094-2" data-name="Group 4094" transform="translate(0 285.711)">
          <path id="Path_14203-2" data-name="Path 14203" d="M.917,20.981c-.384,0-.742-.55-.87-1.421a3.164,3.164,0,0,1,.58-2.628C3.69,14.62,4.777,7.485,4.777,2.077,4.777.93,5.187,0,5.694,0s.917.93.917,2.077c0,8.94-2.121,16.318-5.4,18.8A.484.484,0,0,1,.917,20.981Z" transform="translate(0 0)" fill="#afcded"/>
        </g>
        <g id="Group_4095-2" data-name="Group 4095" transform="translate(9.023 289.317)">
          <path id="Path_14204-2" data-name="Path 14204" d="M.917,16.173c-.235,0-.469-.2-.648-.609a4.149,4.149,0,0,1,0-2.937A24.45,24.45,0,0,0,2.653,2.077C2.653.93,3.064,0,3.571,0s.917.93.917,2.077A31.567,31.567,0,0,1,1.566,15.564C1.387,15.97,1.152,16.173.917,16.173Z" transform="translate(0)" fill="#afcded"/>
        </g>
        <g id="Group_4096-2" data-name="Group 4096" transform="translate(106.675 238.841)">
          <path id="Path_14205-2" data-name="Path 14205" d="M4.47,14.146c-.235,0-.469-.2-.649-.609A77.2,77.2,0,0,1,.154,3.229,3.95,3.95,0,0,1,.409.349C.83-.287,1.4-.03,1.68.925A72.548,72.548,0,0,0,5.119,10.6a4.15,4.15,0,0,1,0,2.938C4.94,13.942,4.705,14.146,4.47,14.146Z" transform="translate(0 0)" fill="#afcded"/>
        </g>
        <g id="Group_4097-2" data-name="Group 4097" transform="translate(38.743 271.289)">
          <path id="Path_14206-2" data-name="Path 14206" d="M.916,16.173c-.461,0-.859-.786-.911-1.848-.056-1.14.307-2.167.81-2.294a60.5,60.5,0,0,1,7.547-1.223C15.8,9.922,23.481,9.006,29.621.316c.43-.608,1-.312,1.264.661a3.89,3.89,0,0,1-.292,2.863C24.051,13.1,16.125,14.043,8.459,14.957a59.014,59.014,0,0,0-7.441,1.2A.392.392,0,0,1,.916,16.173Z" transform="translate(0 0)" fill="#afcded"/>
        </g>
        <g id="Group_4098-2" data-name="Group 4098" transform="translate(77.485 256.868)">
          <path id="Path_14207-2" data-name="Path 14207" d="M.917,11.365c-.428,0-.811-.683-.9-1.671-.1-1.124.223-2.219.72-2.443C1.9,6.724,2.862,5.362,3.881,3.92,4.994,2.345,6.146.716,7.637.041c.5-.225.98.5,1.079,1.629S8.493,3.888,8,4.113C6.834,4.64,5.872,6,4.853,7.443,3.74,9.019,2.588,10.649,1.1,11.324A.439.439,0,0,1,.917,11.365Z" transform="translate(0 0)" fill="#afcded"/>
        </g>
        <g id="Group_4099-2" data-name="Group 4099" transform="translate(166.116 260.473)">
          <path id="Path_14208-2" data-name="Path 14208" d="M1.717,31.857a5.835,5.835,0,0,1-.86-.066C.352,31.717-.031,30.727,0,29.583s.47-2.014.976-1.936a5.078,5.078,0,0,0,.739.056C7.35,27.7,10.7,17.352,13.937,7.342c.711-2.2,1.445-4.468,2.185-6.563.316-.894.894-1.041,1.289-.324a4.084,4.084,0,0,1,.143,2.919C16.839,5.4,16.149,7.537,15.418,9.8,12.072,20.137,8.28,31.857,1.717,31.857Z" transform="translate(0 0)" fill="#afcded"/>
        </g>
        <g id="Group_4100-2" data-name="Group 4100" transform="translate(364.076 220.814)">
          <path id="Path_14209-2" data-name="Path 14209" d="M6.755,12.567a.555.555,0,0,1-.41-.22c-.459-.52-.932-1-1.389-1.454A16.849,16.849,0,0,1,.184,3.323,4.046,4.046,0,0,1,.367.415c.405-.687.98-.5,1.284.416A13.929,13.929,0,0,0,5.7,7.1c.476.479.969.973,1.466,1.535a3.641,3.641,0,0,1,.41,2.786C7.415,12.146,7.091,12.567,6.755,12.567Z" transform="translate(0 0)" fill="#afcded"/>
        </g>
        <g id="Group_4101-2" data-name="Group 4101" transform="translate(399.634 181.604)">
          <path id="Path_14210-2" data-name="Path 14210" d="M.918,13.318c-.3,0-.587-.324-.764-.924A3.952,3.952,0,0,1,.409,9.513,32.181,32.181,0,0,0,4.134.925C4.415-.03,4.985-.286,5.406.349a3.948,3.948,0,0,1,.255,2.88A36.454,36.454,0,0,1,1.426,12.97.646.646,0,0,1,.918,13.318Z" transform="translate(0 0)" fill="#afcded"/>
        </g>
        <g id="Group_4102-2" data-name="Group 4102" transform="translate(1130.273 89.863)">
          <path id="Path_14211-2" data-name="Path 14211" d="M1.589,20.028a3.944,3.944,0,0,1-.748-.071c-.5-.095-.88-1.1-.838-2.242s.488-2.008.991-1.9a3.178,3.178,0,0,0,.6.056c3.51,0,7.038-6.1,8.387-14.5.173-1.08.7-1.635,1.176-1.243A3.262,3.262,0,0,1,11.7,2.788C10.071,12.938,5.913,20.028,1.589,20.028Z" transform="translate(0 0)" fill="#afcded"/>
        </g>
        <g id="Group_4103-2" data-name="Group 4103" transform="translate(1143.868 103.176)">
          <path id="Path_14212-2" data-name="Path 14212" d="M.918,10.811c-.3,0-.587-.324-.764-.924A3.955,3.955,0,0,1,.408,7.006,23.977,23.977,0,0,0,3.093.926c.281-.955.85-1.213,1.272-.577A3.952,3.952,0,0,1,4.62,3.23a28.518,28.518,0,0,1-3.193,7.232A.644.644,0,0,1,.918,10.811Z" transform="translate(0 0)" fill="#afcded"/>
        </g>
        <g id="Group_4104-2" data-name="Group 4104" transform="translate(1169.589 112.329)">
          <path id="Path_14213-2" data-name="Path 14213" d="M25.514,11.308a113.682,113.682,0,0,1-24.686-3C.324,8.194-.045,7.177,0,6.035s.5-1.983,1-1.864A112.916,112.916,0,0,0,25.514,7.153,68.87,68.87,0,0,0,56.939.049c.5-.248.985.462,1.093,1.582s-.2,2.229-.7,2.475A69.735,69.735,0,0,1,25.514,11.308Z" transform="translate(0 0)" fill="#afcded"/>
        </g>
        <g id="Group_4105-2" data-name="Group 4105" transform="translate(1237.934 109.834)">
          <path id="Path_14214-2" data-name="Path 14214" d="M2.629,7.55c-.32,0-.634-.018-.938-.037-.268-.016-.527-.032-.774-.032C.411,7.481,0,6.553,0,5.4S.411,3.327.917,3.327c.261,0,.537.017.822.033s.587.035.89.035c1.312,0,2.638-.317,3.45-2.616C6.4-.115,6.973-.262,7.369.454a4.088,4.088,0,0,1,.143,2.92C6.2,7.075,4.216,7.55,2.629,7.55Z" transform="translate(0 0)" fill="#afcded"/>
        </g>
        <g id="Group_4106-2" data-name="Group 4106" transform="translate(1254.836 113.161)">
          <path id="Path_14215-2" data-name="Path 14215" d="M3.122,15.8c-.235,0-.469-.2-.648-.609C.808,11.422.406,6.878.018,2.485-.081,1.359.241.265.737.04s.981.5,1.08,1.63c.35,3.961.681,7.7,1.954,10.588a4.148,4.148,0,0,1,0,2.937C3.592,15.6,3.357,15.8,3.122,15.8Z" transform="translate(0 0)" fill="#afcded"/>
        </g>
        <g id="Group_4107-2" data-name="Group 4107" transform="translate(1211.478 254.614)">
          <path id="Path_14216-2" data-name="Path 14216" d="M32.287,10.14C25.171,10.14,17.9,8.8,10.869,7.514,7.571,6.908,4.161,6.281.86,5.815.354,5.743-.03,4.757,0,3.613s.469-2.02.972-1.944c3.318.47,6.736,1.1,10.043,1.7,6.994,1.285,14.227,2.613,21.27,2.613,8.365,0,15.449-1.933,21.66-5.907.487-.313.995.329,1.132,1.434a2.984,2.984,0,0,1-.633,2.563C48.071,8.157,40.822,10.14,32.287,10.14Z" transform="translate(0 0)" fill="#afcded"/>
        </g>
        <g id="Group_4108-2" data-name="Group 4108" transform="translate(1274.678 249.621)">
          <path id="Path_14217-2" data-name="Path 14217" d="M.918,9.146C.411,9.146,0,8.217,0,7.069S.411,4.993.918,4.993c2.054,0,4.165-2.51,5.775-4.7.435-.59,1-.272,1.259.712a3.849,3.849,0,0,1-.314,2.85C5.823,6.321,3.422,9.146.918,9.146Z" transform="translate(0 0)" fill="#afcded"/>
        </g>
        <g id="Group_4109-2" data-name="Group 4109" transform="translate(1290.846 247.957)">
          <path id="Path_14218-2" data-name="Path 14218" d="M6.061,21.627a.673.673,0,0,1-.533-.386A35.974,35.974,0,0,1,0,2.077C0,.929.411,0,.917,0s.917.929.917,2.077A29.4,29.4,0,0,0,6.595,17.86a4.013,4.013,0,0,1,.213,2.9C6.629,21.325,6.347,21.627,6.061,21.627Z" transform="translate(0 0)" fill="#afcded"/>
        </g>
        <g id="Group_4110-2" data-name="Group 4110" transform="translate(1286.729 260.437)">
          <path id="Path_14219-2" data-name="Path 14219" d="M2.094,12.476c-.385,0-.743-.55-.87-1.421C1.136,10.461.976,9.784.8,9.066A23.453,23.453,0,0,1,0,3.426,16.872,16.872,0,0,1,.1,1.574C.225.46.723-.216,1.214.063S2,1.468,1.881,2.582a7.63,7.63,0,0,0-.047.845A16.087,16.087,0,0,0,2.422,7.1c.2.84.405,1.709.543,2.642a3.159,3.159,0,0,1-.581,2.626A.476.476,0,0,1,2.094,12.476Z" transform="translate(0 0)" fill="#afcded"/>
        </g>
        <g id="Group_4111-2" data-name="Group 4111" transform="translate(1160.403 231.06)">
          <path id="Path_14220-2" data-name="Path 14220" d="M.917,11.9C.411,11.9,0,10.969,0,9.821S.411,7.743.917,7.743c1.832,0,3-2.771,4.244-5.706.206-.488.41-.968.613-1.429.358-.812.939-.812,1.3,0a4.145,4.145,0,0,1,0,2.937c-.194.44-.388.9-.585,1.365C5.171,8.024,3.533,11.9.917,11.9Z" transform="translate(0 0)" fill="#afcded"/>
        </g>
        <g id="Group_4112-2" data-name="Group 4112" transform="translate(1332.734 178.895)">
          <path id="Path_14221-2" data-name="Path 14221" d="M1.858,9.355a2.689,2.689,0,0,1-1.12-.249C.24,8.882-.081,7.788.018,6.663S.6,4.81,1.1,5.033a1.837,1.837,0,0,0,.761.168c1.059,0,2.477-1.021,2.985-3.894C5.03.241,5.565-.278,6.034.15a3.367,3.367,0,0,1,.511,2.7C5.847,6.8,4.007,9.355,1.858,9.355Z" transform="translate(0 0)" fill="#afcded"/>
        </g>
        <g id="Group_4113-2" data-name="Group 4113" transform="translate(1362.497 198.865)">
          <path id="Path_14222-2" data-name="Path 14222" d="M17.641,6.818A48.861,48.861,0,0,1,7.448,5.368C5.3,4.907,3.087,4.43.866,4.151.361,4.087-.027,3.107,0,1.962S.466-.064.968,0C3.224.287,5.46.767,7.621,1.232a47.5,47.5,0,0,0,10.02,1.431,21.773,21.773,0,0,0,2.7-.164c.508-.069.938.813.967,1.958s-.359,2.126-.865,2.189A22.411,22.411,0,0,1,17.641,6.818Z" transform="translate(0 0)" fill="#afcded"/>
        </g>
        <g id="Group_4114-2" data-name="Group 4114" transform="translate(1389.687 201.36)">
          <path id="Path_14223-2" data-name="Path 14223" d="M.916,4.988c-.411,0-.785-.63-.889-1.574C-.1,2.3.2,1.174.695.9A2.475,2.475,0,0,1,1.964.584,7.237,7.237,0,0,1,3,.684a6.7,6.7,0,0,0,.948.093A1.632,1.632,0,0,0,5.283.221c.453-.515,1-.1,1.231.927A3.641,3.641,0,0,1,6.1,3.936a2.693,2.693,0,0,1-2.153.994,7.482,7.482,0,0,1-1.066-.1,6.634,6.634,0,0,0-.922-.092,1.6,1.6,0,0,0-.824.188A.457.457,0,0,1,.916,4.988Z" transform="translate(0 0)" fill="#afcded"/>
        </g>
        <g id="Group_4115-2" data-name="Group 4115" transform="translate(1411.734 195.537)">
          <path id="Path_14224-2" data-name="Path 14224" d="M3.49,16.635c-.235,0-.47-.2-.649-.608C1.492,12.969.542,8.413.018,2.484-.081,1.359.241.264.738.04s.98.5,1.079,1.629c.31,3.513.965,8.347,2.322,11.419a4.151,4.151,0,0,1,0,2.938C3.959,16.431,3.724,16.635,3.49,16.635Z" transform="translate(0 0)" fill="#afcded"/>
        </g>
        <g id="Group_4116-2" data-name="Group 4116" transform="translate(1408.427 205.522)">
          <path id="Path_14225-2" data-name="Path 14225" d="M.917,11.643C.411,11.643,0,10.713,0,9.566V2.077C0,.93.411,0,.917,0s.917.93.917,2.077V9.566C1.835,10.713,1.424,11.643.917,11.643Z" fill="#afcded"/>
        </g>
        <g id="Group_4117-2" data-name="Group 4117" transform="translate(1489.999 197.2)">
          <path id="Path_14226-2" data-name="Path 14226" d="M2.829,11.176A3.123,3.123,0,0,1,.462,9.708,3.8,3.8,0,0,1,.121,6.872c.251-.995.812-1.34,1.251-.773a1.944,1.944,0,0,0,1.457.922c1.581,0,3.071-3.148,3.939-6.1C7.049-.029,7.618-.288,8.04.35a3.948,3.948,0,0,1,.254,2.88C6.83,8.206,4.786,11.176,2.829,11.176Z" transform="translate(0 0)" fill="#afcded"/>
        </g>
        <g id="Group_4118-2" data-name="Group 4118" transform="translate(1497.348 211.345)">
          <path id="Path_14227-2" data-name="Path 14227" d="M.917,9.148c-.235,0-.469-.2-.649-.608a4.159,4.159,0,0,1,0-2.937,13.193,13.193,0,0,1,1.1-1.948A9.438,9.438,0,0,0,2.726.926C3.006-.029,3.575-.288,4,.35A3.948,3.948,0,0,1,4.252,3.23,13.222,13.222,0,0,1,2.4,7.094a10.262,10.262,0,0,0-.837,1.445C1.386,8.945,1.151,9.148.917,9.148Z" transform="translate(0 0)" fill="#afcded"/>
        </g>
        <g id="Group_4119-2" data-name="Group 4119" transform="translate(1538.135 233.812)">
          <path id="Path_14228-2" data-name="Path 14228" d="M76.853,18.826c-22.384,0-46.556-4.669-76.071-14.7C.281,3.96-.065,2.9.01,1.768S.553-.147,1.053.023c29.423,9.993,53.509,14.649,75.8,14.649,4.242,0,8.476-.177,12.584-.525.5-.036.931.851.951,2s-.377,2.11-.883,2.153C85.375,18.649,81.118,18.826,76.853,18.826Z" transform="translate(0 0)" fill="#afcded"/>
        </g>
        <g id="Group_4120-2" data-name="Group 4120" transform="translate(1635.507 243.796)">
          <path id="Path_14229-2" data-name="Path 14229" d="M.917,7.483C.411,7.483,0,6.553,0,5.406S.411,3.329.917,3.329c.685,0,1.455-.785,2.269-1.614A9.592,9.592,0,0,1,5.1.063c.491-.279.989.4,1.112,1.511S6.04,3.815,5.549,4.093A8.446,8.446,0,0,0,3.939,5.5C2.984,6.476,2,7.483.917,7.483Z" transform="translate(0 0)" fill="#afcded"/>
        </g>
        <g id="Group_4121-2" data-name="Group 4121" transform="translate(1645.79 240.469)">
          <path id="Path_14230-2" data-name="Path 14230" d="M1.6,5.951a1.993,1.993,0,0,1-.549-.1,1,1,0,0,0-.138-.036C.405,5.817,0,4.887,0,3.74S.416,1.663.922,1.663a1.319,1.319,0,0,1,.361.069c.067.02.137.04.2.053C1.546.776,1.93,0,2.392,0c.507,0,.917.929.917,2.077C3.309,4.43,2.638,5.951,1.6,5.951Z" fill="#afcded"/>
        </g>
        <g id="Group_4122-2" data-name="Group 4122" transform="translate(1793.875 257.941)">
          <path id="Path_14231-2" data-name="Path 14231" d="M23.625,12.5c-7.7,0-15.823-.66-23.1-8.544A3.587,3.587,0,0,1,.09,1.181C.308.147.856-.292,1.313.2c6.934,7.51,14.823,8.138,22.312,8.138.695,0,1.387-.005,2.076-.01s1.364-.009,2.04-.009c.506,0,.917.929.917,2.077s-.411,2.077-.917,2.077q-1.011,0-2.034.01C25.016,12.491,24.321,12.5,23.625,12.5Z" transform="translate(0 0)" fill="#afcded"/>
        </g>
        <g id="Group_4123-2" data-name="Group 4123" transform="translate(1841.275 269.59)">
          <path id="Path_14232-2" data-name="Path 14232" d="M2.754,12.477c-.411,0-.785-.631-.889-1.574A19.111,19.111,0,0,0,1.073,7.39,25.9,25.9,0,0,1,.028,2.582C-.1,1.468.2.34.695.063s.989.4,1.113,1.511A19.072,19.072,0,0,0,2.6,5.086,25.909,25.909,0,0,1,3.645,9.9c.122,1.113-.176,2.241-.668,2.519A.455.455,0,0,1,2.754,12.477Z" transform="translate(0 0)" fill="#afcded"/>
        </g>
        <g id="Group_4124-2" data-name="Group 4124" transform="translate(1834.293 277.913)">
          <path id="Path_14233-2" data-name="Path 14233" d="M.918,10.81C.411,10.81,0,9.88,0,8.733V2.077C0,.929.411,0,.918,0s.917.929.917,2.077V8.733C1.835,9.88,1.425,10.81.918,10.81Z" transform="translate(0 0)" fill="#afcded"/>
        </g>
        <g id="Group_4125-2" data-name="Group 4125" transform="translate(1861.852 242.966)">
          <path id="Path_14234-2" data-name="Path 14234" d="M20.025,10.81a.461.461,0,0,1-.259-.085C14.923,7.5,9.794,6.294,4.833,5.127,3.509,4.815,2.139,4.494.81,4.139c-.5-.133-.863-1.165-.8-2.3S.525-.117,1.025.014C2.341.365,3.7.685,5.023,1,10.066,2.18,15.279,3.407,20.283,6.74A3.025,3.025,0,0,1,20.9,9.319C20.787,10.224,20.421,10.81,20.025,10.81Z" transform="translate(0 0)" fill="#afcded"/>
        </g>
        <g id="Group_4126-2" data-name="Group 4126" transform="translate(1865.894 264.6)">
          <path id="Path_14235-2" data-name="Path 14235" d="M8.909,6.77A.6.6,0,0,1,8.455,6.5c-1.52-1.968-3.184-2-4.944-2.035A9.262,9.262,0,0,1,.788,4.133c-.5-.163-.85-1.215-.779-2.35S.548-.138,1.048.02A8.511,8.511,0,0,0,3.527.307c1.829.036,3.9.077,5.839,2.582a3.8,3.8,0,0,1,.342,2.834C9.537,6.393,9.228,6.77,8.909,6.77Z" transform="translate(0 0)" fill="#afcded"/>
        </g>
        <g id="Group_4127-2" data-name="Group 4127" transform="translate(1640.284 135.627)">
          <path id="Path_14236-2" data-name="Path 14236" d="M65.956,34.11a.444.444,0,0,1-.184-.043L.735,4.113c-.5-.229-.818-1.325-.716-2.449S.6-.187,1.1.042L66.138,30c.5.229.817,1.325.716,2.449C66.766,33.431,66.383,34.11,65.956,34.11Z" transform="translate(0 0)" fill="#afcded"/>
        </g>
        <g id="Group_4128-2" data-name="Group 4128" transform="translate(1715.242 171.406)">
          <path id="Path_14237-2" data-name="Path 14237" d="M4.591,4.154H.917C.411,4.154,0,3.225,0,2.077S.411,0,.917,0H4.591c.506,0,.917.93.917,2.077S5.1,4.154,4.591,4.154Z" transform="translate(0 0)" fill="#afcded"/>
        </g>
        <g id="Group_4129-2" data-name="Group 4129" transform="translate(1266.594 22.467)">
          <path id="Path_14238-2" data-name="Path 14238" d="M71.468,21.627a.411.411,0,0,1-.1-.012L.817,4.14c-.5-.125-.867-1.15-.812-2.291S.516-.1,1.018.011L71.566,17.484c.5.125.868,1.15.813,2.291C72.327,20.838,71.929,21.627,71.468,21.627Z" transform="translate(0 0)" fill="#afcded"/>
        </g>
        <g id="Group_4130-2" data-name="Group 4130" transform="translate(1345.594 39.94)">
          <path id="Path_14239-2" data-name="Path 14239" d="M7.163,4.154H.917C.411,4.154,0,3.224,0,2.077S.411,0,.917,0H7.163c.507,0,.917.929.917,2.077S7.67,4.154,7.163,4.154Z" fill="#afcded"/>
        </g>
        <g id="Group_4131-2" data-name="Group 4131" transform="translate(651.862 0.001)">
          <path id="Path_14240-2" data-name="Path 14240" d="M.916,14.97c-.483,0-.887-.855-.915-1.96-.029-1.146.358-2.127.864-2.191L85.745,0c.5-.057.939.811.967,1.956s-.358,2.127-.864,2.191L.969,14.967A.451.451,0,0,1,.916,14.97Z" transform="translate(0 0)" fill="#afcded"/>
        </g>
        <g id="Group_4132-2" data-name="Group 4132" transform="translate(745.193 0)">
          <path id="Path_14241-2" data-name="Path 14241" d="M6.8,4.154H.917C.411,4.154,0,3.224,0,2.077S.411,0,.917,0H6.8c.507,0,.917.93.917,2.077S7.3,4.154,6.8,4.154Z" fill="#afcded"/>
        </g>
        <g id="Group_4133-2" data-name="Group 4133" transform="translate(607.677 310.925)">
          <path id="Path_14242-2" data-name="Path 14242" d="M35.285,49.74c-9.265,0-17.987-2.4-24.559-6.76C3.709,38.327,0,32.065,0,24.87S3.709,11.413,10.726,6.759C17.3,2.4,26.021,0,35.285,0s17.987,2.4,24.56,6.759C66.861,11.413,70.57,17.676,70.57,24.87S66.861,38.327,59.845,42.98C53.272,47.339,44.55,49.74,35.285,49.74Zm0-45.585c-19.713,0-33.45,10.918-33.45,20.715s13.738,20.716,33.45,20.716S68.736,34.669,68.736,24.87,55,4.154,35.285,4.154Z" fill="#afcded"/>
        </g>
        <g id="Group_4134-2" data-name="Group 4134" transform="translate(106.675 356.479)">
          <path id="Path_14243-2" data-name="Path 14243" d="M11.266,31.131C5.135,31.131.4,28.9.023,23.222-.583,14.067,10.814,5.929,21.661,2.241s22.8-3.487,23.4,5.669c.277,4.181-1.867,8.341-6.373,12.361A45.188,45.188,0,0,1,23.428,28.89,39.066,39.066,0,0,1,11.266,31.131Zm22.3-26.938A36.554,36.554,0,0,0,21.933,6.348C8.535,10.9,1.63,19.476,1.838,22.6s7.92,6.731,21.318,2.177A44,44,0,0,0,38.02,16.406c4.457-3.976,5.287-7.037,5.231-7.88C43.114,6.463,39.712,4.193,33.569,4.193Z" transform="translate(0 0)" fill="#afcded"/>
        </g>
        <g id="Group_4135-2" data-name="Group 4135" transform="translate(1038.423 65.123)">
          <path id="Path_14244-2" data-name="Path 14244" d="M20.25,36.831C8.705,36.831,0,28.915,0,18.415S8.705,0,20.25,0,40.5,7.917,40.5,18.415,31.793,36.831,20.25,36.831Zm0-32.677C9.4,4.154,1.834,11.669,1.834,18.415S9.4,32.677,20.25,32.677s18.414-7.517,18.414-14.262S31.1,4.154,20.25,4.154Z" fill="#afcded"/>
        </g>
        <g id="Group_4136-2" data-name="Group 4136" transform="translate(1442.134 284.568)">
          <path id="Path_14245-2" data-name="Path 14245" d="M15.643,30.512C6.725,30.512,0,23.953,0,15.256S6.725,0,15.643,0,31.286,6.559,31.286,15.256,24.561,30.512,15.643,30.512Zm0-26.357c-8.138,0-13.809,5.85-13.809,11.1s5.671,11.1,13.809,11.1,13.808-5.851,13.808-11.1S23.78,4.155,15.643,4.155Z" fill="#afcded"/>
        </g>
        <g id="Group_4137-2" data-name="Group 4137" transform="translate(1681.256 321.921)">
          <path id="Path_14246-2" data-name="Path 14246" d="M62.161,43.525c-7.029,0-15.85-1.745-25.084-4.979A96.913,96.913,0,0,1,10.858,24.913C-.5,16.214-.093,10.323.039,8.388S.574.56,12.557.035c7.282-.31,16.8,1.437,26.812,4.943A96.911,96.911,0,0,1,65.588,18.61c11.353,8.7,10.952,14.59,10.818,16.527s-.534,7.827-12.518,8.352Q63.044,43.525,62.161,43.525ZM14.291,4.153q-.869,0-1.7.036C4.027,4.564,1.935,7.805,1.852,9.023S3.33,14.76,11.446,20.979A95.82,95.82,0,0,0,37.357,34.441c9.906,3.47,19.316,5.213,26.5,4.894,8.566-.375,10.658-3.616,10.741-4.834S73.116,28.763,65,22.545A95.773,95.773,0,0,0,39.089,9.083C29.945,5.88,21.225,4.153,14.291,4.153Z" transform="translate(0 0)" fill="#afcded"/>
        </g>
      </g>
    </g>
  </g>
</svg>
