<svg xmlns="http://www.w3.org/2000/svg" width="479.203" height="646" viewBox="0 0 479.203 646">
  <g id="Group_7026" data-name="Group 7026" transform="translate(-1330 -28966)">
    <text id="Marketing_Agency" data-name="Marketing Agency" transform="translate(1570 29528)" fill="#233d63" font-size="55" font-family="Poppins-SemiBold, Poppins" font-weight="600"><tspan x="-192.363" y="0">SOCIAL MEDIA</tspan><tspan x="-159.775" y="65">MARKETERS</tspan></text>
    <g id="Analysis" transform="translate(1321.4 28957.4)">
      <g id="Group_5531" data-name="Group 5531" transform="translate(8.6 8.6)">
        <g id="Group_5529" data-name="Group 5529">
          <circle id="Ellipse_1924" data-name="Ellipse 1924" cx="239.602" cy="239.602" r="239.602" fill="#382b73"/>
        </g>
        <g id="Group_5530" data-name="Group 5530" transform="translate(32.31 32.31)">
          <circle id="Ellipse_1925" data-name="Ellipse 1925" cx="207.291" cy="207.291" r="207.291" transform="translate(0 0)" fill="#473080"/>
        </g>
      </g>
      <path id="Path_15951" data-name="Path 15951" d="M357.867,274.178c.283-.417.54-.845.781-1.28l.012-.018c.247-.448.47-.9.672-1.367a0,0,0,0,1,0,0v0a16.758,16.758,0,0,0-3.49-18.578l-20.858-20.858v-82.8a8.612,8.612,0,0,0-8.613-8.613h-7.758a89.1,89.1,0,0,0-177.028,0H99.559a8.614,8.614,0,0,0-8.613,8.613v6.281H57.458a6.7,6.7,0,0,0-6.7,6.7V243.4a6.7,6.7,0,0,0,6.7,6.7H90.946v44.3a8.613,8.613,0,0,0,8.613,8.613h88.532a52.011,52.011,0,0,1-1.726,13.152c-.357,1.361-.787,2.711-1.252,4.054-.094.269-.187.54-.285.809-.5,1.359-1.031,2.709-1.641,4.039l-.367.8h-2.886a4.866,4.866,0,0,0,0,9.733H246a4.866,4.866,0,0,0,0-9.733h-2.886l-.367-.8c-.612-1.332-1.148-2.683-1.643-4.042-.1-.267-.191-.536-.283-.8-.466-1.344-.895-2.7-1.254-4.06h0a52.008,52.008,0,0,1-1.726-13.15h88.532a8.613,8.613,0,0,0,8.613-8.613v-5.45h0V278.917a16.74,16.74,0,0,0,20.858-2.28c.389-.389.753-.795,1.094-1.21.257-.311.486-.636.716-.961C357.723,274.37,357.8,274.276,357.867,274.178Z" transform="translate(42.445 53.528)" fill="#382b73"/>
      <g id="Group_5541" data-name="Group 5541" transform="translate(93.205 101.167)">
        <g id="Group_5532" data-name="Group 5532" transform="translate(40.186 78.971)">
          <path id="Path_15952" data-name="Path 15952" d="M306.211,252.984H79.4a8.613,8.613,0,0,1-8.613-8.613V106.129A8.614,8.614,0,0,1,79.4,97.516H306.211a8.614,8.614,0,0,1,8.613,8.613V244.371A8.611,8.611,0,0,1,306.211,252.984Z" transform="translate(-70.787 -90.625)" fill="#bcbec0"/>
          <path id="Path_15953" data-name="Path 15953" d="M306.211,249.55H79.4a8.613,8.613,0,0,1-8.613-8.613V102.695A8.614,8.614,0,0,1,79.4,94.082H306.211a8.614,8.614,0,0,1,8.613,8.613V240.937A8.61,8.61,0,0,1,306.211,249.55Z" transform="translate(-70.787 -94.082)" fill="#fff"/>
          <path id="Path_15954" data-name="Path 15954" d="M176.862,199.573H116.57l.367-.8a52.666,52.666,0,0,0,4.8-25.5H171.7a52.666,52.666,0,0,0,4.8,25.5Z" transform="translate(-24.697 -14.359)" fill="#d1d3d4"/>
          <path id="Path_15955" data-name="Path 15955" d="M173.315,181.543h-53.2a54.539,54.539,0,0,1-3.181,8.9l-.367.8h60.292l-.367-.8A55.1,55.1,0,0,1,173.315,181.543Z" transform="translate(-24.698 -6.034)" fill="#e6e7e8"/>
          <path id="Path_15956" data-name="Path 15956" d="M183.637,196.112H117.572a4.867,4.867,0,0,1-4.866-4.866h0a4.867,4.867,0,0,1,4.866-4.866h66.065a4.867,4.867,0,0,1,4.866,4.866h0A4.867,4.867,0,0,1,183.637,196.112Z" transform="translate(-28.587 -1.165)" fill="#fff"/>
          <path id="Path_15957" data-name="Path 15957" d="M306.211,94.082H79.4a8.613,8.613,0,0,0-8.613,8.613V218.972H314.825V102.695A8.614,8.614,0,0,0,306.211,94.082Z" transform="translate(-70.787 -94.082)" fill="#1caee4"/>
          <path id="Path_15958" data-name="Path 15958" d="M300.6,98.374H77.809a3.446,3.446,0,0,0-3.446,3.446V202.595a3.446,3.446,0,0,0,3.446,3.446H300.6a3.446,3.446,0,0,0,3.446-3.446V101.82A3.448,3.448,0,0,0,300.6,98.374Z" transform="translate(-67.187 -89.761)" fill="#009add"/>
          <circle id="Ellipse_1926" data-name="Ellipse 1926" cx="6.245" cy="6.245" r="6.245" transform="translate(115.773 132.427)" fill="#1caee4"/>
        </g>
        <path id="Path_15959" data-name="Path 15959" d="M204.426,156.319H180.45l21.125,21.125a16.882,16.882,0,0,0,2.852,2.28Z" transform="translate(79.799 47.544)" fill="#bcbec0"/>
        <path id="Path_15960" data-name="Path 15960" d="M289.722,192.074l-9.408-9.407a6.081,6.081,0,0,0-7.91-.582l-16.9-16.9a89.087,89.087,0,0,0,17.444-67.664H96.728a89.107,89.107,0,0,0,142.392,84.047l16.9,16.9a6.045,6.045,0,0,0,.582,7.91l9.141,9.141h23.976V192.074Z" transform="translate(-5.497 -11.654)" fill="#136da0"/>
        <g id="Group_5537" data-name="Group 5537" transform="translate(90.124)">
          <g id="Group_5534" data-name="Group 5534">
            <circle id="Ellipse_1927" data-name="Ellipse 1927" cx="63.083" cy="63.083" r="63.083" transform="translate(0 89.212) rotate(-45)" fill="#fede3a"/>
            <path id="Path_15961" data-name="Path 15961" d="M127.164,93.613a63.072,63.072,0,0,1,107.572,40.913,63.074,63.074,0,1,0-125.929,0A62.846,62.846,0,0,1,127.164,93.613Z" transform="translate(-82.557 -41.623)" fill="#e7ad27"/>
            <g id="Group_5533" data-name="Group 5533" transform="translate(0.09 0.085)">
              <rect id="Rectangle_1114" data-name="Rectangle 1114" width="35.055" height="23.165" transform="translate(157.014 140.627) rotate(45)" fill="#fff"/>
              <rect id="Rectangle_1115" data-name="Rectangle 1115" width="6.096" height="35.055" transform="translate(140.628 157.012) rotate(-45)" fill="#d1d3d4"/>
              <path id="Path_15962" data-name="Path 15962" d="M247.862,80.876a89.125,89.125,0,1,0,0,126.042A89.123,89.123,0,0,0,247.862,80.876ZM140.234,188.5a63.084,63.084,0,1,1,89.214,0A63.083,63.083,0,0,1,140.234,188.5Z" transform="translate(-95.717 -54.771)" fill="#ef5a9d"/>
              <path id="Path_15963" data-name="Path 15963" d="M207.055,189.819,176.79,159.554a6.1,6.1,0,0,1,0-8.621l15.088-15.088a6.1,6.1,0,0,1,8.621,0l30.265,30.265a16.764,16.764,0,0,1,0,23.709h0A16.767,16.767,0,0,1,207.055,189.819Z" transform="translate(-15.897 25.049)" fill="#ef5a9d"/>
              <path id="Path_15964" data-name="Path 15964" d="M215.677,177.057l-30.265-30.265a6.1,6.1,0,0,1,0-8.621l-8.621,8.621a6.1,6.1,0,0,0,0,8.621l30.265,30.265a16.737,16.737,0,0,0,27.2-5.131A16.754,16.754,0,0,1,215.677,177.057Z" transform="translate(-15.896 29.188)" fill="#e43d91"/>
              <path id="Path_15965" data-name="Path 15965" d="M231.11,83.722a75.266,75.266,0,1,0,0,106.442A75.267,75.267,0,0,0,231.11,83.722Zm-97.829,97.827a63.084,63.084,0,1,1,89.214,0A63.083,63.083,0,0,1,133.281,181.549Z" transform="translate(-88.764 -47.818)" fill="#e43d91"/>
            </g>
          </g>
          <g id="Group_5535" data-name="Group 5535" transform="translate(31.09 78.569)">
            <path id="Path_15966" data-name="Path 15966" d="M204.437,105.24l-37.485,37.485a10.392,10.392,0,0,1-14.689,0l-16.034-16.034-16.636,16.636a61.079,61.079,0,0,1-8.428-14.268l17.719-17.719a10.416,10.416,0,0,1,14.709,0l16.014,16.014,33.472-33.472,5.679,5.679Z" transform="translate(-111.165 -93.882)" fill="#e7ad27"/>
          </g>
          <path id="Path_15967" data-name="Path 15967" d="M181.153,137.154,139.339,95.338a3.808,3.808,0,0,1,2.693-6.5h41.816a3.809,3.809,0,0,1,3.809,3.809v41.816A3.81,3.81,0,0,1,181.153,137.154Z" transform="translate(-52.843 -20.392)" fill="#e7ad27"/>
          <g id="Group_5536" data-name="Group 5536" transform="translate(28.963 70.543)">
            <path id="Path_15968" data-name="Path 15968" d="M205.5,101.24l-37.485,37.485a10.392,10.392,0,0,1-14.689,0L137.3,122.692l-19.987,19.987a63.29,63.29,0,0,1-4.054-7.284,59.092,59.092,0,0,1-3.151-8.207l19.846-19.846a10.416,10.416,0,0,1,14.709,0l16.014,16.014,33.472-33.472,5.679,5.679Z" transform="translate(-110.105 -89.882)" fill="#1caee4"/>
          </g>
          <path id="Path_15969" data-name="Path 15969" d="M203.924,98.391l-37.485,37.485a10.392,10.392,0,0,1-14.689,0l-16.034-16.034L115.729,139.83a63.29,63.29,0,0,1-4.054-7.284L134.05,110.17a2.374,2.374,0,0,1,3.351,0L157.428,130.2a2.35,2.35,0,0,0,3.331,0l37.485-37.485Z" transform="translate(-79.562 -16.49)" fill="#009add"/>
          <rect id="Rectangle_1116" data-name="Rectangle 1116" width="26.812" height="16.054" transform="translate(94.042 89.509) rotate(-45)" fill="#136da0"/>
          <path id="Path_15970" data-name="Path 15970" d="M181.153,133.154,139.339,91.338a3.808,3.808,0,0,1,2.693-6.5h41.816a3.809,3.809,0,0,1,3.809,3.809v41.816A3.81,3.81,0,0,1,181.153,133.154Z" transform="translate(-52.843 -24.419)" fill="#1caee4"/>
          <path id="Path_15971" data-name="Path 15971" d="M181.154,121.28,144.71,84.836h-2.679a3.808,3.808,0,0,0-2.693,6.5l41.814,41.816a3.808,3.808,0,0,0,6.5-2.693V118.587A3.807,3.807,0,0,1,181.154,121.28Z" transform="translate(-52.844 -24.419)" fill="#009add"/>
        </g>
        <path id="Path_15972" data-name="Path 15972" d="M70.787,200.052h33.488a6.7,6.7,0,0,0,6.7-6.7V112.2a6.7,6.7,0,0,0-6.7-6.7H70.787Z" transform="translate(-30.601 -3.613)" fill="#136da0"/>
        <g id="Group_5540" data-name="Group 5540" transform="translate(0 93.865)">
          <g id="Group_5539" data-name="Group 5539">
            <path id="Path_15973" data-name="Path 15973" d="M124.435,196.052H57.459a6.7,6.7,0,0,1-6.7-6.7V108.2a6.7,6.7,0,0,1,6.7-6.7h66.976a6.7,6.7,0,0,1,6.7,6.7v81.152A6.7,6.7,0,0,1,124.435,196.052Z" transform="translate(-50.761 -101.504)" fill="#fff"/>
            <g id="Group_5538" data-name="Group 5538" transform="translate(10.27 60.081)">
              <path id="Path_15974" data-name="Path 15974" d="M112.057,138.752H59.533a3.653,3.653,0,0,1-3.654-3.654h0a3.653,3.653,0,0,1,3.654-3.654h52.524a3.653,3.653,0,0,1,3.654,3.654h0A3.653,3.653,0,0,1,112.057,138.752Z" transform="translate(-55.879 -131.444)" fill="#d1d3d4"/>
              <path id="Path_15975" data-name="Path 15975" d="M112.057,145.346H59.533a3.653,3.653,0,0,1-3.654-3.654h0a3.653,3.653,0,0,1,3.654-3.654h52.524a3.653,3.653,0,0,1,3.654,3.654h0A3.653,3.653,0,0,1,112.057,145.346Z" transform="translate(-55.879 -124.806)" fill="#d1d3d4"/>
            </g>
          </g>
          <circle id="Ellipse_1928" data-name="Ellipse 1928" cx="23.077" cy="23.077" r="23.077" transform="translate(17.109 7.782)" fill="#1caee4"/>
          <path id="Path_15976" data-name="Path 15976" d="M93.514,122.1a23.029,23.029,0,0,0-8.486-14.26L70.786,125.98Z" transform="translate(-30.602 -95.12)" fill="#fede3a"/>
          <path id="Path_15977" data-name="Path 15977" d="M96.509,114.951h0l-22.726,3.875-5.972,22.269a22.962,22.962,0,0,0,28.7-26.143Z" transform="translate(-33.597 -87.967)" fill="#ef5a9d"/>
        </g>
      </g>
    </g>
  </g>
</svg>
