<svg xmlns="http://www.w3.org/2000/svg" xmlns:xlink="http://www.w3.org/1999/xlink" width="1301.215" height="999.206" viewBox="0 0 1301.215 999.206">
  <defs>
    <linearGradient id="linear-gradient" x1="0.985" y1="0.981" x2="-0.018" y2="-0.012" gradientUnits="objectBoundingBox">
      <stop offset="0" stop-color="#dfe2e1"/>
      <stop offset="0.06" stop-color="#e4e6e5"/>
      <stop offset="0.302" stop-color="#f3f4f4"/>
      <stop offset="0.584" stop-color="#fcfcfc"/>
      <stop offset="1" stop-color="#fff"/>
    </linearGradient>
    <linearGradient id="linear-gradient-2" x1="0.983" y1="0.979" x2="-0.005" y2="-0.001" gradientUnits="objectBoundingBox">
      <stop offset="0" stop-color="#fff"/>
      <stop offset="0.416" stop-color="#fcfcfc"/>
      <stop offset="0.698" stop-color="#f3f4f4"/>
      <stop offset="0.94" stop-color="#e4e6e5"/>
      <stop offset="1" stop-color="#dfe2e1"/>
    </linearGradient>
  </defs>
  <g id="Group_7036" data-name="Group 7036" transform="translate(-55.943 -5.758)">
    <g id="Group_7033" data-name="Group 7033" transform="translate(55.943 5.758)">
      <path id="Path_19479" data-name="Path 19479" d="M1256.127,823.525,1231.017,912.5h-37.39l17.81-86.828h-30.808V764.489h75.5Zm-106.307,0L1124.71,912.5h-37.39l17.81-86.828h-30.808V764.489h75.5ZM1177.587,6.53H56.716V822c0,84.45,66.871,152.939,149.45,152.939H1325.819l1.272-815.467C1327.091,75.019,1260.221,6.53,1177.587,6.53ZM215.679,218.5h-75.5V159.412L165.236,70.49h37.39l-17.81,86.828h30.863Zm106.307,0H246.432V159.412L271.6,70.49h37.335l-17.755,86.828h30.808Z" transform="translate(-25.876 24.271)" fill="#c2c4c6" opacity="0"/>
      <path id="Path_19480" data-name="Path 19480" d="M1256.143,823.556l-25.056,88.922h-37.445l17.81-86.828H1180.7V764.464h75.443Zm-106.305,0-25.056,88.922h-37.445l17.81-86.828h-30.808V764.464h75.5ZM1177.658,6.5H56.69V821.971c0,84.45,66.925,152.939,149.5,152.939H1325.834l1.272-815.41C1327.106,74.994,1260.18,6.5,1177.658,6.5ZM215.651,218.48h-75.5V159.444l25.111-88.979h37.389L184.9,157.293h30.752Zm106.361,0H246.459V159.444l25.111-88.979h37.445L291.2,157.293h30.808Z" transform="translate(-26.887 23.298)" fill="#c2c4c6" opacity="0.032"/>
      <path id="Path_19481" data-name="Path 19481" d="M1256.133,823.531l-25.166,88.922h-37.335l17.755-86.827h-30.808V764.439h75.554Zm-106.307,0-25.111,88.922H1087.27l17.81-86.827h-30.808V764.439h75.554ZM1177.592,6.48H56.666V821.946c0,84.45,66.871,152.939,149.449,152.939H1325.769l1.272-815.41C1327.042,74.969,1260.171,6.48,1177.592,6.48ZM215.629,218.455h-75.5V159.419L165.185,70.44h37.445l-17.865,86.884h30.864Zm106.307,0h-75.5V159.419L271.548,70.44h37.39l-17.81,86.884h30.808Z" transform="translate(-27.821 22.326)" fill="#c2c4c6" opacity="0.065"/>
      <path id="Path_19482" data-name="Path 19482" d="M1256.053,823.451,1231,912.373h-37.446l17.865-86.828h-30.808V764.358h75.444Zm-106.308,0-25.056,88.922h-37.445l17.865-86.828h-30.864V764.358h75.5ZM1177.567,6.456H56.641v815.41c0,84.507,66.926,153,149.449,153H1325.744l1.272-815.466C1327.016,74.945,1260.091,6.456,1177.567,6.456ZM215.6,218.374H140.049V159.338L165.161,70.36h37.39L184.8,157.244H215.6Zm106.307,0H246.357V159.338L271.468,70.36h37.445L291.1,157.244h30.808Z" transform="translate(-28.793 21.392)" fill="#c2c4c6" opacity="0.097"/>
      <path id="Path_19483" data-name="Path 19483" d="M1256.083,823.426l-25.111,88.922h-37.39l17.755-86.828h-30.808V764.333h75.555Zm-106.307,0-25.111,88.922H1087.22l17.81-86.828h-30.753V764.333h75.5ZM1177.542,6.431H56.616v815.41c0,84.507,66.871,153,149.45,153H1325.719l1.272-815.466C1326.991,74.92,1260.121,6.431,1177.542,6.431ZM215.579,218.349h-75.5V159.313l25.056-88.979h37.445l-17.81,86.884h30.808Zm106.307,0h-75.5V159.313L271.5,70.335h37.39l-17.81,86.884h30.808Z" transform="translate(-29.765 20.42)" fill="#c2c4c6" opacity="0.129"/>
      <path id="Path_19484" data-name="Path 19484" d="M1255.988,823.4l-25.056,88.978h-37.444l17.865-86.884h-30.808V764.308h75.443Zm-106.306,0-25.056,88.978h-37.39l17.81-86.884h-30.863V764.308h75.5ZM1177.5,6.406H56.591V821.872c0,84.45,66.925,152.939,149.447,152.939H1325.679l1.327-815.466C1327.006,74.895,1260.081,6.406,1177.5,6.406ZM215.552,218.324h-75.5V159.288L165.164,70.31H202.5l-17.754,86.884h30.807Zm106.361,0H246.3V159.288L271.47,70.31H308.86l-17.81,86.884h30.863Z" transform="translate(-30.738 19.447)" fill="#c2c4c6" opacity="0.161"/>
      <path id="Path_19485" data-name="Path 19485" d="M1256.033,823.376l-25.111,88.978h-37.39l17.755-86.884h-30.752V764.283h75.5Zm-106.307,0-25.111,88.978H1087.17l17.81-86.884h-30.753V764.283h75.5ZM1177.493,6.381H56.566V821.847c0,84.451,66.871,152.939,149.5,152.939H1325.725l1.217-815.467C1326.942,74.87,1260.071,6.381,1177.493,6.381ZM215.529,218.356h-75.5V159.263l25.056-88.978h37.446l-17.81,86.884h30.808Zm106.307,0h-75.5V159.263l25.111-88.978h37.39l-17.755,86.884h30.753Z" transform="translate(-31.71 18.475)" fill="#c2c4c6" opacity="0.194"/>
      <path id="Path_19486" data-name="Path 19486" d="M1255.993,823.351l-25.111,88.979h-37.39l17.809-86.884H1180.5v-61.13h75.5Zm-106.306,0-25.055,88.979h-37.445L1105,825.445h-30.863v-61.13h75.553ZM1177.509,6.356H56.541V821.823c0,84.45,66.925,152.939,149.448,152.939h1119.64l1.328-815.467C1326.956,74.845,1260.031,6.356,1177.509,6.356ZM215.5,218.331H140V159.238L165.115,70.26H202.5l-17.81,86.884H215.5Zm106.361,0H246.31V159.238L271.42,70.26h37.39L291,157.144h30.863Z" transform="translate(-32.683 17.502)" fill="#c2c4c6" opacity="0.226"/>
      <path id="Path_19487" data-name="Path 19487" d="M1255.944,823.326,1230.832,912.3h-37.391l17.81-86.884h-30.809V764.29h75.5Zm-106.309,0L1124.524,912.3h-37.446l17.865-86.884h-30.808V764.29h75.5ZM1177.4,6.331H56.517V821.8c0,84.45,66.872,152.939,149.452,152.939H1325.636l1.217-815.467C1326.853,74.82,1259.981,6.331,1177.4,6.331ZM215.482,218.306H139.927V159.213l25.056-88.979h37.446l-17.81,86.884h30.864Zm106.253,0h-75.5V159.213l25.111-88.979h37.39l-17.755,86.884h30.753Z" transform="translate(-33.616 16.53)" fill="#c2c4c6" opacity="0.258"/>
      <path id="Path_19488" data-name="Path 19488" d="M1255.944,823.3l-25.056,88.979h-37.445l17.81-86.884h-30.808v-61.13h75.5Zm-106.306,0-25.056,88.979h-37.445l17.81-86.884H1074.14v-61.13h75.5ZM1177.459,6.306H56.491V821.772c0,84.451,66.925,152.939,149.447,152.939H1325.579l1.327-815.467C1326.906,74.795,1259.982,6.306,1177.459,6.306ZM215.452,218.281h-75.5V159.188L165.064,70.21h37.39L184.7,157.094h30.753Zm106.361,0H246.26V159.188L271.37,70.21h37.445L290.95,157.094h30.863Z" transform="translate(-34.627 15.558)" fill="#c2c4c6" opacity="0.29"/>
      <path id="Path_19489" data-name="Path 19489" d="M1255.879,823.276l-25.111,88.979h-37.39l17.81-86.884H1180.38V764.24h75.5Zm-106.307,0-25.111,88.979h-37.39l17.81-86.884h-30.808V764.24h75.5ZM1177.339,6.281H56.467V821.748c0,84.45,66.871,152.939,149.449,152.939H1325.571l1.272-815.467C1326.843,74.77,1259.972,6.281,1177.339,6.281ZM215.43,218.256h-75.5V159.163l25.056-88.922h37.39l-17.81,86.828H215.43Zm106.307,0H246.183V159.163l25.167-88.922h37.335l-17.755,86.828h30.808Z" transform="translate(-35.561 14.585)" fill="#c2c4c6" opacity="0.323"/>
      <path id="Path_19490" data-name="Path 19490" d="M1255.893,823.251l-25.055,88.978h-37.445l17.81-86.884h-30.752v-61.13h75.442Zm-106.305,0-25.055,88.978h-37.445l17.81-86.884h-30.808v-61.13h75.5ZM1177.408,6.256H56.441V821.723c0,84.45,66.925,152.939,149.5,152.939h1119.64l1.273-815.467C1326.856,74.745,1259.93,6.256,1177.408,6.256ZM215.4,218.231H139.9V159.195l25.111-88.979H202.4l-17.755,86.828H215.4Zm106.361,0H246.21V159.195L271.32,70.216h37.445l-17.81,86.828h30.807Z" transform="translate(-36.572 13.613)" fill="#c2c4c6" opacity="0.355"/>
      <path id="Path_19491" data-name="Path 19491" d="M1255.829,823.282,1230.718,912.2h-37.335l17.755-86.828H1180.33V764.19h75.5Zm-106.252,0L1124.466,912.2h-37.445l17.81-86.828h-30.808V764.19h75.554ZM1177.343,6.231H56.417V821.7c0,84.45,66.871,152.939,149.45,152.939H1325.52l1.273-815.41C1326.793,74.72,1259.922,6.231,1177.343,6.231ZM215.38,218.206h-75.5V159.17l25.056-88.978h37.445l-17.865,86.828H215.38Zm106.307,0h-75.5V159.17L271.3,70.191h37.335l-17.755,86.828h30.808Z" transform="translate(-37.506 12.64)" fill="#c2c4c6" opacity="0.387"/>
      <path id="Path_19492" data-name="Path 19492" d="M1255.8,823.216l-25.056,88.923H1193.3l17.81-86.829H1180.36V764.122H1255.8Zm-106.308,0-25.056,88.923H1087l17.865-86.829H1074V764.122h75.5ZM1177.318,6.207H56.392V821.631c0,84.452,66.926,152.941,149.45,152.941H1325.5l1.272-815.424C1326.767,74.7,1259.842,6.207,1177.318,6.207ZM215.355,218.129H139.8V159.092l25.111-88.98H202.3L184.547,157h30.808Zm106.307,0H246.108V159.092l25.111-88.98h37.445L290.854,157h30.808Z" transform="translate(-38.478 11.707)" fill="#c2c4c6" opacity="0.419"/>
      <path id="Path_19493" data-name="Path 19493" d="M1255.834,823.177l-25.111,88.979h-37.39l17.755-86.884h-30.808V764.084h75.554Zm-106.307,0-25.11,88.979h-37.445l17.81-86.884h-30.753V764.084h75.5ZM1177.293,6.182H56.367v815.41c0,84.507,66.871,153,149.45,153H1325.47l1.272-815.467C1326.742,74.671,1259.872,6.182,1177.293,6.182ZM215.33,218.1h-75.5V159.064l25.056-88.979h37.445l-17.81,86.884H215.33Zm106.307,0h-75.5V159.064l25.111-88.979h37.39l-17.81,86.884h30.808Z" transform="translate(-39.451 10.734)" fill="#c2c4c6" opacity="0.452"/>
      <path id="Path_19494" data-name="Path 19494" d="M1255.754,823.152,1230.7,912.13h-37.445l17.865-86.884H1180.31V764.059h75.444Zm-106.307,0-25.056,88.978H1087l17.81-86.884h-30.864V764.059h75.5ZM1177.268,6.157H56.342V821.623c0,84.451,66.926,152.939,149.449,152.939H1325.445l1.272-815.467C1326.718,74.646,1259.847,6.157,1177.268,6.157ZM215.3,218.075h-75.5V159.039l25.111-88.979h37.335L184.5,156.945H215.3Zm106.362,0h-75.61V159.039l25.166-88.979h37.39L290.8,156.945h30.863Z" transform="translate(-40.423 9.762)" fill="#c2c4c6" opacity="0.484"/>
      <path id="Path_19495" data-name="Path 19495" d="M1255.784,823.127l-25.111,88.979h-37.39l17.755-86.884h-30.753v-61.13h75.5Zm-106.307,0-25.111,88.979H1086.92l17.81-86.884h-30.753v-61.13h75.5ZM1177.243,6.132H56.317V821.6c0,84.45,66.871,152.939,149.45,152.939H1325.475l1.217-815.467C1326.692,74.564,1259.821,6.132,1177.243,6.132ZM215.28,218.05h-75.5V159.014l25.056-88.979h37.445l-17.81,86.828H215.28Zm106.307,0h-75.5V159.014L271.2,70.036h37.39l-17.755,86.828h30.753Z" transform="translate(-41.395 8.789)" fill="#c2c4c6" opacity="0.516"/>
      <path id="Path_19496" data-name="Path 19496" d="M1255.689,823.1l-25.055,88.979h-37.39l17.81-86.885h-30.808v-61.13h75.443Zm-106.25,0-25.111,88.979h-37.389l17.81-86.885h-30.863v-61.13h75.553ZM1177.26,6.107H56.292V821.573c0,84.451,66.925,152.939,149.447,152.939H1325.38l1.327-815.466C1326.707,74.539,1259.782,6.107,1177.26,6.107ZM215.253,218.025h-75.5V158.989l25.111-88.978h37.39l-17.81,86.828h30.808Zm106.361,0H246.061V158.989l25.111-88.978h37.39l-17.81,86.828h30.863Z" transform="translate(-42.368 7.817)" fill="#c2c4c6" opacity="0.548"/>
      <path id="Path_19497" data-name="Path 19497" d="M1255.694,823.077l-25.111,88.978h-37.391l17.755-86.884h-30.753v-61.13h75.5Zm-106.308,0-25.111,88.978h-37.446l17.865-86.884h-30.808v-61.13h75.5ZM1177.152,6.082H56.268V821.549c0,84.45,66.871,152.939,149.451,152.939H1325.387l1.217-815.466C1326.6,74.571,1259.732,6.082,1177.152,6.082ZM215.232,218H139.677V158.964l25.056-88.979h37.446l-17.81,86.884h30.864Zm106.253,0h-75.5V158.964L271.1,69.986h37.39L290.733,156.87h30.753Z" transform="translate(-43.301 6.845)" fill="#c2c4c6" opacity="0.581"/>
      <path id="Path_19498" data-name="Path 19498" d="M1255.695,823.052,1230.64,912.03h-37.445L1211,825.146H1180.2v-61.13h75.5Zm-106.306,0-25.055,88.978h-37.445l17.81-86.884H1073.89v-61.13h75.5ZM1177.21,6.057H56.242V821.523c0,84.45,66.925,152.939,149.447,152.939H1325.33L1326.657,159C1326.657,74.546,1259.732,6.057,1177.21,6.057ZM215.2,217.975H139.7V158.939l25.111-88.979h37.39L184.45,156.845H215.2Zm106.361,0H246.011V158.939l25.111-88.979h37.445L290.7,156.845h30.863Z" transform="translate(-44.313 5.872)" fill="#c2c4c6" opacity="0.613"/>
      <path id="Path_19499" data-name="Path 19499" d="M1255.645,823.027l-25.111,88.979h-37.39l17.81-86.884h-30.808v-61.13h75.5Zm-106.308,0-25.111,88.979h-37.391l17.81-86.884h-30.808v-61.13h75.5ZM1177.1,6.032H56.218V821.5c0,84.45,66.871,152.939,149.451,152.939H1325.337l1.217-815.467C1326.554,74.521,1259.738,6.032,1177.1,6.032ZM215.183,217.95h-75.5V158.914l25.056-88.922h37.39l-17.81,86.828h30.864Zm106.309,0H245.936V158.914l25.112-88.922h37.39L290.683,156.82h30.809Z" transform="translate(-45.246 4.9)" fill="#c2c4c6" opacity="0.645"/>
      <path id="Path_19500" data-name="Path 19500" d="M1255.645,823l-25.056,88.978h-37.445l17.81-86.828H1180.2V763.966h75.443Zm-106.306,0-25.056,88.978h-37.445l17.81-86.828h-30.807V763.966h75.5Zm27.82-816.995H56.192V821.473c0,84.45,66.925,152.939,149.448,152.939h1119.7l1.272-815.466C1326.607,74.5,1259.682,6.007,1177.159,6.007ZM215.153,217.982h-75.5V158.889l25.111-88.922h37.39L184.4,156.8h30.753Zm106.361,0H245.961V158.889l25.111-88.922h37.445L290.706,156.8h30.808Z" transform="translate(-46.258 3.927)" fill="#c2c4c6" opacity="0.677"/>
      <path id="Path_19501" data-name="Path 19501" d="M1255.58,823.033l-25.111,88.922h-37.335l17.755-86.828h-30.808V763.941h75.5Zm-106.251,0-25.167,88.922h-37.39l17.81-86.828h-30.808V763.941h75.554ZM1177.094,5.982H56.168V821.448c0,84.45,66.871,152.939,149.449,152.939H1325.271l1.272-815.41C1326.544,74.471,1259.673,5.982,1177.094,5.982ZM215.131,217.957h-75.5V158.864l25.056-88.922h37.445L184.268,156.77h30.863Zm106.307,0h-75.5V158.864L271.05,69.942h37.335L290.63,156.77h30.808Z" transform="translate(-47.191 2.955)" fill="#c2c4c6" opacity="0.71"/>
      <path id="Path_19502" data-name="Path 19502" d="M1255.555,822.967,1230.5,911.89h-37.445l17.81-86.829h-30.753V763.873h75.444Zm-106.308,0-25.055,88.923h-37.445l17.865-86.829h-30.863V763.873h75.5ZM1177.069,5.958H56.143V821.382c0,84.452,66.871,152.942,149.45,152.942H1325.246l1.273-815.424C1326.519,74.391,1259.593,5.958,1177.069,5.958ZM215.106,217.88H139.552V158.786l25.111-88.923h37.39L184.3,156.692h30.808Zm106.307,0H245.859V158.786L270.97,69.863h37.445l-17.81,86.829h30.808Z" transform="translate(-48.164 2.021)" fill="#c2c4c6" opacity="0.742"/>
      <path id="Path_19503" data-name="Path 19503" d="M1255.585,822.928l-25.111,88.979h-37.39l17.755-86.884h-30.808V763.835h75.555Zm-106.307,0-25.111,88.979h-37.445l17.81-86.884h-30.753V763.835h75.5ZM1177.044,5.933H56.118v815.41c0,84.507,66.871,153,149.45,153H1325.221l1.272-815.466C1326.493,74.365,1259.623,5.933,1177.044,5.933ZM215.081,217.851h-75.5V158.759l25.056-88.922h37.445l-17.81,86.828h30.808Zm106.307,0h-75.5V158.759L271,69.837h37.39l-17.81,86.828h30.808Z" transform="translate(-49.136 1.049)" fill="#c2c4c6" opacity="0.774"/>
      <path id="Path_19504" data-name="Path 19504" d="M1255.5,822.9l-25.056,88.979H1193L1210.869,825h-30.808V763.81H1255.5Zm-106.307,0-25.056,88.979h-37.39L1104.562,825H1073.7V763.81h75.5ZM1177.019,5.908H56.093V821.375c0,84.45,66.926,152.939,149.449,152.939H1325.2l1.272-815.467C1326.468,74.34,1259.6,5.908,1177.019,5.908ZM215.056,217.826h-75.5V158.734l25.111-88.922H202l-17.755,86.828h30.808Zm106.362,0h-75.61V158.734L270.92,69.812h37.445l-17.81,86.828h30.863Z" transform="translate(-50.109 0.077)" fill="#c2c4c6" opacity="0.806"/>
      <path id="Path_19505" data-name="Path 19505" d="M1255.535,822.878l-25.11,88.979h-37.39l17.755-86.884h-30.753V763.785h75.5Zm-106.307,0-25.111,88.979h-37.446l17.811-86.884h-30.753V763.785h75.5ZM1176.994,5.883H56.068V821.349c0,84.45,66.871,152.939,149.45,152.939H1325.227l1.217-815.467C1326.444,74.315,1259.573,5.883,1176.994,5.883ZM215.031,217.8h-75.5V158.709l25.056-88.922h37.445l-17.81,86.828h30.808Zm106.307,0h-75.5V158.709L270.95,69.787h37.39l-17.755,86.828h30.753Z" transform="translate(-51.081 -0.896)" fill="#c2c4c6" opacity="0.839"/>
      <path id="Path_19506" data-name="Path 19506" d="M1255.44,822.853l-25.055,88.979H1193l17.809-86.884H1180V763.76h75.443Zm-106.251,0-25.111,88.979h-37.39l17.81-86.884h-30.863V763.76h75.553ZM1177.011,5.858H56.043V821.325c0,84.45,66.925,152.939,149.448,152.939H1325.131l1.328-815.467C1326.459,74.29,1259.534,5.858,1177.011,5.858ZM215,217.776h-75.5V158.74l25.111-88.979h37.389L184.2,156.589H215Zm106.361,0H245.812V158.74l25.111-88.979h37.389L290.5,156.589h30.863Z" transform="translate(-52.053 -1.868)" fill="#c2c4c6" opacity="0.871"/>
      <path id="Path_19507" data-name="Path 19507" d="M1255.446,822.828l-25.111,88.978h-37.391l17.755-86.884h-30.753v-61.13h75.5Zm-106.309,0-25.111,88.978H1086.58l17.865-86.884h-30.808v-61.13h75.5ZM1176.9,5.833H56.019V821.3c0,84.45,66.816,152.939,149.451,152.939H1325.137l1.217-815.467C1326.354,74.265,1259.483,5.833,1176.9,5.833ZM214.984,217.751H139.429V158.715l25.056-88.979H201.93l-17.81,86.884h30.864Zm106.253,0h-75.5V158.715l25.111-88.979h37.39l-17.755,86.884h30.753Z" transform="translate(-52.987 -2.841)" fill="#c2c4c6" opacity="0.903"/>
      <path id="Path_19508" data-name="Path 19508" d="M1255.446,822.8l-25.056,88.979h-37.445l17.81-86.884h-30.808v-61.13h75.5Zm-106.306,0-25.055,88.979h-37.445l17.81-86.884h-30.807v-61.13h75.5ZM1176.961,5.808H55.993V821.275c0,84.45,66.925,152.939,149.448,152.939H1325.081l1.327-815.466C1326.408,74.3,1259.483,5.808,1176.961,5.808ZM214.954,217.726h-75.5V158.69l25.111-88.922h37.389L184.146,156.6h30.808Zm106.361,0H245.762V158.69l25.111-88.922h37.445L290.452,156.6h30.863Z" transform="translate(-53.998 -3.813)" fill="#c2c4c6" opacity="0.935"/>
      <path id="Path_19509" data-name="Path 19509" d="M1255.4,822.778l-25.112,88.979h-37.39l17.81-86.884H1179.9v-61.13h75.5Zm-106.308,0-25.112,88.979h-37.391l17.81-86.884h-30.809v-61.13h75.5ZM1176.854,5.783H55.969V821.25c0,84.45,66.871,152.939,149.451,152.939H1325.088l1.217-815.467C1326.3,74.272,1259.433,5.783,1176.854,5.783ZM214.934,217.7H139.379V158.665L164.49,69.743h37.39l-17.81,86.828h30.864Zm106.309,0H245.687V158.665L270.8,69.743h37.39l-17.755,86.828h30.809Z" transform="translate(-54.932 -4.786)" fill="#c2c4c6" opacity="0.968"/>
      <path id="Path_19510" data-name="Path 19510" d="M1255.4,822.753l-25.055,88.979H1192.9l17.81-86.828h-30.752V763.717H1255.4Zm-106.306,0-25.056,88.979H1086.59L1104.4,824.9h-30.808V763.717h75.5ZM1176.911,5.758H55.943V821.225c0,84.45,66.925,152.939,149.447,152.939h1119.7l1.272-815.467C1326.359,74.247,1259.434,5.758,1176.911,5.758ZM214.9,217.676h-75.5V158.64l25.111-88.922h37.39l-17.754,86.828H214.9Zm106.361,0H245.712V158.64l25.111-88.922h37.445l-17.81,86.828h30.808Z" transform="translate(-55.943 -5.758)" fill="#c2c4c6"/>
    </g>
    <path id="Path_19511" data-name="Path 19511" d="M1176.911,5.758H55.943V821.225c0,84.45,66.925,152.939,149.447,152.939h1119.7l1.272-815.467C1326.359,74.247,1259.434,5.758,1176.911,5.758ZM214.9,217.676h-75.5V158.64l25.111-88.922h37.39l-17.754,86.828H214.9Zm106.361,0H245.712V158.64l25.111-88.922h37.445l-17.81,86.828h30.808ZM1149.09,822.753l-25.056,88.979H1086.59L1104.4,824.9h-30.808V763.717h75.5Zm106.306,0-25.055,88.979H1192.9l17.81-86.828h-30.752V763.717H1255.4Z" transform="translate(0 0)" fill="url(#linear-gradient)"/>
    <path id="Path_19512" data-name="Path 19512" d="M1166.619,6.144H56.329V810.83c0,73.289,58.025,132.919,129.341,132.919H1294.676l1.229-804.686C1295.9,65.774,1237.935,6.144,1166.619,6.144Z" transform="translate(15.014 15.014)" fill="url(#linear-gradient-2)"/>
  </g>
</svg>
