<svg id="Background" xmlns="http://www.w3.org/2000/svg" xmlns:xlink="http://www.w3.org/1999/xlink" width="1921.4" height="2936.018" viewBox="0 0 1921.4 2936.018">
  <defs>
    <clipPath id="clip-path">
      <path id="Rectangle" d="M0,2.251S190.891-26.863,502.522,168.438c142.687,89.423,347.513,60.447,453.15,0,163.5-93.558,344.02-122.8,394.141-142.676s234.042-19.872,349.571,0,222.016,72.1,222.016,72.1V2931.833s-142.2,49.312-480.421-164.99c-108.446-68.712-341.15-106.733-553.81,24.942-79.189,49.033-289.2,129.274-459.531,129.274C172.447,2921.058,0,2831.64,0,2831.64Z" transform="translate(0 -0.715)" fill="#4a7ced"/>
    </clipPath>
    <linearGradient id="linear-gradient" x1="0.224" y1="0.5" x2="0.78" y2="0.363" gradientUnits="objectBoundingBox">
      <stop offset="0" stop-color="#86a7f3"/>
      <stop offset="1" stop-color="#86a7f3"/>
    </linearGradient>
    <linearGradient id="linear-gradient-2" x1="0.778" y1="-0.963" x2="0.221" y2="-0.963" gradientUnits="objectBoundingBox">
      <stop offset="0" stop-color="#c1d2f9"/>
      <stop offset="1" stop-color="#d6e1fb"/>
    </linearGradient>
    <linearGradient id="linear-gradient-3" x1="0.219" y1="1" x2="0.78" y2="0.85" xlink:href="#linear-gradient"/>
  </defs>
  <path id="Rectangle-2" data-name="Rectangle" d="M0,2.251S190.891-26.863,502.522,168.438c142.687,89.423,347.513,60.447,453.15,0,163.5-93.558,344.02-122.8,394.141-142.676s234.042-19.872,349.571,0,222.016,72.1,222.016,72.1V2931.833s-142.2,49.312-480.421-164.99c-108.446-68.712-341.15-106.733-553.81,24.942-79.189,49.033-289.2,129.274-459.531,129.274C172.447,2921.058,0,2831.64,0,2831.64Z" transform="translate(0 -0.715)" fill="#4a7ced"/>
  <g id="Background-2" data-name="Background" transform="translate(0 0)" clip-path="url(#clip-path)">
    <g id="wave2" transform="translate(2747.962 3090.678) rotate(180)">
      <path id="Path" d="M1668.825,413.372c-719.394,542.36-928.262-208.836-1130.073,0C232.859,731.54,0,366.692,0,366.692V0H3528.171V366.692S3309.072,527,3193.347,546.659c-115.724,20.269-221.569-75.55-267.435-135.743-82.206-106.261-296.366-357.478-474.186-382.047S1737.271,362.392,1668.825,413.372Z" transform="translate(0 0)" opacity="0.33" fill="url(#linear-gradient)"/>
      <path id="Path-2" data-name="Path" d="M2589.677,411.7c-160.531,0-272.375-141.924-455.487-239.19-100.906-53.221-530.284-61.786-896.155,239.19s-323.533-210.438-526.4,0C408.209,723.687,0,243.472,0,243.472V0H3528.171V223.285s-99.494-113.172-324.945-113.172C2858.524,110.725,2736.8,411.7,2589.677,411.7Z" transform="translate(0 3.134)" opacity="0.66" fill="url(#linear-gradient-2)"/>
      <path id="Path-3" data-name="Path" d="M2702.932,178.25C1997.3-176.4,1764.438,582.241,1308.951,298.522,853.817,11.1,853.817,33.306,652.006,127.057c-200.4,93.751-185.229,149.878-334.823,196.753C100.906,392.889,0,0,0,0H3528.171s-34.929,252.263-294.955,296.671S2926.97,289.887,2702.932,178.25Z" transform="translate(0 0)"/>
    </g>
    <g id="wave2-2" data-name="wave2" transform="translate(-740.94 -63.137)">
      <path id="Path-4" data-name="Path" d="M1611.455,278.394c-694.663,365.262-896.351-140.645-1091.224,0C224.854,492.67,0,246.956,0,246.956V0H3406.883V246.956s-211.568,107.965-323.313,121.2c-111.746,13.651-213.953-50.88-258.242-91.419-79.38-71.563-286.178-240.751-457.885-257.3S1677.549,244.06,1611.455,278.394Z" transform="translate(0 3.134)" opacity="0.33" fill="url(#linear-gradient-3)"/>
      <path id="Path-5" data-name="Path" d="M2610.013,121.394c-681.376-241.528-906.231,275.132-1346.059,81.91C824.466,7.561,824.466,22.683,629.592,86.53c-193.511,63.847-178.861,102.072-323.313,134C97.437,267.571,0,0,0,0H3406.883s-33.728,171.8-284.815,202.043S2826.35,197.423,2610.013,121.394Z" transform="translate(0 0)"/>
    </g>
  </g>
</svg>
