<svg xmlns="http://www.w3.org/2000/svg" width="1398.672" height="665.406" viewBox="0 0 1398.672 665.406">
  <g id="Group_3336" data-name="Group 3336" transform="translate(98.828 205.844)">
    <g id="Group_3175" data-name="Group 3175" transform="translate(0 0)">
      <g id="Group_3174" data-name="Group 3174">
        <path id="Path_11864" data-name="Path 11864" d="M5223.391,4081.7q-193.553,47.9-387.119,95.8c-17.777,4.4-35.566,8.737-53.344,13.141a8.621,8.621,0,0,0-1.941,1.032h-3.4c4.1-14.394,10.292-27.947,15.5-41.894,8.421-22.543,17.023-45.013,25.547-67.512,3.075-2.753,6.822-1.868,10.317-1.868,76.453-.053,152.923.816,229.362-.339,51.72-.781,103.422-.408,155.13-.817C5216.848,4079.215,5220.733,4078.055,5223.391,4081.7Z" transform="translate(-4083.658 -3732.107)" fill="#dfb808"/>
        <path id="Path_11866" data-name="Path 11866" d="M5724.08,4300.455c-14.522-.094-29.05-.242-43.58-.261-32.839-.041-65.681-.35-98.517.053-85.671,1.054-171.346.148-257.014.5-1.883.006-3.766.181-5.648.28q-35.143,0-70.283,0-152.214,0-304.436.011-147.1.043-294.217.324c-5.84.014-7.051-1.608-7.037-7.44q.284-132.028.009-264.06c-.009-5.448,1.354-6.826,6.551-6.639,54.916,1.942,109.835,3.634,164.754,5.4q50.387,1.615,100.772,3.24,96.511,3.283,193.015,6.644c31.329,1.048,62.664,1.76,93.987,2.775,42.831,1.382,85.651,2.954,128.475,4.356q79.271,2.591,158.532,5.036,54.062,1.733,108.116,3.531,53.5,1.756,106.993,3.536c6.033.208,12.061.724,18.1.733,3.131,0,3.736,1.367,3.712,4.239q-.469,61.735-.8,123.469-.176,28.814-.358,57.618c-.091,17.251-.1,34.5-.223,51.749C5724.967,4297.183,5725.767,4299.1,5724.08,4300.455Z" transform="translate(-4584.347 -3950.863)" fill="#fcd009"/>
        <path id="Path_12127" data-name="Path 12127" d="M6039.074,4300.455c-18.755-.094-37.517-.242-56.282-.261-42.41-.041-84.825-.35-127.231.053-110.642,1.054-221.288.148-331.924.5-2.431.006-4.863.181-7.294.28q-45.386,0-90.768,0-196.579,0-393.167.011-189.979.043-379.971.324c-7.542.014-9.106-1.608-9.088-7.44q.367-132.028.011-264.06c-.011-5.448,1.749-6.826,8.46-6.639q106.384,2.913,212.774,5.4,65.073,1.615,130.144,3.24,124.641,3.283,249.271,6.644c40.459,1.048,80.928,1.76,121.381,2.775,55.315,1.382,110.616,2.954,165.92,4.356q102.376,2.591,204.738,5.036,69.818,1.733,139.628,3.531,69.089,1.756,138.178,3.536c7.791.208,15.577.724,23.371.733,4.043,0,4.826,1.367,4.794,4.239q-.606,61.735-1.039,123.469c-.151,19.209-.343,38.415-.462,57.618-.118,17.251-.13,34.5-.288,51.749C6040.219,4297.183,6041.252,4299.1,6039.074,4300.455Z" transform="translate(-4742.177 -4229.053)" fill="#fcd009"/>
        <path id="Path_12128" data-name="Path 12128" d="M0,44Z" transform="translate(58.568 63.287)" fill="#dfb808"/>
        <path id="Path_12129" data-name="Path 12129" d="M1141.492,112.057l156.22-41.281L58.472,72.394Z" fill="#dfb808"/>
      </g>
    </g>
  </g>
</svg>
