<svg xmlns="http://www.w3.org/2000/svg" xmlns:xlink="http://www.w3.org/1999/xlink" width="1574.208" height="1107.726" viewBox="0 0 1574.208 1107.726">
  <defs>
    <linearGradient id="linear-gradient" x1="-0.036" y1="0.5" x2="1.229" y2="0.5" gradientUnits="objectBoundingBox">
      <stop offset="0" stop-color="#4d6162"/>
      <stop offset="0.49" stop-color="#4b5f60"/>
      <stop offset="0.667" stop-color="#465859"/>
      <stop offset="0.793" stop-color="#3c4c4d"/>
      <stop offset="0.895" stop-color="#2f3c3c"/>
      <stop offset="0.981" stop-color="#1d2626"/>
      <stop offset="1" stop-color="#192121"/>
    </linearGradient>
    <linearGradient id="linear-gradient-2" x1="-0.009" y1="0.5" x2="1.121" y2="0.5" gradientUnits="objectBoundingBox">
      <stop offset="0.022" stop-color="#fbb400"/>
      <stop offset="0.3" stop-color="#f9b100"/>
      <stop offset="0.458" stop-color="#f6a900"/>
      <stop offset="0.586" stop-color="#f09b00"/>
      <stop offset="0.698" stop-color="#e88700"/>
      <stop offset="0.799" stop-color="#dd6e00"/>
      <stop offset="0.893" stop-color="#d04e00"/>
      <stop offset="0.98" stop-color="#c12900"/>
      <stop offset="1" stop-color="#bd2000"/>
    </linearGradient>
    <linearGradient id="linear-gradient-3" x1="-0.043" y1="0.5" x2="1.11" y2="0.5" gradientUnits="objectBoundingBox">
      <stop offset="0.005" stop-color="#07c1d6"/>
      <stop offset="0.412" stop-color="#06bfd4"/>
      <stop offset="0.558" stop-color="#06b9cd"/>
      <stop offset="0.663" stop-color="#06aec1"/>
      <stop offset="0.747" stop-color="#059fb0"/>
      <stop offset="0.819" stop-color="#058b9a"/>
      <stop offset="0.883" stop-color="#04737f"/>
      <stop offset="0.941" stop-color="#03555f"/>
      <stop offset="0.993" stop-color="#02353a"/>
      <stop offset="1" stop-color="#023035"/>
    </linearGradient>
    <linearGradient id="linear-gradient-4" x1="1.213" y1="0.5" x2="0.003" y2="0.5" gradientUnits="objectBoundingBox">
      <stop offset="0" stop-color="#731717"/>
      <stop offset="0.034" stop-color="#831b19"/>
      <stop offset="0.103" stop-color="#9d231c"/>
      <stop offset="0.183" stop-color="#b32a1f"/>
      <stop offset="0.276" stop-color="#c42e22"/>
      <stop offset="0.391" stop-color="#d03223"/>
      <stop offset="0.552" stop-color="#d73424"/>
      <stop offset="1" stop-color="#d93525"/>
    </linearGradient>
    <linearGradient id="linear-gradient-5" y1="0.5" x2="1.154" y2="0.5" gradientUnits="objectBoundingBox">
      <stop offset="0" stop-color="#420d0d"/>
      <stop offset="0.3" stop-color="#6b1813"/>
      <stop offset="0.972" stop-color="#d43324"/>
      <stop offset="1" stop-color="#d93525"/>
    </linearGradient>
    <linearGradient id="linear-gradient-6" x1="0.409" y1="0.336" x2="0.637" y2="0.746" gradientUnits="objectBoundingBox">
      <stop offset="0" stop-color="#420d0d"/>
      <stop offset="0.091" stop-color="#54110f"/>
      <stop offset="0.401" stop-color="#8c2018"/>
      <stop offset="0.666" stop-color="#b62b1f"/>
      <stop offset="0.875" stop-color="#cf3223"/>
      <stop offset="1" stop-color="#d93525"/>
    </linearGradient>
    <linearGradient id="linear-gradient-7" x1="1.311" y1="0.5" x2="-0.102" y2="0.5" gradientUnits="objectBoundingBox">
      <stop offset="0" stop-color="#06aec1"/>
      <stop offset="0.666" stop-color="#035760"/>
      <stop offset="1" stop-color="#023035"/>
    </linearGradient>
    <linearGradient id="linear-gradient-8" x1="0.5" y1="-1.239" x2="0.5" y2="4.392" gradientUnits="objectBoundingBox">
      <stop offset="0.005" stop-color="#00c9e1"/>
      <stop offset="0.181" stop-color="#00c5dd"/>
      <stop offset="0.33" stop-color="#00bcd3"/>
      <stop offset="0.468" stop-color="#00acc1"/>
      <stop offset="0.601" stop-color="#0096a9"/>
      <stop offset="0.729" stop-color="#007989"/>
      <stop offset="0.854" stop-color="#005662"/>
      <stop offset="0.974" stop-color="#002d34"/>
      <stop offset="1" stop-color="#00242a"/>
    </linearGradient>
    <linearGradient id="linear-gradient-9" x1="1.084" y1="0.5" x2="-0.05" y2="0.5" gradientUnits="objectBoundingBox">
      <stop offset="0" stop-color="#b3afa4"/>
      <stop offset="0.457" stop-color="#7c7972"/>
      <stop offset="0.995" stop-color="#403f3b"/>
    </linearGradient>
    <linearGradient id="linear-gradient-10" x1="0.579" y1="1.877" x2="0.458" y2="-0.232" gradientUnits="objectBoundingBox">
      <stop offset="0" stop-color="#c0bcb0"/>
      <stop offset="0.447" stop-color="#88867d"/>
      <stop offset="0.995" stop-color="#403f3b"/>
    </linearGradient>
    <linearGradient id="linear-gradient-11" x1="0.5" y1="-2.239" x2="0.5" y2="3.392" gradientUnits="objectBoundingBox">
      <stop offset="0" stop-color="#e1dccd"/>
      <stop offset="0.311" stop-color="#ded9ca"/>
      <stop offset="0.473" stop-color="#d6d2c3"/>
      <stop offset="0.601" stop-color="#c9c5b7"/>
      <stop offset="0.711" stop-color="#b6b2a6"/>
      <stop offset="0.81" stop-color="#9d9a8f"/>
      <stop offset="0.9" stop-color="#7f7c74"/>
      <stop offset="0.982" stop-color="#5b5a53"/>
      <stop offset="1" stop-color="#53524c"/>
    </linearGradient>
    <linearGradient id="linear-gradient-12" x1="1.138" y1="0.5" x2="-0.04" y2="0.5" gradientUnits="objectBoundingBox">
      <stop offset="0" stop-color="#aba79d"/>
      <stop offset="0.43" stop-color="#7f7c74"/>
      <stop offset="0.995" stop-color="#403f3b"/>
    </linearGradient>
    <linearGradient id="linear-gradient-13" x1="0.5" y1="-3.239" x2="0.5" y2="2.392" gradientUnits="objectBoundingBox">
      <stop offset="0.022" stop-color="#fb0"/>
      <stop offset="0.261" stop-color="#fdb800"/>
      <stop offset="0.428" stop-color="#f9af00"/>
      <stop offset="0.573" stop-color="#f29f00"/>
      <stop offset="0.705" stop-color="#e98900"/>
      <stop offset="0.829" stop-color="#dc6d00"/>
      <stop offset="0.944" stop-color="#cd4b00"/>
      <stop offset="1" stop-color="#c53800"/>
    </linearGradient>
    <radialGradient id="radial-gradient" cx="1.09" cy="0.836" r="1.055" gradientTransform="translate(-0.102) scale(1.203 1)" gradientUnits="objectBoundingBox">
      <stop offset="0.022" stop-color="#fb0"/>
      <stop offset="0.132" stop-color="#fcb500"/>
      <stop offset="0.273" stop-color="#f5a500"/>
      <stop offset="0.431" stop-color="#ea8b00"/>
      <stop offset="0.6" stop-color="#da6600"/>
      <stop offset="0.629" stop-color="#d76000"/>
      <stop offset="0.837" stop-color="#a03d00"/>
      <stop offset="1" stop-color="#732100"/>
    </radialGradient>
    <radialGradient id="radial-gradient-2" cx="0.422" cy="-0.027" r="0.514" gradientTransform="translate(-0.102) scale(1.203 1)" gradientUnits="objectBoundingBox">
      <stop offset="0.446"/>
      <stop offset="0.573" stop-color="#454545"/>
      <stop offset="0.728" stop-color="#949494"/>
      <stop offset="0.856" stop-color="#cdcdcd"/>
      <stop offset="0.95" stop-color="#f1f1f1"/>
      <stop offset="1" stop-color="#fff"/>
    </radialGradient>
    <radialGradient id="radial-gradient-3" cx="0.146" cy="0.061" r="0.514" xlink:href="#radial-gradient-2"/>
    <radialGradient id="radial-gradient-4" cx="-0.655" cy="0.612" r="0.796" gradientTransform="translate(-0.102) scale(1.203 1)" gradientUnits="objectBoundingBox">
      <stop offset="0.226"/>
      <stop offset="0.404" stop-color="#454545"/>
      <stop offset="0.62" stop-color="#949494"/>
      <stop offset="0.798" stop-color="#cdcdcd"/>
      <stop offset="0.93" stop-color="#f1f1f1"/>
      <stop offset="1" stop-color="#fff"/>
    </radialGradient>
    <linearGradient id="linear-gradient-14" x1="0.5" y1="-4.239" x2="0.5" y2="1.392" gradientUnits="objectBoundingBox">
      <stop offset="0" stop-color="#455c5d"/>
      <stop offset="0.468" stop-color="#435a5b"/>
      <stop offset="0.657" stop-color="#3d5353"/>
      <stop offset="0.796" stop-color="#334747"/>
      <stop offset="0.909" stop-color="#243636"/>
      <stop offset="1" stop-color="#142222"/>
    </linearGradient>
    <linearGradient id="linear-gradient-15" x1="0.532" y1="0.384" x2="0.42" y2="0.787" gradientUnits="objectBoundingBox">
      <stop offset="0" stop-color="#455c5d"/>
      <stop offset="0.271" stop-color="#415859"/>
      <stop offset="0.524" stop-color="#384d4d"/>
      <stop offset="0.769" stop-color="#283a3b"/>
      <stop offset="1" stop-color="#142222"/>
    </linearGradient>
    <linearGradient id="linear-gradient-16" x1="0.261" y1="0.5" x2="-0.026" y2="0.5" gradientUnits="objectBoundingBox">
      <stop offset="0.398" stop-color="gray"/>
      <stop offset="0.497" stop-color="#7b7b7b"/>
      <stop offset="0.605" stop-color="#6e6e6e"/>
      <stop offset="0.718" stop-color="#585858"/>
      <stop offset="0.834" stop-color="#393939"/>
      <stop offset="0.951" stop-color="#121212"/>
      <stop offset="1"/>
    </linearGradient>
    <clipPath id="clip-path">
      <path id="Path_14462" data-name="Path 14462" d="M392.322,213.8a55.087,55.087,0,0,1-32.114,50.134l-73.653,33.491A50.784,50.784,0,0,0,256.933,343.7v72.749h496V347.137a54.959,54.959,0,0,0-32.962-50.52l-76.151-32.988A55.065,55.065,0,0,1,610.8,213.058V195.17H392.322Z" transform="translate(-256.933 -195.17)" fill="none"/>
    </clipPath>
    <radialGradient id="radial-gradient-5" cx="0.5" cy="0.5" r="0.5" gradientTransform="translate(0)" gradientUnits="objectBoundingBox">
      <stop offset="0" stop-color="#6b6b6b"/>
      <stop offset="0.57" stop-color="#2b2b2b"/>
      <stop offset="1"/>
    </radialGradient>
    <radialGradient id="radial-gradient-6" cx="0.5" cy="0.5" r="0.5" gradientTransform="matrix(1, 0, 0, 1, 0, 0)" xlink:href="#radial-gradient-5"/>
    <clipPath id="clip-path-2">
      <path id="Path_14464" data-name="Path 14464" d="M323.012,282.5,283.6,296.137v76.731H502.079V298.411l-58.573-89.836V151.587H323.012Z" transform="translate(-283.598 -151.587)" fill="none"/>
    </clipPath>
    <clipPath id="clip-path-3">
      <path id="Path_14466" data-name="Path 14466" d="M470.359,283.848l-54.553-68.761,54.621-68.753L380.894,64.423,291.36,146.334V506.988H411.854V492.271l58.5-70.91L415.806,352.6l53.075-66.9h-.024l.029,0Z" transform="translate(-291.36 -64.423)" fill="none"/>
    </clipPath>
    <radialGradient id="radial-gradient-8" cx="0.5" cy="0.5" r="0.5" gradientUnits="objectBoundingBox">
      <stop offset="0.005" stop-color="#6b5151"/>
      <stop offset="0.457" stop-color="#332626"/>
      <stop offset="0.813" stop-color="#0e0a0a"/>
      <stop offset="1"/>
    </radialGradient>
  </defs>
  <g id="Group_4396" data-name="Group 4396" transform="translate(-132.218 -64.423)">
    <g id="KEY" transform="translate(23.085 64.423)">
      <g id="Group_4371" data-name="Group 4371">
        <path id="Path_14435" data-name="Path 14435" d="M133.581,238.083V459.366l1300.589.668V238.751Z" transform="translate(-23.085 646.38)" fill="#ebebeb"/>
        <path id="Path_14436" data-name="Path 14436" d="M139.983,240.351V445.39l1307.545,9.433,74.649-35.628-6.787-178.844Z" transform="translate(-13.626 652.903)" fill="url(#linear-gradient)"/>
        <path id="Path_14437" data-name="Path 14437" d="M134.218,195.169V416.453H1434.17V195.169Z" transform="translate(-23.085 468.679)" fill="#f7e3be"/>
        <path id="Path_14438" data-name="Path 14438" d="M133.01,196.769v205.04h1291.7V196.769Z" transform="translate(-13.626 475.201)" fill="url(#linear-gradient-2)"/>
        <path id="Path_14439" data-name="Path 14439" d="M133.218,151.587V372.87H1434.17V151.587Z" transform="translate(-23.085 290.977)" fill="#f8f5ec"/>
        <path id="Path_14440" data-name="Path 14440" d="M133.01,153.187V358.224h1291.7V153.187Z" transform="translate(-13.626 297.502)" fill="#d6d1c4"/>
        <path id="Path_14441" data-name="Path 14441" d="M133.218,108V329.288H1434.17V108Z" transform="translate(-23.085 113.276)" fill="#c9eef2"/>
        <path id="Path_14442" data-name="Path 14442" d="M133.01,109.6V314.64h1291.7V109.6Z" transform="translate(-13.626 119.8)" fill="url(#linear-gradient-3)"/>
        <path id="Path_14443" data-name="Path 14443" d="M132.218,64.423V285.7H1434.17V64.423Z" transform="translate(-23.085 -64.423)" fill="#f2ccc9"/>
        <path id="Path_14444" data-name="Path 14444" d="M133.01,66.023V271.056h1291.7V66.023Z" transform="translate(-13.626 -57.899)" fill="url(#linear-gradient-4)"/>
      </g>
      <g id="Group_4374" data-name="Group 4374" transform="translate(1138.835)">
        <rect id="Rectangle_654" data-name="Rectangle 654" width="48.508" height="0.003" transform="translate(174.798 442.564)" fill="#145571"/>
        <rect id="Rectangle_655" data-name="Rectangle 655" width="48.508" height="0.003" transform="translate(174.798 221.281)" fill="#145571"/>
        <rect id="Rectangle_656" data-name="Rectangle 656" width="218.482" height="0.005" transform="translate(183.892 663.848)" fill="#2399ca"/>
        <rect id="Rectangle_657" data-name="Rectangle 657" width="120.494" height="0.003" transform="translate(223.307 442.564)" fill="#2399ca"/>
        <rect id="Rectangle_658" data-name="Rectangle 658" width="496.004" height="0.005" transform="translate(48.503 885.131)" fill="#2399ca"/>
        <rect id="Rectangle_659" data-name="Rectangle 659" width="177.523" height="0.004" transform="translate(223.307 221.28)" fill="#2399ca"/>
        <rect id="Rectangle_660" data-name="Rectangle 660" width="48.508" height="0.005" transform="translate(135.384 663.848)" fill="#145875"/>
        <rect id="Rectangle_661" data-name="Rectangle 661" width="48.503" height="0.005" transform="translate(0 885.131)" fill="#145875"/>
        <rect id="Rectangle_662" data-name="Rectangle 662" width="48.508" height="139.371" transform="translate(174.798 81.911)" fill="url(#linear-gradient-5)"/>
        <path id="Path_14446" data-name="Path 14446" d="M330.315,146.334l89.533-81.911H371.34l-89.534,81.911Z" transform="translate(-107.008 -64.423)" fill="url(#linear-gradient-6)"/>
        <path id="Path_14447" data-name="Path 14447" d="M291.36,285.7H468.886l1.473-1.857-54.553-68.761,54.621-68.753L380.894,64.423,291.36,146.334Z" transform="translate(-68.054 -64.423)" fill="#e52a18"/>
        <rect id="Rectangle_663" data-name="Rectangle 663" width="48.508" height="221.281" transform="translate(174.798 221.284)" fill="url(#linear-gradient-7)"/>
        <path id="Path_14448" data-name="Path 14448" d="M291.36,329.286H411.854V314.57l58.5-70.91L415.806,174.9l53.075-66.9H291.36Z" transform="translate(-68.054 113.278)" fill="url(#linear-gradient-8)"/>
        <rect id="Rectangle_664" data-name="Rectangle 664" width="48.508" height="130.909" transform="translate(174.798 442.567)" fill="url(#linear-gradient-9)"/>
        <path id="Path_14449" data-name="Path 14449" d="M274.044,191.011h48.508l39.414-13.64H313.458Z" transform="translate(-138.66 396.106)" fill="url(#linear-gradient-10)"/>
        <path id="Path_14450" data-name="Path 14450" d="M323.012,282.5,283.6,296.137v76.731H502.079V298.411l-58.573-89.836V151.587H323.012Z" transform="translate(-99.705 290.979)" fill="url(#linear-gradient-11)"/>
        <rect id="Rectangle_665" data-name="Rectangle 665" width="48.508" height="76.731" transform="translate(135.384 587.116)" fill="url(#linear-gradient-12)"/>
        <path id="Path_14451" data-name="Path 14451" d="M392.322,213.8a55.087,55.087,0,0,1-32.114,50.134l-73.653,33.491A50.784,50.784,0,0,0,256.933,343.7v72.749h496V347.137a54.959,54.959,0,0,0-32.962-50.52l-76.151-32.988A55.065,55.065,0,0,1,610.8,213.058V195.17H392.322Z" transform="translate(-208.428 468.683)" fill="url(#linear-gradient-13)"/>
        <path id="Path_14452" data-name="Path 14452" d="M295.884,343.7a50.784,50.784,0,0,1,29.621-46.275l73.653-33.491A55.087,55.087,0,0,0,431.273,213.8V195.17H382.764V213.8a55.1,55.1,0,0,1-32.1,50.134l-73.668,33.491A50.784,50.784,0,0,0,247.38,343.7v72.749h48.5Z" transform="translate(-247.379 468.683)" fill="url(#radial-gradient)"/>
        <path id="Path_14453" data-name="Path 14453" d="M295.884,343.7a50.784,50.784,0,0,1,29.621-46.275l73.653-33.491A55.087,55.087,0,0,0,431.273,213.8V195.17H382.764V213.8a55.1,55.1,0,0,1-32.1,50.134l-73.668,33.491A50.784,50.784,0,0,0,247.38,343.7v72.749h48.5Z" transform="translate(-247.379 468.683)" fill="url(#radial-gradient-2)" style="mix-blend-mode: multiply;isolation: isolate"/>
        <path id="Path_14454" data-name="Path 14454" d="M295.884,343.7a50.784,50.784,0,0,1,29.621-46.275l73.653-33.491A55.087,55.087,0,0,0,431.273,213.8V195.17H382.764V213.8a55.1,55.1,0,0,1-32.1,50.134l-73.668,33.491A50.784,50.784,0,0,0,247.38,343.7v72.749h48.5Z" transform="translate(-247.379 468.683)" fill="url(#radial-gradient-3)" style="mix-blend-mode: multiply;isolation: isolate"/>
        <path id="Path_14455" data-name="Path 14455" d="M295.884,343.7a50.784,50.784,0,0,1,29.621-46.275l73.653-33.491A55.087,55.087,0,0,0,431.273,213.8V195.17H382.764V213.8a55.1,55.1,0,0,1-32.1,50.134l-73.668,33.491A50.784,50.784,0,0,0,247.38,343.7v72.749h48.5Z" transform="translate(-247.379 468.683)" fill="url(#radial-gradient-4)" style="mix-blend-mode: multiply;isolation: isolate"/>
        <path id="Path_14457" data-name="Path 14457" d="M256.933,238.752v86.387a50.893,50.893,0,0,0,30.652,46.768l196.15,83.747a53.524,53.524,0,0,0,42.4,0l193.6-82.66a55.018,55.018,0,0,0,33.206-50.683V238.752ZM561.7,329.262c-.117.777-.208,1.569-.35,2.336l-.005.036c-.091.467-.173.934-.269,1.4v.01c-.213,1.005-.5,1.975-.757,2.955-.188.711-.335,1.447-.548,2.143l-.01.025c-.5,1.61-1.081,3.179-1.711,4.722l-.01.02a57.412,57.412,0,0,1-3.854,7.657c-.528.9-1.036,1.813-1.609,2.681a1.134,1.134,0,0,0-.071.091c-.264.4-.569.762-.848,1.148a57.968,57.968,0,0,1-3.9,4.915c-.553.63-1.092,1.264-1.671,1.863l-.046.051c-.254.254-.5.523-.751.782l-.02.02c-1.2,1.193-2.447,2.351-3.747,3.437-.081.066-.178.132-.259.2l-.01.01q-1.8,1.478-3.722,2.808l-.01.01c-.371.259-.741.5-1.117.751l-.02.015c-.98.645-1.98,1.249-2.991,1.833-.543.315-1.076.635-1.63.929-1.346.721-2.721,1.416-4.133,2.031l-.147.056a57.387,57.387,0,0,1-5.849,2.143h-.005c-.127.035-.259.066-.4.1a56.715,56.715,0,0,1-5.763,1.386c-.254.051-.5.137-.762.183-.807.137-1.64.213-2.462.315a57.35,57.35,0,0,1-7.276.518,56.76,56.76,0,0,1-24.275-5.484,58.19,58.19,0,0,1,0-105.107,56.691,56.691,0,0,1,24.275-5.489c31.688,0,57.41,26,57.41,58.075A59.035,59.035,0,0,1,561.7,329.262Z" transform="translate(-208.428 646.384)" fill="url(#linear-gradient-14)"/>
        <path id="Path_14458" data-name="Path 14458" d="M326.537,371.907a50.893,50.893,0,0,1-30.652-46.768V238.752h-48.5v86.387a50.9,50.9,0,0,0,30.642,46.768l196.16,83.747a53.634,53.634,0,0,0,21.193,4.377h48.509a53.659,53.659,0,0,1-21.2-4.377Z" transform="translate(-247.379 646.384)" fill="url(#linear-gradient-15)"/>
        <path id="Path_14459" data-name="Path 14459" d="M326.537,371.907a50.893,50.893,0,0,1-30.652-46.768V238.752h-48.5v86.387a50.9,50.9,0,0,0,30.642,46.768l196.16,83.747a53.634,53.634,0,0,0,21.193,4.377h48.509a53.659,53.659,0,0,1-21.2-4.377Z" transform="translate(-247.379 646.384)" fill="url(#linear-gradient-16)" style="mix-blend-mode: multiply;isolation: isolate"/>
      </g>
      <g id="Group_4376" data-name="Group 4376" transform="translate(1187.34 663.853)">
        <g id="Group_4375" data-name="Group 4375" clip-path="url(#clip-path)">
          <path id="Path_14460" data-name="Path 14460" d="M537.168,312.44A141.411,141.411,0,1,1,395.758,171.029,141.406,141.406,0,0,1,537.168,312.44Z" transform="translate(-267.477 -293.602)" fill="url(#radial-gradient-5)" style="mix-blend-mode: screen;isolation: isolate"/>
          <path id="Path_14461" data-name="Path 14461" d="M512.83,329.454A141.411,141.411,0,1,1,371.42,188.043,141.409,141.409,0,0,1,512.83,329.454Z" transform="translate(-366.713 -224.23)" fill="url(#radial-gradient-6)" style="mix-blend-mode: screen;isolation: isolate"/>
        </g>
      </g>
      <g id="Group_4378" data-name="Group 4378" transform="translate(1322.727 442.567)">
        <g id="Group_4377" data-name="Group 4377" clip-path="url(#clip-path-2)">
          <path id="Path_14463" data-name="Path 14463" d="M546.639,297.6A141.413,141.413,0,1,1,405.229,156.194,141.41,141.41,0,0,1,546.639,297.6Z" transform="translate(-364.268 -132.805)" fill="url(#radial-gradient-6)" style="mix-blend-mode: screen;isolation: isolate"/>
        </g>
      </g>
      <g id="Group_4380" data-name="Group 4380" transform="translate(1362.141)">
        <g id="Group_4379" data-name="Group 4379" clip-path="url(#clip-path-3)">
          <path id="Path_14465" data-name="Path 14465" d="M544.731,222.275A141.411,141.411,0,1,1,403.326,80.864,141.4,141.4,0,0,1,544.731,222.275Z" transform="translate(-411.441 2.612)" fill="url(#radial-gradient-8)" style="mix-blend-mode: screen;isolation: isolate"/>
        </g>
      </g>
    </g>
  </g>
</svg>
