<svg xmlns="http://www.w3.org/2000/svg" xmlns:xlink="http://www.w3.org/1999/xlink" width="4682" height="3480.002" viewBox="0 0 4682 3480.002">
  <defs>
    <linearGradient id="linear-gradient" x1="0.5" y1="1" x2="0.5" gradientUnits="objectBoundingBox">
      <stop offset="0" stop-color="#fff"/>
      <stop offset="0.587" stop-color="#3084ff"/>
      <stop offset="0.66" stop-color="#2f7af9"/>
      <stop offset="0.78" stop-color="#2c62ea"/>
      <stop offset="0.931" stop-color="#283ad1"/>
      <stop offset="0.995" stop-color="#2627c6"/>
    </linearGradient>
    <clipPath id="clip-path">
      <rect id="Rectangle_1103" data-name="Rectangle 1103" width="4682" height="3480" transform="translate(-0.369 0.001)" fill="none"/>
    </clipPath>
  </defs>
  <g id="Group_7029" data-name="Group 7029" transform="translate(1401 -20709.609)">
    <g id="Group_5384" data-name="Group 5384" transform="translate(-1400.943 20709.996)">
      <rect id="Rectangle_1102" data-name="Rectangle 1102" width="4682" height="3480" transform="translate(-0.057 -0.386)" fill="url(#linear-gradient)"/>
      <g id="Group_5383" data-name="Group 5383" transform="translate(0.311 -0.385)">
        <g id="Group_5382" data-name="Group 5382" transform="translate(0 0)" clip-path="url(#clip-path)">
          <g id="Group_5381" data-name="Group 5381" transform="translate(-214.41 190.721)">
            <g id="Group_5360" data-name="Group 5360" transform="translate(1484.997 2378.478)" opacity="0.5">
              <g id="Group_5359" data-name="Group 5359" transform="translate(0)">
                <path id="Path_15637" data-name="Path 15637" d="M2731.221,851.445c-38.023-5.33-74.586,6.1-100.974,28.258-25.6-37.9-68.231-65.687-119.838-72.924-79.35-11.112-154.067,29.886-183.807,95.163-22.848-24.347-54.772-41.653-91.99-46.865-44.41-6.228-87.146,6.075-119.308,30.478,25.969-184.836-112.785-355.818-313.54-383.951-176.422-24.716-342.637,69.041-403.908,216.726a158.3,158.3,0,0,0-68.825-26.734c-50.421-7.063-98.714,9.679-131.768,41.006-14.626-73.877-78.357-134.5-163.362-146.412a212.193,212.193,0,0,0-53.212-.578C961.755,478.106,869.771,389.331,746.748,372.095c-152.625-21.383-295.143,75.415-318.328,216.2C415.654,665.83,441.8,740.487,493.312,795.542a216.541,216.541,0,0,0-45.465,97.292c-119.52,4.551-222.7,86.514-241.332,199.692C185.371,1220.958,281.1,1340.893,420.336,1360.4c90.574,12.685,177.221-20.276,232.561-80.2,25.726,96.645,112.223,174.259,225.507,190.132,138.173,19.358,267.832-59.905,305.175-180.689,31.837,35.216,77.046,60.371,130.058,67.8,75.5,10.577,147.531-17.333,193.239-67.635,36.85,52.035,96.623,89.944,168.481,100.013,110.45,15.469,214.813-39.649,259.392-128.751,44.772,46.5,106.736,79.388,178.606,89.457,163.331,22.879,315.85-80.7,340.658-231.374l.031-.222c1.623.271,3.178.675,4.819.9,69.923,9.8,136.357-20.833,171.508-72.91a126.5,126.5,0,0,0,64.031,28.126c66.939,9.38,129.446-33.073,139.615-94.822S2798.16,860.825,2731.221,851.445Z" transform="translate(-203.589 -369.136)" fill="#fff"/>
                <path id="Path_15638" data-name="Path 15638" d="M2685.495,637.261c36.232,4.7,71.022-8.058,94.282-31.278-81.123,32.308-143.954-60.392-143.954-60.392-117.366,120.3-235.976,21.188-235.976,21.188-2.26,112.385-94.026,205.558-229.009,213.95s-251.976-90.515-243.411-179.242c-43.692,91.788-303.49,106.846-299.894-25.162,158.5-32.753,208.64-134.36,208.64-134.36-204.214,148.638-458.649-1.58-458.649-1.58,6.917,84.642,143.885,128.278,143.885,128.278-43.361,132.941-216.293,217.116-253.174,166.654-55.79,62.813-130.158-1.635-130.158-1.635-88.426,136.232-291.129,58.2-267.2-77.259,127.087-21.6,176.571-108.064,176.571-108.064C800.6,651.881,562.879,532.767,562.879,532.767c27.28,91.844,213.234,128.125,213.234,128.125C622.452,879.17,305.847,793.227,218.42,633.079a207.327,207.327,0,0,0-9.7,36.935c-9.639,58.541,6.012,117.033,44.073,164.705s93.951,78.832,157.407,87.718l2.722.369c81.815,10.6,162.732-17.793,216.443-75.951L648,826.676l6.842,25.746c25.2,94.676,108.97,165.31,213.421,179.944l2.94.4c127.655,16.54,250.565-57.142,285.892-171.393l7.622-24.681,17.816,19.713c30.789,34.061,73.756,56.46,120.975,63.078l2.2.3c67.276,8.719,133.654-14.919,177.552-63.238l12.747-14.014,10.85,15.315c35.882,50.671,93.6,84.934,158.362,94.008l2.609.355c99.806,12.928,199-36.977,241.22-121.376l9.426-18.83,14.926,15.51c43.973,45.661,104.276,75.867,169.817,85.053l3.214.431c153.549,19.894,297.409-78.985,320.688-220.421l.012-.083.007-.028,2.129-13.965,15.07,2.533c.893.146,1.779.327,2.647.508.581.118,1.155.25,1.742.327l1.773.244c61.383,7.953,122.242-18.308,155.041-66.905l9.333-13.826,13.059,10.966a111.455,111.455,0,0,0,56.333,24.744Z" transform="translate(-191.248 55.408)" fill="#fff"/>
                <path id="Path_15639" data-name="Path 15639" d="M520.549,517.84s-71.347-20.312-51.963-87.425a216.483,216.483,0,0,0-45.471,97.292c-91.341,3.479-172.994,52.258-214.807,125.544C269.8,583.1,400.672,557.6,427.5,586.9,427.5,586.9,446.4,516.95,520.549,517.84Z" transform="translate(-178.857 -4.009)" fill="#fff"/>
                <g id="Group_5358" data-name="Group 5358" transform="translate(221.627)">
                  <path id="Path_15640" data-name="Path 15640" d="M1929.172,885.549c25.976-184.829-112.779-355.811-313.534-383.944C1439.217,476.888,1273,570.639,1211.731,718.331a158.219,158.219,0,0,0-68.824-26.734c-50.421-7.063-98.714,9.679-131.768,41.006-14.626-73.877-78.357-134.5-163.362-146.412a212.193,212.193,0,0,0-53.212-.578C775.63,478.106,683.646,389.331,560.623,372.095,408,350.712,265.48,447.51,242.3,588.293c-12.766,77.537,13.384,152.194,64.9,207.249-35.77-116.9-5.793-237.873,121.218-291.453,0,0-55.559,61.317-45.483,114.4,0,0,80.785-140.274,252.306-52.578,0,0-8.683-51.367-81.553-71.47,111.187-3.862,190.093,95.782,171,188.677,0,0,102.553-66.439,219.489,11.141,48.873,36.789,28.647,82.9,28.647,82.9s-78.863-13.27-121.3,26.908c0,0,100.961-23.457,235.6,13.784,0,0-3.065-23.234-67.189-57.428,0,0,90.006-59.905,218.7,5.5,0,0,101.473-189.359,323.665-174.266,0,0-102.154,9.6-129.54,59.341,0,0,146.888-54.053,268,28.641,0,0-17.461-47.943-55.428-69.612,0,0,123.284-4.349,223.709,156.891,27.854,44.722,33.86,135.334,23.971,156.9,0,0,114.789-83.849,247.468-21.863-22.848-24.347-54.772-41.653-91.99-46.865C2004.077,848.85,1961.34,861.152,1929.172,885.549Z" transform="translate(-239.092 -369.136)" fill="#fff"/>
                  <path id="Path_15641" data-name="Path 15641" d="M788.241,453.639a179.529,179.529,0,0,0-60.759-20.054c-79.35-11.119-154.067,29.879-183.807,95.156C543.675,528.741,650.9,421.86,788.241,453.639Z" transform="translate(1357.711 4.066)" fill="#fff"/>
                </g>
              </g>
            </g>
            <g id="Group_5361" data-name="Group 5361" transform="translate(3458.162 30.832)">
              <path id="Path_15642" data-name="Path 15642" d="M1514.12,331.813a133.982,133.982,0,0,0-68.075,18.287c-.806-18.363-10.925-34.507-26.219-44.645,28.241-16.721,46.938-45.7,46.938-78.665,0-51.784-46.089-93.764-102.94-93.764a110.759,110.759,0,0,0-45.851,9.811C1294.794,78.353,1228.241,31.753,1149.7,31.753c-97.79,0-177.064,72.207-177.064,161.282a148.236,148.236,0,0,0,2.141,25.1,125.65,125.65,0,0,0-57.731-13.847c-59.292,0-108.29,40.06-116.212,92.081a126.624,126.624,0,0,0-48.505-9.561,124.57,124.57,0,0,0-69.368,20.687c-15.694-22.552-43.267-37.568-74.755-37.568-48.892,0-88.533,36.107-88.533,80.641s39.641,80.648,88.533,80.648a95.864,95.864,0,0,0,32.105-5.553c14.92,43.427,59.423,74.942,112.017,74.942,42.874,0,80.354-20.952,100.837-52.209C864.1,466.111,884.9,478.1,908.8,478.1c21.312,0,40.134-9.554,51.726-24.173,4.395,72.02,69.886,129.19,150.047,129.19,67.176,0,124.04-40.143,143.3-95.525a110.154,110.154,0,0,0,52.3,13.012c34.39,0,64.823-15.378,83.519-38.988,8.265,55.9,60.8,99,124.427,99,69.361,0,125.594-51.214,125.594-114.4S1583.482,331.813,1514.12,331.813Z" transform="translate(-519.671 -31.753)" fill="#e5f0ff"/>
              <path id="Path_15643" data-name="Path 15643" d="M1242.79,257.859l2.348-6.743,6.686,3.6a103.929,103.929,0,0,0,49.16,12.226c30.982,0,60.334-13.7,78.513-36.643l9.058-11.447,2.072,13.986c7.928,53.656,58.793,94.119,118.3,94.119,65.847,0,119.415-48.8,119.415-108.774-124.221,99.644-220.987-6.005-191.473-73.14-67.257,15.872-74.124-33.762-74.124-33.762-24.708,15-53.53,11.252-53.53,11.252,20.588-18.753,32.942-52.508,32.942-52.508-53.53,56.259-156.477,67.517-156.477,67.517,28.822,7.5,70,3.751,70,3.751s-8.24,71.261-86.479,78.762-107.06-52.508-107.06-52.508c-53.53,41.256-102.946,0-102.946,0-65.885,26.254-90.593-7.5-90.593-7.5,45.3,0,70-18.753,70-18.753-107.06,18.753-152.357-33.762-152.357-33.762,0,22.51,28.822,41.263,28.822,41.263-94.706,45.007-144.122-33.762-144.122-33.762-66.914,60.267-135.545,29.01-150.3,7.5,0,41.368,36.943,75.019,82.352,75.019a89.208,89.208,0,0,0,29.864-5.163l6.162-2.192,1.972,5.755c14.589,42.46,57.232,70.99,106.124,70.99,38.935,0,75.542-18.955,95.537-49.467l5.462-8.336,5.225,8.462c10.219,16.554,29.471,26.839,50.253,26.839,18.409,0,35.876-8.162,46.719-21.835l10.207-12.873.968,15.858c4.239,69.459,67.432,123.874,143.879,123.874C1168.523,349.46,1223.738,312.65,1242.79,257.859Z" transform="translate(-514.481 196.281)" fill="#ccdaf1"/>
              <path id="Path_15644" data-name="Path 15644" d="M667.153,165.322s12.46-102.838,125.563-107.7a129.169,129.169,0,0,0-16.437-1.072c-59.292,0-108.29,40.06-116.212,92.081a126.623,126.623,0,0,0-48.505-9.561,124.828,124.828,0,0,0-65.042,18.022C561.378,153.479,630.528,138.636,667.153,165.322Z" transform="translate(-378.908 115.986)" fill="#fff"/>
              <path id="Path_15645" data-name="Path 15645" d="M1089.783,164.276s-39.541-27.249-94.575-21.439C972.029,78.353,905.477,31.753,826.932,31.753c-97.79,0-177.064,72.207-177.064,161.282a148.249,148.249,0,0,0,2.141,25.1v14.286s-69.4-9.38-70.772,49.384c0,0,37.743-46.886,92.646-22.5,0,0,38.435-95.024,142.755-101.9,0,0-41.869-11.252-90.592,8.127,0,0,94.706-85.018,219.614,3.124,0,0-54.9-.619-63.824,41.89,0,0,48.723-45.64,114.614-18.134C996.45,192.409,1026.645,152.4,1089.783,164.276Z" transform="translate(-196.906 -31.753)" fill="#fff"/>
              <path id="Path_15646" data-name="Path 15646" d="M848.3,137.821c-20.682-37.332-63.125-62.946-112.161-62.946a133.982,133.982,0,0,0-68.075,18.287S779.322,65.822,848.3,137.821Z" transform="translate(258.307 225.185)" fill="#fff"/>
            </g>
            <g id="Group_5362" data-name="Group 5362" transform="translate(2722.174 2485.959)">
              <path id="Path_15647" data-name="Path 15647" d="M2703.145,1079c-58.081,0-112.135,15.58-157.538,42.314-1.866-42.5-25.294-79.862-60.677-103.319,65.36-38.688,108.627-105.74,108.627-182.039,0-119.852-106.661-217-238.236-217a256.241,256.241,0,0,0-106.111,22.719c-53.63-149.244-207.66-257.085-389.425-257.085-226.306,0-409.769,167.106-409.769,373.249a343.226,343.226,0,0,0,4.963,58.075,290.954,290.954,0,0,0-133.61-32.036c-137.212,0-250.6,92.707-268.931,213.094A292.956,292.956,0,0,0,940.19,974.836c-60.073,0-115.563,17.8-160.534,47.874-36.326-52.188-100.137-86.938-173-86.938-113.153,0-204.881,83.556-204.881,186.625S493.5,1309.02,606.654,1309.02a221.586,221.586,0,0,0,74.3-12.845c34.521,100.5,137.524,173.431,259.236,173.431,99.207,0,185.96-48.479,233.354-120.826,25.307,41,73.45,68.742,128.766,68.742,49.316,0,92.87-22.1,119.7-55.932,10.163,166.667,161.727,298.975,347.244,298.975,155.452,0,287.046-92.9,331.618-221.069a254.853,254.853,0,0,0,121.031,30.109c79.6,0,150.021-35.593,193.289-90.216,19.121,129.343,140.708,229.1,287.952,229.1,160.521,0,290.649-118.529,290.649-264.746S2863.666,1079,2703.145,1079Z" transform="translate(-401.773 -384.582)" fill="#f8fbff"/>
              <path id="Path_15648" data-name="Path 15648" d="M2075.234,907.841l5.431-15.607,15.469,8.329a240.539,240.539,0,0,0,113.765,28.3c71.709,0,139.634-31.71,181.7-84.816l20.976-26.477,4.788,32.357c18.353,124.18,136.057,217.818,273.781,217.818,152.375,0,276.353-112.928,276.353-251.727-287.471,230.6-511.417-13.9-443.117-169.263-155.653,36.74-171.534-78.122-171.534-78.122-57.176,34.722-123.884,26.039-123.884,26.039,47.649-43.4,76.234-121.522,76.234-121.522-123.878,130.206-362.12,156.244-362.12,156.244,66.709,17.361,162,8.684,162,8.684S2086.015,803,1904.955,820.361s-247.768-121.521-247.768-121.521c-123.884,95.476-238.236,0-238.236,0C1266.482,759.6,1209.3,681.478,1209.3,681.478c104.825,0,162-43.4,162-43.4-247.762,43.4-352.587-78.129-352.587-78.129,0,52.083,66.709,95.483,66.709,95.483C866.239,759.6,751.887,577.31,751.887,577.31c-154.853,139.46-313.677,67.128-347.824,17.362,0,95.726,85.5,173.6,190.586,173.6a206.158,206.158,0,0,0,69.112-11.954l14.258-5.066,4.57,13.3c33.754,98.273,132.449,164.3,245.6,164.3,90.105,0,174.817-43.866,221.081-114.479l12.641-19.3L1174,814.676c23.647,38.306,68.213,62.1,116.306,62.1,42.605,0,83.02-18.892,108.115-50.532l23.616-29.789,2.241,36.692c9.807,160.753,156.064,286.672,332.973,286.672C1903.357,1119.822,2031.148,1034.637,2075.234,907.841Z" transform="translate(-389.768 143.142)" fill="#f0f6ff"/>
              <path id="Path_15649" data-name="Path 15649" d="M743.078,693.692s28.835-237.992,290.58-249.25a299.1,299.1,0,0,0-38.048-2.477c-137.212,0-250.6,92.707-268.931,213.095a292.953,292.953,0,0,0-112.247-22.128,289.014,289.014,0,0,0-150.521,41.7C498.281,666.275,658.317,631.929,743.078,693.692Z" transform="translate(-76.015 -42.677)" fill="#fff"/>
              <path id="Path_15650" data-name="Path 15650" d="M1721.138,691.281s-91.51-63.071-218.871-49.613c-53.63-149.244-207.66-257.085-389.425-257.085-226.306,0-409.769,167.106-409.769,373.249a343.226,343.226,0,0,0,4.963,58.075v33.067s-160.609-21.7-163.787,114.292c0,0,87.352-108.5,214.414-52.083,0,0,88.944-219.9,330.357-235.813,0,0-96.885-26.038-209.651,18.809,0,0,219.177-196.749,508.24,7.237,0,0-127.061-1.447-147.706,96.924,0,0,112.766-105.608,265.235-41.952C1505.138,756.383,1575.024,663.8,1721.138,691.281Z" transform="translate(345.169 -384.582)" fill="#fff"/>
              <path id="Path_15651" data-name="Path 15651" d="M1162.3,630.037c-47.862-86.382-146.083-145.66-259.567-145.66-58.081,0-112.136,15.58-157.538,42.314C745.194,526.691,1002.651,463.418,1162.3,630.037Z" transform="translate(1398.64 210.037)" fill="#fff"/>
            </g>
            <g id="Group_5363" data-name="Group 5363" transform="translate(3787.833 1550.332)">
              <path id="Path_15652" data-name="Path 15652" d="M1952.123,636.794c-34.821,0-67.227,8.677-94.444,23.561-1.117-23.666-15.163-44.464-36.375-57.532,39.185-21.543,65.122-58.882,65.122-101.363,0-66.738-63.943-120.833-142.824-120.833A163.68,163.68,0,0,0,1680,393.27c-32.155-83.1-124.489-143.148-233.454-143.148-135.67,0-245.652,93.055-245.652,207.833a177.811,177.811,0,0,0,2.978,32.343,185.389,185.389,0,0,0-80.1-17.841c-82.259,0-150.228,51.624-161.221,118.662a187.43,187.43,0,0,0-67.3-12.324c-36.007,0-69.274,9.909-96.235,26.658-21.774-29.065-60.029-48.41-103.708-48.41-67.838,0-122.829,46.524-122.829,103.917S627.472,764.877,695.31,764.877a142.112,142.112,0,0,0,44.541-7.153c20.694,55.966,82.439,96.576,155.4,96.576,59.48,0,111.48-27,139.9-67.281,15.169,22.831,44.029,38.278,77.19,38.278,29.565,0,55.678-12.31,71.758-31.146,6.1,92.811,96.954,166.48,208.171,166.48,93.189,0,172.083-51.729,198.8-123.1a162.208,162.208,0,0,0,72.563,16.77c47.712,0,89.937-19.818,115.869-50.24,11.467,72.026,84.356,127.569,172.626,127.569,96.229,0,174.236-66,174.236-147.414S2048.352,636.794,1952.123,636.794Z" transform="translate(-572.481 -250.122)" fill="#e5f0ff"/>
              <path id="Path_15653" data-name="Path 15653" d="M1575.7,541.488l3.252-8.691,9.276,4.634a153.049,153.049,0,0,0,68.2,15.761c42.987,0,83.707-17.661,108.921-47.227l12.573-14.745,2.871,18.015c11.006,69.146,81.566,121.292,164.13,121.292,91.348,0,165.672-62.883,165.672-140.17-172.339,128.4-306.592-7.738-265.647-94.252-93.308,20.458-102.828-43.5-102.828-43.5-34.278,19.338-74.268,14.5-74.268,14.5,28.566-24.166,45.7-67.663,45.7-67.663-74.268,72.5-217.086,87-217.086,87,39.99,9.665,97.116,4.829,97.116,4.829s-11.424,91.837-119.97,101.5-148.53-67.671-148.53-67.671c-74.268,53.169-142.818,0-142.818,0-91.4,33.839-125.682-9.665-125.682-9.665,62.838,0,97.116-24.166,97.116-24.166-148.529,24.166-211.374-43.5-211.374-43.5,0,29,39.99,53.162,39.99,53.162-131.394,58.005-199.95-43.5-199.95-43.5-92.827,77.656-188.045,37.374-208.514,9.665,0,53.3,51.258,96.666,114.258,96.666a132.044,132.044,0,0,0,41.426-6.652l8.552-2.825,2.74,7.411c20.232,54.721,79.4,91.489,147.225,91.489,54.017,0,104.807-24.424,132.536-63.746l7.579-10.744,7.254,10.9c14.17,21.334,40.889,34.583,69.717,34.583,25.545,0,49.772-10.521,64.817-28.14l14.158-16.582,1.342,20.43c5.88,89.513,93.558,159.626,199.613,159.626C1472.661,659.523,1549.27,612.088,1575.7,541.488Z" transform="translate(-565.283 43.735)" fill="#ccdaf1"/>
              <path id="Path_15654" data-name="Path 15654" d="M777.09,422.244s17.28-132.516,174.193-138.785a191.993,191.993,0,0,0-22.8-1.385c-82.258,0-150.228,51.625-161.221,118.662a187.429,187.429,0,0,0-67.3-12.324,183.282,183.282,0,0,0-90.23,23.22C630.339,406.977,726.275,387.849,777.09,422.244Z" transform="translate(-377.19 -59.739)" fill="#fff"/>
              <path id="Path_15655" data-name="Path 15655" d="M1363.418,420.9s-54.859-35.119-131.206-27.632c-32.156-83.1-124.489-143.148-233.454-143.148-135.67,0-245.652,93.055-245.652,207.833a177.8,177.8,0,0,0,2.978,32.343V508.71s-96.286-12.087-98.19,63.642c0,0,52.363-60.42,128.535-29,0,0,53.318-122.447,198.046-131.3,0,0-58.081-14.5-125.682,10.472,0,0,131.394-109.56,304.682,4.022,0,0-76.172-.8-88.551,53.976,0,0,67.6-58.805,159.011-23.359C1233.935,457.155,1275.822,405.594,1363.418,420.9Z" transform="translate(-124.697 -250.122)" fill="#fff"/>
              <path id="Path_15656" data-name="Path 15656" d="M1028.41,386.8c-28.7-48.1-87.577-81.107-155.609-81.107-34.821,0-67.227,8.677-94.444,23.561C778.357,329.252,932.7,294.022,1028.41,386.8Z" transform="translate(506.841 80.981)" fill="#fff"/>
            </g>
            <g id="Group_5365" data-name="Group 5365" transform="translate(0.003 580.948)">
              <path id="Path_15657" data-name="Path 15657" d="M1037.59,315.341a54.807,54.807,0,0,0-42.818,11.982c-10.856-16.067-28.934-27.854-50.821-30.923-33.648-4.711-65.335,12.678-77.945,40.359A65.749,65.749,0,0,0,827,316.879a68.117,68.117,0,0,0-50.6,12.929c11.012-78.386-47.831-150.893-132.961-162.82-74.817-10.479-145.3,29.274-171.284,91.907a68.468,68.468,0,0,0-85.068,6.047c-6.2-31.327-33.229-57.031-69.274-62.083a89.564,89.564,0,0,0-22.567-.243c-8.028-45.591-47.038-83.236-99.207-90.55C131.317,103,70.883,144.046,61.051,203.749c-5.412,32.878,5.674,64.539,27.517,87.885A91.781,91.781,0,0,0,69.291,332.9c-50.684,1.927-94.438,36.685-102.341,84.677-8.971,54.47,31.625,105.329,90.673,113.6,38.411,5.386,75.148-8.594,98.62-34.006,10.906,40.985,47.587,73.9,95.63,80.627,58.593,8.211,113.578-25.405,129.415-76.626a90.972,90.972,0,0,0,55.153,28.752c32.012,4.488,62.563-7.348,81.946-28.683,15.625,22.072,40.97,38.146,71.446,42.412,46.838,6.562,91.092-16.812,110-54.6,18.984,19.72,45.265,33.665,75.735,37.937,69.268,9.7,133.947-34.228,144.466-98.121l.012-.1c.687.118,1.348.292,2.041.39,29.652,4.154,57.825-8.837,72.732-30.923a53.668,53.668,0,0,0,27.155,11.934c28.385,3.973,54.891-14.028,59.2-40.213S1065.975,319.321,1037.59,315.341Z" transform="translate(34.292 -110.811)" fill="#e5f0ff"/>
              <path id="Path_15658" data-name="Path 15658" d="M1018.2,224.513a48.032,48.032,0,0,0,39.984-13.263c-34.4,13.7-61.046-25.614-61.046-25.614-49.772,51.019-100.069,8.99-100.069,8.99-.961,47.658-39.878,87.168-97.116,90.724S693.1,246.968,696.724,209.344c-18.528,38.925-128.7,45.306-127.174-10.667,67.22-13.889,88.482-56.982,88.482-56.982-86.6,63.036-194.5-.668-194.5-.668,2.934,35.891,61.015,54.394,61.015,54.394-18.384,56.377-91.722,92.074-107.36,70.677-23.659,26.637-55.2-.7-55.2-.7-37.5,57.776-123.453,24.682-113.309-32.76,53.9-9.157,74.88-45.828,74.88-45.828-104.682,43.9-205.493-6.61-205.493-6.61,11.568,38.946,90.424,54.331,90.424,54.331C143.332,327.1,9.073,290.653-28,222.739A87.447,87.447,0,0,0-32.116,238.4c-4.089,24.828,2.547,49.627,18.69,69.849s39.84,33.428,66.746,37.2l1.155.153c34.7,4.5,69.012-7.543,91.791-32.21l7.9-8.552,2.9,10.918c10.687,40.143,46.214,70.1,90.511,76.306l1.242.167c54.136,7.021,106.261-24.229,121.237-72.68l3.234-10.466,7.554,8.364a84.969,84.969,0,0,0,51.3,26.748l.93.125c28.529,3.695,56.683-6.325,75.3-26.818l5.406-5.943,4.6,6.5c15.213,21.48,39.69,36.017,67.158,39.865l1.1.146c42.325,5.483,84.387-15.677,102.291-51.471l4-7.981,6.336,6.576c18.64,19.358,44.216,32.169,72.008,36.065l1.367.181c65.11,8.441,126.119-33.491,135.995-93.472v-.035l.006-.007.9-5.929,6.392,1.079c.381.063.755.139,1.124.216.243.049.487.1.737.139l.749.1c26.032,3.375,51.845-7.759,65.753-28.369l3.958-5.866,5.537,4.655a47.26,47.26,0,0,0,23.89,10.493Z" transform="translate(39.525 69.224)" fill="#ccdaf1"/>
              <path id="Path_15659" data-name="Path 15659" d="M100.114,173.871S69.863,165.257,78.078,136.8A91.781,91.781,0,0,0,58.8,178.06c-38.735,1.468-73.363,22.155-91.092,53.232,26.069-29.74,81.572-40.561,92.946-28.133C60.655,203.159,68.67,173.5,100.114,173.871Z" transform="translate(44.782 44.026)" fill="#fff"/>
              <g id="Group_5364" data-name="Group 5364" transform="translate(93.984)">
                <path id="Path_15660" data-name="Path 15660" d="M697.472,329.808c11.012-78.386-47.831-150.893-132.961-162.82-74.817-10.479-145.3,29.274-171.284,91.907a68.468,68.468,0,0,0-85.068,6.047c-6.2-31.327-33.229-57.031-69.274-62.083a89.565,89.565,0,0,0-22.567-.243c-8.028-45.591-47.038-83.236-99.207-90.55C52.388,103-8.046,144.046-17.878,203.749c-5.412,32.878,5.674,64.539,27.517,87.885-15.163-49.572-2.453-100.876,51.408-123.6,0,0-23.56,26-19.29,48.514,0,0,34.259-59.487,107-22.295,0,0-3.683-21.787-34.584-30.311,47.15-1.642,80.61,40.616,72.514,80.015,0,0,43.486-28.175,93.077,4.725,20.725,15.594,12.148,35.147,12.148,35.147s-33.442-5.622-51.439,11.412c0,0,42.812-9.944,99.906,5.845,0,0-1.3-9.853-28.485-24.354,0,0,38.167-25.4,92.74,2.338,0,0,43.03-80.307,137.256-73.905,0,0-43.317,4.071-54.935,25.169,0,0,62.295-22.921,113.652,12.142,0,0-7.4-20.332-23.5-29.518,0,0,52.275-1.844,94.862,66.529,11.811,18.969,14.358,57.393,10.169,66.536,0,0,48.673-35.557,104.944-9.269a65.75,65.75,0,0,0-39.01-19.88A68.117,68.117,0,0,0,697.472,329.808Z" transform="translate(19.237 -110.811)" fill="#fff"/>
                <path id="Path_15661" data-name="Path 15661" d="M213.635,146.643a76.255,76.255,0,0,0-25.763-8.5c-33.648-4.711-65.335,12.678-77.945,40.359C109.927,178.5,155.392,133.171,213.635,146.643Z" transform="translate(696.387 47.45)" fill="none" stroke="#fff" stroke-miterlimit="10" stroke-width="1"/>
              </g>
            </g>
            <g id="Group_5370" data-name="Group 5370" transform="translate(192.525 1495.155)">
              <g id="Group_5367" data-name="Group 5367" transform="translate(0)">
                <path id="Path_15662" data-name="Path 15662" d="M41.268,449.181A55.441,55.441,0,0,1,84.6,461.31c10.987-16.269,29.284-28.2,51.433-31.3,34.053-4.766,66.115,12.825,78.881,40.839a66.524,66.524,0,0,1,39.478-20.11,68.939,68.939,0,0,1,51.2,13.075C294.449,384.5,354,311.112,440.151,299.047c75.716-10.612,147.05,29.622,173.344,93.006a69.291,69.291,0,0,1,86.085,6.124c6.274-31.7,33.629-57.72,70.111-62.834a91.034,91.034,0,0,1,22.835-.244c8.128-46.141,47.6-84.238,100.4-91.635,65.5-9.178,126.662,32.363,136.613,92.783,5.475,33.275-5.743,65.319-27.854,88.942a92.894,92.894,0,0,1,19.514,41.757c51.3,1.948,95.574,37.123,103.571,85.693,9.077,55.124-32.006,106.6-91.76,114.967-38.872,5.441-76.06-8.7-99.806-34.423-11.043,41.479-48.161,74.789-96.779,81.6-59.3,8.308-114.945-25.712-130.969-77.545a92.074,92.074,0,0,1-55.821,29.093c-32.4,4.544-63.312-7.432-82.926-29.023-15.812,22.329-41.463,38.6-72.3,42.919-47.406,6.645-92.19-17.014-111.324-55.25-19.215,19.95-45.808,34.068-76.653,38.389-70.092,9.818-135.551-34.639-146.195-99.3l-.012-.1c-.7.118-1.367.292-2.073.39-30.008,4.2-58.518-8.941-73.606-31.292a54.263,54.263,0,0,1-27.474,12.073c-28.728,4.022-55.553-14.2-59.916-40.693S12.54,453.2,41.268,449.181Z" transform="translate(3.452 -242.192)" fill="#e5f0ff"/>
                <path id="Path_15663" data-name="Path 15663" d="M39.983,357.26A48.6,48.6,0,0,1-.475,343.837c34.815,13.868,61.783-25.92,61.783-25.92,50.365,51.631,101.267,9.095,101.267,9.095.968,48.229,40.352,88.212,98.283,91.816S368.992,379.986,365.322,341.9c18.753,39.392,130.245,45.856,128.7-10.792-68.025-14.056-89.544-57.664-89.544-57.664,87.64,63.788,196.835-.675,196.835-.675-2.972,36.323-61.745,55.048-61.745,55.048,18.6,57.052,92.821,93.18,108.652,71.525,23.94,26.957,55.852-.7,55.852-.7,37.949,58.465,124.939,24.974,114.67-33.157-54.541-9.269-75.779-46.378-75.779-46.378,105.943,44.429,207.959-6.694,207.959-6.694-11.7,39.419-91.51,54.985-91.51,54.985,65.947,93.681,201.823,56.795,239.341-11.934a88.849,88.849,0,0,1,4.164,15.851c4.139,25.12-2.578,50.226-18.915,70.683s-40.315,33.832-67.551,37.645l-1.167.16c-35.115,4.551-69.836-7.633-92.89-32.6l-8-8.656-2.94,11.05c-10.812,40.63-46.763,70.948-91.591,77.224l-1.261.174c-54.785,7.1-107.535-24.521-122.692-73.557l-3.277-10.591L685,451.31a85.984,85.984,0,0,1-51.92,27.068l-.943.125c-28.872,3.744-57.357-6.4-76.2-27.131l-5.469-6.019-4.657,6.576c-15.4,21.745-40.171,36.448-67.963,40.345l-1.117.146c-42.837,5.553-85.4-15.865-103.527-52.084l-4.045-8.085-6.4,6.659c-18.871,19.595-44.753,32.558-72.882,36.5l-1.373.188C222.6,484.133,160.865,441.7,150.87,381l-.006-.028v-.014l-.911-6-6.467,1.093c-.387.063-.768.139-1.136.216-.256.049-.5.1-.749.139l-.762.1c-26.344,3.417-52.463-7.856-66.54-28.71l-4-5.936-5.606,4.7A47.878,47.878,0,0,1,40.514,357.19Z" transform="translate(19.058 -59.993)" fill="#ccdaf1"/>
                <path id="Path_15664" data-name="Path 15664" d="M153.989,306.011s30.62-8.719,22.3-37.52A92.9,92.9,0,0,1,195.8,310.248c39.2,1.489,74.243,22.42,92.184,53.872-26.387-30.1-82.552-41.048-94.063-28.474C193.923,335.646,185.807,305.628,153.989,306.011Z" transform="translate(828.848 -85.495)" fill="#fff"/>
                <g id="Group_5366" data-name="Group 5366" transform="translate(113.407)">
                  <path id="Path_15665" data-name="Path 15665" d="M122.208,463.814c-11.143-79.319,48.4-152.7,134.559-164.768,75.716-10.612,147.05,29.622,173.344,93.006a69.291,69.291,0,0,1,86.085,6.124c6.274-31.7,33.629-57.72,70.11-62.834a91.035,91.035,0,0,1,22.835-.244c8.128-46.141,47.6-84.238,100.4-91.635,65.5-9.178,126.662,32.363,136.613,92.783,5.475,33.275-5.743,65.319-27.854,88.942,15.351-50.17,2.485-102.087-52.019-125.077,0,0,23.841,26.31,19.521,49.091,0,0-34.671-60.2-108.284-22.566,0,0,3.727-22.044,35-30.673-47.718-1.656-81.584,41.11-73.388,80.975,0,0-44.01-28.516-94.194,4.78-20.975,15.789-12.292,35.572-12.292,35.572s33.841-5.692,52.051,11.551c0,0-43.323-10.062-101.1,5.922,0,0,1.311-9.978,28.835-24.654,0,0-38.629-25.7-93.863,2.366,0,0-43.542-81.267-138.9-74.789,0,0,43.835,4.119,55.59,25.468,0,0-63.038-23.2-115.013,12.289,0,0,7.491-20.576,23.784-29.872,0,0-52.906-1.872-96,67.329-11.955,19.191-14.533,58.082-10.288,67.33,0,0-49.267-35.982-106.205-9.38a66.524,66.524,0,0,1,39.478-20.11A68.939,68.939,0,0,1,122.208,463.814Z" transform="translate(73.429 -242.192)" fill="#fff"/>
                  <path id="Path_15666" data-name="Path 15666" d="M14.715,278.457a77.191,77.191,0,0,1,26.075-8.608c34.053-4.766,66.115,12.825,78.881,40.839C119.672,310.689,73.657,264.819,14.715,278.457Z" transform="translate(-14.715 -82.031)" fill="none" stroke="#fff" stroke-miterlimit="10" stroke-width="1"/>
                </g>
              </g>
              <g id="Group_5369" data-name="Group 5369" transform="translate(556.836 7.576)">
                <path id="Path_15667" data-name="Path 15667" d="M1445.246,502.7a69.492,69.492,0,0,0-54.3,15.2c-13.771-20.381-36.7-35.335-64.454-39.224-42.681-5.977-82.87,16.074-98.864,51.186a83.382,83.382,0,0,0-49.479-25.21,86.388,86.388,0,0,0-64.174,16.394c13.971-99.415-60.659-191.377-168.637-206.5-94.887-13.3-184.287,37.13-217.242,116.56a85.257,85.257,0,0,0-37.019-14.376c-27.118-3.8-53.1,5.2-70.872,22.051-7.872-39.732-42.15-72.34-87.871-78.741a114.06,114.06,0,0,0-28.616-.313c-10.188-57.824-59.66-105.573-125.832-114.841-82.09-11.5-158.743,40.561-171.209,116.282-6.867,41.7,7.2,81.858,34.9,111.467a116.516,116.516,0,0,0-24.452,52.334c-64.286,2.442-119.783,46.531-129.8,107.4-11.374,69.083,40.109,133.587,115,144.081,48.717,6.826,95.318-10.9,125.083-43.135,13.84,51.979,60.36,93.723,121.293,102.26,74.318,10.41,144.054-32.217,164.142-97.181,17.123,18.941,41.438,32.468,69.948,36.462,40.608,5.692,79.356-9.317,103.939-36.371,19.82,27.986,51.97,48.375,90.617,53.788,59.4,8.322,115.538-21.321,139.516-69.25,24.084,25.008,57.413,42.7,96.061,48.117,87.852,12.309,169.886-43.406,183.232-124.444l.012-.125c.874.146,1.711.369,2.591.487,37.612,5.275,73.344-11.2,92.253-39.211a68.042,68.042,0,0,0,34.434,15.128c36.007,5.045,69.623-17.793,75.092-51.005S1481.253,507.741,1445.246,502.7Z" transform="translate(-85.748 -243.281)" fill="#e5f0ff"/>
                <path id="Path_15668" data-name="Path 15668" d="M1420.657,387.5a60.888,60.888,0,0,0,50.709-16.826c-43.63,17.375-77.427-32.482-77.427-32.482-63.125,64.706-126.918,11.4-126.918,11.4-1.217,60.448-50.571,110.555-123.172,115.071s-135.526-48.681-130.926-96.409c-23.5,49.37-163.231,57.469-161.3-13.527,85.249-17.619,112.217-72.27,112.217-72.27C854,362.4,717.155,281.6,717.155,281.6c3.721,45.529,77.389,68.993,77.389,68.993-23.322,71.5-116.337,116.783-136.169,89.638-30.008,33.783-70-.877-70-.877-47.562,73.272-156.589,31.3-143.717-41.555,68.356-11.621,94.975-58.124,94.975-58.124-132.78,55.681-260.634-8.392-260.634-8.392,14.67,49.4,114.689,68.916,114.689,68.916-82.646,117.409-252.937,71.178-299.962-14.954a111.493,111.493,0,0,0-5.213,19.866c-5.188,31.48,3.227,62.939,23.7,88.587s50.527,42.4,84.662,47.178l1.461.2c44,5.7,87.527-9.568,116.418-40.853l10.026-10.848,3.683,13.847c13.546,50.922,58.605,88.914,114.789,96.784l1.579.216c68.662,8.893,134.771-30.735,153.767-92.185l4.1-13.277,9.582,10.6c16.562,18.322,39.672,30.367,65.066,33.929l1.186.16c36.182,4.683,71.883-8.03,95.493-34.013l6.861-7.543,5.831,8.239c19.3,27.256,50.346,45.689,85.18,50.567l1.4.188c53.68,6.958,107.029-19.887,129.74-65.284l5.069-10.124,8.028,8.343c23.653,24.556,56.09,40.8,91.341,45.744l1.723.23c82.589,10.7,159.966-42.481,172.489-118.557l.006-.042v-.014l1.149-7.515,8.1,1.364c.481.084.955.181,1.423.278.318.063.625.132.937.174l.955.132c33.017,4.273,65.753-9.853,83.394-35.989l5.019-7.439,7.023,5.9a59.927,59.927,0,0,0,30.3,13.311Z" transform="translate(-79.112 -14.939)" fill="#ccdaf1"/>
                <path id="Path_15669" data-name="Path 15669" d="M256.223,323.265S217.85,312.34,228.275,276.24a116.517,116.517,0,0,0-24.452,52.334c-49.129,1.872-93.052,28.105-115.538,67.525,33.073-37.729,103.465-51.444,117.891-35.69C206.176,360.409,216.345,322.785,256.223,323.265Z" transform="translate(-72.447 -46.9)" fill="#fff"/>
                <g id="Group_5368" data-name="Group 5368" transform="translate(119.203)">
                  <path id="Path_15670" data-name="Path 15670" d="M1013.863,521.038c13.971-99.415-60.659-191.377-168.637-206.5-94.887-13.3-184.287,37.13-217.242,116.56a85.257,85.257,0,0,0-37.019-14.376c-27.118-3.8-53.1,5.2-70.872,22.051-7.872-39.732-42.15-72.34-87.871-78.741a114.06,114.06,0,0,0-28.616-.313c-10.188-57.824-59.66-105.573-125.832-114.841-82.09-11.5-158.743,40.561-171.209,116.282-6.867,41.7,7.2,81.858,34.9,111.467-19.24-62.876-3.115-127.937,65.2-156.759,0,0-29.877,32.983-24.458,61.533,0,0,43.448-75.45,135.7-28.279,0,0-4.669-27.632-43.86-38.445,59.8-2.074,102.241,51.52,91.966,101.488,0,0,55.166-35.738,118.06,5.991,26.281,19.783,15.407,44.583,15.407,44.583s-42.418-7.139-65.241,14.474c0,0,54.3-12.616,126.718,7.411,0,0-1.648-12.5-36.138-30.888,0,0,48.411-32.217,117.629,2.964,0,0,54.579-101.85,174.087-93.737,0,0-54.947,5.163-69.673,31.918,0,0,79.006-29.072,144.148,15.406,0,0-9.4-25.788-29.815-37.443,0,0,66.309-2.338,120.326,84.385,14.976,24.055,18.21,72.792,12.891,84.392,0,0,61.739-45.1,133.1-11.76a83.382,83.382,0,0,0-49.479-25.21A86.388,86.388,0,0,0,1013.863,521.038Z" transform="translate(-104.843 -243.281)" fill="#fff"/>
                  <path id="Path_15671" data-name="Path 15671" d="M400.2,288.736a96.608,96.608,0,0,0-32.673-10.793c-42.681-5.977-82.87,16.074-98.864,51.186C268.665,329.13,326.334,271.64,400.2,288.736Z" transform="translate(754.008 -42.556)" fill="none" stroke="#fff" stroke-miterlimit="10" stroke-width="1"/>
                </g>
              </g>
            </g>
            <g id="Group_5375" data-name="Group 5375" transform="translate(0 2697.18)">
              <g id="Group_5372" data-name="Group 5372">
                <path id="Path_15672" data-name="Path 15672" d="M37.568,747.529a89.157,89.157,0,0,1,69.63,19.483c17.648-26.129,47.05-45.3,82.639-50.281,54.716-7.668,106.242,20.611,126.749,65.625,15.756-16.791,37.774-28.725,63.437-32.322A110.754,110.754,0,0,1,462.3,771.049c-17.91-127.457,77.77-245.368,216.212-264.761,121.655-17.048,236.275,47.6,278.531,149.446A109.15,109.15,0,0,1,1004.5,637.3c34.771-4.871,68.075,6.673,90.867,28.272,10.088-50.942,54.036-92.748,112.654-100.959a146.137,146.137,0,0,1,36.694-.4c13.06-74.142,76.49-135.355,161.327-147.24,105.244-14.745,203.527,52,219.508,149.091,8.808,53.461-9.227,104.947-44.747,142.912a149.313,149.313,0,0,1,31.35,67.093c82.421,3.138,153.573,59.661,166.421,137.707,14.589,88.567-51.426,171.268-147.443,184.725-62.464,8.747-122.211-13.986-160.372-55.305-17.741,66.641-77.389,120.165-155.509,131.11-95.281,13.346-184.693-41.312-210.444-124.6-21.955,24.285-53.131,41.639-89.687,46.76-52.063,7.292-101.735-11.955-133.26-46.642-25.407,35.885-66.627,62.02-116.181,68.965-76.166,10.674-148.13-27.34-178.869-88.782-30.876,32.064-73.613,54.742-123.166,61.686-112.635,15.781-217.81-55.653-234.921-159.549l-.019-.16c-1.117.188-2.191.466-3.321.626-48.218,6.756-94.032-14.362-118.272-50.275a87.235,87.235,0,0,1-44.154,19.393c-46.164,6.471-89.269-22.81-96.279-65.388S-8.6,754,37.568,747.529Z" transform="translate(34.292 -414.937)" fill="#f8fbff"/>
                <path id="Path_15673" data-name="Path 15673" d="M35.5,599.829c-24.983,3.243-48.973-5.552-65.01-21.564,55.94,22.281,99.27-41.646,99.27-41.646,80.929,82.958,162.719,14.606,162.719,14.606,1.561,77.5,64.848,141.75,157.931,147.539s173.756-62.417,167.851-123.6c30.133,63.293,209.283,73.675,206.8-17.354-109.3-22.58-143.879-92.651-143.879-92.651,140.826,102.5,316.281-1.086,316.281-1.086-4.769,58.367-99.22,88.455-99.22,88.455C868.15,644.2,987.4,702.25,1012.835,667.451c38.467,43.316,89.756-1.127,89.756-1.127,60.978,93.945,200.755,40.129,184.256-53.28-87.64-14.891-121.768-74.518-121.768-74.518,170.235,71.386,334.159-10.758,334.159-10.758-18.809,63.335-147.044,88.358-147.044,88.358,105.968,150.524,324.29,91.253,384.581-19.177a142.836,142.836,0,0,1,6.692,25.468c6.648,40.366-4.145,80.7-30.4,113.582s-64.786,54.359-108.546,60.49l-1.873.25c-56.421,7.313-112.217-12.268-149.26-52.376l-12.854-13.91L1435.82,748.2c-17.373,65.291-75.142,114-147.175,124.089l-2.023.271c-88.033,11.412-172.788-39.4-197.147-118.189l-5.263-17.013-12.279,13.59c-21.237,23.491-50.865,38.939-83.426,43.5l-1.517.209c-46.389,6.012-92.166-10.291-122.436-43.608l-8.789-9.665-7.485,10.563c-24.746,34.938-64.542,58.569-109.2,64.824l-1.8.244c-68.831,8.92-137.231-25.5-166.346-83.7l-6.5-12.985-10.294,10.7c-30.32,31.487-71.908,52.313-117.1,58.646l-2.216.306C328.935,803.7,229.734,735.512,213.678,637.976l-.012-.056V637.9l-1.467-9.63L201.8,630.022c-.618.1-1.224.223-1.829.348-.4.076-.793.167-1.2.223l-1.217.167c-42.331,5.483-84.3-12.623-106.923-46.134l-6.43-9.54L75.2,582.649a76.843,76.843,0,0,1-38.848,17.069Z" transform="translate(59.375 -122.175)" fill="#f0f6ff"/>
                <path id="Path_15674" data-name="Path 15674" d="M218.69,517.482s49.2-14.007,35.832-60.288a149.312,149.312,0,0,1,31.35,67.093c62.994,2.393,119.3,36.031,148.13,86.57-42.4-48.368-132.649-65.952-151.145-45.752C282.858,565.105,269.817,516.869,218.69,517.482Z" transform="translate(1360.574 -163.151)" fill="#fff"/>
                <g id="Group_5371" data-name="Group 5371" transform="translate(182.23)">
                  <path id="Path_15675" data-name="Path 15675" d="M167.629,771.049c-17.91-127.457,77.77-245.368,216.212-264.761,121.655-17.048,236.275,47.6,278.532,149.446A109.149,109.149,0,0,1,709.829,637.3c34.771-4.871,68.075,6.673,90.867,28.272,10.088-50.942,54.036-92.748,112.654-100.959a146.138,146.138,0,0,1,36.694-.4c13.059-74.142,76.49-135.355,161.327-147.24,105.244-14.745,203.527,52,219.508,149.091,8.808,53.461-9.227,104.947-44.747,142.912,24.664-80.613,3.989-164.037-83.594-200.986,0,0,38.311,42.286,31.369,78.887,0,0-55.715-96.729-173.987-36.253,0,0,5.987-35.425,56.233-49.287-76.671-2.665-131.088,66.049-117.916,130.115,0,0-70.722-45.821-151.358,7.682-33.7,25.363-19.752,57.156-19.752,57.156s54.379-9.15,83.644,18.558c0,0-69.623-16.178-162.469,9.505,0,0,2.116-16.025,46.332-39.6,0,0-62.07-41.312-150.815,3.792,0,0-69.973-130.581-223.2-120.179,0,0,70.448,6.624,89.331,40.929,0,0-101.292-37.276-184.812,19.748,0,0,12.042-33.06,38.223-48.006,0,0-85.012-3-154.267,108.189-19.208,30.84-23.347,93.326-16.53,108.2,0,0-79.156-57.825-170.653-15.079,15.756-16.784,37.768-28.717,63.437-32.315A110.754,110.754,0,0,1,167.629,771.049Z" transform="translate(146.735 -414.937)" fill="#fff"/>
                  <path id="Path_15676" data-name="Path 15676" d="M-5.1,473.213a123.851,123.851,0,0,1,41.9-13.833C91.515,451.711,143.042,479.99,163.549,525,163.549,525,89.611,451.294-5.1,473.213Z" transform="translate(5.101 -157.585)" fill="none" stroke="#fff" stroke-miterlimit="10" stroke-width="1"/>
                </g>
              </g>
              <g id="Group_5374" data-name="Group 5374" transform="translate(894.744 12.175)">
                <path id="Path_15677" data-name="Path 15677" d="M2293.536,833.52c-32.861-4.607-64.461,5.267-87.265,24.417-22.124-32.753-58.968-56.774-103.571-63.022-68.575-9.6-133.148,25.83-158.855,82.248-19.745-21.042-47.337-36-79.5-40.512A138.787,138.787,0,0,0,1761.231,863c22.448-159.744-97.471-307.52-270.978-331.825-152.469-21.362-296.123,59.661-349.073,187.3a136.831,136.831,0,0,0-59.479-23.1c-43.579-6.1-85.317,8.371-113.883,35.439-12.641-63.85-67.719-116.24-141.188-126.532a183.287,183.287,0,0,0-45.989-.5c-16.362-92.916-95.861-169.639-202.178-184.53-131.906-18.481-255.078,65.173-275.111,186.847C292.314,673.1,314.912,737.626,359.434,785.2a187.131,187.131,0,0,0-39.3,84.085c-103.3,3.931-192.465,74.775-208.571,172.583-18.278,111,64.455,214.653,184.793,231.513,78.282,10.967,153.162-17.521,200.992-69.312,22.23,83.521,96.985,150.6,194.893,164.323,119.414,16.728,231.475-51.778,263.749-156.167,27.511,30.436,66.583,52.181,112.4,58.6,65.247,9.137,127.5-14.974,167.008-58.451,31.85,44.973,83.507,77.732,145.608,86.43,95.461,13.375,185.654-34.263,224.177-111.272,38.7,40.185,92.253,68.61,154.36,77.315,141.164,19.776,272.976-69.752,294.419-199.964l.025-.195c1.4.229,2.747.584,4.164.779,60.435,8.468,117.848-18,148.23-63.009a109.291,109.291,0,0,0,55.334,24.306c57.85,8.107,111.873-28.585,120.663-81.949S2351.393,841.62,2293.536,833.52Z" transform="translate(-109.037 -416.686)" fill="#f8fbff"/>
                <path id="Path_15678" data-name="Path 15678" d="M2254.022,648.412c31.307,4.057,61.377-6.965,81.479-27.033-70.111,27.924-124.409-52.2-124.409-52.2C2109.656,673.156,2007.153,587.5,2007.153,587.5c-1.954,97.125-81.266,177.648-197.927,184.9s-217.766-78.226-210.369-154.908c-37.761,79.333-262.288,92.345-259.18-21.738,136.981-28.307,180.317-116.122,180.317-116.122-176.49,128.459-396.385-1.364-396.385-1.364,5.98,73.154,124.346,110.861,124.346,110.861-37.468,114.9-186.928,187.64-218.8,144.032-48.212,54.29-112.485-1.419-112.485-1.419-76.422,117.743-251.607,50.3-230.925-66.773,109.838-18.663,152.606-93.389,152.606-93.389C625,661.048,419.552,558.1,419.552,558.1,443.131,637.48,603.84,668.828,603.84,668.828,471.035,857.484,197.41,783.2,121.856,644.8a178.393,178.393,0,0,0-8.384,31.918c-8.334,50.588,5.188,101.141,38.086,142.348s81.2,68.13,136.038,75.8l2.353.32c70.7,9.164,140.639-15.378,187.059-65.646l16.106-17.431,5.918,22.246c21.774,81.824,94.176,142.87,184.45,155.52l2.541.341c110.325,14.3,216.549-49.377,247.081-148.124l6.592-21.327,15.394,17.034c26.612,29.441,63.743,48.8,104.551,54.519l1.9.257c58.143,7.536,115.513-12.894,153.449-54.651l11.018-12.115,9.376,13.242c31.013,43.789,80.892,73.4,136.869,81.239l2.247.306c86.26,11.175,171.989-31.953,208.477-104.891l8.147-16.283,12.9,13.409c38,39.461,90.118,65.569,146.763,73.5l2.778.376c132.7,17.2,257.032-68.262,277.152-190.5l.012-.07.006-.021,1.835-12.073,13.022,2.192c.78.125,1.542.285,2.291.438.506.1,1,.216,1.5.285l1.536.2c53.049,6.875,105.649-15.816,134-57.817l8.059-11.954,11.293,9.477a96.245,96.245,0,0,0,48.68,21.39Z" transform="translate(-98.37 -49.776)" fill="#f0f6ff"/>
                <path id="Path_15679" data-name="Path 15679" d="M382.968,545.207s-61.658-17.556-44.909-75.561a187.132,187.132,0,0,0-39.3,84.085c-78.944,3.006-149.51,45.16-185.648,108.5,53.143-60.615,166.252-82.659,189.431-57.337C302.545,604.89,318.888,544.435,382.968,545.207Z" transform="translate(-87.662 -101.132)" fill="#fff"/>
                <g id="Group_5373" data-name="Group 5373" transform="translate(191.544)">
                  <path id="Path_15680" data-name="Path 15680" d="M1600.371,863c22.448-159.744-97.472-307.52-270.978-331.825-152.469-21.362-296.123,59.661-349.073,187.3a136.831,136.831,0,0,0-59.479-23.1c-43.579-6.1-85.317,8.371-113.883,35.439-12.641-63.85-67.719-116.24-141.189-126.532a183.287,183.287,0,0,0-45.989-.5c-16.362-92.916-95.861-169.639-202.178-184.53C285.7,400.763,162.523,484.417,142.491,606.092c-11.037,67,11.561,131.534,56.083,179.109-30.913-101.029-5.007-205.579,104.763-251.888,0,0-48.018,53-39.31,98.865,0,0,69.823-121.229,218.053-45.438,0,0-7.5-44.395-70.479-61.77,96.092-3.34,164.286,82.784,147.781,163.07,0,0,88.632-57.421,189.7,9.63,42.231,31.786,24.752,71.637,24.752,71.637S705.677,757.84,669,792.563c0,0,87.259-20.27,203.614,11.912,0,0-2.647-20.082-58.062-49.634,0,0,77.789-51.771,189.013,4.76,0,0,87.7-163.662,279.724-150.615,0,0-88.283,8.295-111.954,51.284,0,0,126.949-46.712,231.618,24.751,0,0-15.088-41.43-47.9-60.155,0,0,106.549-3.765,193.339,135.592,24.072,38.647,29.265,116.963,20.719,135.6,0,0,99.2-72.465,213.871-18.892-19.745-21.042-47.337-36-79.5-40.512A138.787,138.787,0,0,0,1600.371,863Z" transform="translate(-139.72 -416.686)" fill="#fff"/>
                  <path id="Path_15681" data-name="Path 15681" d="M614.323,489.717a155.259,155.259,0,0,0-52.513-17.333c-68.575-9.6-133.148,25.83-158.855,82.248C402.955,554.631,495.62,462.252,614.323,489.717Z" transform="translate(1240.31 -94.155)" fill="none" stroke="#fff" stroke-miterlimit="10" stroke-width="1"/>
                </g>
              </g>
            </g>
            <g id="Group_5377" data-name="Group 5377" transform="translate(1120.326)">
              <path id="Path_15682" data-name="Path 15682" d="M1395.126,315.525c-40.339-3.145-66.708,30.3-101.217,30.394-26.681.069-61.677-9.714-75.273-51.367-7.591-22.065-29.134-38.884-55.959-40.978a68.028,68.028,0,0,0-49.2,15.475,59.22,59.22,0,0,0-35.77-15.378,62.419,62.419,0,0,0-17.7,1.155,86.478,86.478,0,0,0,2.141-12.476c4.769-50.8-36.519-95.5-92.215-99.853-47.5-3.716-90.112,23.137-104.594,62.626-17.148-17.055-41.07-28.523-68.331-30.652a111.66,111.66,0,0,0-73.325,19.811c-6.617-30.812-34.852-55.208-70.853-58.026a85.648,85.648,0,0,0-38.648,5.859c-13.921-60.789-70.1-108.69-141.419-114.257-87.09-6.805-163.73,52.077-171.19,131.507a131.839,131.839,0,0,0,6.48,54.944c-14.57,8.4-24.846,22.65-26.431,39.524a47.834,47.834,0,0,0,5.668,27.319,104.8,104.8,0,0,0-17.773,28.961,85.756,85.756,0,0,0-36.457-11.217c-44.553-3.479-83.769,26.644-87.584,67.281s29.209,76.4,73.769,79.883c28.616,2.241,55.016-9.4,71.259-28.78,19.4,20.666,47.344,34.681,79.406,37.179a128.956,128.956,0,0,0,32.312-1.545c13.222,31.362,45.134,54.77,84.312,57.824,54.342,4.245,102.185-32.238,107.379-81.643a71.555,71.555,0,0,0,18.135,3.848c33.248,2.6,62.788-17.709,70.1-46.524,26.144,29.9,65.148,50.344,110.213,53.865,47.824,3.737,92.459-12.358,124.259-40.755,22.61,20.625,53,34.388,87.352,37.068,57.969,4.53,110.725-23.714,136.313-67.844,2.971.738,27.374,40.846,94.937,40.672,83.5-.209,119.508-55.486,163.15-56.2,2.622-.042,5.275.035,7.972.25,15.687,1.225,26.637,6.1,35.7,12.184C1460.517,378.081,1450.136,319.825,1395.126,315.525Z" transform="translate(-145.173 -27.322)" fill="#e5f0ff"/>
              <path id="Path_15683" data-name="Path 15683" d="M1278.677,191.136c-96.479,37.986-135.414-53.2-135.414-53.2s-23.354,51.757-87.39,47.554-75.766-37.506-75.766-37.506c33.529-11.822,43.074-39.245,43.074-39.245C900.114,171.9,825.422,89.585,825.422,89.585c2.116,43.337,49.835,62.173,49.835,62.173-45.034,32.941-110.6,37.617-154.573-28.655-37.487,54.192-80.024,8.768-80.024,8.768-47.781,91.106-162,49.954-167.7,5.261,59.71-16.276,85.486-77.969,85.486-77.969C454.806,156.7,330.947,81.82,330.947,81.82c26.156,42.662,81,56.92,81,56.92-59.161,118.4-168.331,36.636-168.331,36.636-6.149,49.641-58.118,60.837-94.987,49.62,12.473,14.585,31.238,24.626,52.981,26.331l1.042.07c25.407,1.67,49.841-8.385,65.366-26.894l4.145-4.941,4.432,4.725c19.29,20.548,46.164,33.129,75.685,35.432l1.517.111a123.338,123.338,0,0,0,29.278-1.586l4.538-.793,1.654,3.932c13.016,30.867,43.53,51.8,79.63,54.616l1.3.1c50.378,3.305,95.293-31.327,100.118-77.2l.693-6.59,6.779,2.373a65.7,65.7,0,0,0,16.624,3.528l.843.056c29.958,1.969,56.633-15.984,63.418-42.7l2.578-10.145,7.116,8.148c26.431,30.227,64.205,48.688,106.367,51.979l2.1.153c43.573,2.86,86.516-11.537,117.816-39.5l3.908-3.479,3.858,3.521c22.461,20.5,52.263,33.143,83.925,35.613l1.866.139c53.387,3.5,104.058-22.135,129.091-65.319l2.066-3.563,4.264,1.058c2.135.529,3.284,1.781,5.806,4.523,7.4,8.051,29.921,32.551,77.046,35.641,3.458.23,7.029.341,10.619.334,47.119-.118,78.213-18.141,105.643-34.04,20.226-11.718,37.693-21.842,57.432-22.163,2.129-.035,4.282.042,6.424.16C1365.024,154.507,1343.612,165.571,1278.677,191.136Z" transform="translate(-127.069 162.399)" fill="#ccdaf1"/>
              <g id="Group_5376" data-name="Group 5376" transform="translate(0.301)">
                <path id="Path_15684" data-name="Path 15684" d="M273.856,162.719s11.83-29.532,25.713-40.414c0,0-29.371-25.5,4.414-67.754-12.5,8.58-21.175,21.7-22.617,37.04a47.834,47.834,0,0,0,5.668,27.319,104.8,104.8,0,0,0-17.773,28.961A85.755,85.755,0,0,0,232.8,136.653c-44.553-3.479-83.769,26.644-87.584,67.281C163.986,152.143,228.859,132.84,273.856,162.719Z" transform="translate(-145.221 134.919)" fill="#fff"/>
                <path id="Path_15685" data-name="Path 15685" d="M874.123,151.188a108.509,108.509,0,0,0-35.046-8.691c-47.5-3.716-90.112,23.137-104.594,62.626-17.148-17.055-41.07-28.523-68.331-30.652a111.66,111.66,0,0,0-73.325,19.811c-6.617-30.812-34.852-55.208-70.853-58.026a85.649,85.649,0,0,0-38.648,5.859C469.4,81.326,413.228,33.424,341.906,27.857c-87.09-6.805-163.73,52.077-171.19,131.507a131.853,131.853,0,0,0,6.48,54.944,151.989,151.989,0,0,1,6.018,17.347s-11.655,9.338-12.841,35.063c0,0,15.856-42.154,75.654-51.694a68.911,68.911,0,0,0-42.112,3.646s-18.578-83.264,66.44-124.9c19.19-9.394,35.577-6.638,35.577-6.638S275.366,108.129,274,133.284c0,0,31.762-51.771,125.357-14.216,0,0-12.136-25.475-35.077-30.909,0,0,59.879-2.8,97.771,70.363,0,0-16.524,6.771-28.472,33.47,0,0,94.307-57.2,154.491,14.07,0,0,87.527-44.179,138.036,14.668,0,0-17.816,5-29.8,16.554,0,0,46.994-18.795,86.322-10.6,0,0-16.381-10.612-35.177-14.091C747.455,212.6,778.955,134.7,874.123,151.188Z" transform="translate(-14.62 -27.322)" fill="#fff"/>
              </g>
              <path id="Path_15686" data-name="Path 15686" d="M432.8,75.6a66.984,66.984,0,0,0-38.4-15.58,68.027,68.027,0,0,0-49.2,15.476,59.22,59.22,0,0,0-35.77-15.378,62.419,62.419,0,0,0-17.7,1.155s41.282,3.758,51.1,28.376C342.816,89.651,393.424,47.7,432.8,75.6Z" transform="translate(623.113 166.23)" fill="#fff"/>
            </g>
            <g id="Group_5379" data-name="Group 5379" transform="translate(2037.715 696.863)">
              <path id="Path_15687" data-name="Path 15687" d="M1066.9,294.213c-5.481-13.771-21.025-24.264-40.39-25.572-13.571-.919-26.244,2.895-35.514,9.658a46.228,46.228,0,0,0-25.813-9.6,51.979,51.979,0,0,0-12.772.724,47.716,47.716,0,0,0,1.542-7.786c3.44-31.7-26.356-59.592-66.552-62.306-34.284-2.317-65.042,14.432-75.5,39.071-12.373-10.639-29.64-17.793-49.316-19.122-19.77-1.336-38.4,3.451-52.918,12.358-4.776-19.226-25.152-34.451-51.139-36.2a70.487,70.487,0,0,0-27.892,3.66c-10.051-37.93-50.6-67.824-102.073-71.3-62.857-4.245-118.172,32.489-123.553,82.054a71.843,71.843,0,0,0,4.676,34.284c-10.519,5.247-17.935,14.133-19.077,24.661a26.535,26.535,0,0,0,4.089,17.048,64.628,64.628,0,0,0-12.822,18.071,69.192,69.192,0,0,0-26.313-7c-32.162-2.171-60.465,16.624-63.219,41.98s21.087,47.679,53.243,49.85c20.657,1.392,39.709-5.873,51.433-17.96,14,12.894,34.172,21.634,57.313,23.2a107.78,107.78,0,0,0,23.316-.967C487.2,412.6,510.23,427.2,538.5,429.1c39.222,2.651,73.75-20.117,77.5-50.942a58.8,58.8,0,0,0,13.091,2.4c24,1.621,45.315-11.05,50.6-29.024,18.871,18.655,47.019,31.41,79.549,33.609,34.509,2.331,66.727-7.717,89.681-25.433,16.318,12.873,38.248,21.453,63.044,23.13,41.838,2.825,79.917-14.794,98.383-42.335C1012.5,340.967,1076.714,320.2,1066.9,294.213Z" transform="translate(-292.129 -127.469)" fill="#e5f0ff"/>
              <path id="Path_15688" data-name="Path 15688" d="M945.087,230.191c-46.114-3.973-50.346-27.437-50.346-27.437,24.2-7.376,31.088-24.487,31.088-24.487C837,217.679,783.1,166.32,783.1,166.32c1.529,27.033,35.964,38.793,35.964,38.793-32.5,20.555-79.818,23.471-111.555-17.883-27.055,33.818-57.763,5.476-57.763,5.476-34.484,56.843-116.924,31.167-121.037,3.278,43.1-10.152,61.7-48.646,61.7-48.646-74.8,60.858-164.2,14.132-164.2,14.132,18.878,26.623,58.462,35.516,58.462,35.516-42.7,73.884-121.493,22.858-121.493,22.858-4.438,30.979-41.944,37.965-68.556,30.965,9,9.1,22.542,15.371,38.242,16.429l.749.049c18.341,1.037,35.976-5.233,47.175-16.784l2.99-3.082,3.2,2.943c13.921,12.824,33.323,20.673,54.629,22.114l1.092.07a103.283,103.283,0,0,0,21.131-.988l3.271-.5,1.2,2.456c9.4,19.261,31.419,32.322,57.475,34.075l.936.063c36.357,2.06,68.774-19.546,72.258-48.173l.5-4.112,4.894,1.482a53.735,53.735,0,0,0,12,2.2l.606.042c21.624,1.225,40.876-9.978,45.771-26.644l1.86-6.332,5.138,5.08c19.084,18.864,46.345,30.387,76.771,32.44l1.523.09c31.444,1.788,62.438-7.195,85.03-24.64l2.815-2.171,2.79,2.2c16.212,12.783,37.724,20.673,60.572,22.218l1.348.084c38.529,2.185,75.1-13.812,93.171-40.755C993.76,220.658,982.954,233.454,945.087,230.191Z" transform="translate(-279.061 -9.088)" fill="#ccdaf1"/>
              <g id="Group_5378" data-name="Group 5378" transform="translate(0.216)">
                <path id="Path_15689" data-name="Path 15689" d="M385.01,211.949s8.533-18.426,18.559-25.217c0,0-21.2-15.907,3.184-42.272-9.027,5.351-15.282,13.541-16.324,23.109a26.535,26.535,0,0,0,4.089,17.048A64.627,64.627,0,0,0,381.7,202.687a69.192,69.192,0,0,0-26.313-7c-32.162-2.171-60.465,16.624-63.219,41.98C305.711,205.352,352.53,193.307,385.01,211.949Z" transform="translate(-292.164 -26.236)" fill="#fff"/>
                <path id="Path_15690" data-name="Path 15690" d="M818.244,204.756a88.618,88.618,0,0,0-25.289-5.428c-34.284-2.31-65.042,14.439-75.5,39.078-12.373-10.639-29.64-17.793-49.316-19.122-19.77-1.336-38.4,3.451-52.918,12.358-4.776-19.226-25.158-34.451-51.139-36.2a70.486,70.486,0,0,0-27.892,3.66c-10.051-37.93-50.6-67.824-102.073-71.3-62.857-4.245-118.172,32.489-123.553,82.054a71.844,71.844,0,0,0,4.676,34.284,85.835,85.835,0,0,1,4.339,10.827s-8.409,5.824-9.264,21.877c0,0,11.449-26.3,54.6-32.252a57.139,57.139,0,0,0-30.4,2.268s-13.409-51.951,47.949-77.927a52.754,52.754,0,0,1,25.682-4.147s-22.061,13.1-23.048,28.794c0,0,22.923-32.3,90.474-8.865,0,0-8.758-15.9-25.314-19.289,0,0,43.217-1.747,70.566,43.907,0,0-11.93,4.224-20.55,20.882,0,0,68.063-35.69,111.5,8.782,0,0,63.169-27.569,99.625,9.15,0,0-12.86,3.124-21.506,10.333,0,0,33.916-11.732,62.3-6.617a86.835,86.835,0,0,0-25.382-8.788S749.563,194.471,818.244,204.756Z" transform="translate(-197.9 -127.469)" fill="#fff"/>
              </g>
              <path id="Path_15691" data-name="Path 15691" d="M499.717,157.594A52.715,52.715,0,0,0,472,147.873c-13.571-.919-26.244,2.895-35.514,9.658a46.229,46.229,0,0,0-25.813-9.6,51.978,51.978,0,0,0-12.772.724s29.79,2.345,36.875,17.7C434.775,166.361,471.3,140.184,499.717,157.594Z" transform="translate(262.382 -6.701)" fill="#fff"/>
            </g>
            <g id="Group_5380" data-name="Group 5380" transform="translate(2975.411 1185.46)">
              <path id="Path_15692" data-name="Path 15692" d="M1265.961,398.8c-51.9.265-68.969-43.33-81.154-61.951l-.069.007c-10.968-18.475-29.377-31.111-50.752-32.21a58.343,58.343,0,0,0-27.354,5.261c-10.838-21.787-31.195-37.04-55.16-38.271-.531-.028-1.043.021-1.567.007-22.617-27.847-54.766-46.058-91.086-47.93-40.246-2.073-77.077,16.338-102.409,46.955-27.018-41.945-70.335-70.224-120.2-72.792-66.852-3.437-125.819,40.31-151.046,104.856a85.507,85.507,0,0,0-46.176-16.707c-50.971-2.623-94.194,41.305-96.548,98.12s37.056,105,88.027,107.619c25.157,1.294,48.4-8.789,65.8-26.122,26.431,46.712,72.22,78.776,125.476,81.511,42.63,2.2,82.04-14.828,111.555-44.172a59.99,59.99,0,0,0,52.388-7.877,120.779,120.779,0,0,0,61.046,20.472c59.985,3.089,112.372-39.3,130.4-99.846,10.956,18.614,29.434,31.355,50.909,32.454a58.872,58.872,0,0,0,35.12-9.561c.081-.035.15-.063.238-.1,27.723-13.416,43.492-24.633,82.321-27.437,6.873-.494,13.371-.64,19.52-.55C1291.892,410.927,1280.837,398.722,1265.961,398.8Z" transform="translate(-442.339 -197.686)" fill="#e5f0ff"/>
              <path id="Path_15693" data-name="Path 15693" d="M1090.5,329.618s61.776-34.3,98.027,19.372h0c-2.7-4.586-5.069-8.781-7.266-12.142l-.069.007c-10.968-18.475-29.377-31.111-50.752-32.21a58.343,58.343,0,0,0-27.355,5.261c-10.837-21.787-31.194-37.04-55.16-38.271-.531-.028-1.042.021-1.567.007-22.617-27.847-54.766-46.058-91.086-47.93-40.246-2.073-77.077,16.338-102.409,46.955-27.018-41.945-70.335-70.224-120.2-72.792-66.852-3.437-125.819,40.31-151.046,104.856a85.507,85.507,0,0,0-46.176-16.707c-42.837-2.206-80.192,28.474-92.422,72.04,0,0,47.319-77.642,130.233-40.811-.262.216-20.962,17.236-22.03,30.325,0,0,40-22.747,86.6-8.378,0,0-10.681-28.467-40.845-26.567,10.294-26.08,29.259-64.678,92.821-84.8,65.528-17.967,134.3,15.656,141.8,63.461,0,0-38.673,4.794-55.858,37.123,0,0,75.2-41.91,146.1,0,0,0-13.959-32.336-53.711-40.714,0,0,18.872-53.448,95.88-45.9,25.863,5.769,50.945,21.133,65.26,55.479C1029.263,297.29,1076.532,274.536,1090.5,329.618Z" transform="translate(-438.79 -197.686)" fill="#fff"/>
              <path id="Path_15694" data-name="Path 15694" d="M1145.685,276.318c-56.771,24.758-77.614-8.107-84.263-24.821a21.475,21.475,0,0,0,2.6-1.023c17.049-8.336,36.663-29.977,36.663-29.977-49.416,23.151-85.224,3.194-85.224,3.194,6.648,15.5,24.5,29.789,40.165,28.884-28.123,78.623-146.276,122.134-187.1,66.849-12.067,7.125-22.574,9.206-31.282,8.872-26.35-4.892-29.215-24.041-29.215-24.041l38.442-27.388c9.214,5.789,19.714,8.169,28.485,3.883,17.049-8.343,36.663-29.977,36.663-29.977-49.416,23.151-85.224,3.187-85.224,3.187,3.652,8.51,10.7,16.644,18.9,22.128-65.516,28.488-113.89-2.964-113.89-2.964,12.173,14.369,54.429,32.732,54.429,32.732-5.656,33.894-41.788,43.3-42.693,43.525-54.3,10.09-118.515-6.645-140.727-61.478,17.036-8.364,36.606-29.949,36.606-29.949-49.416,23.151-85.224,3.194-85.224,3.194,4.975,11.607,16.25,22.552,28.179,26.943-41.7,32.252-96.117,37.54-136.575,14.828,14.4,26.171,39.8,44.221,69.33,45.745,1.348.063,2.69.1,4.026.1,21.081,0,41.388-8.67,57.176-24.41l5.681-5.664,4.07,7.181C611.95,372.3,656.934,401.528,706,404.054c2.36.125,4.713.181,7.048.181,36.843,0,72.332-15.107,99.925-42.537l2.634-2.623,3.4,1.065a54.744,54.744,0,0,0,13.465,2.47c.942.049,1.885.07,2.821.07a55.4,55.4,0,0,0,31.026-9.644l3.315-2.234,3.327,2.22A115.589,115.589,0,0,0,931,372.477c1.954.1,3.908.153,5.843.153,53.736,0,101.211-38.215,118.141-95.086l4.2-14.1,7.31,12.421c10.2,17.34,27.33,28.265,45.814,29.225q1.339.063,2.678.063a53.424,53.424,0,0,0,28.916-8.677l.9-.473c4.426-2.143,8.552-4.231,12.51-6.235,16.168-8.19,29.777-15.065,50.084-18.983C1182.7,269.958,1158.12,270.891,1145.685,276.318Z" transform="translate(-426.302 -61.762)" fill="#ccdaf1"/>
            </g>
          </g>
        </g>
      </g>
    </g>
    <path id="Union_13" data-name="Union 13" d="M0,3386.068V1727.3H0V-41.5S190.753-59.7,502.157,62.389c142.583,55.9,347.259,37.789,452.819,0l.571-.2.154-.055.435-.155.155-.055.5-.177.079-.028.587-.209.089-.031.475-.169.168-.059.444-.157.134-.047.567-.2.111-.04.49-.172.111-.04.507-.178.093-.032,1.164-.408.148-.052.465-.163.119-.042,1.185-.413.073-.026.52-.18.109-.038,1.2-.417.029-.009.565-.2.086-.03.552-.19.043-.016,1.2-.412.106-.037.536-.185.048-.016,1.218-.416.07-.024.518-.177.106-.035,1.2-.407.072-.025.545-.185.063-.021,1.827-.616.067-.023,1.834-.615.055-.018.58-.194.032-.011,1.211-.4.1-.032.542-.18.051-.017,1.234-.409.026-.008.576-.191.068-.022c.4-.132.817-.27,1.22-.4l.039-.014.6-.2.013,0,1.869-.611.043-.015,1.844-.6.069-.023.552-.178.057-.019,1.237-.4.023-.008.592-.191.041-.013c.615-.2,1.238-.4,1.853-.594l.051-.017c.615-.2,1.242-.4,1.857-.592l.033-.01.576-.184.059-.019,1.237-.392.016-.005c.826-.261,1.648-.52,2.475-.779l.085-.027,1.841-.577.039-.011,1.83-.569.121-.038.5-.156.079-.025,1.219-.377.065-.02.533-.165.093-.028,1.213-.373.059-.018.568-.174.043-.014c.606-.186,1.219-.373,1.825-.557l.11-.034.552-.167.039-.013.615-.187.041-.011.543-.165.127-.039.489-.148.112-.033c.394-.119.792-.24,1.186-.358l.113-.034.513-.154.083-.025,1.193-.358.126-.039.458-.137.164-.049.523-.156.046-.014.579-.172.153-.046.464-.138.131-.04.455-.135.15-.045.546-.162.2-.059.388-.115.211-.063.408-.12.154-.045.567-.168.106-.031.478-.141.183-.053.4-.118.187-.055.489-.143.088-.026.56-.164.2-.057.365-.107.232-.068.36-.1.22-.065.54-.156.187-.055.361-.1.256-.074.335-.1.239-.07.526-.152.189-.054.4-.115.193-.055.388-.112.215-.063.544-.156.094-.027.47-.135.226-.065.337-.1.258-.074.334-.095.312-.09.429-.123.27-.076.281-.08.313-.09.265-.075.268-.076.509-.145.3-.087.247-.07.331-.094.2-.058.343-.1.275-.077.532-.15.218-.062.349-.1.22-.062.3-.086.3-.086.462-.13.31-.087.278-.077.256-.072.323-.091.239-.067.5-.139.308-.086.324-.091.216-.06.338-.094.177-.049,1.288-.358.062-.018.429-.119.1-.027,1.369-.378.019-.006.441-.121.083-.023,1.83-.5.112-.03.42-.116.03-.007,1.364-.372.1-.027C1123.506,12.869,1198.471-.7,1256.007-10.36H1256c42.493-7.136,75.481-12.143,92.83-16.446,50.085-12.423,233.872-12.423,349.316,0S1920,18.268,1920,18.268v1771.67h-.008c-.065.014-.526.111-1.391.263V3386.068Z" transform="translate(0 20803.543)" fill="#4a7ced" opacity="0.48"/>
  </g>
</svg>
