<?xml version="1.0" encoding="utf-8"?>
<!-- Generator: Adobe Illustrator 24.1.1, SVG Export Plug-In . SVG Version: 6.00 Build 0)  -->
<svg version="1.1" id="Layer_1" xmlns="http://www.w3.org/2000/svg" xmlns:xlink="http://www.w3.org/1999/xlink" x="0px" y="0px"
	 viewBox="0 0 1920 1931.5" style="enable-background:new 0 0 1920 1931.5;" xml:space="preserve">
<style type="text/css">
	.st0{fill:url(#Path_11909_1_);}
	.st1{fill:#FFC41E;}
	.st2{fill:#EA8518;}
	.st3{fill:#E86013;}
	.st4{fill:#D33C0D;}
	.st5{fill:#BF0000;}
	.st6{fill:#C42F0C;}
	.st7{opacity:0.4;enable-background:new    ;}
	.st8{fill:#EF7752;}
	.st9{fill:#D14519;}
	.st10{fill:#F7EEBA;}
	.st11{fill:#F44945;}
	.st12{fill:#A03030;}
	.st13{fill:#FFFFFF;}
	.st14{fill:#5F9FB7;}
	.st15{fill:#72AECC;}
	.st16{opacity:0.2;enable-background:new    ;}
	.st17{fill:#F39632;}
</style>
<g id="Group_3183" transform="translate(-1407.062 -192.647)">
	
		<linearGradient id="Path_11909_1_" gradientUnits="userSpaceOnUse" x1="1727.3954" y1="1519.8356" x2="1727.3954" y2="1519.4125" gradientTransform="matrix(1920.0001 0 0 -462.411 -3314232.25 704506.875)">
		<stop  offset="0" style="stop-color:#FFDD15"/>
		<stop  offset="1" style="stop-color:#D19329"/>
	</linearGradient>
	<path id="Path_11909" class="st0" d="M3285.9,1724.4c-20.1-5.3-41.2,3.5-51.7,21.3c-5.1-0.9-10.4,0.8-14.1,4.4
		c-11-12.3-30-13.4-42.3-2.3c-5.3,4.7-8.7,11.1-9.7,18.1c-26.8-17.5-62.7-9.9-80.2,16.9c-1.3,1.9-2.4,3.9-3.4,6
		c-14.8-9.9-34.9-5.9-44.7,9c-1.6,2.4-2.9,5-3.8,7.8c-23.4-12.2-52.2-3.1-64.4,20.3c-0.6,1.2-1.1,2.3-1.7,3.5
		c-16.1-12.4-39.3-9.4-51.7,6.8c-2.3,3-4.1,6.3-5.4,9.8c-8.2-3.1-17.2-3.5-25.6-1c-3.1-30.6-30.4-52.9-61-49.8
		c-19.2,1.9-36.1,13.7-44.5,31.1c-13.1-6.6-28.6-5.9-41.1,1.7c-11-24-39.4-34.5-63.3-23.5c-12.3,5.6-21.6,16.2-25.7,29.1
		c-10.4-13.4-29.6-15.9-43-5.5c-1.7,1.3-3.2,2.7-4.6,4.3c-8.9-7-19.9-10.8-31.2-10.7c-2.7,0-5.3,0.2-7.9,0.6c0-0.2,0-0.4,0-0.6
		c0-23.6-19.1-42.7-42.7-42.7c-17.1,0-32.5,10.2-39.3,25.9c-7.3-5.9-17.6-6.4-25.4-1.2c-6.2-16.3-24.5-24.5-40.9-18.3
		c-9.9,3.8-17.2,12.3-19.6,22.6c-5.7-30.4-35-50.4-65.4-44.6c-23.2,4.4-41.2,22.8-44.9,46.1c-8.3,2.8-14.3,10-15.5,18.6
		c-6-1.3-12.2-0.7-17.8,1.8c-15.6-12.6-38.5-10.4-51.4,4.9c-11.3-19.2-36-25.5-55.2-14.2c-8.7,5.1-15.1,13.3-18.1,23
		c-1.1-0.2-2.3-0.2-3.4-0.3c-4,0-7.9,0.9-11.4,2.7c-1.6-22.3-20.9-39.2-43.2-37.6c-19.8,1.4-35.6,16.9-37.5,36.6
		c-10.8-3.8-22.9-0.9-30.7,7.5c-12.7-11-31.1-12.2-45.2-3.1c-10.4-19.9-35-27.7-55-17.3c-3.5,1.8-6.7,4.1-9.5,6.8
		c-12.5-14.1-34-15.4-48.1-2.9c-3.8,3.4-6.8,7.5-8.8,12.2c2.8-11.4-4.1-23-15.6-25.9c-11.4-2.8-23,4.1-25.9,15.6
		c-0.8,3.1-0.8,6.4-0.2,9.6c-7.9-4.6-17.4-5.6-26.2-2.9c0.1-1.4,0.2-2.9,0.2-4.4c0-25-20.2-45.3-45.3-45.3c-23,0-42.3,17.1-45,39.9
		c-1-1-2-1.9-3.2-2.7c-2.9-24-23.2-42-47.4-42c-1.8,0-3.7,0.1-5.5,0.3c-0.1-13-7-25-18.2-31.6c-7.1-19-28.2-28.6-47.2-21.6
		c-9.2,3.4-16.6,10.3-20.6,19.2c-3.4-1.8-7.2-2.8-11-2.8c-0.6,0-1.1,0-1.6,0.1c-1.8-17-16.1-29.8-33.2-29.8c-0.4,0-0.7,0-1.1,0.1
		c-10.8-19.1-35.1-25.9-54.2-15.1c-6,3.4-11,8.3-14.6,14.2c-3.8-2.6-8.2-4-12.8-4c-0.2,0-0.4,0-0.6,0v405.1h1920v-462.4
		C3302.8,1673.4,3287,1697.5,3285.9,1724.4z M1834.1,1854.6h-0.7c0.5-0.8,1-1.6,1.4-2.5C1834.4,1852.9,1834.2,1853.7,1834.1,1854.6
		L1834.1,1854.6z M2294.1,1854.6h-0.1l0,0C2294,1854.6,2294.1,1854.6,2294.1,1854.6c1.6,0,3.2-0.2,4.8-0.5c0.1,0.2,0.3,0.3,0.4,0.5
		H2294.1z M2389.3,1854.6h-4.6c1.7-2,3.2-4,4.6-6.2V1854.6z M2397.1,1828.5c0.2-1.4,0.5-2.7,0.6-4.1c0.4,1.4,0.9,2.8,1.6,4.1H2397.1
		z"/>
	<g id="Group_3182" transform="translate(2179.493 827.276)">
		<path id="Path_11910" class="st1" d="M353.3,1227.3H0L161.6-139.6h85.3L353.3,1227.3z"/>
		<path id="Path_11911" class="st2" d="M205.2,32.7c8.5,0,28.6-77.2,28.6-172.3h-57.2C176.6-44.4,196.7,32.7,205.2,32.7z"/>
		<path id="Path_11912" class="st3" d="M205.2-32.6c5.3,0,17.8-47.9,17.8-107h-35.5C187.5-80.5,200-32.6,205.2-32.6z"/>
	</g>
	<g id="Group_3349" transform="translate(4)">
		<g id="Group_3181" transform="translate(2189.983 192.647)">
			<g id="Group_3180">
				<path id="Path_11895" class="st4" d="M121.7,324.6L15.6,397.6v71.9c0,0,8.7-20.1,51.3-45.3c42.8-25.4,74.1-16.6,74.1-16.6
					L121.7,324.6z"/>
				<rect id="Rectangle_511" x="142.1" y="479.9" class="st5" width="97.2" height="14.7"/>
				<path id="Path_11896" class="st6" d="M260,324.6l106.2,73.1v71.9c0,0-8.7-20.1-51.3-45.3c-42.8-25.4-74.1-16.6-74.1-16.6
					L260,324.6z"/>
				<path id="Path_11897" class="st7" d="M287.5,343.5c-2.7,22.7-6.1,44.9-10.1,65.4c-22.4-5.2-36.6-1.2-36.6-1.2l19.2-83.1
					L287.5,343.5z"/>
				<path id="Path_11898" class="st8" d="M357.5,351.4c13.3,0,24.2,47.9,24.2,124.1h-48.3C333.3,399.3,344.2,351.4,357.5,351.4z"/>
				<path id="Path_11899" class="st9" d="M381.7,475.5h-48.3c0-2.2,0-4.4,0-6.5h48.3C381.7,471.2,381.7,473.3,381.7,475.5z"/>
				<rect id="Rectangle_512" x="336.1" y="475.5" class="st5" width="42.9" height="3.1"/>
				<path id="Path_11900" class="st10" d="M101.6,244.5c0,86.1,14.7,189.9,37,240.7c34.3,8.3,70,8.3,104.3,0
					c22.3-50.8,37-154.6,37-240.7c0-143.1-89.2-241.3-89.2-241.3S101.6,101.4,101.6,244.5z"/>
				<path id="Path_11901" class="st11" d="M190.7,479.1c-19.3,0-38.5-2.3-57.3-6.8c1.7,4.7,3.4,9,5.1,13c34.3,8.3,70,8.3,104.3,0
					c1.8-4,3.5-8.4,5.1-13C229.3,476.8,210.1,479.1,190.7,479.1z"/>
				<path id="Path_11902" class="st7" d="M94.2,343.5c2.7,22.7,6.1,44.9,10.1,65.4c22.4-5.2,36.6-1.2,36.6-1.2l-19.2-83.1
					L94.2,343.5z"/>
				<path id="Path_11903" class="st11" d="M190.7,0c0,0-34,37.4-60,99.7h120C224.7,37.4,190.7,0,190.7,0z"/>
				<circle id="Ellipse_1752" class="st12" cx="190.8" cy="175.1" r="48.6"/>
				<path id="Path_11904" class="st8" d="M118.7,414.4h144c5.8-28.6,10.1-57.5,12.8-86.6H105.9C108.7,356.8,112.9,385.7,118.7,414.4
					z"/>
				<circle id="Ellipse_1753" class="st13" cx="190.8" cy="175.1" r="41.9"/>
				<circle id="Ellipse_1754" class="st14" cx="190.7" cy="175.1" r="39.9"/>
				
					<ellipse id="Ellipse_1755" transform="matrix(0.7155 -0.6986 0.6986 0.7155 -63.3369 162.6189)" class="st15" cx="168" cy="159.1" rx="6.7" ry="5.1"/>
				<path id="Path_11905" class="st8" d="M24.2,351.4C10.8,351.4,0,399.3,0,475.5h48.3C48.3,399.3,37.5,351.4,24.2,351.4z"/>
				<circle id="Ellipse_1756" class="st15" cx="176.1" cy="150.1" r="3"/>
				<path id="Path_11906" class="st9" d="M0,475.5h48.3c0-2.2,0-4.4,0-6.5H0C0,471.2,0,473.3,0,475.5z"/>
				<rect id="Rectangle_513" x="2.7" y="475.5" class="st5" width="42.9" height="3.1"/>
				<path id="Path_11907" class="st16" d="M24.2,351.4v124.1h24.2C48.3,399.3,37.5,351.4,24.2,351.4z"/>
				<path id="Path_11908" class="st16" d="M357.5,351.4v124.1h24.2C381.7,399.3,370.9,351.4,357.5,351.4L357.5,351.4z"/>
			</g>
		</g>
		<g id="Group_3350" transform="translate(2194.049 670.528)">
			<path id="Path_12186" class="st17" d="M19.7,76.9c5.8,0,19.7-34.4,19.7-76.9H0C0,42.5,13.8,76.9,19.7,76.9z"/>
			<path id="Path_12185" class="st3" d="M19.7,73.7c3.6,0,12.2-33,12.2-73.7H7.5C7.5,40.7,16,73.7,19.7,73.7z"/>
		</g>
		<g id="Group_3351" transform="translate(2528.049 670.528)">
			<path id="Path_12186-2" class="st17" d="M19.7,76.9c5.8,0,19.7-34.4,19.7-76.9H0C0,42.5,13.8,76.9,19.7,76.9z"/>
			<path id="Path_12185-2" class="st3" d="M19.7,73.7c3.6,0,12.2-33,12.2-73.7H7.5C7.5,40.7,16,73.7,19.7,73.7z"/>
		</g>
	</g>
	<path id="Path_11913" class="st1" d="M3285.9,1801.2c-20.1-5.3-41.2,3.5-51.7,21.3c-5.1-0.9-10.4,0.8-14.1,4.4
		c-11-12.3-30-13.4-42.3-2.3c-5.3,4.7-8.7,11.1-9.7,18.1c-26.8-17.5-62.7-9.9-80.2,16.9c-1.3,1.9-2.4,3.9-3.4,6
		c-14.8-9.9-34.9-5.9-44.7,9c-1.6,2.4-2.9,5-3.8,7.8c-23.4-12.2-52.2-3.1-64.4,20.3c-0.6,1.2-1.1,2.3-1.7,3.5
		c-16.1-12.4-39.3-9.4-51.7,6.8c-2.3,3-4.1,6.3-5.4,9.8c-8.2-3.1-17.2-3.5-25.6-1c-3.1-30.6-30.4-52.9-61-49.8
		c-19.2,1.9-36.1,13.7-44.5,31.1c-13.1-6.6-28.6-5.9-41.1,1.7c-11-24-39.4-34.5-63.3-23.5c-12.3,5.6-21.6,16.2-25.7,29.1
		c-10.4-13.4-29.6-15.9-43-5.5c-1.7,1.3-3.2,2.7-4.6,4.3c-8.9-7-19.9-10.8-31.2-10.7c-2.7,0-5.3,0.2-7.9,0.6c0-0.2,0-0.4,0-0.6
		c0-23.6-19.1-42.7-42.7-42.7c-17.1,0-32.5,10.2-39.3,25.9c-7.3-5.9-17.6-6.4-25.4-1.2c-6.2-16.3-24.5-24.5-40.9-18.3
		c-9.9,3.8-17.2,12.3-19.6,22.6c-5.7-30.4-35-50.4-65.4-44.6c-23.2,4.4-41.2,22.8-44.9,46.1c-8.3,2.8-14.3,10-15.5,18.6
		c-6-1.3-12.2-0.7-17.8,1.8c-15.6-12.6-38.5-10.4-51.4,4.9c-11.3-19.2-36-25.5-55.2-14.2c-8.7,5.1-15.1,13.3-18.1,23
		c-1.1-0.2-2.3-0.2-3.4-0.3c-4,0-7.9,0.9-11.4,2.7c-1.6-22.3-20.9-39.2-43.2-37.6c-19.8,1.4-35.6,16.9-37.5,36.6
		c-10.8-3.8-22.9-0.9-30.7,7.5c-12.7-11-31.1-12.2-45.2-3.1c-10.4-19.9-35-27.7-55-17.3c-3.5,1.8-6.7,4.1-9.5,6.8
		c-12.5-14.1-34-15.4-48.1-2.9c-3.8,3.4-6.8,7.5-8.8,12.2c2.8-11.4-4.1-23-15.6-25.9c-11.4-2.8-23,4.1-25.9,15.6
		c-0.8,3.1-0.8,6.4-0.2,9.6c-7.9-4.6-17.4-5.6-26.2-2.9c0.1-1.4,0.2-2.9,0.2-4.4c0-25-20.2-45.3-45.3-45.3c-23,0-42.3,17.1-45,39.9
		c-1-1-2-1.9-3.2-2.7c-2.9-24-23.2-42-47.4-42c-1.8,0-3.7,0.1-5.5,0.3c-0.1-13-7-25-18.2-31.6c-7.1-19-28.2-28.6-47.2-21.6
		c-9.2,3.4-16.6,10.3-20.6,19.2c-3.4-1.8-7.2-2.8-11-2.8c-0.6,0-1.1,0-1.6,0.1c-1.8-17-16.1-29.8-33.2-29.8c-0.4,0-0.7,0-1.1,0.1
		c-10.8-19.1-35.1-25.9-54.2-15.1c-6,3.4-11,8.3-14.6,14.2c-3.8-2.6-8.2-4-12.8-4c-0.2,0-0.4,0-0.6,0v328.3h1920v-385.6
		C3302.8,1750.2,3287,1774.3,3285.9,1801.2z M1834.1,1931.4h-0.7c0.5-0.8,1-1.6,1.4-2.5C1834.4,1929.7,1834.2,1930.5,1834.1,1931.4
		L1834.1,1931.4z"/>
</g>
</svg>
