<svg xmlns="http://www.w3.org/2000/svg" width="1919" height="467.819" viewBox="0 0 1919 467.819">
  <g id="Group_4139" data-name="Group 4139" transform="translate(1919 2494.235) rotate(180)">
    <path id="Path_14168" data-name="Path 14168" d="M1919,2274.7v219.54H0V2274.7C649.807,1943.657,1269.193,1943.657,1919,2274.7Z" transform="translate(0 0)" fill="#fff"/>
    <g id="Group_4078" data-name="Group 4078" transform="translate(43.405 2101.534)">
      <path id="Path_14169" data-name="Path 14169" d="M810.837,2323.018c-45.006,12.112-81.276,40.525-81.278,61.646,0,21.169,36.271,27.042,81.278,14.928,45-12.16,81.674-37.7,81.67-58.874C892.512,2319.6,855.837,2310.86,810.837,2323.018Z" transform="translate(-549.71 -2200.862)" fill="#afcded"/>
      <path id="Path_14170" data-name="Path 14170" d="M1451.548,2279.954c-13.332,2.7-24.128,10.059-24.128,16.271s10.8,8.937,24.128,6.233,24.154-9.817,24.154-16.034S1464.88,2277.245,1451.548,2279.954Z" transform="translate(-1034.017 -2187.712)" fill="#afcded"/>
      <path id="Path_14171" data-name="Path 14171" d="M1894.4,2141.742c-40.324,5.335-72.925,25.936-72.926,44.6,0,18.7,32.6,28.379,72.926,23.045,40.321-5.372,73.081-23.737,73.079-42.433C1967.483,2148.29,1934.722,2136.371,1894.4,2141.742Z" transform="translate(-1307.487 -2140.448)" fill="#afcded"/>
      <path id="Path_14172" data-name="Path 14172" d="M2382.345,2247.29c-46.29,3.172-83.749,24.548-83.748,45.892,0,21.393,37.459,34.662,83.748,31.491,46.288-3.218,83.855-21.668,83.853-43.06C2466.2,2260.27,2428.633,2244.074,2382.345,2247.29Z" transform="translate(-1638.604 -2176.769)" fill="#afcded"/>
      <path id="Path_14173" data-name="Path 14173" d="M3963.629,2187.422c0-13.536-23.7-27.739-52.978-30.981-29.278-3.262-53.047,5.669-53.045,19.2,0,13.553,23.767,26.581,53.045,29.843C3939.931,2208.73,3963.628,2200.974,3963.629,2187.422Z" transform="translate(-2720.537 -2145.676)" fill="#afcded"/>
      <path id="Path_14174" data-name="Path 14174" d="M5086.891,2308.3c-41.633-11.186-75.55-3.158-75.547,16.383,0,19.578,33.914,43.262,75.547,54.447,41.639,11.143,75.21,5.57,75.212-14.012C5162.1,2345.581,5128.53,2319.446,5086.891,2308.3Z" transform="translate(-3521.219 -2195.991)" fill="#afcded"/>
      <path id="Path_14175" data-name="Path 14175" d="M5926.629,2381.786c-19.561-7.253-35.471-5.278-35.47,4.057s15.909,22.51,35.47,29.763,35.365,5.828,35.365-3.517S5946.191,2389.03,5926.629,2381.786Z" transform="translate(-4131.8 -2221.305)" fill="#afcded"/>
      <path id="Path_14176" data-name="Path 14176" d="M4527.208,2300.375c-19.216-3.53-34.819,1.115-34.818,10.049s15.6,18.795,34.818,22.324,34.771-.609,34.771-9.552S4546.426,2303.9,4527.208,2300.375Z" transform="translate(-3161.07 -2194.619)" fill="#afcded"/>
      <path id="Path_14177" data-name="Path 14177" d="M186.266,2394.612c-24.584,9-44.426,26.245-44.426,37.966s19.843,13.5,44.426,4.5c24.579-9.013,44.589-25.376,44.587-37.112C230.855,2388.249,210.846,2385.6,186.266,2394.612Z" transform="translate(-141.84 -2225.346)" fill="#afcded"/>
      <path id="Path_14178" data-name="Path 14178" d="M3995.142,2349.54c-32.751-4.054-59.345,5.7-59.344,20.848,0,15.173,26.594,30,59.344,34.058,32.752,4.031,59.25-4.249,59.25-19.422C4054.392,2369.875,4027.894,2353.57,3995.142,2349.54Z" transform="translate(-2774.802 -2211.488)" fill="#afcded"/>
    </g>
    <g id="Group_4079" data-name="Group 4079" transform="translate(50.315 2117.233)">
      <path id="Path_14179" data-name="Path 14179" d="M787.321,2416.474c-11.47,0-20.967-1.8-27.466-5.2-6.6-3.453-8.346-7.64-8.346-9.372,0-3.923,4.542-14.826,21.728-27.993,15.322-11.739,35.518-21.367,56.869-27.114a149.837,149.837,0,0,1,38.29-5.485c12.469,0,22.968,2.064,30.362,5.967,7.578,4,9.579,8.734,9.578,10.679,0,3.8-4.567,14.229-21.861,26.565-15.044,10.731-35.333,19.885-57.13,25.775-15.007,4.04-29.539,6.175-42.022,6.175Z" transform="translate(-571.853 -2224.694)" fill="#fff"/>
      <path id="Path_14180" data-name="Path 14180" d="M1465.167,2314.158a23.09,23.09,0,0,1-9.287-1.566c3.284-3.007,9.905-6.919,19.363-8.837a46.426,46.426,0,0,1,9.188-.976,23.037,23.037,0,0,1,9.63,1.71c-3.256,2.936-9.807,6.707-19.393,8.653a48.035,48.035,0,0,1-9.5,1.014Z" transform="translate(-1060.679 -2211.544)" fill="#fff"/>
      <path id="Path_14181" data-name="Path 14181" d="M1891.928,2221.5c-14.5,0-27.405-2.269-36.342-6.386-9.925-4.574-12.159-9.99-12.159-11.527,0-2.372,3.514-11.317,19.126-20.963,13.707-8.469,31.793-14.527,50.927-17.057a143.386,143.386,0,0,1,18.87-1.282c14.9,0,28.4,2.569,38,7.235,10.763,5.23,12.963,11.328,12.962,12.676,0,2.3-3.517,10.871-19.147,19.85-13.457,7.73-31.59,13.416-51.061,16.011a162.338,162.338,0,0,1-21.17,1.443Z" transform="translate(-1329.631 -2164.28)" fill="#fff"/>
      <path id="Path_14182" data-name="Path 14182" d="M2387.784,2335.8c-19.379,0-36.954-3.059-49.488-8.614-14.561-6.455-17.75-14.284-17.75-16.757,0-3.073,3.992-13.264,22.219-23.381,15.792-8.764,36.592-14.419,58.567-15.925,3.866-.27,7.759-.405,11.57-.405,19.477,0,37.487,3.511,50.713,9.887,15.105,7.283,18.413,15.647,18.412,18.255,0,1.792-1.3,5.344-4.952,9.468-3.922,4.424-9.889,8.736-17.257,12.468-15.438,7.82-36.278,12.985-58.683,14.542-4.485.307-8.977.463-13.35.463Z" transform="translate(-1660.747 -2200.601)" fill="#fff"/>
      <path id="Path_14183" data-name="Path 14183" d="M3942.7,2216.878a116.891,116.891,0,0,1-12.82-.726c-13.322-1.484-25.937-5.077-35.521-10.116-11.5-6.051-14.063-11.681-14.54-13.084.462-1.14,2.6-5.132,10.769-8.621,7.144-3.053,16.813-4.734,27.226-4.734a106.484,106.484,0,0,1,11.751.665c13.2,1.462,25.819,5.25,35.533,10.668,11.476,6.4,13.995,12.2,14.461,13.641-.465,1.1-2.574,4.852-10.437,8.031-6.923,2.8-16.059,4.276-26.418,4.276Z" transform="translate(-2742.865 -2169.507)" fill="#fff"/>
      <path id="Path_14184" data-name="Path 14184" d="M5144.733,2395.463c-11.486,0-24.826-1.947-38.575-5.626-20.132-5.409-38.884-13.859-52.8-23.792-16.459-11.748-20.062-21.391-20.062-24.116,0-1.253,1.6-5.658,8.688-9.4,6.821-3.6,16.519-5.5,28.045-5.5a139.185,139.185,0,0,1,35.375,5.042c19.752,5.288,38.424,14.143,52.577,24.936,16.369,12.482,19.954,22.53,19.955,25.349,0,2.6-5.912,13.1-33.194,13.1Z" transform="translate(-3543.362 -2219.822)" fill="#fff"/>
      <path id="Path_14185" data-name="Path 14185" d="M5968.882,2430.861c-6.021,0-13.657-1.6-21.5-4.5a87.556,87.556,0,0,1-23.084-12.614c-5.439-4.272-8.122-7.864-9.251-9.928,1.407-1.145,4.55-2.594,10.442-2.594,6.055,0,13.267,1.487,20.854,4.3a83.583,83.583,0,0,1,23.05,12.864c5.4,4.372,8.057,8.035,9.179,10.143-1.221.969-3.959,2.333-9.688,2.333Z" transform="translate(-4155.288 -2245.137)" fill="#fff"/>
      <path id="Path_14186" data-name="Path 14186" d="M4560.755,2344.657a75.415,75.415,0,0,1-35.164-9.1c-5.394-3.127-7.882-5.9-8.983-7.528,2.206-2.145,8.064-5.007,18.61-5.007a71.474,71.474,0,0,1,34.524,9.256c5.074,3.046,7.732,5.925,8.942,7.723-2.009,1.886-7.261,4.658-17.929,4.658Z" transform="translate(-3184.788 -2218.451)" fill="#fff"/>
      <path id="Path_14187" data-name="Path 14187" d="M178,2453.436c-8.688,0-12.438-2.566-13.577-4.074.8-2.313,3.863-7.661,12-14.376a103.78,103.78,0,0,1,29.681-16.636c9.441-3.461,18.45-5.29,26.056-5.29,9.546,0,13.585,2.9,14.765,4.558-.812,2.259-3.91,7.48-12.117,13.992a109.794,109.794,0,0,1-29.731,16.22c-10.021,3.667-19.385,5.606-27.077,5.606Z" transform="translate(-164.423 -2249.178)" fill="#fff"/>
      <path id="Path_14188" data-name="Path 14188" d="M4030.125,2416.117a130.856,130.856,0,0,1-15.893-1c-15.248-1.887-29.6-6.194-40.408-12.127-12.275-6.736-15.734-13.351-16.039-15.319.318-1.475,2.968-6.059,11.515-9.847,7.812-3.462,18.514-5.369,30.136-5.369a117.814,117.814,0,0,1,14.445.911c15.086,1.855,29.439,6.415,40.416,12.838,12.212,7.145,15.634,13.967,15.937,16.006-.2.7-1.823,5.246-11.072,9.116-7.5,3.137-17.538,4.8-29.035,4.8Z" transform="translate(-2796.971 -2235.32)" fill="#fff"/>
    </g>
    <g id="Group_4138" data-name="Group 4138" transform="translate(32.799 2047.689)">
      <g id="Group_4080" data-name="Group 4080" transform="translate(514.768 105.846)">
        <path id="Path_14189" data-name="Path 14189" d="M1790.283,2236.84c-.3,0-.588-.309-.765-.88a3.589,3.589,0,0,1,.255-2.74c1.667-2.392,2.73-5.641,3.857-9.08.436-1.333.887-2.71,1.371-4.011.317-.852.895-.99,1.29-.309a3.711,3.711,0,0,1,.144,2.778c-.449,1.207-.865,2.476-1.3,3.819-1.174,3.584-2.387,7.29-4.339,10.091A.649.649,0,0,1,1790.283,2236.84Z" transform="translate(-1789.364 -2219.387)" fill="#afcded"/>
      </g>
      <g id="Group_4081" data-name="Group 4081" transform="translate(523.548 114.845)">
        <path id="Path_14190" data-name="Path 14190" d="M1818.975,2248.7a.519.519,0,0,1-.341-.142,3.083,3.083,0,0,1-.512-2.568,42.1,42.1,0,0,1,1.5-5.551,25.633,25.633,0,0,0,1.384-5.8c.1-1.071.583-1.764,1.08-1.551s.82,1.256.72,2.326a31.69,31.69,0,0,1-1.677,7.285,36.628,36.628,0,0,0-1.3,4.762C1819.684,2248.233,1819.339,2248.7,1818.975,2248.7Z" transform="translate(-1818.057 -2233.049)" fill="#afcded"/>
      </g>
      <g id="Group_4082" data-name="Group 4082" transform="translate(676.993 81.544)">
        <path id="Path_14191" data-name="Path 14191" d="M2325.845,2194.549a.519.519,0,0,1-.341-.142c-1.673-1.44-3.036-3.832-4.353-6.145-.447-.785-.869-1.526-1.293-2.209a3.676,3.676,0,0,1-.184-2.767c.3-.874.88-1.05,1.285-.395.453.731.91,1.533,1.351,2.309,1.21,2.124,2.461,4.321,3.874,5.538a3.082,3.082,0,0,1,.511,2.568C2326.554,2194.079,2326.209,2194.549,2325.845,2194.549Z" transform="translate(-2319.492 -2182.496)" fill="#afcded"/>
      </g>
      <g id="Group_4083" data-name="Group 4083" transform="translate(579.822 103.122)">
        <path id="Path_14192" data-name="Path 14192" d="M2013.03,2246.865a62.854,62.854,0,0,1-10.23-.838c-.505-.084-.884-1.034-.845-2.123s.479-1.907.986-1.818a61.939,61.939,0,0,0,10.089.827c19.951,0,40.518-9.506,59.476-27.491.464-.441,1.006.013,1.21,1.011a3.184,3.184,0,0,1-.47,2.6C2054.057,2237.243,2033.234,2246.865,2013.03,2246.865Z" transform="translate(-2001.952 -2215.253)" fill="#afcded"/>
      </g>
      <g id="Group_4084" data-name="Group 4084" transform="translate(655.693 89.71)">
        <path id="Path_14193" data-name="Path 14193" d="M2250.805,2204.369c-.279,0-.555-.273-.735-.792a3.672,3.672,0,0,1,.183-2.766,34.858,34.858,0,0,1,4.539-5.711c.454-.486,1-.091,1.232.885a3.319,3.319,0,0,1-.411,2.651,32.535,32.535,0,0,0-4.258,5.336A.692.692,0,0,1,2250.805,2204.369Z" transform="translate(-2249.886 -2194.893)" fill="#afcded"/>
      </g>
      <g id="Group_4085" data-name="Group 4085" transform="translate(706.273 186.758)">
        <path id="Path_14194" data-name="Path 14194" d="M2454.83,2371.156a96.314,96.314,0,0,1-38.92-8.459c-.5-.219-.817-1.263-.715-2.332s.586-1.759,1.083-1.541a95.4,95.4,0,0,0,38.552,8.38c22.606,0,44.239-8.364,64.3-24.859.474-.39,1,.122,1.185,1.141a3.036,3.036,0,0,1-.53,2.551C2499.513,2362.705,2477.66,2371.156,2454.83,2371.156Z" transform="translate(-2415.176 -2342.215)" fill="#afcded"/>
      </g>
      <g id="Group_4086" data-name="Group 4086" transform="translate(820.995 170.978)">
        <path id="Path_14195" data-name="Path 14195" d="M2790.988,2329.315c-.384,0-.743-.523-.871-1.352a2.9,2.9,0,0,1,.58-2.5,20.087,20.087,0,0,0,3.652-4c.781-1.011,1.588-2.057,2.459-2.994.454-.487,1-.091,1.232.884a3.322,3.322,0,0,1-.411,2.652c-.806.867-1.583,1.872-2.333,2.844a21.739,21.739,0,0,1-4.018,4.364A.5.5,0,0,1,2790.988,2329.315Z" transform="translate(-2790.07 -2318.261)" fill="#afcded"/>
      </g>
      <g id="Group_4087" data-name="Group 4087" transform="translate(658.258 186.758)">
        <path id="Path_14196" data-name="Path 14196" d="M2259.188,2365.894c-.412,0-.786-.6-.89-1.5-.123-1.059.176-2.133.668-2.4,3.636-1.956,5.359-9.491,7.025-16.778.147-.645.293-1.285.44-1.914.227-.975.778-1.371,1.232-.884a3.32,3.32,0,0,1,.41,2.652c-.144.622-.289,1.254-.435,1.892-1.765,7.718-3.765,16.466-8.227,18.866A.462.462,0,0,1,2259.188,2365.894Z" transform="translate(-2258.27 -2342.216)" fill="#afcded"/>
      </g>
      <g id="Group_4088" data-name="Group 4088" transform="translate(670.72 201.749)">
        <path id="Path_14197" data-name="Path 14197" d="M2299.912,2378.393a.69.69,0,0,1-.55-.395,3.677,3.677,0,0,1-.184-2.767l3.3-9.467c.3-.874.879-1.05,1.285-.4a3.679,3.679,0,0,1,.184,2.768l-3.3,9.468C2300.466,2378.121,2300.191,2378.393,2299.912,2378.393Z" transform="translate(-2298.994 -2364.973)" fill="#afcded"/>
      </g>
      <g id="Group_4089" data-name="Group 4089" transform="translate(680.25 211.218)">
        <path id="Path_14198" data-name="Path 14198" d="M2331.053,2391.189a.491.491,0,0,1-.291-.1,2.9,2.9,0,0,1-.58-2.5,28.276,28.276,0,0,1,.86-3.555,25.615,25.615,0,0,0,.953-4.19c.123-1.058.622-1.7,1.113-1.437s.791,1.337.668,2.4a31.343,31.343,0,0,1-1.175,5.318,23.464,23.464,0,0,0-.677,2.719C2331.8,2390.665,2331.438,2391.189,2331.053,2391.189Z" transform="translate(-2330.135 -2379.346)" fill="#afcded"/>
      </g>
      <g id="Group_4090" data-name="Group 4090" transform="translate(454.606 80.002)">
        <path id="Path_14199" data-name="Path 14199" d="M1611.118,2199.978a20.31,20.31,0,0,1-6.621-1.206,4.639,4.639,0,0,1-3.056,1.169,11.013,11.013,0,0,1-6.232-1.478,6.139,6.139,0,0,1-2.443-5.269c0-6.58,7.7-13.038,15.539-13.038,4.489,0,8.227.927,10.81,2.679a8.752,8.752,0,0,1,4.008,7.518C1623.121,2196.2,1618.41,2199.978,1611.118,2199.978Zm-6.728-5.222a.445.445,0,0,1,.151.026,19.579,19.579,0,0,0,6.577,1.243c7.1,0,10.168-3.756,10.168-5.672,0-.657-.569-2.286-2.724-3.747-1.678-1.139-4.819-2.5-10.257-2.5-7.772,0-13.7,6.45-13.7,9.085,0,.555,1.217,2.8,6.839,2.8a3.7,3.7,0,0,0,2.588-1.073A.532.532,0,0,1,1604.389,2194.756Z" transform="translate(-1592.765 -2180.156)" fill="#afcded"/>
      </g>
      <g id="Group_4091" data-name="Group 4091" transform="translate(200.254 228.385)">
        <path id="Path_14200" data-name="Path 14200" d="M800.049,2443.939a148.061,148.061,0,0,1-37.659-4.864c-.5-.133-.861-1.119-.8-2.2s.519-1.854,1.023-1.722a147.19,147.19,0,0,0,37.437,4.835c34.2,0,69.372-11.606,104.542-34.5.485-.313,1,.275,1.144,1.32a2.8,2.8,0,0,1-.613,2.464C869.78,2432.277,834.428,2443.939,800.049,2443.939Z" transform="translate(-761.583 -2405.407)" fill="#afcded"/>
      </g>
      <g id="Group_4092" data-name="Group 4092" transform="translate(350.047 211.233)">
        <path id="Path_14201" data-name="Path 14201" d="M1252,2390.183c-.507,0-.918-.884-.918-1.976s.411-1.976.918-1.976c1.185,0,1.991-2.144,2.769-4.215.281-.748.546-1.453.831-2.066.359-.772.94-.772,1.3,0a3.764,3.764,0,0,1,0,2.795c-.217.466-.452,1.094-.7,1.757C1255.295,2386.9,1254.06,2390.183,1252,2390.183Z" transform="translate(-1251.081 -2379.37)" fill="#afcded"/>
      </g>
      <g id="Group_4093" data-name="Group 4093" transform="translate(181.132 252.399)">
        <path id="Path_14202" data-name="Path 14202" d="M700.012,2467.538c-.444,0-.824-.684-.9-1.624a2.8,2.8,0,0,1,.581-2.2,6.026,6.026,0,0,0,.758-.737,1.13,1.13,0,0,1,.358-.447c2.658-3.576,3.62-10.959,4.479-17.562q.111-.849.219-1.671c.139-1.05.647-1.654,1.135-1.357a2.753,2.753,0,0,1,.63,2.444q-.108.812-.217,1.652c-.9,6.931-2,15.34-5.181,19.729C701.624,2466.942,701,2467.538,700.012,2467.538Z" transform="translate(-699.094 -2441.86)" fill="#afcded"/>
      </g>
      <g id="Group_4094" data-name="Group 4094" transform="translate(0 271.836)">
        <path id="Path_14203" data-name="Path 14203" d="M108.1,2491.33c-.384,0-.742-.524-.871-1.352a2.9,2.9,0,0,1,.581-2.5c3.065-2.2,4.153-8.989,4.153-14.134,0-1.092.411-1.977.918-1.977s.918.885.918,1.977c0,8.506-2.123,15.526-5.408,17.884A.5.5,0,0,1,108.1,2491.33Z" transform="translate(-107.182 -2471.368)" fill="#afcded"/>
      </g>
      <g id="Group_4095" data-name="Group 4095" transform="translate(9.03 275.267)">
        <path id="Path_14204" data-name="Path 14204" d="M137.61,2491.963c-.235,0-.47-.193-.649-.579a3.766,3.766,0,0,1,0-2.794,22.307,22.307,0,0,0,2.387-10.038c0-1.092.411-1.976.918-1.976s.918.885.918,1.976a28.808,28.808,0,0,1-2.925,12.832C138.08,2491.77,137.845,2491.963,137.61,2491.963Z" transform="translate(-136.692 -2476.576)" fill="#afcded"/>
      </g>
      <g id="Group_4096" data-name="Group 4096" transform="translate(106.767 227.242)">
        <path id="Path_14205" data-name="Path 14205" d="M460.554,2417.131c-.235,0-.47-.194-.649-.58a71.1,71.1,0,0,1-3.671-9.807,3.591,3.591,0,0,1,.255-2.74c.422-.605.992-.36,1.273.548a66.8,66.8,0,0,0,3.442,9.2,3.767,3.767,0,0,1,0,2.8C461.024,2416.937,460.789,2417.131,460.554,2417.131Z" transform="translate(-456.08 -2403.672)" fill="#afcded"/>
      </g>
      <g id="Group_4097" data-name="Group 4097" transform="translate(38.776 258.115)">
        <path id="Path_14206" data-name="Path 14206" d="M234.813,2465.925c-.462,0-.859-.748-.911-1.758-.056-1.084.307-2.062.811-2.182a63.415,63.415,0,0,1,7.554-1.164c7.439-.844,15.13-1.715,21.276-9.983.43-.578,1-.3,1.265.629a3.539,3.539,0,0,1-.292,2.724c-6.548,8.809-14.481,9.708-22.153,10.578a61.862,61.862,0,0,0-7.447,1.145A.415.415,0,0,1,234.813,2465.925Z" transform="translate(-233.896 -2450.538)" fill="#afcded"/>
      </g>
      <g id="Group_4098" data-name="Group 4098" transform="translate(77.552 244.394)">
        <path id="Path_14207" data-name="Path 14207" d="M361.528,2440.522c-.429,0-.812-.65-.9-1.59-.1-1.069.223-2.111.72-2.325,1.163-.5,2.126-1.8,3.146-3.168,1.115-1.5,2.267-3.049,3.759-3.691.5-.214.981.48,1.08,1.55s-.223,2.111-.72,2.325c-1.163.5-2.126,1.8-3.146,3.168-1.115,1.5-2.267,3.051-3.759,3.693A.459.459,0,0,1,361.528,2440.522Z" transform="translate(-360.61 -2429.709)" fill="#afcded"/>
      </g>
      <g id="Group_4099" data-name="Group 4099" transform="translate(166.259 247.824)">
        <path id="Path_14208" data-name="Path 14208" d="M652.209,2465.226a6.141,6.141,0,0,1-.861-.062c-.506-.071-.889-1.013-.856-2.1s.47-1.916.977-1.842a5.333,5.333,0,0,0,.739.054c5.639,0,8.99-9.848,12.231-19.372.711-2.09,1.446-4.251,2.187-6.244.317-.851.894-.991,1.29-.308a3.708,3.708,0,0,1,.144,2.777c-.717,1.929-1.408,3.96-2.14,6.111C662.573,2454.075,658.778,2465.226,652.209,2465.226Z" transform="translate(-650.49 -2434.916)" fill="#afcded"/>
      </g>
      <g id="Group_4100" data-name="Group 4100" transform="translate(364.388 210.091)">
        <path id="Path_14209" data-name="Path 14209" d="M1304.708,2389.592a.566.566,0,0,1-.41-.209c-.459-.494-.932-.947-1.39-1.384a15.981,15.981,0,0,1-4.776-7.2,3.675,3.675,0,0,1,.184-2.767c.405-.654.981-.478,1.285.4a13.224,13.224,0,0,0,4.052,5.961c.477.455.97.926,1.467,1.461a3.319,3.319,0,0,1,.41,2.651C1305.369,2389.191,1305.045,2389.592,1304.708,2389.592Z" transform="translate(-1297.948 -2377.635)" fill="#afcded"/>
      </g>
      <g id="Group_4101" data-name="Group 4101" transform="translate(399.977 172.785)">
        <path id="Path_14210" data-name="Path 14210" d="M1415.166,2333.675c-.3,0-.588-.309-.765-.879a3.593,3.593,0,0,1,.255-2.741,29.877,29.877,0,0,0,3.728-8.171c.281-.909.852-1.152,1.273-.548a3.59,3.59,0,0,1,.255,2.74,33.846,33.846,0,0,1-4.238,9.268A.649.649,0,0,1,1415.166,2333.675Z" transform="translate(-1414.247 -2321.003)" fill="#afcded"/>
      </g>
      <g id="Group_4102" data-name="Group 4102" transform="translate(1131.243 85.499)">
        <path id="Path_14211" data-name="Path 14211" d="M3805.5,2207.555a4.156,4.156,0,0,1-.749-.067c-.505-.09-.881-1.046-.839-2.134s.488-1.911.992-1.8a3.347,3.347,0,0,0,.6.053c3.513,0,7.043-5.8,8.394-13.8.173-1.028.7-1.555,1.177-1.183a2.985,2.985,0,0,1,.549,2.533C3813.991,2200.81,3809.83,2207.555,3805.5,2207.555Z" transform="translate(-3803.912 -2188.5)" fill="#afcded"/>
      </g>
      <g id="Group_4103" data-name="Group 4103" transform="translate(1144.85 98.166)">
        <path id="Path_14212" data-name="Path 14212" d="M3849.3,2218.015c-.3,0-.588-.309-.765-.879a3.594,3.594,0,0,1,.254-2.741,22.277,22.277,0,0,0,2.688-5.785c.281-.909.851-1.154,1.273-.549a3.592,3.592,0,0,1,.255,2.741,26.479,26.479,0,0,1-3.2,6.881A.647.647,0,0,1,3849.3,2218.015Z" transform="translate(-3848.379 -2207.729)" fill="#afcded"/>
      </g>
      <g id="Group_4104" data-name="Group 4104" transform="translate(1170.593 106.874)">
        <path id="Path_14213" data-name="Path 14213" d="M3958.039,2231.707a119.407,119.407,0,0,1-24.708-2.856c-.5-.106-.874-1.073-.824-2.16s.5-1.886,1-1.773a118.6,118.6,0,0,0,24.529,2.837A71.906,71.906,0,0,0,3989.49,2221c.5-.236.985.439,1.094,1.505s-.2,2.121-.7,2.355A72.8,72.8,0,0,1,3958.039,2231.707Z" transform="translate(-3932.502 -2220.948)" fill="#afcded"/>
      </g>
      <g id="Group_4105" data-name="Group 4105" transform="translate(1238.996 104.5)">
        <path id="Path_14214" data-name="Path 14214" d="M4158.666,2224.528c-.32,0-.635-.017-.939-.035-.269-.015-.528-.031-.774-.031-.507,0-.918-.883-.918-1.976s.411-1.976.918-1.976c.262,0,.537.016.822.031s.588.034.891.034a3.257,3.257,0,0,0,3.454-2.49c.317-.851.895-.99,1.291-.309a3.71,3.71,0,0,1,.144,2.778C4162.244,2224.076,4160.254,2224.528,4158.666,2224.528Z" transform="translate(-4156.034 -2217.344)" fill="#afcded"/>
      </g>
      <g id="Group_4106" data-name="Group 4106" transform="translate(1255.913 107.666)">
        <path id="Path_14215" data-name="Path 14215" d="M4214.439,2237.187c-.235,0-.47-.193-.649-.579-1.667-3.589-2.069-7.913-2.458-12.093-.1-1.071.223-2.112.72-2.326s.981.48,1.081,1.551c.35,3.768.681,7.33,1.956,10.073a3.765,3.765,0,0,1,0,2.794C4214.91,2236.994,4214.675,2237.187,4214.439,2237.187Z" transform="translate(-4211.315 -2222.15)" fill="#afcded"/>
      </g>
      <g id="Group_4107" data-name="Group 4107" transform="translate(1212.518 242.249)">
        <path id="Path_14216" data-name="Path 14216" d="M4101.821,2436.1c-7.123,0-14.4-1.271-21.437-2.5-3.3-.577-6.713-1.173-10.017-1.617-.506-.068-.891-1.006-.859-2.1s.47-1.922.973-1.85c3.321.447,6.742,1.044,10.051,1.622,7,1.223,14.24,2.486,21.289,2.486,8.372,0,15.462-1.839,21.678-5.62.487-.3,1,.313,1.133,1.365a2.743,2.743,0,0,1-.633,2.439C4117.618,2434.213,4110.363,2436.1,4101.821,2436.1Z" transform="translate(-4069.506 -2426.452)" fill="#afcded"/>
      </g>
      <g id="Group_4108" data-name="Group 4108" transform="translate(1275.772 237.499)">
        <path id="Path_14217" data-name="Path 14217" d="M4277.13,2427.944c-.507,0-.918-.884-.918-1.976s.411-1.976.918-1.976c2.056,0,4.169-2.388,5.78-4.468.435-.562,1-.259,1.259.678a3.5,3.5,0,0,1-.314,2.712C4282.04,2425.255,4279.637,2427.944,4277.13,2427.944Z" transform="translate(-4276.212 -2419.241)" fill="#afcded"/>
      </g>
      <g id="Group_4109" data-name="Group 4109" transform="translate(1291.954 235.916)">
        <path id="Path_14218" data-name="Path 14218" d="M4335.156,2437.416a.674.674,0,0,1-.533-.367,32.991,32.991,0,0,1-5.533-18.234c0-1.092.411-1.976.918-1.976s.918.884.918,1.976a26.983,26.983,0,0,0,4.765,15.017,3.646,3.646,0,0,1,.213,2.758C4335.725,2437.128,4335.442,2437.416,4335.156,2437.416Z" transform="translate(-4329.09 -2416.839)" fill="#afcded"/>
      </g>
      <g id="Group_4110" data-name="Group 4110" transform="translate(1287.834 247.79)">
        <path id="Path_14219" data-name="Path 14219" d="M4317.723,2446.734c-.384,0-.743-.523-.871-1.352-.088-.564-.249-1.209-.419-1.892a21.293,21.293,0,0,1-.806-5.365,15.327,15.327,0,0,1,.1-1.762c.123-1.06.622-1.7,1.113-1.438s.791,1.337.668,2.4a6.931,6.931,0,0,0-.047.8,14.623,14.623,0,0,0,.587,3.5c.2.8.406,1.626.543,2.514a2.894,2.894,0,0,1-.581,2.5A.492.492,0,0,1,4317.723,2446.734Z" transform="translate(-4315.628 -2434.864)" fill="#afcded"/>
      </g>
      <g id="Group_4111" data-name="Group 4111" transform="translate(1161.4 219.839)">
        <path id="Path_14220" data-name="Path 14220" d="M3903.377,2403.754c-.507,0-.918-.884-.918-1.976s.411-1.977.918-1.977c1.834,0,3.006-2.637,4.248-5.429.206-.464.41-.921.614-1.36.359-.772.94-.772,1.3,0a3.763,3.763,0,0,1,0,2.794c-.194.419-.389.855-.585,1.3C3907.634,2400.068,3905.995,2403.754,3903.377,2403.754Z" transform="translate(-3902.459 -2392.434)" fill="#afcded"/>
      </g>
      <g id="Group_4112" data-name="Group 4112" transform="translate(1333.878 170.207)">
        <path id="Path_14221" data-name="Path 14221" d="M4467.952,2325.992a2.81,2.81,0,0,1-1.121-.237c-.5-.213-.82-1.254-.72-2.324s.585-1.763,1.08-1.551a1.921,1.921,0,0,0,.761.16c1.06,0,2.479-.971,2.987-3.705.188-1.014.723-1.507,1.193-1.1a3.082,3.082,0,0,1,.511,2.568C4471.945,2323.562,4470.1,2325.992,4467.952,2325.992Z" transform="translate(-4466.092 -2317.091)" fill="#afcded"/>
      </g>
      <g id="Group_4113" data-name="Group 4113" transform="translate(1363.666 189.208)">
        <path id="Path_14222" data-name="Path 14222" d="M4581.093,2352.421a51.283,51.283,0,0,1-10.2-1.38c-2.146-.438-4.365-.892-6.587-1.158-.506-.061-.894-.993-.866-2.082s.465-1.928.968-1.864c2.258.27,4.5.727,6.659,1.169a49.852,49.852,0,0,0,10.028,1.362,22.9,22.9,0,0,0,2.7-.156c.509-.066.939.773.968,1.863s-.359,2.023-.866,2.083A23.565,23.565,0,0,1,4581.093,2352.421Z" transform="translate(-4563.437 -2345.934)" fill="#afcded"/>
      </g>
      <g id="Group_4114" data-name="Group 4114" transform="translate(1390.88 191.582)">
        <path id="Path_14223" data-name="Path 14223" d="M4653.285,2354.283c-.411,0-.786-.6-.89-1.5-.123-1.059.176-2.131.667-2.4a2.583,2.583,0,0,1,1.271-.3,7.63,7.63,0,0,1,1.04.095,7.045,7.045,0,0,0,.949.088,1.675,1.675,0,0,0,1.333-.528c.453-.49,1.005-.094,1.232.882a3.319,3.319,0,0,1-.41,2.652,2.762,2.762,0,0,1-2.154.946,7.848,7.848,0,0,1-1.066-.1,7,7,0,0,0-.923-.087,1.68,1.68,0,0,0-.825.179A.475.475,0,0,1,4653.285,2354.283Z" transform="translate(-4652.368 -2349.538)" fill="#afcded"/>
      </g>
      <g id="Group_4115" data-name="Group 4115" transform="translate(1412.946 186.041)">
        <path id="Path_14224" data-name="Path 14224" d="M4727.967,2356.955c-.235,0-.47-.194-.649-.579-1.35-2.909-2.3-7.244-2.825-12.885-.1-1.07.223-2.111.72-2.324s.98.479,1.08,1.55c.311,3.342.966,7.942,2.323,10.865a3.763,3.763,0,0,1,0,2.8C4728.437,2356.761,4728.2,2356.955,4727.967,2356.955Z" transform="translate(-4724.475 -2341.128)" fill="#afcded"/>
      </g>
      <g id="Group_4116" data-name="Group 4116" transform="translate(1409.636 195.542)">
        <path id="Path_14225" data-name="Path 14225" d="M4714.577,2366.626c-.507,0-.918-.884-.918-1.976v-7.125c0-1.092.411-1.976.918-1.976s.918.885.918,1.976v7.125C4715.5,2365.742,4715.084,2366.626,4714.577,2366.626Z" transform="translate(-4713.659 -2355.549)" fill="#afcded"/>
      </g>
      <g id="Group_4117" data-name="Group 4117" transform="translate(1491.278 187.623)">
        <path id="Path_14226" data-name="Path 14226" d="M4983.285,2354.161a3.157,3.157,0,0,1-2.369-1.4,3.457,3.457,0,0,1-.342-2.7c.251-.947.813-1.275,1.252-.736a1.963,1.963,0,0,0,1.458.877c1.582,0,3.074-3,3.942-5.8.281-.909.851-1.155,1.272-.548a3.59,3.59,0,0,1,.255,2.74C4987.289,2351.336,4985.244,2354.161,4983.285,2354.161Z" transform="translate(-4980.453 -2343.529)" fill="#afcded"/>
      </g>
      <g id="Group_4118" data-name="Group 4118" transform="translate(1498.634 201.082)">
        <path id="Path_14227" data-name="Path 14227" d="M5005.408,2372.663c-.235,0-.47-.193-.649-.579a3.767,3.767,0,0,1,0-2.795,12.324,12.324,0,0,1,1.106-1.853,8.835,8.835,0,0,0,1.354-2.6c.281-.909.851-1.155,1.273-.548a3.591,3.591,0,0,1,.255,2.741,12.31,12.31,0,0,1-1.852,3.676,9.718,9.718,0,0,0-.838,1.375C5005.878,2372.47,5005.643,2372.663,5005.408,2372.663Z" transform="translate(-5004.49 -2363.96)" fill="#afcded"/>
      </g>
      <g id="Group_4119" data-name="Group 4119" transform="translate(1539.455 222.457)">
        <path id="Path_14228" data-name="Path 14228" d="M5214.806,2414.32c-22.4,0-46.6-4.442-76.137-13.982-.5-.162-.847-1.168-.772-2.248s.543-1.822,1.044-1.66c29.449,9.508,53.555,13.938,75.865,13.938,4.246,0,8.483-.169,12.595-.5.5-.034.933.81.952,1.9s-.377,2.008-.884,2.048C5223.335,2414.151,5219.074,2414.32,5214.806,2414.32Z" transform="translate(-5137.887 -2396.408)" fill="#afcded"/>
      </g>
      <g id="Group_4120" data-name="Group 4120" transform="translate(1636.911 231.957)">
        <path id="Path_14229" data-name="Path 14229" d="M5457.276,2417.949c-.507,0-.918-.885-.918-1.977s.411-1.976.918-1.976c.686,0,1.456-.747,2.271-1.536a9.486,9.486,0,0,1,1.92-1.572c.491-.266.99.379,1.113,1.438s-.176,2.132-.668,2.4a8.351,8.351,0,0,0-1.611,1.342C5459.344,2416.991,5458.355,2417.949,5457.276,2417.949Z" transform="translate(-5456.358 -2410.829)" fill="#afcded"/>
      </g>
      <g id="Group_4121" data-name="Group 4121" transform="translate(1647.203 228.792)">
        <path id="Path_14230" data-name="Path 14230" d="M5491.591,2411.686a2.1,2.1,0,0,1-.55-.093,1.049,1.049,0,0,0-.138-.035c-.507,0-.912-.885-.912-1.976s.416-1.977.923-1.977a1.379,1.379,0,0,1,.361.065c.067.019.137.038.2.05.063-.959.446-1.7.909-1.7.507,0,.918.884.918,1.976C5493.3,2410.239,5492.631,2411.686,5491.591,2411.686Z" transform="translate(-5489.991 -2406.024)" fill="#afcded"/>
      </g>
      <g id="Group_4122" data-name="Group 4122" transform="translate(1795.415 245.415)">
        <path id="Path_14231" data-name="Path 14231" d="M5997.97,2443.148c-7.705,0-15.837-.627-23.124-8.129a3.272,3.272,0,0,1-.432-2.635c.219-.984.767-1.4,1.224-.93,6.939,7.145,14.836,7.742,22.331,7.742.7,0,1.388,0,2.078-.01s1.365-.009,2.042-.009c.506,0,.918.884.918,1.976s-.412,1.976-.918,1.976q-1.011,0-2.036.009T5997.97,2443.148Z" transform="translate(-5974.325 -2431.259)" fill="#afcded"/>
      </g>
      <g id="Group_4123" data-name="Group 4123" transform="translate(1842.855 256.498)">
        <path id="Path_14232" data-name="Path 14232" d="M6132.11,2459.955c-.411,0-.786-.6-.89-1.5a17.42,17.42,0,0,0-.792-3.342,23.632,23.632,0,0,1-1.046-4.575c-.123-1.059.176-2.133.668-2.4s.99.379,1.113,1.438a17.42,17.42,0,0,0,.792,3.342A23.538,23.538,0,0,1,6133,2457.5c.123,1.059-.176,2.132-.668,2.4A.478.478,0,0,1,6132.11,2459.955Z" transform="translate(-6129.354 -2448.084)" fill="#afcded"/>
      </g>
      <g id="Group_4124" data-name="Group 4124" transform="translate(1835.868 264.416)">
        <path id="Path_14233" data-name="Path 14233" d="M6107.438,2470.389c-.507,0-.918-.885-.918-1.976v-6.333c0-1.092.412-1.976.918-1.976s.918.884.918,1.976v6.333C6108.356,2469.5,6107.945,2470.389,6107.438,2470.389Z" transform="translate(-6106.52 -2460.104)" fill="#afcded"/>
      </g>
      <g id="Group_4125" data-name="Group 4125" transform="translate(1863.45 231.167)">
        <path id="Path_14234" data-name="Path 14234" d="M6216.7,2419.915a.477.477,0,0,1-.259-.081c-4.847-3.069-9.98-4.216-14.945-5.326-1.326-.3-2.7-.6-4.027-.94-.5-.126-.864-1.109-.8-2.192s.519-1.857,1.019-1.732c1.317.334,2.683.639,4,.934,5.047,1.128,10.265,2.295,15.273,5.466a2.779,2.779,0,0,1,.622,2.454C6217.458,2419.357,6217.092,2419.915,6216.7,2419.915Z" transform="translate(-6196.653 -2409.63)" fill="#afcded"/>
      </g>
      <g id="Group_4126" data-name="Group 4126" transform="translate(1867.495 251.75)">
        <path id="Path_14235" data-name="Path 14235" d="M6218.79,2447.317a.6.6,0,0,1-.455-.262c-1.521-1.872-3.187-1.9-4.948-1.936a9.726,9.726,0,0,1-2.725-.311c-.5-.155-.851-1.156-.779-2.236s.539-1.827,1.039-1.677a8.946,8.946,0,0,0,2.481.272c1.831.034,3.906.073,5.844,2.457a3.459,3.459,0,0,1,.342,2.7C6219.418,2446.958,6219.108,2447.317,6218.79,2447.317Z" transform="translate(-6209.873 -2440.876)" fill="#afcded"/>
      </g>
      <g id="Group_4127" data-name="Group 4127" transform="translate(1641.692 129.04)">
        <path id="Path_14236" data-name="Path 14236" d="M5537.993,2287.052a.462.462,0,0,1-.184-.041l-65.093-28.5c-.5-.218-.818-1.261-.717-2.33s.584-1.761,1.083-1.542l65.093,28.5c.5.218.818,1.261.717,2.33C5538.8,2286.405,5538.42,2287.052,5537.993,2287.052Z" transform="translate(-5471.98 -2254.598)" fill="#afcded"/>
      </g>
      <g id="Group_4128" data-name="Group 4128" transform="translate(1716.715 163.083)">
        <path id="Path_14237" data-name="Path 14237" d="M5721.74,2310.227h-3.677c-.507,0-.918-.884-.918-1.976s.411-1.976.918-1.976h3.677c.507,0,.918.885.918,1.976S5722.247,2310.227,5721.74,2310.227Z" transform="translate(-5717.145 -2306.275)" fill="#afcded"/>
      </g>
      <g id="Group_4129" data-name="Group 4129" transform="translate(1267.681 21.376)">
        <path id="Path_14238" data-name="Path 14238" d="M4321.3,2111.735a.432.432,0,0,1-.1-.012l-70.61-16.625c-.5-.119-.868-1.094-.812-2.18s.511-1.857,1.013-1.749l70.609,16.625c.5.119.868,1.094.813,2.18C4322.161,2110.985,4321.763,2111.735,4321.3,2111.735Z" transform="translate(-4249.772 -2091.159)" fill="#afcded"/>
      </g>
      <g id="Group_4130" data-name="Group 4130" transform="translate(1346.75 38)">
        <path id="Path_14239" data-name="Path 14239" d="M4515.325,2120.347h-6.252c-.507,0-.918-.885-.918-1.976s.411-1.976.918-1.976h6.252c.507,0,.918.884.918,1.976S4515.832,2120.347,4515.325,2120.347Z" transform="translate(-4508.155 -2116.395)" fill="#afcded"/>
      </g>
      <g id="Group_4131" data-name="Group 4131" transform="translate(652.422 0.001)">
        <path id="Path_14240" data-name="Path 14240" d="M2240.114,2072.953c-.484,0-.888-.813-.916-1.865-.029-1.09.359-2.023.865-2.084l84.952-10.292c.5-.054.94.772.968,1.861s-.359,2.023-.865,2.085l-84.952,10.291A.481.481,0,0,1,2240.114,2072.953Z" transform="translate(-2239.197 -2058.71)" fill="#afcded"/>
      </g>
      <g id="Group_4132" data-name="Group 4132" transform="translate(745.832 0)">
        <path id="Path_14241" data-name="Path 14241" d="M2551.251,2062.661h-5.884c-.507,0-.918-.885-.918-1.976s.411-1.976.918-1.976h5.884c.507,0,.918.885.918,1.976S2551.758,2062.661,2551.251,2062.661Z" transform="translate(-2544.449 -2058.709)" fill="#afcded"/>
      </g>
      <g id="Group_4133" data-name="Group 4133" transform="translate(608.198 295.826)">
        <path id="Path_14242" data-name="Path 14242" d="M2130,2555.109c-9.273,0-18-2.284-24.58-6.432-7.023-4.427-10.735-10.385-10.735-17.231s3.712-12.8,10.735-17.231c6.578-4.147,15.308-6.431,24.58-6.431s18,2.284,24.581,6.431c7.022,4.428,10.734,10.386,10.734,17.231s-3.712,12.8-10.734,17.231C2148,2552.825,2139.27,2555.109,2130,2555.109Zm0-43.372c-19.73,0-33.479,10.388-33.479,19.709s13.75,19.71,33.479,19.71,33.479-10.387,33.479-19.71S2149.727,2511.737,2130,2511.737Z" transform="translate(-2094.682 -2507.785)" fill="#afcded"/>
      </g>
      <g id="Group_4134" data-name="Group 4134" transform="translate(106.767 339.167)">
        <path id="Path_14243" data-name="Path 14243" d="M467.356,2603.2c-6.136,0-10.876-2.125-11.252-7.525-.607-8.71,10.8-16.453,21.656-19.962s22.817-3.318,23.425,5.394c.278,3.979-1.869,7.936-6.379,11.761a45.888,45.888,0,0,1-15.278,8.2A40.917,40.917,0,0,1,467.356,2603.2Zm22.323-25.629a38.287,38.287,0,0,0-11.646,2.051c-13.409,4.334-20.32,12.49-20.113,15.467s7.927,6.4,21.336,2.071a44.681,44.681,0,0,0,14.877-7.969c4.46-3.783,5.292-6.695,5.236-7.5C499.231,2579.728,495.827,2577.568,489.678,2577.568Z" transform="translate(-456.08 -2573.579)" fill="#afcded"/>
      </g>
      <g id="Group_4135" data-name="Group 4135" transform="translate(1039.314 61.96)">
        <path id="Path_14244" data-name="Path 14244" d="M3523.77,2187.81c-11.554,0-20.267-7.532-20.267-17.522s8.713-17.521,20.267-17.521,20.266,7.532,20.266,17.521S3535.323,2187.81,3523.77,2187.81Zm0-31.09c-10.862,0-18.431,7.15-18.431,13.568s7.569,13.57,18.431,13.57,18.43-7.152,18.43-13.57S3534.631,2156.72,3523.77,2156.72Z" transform="translate(-3503.503 -2152.767)" fill="#afcded"/>
      </g>
      <g id="Group_4136" data-name="Group 4136" transform="translate(1443.372 270.749)">
        <path id="Path_14245" data-name="Path 14245" d="M4839.557,2498.747c-8.925,0-15.656-6.24-15.656-14.515s6.731-14.515,15.656-14.515,15.656,6.24,15.656,14.515S4848.483,2498.747,4839.557,2498.747Zm0-25.077c-8.144,0-13.82,5.566-13.82,10.562s5.676,10.563,13.82,10.563,13.82-5.566,13.82-10.562S4847.7,2473.67,4839.557,2473.67Z" transform="translate(-4823.901 -2469.717)" fill="#afcded"/>
      </g>
      <g id="Group_4137" data-name="Group 4137" transform="translate(1682.699 306.287)">
        <path id="Path_14246" data-name="Path 14246" d="M5668.2,2565.077c-7.035,0-15.863-1.66-25.105-4.737-10.017-3.335-19.335-7.941-26.241-12.971-11.364-8.276-10.961-13.882-10.829-15.723s.536-7.447,12.53-7.947c7.288-.295,16.819,1.368,26.834,4.7a98.839,98.839,0,0,1,26.241,12.97c11.363,8.276,10.961,13.881,10.828,15.724s-.535,7.447-12.529,7.946Q5669.084,2565.076,5668.2,2565.077Zm-47.911-37.461q-.869,0-1.7.035c-8.574.356-10.667,3.441-10.75,4.6s1.479,5.459,9.6,11.376c6.809,4.957,16.018,9.507,25.934,12.808s19.333,4.96,26.519,4.656c8.573-.356,10.667-3.441,10.75-4.6s-1.48-5.459-9.6-11.375c-6.808-4.958-16.018-9.507-25.933-12.808C5635.957,2529.26,5627.229,2527.616,5620.289,2527.616Z" transform="translate(-5605.986 -2523.665)" fill="#afcded"/>
      </g>
    </g>
  </g>
</svg>
