<svg xmlns="http://www.w3.org/2000/svg" width="285.131" height="440.964" viewBox="0 0 285.131 440.964">
  <g id="Group_666" data-name="Group 666" transform="translate(-320.884 -132.171)">
    <g id="WOMAN_HAND_2" data-name="WOMAN HAND 2" transform="translate(358.643 272.301)">
      <g id="Group_549" data-name="Group 549">
        <path id="Path_1481" data-name="Path 1481" d="M343.688,244.593c-.172-1.9,1.4-3.368,4.241-3.663,14.334-1.465,34.77,3.772,34.77,3.772s2.175,2.793.1,4.866c-2.487,2.482-12.18,5.517-32.109,3.618C344.932,252.639,343.981,247.8,343.688,244.593Z" transform="translate(-343.675 -201.044)" fill="#2975d9"/>
        <g id="Group_548" data-name="Group 548" transform="translate(39.329)">
          <path id="Path_1482" data-name="Path 1482" d="M379.589,225.5s1.569-2.752,3-3.433c1-.475,6.077-1.91,6.077-1.91a6.2,6.2,0,0,1-3.14,2.205A20.973,20.973,0,0,0,379.589,225.5Z" transform="translate(-359.419 -214.519)" fill="#e2c59c"/>
          <path id="Path_1483" data-name="Path 1483" d="M382.213,224.474c.805-1.822,2.835-2.914,5.527-3.633a4.554,4.554,0,0,0,3.191-2.275,31.344,31.344,0,0,0-5.557,1.743c-1.082.416-2.16.89-3.2,1.377C378.742,223.3,380.153,229.162,382.213,224.474Z" transform="translate(-359.083 -215.562)" fill="#e2c59c"/>
          <path id="Path_1484" data-name="Path 1484" d="M379.09,227.075c1.4-.106,3.26-1.972,4.115-1.771a9.415,9.415,0,0,1,3.613,1.6c.113-2.934-4.009-3.534-5.23-4.858S375.49,227.34,379.09,227.075Z" transform="translate(-360.603 -213.389)" fill="#e9d6b8"/>
          <path id="Path_1485" data-name="Path 1485" d="M374.764,242.032c2.083-4.8,4.369-10.348,6.566-12.452,3.12-3,6.047-3.179,7.258-5.938a9.3,9.3,0,0,1,.5-.848c.451-.752.823-1.683,1.055-1.965.255-.328,1.09-1.166.621-.967-4.152,1.761-8.625,4.142-9.291,5.01-1.367,1.774-8.5,11.94-10.366,16.261C369,246.005,371.944,248.51,374.764,242.032Z" transform="translate(-365.458 -214.731)" fill="#e9d6b8"/>
          <path id="Path_1486" data-name="Path 1486" d="M381.419,225.52s-.981-.446-.676-1.228a15,15,0,0,1,3.2-3.923c.815-.742,5.239-3.617,5.239-3.617a6.133,6.133,0,0,1-2.349,3.037C384.246,221.481,381.419,225.52,381.419,225.52Z" transform="translate(-358.699 -216.753)" fill="#e9d6b8"/>
          <path id="Path_1487" data-name="Path 1487" d="M368.38,244.856c.8,3.507-2.208,13.163-.346,13.483,6.673-7.954,14.187-34.447,14.187-34.447Z" transform="translate(-367.414 -212.065)" fill="#e9d6b8"/>
        </g>
        <path id="Path_1488" data-name="Path 1488" d="M384.066,234.918c-1.784-2.785-3.781-2.873-6.552-4.147-4.5,5.765-9.882,14.576-14.1,20.966-1.564,2.379,1.17,4.649,2.934,5.371,2.984,1.216,7.5-4.624,10.64-9.488C379.854,243.19,383.32,238.833,384.066,234.918Z" transform="translate(-331.017 -207.547)" fill="#2975d9"/>
      </g>
    </g>
    <g id="MEGAPHONE" transform="translate(367.982 132.171)">
      <g id="Group_551" data-name="Group 551">
        <path id="Path_1489" data-name="Path 1489" d="M383.132,252.565q-7.115,2.629-14.243,5.26a56.727,56.727,0,0,1-18.951-51.264q7.12-2.634,14.246-5.263Q373.665,226.933,383.132,252.565Z" transform="translate(-349.312 -86.774)" fill="#cdd5d7"/>
        <path id="Path_1490" data-name="Path 1490" d="M375.14,230.928q-5.48-14.814-10.956-29.631-7.125,2.632-14.246,5.263a56.66,56.66,0,0,0,4.543,32.007Q364.8,234.742,375.14,230.928Z" transform="translate(-349.312 -86.774)" fill="#e5e8ec"/>
        <path id="Path_1491" data-name="Path 1491" d="M453.662,283.335a2.259,2.259,0,0,1-.717,3.113L420.44,306.773a2.259,2.259,0,0,1-3.11-.716l-34.271-54.811a2.264,2.264,0,0,1,.716-3.111l32.507-20.322a2.256,2.256,0,0,1,3.11.716Z" transform="translate(-327.374 -69.585)" fill="#e5e8ec"/>
        <path id="Path_1492" data-name="Path 1492" d="M453.649,283.335l-34.271-54.807a2.256,2.256,0,0,0-3.11-.716l-32.507,20.322a2.227,2.227,0,0,0-.931,2.535l26.417-16.518a2.261,2.261,0,0,1,3.106.719l34.273,54.81a2.344,2.344,0,0,1,.212.575l6.093-3.807A2.259,2.259,0,0,0,453.649,283.335Z" transform="translate(-327.362 -69.585)" fill="#f7f8fc"/>
        <path id="Path_1493" data-name="Path 1493" d="M392.737,249.538a2.245,2.245,0,0,1,.719-3.106l26.692-16.7-.757-1.206a2.256,2.256,0,0,0-3.11-.716l-32.507,20.322a2.264,2.264,0,0,0-.716,3.111l34.271,54.811a2.259,2.259,0,0,0,3.11.716l5.809-3.632Z" transform="translate(-327.374 -69.585)" fill="#cdd5d7"/>
        <path id="Path_1494" data-name="Path 1494" d="M448.852,223.253a5.28,5.28,0,0,1-.191,7.457L400.23,276.674a5.27,5.27,0,0,1-7.452-.2L370.4,252.9a5.268,5.268,0,0,1,.189-7.45l48.433-45.969a5.27,5.27,0,0,1,7.452.194Z" transform="translate(-336.417 -88.918)" fill="#cdd5d7"/>
        <path id="Path_1495" data-name="Path 1495" d="M392.262,256.22q-8.246,3.049-16.49,6.092a65.668,65.668,0,0,1-21.934-59.326q8.243-3.054,16.491-6.1Q381.289,226.561,392.262,256.22Z" transform="translate(-346.813 -89.672)" fill="#30363d"/>
        <path id="Path_1496" data-name="Path 1496" d="M388.4,262.8q-3.879,1.424-7.753,2.866a172.009,172.009,0,0,1-24.977-67.577c2.579-.951,5.169-1.91,7.75-2.864Q375.908,229.012,388.4,262.8Z" transform="translate(-345.137 -90.76)" fill="#484f59"/>
        <g id="Group_550" data-name="Group 550" transform="translate(15.478 78.726)">
          <path id="Path_1497" data-name="Path 1497" d="M456.076,247.26c-2.583.963-69.863,25.829-72.446,26.78a172,172,0,0,1-24.975-67.572c2.578-.956,69.856-25.825,72.443-26.778Q443.583,213.475,456.076,247.26Z" transform="translate(-358.655 -179.69)" fill="#30363d"/>
          <path id="Path_1498" data-name="Path 1498" d="M430.632,179.864c-.2.073-.446.166-.749.273-.7.263-1.665.621-2.879,1.067-.431.157-.876.316-1.36.5l-2.651.976c-.5.189-.991.368-1.521.568-1.115.409-2.278.837-3.53,1.3-2.228.823-4.631,1.711-7.184,2.657q-2.522.932-5.187,1.915c-7.664,2.835-16.022,5.921-23.542,8.7-2.753,1.021-5.384,1.993-7.833,2.9-1.21.446-2.391.88-3.5,1.294-6.71,2.475-11.4,4.208-12.041,4.448a172.387,172.387,0,0,0,16.263,52.2l75.108-27.769q-9.461-25.6-18.928-51.2C431.008,179.721,430.851,179.781,430.632,179.864Z" transform="translate(-358.655 -179.69)" fill="#484f59"/>
        </g>
        <path id="Path_1499" data-name="Path 1499" d="M422.494,244.087l-13.174-14-4.357,2.951a2.635,2.635,0,0,0-.7,3.66L415.7,253.581l6.7-6.307A2.253,2.253,0,0,0,422.494,244.087Z" transform="translate(-313.525 -67.868)" fill="#30363d"/>
        <path id="Path_1500" data-name="Path 1500" d="M407.807,230.084l-1.423.963a2.619,2.619,0,0,0,.154,2.609l11.218,16.564,3.128-2.946a2.253,2.253,0,0,0,.1-3.188Z" transform="translate(-312.012 -67.868)" fill="#484f59"/>
        <path id="Path_1501" data-name="Path 1501" d="M522.36,204.849a437.415,437.415,0,0,0-33.03-70.058c-14.284,27.593-48.3,56.5-93.558,77.867l.051.164c-.624,1.768,1.919,17.6,8.587,35.648s15.037,31.73,16.667,32.663l.045.113c.063-.013.113-.025.169-.04l.007,0,.005,0c48.208-13.153,92.771-13.32,121.53-1.668A437.294,437.294,0,0,0,522.36,204.849Z" transform="translate(-318.827 -130.451)" fill="#e5e8ec"/>
        <path id="Path_1502" data-name="Path 1502" d="M520.477,192.573q-2.386-6.277-4.907-12.384A156.719,156.719,0,0,0,495.7,147.036c-17.576,19.9-53.678,43.491-99.573,64.349a170.607,170.607,0,0,0,8.017,29.043c1.917,5.189,3.97,9.988,5.969,14.255,48.953-15.587,92.38-22.359,119.058-19.19A157.909,157.909,0,0,0,520.477,192.573Z" transform="translate(-318.565 -122.409)" fill="#f7f8fc"/>
        <path id="Path_1503" data-name="Path 1503" d="M457.908,216.769c15.013,40.623,38.783,69.26,53.1,63.97s13.734-42.5-1.282-83.125-38.784-69.263-53.093-63.977S442.893,176.149,457.908,216.769Z" transform="translate(-285.644 -131.621)" fill="#484f59"/>
        <path id="Path_1504" data-name="Path 1504" d="M462.32,214.824c15.015,40.625,37.6,69.7,50.443,64.957s11.082-41.528-3.933-82.146-37.595-69.706-50.443-64.956S447.306,174.207,462.32,214.824Z" transform="translate(-283.319 -132.171)" fill="#30363d"/>
        <path id="Path_1505" data-name="Path 1505" d="M462.586,213.726c14.576,39.445,36.51,67.684,48.98,63.067s10.764-40.315-3.819-79.757-36.51-67.689-48.98-63.075S448,174.279,462.586,213.726Z" transform="translate(-282.908 -131.32)" fill="#cdd5d7"/>
      </g>
      <g id="Group_552" data-name="Group 552" transform="translate(171.916 53.19)">
        <path id="Path_1506" data-name="Path 1506" d="M468.557,164.431,453.08,168.2a228.492,228.492,0,0,0,7.762,25.292,224.945,224.945,0,0,0,11.383,25.855l14.011-7.1c1.546-.565,2.23-2.553,1.531-4.442l-15.151-40.994C471.919,164.922,470.1,163.86,468.557,164.431Z" transform="translate(-453.08 -164.277)" fill="#b7bec0"/>
        <path id="Path_1507" data-name="Path 1507" d="M477.624,186.018c4.765,12.891,6.263,24.22,3.335,25.305s-9.158-8.5-13.928-21.385-6.251-24.22-3.33-25.3S472.861,173.129,477.624,186.018Z" transform="translate(-447.087 -164.094)" fill="#cdd5d7"/>
        <path id="Path_1508" data-name="Path 1508" d="M477.123,185.644c4.621,12.5,6.254,23.413,3.653,24.374s-8.456-8.391-13.08-20.886-6.254-23.41-3.646-24.371S472.5,173.148,477.123,185.644Z" transform="translate(-446.691 -164.004)" fill="#e5e8ec"/>
        <path id="Path_1509" data-name="Path 1509" d="M474.685,183.936c3.476,9.41,4.972,17.535,3.332,18.135s-5.792-6.531-9.269-15.948-4.967-17.528-3.33-18.131S471.208,174.519,474.685,183.936Z" transform="translate(-445.414 -161.861)" fill="#b7bec0"/>
      </g>
    </g>
    <g id="WOMAN" transform="translate(320.884 276.9)">
      <g id="Group_554" data-name="Group 554">
        <path id="Path_1510" data-name="Path 1510" d="M359.913,233.538a16.071,16.071,0,0,0-7.031-3.7,15.569,15.569,0,1,0,11.649,19.385A18.789,18.789,0,0,1,359.913,233.538Z" transform="translate(-312.698 -213.06)" fill="#282723"/>
        <g id="Group_553" data-name="Group 553">
          <path id="Path_1511" data-name="Path 1511" d="M363.941,396.8a29.848,29.848,0,0,0-5.519-1.07c-2.363-.313-4.13-.194-5.022-1.024-1.471-1.369-1.39-6.483-1.7-6.4-3.285.855-3.434,11.309-1.846,11.279,2.16-.04,12.808-1.055,13.7-1.176S364.206,396.574,363.941,396.8Z" transform="translate(-302.506 -108.688)" fill="#e2c59c"/>
          <path id="Path_1512" data-name="Path 1512" d="M351.444,341.325c-1.09,1.35-5.25,5.065-6.085,9.322-1.652,8.35-2.048,12.659-.895,21.186,1.824,13.519,5.174,35.081,6.713,44.154,1.382,8.178.409,18.446,6.145,15.709-3.764-10.8-2.386-28.57-1.948-38.032C358.346,329.105,353.383,338.931,351.444,341.325Z" transform="translate(-305.831 -140.831)" fill="#e2c59c"/>
          <path id="Path_1513" data-name="Path 1513" d="M361.693,393.084c.77,2.57-7.275,1.975-9.384,1.411a24.632,24.632,0,0,0-3.279-.664c-.088.007-.164,0-.248,0a1.246,1.246,0,0,0-.015.2c.08,1.425-.439,3.36,1.841,3.227l14.318-.815C376.631,395.773,361.677,393.026,361.693,393.084Z" transform="translate(-302.573 -105.549)" fill="#2c7eea"/>
          <path id="Path_1514" data-name="Path 1514" d="M351.326,287.933c-2.745-.726-2.8,1.673-4.778,7.659-3.878,11.731-6.074,29.106-4.727,47.62,1.576,21.687,4.9,43.438,9.361,55.34,3.683-8.585,6.645-16.342,8.7-35.307C364.426,321.24,359.766,290.156,351.326,287.933Z" transform="translate(-307.395 -174.689)" fill="#e2c59c"/>
          <path id="Path_1515" data-name="Path 1515" d="M351.078,289.757c-2.5-.533-2.5,1.476-4.134,6.534-3.211,9.914-4.757,24.5-3.073,39.957,1.98,18.1,5.911,38.148,10.742,38.339,1.854.066,2.628-13.471,3.343-24.821C360.2,314.461,358.773,291.4,351.078,289.757Z" transform="translate(-306.24 -173.463)" fill="#e9d6b8"/>
          <path id="Path_1516" data-name="Path 1516" d="M340.44,399.9s-1.589-.447-5.184-1.269c-2.518-.573-3.772-.956-4.359-1.97-.968-1.675-.529-6.488-1.2-6.5-3.275-.041-4.23,8.617-3.443,9.992,1.031,1.809,11.68,2.608,13.314,1.753C340.336,401.5,340.741,399.764,340.44,399.9Z" transform="translate(-317.529 -107.468)" fill="#e9d6b8"/>
          <path id="Path_1517" data-name="Path 1517" d="M342.99,345.7c-1.527-.686-.007-6.948-2.884-2.821-4.692,6.735-8.653,22.018-9.326,30.288-1.075,13.113-3.033,33.938-3.461,42.8-.388,7.99-3.424,17.462,2.536,16.07-.292-11.246,3.269-27.518,6.022-36.226C345.3,366.09,347.677,347.79,342.99,345.7Z" transform="translate(-317.391 -139.436)" fill="#e9d6b8"/>
          <path id="Path_1518" data-name="Path 1518" d="M340.6,396.924c-3.181,3.325-9.344.924-11.34.133-3.411-1.367-3.2-2.464-3.216-2.406-.333,1.34-.848,3.3,1.115,4.3,1.781.91,3.766.853,5.973,1.161,1.978.282,13.539,1.347,13.908-.113C347.576,397.953,340.646,396.881,340.6,396.924Z" transform="translate(-317.704 -104.521)" fill="#2c7eea"/>
          <path id="Path_1519" data-name="Path 1519" d="M344.221,291.924c-2.626-.78-2.755,1.528-4.838,7.235-4.1,11.193-6.735,27.87-5.994,45.754.873,20.953,3.852,39.3,7.793,50.9,3.81-8.164,6.456-12.83,9.011-31.049C355.836,324.416,352.289,294.32,344.221,291.924Z" transform="translate(-312.753 -172.081)" fill="#e9d6b8"/>
          <path id="Path_1520" data-name="Path 1520" d="M344.47,338.594c-1.393-.81-4.026,2.727-5.987,6.193-3.842,6.794-5.34,15.257-7.318,26.942-2.319,13.7-3.081,25.941-2.387,33.927,3.014-5.944,5.5-13.64,8.989-21.594C358.839,335.993,348.756,341.073,344.47,338.594Z" transform="translate(-315.862 -141.411)" fill="#e9d6b8"/>
          <path id="Path_1521" data-name="Path 1521" d="M344.019,290.372c-2.616-.648-2.672,1.465-4.559,6.73-3.7,10.315-5.813,25.6-4.543,41.9,1.181,15.24,3.643,28.927,6.748,39.165.782,2.588,3.668,2.669,4.177.32a220.081,220.081,0,0,0,3.433-24.816C352.793,316.633,352.049,292.345,344.019,290.372Z" transform="translate(-311.912 -173.078)" fill="#e9d6b8"/>
          <path id="Path_1522" data-name="Path 1522" d="M344.605,228.138a20.331,20.331,0,0,0-3.383-.5,18.778,18.778,0,0,1-.474,3.381,19.03,19.03,0,0,1-19.838,14.354,19.279,19.279,0,1,0,23.695-17.24Z" transform="translate(-320.884 -214.201)" fill="#282723"/>
          <path id="Path_1523" data-name="Path 1523" d="M360.957,233.177c.711,8.168-4.926,15.328-12.578,15.991s-14.43-5.429-15.141-13.6,4.932-15.335,12.585-15.994S360.255,225,360.957,233.177Z" transform="translate(-312.81 -219.529)" fill="#282723"/>
          <path id="Path_1524" data-name="Path 1524" d="M332.074,253.519s7.649,12.194,15.5,13.287,11.385-.873,12.222-4.046.608-9.248-1.282-10.636a19.9,19.9,0,0,1-5.535-5.51c-1.458-2.223-1.448-6.521-.855-9.9s3.214-3.825.439-5.138-1.8-2.947-4.4-2.276-4.228-.191-4.009,2.338c.4,4.622,1.339,11.074-.986,14.268C340.593,249.46,337.871,250.7,332.074,253.519Z" transform="translate(-313.535 -213.212)" fill="#e9d6b8"/>
          <path id="Path_1525" data-name="Path 1525" d="M347.554,222.95c-.227-.041-.466-.076-.7-.1-.245,2.765-2.131,6.17-5.262,8.991a20.429,20.429,0,0,1-2.344,1.809l.222,2.55a7.183,7.183,0,0,0,14.3-1.238l-.5-5.747A15.384,15.384,0,0,1,347.554,222.95Z" transform="translate(-308.823 -217.349)" fill="#e9d6b8"/>
          <path id="Path_1526" data-name="Path 1526" d="M376.244,375.831a39.883,39.883,0,0,0,.36-4.862c-.729-16.662,2.061-33.226-12.8-89.469a86.914,86.914,0,0,0-3.526-10.167c-6.692-4.2-12.334-.046-19.364-3.13-2.367,2.932-7.812,8.8-10.254,14.713-14.437,34.964-2.634,82.683-3.125,100.8A77.306,77.306,0,0,0,376.244,375.831Z" transform="translate(-319.194 -187.563)" fill="#2c7eea"/>
          <path id="Path_1527" data-name="Path 1527" d="M355.28,270.8c0,.27-1.271.522-2.861.56l-17.952.434c-1.587.036-2.878-.151-2.888-.421l-.025-1.024c-.005-.27,1.276-.522,2.86-.563l17.954-.431c1.587-.036,2.878.156,2.884.421Z" transform="translate(-313.877 -186.808)" fill="#15100c"/>
          <path id="Path_1528" data-name="Path 1528" d="M362.756,260.589q-2.289-7.975-4.516-15.991a17.8,17.8,0,0,0-1.213-3.141c.162,12.85-17.081,7.457-16.707,2.059-2.6,2.911-10.083,6.089-10.061,6.63.273,5.867,1.087,11.7,1.41,17.56a9.11,9.11,0,0,0,3.448,6.208,5.818,5.818,0,0,0-.118,1.451l-.075,2.869c.113,2.351-3.955,10.744-2.331,10.716l23.6-.764c1.62-.028,3.32-5.02,3.2-7.363l1.433-11.68c-.007-.2-.045-.394-.07-.6C362.315,266.381,363.544,263.265,362.756,260.589Z" transform="translate(-314.727 -205.128)" fill="#5dcfca"/>
          <path id="Path_1529" data-name="Path 1529" d="M342.509,240.7s-9.412-.119-11.46,4.336c-2.709,5.9-1.395,11.849-.477,15.81,1.067,4.6,1.3,10.678,2.858,16.6,1.885,7.208-3.625,14.175-2.482,12.889.23-.26,9.192-.967,13.756-3.489s1.1-10.486.519-13.131c-1.307-5.969,3-18.254,1.751-23.01A41.65,41.65,0,0,0,342.509,240.7Z" transform="translate(-315.269 -205.629)" fill="#2c7eea"/>
          <path id="Path_1530" data-name="Path 1530" d="M354.063,250.6a18.767,18.767,0,0,0-3.211-6.094c-1.329-1.917-6.143-4.082-5.369-3.9.113.031,5.321,2.281,4.876,19.546-.075,2.947-2.092,9.939-3.11,14.528s-2.063,13.1-2.063,13.1,4.858,1.062,5.071,1.791-1.185-6.195.452-12.669C354.656,261.33,355.837,258.661,354.063,250.6Z" transform="translate(-304.924 -205.695)" fill="#2c7eea"/>
        </g>
      </g>
    </g>
    <g id="WOMAN_HAND" data-name="WOMAN HAND" transform="translate(337.408 316.429)">
      <path id="Path_1531" data-name="Path 1531" d="M330.866,249.889c-.121-1.958.982-7.088,4.882-6.445,17.106,2.8,49.16,12.841,49.16,12.841s2.147,3.542-1.054,4.849c-4.052,1.657-16.329,3.767-43.822-1.37C332.094,258.277,331.072,253.2,330.866,249.889Z" transform="translate(-330.858 -243.389)" fill="#2975d9"/>
      <path id="Path_1532" data-name="Path 1532" d="M374.094,253.588s8.01-1.089,8.726-1.4.862-.88,2.043-2.136,1.458-1.433,2.444-2.363a12.342,12.342,0,0,1,1.132-1.021s.444.625.151,1.084c-.27.408-1.108,1.2-1.325,1.557s.716-.654,2.455-1.7a29.046,29.046,0,0,1,4.392-2.149c.515-.191.591-.207.61-.182.144.2.26.4.088.573-.151.159-.81.563-.75.563a10.447,10.447,0,0,0,1.637-.446c.2-.083.487-.205.668-.263.381-.106.507.358.086.88-.007.012.063.35-.056.515-.06.088-.1.151-.167.235s-.186.174-.26.262a9.876,9.876,0,0,1-.941.908,11.025,11.025,0,0,0-1.372.971,6.547,6.547,0,0,1,1.156-.391.566.566,0,0,1-.141.638c-.331.2-.823.5-2.228,1.261a12.643,12.643,0,0,0-3.605,2.444,4.432,4.432,0,0,1-3.63,1.483c-5.113.147-13.227,3.656-14.728,3.723S374.094,253.588,374.094,253.588Z" transform="translate(-305.019 -242.158)" fill="#e9d6b8"/>
      <path id="Path_1533" data-name="Path 1533" d="M386.629,256.893c1.13-3.106-.01-4.747-.679-7.727-7.314-.089-18.426.244-26.06.772-2.846.194-7.878,5.4-7.381,7.237.84,3.11,13.958,2.25,19.727,1.8C377.5,258.563,383.064,258.674,386.629,256.893Z" transform="translate(-316.661 -239.604)" fill="#2975d9"/>
    </g>
  </g>
</svg>
