<svg id="Background" xmlns="http://www.w3.org/2000/svg" xmlns:xlink="http://www.w3.org/1999/xlink" width="1921.4" height="2793.145" viewBox="0 0 1921.4 2793.145">
  <defs>
    <clipPath id="clip-path">
      <path id="Rectangle" d="M0,2.176s190.891-27.7,502.522,158.1c142.687,85.071,347.513,57.506,453.15,0,163.5-89.006,344.02-116.829,394.141-135.733s234.042-18.9,349.571,0S1921.4,93.135,1921.4,93.135V2789.2s-142.2,46.913-480.421-156.962c-108.446-65.368-341.15-101.539-553.81,23.728-79.189,46.647-289.2,122.983-459.531,122.983C172.447,2778.95,0,2693.883,0,2693.883Z" transform="translate(0 -0.715)" fill="#4a7ced"/>
    </clipPath>
    <linearGradient id="linear-gradient" x1="0.224" y1="0.5" x2="0.78" y2="0.363" gradientUnits="objectBoundingBox">
      <stop offset="0" stop-color="#86a7f3"/>
      <stop offset="1" stop-color="#86a7f3"/>
    </linearGradient>
    <linearGradient id="linear-gradient-2" x1="0.778" y1="-0.963" x2="0.221" y2="-0.963" gradientUnits="objectBoundingBox">
      <stop offset="0" stop-color="#c1d2f9"/>
      <stop offset="1" stop-color="#d6e1fb"/>
    </linearGradient>
    <linearGradient id="linear-gradient-3" x1="0.219" y1="1" x2="0.78" y2="0.85" xlink:href="#linear-gradient"/>
  </defs>
  <path id="Rectangle-2" data-name="Rectangle" d="M0,2.176s190.891-27.7,502.522,158.1c142.687,85.071,347.513,57.506,453.15,0,163.5-89.006,344.02-116.829,394.141-135.733s234.042-18.9,349.571,0S1921.4,93.135,1921.4,93.135V2789.2s-142.2,46.913-480.421-156.962c-108.446-65.368-341.15-101.539-553.81,23.728-79.189,46.647-289.2,122.983-459.531,122.983C172.447,2778.95,0,2693.883,0,2693.883Z" transform="translate(0 -0.715)" fill="#4a7ced"/>
  <g id="Background-2" data-name="Background" transform="translate(0 0)" clip-path="url(#clip-path)">
    <g id="wave2" transform="translate(2747.962 2940.281) rotate(180)">
      <path id="Path" d="M1668.825,393.257c-719.394,515.967-928.262-198.674-1130.073,0C232.859,695.942,0,348.848,0,348.848V0H3528.171V348.848s-219.1,152.511-334.823,171.21c-115.724,19.283-221.569-71.873-267.435-129.138-82.206-101.09-296.366-340.083-474.186-363.456S1737.271,344.757,1668.825,393.257Z" transform="translate(0 0)" opacity="0.33" fill="url(#linear-gradient)"/>
      <path id="Path-2" data-name="Path" d="M2589.677,391.666c-160.531,0-272.375-135.017-455.487-227.551-100.906-50.631-530.284-58.779-896.155,227.551s-323.533-200.2-526.4,0C408.209,688.472,0,231.624,0,231.624V0H3528.171V212.419s-99.494-107.665-324.945-107.665C2858.524,105.337,2736.8,391.666,2589.677,391.666Z" transform="translate(0 2.981)" opacity="0.66" fill="url(#linear-gradient-2)"/>
      <path id="Path-3" data-name="Path" d="M2702.932,169.576C1997.3-167.815,1764.438,553.908,1308.951,284,853.817,10.562,853.817,31.685,652.006,120.874c-200.4,89.189-185.229,142.584-334.823,187.179C100.906,373.77,0,0,0,0H3528.171s-34.929,239.988-294.955,282.235S2926.97,275.78,2702.932,169.576Z" transform="translate(0 0)"/>
    </g>
    <g id="wave2-2" data-name="wave2" transform="translate(-740.94 -60.064)">
      <path id="Path-4" data-name="Path" d="M1611.455,264.847c-694.663,347.488-896.351-133.8-1091.224,0C224.854,468.7,0,234.938,0,234.938V0H3406.883V234.938s-211.568,102.712-323.313,115.3c-111.746,12.987-213.953-48.4-258.242-86.97-79.38-68.081-286.178-229.035-457.885-244.777S1677.549,232.184,1611.455,264.847Z" transform="translate(0 2.981)" opacity="0.33" fill="url(#linear-gradient-3)"/>
      <path id="Path-5" data-name="Path" d="M2610.013,115.487C1928.636-114.288,1703.782,377.23,1263.953,193.41,824.466,7.193,824.466,21.579,629.592,82.319c-193.511,60.74-178.861,97.1-323.313,127.475C97.437,254.551,0,0,0,0H3406.883s-33.728,163.44-284.815,192.212S2826.35,187.816,2610.013,115.487Z" transform="translate(0 0)"/>
    </g>
  </g>
</svg>
