<svg xmlns="http://www.w3.org/2000/svg" xmlns:xlink="http://www.w3.org/1999/xlink" width="900.639" height="448.221" viewBox="0 0 900.639 448.221">
  <defs>
    <clipPath id="clip-path">
      <circle id="Ellipse_1772" data-name="Ellipse 1772" cx="86.92" cy="86.92" r="86.92" transform="translate(0 122.923) rotate(-45)" fill="none"/>
    </clipPath>
  </defs>
  <g id="Group_3750" data-name="Group 3750" transform="translate(0)">
    <path id="Path_13032" data-name="Path 13032" d="M1355.406,555.027V796.719c0,35.052-39.5,63.468-88.224,63.468h-94.2l31.566,79.594L1023.5,860.186H543.282c-48.725,0-88.224-28.416-88.224-63.468V555.027c0-35.052,39.5-63.467,88.224-63.467h723.9C1315.907,491.56,1355.406,519.975,1355.406,555.027Z" transform="translate(-454.767 -491.56)" fill="#f50825"/>
    <g id="Group_3749" data-name="Group 3749" transform="translate(17.396 3.653)">
      <g id="Group_3736" data-name="Group 3736" transform="translate(0 50)">
        <g id="Group_3735" data-name="Group 3735" clip-path="url(#clip-path)">
          <g id="Group_3734" data-name="Group 3734" transform="translate(41.736 44.665)">
            <path id="Path_13033" data-name="Path 13033" d="M653.107,671.247c5.665-5.127,9.909-12.533,12.647-20.843,1.659,2.279,4.175-.017,4.482-2.143-.027-3.262,6.027-18.04-.812-17.469,0,0-.033.066-.089.182,4.646-62.874-73.792-62.793-69.1.025-.063-.131-.1-.207-.1-.207-6.842-.549-.785,14.182-.812,17.468.307,2.13,2.832,4.43,4.49,2.133,2.739,8.316,6.984,15.727,12.652,20.856a28.9,28.9,0,0,0,36.642,0Z" transform="translate(-553.271 -565.501)" fill="#fdbc91"/>
            <path id="Path_13034" data-name="Path 13034" d="M659.874,710.265a27.359,27.359,0,0,1,.632-5.308c.044-.04.086-.082.13-.121a28.9,28.9,0,0,1-36.642,0c.043.039.085.081.128.12a27.654,27.654,0,0,1,.631,5.306,28.77,28.77,0,0,0,35.122,0Z" transform="translate(-560.8 -599.09)" fill="#f2ad80"/>
            <path id="Path_13035" data-name="Path 13035" d="M688.011,738.624c-7.5-12.324-32.419-12.678-43.154-12.6-6.906,0-9.412-6.812-9.268-13.668a28.77,28.77,0,0,1-35.122,0c.147,6.862-2.35,13.662-9.267,13.669-10.734-.073-35.648.28-43.154,12.6s-11.525,27.73-11.525,27.73H699.538S695.517,750.948,688.011,738.624Z" transform="translate(-536.515 -601.176)" fill="#fdbc91"/>
            <path id="Path_13036" data-name="Path 13036" d="M666.668,631.9s-2.938-26.97-8.153-30.345c-2.5-1.619-6.648-1.373-10.724-.34a44.91,44.91,0,0,1-22.556.041c-4.294-1.141-8.739-1.5-11.359.606-6.29,5.062-11.505,31.753-11.505,31.753s-10.431-32.52,0-47.4c0,0,8.13-9.971,8.13-12.886v2.915s4.909-7.516,2.455-12.272c0,0,4.6,1.38,5.982,3.835,0,0,2.915-6.136,1.074-9.358,0,0,8.437,3.528,10.738,7.21s3.068-3.222,1.534-4.909c0,0,10.738.46,15.033,4.3s1.994-1.933,1.994-1.933a18.691,18.691,0,0,1,14.113,16.2l3.528-1.673S679.2,601.476,666.668,631.9Z" transform="translate(-553.51 -558.448)" fill="#4a2100"/>
            <path id="Path_13037" data-name="Path 13037" d="M688.016,742.274c-7.505-12.325-32.422-12.679-43.157-12.605a7.962,7.962,0,0,1-7.219-4.164c-19.181,10.032-35.023,2.5-39.261.066a7.961,7.961,0,0,1-7.181,4.1c-10.735-.073-35.652.281-43.158,12.606s-11.526,27.733-11.526,27.733h163.03S695.522,754.6,688.016,742.274Z" transform="translate(-536.513 -604.828)" fill="#fff"/>
            <path id="Path_13038" data-name="Path 13038" d="M647.292,732.394l-5.455,7.9,5.432,4.238,5.071-4.238Z" transform="translate(-565.754 -606.74)" fill="#bf0000"/>
            <path id="Path_13039" data-name="Path 13039" d="M637.4,773.368l6.045-35.755h5.021l5.548,35.755Z" transform="translate(-564.523 -608.189)" fill="#bf0000"/>
            <path id="Path_13040" data-name="Path 13040" d="M622.574,718.4l17.858,10.129-8.635,12.5L617.21,726.722Z" transform="translate(-558.917 -602.855)" fill="#f2f2f2"/>
            <path id="Path_13041" data-name="Path 13041" d="M667.206,718.4l-17.858,10.129,7.986,12.5,15.237-14.307Z" transform="translate(-567.839 -602.855)" fill="#f2f2f2"/>
          </g>
        </g>
      </g>
      <g id="Group_3747" data-name="Group 3747" transform="translate(497.245 38.194)">
        <g id="Group_3738" data-name="Group 3738">
          <path id="Path_13042" data-name="Path 13042" d="M874.48,573.622c.026-.034.052-.067.077-.1s.035-.053.053-.08.045-.069.066-.1.032-.056.047-.085.038-.072.056-.108.028-.059.041-.089.031-.074.046-.111.023-.061.033-.092.025-.077.037-.116.019-.062.027-.093.019-.079.027-.119.014-.063.019-.095.013-.082.018-.123.009-.062.011-.094.006-.085.007-.129,0-.06,0-.09c0-.046,0-.092,0-.139,0-.027,0-.055,0-.082,0-.056-.011-.112-.018-.168,0-.017,0-.035-.006-.053-.011-.073-.025-.147-.043-.22,0-.02-.011-.038-.016-.058-.013-.05-.026-.1-.042-.149l0-.012c-.008-.024-.018-.047-.026-.071-.017-.048-.035-.095-.054-.14,0-.008-.006-.016-.009-.024-.012-.027-.025-.053-.038-.079s-.026-.056-.04-.083-.031-.057-.047-.085-.039-.069-.06-.1l-.022-.033a2.709,2.709,0,0,0-2.174-1.242l0,0c-.059,0-.118-.007-.177-.007H855.317a.009.009,0,0,1-.008-.006l-5.26-16.188c-.022-.069-.048-.137-.075-.2-.009-.022-.02-.044-.03-.066-.019-.043-.038-.086-.059-.128-.013-.025-.027-.05-.041-.075s-.04-.074-.062-.109-.033-.051-.05-.076-.043-.067-.067-.1-.038-.05-.058-.074-.046-.06-.071-.089-.043-.048-.065-.071-.049-.055-.075-.082-.048-.045-.072-.067-.052-.05-.079-.074-.051-.042-.077-.063l-.084-.066-.083-.057c-.029-.02-.058-.04-.087-.059s-.058-.035-.088-.051-.06-.035-.091-.052-.061-.03-.092-.046-.062-.03-.095-.043-.064-.027-.1-.039l-.1-.037-.1-.032-.1-.028-.1-.025-.1-.021-.105-.016-.105-.013-.107-.008-.056,0v0c-.035,0-.07,0-.105,0a2.712,2.712,0,0,0-2.58,1.874l-5.26,16.188a.008.008,0,0,1-.008.006H822.671a2.771,2.771,0,0,0-2.554,1.627,2.711,2.711,0,0,0,.891,3.279l13.771,10a.009.009,0,0,1,0,.009l-5.26,16.188a2.711,2.711,0,0,0,.609,2.7h0l.017.016c.042.044.086.085.131.126.014.013.028.027.043.04.06.052.122.1.188.15a2.712,2.712,0,0,0,3.188,0l13.771-10a.011.011,0,0,1,.009,0l13.3,9.667h0l.466.338a2.712,2.712,0,0,0,4.173-3.031l-5.26-16.188a.009.009,0,0,1,0-.009l13.771-10c.062-.045.121-.092.178-.142.019-.016.036-.034.054-.051.038-.034.074-.067.109-.1s.04-.044.06-.066.061-.066.089-.1S874.461,573.647,874.48,573.622Z" transform="translate(-818.053 -549.96)" opacity="0.1"/>
          <path id="Path_13043" data-name="Path 13043" d="M872.28,569.185a2.77,2.77,0,0,0-2.554-1.627H852.773a.008.008,0,0,1-.008-.006l-5.26-16.188a2.711,2.711,0,0,0-5.158,0l-5.26,16.188a.008.008,0,0,1-.008.006H820.128a2.77,2.77,0,0,0-2.554,1.627,2.712,2.712,0,0,0,.891,3.279l13.771,10a.008.008,0,0,1,0,.009l-5.26,16.188a2.712,2.712,0,0,0,4.173,3.032l13.771-10a.008.008,0,0,1,.009,0l13.771,10a2.712,2.712,0,0,0,4.173-3.032l-5.26-16.188a.009.009,0,0,1,0-.009l13.77-10A2.712,2.712,0,0,0,872.28,569.185Z" transform="translate(-817.347 -549.49)" fill="#fdba02"/>
          <path id="Path_13044" data-name="Path 13044" d="M872.28,569.185a2.77,2.77,0,0,0-2.554-1.627H852.773a.008.008,0,0,1-.008-.006l-5.26-16.188a2.711,2.711,0,0,0-5.158,0l-5.26,16.188a.008.008,0,0,1-.008.006H820.128a2.77,2.77,0,0,0-2.554,1.627,2.712,2.712,0,0,0,.891,3.279l13.771,10a.008.008,0,0,1,0,.009l-5.26,16.188a2.712,2.712,0,0,0,4.173,3.032l13.771-10a.008.008,0,0,1,.009,0l13.771,10a2.712,2.712,0,0,0,4.173-3.032l-5.26-16.188a.009.009,0,0,1,0-.009l13.77-10A2.712,2.712,0,0,0,872.28,569.185Z" transform="translate(-817.347 -549.49)" fill="#ffcd00"/>
          <g id="Group_3737" data-name="Group 3737" transform="translate(10.238 0.002)">
            <path id="Path_13045" data-name="Path 13045" d="M847.357,606.364l-14.14,10.274a2.7,2.7,0,0,1-1.7.516,2.708,2.708,0,0,0,3.566.334l13.776-10.008Z" transform="translate(-831.52 -565.282)" fill="#f0a002"/>
            <path id="Path_13046" data-name="Path 13046" d="M856.277,550.515l5.521,17.046,1.609,0-5.262-16.194a2.712,2.712,0,0,0-2.475-1.872A2.716,2.716,0,0,1,856.277,550.515Z" transform="translate(-838.225 -549.493)" fill="#f0a002"/>
            <path id="Path_13047" data-name="Path 13047" d="M887.131,576.377a2.712,2.712,0,0,0-2.475-1.872,2.71,2.71,0,0,1-.379,4.054L870.5,588.567l5.262,16.193a2.711,2.711,0,0,1-2.579,3.55c-.064,0-.128,0-.192-.006l.466.338a2.712,2.712,0,0,0,4.173-3.032l-5.262-16.194,13.775-10.008A2.711,2.711,0,0,0,887.131,576.377Z" transform="translate(-842.343 -556.437)" fill="#f0a002"/>
          </g>
        </g>
        <g id="Group_3740" data-name="Group 3740" transform="translate(68.974)">
          <path id="Path_13048" data-name="Path 13048" d="M969.962,573.622c.026-.034.052-.067.077-.1s.035-.053.053-.08.045-.069.066-.1.032-.056.047-.085.038-.072.056-.108.027-.059.04-.089.032-.074.046-.111.023-.061.034-.092.025-.077.037-.116.018-.062.026-.093.02-.079.027-.119.014-.063.02-.095.012-.082.017-.123.009-.062.012-.094.006-.085.008-.129,0-.06,0-.09c0-.046,0-.092,0-.139,0-.027,0-.055,0-.082,0-.056-.011-.112-.018-.168,0-.017,0-.035-.006-.053-.011-.073-.026-.147-.043-.22-.005-.02-.011-.038-.017-.058-.013-.05-.026-.1-.042-.149l0-.012c-.008-.024-.017-.047-.026-.071-.017-.048-.035-.095-.054-.14l-.009-.024c-.012-.027-.026-.053-.038-.079s-.026-.056-.04-.083-.031-.057-.047-.085l-.059-.1-.022-.033a2.712,2.712,0,0,0-2.174-1.242l0,0c-.059,0-.119-.007-.178-.007H950.8a.008.008,0,0,1-.008-.006l-5.26-16.188c-.022-.069-.048-.137-.075-.2-.009-.022-.02-.044-.03-.066-.019-.043-.038-.086-.059-.128-.013-.025-.028-.05-.042-.075s-.04-.074-.061-.109-.034-.051-.051-.076-.043-.067-.067-.1-.038-.05-.058-.074-.046-.06-.071-.089-.043-.048-.064-.071-.05-.055-.076-.082-.047-.045-.072-.067-.052-.05-.079-.074-.051-.042-.077-.063l-.084-.066-.082-.057c-.03-.02-.058-.04-.088-.059s-.058-.035-.087-.051-.061-.035-.092-.052l-.092-.046-.095-.043c-.032-.014-.064-.027-.1-.039l-.1-.037-.1-.032-.1-.028-.1-.025-.1-.021-.105-.016-.1-.013-.108-.008-.056,0,0,0c-.035,0-.071,0-.106,0a2.711,2.711,0,0,0-2.579,1.874l-5.26,16.188a.008.008,0,0,1-.007.006H918.153a2.771,2.771,0,0,0-2.554,1.627,2.712,2.712,0,0,0,.891,3.279l13.771,10a.008.008,0,0,1,0,.009L925,600.358a2.709,2.709,0,0,0,.608,2.7h0l.017.016c.041.044.085.085.13.126.014.013.028.027.043.04.06.052.123.1.188.15a2.712,2.712,0,0,0,3.188,0l13.771-10h.009l13.3,9.667h0l.466.338a2.712,2.712,0,0,0,4.173-3.031l-5.26-16.188a.008.008,0,0,1,0-.009l13.771-10c.061-.045.121-.092.178-.142.019-.016.036-.034.055-.051.037-.034.074-.067.108-.1s.04-.044.06-.066.061-.066.089-.1S969.943,573.647,969.962,573.622Z" transform="translate(-913.535 -549.96)" opacity="0.1"/>
          <path id="Path_13049" data-name="Path 13049" d="M967.762,569.185a2.771,2.771,0,0,0-2.555-1.627H948.256a.009.009,0,0,1-.008-.006l-5.26-16.188a2.711,2.711,0,0,0-5.158,0l-5.26,16.188a.007.007,0,0,1-.008.006H915.61a2.77,2.77,0,0,0-2.554,1.627,2.712,2.712,0,0,0,.891,3.279l13.771,10a.007.007,0,0,1,0,.009l-5.26,16.188a2.711,2.711,0,0,0,4.172,3.032l13.771-10a.009.009,0,0,1,.01,0l13.77,10a2.712,2.712,0,0,0,4.173-3.032l-5.26-16.188a.007.007,0,0,1,0-.009l13.771-10A2.713,2.713,0,0,0,967.762,569.185Z" transform="translate(-912.829 -549.49)" fill="#fdba02"/>
          <path id="Path_13050" data-name="Path 13050" d="M967.762,569.185a2.771,2.771,0,0,0-2.555-1.627H948.256a.009.009,0,0,1-.008-.006l-5.26-16.188a2.711,2.711,0,0,0-5.158,0l-5.26,16.188a.007.007,0,0,1-.008.006H915.61a2.77,2.77,0,0,0-2.554,1.627,2.712,2.712,0,0,0,.891,3.279l13.771,10a.007.007,0,0,1,0,.009l-5.26,16.188a2.711,2.711,0,0,0,4.172,3.032l13.771-10a.009.009,0,0,1,.01,0l13.77,10a2.712,2.712,0,0,0,4.173-3.032l-5.26-16.188a.007.007,0,0,1,0-.009l13.771-10A2.713,2.713,0,0,0,967.762,569.185Z" transform="translate(-912.829 -549.49)" fill="#ffcd00"/>
          <g id="Group_3739" data-name="Group 3739" transform="translate(10.238 0.002)">
            <path id="Path_13051" data-name="Path 13051" d="M942.839,606.364,928.7,616.638a2.706,2.706,0,0,1-1.7.516,2.708,2.708,0,0,0,3.566.334l13.776-10.008Z" transform="translate(-927.002 -565.282)" fill="#f0a002"/>
            <path id="Path_13052" data-name="Path 13052" d="M951.759,550.515l5.521,17.046,1.609,0-5.262-16.194a2.712,2.712,0,0,0-2.475-1.872A2.706,2.706,0,0,1,951.759,550.515Z" transform="translate(-933.707 -549.493)" fill="#f0a002"/>
            <path id="Path_13053" data-name="Path 13053" d="M982.613,576.377a2.711,2.711,0,0,0-2.475-1.872,2.71,2.71,0,0,1-.378,4.054l-13.776,10.008,5.262,16.193a2.711,2.711,0,0,1-2.579,3.55q-.1,0-.191-.006l.465.338a2.712,2.712,0,0,0,4.173-3.032l-5.262-16.194,13.776-10.008A2.712,2.712,0,0,0,982.613,576.377Z" transform="translate(-937.825 -556.437)" fill="#f0a002"/>
          </g>
        </g>
        <g id="Group_3742" data-name="Group 3742" transform="translate(137.947)">
          <path id="Path_13054" data-name="Path 13054" d="M1065.444,573.622c.025-.034.051-.067.076-.1s.035-.053.053-.08.045-.069.066-.1.032-.056.047-.085.038-.072.056-.108.027-.059.04-.089.032-.074.046-.111l.034-.092c.013-.038.025-.077.037-.116s.018-.062.027-.093.019-.079.027-.119.013-.063.019-.095.012-.082.017-.123.009-.062.012-.094.006-.085.008-.129,0-.06,0-.09c0-.046,0-.092,0-.139,0-.027,0-.055,0-.082,0-.056-.011-.112-.019-.168,0-.017,0-.035-.006-.053-.012-.073-.026-.147-.043-.22-.005-.02-.012-.038-.017-.058-.013-.05-.025-.1-.042-.149l0-.012c-.008-.024-.017-.047-.026-.071-.017-.048-.035-.095-.054-.14,0-.008-.005-.016-.009-.024-.011-.027-.025-.053-.038-.079s-.026-.056-.04-.083-.032-.057-.048-.085-.038-.069-.059-.1l-.022-.033a2.711,2.711,0,0,0-2.174-1.242l0,0c-.059,0-.118-.007-.178-.007h-16.952a.007.007,0,0,1-.007-.006l-5.26-16.188c-.022-.069-.048-.137-.074-.2-.009-.022-.021-.044-.03-.066-.02-.043-.038-.086-.059-.128-.013-.025-.028-.05-.042-.075s-.04-.074-.061-.109-.034-.051-.051-.076-.043-.067-.066-.1-.039-.05-.058-.074-.047-.06-.072-.089-.043-.048-.064-.071-.05-.055-.076-.082-.047-.045-.071-.067-.053-.05-.08-.074-.051-.042-.077-.063-.055-.045-.084-.066l-.082-.057c-.029-.02-.059-.04-.088-.059s-.058-.035-.087-.051l-.092-.052c-.03-.016-.061-.03-.092-.046l-.095-.043c-.032-.014-.064-.027-.1-.039l-.1-.037-.1-.032-.1-.028-.1-.025-.1-.021-.105-.016-.1-.013-.108-.008-.056,0,0,0c-.035,0-.071,0-.106,0a2.712,2.712,0,0,0-2.579,1.874l-5.26,16.188a.007.007,0,0,1-.007.006h-16.952a2.773,2.773,0,0,0-2.555,1.627,2.712,2.712,0,0,0,.891,3.279l13.771,10a.008.008,0,0,1,0,.009l-5.26,16.188a2.709,2.709,0,0,0,.608,2.7h0l.017.016c.042.044.085.085.13.126.014.013.028.027.043.04.06.052.123.1.188.15a2.71,2.71,0,0,0,3.187,0l13.771-10a.012.012,0,0,1,.01,0l13.3,9.667h0l.466.338a2.711,2.711,0,0,0,4.172-3.031l-5.26-16.188a.008.008,0,0,1,0-.009l13.771-10c.061-.045.121-.092.178-.142.019-.016.036-.034.055-.051.037-.034.074-.067.108-.1s.041-.044.06-.066.061-.066.09-.1Z" transform="translate(-1009.017 -549.96)" opacity="0.1"/>
          <path id="Path_13055" data-name="Path 13055" d="M1063.245,569.185a2.771,2.771,0,0,0-2.555-1.627h-16.952a.008.008,0,0,1-.008-.006l-5.26-16.188a2.712,2.712,0,0,0-5.158,0l-5.26,16.188a.009.009,0,0,1-.008.006h-16.952a2.771,2.771,0,0,0-2.555,1.627,2.712,2.712,0,0,0,.891,3.279l13.771,10a.007.007,0,0,1,0,.009l-5.26,16.188a2.712,2.712,0,0,0,4.173,3.032l13.77-10a.009.009,0,0,1,.01,0l13.771,10a2.711,2.711,0,0,0,4.172-3.032l-5.26-16.188a.007.007,0,0,1,0-.009l13.771-10A2.713,2.713,0,0,0,1063.245,569.185Z" transform="translate(-1008.311 -549.49)" fill="#fdba02"/>
          <path id="Path_13056" data-name="Path 13056" d="M1063.245,569.185a2.771,2.771,0,0,0-2.555-1.627h-16.952a.008.008,0,0,1-.008-.006l-5.26-16.188a2.712,2.712,0,0,0-5.158,0l-5.26,16.188a.009.009,0,0,1-.008.006h-16.952a2.771,2.771,0,0,0-2.555,1.627,2.712,2.712,0,0,0,.891,3.279l13.771,10a.007.007,0,0,1,0,.009l-5.26,16.188a2.712,2.712,0,0,0,4.173,3.032l13.77-10a.009.009,0,0,1,.01,0l13.771,10a2.711,2.711,0,0,0,4.172-3.032l-5.26-16.188a.007.007,0,0,1,0-.009l13.771-10A2.713,2.713,0,0,0,1063.245,569.185Z" transform="translate(-1008.311 -549.49)" fill="#ffcd00"/>
          <g id="Group_3741" data-name="Group 3741" transform="translate(10.238 0.002)">
            <path id="Path_13057" data-name="Path 13057" d="M1038.322,606.364l-14.14,10.274a2.706,2.706,0,0,1-1.7.516,2.743,2.743,0,0,0,.378.334,2.713,2.713,0,0,0,3.189,0l13.775-10.008Z" transform="translate(-1022.484 -565.282)" fill="#f0a002"/>
            <path id="Path_13058" data-name="Path 13058" d="M1047.242,550.515l5.52,17.046,1.609,0-5.262-16.194a2.711,2.711,0,0,0-2.475-1.872A2.717,2.717,0,0,1,1047.242,550.515Z" transform="translate(-1029.189 -549.493)" fill="#f0a002"/>
            <path id="Path_13059" data-name="Path 13059" d="M1078.1,576.377a2.713,2.713,0,0,0-2.475-1.872,2.711,2.711,0,0,1-.379,4.054l-13.775,10.008,5.262,16.193a2.712,2.712,0,0,1-2.58,3.55q-.1,0-.191-.006l.466.338a2.711,2.711,0,0,0,4.172-3.032l-5.262-16.194,13.776-10.008A2.713,2.713,0,0,0,1078.1,576.377Z" transform="translate(-1033.307 -556.437)" fill="#f0a002"/>
          </g>
        </g>
        <g id="Group_3744" data-name="Group 3744" transform="translate(206.921)">
          <path id="Path_13060" data-name="Path 13060" d="M1160.927,573.622c.026-.034.052-.067.076-.1s.035-.053.053-.08.045-.069.066-.1.031-.056.047-.085.038-.072.056-.108.027-.059.04-.089.032-.074.046-.111.023-.061.034-.092.025-.077.037-.116.019-.062.027-.093.019-.079.027-.119.013-.063.019-.095.012-.082.018-.123.008-.062.011-.094.006-.085.008-.129,0-.06,0-.09c0-.046,0-.092,0-.139,0-.027,0-.055,0-.082,0-.056-.011-.112-.019-.168,0-.017,0-.035-.006-.053-.011-.073-.026-.147-.043-.22,0-.02-.011-.038-.016-.058-.013-.05-.026-.1-.042-.149l-.005-.012c-.008-.024-.017-.047-.026-.071-.016-.048-.034-.095-.053-.14l-.01-.024c-.011-.027-.025-.053-.038-.079s-.026-.056-.04-.083-.031-.057-.048-.085-.038-.069-.059-.1l-.022-.033a2.71,2.71,0,0,0-2.174-1.242l0,0c-.058,0-.118-.007-.177-.007h-16.953a.008.008,0,0,1-.007-.006l-5.26-16.188c-.022-.069-.047-.137-.074-.2-.009-.022-.02-.044-.03-.066-.02-.043-.038-.086-.059-.128-.013-.025-.028-.05-.042-.075s-.04-.074-.061-.109-.033-.051-.051-.076-.043-.067-.066-.1-.038-.05-.058-.074-.046-.06-.071-.089-.043-.048-.065-.071l-.075-.082c-.023-.023-.048-.045-.072-.067s-.053-.05-.08-.074-.051-.042-.077-.063-.056-.045-.085-.066-.055-.038-.082-.057-.058-.04-.088-.059-.058-.035-.087-.051l-.091-.052c-.03-.016-.061-.03-.092-.046l-.095-.043c-.032-.014-.064-.027-.1-.039l-.1-.037-.1-.032-.1-.028-.1-.025-.1-.021-.105-.016-.1-.013-.108-.008-.056,0,0,0c-.035,0-.07,0-.106,0a2.712,2.712,0,0,0-2.579,1.874l-5.26,16.188a.008.008,0,0,1-.008.006h-16.952a2.773,2.773,0,0,0-2.555,1.627,2.713,2.713,0,0,0,.891,3.279l13.771,10a.009.009,0,0,1,0,.009l-5.26,16.188a2.712,2.712,0,0,0,.608,2.7h0l.017.016c.042.044.085.085.13.126.015.013.029.027.043.04.061.052.123.1.189.15a2.712,2.712,0,0,0,3.188,0l13.771-10a.011.011,0,0,1,.009,0l13.3,9.667h0l.466.338a2.711,2.711,0,0,0,4.172-3.031l-5.26-16.188a.009.009,0,0,1,0-.009l13.771-10c.062-.045.121-.092.178-.142.02-.016.037-.034.055-.051.037-.034.074-.067.109-.1l.059-.066c.03-.033.061-.066.09-.1S1160.907,573.647,1160.927,573.622Z" transform="translate(-1104.5 -549.96)" opacity="0.1"/>
          <path id="Path_13061" data-name="Path 13061" d="M1158.727,569.185a2.769,2.769,0,0,0-2.554-1.627h-16.952a.008.008,0,0,1-.008-.006l-5.26-16.188a2.712,2.712,0,0,0-5.158,0l-5.26,16.188a.008.008,0,0,1-.008.006h-16.952a2.77,2.77,0,0,0-2.554,1.627,2.711,2.711,0,0,0,.891,3.279l13.77,10a.009.009,0,0,1,0,.009l-5.26,16.188a2.712,2.712,0,0,0,4.173,3.032l13.771-10a.008.008,0,0,1,.009,0l13.771,10a2.712,2.712,0,0,0,4.173-3.032l-5.26-16.188a.008.008,0,0,1,0-.009l13.771-10A2.712,2.712,0,0,0,1158.727,569.185Z" transform="translate(-1103.794 -549.49)" fill="#fdba02"/>
          <path id="Path_13062" data-name="Path 13062" d="M1158.727,569.185a2.769,2.769,0,0,0-2.554-1.627h-16.952a.008.008,0,0,1-.008-.006l-5.26-16.188a2.712,2.712,0,0,0-5.158,0l-5.26,16.188a.008.008,0,0,1-.008.006h-16.952a2.77,2.77,0,0,0-2.554,1.627,2.711,2.711,0,0,0,.891,3.279l13.77,10a.009.009,0,0,1,0,.009l-5.26,16.188a2.712,2.712,0,0,0,4.173,3.032l13.771-10a.008.008,0,0,1,.009,0l13.771,10a2.712,2.712,0,0,0,4.173-3.032l-5.26-16.188a.008.008,0,0,1,0-.009l13.771-10A2.712,2.712,0,0,0,1158.727,569.185Z" transform="translate(-1103.794 -549.49)" fill="#ffcd00"/>
          <g id="Group_3743" data-name="Group 3743" transform="translate(10.238 0.002)">
            <path id="Path_13063" data-name="Path 13063" d="M1133.8,606.364l-14.14,10.274a2.7,2.7,0,0,1-1.7.516,2.653,2.653,0,0,0,.378.334,2.712,2.712,0,0,0,3.188,0l13.775-10.008Z" transform="translate(-1117.967 -565.282)" fill="#f0a002"/>
            <path id="Path_13064" data-name="Path 13064" d="M1142.724,550.515l5.52,17.046,1.609,0-5.262-16.194a2.711,2.711,0,0,0-2.475-1.872A2.715,2.715,0,0,1,1142.724,550.515Z" transform="translate(-1124.672 -549.493)" fill="#f0a002"/>
            <path id="Path_13065" data-name="Path 13065" d="M1173.578,576.377a2.712,2.712,0,0,0-2.475-1.872,2.711,2.711,0,0,1-.379,4.054l-13.775,10.008,5.262,16.193a2.712,2.712,0,0,1-2.579,3.55q-.1,0-.191-.006l.466.338a2.712,2.712,0,0,0,4.173-3.032l-5.262-16.194,13.775-10.008A2.712,2.712,0,0,0,1173.578,576.377Z" transform="translate(-1128.79 -556.437)" fill="#f0a002"/>
          </g>
        </g>
        <g id="Group_3746" data-name="Group 3746" transform="translate(275.894)">
          <path id="Path_13066" data-name="Path 13066" d="M1256.409,573.622c.026-.034.052-.067.076-.1s.036-.053.053-.08.045-.069.066-.1.032-.056.047-.085.038-.072.056-.108.027-.059.041-.089.031-.074.046-.111.023-.061.033-.092.025-.077.037-.116.019-.062.027-.093.019-.079.027-.119.014-.063.019-.095.013-.082.018-.123.009-.062.012-.094.006-.085.007-.129,0-.06,0-.09c0-.046,0-.092,0-.139,0-.027,0-.055,0-.082,0-.056-.011-.112-.018-.168,0-.017,0-.035-.006-.053-.011-.073-.025-.147-.043-.22,0-.02-.011-.038-.016-.058-.013-.05-.026-.1-.042-.149l0-.012c-.008-.024-.018-.047-.026-.071-.017-.048-.035-.095-.054-.14l-.009-.024c-.012-.027-.025-.053-.038-.079s-.026-.056-.04-.083-.031-.057-.047-.085-.039-.069-.06-.1l-.022-.033a2.71,2.71,0,0,0-2.174-1.242l0,0c-.059,0-.118-.007-.177-.007h-16.952a.008.008,0,0,1-.008-.006l-5.26-16.188c-.022-.069-.048-.137-.075-.2-.009-.022-.02-.044-.03-.066-.019-.043-.038-.086-.059-.128-.013-.025-.027-.05-.041-.075s-.041-.074-.062-.109-.033-.051-.05-.076-.043-.067-.066-.1-.038-.05-.058-.074-.046-.06-.071-.089-.043-.048-.065-.071-.049-.055-.075-.082-.048-.045-.072-.067-.053-.05-.08-.074-.051-.042-.077-.063-.056-.045-.084-.066l-.082-.057c-.029-.02-.058-.04-.088-.059s-.058-.035-.088-.051-.06-.035-.091-.052l-.093-.046c-.031-.014-.062-.03-.095-.043s-.064-.027-.1-.039-.064-.025-.1-.037l-.1-.032-.1-.028-.1-.025-.1-.021-.105-.016-.105-.013-.108-.008-.056,0v0c-.035,0-.07,0-.105,0a2.712,2.712,0,0,0-2.58,1.874l-5.26,16.188a.008.008,0,0,1-.008.006H1204.6a2.771,2.771,0,0,0-2.554,1.627,2.711,2.711,0,0,0,.891,3.279l13.771,10a.009.009,0,0,1,0,.009l-5.26,16.188a2.712,2.712,0,0,0,.608,2.7h0l.017.016c.042.044.086.085.131.126.014.013.028.027.043.04.06.052.122.1.188.15a2.712,2.712,0,0,0,3.188,0l13.771-10a.011.011,0,0,1,.009,0l13.3,9.667h0l.466.338a2.712,2.712,0,0,0,4.173-3.031l-5.26-16.188a.009.009,0,0,1,0-.009l13.771-10c.062-.045.121-.092.178-.142.02-.016.037-.034.055-.051.037-.034.074-.067.109-.1s.04-.044.06-.066.061-.066.089-.1S1256.389,573.647,1256.409,573.622Z" transform="translate(-1199.982 -549.96)" opacity="0.1"/>
          <path id="Path_13067" data-name="Path 13067" d="M1254.209,569.185a2.77,2.77,0,0,0-2.554-1.627H1234.7a.009.009,0,0,1-.008-.006l-5.26-16.188a2.711,2.711,0,0,0-5.158,0l-5.26,16.188a.008.008,0,0,1-.008.006h-16.952a2.77,2.77,0,0,0-2.554,1.627,2.712,2.712,0,0,0,.891,3.279l13.771,10a.008.008,0,0,1,0,.009l-5.26,16.188a2.712,2.712,0,0,0,4.173,3.032l13.771-10a.008.008,0,0,1,.009,0l13.771,10a2.712,2.712,0,0,0,4.173-3.032l-5.26-16.188a.01.01,0,0,1,0-.009l13.771-10A2.712,2.712,0,0,0,1254.209,569.185Z" transform="translate(-1199.276 -549.49)" fill="#fdba02"/>
          <path id="Path_13068" data-name="Path 13068" d="M1254.209,569.185a2.77,2.77,0,0,0-2.554-1.627H1234.7a.009.009,0,0,1-.008-.006l-5.26-16.188a2.711,2.711,0,0,0-5.158,0l-5.26,16.188a.008.008,0,0,1-.008.006h-16.952a2.77,2.77,0,0,0-2.554,1.627,2.712,2.712,0,0,0,.891,3.279l13.771,10a.008.008,0,0,1,0,.009l-5.26,16.188a2.712,2.712,0,0,0,4.173,3.032l13.771-10a.008.008,0,0,1,.009,0l13.771,10a2.712,2.712,0,0,0,4.173-3.032l-5.26-16.188a.01.01,0,0,1,0-.009l13.771-10A2.712,2.712,0,0,0,1254.209,569.185Z" transform="translate(-1199.276 -549.49)" fill="#ffcd00"/>
          <g id="Group_3745" data-name="Group 3745" transform="translate(10.238 0.002)">
            <path id="Path_13069" data-name="Path 13069" d="M1229.286,606.364l-14.14,10.274a2.7,2.7,0,0,1-1.7.516,2.708,2.708,0,0,0,3.566.334l13.776-10.008Z" transform="translate(-1213.449 -565.282)" fill="#f0a002"/>
            <path id="Path_13070" data-name="Path 13070" d="M1238.206,550.515l5.521,17.046,1.609,0-5.262-16.194a2.713,2.713,0,0,0-2.475-1.872A2.717,2.717,0,0,1,1238.206,550.515Z" transform="translate(-1220.154 -549.493)" fill="#f0a002"/>
            <path id="Path_13071" data-name="Path 13071" d="M1269.06,576.377a2.712,2.712,0,0,0-2.475-1.872,2.712,2.712,0,0,1-.379,4.054l-13.776,10.008,5.262,16.193a2.712,2.712,0,0,1-2.579,3.55c-.064,0-.128,0-.191-.006l.466.338a2.712,2.712,0,0,0,4.173-3.032l-5.262-16.194,13.775-10.008A2.711,2.711,0,0,0,1269.06,576.377Z" transform="translate(-1224.271 -556.437)" fill="#f0a002"/>
          </g>
        </g>
      </g>
    </g>
    <path id="Path_13080" data-name="Path 13080" d="M488.125,510.455c-7.728,9.444-12.167,20.454-12.167,32.214V795.74c0,28.768,32.329,52.088,72.209,52.088h494.691l146.329,64.5,12.931,32.7-180.564-79.594H542.64c-48.593,0-87.985-28.415-87.985-63.468V560.273C454.655,540.074,467.739,522.079,488.125,510.455Z" transform="translate(-454.655 -496.806)" opacity="0.1"/>
  </g>
</svg>
