<svg id="Group_62" data-name="Group 62" xmlns="http://www.w3.org/2000/svg" width="1204.229" height="137.715" viewBox="0 0 1204.229 137.715">
  <g id="Group_55" data-name="Group 55" transform="translate(0 0)">
    <path id="Path_189" data-name="Path 189" d="M408.082,509.855a39.67,39.67,0,0,0,.39-3.974c.024-24.328.109-48.656-.108-72.983-.025-2.807,1.421-3.338,6.021-3.337q571.145.093,1142.29.068c1.761,0,3.6-.244,5.277.3,1.022,1.063.514,2.215.515,3.321q.05,36.636.047,73.271c0,1.112-.434,2.259.454,3.338l.042.009c2.335.983,2.427,2.444,2.443,3.888.116,10.568.249,21.137-.065,31.7-.114,3.85-1.774,4.712-8.444,4.72q-40.375.054-80.75.012a20.684,20.684,0,0,1-5.792-.509c-2.142-.2-4.3-.1-6.45-.1q-479.242-.008-958.482.16-44.865.037-89.784.435c-8.852.072-9.968-.566-10.048-5.642-.158-10.058-.113-20.116-.006-30.173C405.649,512.744,405.4,511.026,408.082,509.855Z" transform="translate(-382.273 -412.487)" fill="#ffd837"/>
    <path id="Path_192" data-name="Path 192" d="M989.761,411.894h593.458c8.377,0,8.387,0,8.387,7.394q0,58.185-.07,116.37c-.006,2.4,1.676,6.408-3.025,6.51-5.085.11-3.551-4.051-3.556-6.644-.083-37.5-.138-75.005.054-112.507.021-4.188-1.056-5.319-5.9-5.318q-589.391.168-1178.784-.006c-5.126,0-6.141,1.347-6.121,5.605.179,37.341.1,74.683.1,112.025,0,1.287.067,2.581-.052,3.861a3.11,3.11,0,0,1-3.339,3.131c-2.313.056-3.15-1.254-3.262-3.077-.071-1.124-.052-2.253-.052-3.379q0-58.669,0-117.336c0-6.621.024-6.628,7.621-6.628Z" transform="translate(-387.595 -411.894)" fill="#ee980f"/>
    <path id="Path_195" data-name="Path 195" d="M1480.021,555.479c-1.613-1.134-1.38-2.633-1.377-4.056q.062-60.632.154-121.264c1.487,1.614.738,3.438.74,5.151q.076,56.964.058,113.929C1479.6,551.318,1479.873,553.4,1480.021,555.479Z" transform="translate(-299.857 -417.764)" fill="#e7a40f"/>
    <path id="Path_196" data-name="Path 196" d="M1488.031,567.119c0,11.907-.165,23.816.088,35.721.087,4.135-1.795,5.756-7.461,5.729-27.214-.128-54.431-.05-81.646-.063-3.042,0-6.835.137-6.962-2.9-.141-3.4,3.818-3.276,7.113-3.277,24.839-.006,49.681-.113,74.518.084,5.151.041,6.472-1.071,6.43-4.843-.236-21.721-.115-43.444-.114-65.167,0-1.126.015-2.253.012-3.379,0-2.211,1.113-3.967,4.357-3.876,2.974.083,3.649,1.9,3.649,3.84q0,10.62.018,21.24Q1488.038,558.672,1488.031,567.119Z" transform="translate(-325.548 -484.206)" fill="#fefdfc"/>
    <path id="Path_197" data-name="Path 197" d="M476.4,609.173c-15.983,0-31.972-.143-47.95.072-6.006.08-7.849-1.6-7.8-5.955.222-20.273.093-40.549.106-60.824,0-2.228-.519-5.116,3.735-5.171,4.618-.06,4.243,2.925,4.243,5.354,0,18.666.147,37.333-.122,56-.053,3.706,1.46,4.566,6.2,4.541,28.943-.149,57.886-.074,86.83-.073,1.729,0,3.457.015,5.184.016,2.584,0,5.075.485,5.243,2.677.181,2.389-2.154,3.327-5.121,3.345-5.4.032-10.8.02-16.2.021Q493.572,609.177,476.4,609.173Z" transform="translate(-377.788 -484.614)" fill="#fefefd"/>
  </g>
</svg>
