<?xml version="1.0" encoding="utf-8"?>
<!-- Generator: Adobe Illustrator 16.0.0, SVG Export Plug-In . SVG Version: 6.00 Build 0)  -->
<!DOCTYPE svg PUBLIC "-//W3C//DTD SVG 1.1//EN" "http://www.w3.org/Graphics/SVG/1.1/DTD/svg11.dtd">
<svg version="1.1" id="Layer_1" xmlns="http://www.w3.org/2000/svg" xmlns:xlink="http://www.w3.org/1999/xlink" x="0px" y="0px"
	 width="496.922px" height="504.466px" viewBox="0 0 496.922 504.466" enable-background="new 0 0 496.922 504.466"
	 xml:space="preserve">
<g id="Social_Media" transform="translate(1063.4 30416.469)">
	<g id="Group_6697" transform="translate(8.6 8.6)">
		<g id="Group_6695">
			<circle id="Ellipse_2254" fill="#382B73" cx="-823.539" cy="-30176.607" r="248.461"/>
		</g>
		<g id="Group_6696" transform="translate(33.505 33.505)">
			<circle id="Ellipse_2255" fill="#473080" cx="-857.044" cy="-30210.113" r="214.956"/>
		</g>
	</g>
	<path id="Path_18649" fill="#382B73" d="M-665.767-30122.57c-19.972-11.523-45.32-7.166-60.3,10.361l-16.643-9.6l-2.239-1.293
		c2.235-7.123,3.37-14.547,3.365-22.012c0-0.031,0-0.059,0-0.088s0-0.059,0-0.09c0-0.029,0-0.057,0-0.088s0-0.059,0-0.088
		s0-0.057,0-0.088s0-0.059,0-0.09s0-0.059,0-0.086c0-0.029,0-0.059,0-0.09s0-0.059,0-0.09s0-0.057,0-0.086s0-0.059,0-0.088
		s0-0.057,0-0.088s0-0.059,0-0.09s0-0.059,0-0.086c0-0.029,0-0.059,0-0.09s0-0.059,0-0.09s0-0.057,0-0.088s0-0.059,0-0.088
		c0-0.027,0-0.057,0-0.088s0-0.059,0-0.09s0-0.057,0-0.086s0-0.059,0-0.09s0-0.057,0-0.088s0-0.059,0-0.088s0-0.059,0-0.088
		c0-0.031,0-0.059,0-0.09s0-0.059,0-0.088s0-0.057,0-0.088s0-0.059,0-0.09s0-0.059,0-0.086c0-0.029,0-0.059,0-0.09s0-0.059,0-0.09
		s0-0.057,0-0.088s0-0.059,0-0.088c0-0.027,0-0.057,0-0.088s0-0.059,0-0.09s0-0.057,0-0.086s0-0.059,0-0.088s0-0.059,0-0.09
		c0-0.029,0-0.057,0-0.086s0-0.059,0-0.086c0-0.031,0-0.059,0-0.09s0-0.059,0-0.09s0-0.059,0-0.086c0-0.029,0-0.059,0-0.09
		s0-0.059,0-0.09c0-0.029,0-0.057,0-0.086s0-0.059,0-0.086c0-0.029,0-0.059,0-0.09s0-0.059,0-0.086c0-0.031,0-0.059,0-0.088
		s0-0.059,0-0.09c0-0.029,0-0.057,0-0.088s0-0.059,0-0.088s0-0.057,0-0.088s0-0.059,0-0.09s0-0.059,0-0.086c0-0.031,0-0.059,0-0.088
		s0-0.059,0-0.088c0-0.031,0-0.059,0-0.09s0-0.059,0-0.088s0-0.057,0-0.088s0-0.059,0-0.09s0-0.059,0-0.09c0-0.029,0-0.057,0-0.088
		s0-0.059,0-0.088c0-0.031,0-0.059,0-0.09s0-0.059,0-0.088s0-0.057,0-0.088s0-0.059,0-0.09s0-0.059,0-0.086c0-0.029,0-0.059,0-0.09
		s0-0.059,0-0.09s0-0.057,0-0.086s0-0.059,0-0.09s0-0.057,0-0.088s0-0.059,0-0.088c0-0.027,0-0.059,0-0.088c0-0.031,0-0.059,0-0.09
		s0-0.057,0-0.088s0-0.059,0-0.088s0-0.059,0-0.088c0-0.031,0-0.059,0-0.09s0-0.059,0-0.088s0-0.057,0-0.086s0-0.059,0-0.09
		s0-0.057,0-0.088s0-0.059,0-0.088s0-0.059,0-0.088c0-0.031,0-0.059,0-0.09s0-0.059,0-0.088s0-0.057,0-0.088s0-0.059,0-0.088
		s0-0.061,0-0.088c0.013-9.809-1.947-19.518-5.765-28.553c-0.046-0.107-0.1-0.213-0.146-0.32l21.425-12.361
		c17.164,20.096,47.368,22.473,67.463,5.309s22.472-47.369,5.308-67.465c-17.164-20.094-47.368-22.471-67.464-5.307
		c-15.062,12.865-20.64,33.682-14.029,52.354l-21.431,12.332c-0.685-0.912-1.389-1.809-2.113-2.691
		c-1.494-1.809-3.072-3.547-4.734-5.207c-1.662-1.664-3.398-3.242-5.209-4.734c-10.825-8.941-23.998-14.572-37.941-16.219v-24.748
		c25.985-4.814,43.146-29.783,38.331-55.768c-4.815-25.986-29.784-43.148-55.769-38.332c-25.985,4.816-43.146,29.783-38.331,55.77
		c3.61,19.48,18.851,34.721,38.331,38.33v24.76c-13.943,1.645-27.117,7.275-37.941,16.217c-1.811,1.494-3.547,3.072-5.209,4.732
		c-1.662,1.664-3.24,3.398-4.734,5.211c-0.726,0.879-1.431,1.777-2.114,2.691l-21.427-12.375c8.814-24.91-4.233-52.25-29.143-61.063
		c-24.909-8.816-52.248,4.232-61.063,29.141c-8.814,24.91,4.233,52.25,29.143,61.063c18.67,6.607,39.48,1.027,52.342-14.031
		l21.425,12.355c-0.046,0.107-0.1,0.211-0.146,0.318c-3.817,9.035-5.777,18.744-5.764,28.553c0,0.029,0,0.061,0,0.09
		c0,0.027,0,0.057,0,0.086s0,0.059,0,0.09s0,0.057,0,0.086s0,0.059,0,0.09s0,0.059,0,0.088c0,0.031,0,0.059,0,0.088s0,0.059,0,0.09
		c0,0.029,0,0.057,0,0.088s0,0.059,0,0.088c0,0.027,0,0.057,0,0.086s0,0.059,0,0.09s0,0.059,0,0.088c0,0.031,0,0.059,0,0.088
		s0,0.059,0,0.09c0,0.029,0,0.057,0,0.088s0,0.057,0,0.088s0,0.059,0,0.088s0,0.059,0,0.088c0,0.031,0,0.059,0,0.09s0,0.059,0,0.088
		s0,0.057,0,0.088s0,0.059,0,0.09s0,0.059,0,0.086c0,0.029,0,0.059,0,0.09s0,0.059,0,0.09s0,0.057,0,0.086s0,0.059,0,0.09
		s0,0.059,0,0.088c0,0.031,0,0.059,0,0.09s0,0.057,0,0.088s0,0.059,0,0.09s0,0.059,0,0.09s0,0.057,0,0.086s0,0.059,0,0.09
		s0,0.057,0,0.088s0,0.059,0,0.088c0,0.027,0,0.059,0,0.086c0,0.029,0,0.059,0,0.09s0,0.059,0,0.09c0,0.029,0,0.057,0,0.086
		s0,0.059,0,0.09s0,0.057,0,0.088s0,0.059,0,0.088c0,0.027,0,0.059,0,0.086c0,0.029,0,0.059,0,0.09s0,0.059,0,0.086
		c0,0.029,0,0.059,0,0.088s0,0.057,0,0.088s0,0.059,0,0.09s0,0.059,0,0.086c0,0.031,0,0.059,0,0.09s0,0.059,0,0.09s0,0.059,0,0.086
		c0,0.029,0,0.059,0,0.088s0,0.057,0,0.088s0,0.059,0,0.088s0,0.059,0,0.088c0,0.027,0,0.057,0,0.088s0,0.059,0,0.088
		c0,0.031,0,0.059,0,0.088s0,0.059,0,0.09c0,0.029,0,0.057,0,0.088s0,0.059,0,0.09s0,0.059,0,0.086c0,0.029,0,0.059,0,0.09
		s0,0.059,0,0.09s0,0.057,0,0.086s0,0.059,0,0.09s0,0.059,0,0.088c0,0.031,0,0.059,0,0.088s0,0.059,0,0.09c0,0.029,0,0.057,0,0.088
		s0,0.059,0,0.088c0,0.027,0,0.057,0,0.088s0,0.059,0,0.09c0,0.029,0,0.057,0,0.086s0,0.059,0,0.09c0,0.029,0,0.057,0,0.088
		s0,0.059,0,0.09s0,0.059,0,0.086c0,0.029,0,0.059,0,0.09s0,0.059,0,0.09s0,0.057,0,0.086s0,0.059,0,0.088s0,0.057,0,0.088
		s0,0.059,0,0.09s0,0.059,0,0.086c0,0.029,0,0.059,0,0.09s0,0.059,0,0.09s0,0.057,0,0.086s0,0.059,0,0.09s0,0.057,0,0.088
		s0,0.059,0,0.088c-0.005,7.465,1.129,14.891,3.365,22.014l-2.243,1.281l-16.643,9.6c-17.164-20.098-47.371-22.479-67.469-5.314
		c-20.099,17.164-22.478,47.371-5.314,67.471c17.164,20.098,47.371,22.477,67.47,5.313c15.064-12.863,20.645-33.68,14.037-52.355
		l13.183-7.611l4.2-2.424c11.685,19.328,31.622,32.195,54.046,34.883v16.434c-25.985,4.816-43.146,29.785-38.331,55.77
		s29.784,43.146,55.769,38.332c25.985-4.816,43.146-29.785,38.331-55.77c-3.61-19.48-18.851-34.721-38.331-38.332v-16.434
		c22.416-2.678,42.35-15.527,54.045-34.836l4.2,2.424l13.184,7.613c-8.816,24.91,4.231,52.252,29.143,61.068
		c24.912,8.814,52.253-4.232,61.068-29.145c7.693-21.738-1.213-45.871-21.184-57.398H-665.767z"/>
	<g id="Group_6730" transform="translate(66.444 64.587)">
		<g id="Group_6704" transform="translate(87.487 78.44)">
			<rect id="Rectangle_1246" x="-977.589" y="-30425.068" fill="#EF5A9D" width="17.438" height="228.068"/>
			<path id="Path_18650" fill="#EF5A9D" d="M-865.74-30360.5l-39.745,22.932l-45.926,26.533l-8.74,5.035l-8.719,5.035l-8.719,5.037
				l-58.245,33.627l-27.426,15.836l-8.74-15.111l30.9-17.834l54.77-31.629l8.74-5.037l8.719-5.035l8.72-5.037l44.053-25.428
				l41.618-24.031L-865.74-30360.5z"/>
			<path id="Path_18651" fill="#EF5A9D" d="M-865.74-30261.576l-8.74,15.107l-27.426-15.836l-58.245-33.629l-8.719-5.035
				l-8.719-5.037l-8.74-5.035l-45.926-26.533L-1072-30360.5l8.74-15.107l41.62,24.031l44.053,25.428l8.719,5.037l8.719,5.035
				l8.74,5.037l54.771,31.629L-865.74-30261.576z"/>
			<path id="Path_18652" fill="#A72973" d="M-896.641-30279.406c-1.046,5.896-2.814,11.641-5.266,17.105l-58.245-33.629v76.453
				c-5.791,0.695-11.646,0.695-17.438,0v-76.453l-58.244,33.629c-2.451-5.465-4.219-11.209-5.265-17.105l54.77-31.629
				l-45.926-26.533c11.6-19.861,31.831-33.145,54.666-35.896c5.792-0.691,11.646-0.691,17.438,0
				c22.836,2.754,43.066,16.039,54.665,35.902l-45.927,26.529L-896.641-30279.406z"/>
			<path id="Path_18653" fill="#D1D3D4" d="M-895.517-30310.947c0-0.029,0-0.059,0-0.088c0-40.512-32.843-73.355-73.356-73.355
				s-73.355,32.844-73.355,73.355l0,0c0,0.029,0,0.059,0,0.088s0,0.057,0,0.088s0,0.059,0,0.09s0,0.059,0,0.086
				c0,0.029,0,0.059,0,0.09s0,0.059,0,0.09s0,0.057,0,0.086s0,0.059,0,0.09s0,0.059,0,0.088c0,0.031,0,0.059,0,0.088
				s0,0.059,0,0.086c0,0.029,0,0.059,0,0.09s0,0.059,0,0.09s0,0.057,0,0.086s0,0.059,0,0.09s0,0.057,0,0.088s0,0.059,0,0.09
				s0,0.057,0,0.086s0,0.059,0,0.09s0,0.057,0,0.088s0,0.059,0,0.088s0,0.059,0,0.088c0,0.031,0,0.059,0,0.09s0,0.059,0,0.088
				s0,0.057,0,0.09c0,0.031,0,0.057,0,0.088s0,0.059,0,0.088s0,0.057,0,0.088s0,0.059,0,0.09s0,0.059,0,0.09s0,0.057,0,0.088
				s0,0.059,0,0.09c0,0.029,0,0.057,0,0.088s0,0.059,0,0.088s0,0.057,0,0.088s0,0.059,0,0.09s0,0.059,0,0.086
				c0,0.031,0,0.059,0,0.088s0,0.059,0,0.09c0,0.029,0,0.057,0,0.088s0,0.059,0,0.088s0,0.057,0,0.088s0,0.059,0,0.09
				s0,0.059,0,0.086c0,0.029,0,0.059,0,0.088s0,0.059,0,0.088c0,0.031,0,0.059,0,0.088s0,0.059,0,0.088c0,0.027,0,0.059,0,0.088
				c0,0.031,0,0.059,0,0.09s0,0.057,0,0.088c0,0.027,0,0.057,0,0.088s0,0.059,0,0.088c0,0.031,0,0.059,0,0.088s0,0.059,0,0.088
				c0,0.027,0,0.057,0,0.088s0,0.059,0,0.088c0,0.027,0,0.059,0,0.086c0,0.029,0,0.059,0,0.09s0,0.059,0,0.09
				c0,0.029,0,0.057,0,0.086s0,0.059,0,0.09s0,0.057,0,0.088s0,0.059,0,0.09c0,0.029,0,0.057,0,0.086s0,0.059,0,0.09
				s0,0.057,0,0.088s0,0.059,0,0.088s0,0.057,0,0.088s0,0.059,0,0.09s0,0.059,0,0.086c0,0.031,0,0.059,0,0.09s0,0.059,0,0.09
				s0,0.059,0,0.086c0,0.029,0,0.059,0,0.09s0,0.059,0,0.09c0,0.029,0,0.057,0,0.086s0,0.059,0,0.09s0,0.057,0,0.088s0,0.059,0,0.09
				c0,0.029,0,0.057,0,0.086s0,0.059,0,0.09s0,0.057,0,0.088s0,0.059,0,0.088s0,0.057,0,0.088c0,0.027,0,0.057,0,0.088
				s0,0.059,0,0.088c0,0.031,0,0.059,0,0.088s0,0.059,0,0.09c0,0.029,0,0.057,0,0.088s0,0.059,0,0.088s0,0.057,0,0.088
				s0,0.059,0,0.09s0,0.059,0,0.086c0,40.514,32.842,73.355,73.355,73.355s73.356-32.842,73.356-73.355c0-0.027,0-0.057,0-0.086
				s0-0.059,0-0.09s0-0.057,0-0.088s0-0.059,0-0.088c0-0.027,0-0.059,0-0.088c0-0.031,0-0.059,0-0.09s0-0.057,0-0.088
				c0-0.027,0-0.057,0-0.088s0-0.059,0-0.088c0-0.031,0-0.059,0-0.088s0-0.059,0-0.088c0-0.027,0-0.057,0-0.088s0-0.059,0-0.09
				s0-0.057,0-0.086s0-0.059,0-0.09s0-0.057,0-0.088s0-0.059,0-0.09s0-0.059,0-0.086c0-0.031,0-0.059,0-0.09s0-0.059,0-0.09
				s0-0.059,0-0.086c0-0.029,0-0.059,0-0.09s0-0.059,0-0.09c0-0.029,0-0.057,0-0.086s0-0.059,0-0.09s0-0.057,0-0.088
				s0-0.059,0-0.088c0-0.027,0-0.057,0-0.088s0-0.059,0-0.09s0-0.057,0-0.086s0-0.059,0-0.09s0-0.057,0-0.088s0-0.059,0-0.09
				s0-0.059,0-0.086c0-0.031,0-0.059,0-0.09s0-0.059,0-0.09s0-0.059,0-0.086c0-0.029,0-0.059,0-0.088s0-0.057,0-0.088
				s0-0.059,0-0.088s0-0.057,0-0.088c0-0.027,0-0.057,0-0.088s0-0.059,0-0.088c0-0.031,0-0.059,0-0.088s0-0.059,0-0.09
				c0-0.029,0-0.057,0-0.088s0-0.059,0-0.088s0-0.057,0-0.088c0-0.027,0-0.057,0-0.088s0-0.059,0-0.088c0-0.027,0-0.057,0-0.086
				s0-0.059,0-0.09s0-0.057,0-0.088s0-0.059,0-0.088c0-0.027,0-0.059,0-0.088c0-0.031,0-0.059,0-0.09s0-0.057,0-0.088
				c0-0.027,0-0.057,0-0.086s0-0.059,0-0.09s0-0.057,0-0.088s0-0.059,0-0.088c0-0.027,0-0.059,0-0.088c0-0.031,0-0.059,0-0.09
				s0-0.057,0-0.088s0-0.059,0-0.09s0-0.059,0-0.09s0-0.057,0-0.088s0-0.059,0-0.088c0-0.027,0-0.057,0-0.088s0-0.059,0-0.09
				s0-0.057,0-0.086s0-0.059,0-0.09s0-0.057,0-0.088s0-0.059,0-0.088s0-0.059,0-0.088c0-0.031,0-0.059,0-0.09s0-0.059,0-0.088
				s0-0.057,0-0.088s0-0.059,0-0.09s0-0.059,0-0.09c0-0.029,0-0.057,0-0.086s0-0.059,0-0.09s0-0.057,0-0.088s0-0.059,0-0.088
				c0-0.027,0-0.057,0-0.086s0-0.059,0-0.09s0-0.059,0-0.088c0-0.031,0-0.059,0-0.088s0-0.059,0-0.09c0-0.029,0-0.057,0-0.088
				s0-0.059,0-0.088c0-0.027,0-0.057,0-0.088S-895.517-30310.916-895.517-30310.947z"/>
			<circle id="Ellipse_2256" fill="#FFFFFF" cx="-968.87" cy="-30311.035" r="73.354"/>
			<path id="Path_18654" fill="#E6E7E8" d="M-917.664-30274.449c0-0.016,0-0.027,0-0.039c0-0.031-0.01-0.063-0.017-0.094
				c-0.035-0.195-0.084-0.391-0.145-0.578c-0.006-0.023-0.008-0.045-0.015-0.066l-4.688-13.988
				c-1.715-5.113-5.244-9.424-9.922-12.113l-17.846-8.219l-0.705-0.324l-1.169-0.539l0,0l0,0h-0.006l0,0l-1.542-1.238l-0.688-0.551
				c-0.275-0.223-0.613-0.355-0.966-0.383c-0.012,0-0.026,0-0.04,0v-6.73c1.285-1.393,2.43-2.906,3.419-4.523
				c0.445-0.727,0.866-1.482,1.259-2.258c0.676-1.35,1.263-2.742,1.756-4.168c0.209,0.082,0.424,0.148,0.644,0.199
				c3.178,0.574,6.351-2.268,7.09-6.352c0.063-0.385,0.103-0.773,0.119-1.162c0,0.021,0.006,0.043,0.008,0.064
				c0-0.047,0-0.1,0-0.145c0-0.082,0.022-0.168,0.025-0.25c0-0.191-0.023-0.375-0.029-0.563c-0.006-0.186-0.012-0.387-0.032-0.574
				c-0.011-0.09,0-0.186-0.016-0.275c0,0.002,0,0.006,0,0.01c-0.023-0.172-0.069-0.328-0.1-0.492
				c-0.037-0.201-0.08-0.387-0.129-0.574c-0.061-0.227-0.129-0.445-0.209-0.66c-0.068-0.191-0.147-0.373-0.229-0.555
				s-0.18-0.383-0.281-0.564s-0.218-0.35-0.337-0.518s-0.214-0.309-0.335-0.451c-0.145-0.162-0.298-0.318-0.46-0.463
				c-0.121-0.111-0.235-0.23-0.364-0.33c-0.197-0.146-0.404-0.275-0.621-0.389c-0.115-0.066-0.219-0.143-0.34-0.201
				c-0.813-0.385-1.728-0.502-2.611-0.334c-0.402-4.389-2.011-8.578-4.649-12.107c0,0,0,0,0-0.006l0,0l0,0
				c-0.019-0.025-0.04-0.049-0.058-0.072c-0.101-0.129-0.207-0.252-0.309-0.377c-0.089-0.107-0.177-0.223-0.271-0.33
				c0,0-0.006,0.008-0.008,0.012c-0.3-0.355-0.6-0.717-0.92-1.049c-0.492-0.508-1.01-0.988-1.552-1.441
				c-0.058-0.049-0.123-0.09-0.183-0.137c-0.145-0.117-0.301-0.223-0.443-0.334c-0.454-0.35-0.914-0.688-1.395-1
				c-0.209-0.135-0.428-0.258-0.643-0.387c-0.435-0.26-0.876-0.508-1.33-0.736c-0.25-0.125-0.5-0.24-0.757-0.355
				c-0.44-0.199-0.892-0.383-1.348-0.555c-0.273-0.098-0.544-0.199-0.82-0.289c-0.466-0.15-0.94-0.279-1.421-0.398
				c-0.277-0.07-0.551-0.146-0.834-0.199c-0.521-0.111-1.055-0.189-1.59-0.264c-0.248-0.033-0.491-0.08-0.743-0.105
				c-1.599-0.172-3.21-0.172-4.809,0c-0.25,0.025-0.491,0.072-0.739,0.105c-0.537,0.074-1.07,0.152-1.594,0.264
				c-0.283,0.057-0.558,0.133-0.834,0.199c-0.481,0.121-0.955,0.25-1.421,0.398c-0.277,0.09-0.547,0.191-0.82,0.289
				c-0.458,0.17-0.908,0.355-1.35,0.555c-0.254,0.113-0.506,0.23-0.753,0.355c-0.456,0.23-0.9,0.479-1.334,0.738
				c-0.214,0.127-0.431,0.25-0.641,0.385c-0.483,0.313-0.947,0.652-1.4,1.006c-0.141,0.109-0.291,0.209-0.431,0.324
				c-0.06,0.047-0.125,0.09-0.183,0.137c-0.542,0.453-1.06,0.934-1.552,1.441c-0.323,0.334-0.62,0.701-0.922,1.055
				c0,0-0.006-0.008-0.008-0.012c-0.092,0.105-0.177,0.219-0.266,0.326c-0.1,0.127-0.208,0.25-0.308,0.379l-0.062,0.074
				c0,0,0,0,0,0.006c-2.628,3.514-4.234,7.688-4.64,12.055c-0.431-0.047-0.865-0.035-1.292,0.039
				c-0.375,0.068-0.739,0.184-1.084,0.344c-0.119,0.055-0.225,0.133-0.339,0.199c-0.217,0.113-0.425,0.244-0.622,0.391
				c-0.129,0.1-0.243,0.219-0.364,0.33c-0.162,0.145-0.315,0.299-0.46,0.463c-0.121,0.141-0.227,0.299-0.335,0.451
				s-0.233,0.334-0.337,0.518s-0.194,0.369-0.281,0.563s-0.16,0.363-0.229,0.557c-0.079,0.213-0.146,0.432-0.206,0.658
				c-0.05,0.191-0.092,0.381-0.129,0.574c-0.031,0.168-0.077,0.326-0.1,0.494c0,0,0-0.008,0-0.012
				c-0.012,0.088-0.006,0.186-0.015,0.275c-0.019,0.188-0.025,0.383-0.031,0.574c-0.006,0.193-0.033,0.371-0.029,0.563
				c0,0.082,0.021,0.166,0.025,0.25c0,0.049,0,0.102,0,0.145c0-0.023,0.006-0.043,0.008-0.064c0.016,0.391,0.055,0.779,0.119,1.164
				c0.737,4.08,3.912,6.924,7.09,6.35c0.145-0.035,0.287-0.08,0.427-0.133c0.488,1.402,1.066,2.773,1.731,4.102
				c0.393,0.773,0.814,1.527,1.259,2.258c0.989,1.613,2.133,3.127,3.417,4.518v6.732c-0.185,0.008-0.367,0.047-0.539,0.113
				c-0.167,0.066-0.322,0.156-0.462,0.266l-0.676,0.543l-1.554,1.246l0,0l-19.729,9.086c-1.162,0.67-2.26,1.441-3.282,2.309l0,0
				c-0.67,0.578-1.304,1.197-1.9,1.852c-0.15,0.16-0.3,0.326-0.441,0.492c-0.141,0.166-0.3,0.322-0.443,0.492
				c-0.978,1.205-1.826,2.51-2.53,3.891c-0.1,0.201-0.2,0.4-0.3,0.602c-0.392,0.805-0.734,1.631-1.024,2.477l-4.706,13.988
				c-0.066,0.205-0.117,0.414-0.154,0.625c-0.008,0.047-0.017,0.092-0.023,0.135c0,0.02,0,0.037,0,0.053
				c-0.012,0.09-0.015,0.178-0.021,0.27c-0.006,0.074-0.017,0.148-0.019,0.223c0,0.016-0.008,0.031-0.008,0.047
				c0,0.018,0,0.018,0,0.027v0.02c0,0.078,0.012,0.154,0.017,0.234c0,0.055-0.006,0.111,0,0.168
				c0.006,0.057,0.019,0.086,0.025,0.129c0.006,0.043,0,0.068,0.008,0.1c0,0.01,0,0.023,0,0.033c0.019,0.119,0.05,0.23,0.077,0.348
				c0,0.021,0.01,0.043,0.015,0.061c0.017,0.063,0.019,0.129,0.037,0.191c0,0.018,0.015,0.029,0.019,0.045
				c0.004,0.018,0,0.016,0,0.023s0,0,0-0.006l0.012,0.031c0.059,0.174,0.128,0.346,0.21,0.512c0.037,0.08,0.069,0.166,0.11,0.246
				c0.13,0.242,0.282,0.471,0.454,0.686c0.186,0.227,0.394,0.436,0.62,0.621c0.313,0.248,0.659,0.453,1.028,0.605
				c0.048,0.021,0.085,0.061,0.135,0.08c0.144,0.057,0.291,0.105,0.443,0.15l41.181,11.537l0,0l0.15,0.041l0.755,0.213l0,0
				c0.487,0.137,0.974,0.256,1.467,0.357c0.493,0.102,0.986,0.188,1.482,0.254c0.069,0.01,0.139,0.006,0.208,0.016
				c0.119,0.016,0.237,0.01,0.354,0.023l0.017,0.021c0.325,0.035,0.647,0.076,0.974,0.1l-0.017-0.049
				c0.491,0.033,0.978,0.1,1.469,0.1l0,0c0.439,0,0.876-0.02,1.313-0.043c0.046,0,0.092-0.012,0.137-0.016v0.01
				c0.325-0.021,0.649-0.061,0.974-0.1l0.018-0.021c0.186-0.021,0.375-0.016,0.561-0.041c0.157-0.02,0.315-0.055,0.473-0.08
				c0.125-0.02,0.25-0.041,0.375-0.064c0.209-0.037,0.418-0.066,0.627-0.109c0.489-0.102,0.976-0.219,1.459-0.355
				c0.003,0,0.006,0,0.01,0l42.086-11.787c1.436-0.402,2.568-1.504,3.014-2.926l0,0c0-0.004,0-0.01,0-0.014
				c0.028-0.094,0.043-0.189,0.066-0.285c0.027-0.117,0.063-0.23,0.081-0.348c0-0.01,0-0.02,0-0.027s0-0.047,0-0.07
				C-917.618-30273.643-917.616-30274.047-917.664-30274.449z"/>
			<g id="Group_6703" transform="translate(51.869 55.808)">
				<g id="Group_6702" transform="translate(0.001)">
					<path id="Path_18655" fill="#D1D3D4" d="M-972.703-30329.549l-42.086,11.789c-3.892,1.09-8.008,1.09-11.9,0l-42.086-11.789
						c-2.345-0.654-3.714-3.088-3.058-5.434c0.02-0.072,0.042-0.145,0.066-0.217l4.688-13.984c1.715-5.117,5.245-9.426,9.922-12.115
						l19.729-9.088h33.379l19.728,9.088c4.679,2.688,8.208,6.998,9.923,12.115l4.688,13.984c0.775,2.311-0.469,4.811-2.777,5.586
						C-972.559-30329.59-972.631-30329.568-972.703-30329.549z"/>
					<rect id="Rectangle_1247" x="-1034.197" y="-30385.471" fill="#E7AD27" width="26.915" height="24.486"/>
					<path id="Path_18656" fill="#009ADD" d="M-1018.094-30357.566h-5.293l-4.208,39.555l0.905,0.254c3.892,1.09,8.008,1.09,11.9,0
						l0.905-0.254L-1018.094-30357.566z"/>
					<path id="Path_18657" fill="#136DA0" d="M-1018.092-30357.566h-5.294l-0.616,5.785l0.141,0.143
						c1.723,1.723,4.516,1.725,6.238,0.002c0,0,0-0.002,0.001-0.002l0.144-0.143L-1018.092-30357.566z"/>
					<path id="Path_18658" fill="#1CAEE4" d="M-1014.342-30357.568l-3.279,3.279c-1.723,1.723-4.515,1.725-6.238,0.002
						c0,0,0-0.002-0.001-0.002l-3.28-3.279c-0.345-0.344-0.346-0.902-0.001-1.248c0,0,0.001,0,0.001,0l6.4-6.4l6.4,6.4
						C-1013.996-30358.473-1013.997-30357.914-1014.342-30357.568z"/>
					<path id="Path_18659" fill="#EF5A9D" d="M-1004.049-30370.383l19.729,9.086c4.679,2.689,8.208,7,9.923,12.115l4.688,13.986
						c0.774,2.309-0.471,4.811-2.779,5.584c-0.07,0.025-0.142,0.045-0.213,0.066l-42.086,11.787
						c-1.938,0.543-3.939,0.818-5.951,0.818L-1004.049-30370.383z"/>
					<path id="Path_18660" fill="#EF5A9D" d="M-1037.43-30370.383l-19.729,9.086c-4.678,2.689-8.208,7-9.922,12.115l-4.685,13.986
						c-0.774,2.309,0.47,4.809,2.779,5.584c0.07,0.023,0.141,0.045,0.213,0.064l42.084,11.789c1.937,0.543,3.939,0.816,5.951,0.816
						L-1037.43-30370.383z"/>
					<path id="Path_18661" fill="#F06EA9" d="M-1071.946-30334.441c-0.032,0.209-0.049,0.418-0.052,0.627v0.01
						c0.001,0.211,0.017,0.422,0.048,0.631c0,0.025,0.006,0.049,0.01,0.074c0.034,0.213,0.083,0.422,0.148,0.627
						c0.008-0.027,0.015-0.055,0.023-0.08l4.688-13.986c1.715-5.115,5.245-9.426,9.922-12.115l19.729-9.088h0.826l-0.826-2.646
						l-17.835,8.215l-1.892,0.873c-4.677,2.689-8.207,7-9.922,12.113l-4.686,13.988c-0.066,0.203-0.118,0.412-0.154,0.623
						C-1071.931-30334.531-1071.94-30334.484-1071.946-30334.441z"/>
					<path id="Path_18662" fill="#F06EA9" d="M-969.536-30334.459c0-0.031-0.01-0.063-0.017-0.094
						c-0.037-0.219-0.09-0.436-0.16-0.646l-4.686-13.984c-1.716-5.117-5.246-9.426-9.923-12.115l-18.549-8.545l-1.179-0.543
						l-0.825,2.648h0.825l19.728,9.086c4.679,2.688,8.208,7,9.923,12.115l4.688,13.986c0.008,0.027,0.015,0.055,0.023,0.08
						c0.066-0.211,0.117-0.428,0.151-0.646c0-0.008,0-0.02,0-0.027C-969.469-30333.58-969.468-30334.023-969.536-30334.459z"/>
					<g id="Group_6698" transform="translate(34.57 52.506)">
						<path id="Path_18663" fill="#E6E7E8" d="M-1055.309-30417.721l-10.748,13.715l-5.943-18.885l2.235-1.791
							c0.565-0.455,1.35-0.516,1.979-0.156L-1055.309-30417.721z"/>
					</g>
					<g id="Group_6699" transform="translate(51.267 52.506)">
						<path id="Path_18664" fill="#E6E7E8" d="M-1072.003-30417.721l10.748,13.715l5.938-18.885l-2.229-1.791
							c-0.565-0.455-1.351-0.518-1.981-0.158L-1072.003-30417.721z"/>
					</g>
					<path id="Path_18665" fill="#FFFFFF" d="M-1008.258-30370.152c0.629-0.359,1.416-0.297,1.98,0.158l1.682,1.354l0.547-1.74
						l-2.229-1.793c-0.565-0.453-1.351-0.516-1.981-0.158l-12.477,7.117l1.18,1.508L-1008.258-30370.152z"/>
					<path id="Path_18666" fill="#FFFFFF" d="M-1033.218-30370.152c-0.629-0.359-1.415-0.297-1.979,0.158l-1.681,1.354l-0.547-1.74
						l2.229-1.793c0.565-0.453,1.35-0.516,1.979-0.158l12.475,7.119l-1.18,1.508L-1033.218-30370.152z"/>
					
						<ellipse id="Ellipse_2257" transform="matrix(-0.1779 -0.9841 0.9841 -0.1779 28684.832 -36830.5391)" fill="#F7CB15" cx="-1042.344" cy="-30397.426" rx="7.51" ry="5.847"/>
					
						<ellipse id="Ellipse_2258" transform="matrix(-0.984 -0.1779 0.1779 -0.984 3426.2988 -60487.6172)" fill="#F7CB15" cx="-998.848" cy="-30397.428" rx="5.847" ry="7.51"/>
					<path id="Path_18667" fill="#FFF335" d="M-1043.7-30403.555c3.178-0.574,6.351,2.27,7.09,6.352
						c0.063,0.363,0.106,0.73,0.127,1.1c0.056-0.789,0.013-1.582-0.127-2.359c-0.739-4.082-3.912-6.926-7.09-6.352
						c-2.89,0.521-4.78,3.693-4.545,7.334C-1048.024-30400.57-1046.249-30403.094-1043.7-30403.555z"/>
					<path id="Path_18668" fill="#FFF335" d="M-1004.623-30397.207c0.736-4.082,3.912-6.926,7.09-6.352
						c2.549,0.463,4.322,2.984,4.545,6.072c0.235-3.641-1.654-6.811-4.545-7.334c-3.178-0.574-6.352,2.27-7.09,6.352
						c-0.141,0.779-0.184,1.572-0.127,2.359C-1004.728-30396.477-1004.686-30396.844-1004.623-30397.207z"/>
					<path id="Path_18669" fill="#E7AD27" d="M-1041.028-30392.418c-3.178,0.574-6.351-2.268-7.09-6.352
						c-0.031-0.174-0.052-0.348-0.073-0.521c-0.126,0.965-0.102,1.943,0.073,2.9c0.739,4.082,3.912,6.926,7.09,6.352
						c3.042-0.549,4.978-4.033,4.491-7.906C-1036.918-30395.107-1038.631-30392.852-1041.028-30392.418z"/>
					<path id="Path_18670" fill="#E7AD27" d="M-993.117-30398.77c-0.738,4.082-3.912,6.926-7.09,6.352
						c-2.4-0.432-4.112-2.691-4.491-5.527c-0.487,3.879,1.45,7.359,4.491,7.908c3.178,0.574,6.352-2.268,7.09-6.352
						c0.175-0.957,0.199-1.936,0.073-2.9C-993.064-30399.115-993.084-30398.943-993.117-30398.77z"/>
					<path id="Path_18671" fill="#FEDE3A" d="M-1020.74-30425.07c-12.078,0-21.868,9.055-21.868,23.518
						c0,14.465,9.791,28.861,21.868,28.861s21.868-14.4,21.868-28.861C-998.872-30416.012-1008.66-30425.07-1020.74-30425.07z"/>
					<path id="Path_18672" fill="#F7CB15" d="M-1020.74-30376.885c-11.489,0-20.9-13.023-21.793-26.744
						c-0.046,0.68-0.075,1.369-0.075,2.076c0,14.463,9.791,28.859,21.868,28.859s21.868-14.4,21.868-28.859
						c0-0.705-0.029-1.4-0.075-2.076C-999.84-30389.91-1009.251-30376.885-1020.74-30376.885z"/>
					<path id="Path_18673" fill="#1CAEE4" d="M-1020.74-30425.07c-6.644-0.113-12.954,2.908-17.032,8.156
						c5.641,9.404,17.838,12.457,27.245,6.816c2.798-1.68,5.139-4.02,6.817-6.816
						C-1007.787-30422.16-1014.097-30425.184-1020.74-30425.07z"/>
					<path id="Path_18674" fill="#1CAEE4" d="M-1020.74-30425.07c-6.644-0.113-12.954,2.908-17.032,8.156
						c5.641,9.404,17.838,12.457,27.245,6.816c2.798-1.68,5.139-4.02,6.817-6.816
						C-1007.787-30422.16-1014.097-30425.184-1020.74-30425.07z"/>
					<path id="Path_18675" fill="#009ADD" d="M-1020.739-30409.041c-6.56,0.004-12.696-3.236-16.393-8.654
						c-0.216,0.256-0.433,0.512-0.637,0.779c5.643,9.406,17.843,12.457,27.249,6.814c2.796-1.678,5.136-4.018,6.813-6.814
						c-0.206-0.266-0.42-0.523-0.637-0.779C-1008.042-30412.277-1014.18-30409.037-1020.739-30409.041z"/>
					<path id="Path_18676" fill="#F06EA9" d="M-988.432-30333.742h-11.765c-0.69,0.002-1.251-0.559-1.251-1.248
						c0-0.002,0-0.002,0-0.002l0,0c0-0.691,0.559-1.25,1.249-1.25c0.001,0,0.001,0,0.002,0h11.767
						c0.689-0.002,1.25,0.559,1.25,1.248c0,0,0,0.002,0,0.002l0,0c0.001,0.691-0.559,1.25-1.248,1.25
						C-988.43-30333.742-988.43-30333.742-988.432-30333.742z"/>
					<path id="Path_18677" fill="#1CAEE4" d="M-1040.877-30393.01c0.428-0.002,0.775-0.35,0.773-0.777
						c0-0.045-0.004-0.088-0.012-0.131c-0.266-1.613-0.399-3.244-0.4-4.879c0-13.082,8.856-21.273,19.781-21.273
						c10.926,0,19.781,8.191,19.781,21.273c0,1.635-0.135,3.266-0.4,4.879c-0.074,0.422,0.208,0.824,0.63,0.896
						c0.044,0.008,0.088,0.012,0.132,0.012l0,0c0.361,0.002,0.676-0.244,0.763-0.592c0.636-2.602,0.961-5.271,0.968-7.949
						c0-14.465-9.791-23.52-21.868-23.52c-12.077,0-21.868,9.055-21.868,23.52c0.007,2.678,0.333,5.348,0.97,7.949
						c0.085,0.35,0.399,0.596,0.76,0.592H-1040.877z"/>
					<g id="Group_6700" transform="translate(30.279 9.868)">
						<path id="Path_18678" fill="#009ADD" d="M-1036.731-30425.07c-0.177,0.213-0.353,0.426-0.539,0.629
							c3.72,3.689,6.033,9.092,6.033,15.775c-0.001,1.635-0.135,3.266-0.399,4.877c-0.074,0.422,0.207,0.824,0.629,0.898
							c0.043,0.008,0.088,0.012,0.133,0.012c0.158-0.004,0.312-0.053,0.44-0.145c0.268-1.66,0.403-3.34,0.406-5.021
							C-1030.033-30415.311-1032.613-30421.152-1036.731-30425.07z"/>
						<path id="Path_18679" fill="#009ADD" d="M-1064.767-30424.439c-0.185-0.201-0.362-0.416-0.537-0.627
							c-4.118,3.918-6.7,9.758-6.7,17.027c0.003,1.682,0.139,3.359,0.406,5.02c0.346,0.246,0.825,0.166,1.071-0.18
							c0.12-0.17,0.167-0.381,0.129-0.586c-0.266-1.611-0.399-3.242-0.4-4.877
							C-1070.799-30415.348-1068.483-30420.75-1064.767-30424.439z"/>
					</g>
					<g id="Group_6701" transform="translate(29.392)">
						<path id="Path_18680" fill="#27C1E6" d="M-1069.913-30396.59c0.004,1.113,0.071,2.229,0.2,3.336
							c0.171-0.176,0.249-0.422,0.208-0.664c-0.205-1.25-0.332-2.508-0.381-3.773
							C-1069.907-30397.328-1069.913-30396.967-1069.913-30396.59z"/>
						<path id="Path_18681" fill="#27C1E6" d="M-1050.132-30422.863c11.707,0,21.266,8.506,21.842,22.199
							c0.008-0.301,0.026-0.594,0.026-0.889c0-14.465-9.791-23.518-21.868-23.518s-21.868,9.053-21.868,23.518
							c0,0.299,0.019,0.592,0.027,0.889C-1071.391-30414.357-1061.837-30422.863-1050.132-30422.863z"/>
						<path id="Path_18682" fill="#27C1E6" d="M-1030.37-30397.693c-0.049,1.264-0.176,2.525-0.382,3.773
							c-0.038,0.24,0.038,0.486,0.208,0.664c0.129-1.107,0.195-2.221,0.2-3.336
							C-1030.35-30396.963-1030.359-30397.328-1030.37-30397.693z"/>
					</g>
				</g>
				<path id="Path_18683" fill="#136DA0" d="M-1013.884-30318.012l-0.457-4.285l-0.448,0.127c-3.892,1.092-8.008,1.092-11.9,0
					l-0.449-0.127l-0.456,4.285l0.905,0.254c0.486,0.137,0.976,0.258,1.469,0.359s0.988,0.186,1.486,0.254
					c1.989,0.273,4.005,0.273,5.993,0c0.498-0.066,0.992-0.15,1.486-0.254c0.493-0.105,0.982-0.225,1.469-0.359L-1013.884-30318.012
					z"/>
				<path id="Path_18684" fill="#E43D91" d="M-969.71-30335.199l-0.307-0.908c-0.566,1.053-1.537,1.828-2.688,2.15l-42.086,11.787
					c-1.488,0.416-3.016,0.674-4.558,0.771l-1.39,4.457c0.441,0,0.88-0.02,1.321-0.047c1.566-0.092,3.118-0.352,4.63-0.771
					l42.086-11.789c2.347-0.658,3.714-3.094,3.056-5.439C-969.665-30335.059-969.686-30335.129-969.71-30335.199z"/>
				<path id="Path_18685" fill="#E43D91" d="M-1020.739-30316.941l-1.392-4.461c-1.542-0.096-3.07-0.354-4.559-0.77l-42.084-11.787
					c-1.152-0.322-2.123-1.098-2.689-2.15l-0.306,0.91c-0.582,1.736-0.03,3.652,1.386,4.816c0.35,0.287,0.743,0.518,1.163,0.684
					c0.144,0.057,0.291,0.107,0.443,0.15l42.084,11.789C-1024.755-30317.219-1022.752-30316.941-1020.739-30316.941z"/>
				<path id="Path_18686" fill="#E43D91" d="M-1022.184-30316.992l-16.125-51.629l-8.248,16.953
					c-0.199,0.447,0.002,0.971,0.449,1.17c0.068,0.031,0.139,0.053,0.213,0.064l4.986,0.346c0.494,0.096,0.816,0.574,0.72,1.068
					c-0.035,0.178-0.122,0.34-0.25,0.469l-3.85,3.932c-0.322,0.348-0.345,0.877-0.054,1.252l21.18,26.275
					C-1022.836-30317.053-1022.512-30317.012-1022.184-30316.992z"/>
				<path id="Path_18687" fill="#F06EA9" d="M-1037.425-30370.383l-8.245,16.955c-0.199,0.447,0.002,0.971,0.45,1.17
					c0.068,0.029,0.141,0.051,0.214,0.063l4.986,0.346c0.494,0.096,0.816,0.576,0.72,1.068c-0.035,0.178-0.122,0.342-0.25,0.469
					l-3.85,3.932c-0.322,0.35-0.345,0.879-0.054,1.254l22.719,28.186L-1037.425-30370.383z"/>
				<path id="Path_18688" fill="#E43D91" d="M-1019.283-30316.992l16.125-51.629l8.245,16.955c0.199,0.447-0.002,0.971-0.449,1.17
					c-0.068,0.029-0.14,0.051-0.213,0.064l-4.986,0.344c-0.494,0.096-0.815,0.576-0.719,1.068c0.034,0.18,0.121,0.342,0.249,0.471
					l3.851,3.932c0.321,0.348,0.344,0.877,0.054,1.252l-21.181,26.273C-1018.636-30317.053-1018.959-30317.012-1019.283-30316.992z"
					/>
				<path id="Path_18689" fill="#F06EA9" d="M-1004.041-30370.383l8.245,16.955c0.199,0.447-0.003,0.971-0.449,1.17
					c-0.068,0.029-0.141,0.051-0.215,0.063l-4.986,0.346c-0.494,0.096-0.816,0.576-0.72,1.068c0.034,0.178,0.122,0.342,0.25,0.469
					l3.85,3.932c0.322,0.35,0.345,0.879,0.054,1.254l-22.723,28.182L-1004.041-30370.383z"/>
			</g>
		</g>
		<g id="Group_6709" transform="translate(142.766)">
			<g id="Group_6706">
				<g id="Group_6705">
					<circle id="Ellipse_2259" fill="#EF5A9D" cx="-1024.149" cy="-30377.219" r="47.851"/>
				</g>
			</g>
			<g id="Group_6708" transform="translate(0 289.247)">
				<g id="Group_6707">
					<circle id="Ellipse_2260" fill="#EF5A9D" cx="-1024.149" cy="-30377.219" r="47.851"/>
				</g>
			</g>
		</g>
		<g id="Group_6714" transform="translate(0.001 54.793)">
			<g id="Group_6711" transform="translate(0 144.62)">
				<g id="Group_6710">
					<circle id="Ellipse_2261" fill="#EF5A9D" cx="-1006.636" cy="-30359.705" r="47.85"/>
				</g>
			</g>
			<g id="Group_6713" transform="translate(250.49)">
				<g id="Group_6712">
					<circle id="Ellipse_2262" fill="#EF5A9D" cx="-1006.635" cy="-30359.705" r="47.85"/>
				</g>
			</g>
		</g>
		<g id="Group_6719" transform="translate(0 54.803)">
			<g id="Group_6716" transform="translate(250.492 144.629)">
				<g id="Group_6715">
					<circle id="Ellipse_2263" fill="#EF5A9D" cx="-1006.635" cy="-30359.707" r="47.85"/>
				</g>
			</g>
			<g id="Group_6718">
				<g id="Group_6717">
					<circle id="Ellipse_2264" fill="#EF5A9D" cx="-1006.636" cy="-30359.707" r="47.85"/>
				</g>
			</g>
		</g>
		<g id="Group_6720" transform="translate(179.155 26.838)">
			<path id="Path_18690" fill="#E43D91" d="M-1072-30387.727v-26.416c0-2.58,2.09-4.67,4.669-4.67c0.98,0,1.936,0.309,2.731,0.883
				l18.328,13.211c2.093,1.508,2.565,4.428,1.057,6.52c-0.293,0.406-0.65,0.764-1.057,1.057l-18.328,13.217
				c-2.095,1.506-5.014,1.029-6.521-1.066C-1071.694-30385.787-1072.002-30386.744-1072-30387.727z"/>
			<path id="Path_18691" fill="#FFFFFF" d="M-1072-30393.973v-26.42c0-2.578,2.09-4.668,4.669-4.668c0.98,0,1.936,0.309,2.731,0.881
				l18.328,13.207c2.093,1.51,2.565,4.43,1.057,6.521c-0.293,0.406-0.65,0.764-1.057,1.057l-18.328,13.215
				c-2.094,1.508-5.013,1.031-6.52-1.063C-1071.693-30392.037-1072-30392.992-1072-30393.973z"/>
			<path id="Path_18692" fill="#D1D3D4" d="M-1046.273-30407.006l-18.326,13.213c-2.091,1.508-5.01,1.035-6.518-1.057
				c-0.573-0.795-0.882-1.752-0.882-2.732v3.613c0,2.578,2.09,4.668,4.669,4.668c0.98,0,1.936-0.309,2.731-0.881l18.328-13.213
				c1.76-1.273,2.404-3.594,1.552-5.594C-1045.042-30408.195-1045.581-30407.51-1046.273-30407.006z"/>
		</g>
		<g id="Group_6721" transform="translate(295.832 104.347)">
			<path id="Path_18693" fill="#E43D91" d="M-1035.671-30391.359h-32.591c-2.063,0-3.734-1.672-3.735-3.734v-17.836
				c0.001-2.063,1.673-3.734,3.735-3.734h32.593c2.063,0,3.734,1.672,3.735,3.734v17.834c0,2.063-1.671,3.736-3.734,3.736
				C-1035.669-30391.359-1035.67-30391.359-1035.671-30391.359z"/>
			<path id="Path_18694" fill="#D1D3D4" d="M-1035.671-30397.658h-32.591c-2.063-0.002-3.734-1.674-3.735-3.736v-17.832
				c0.001-2.063,1.673-3.734,3.735-3.734h32.593c2.063,0,3.734,1.672,3.735,3.734v17.834c0,2.063-1.672,3.734-3.734,3.734
				C-1035.669-30397.658-1035.67-30397.658-1035.671-30397.658z"/>
			<path id="Path_18695" fill="#FFFFFF" d="M-1035.671-30399.768h-32.591c-2.063,0-3.734-1.672-3.735-3.734v-17.834
				c0.001-2.063,1.673-3.734,3.735-3.734h32.593c2.063,0,3.734,1.672,3.735,3.734v17.832c0,2.064-1.671,3.736-3.734,3.736
				C-1035.669-30399.768-1035.67-30399.768-1035.671-30399.768z"/>
			<path id="Path_18696" fill="#FEDE3A" d="M-1035.671-30425.07h-32.593c-0.954,0-1.871,0.369-2.563,1.027l16.018,12.645
				c1.667,1.314,4.018,1.314,5.685,0l16.018-12.645C-1033.798-30424.701-1034.716-30425.07-1035.671-30425.07z"/>
		</g>
		<path id="Path_18697" fill="#E43D91" d="M-734.951-30161.219c0.427-0.381,0.665-0.93,0.651-1.5v-3.059
			c-0.005-0.076-0.014-0.15-0.027-0.225c-0.008-0.068-0.01-0.137-0.024-0.199c-0.039-0.199-0.109-0.393-0.208-0.57l-1.867-3.232
			c-0.464-0.801-1.427-1.168-2.306-0.877l-4.79,1.586l-2.683,0.885l-0.01-0.004c-0.621-0.512-1.281-0.973-1.973-1.381
			c-0.101-0.059-0.189-0.119-0.289-0.176c-0.676-0.383-1.38-0.713-2.106-0.99c-0.062-0.025-0.119-0.063-0.183-0.086l-1.594-7.699
			c-0.187-0.908-0.985-1.559-1.912-1.559h-3.731c-0.679,0-1.31,0.352-1.665,0.932c-0.119,0.193-0.203,0.404-0.248,0.627
			l-1.594,7.699c-0.064,0.023-0.119,0.059-0.183,0.084c-0.727,0.277-1.431,0.609-2.106,0.992c-0.1,0.057-0.19,0.115-0.289,0.174
			c-0.692,0.408-1.352,0.871-1.973,1.381l-0.01,0.006l-7.474-2.473c-0.879-0.291-1.843,0.076-2.306,0.879l-1.867,3.23
			c-0.099,0.178-0.169,0.371-0.208,0.57c-0.015,0.068-0.017,0.137-0.024,0.205c-0.014,0.074-0.022,0.148-0.027,0.223v3.061
			c-0.014,0.572,0.225,1.121,0.651,1.5l5.654,5.033v2.537l-0.714,0.637l-4.938,4.4c-0.192,0.178-0.348,0.393-0.454,0.633
			c-0.031,0.068-0.046,0.135-0.071,0.207c-0.06,0.174-0.093,0.355-0.1,0.541c0,0.043-0.025,0.082-0.025,0.127v3.061
			c-0.006,0.352,0.084,0.697,0.258,1l1.867,3.232c0.463,0.803,1.427,1.17,2.306,0.879l7.474-2.473
			c1.357,1.133,2.899,2.025,4.559,2.637l1.594,7.701c0.188,0.906,0.987,1.559,1.914,1.559h3.731
			c0.927-0.002,1.726-0.652,1.914-1.559l1.594-7.701c1.658-0.613,3.2-1.506,4.559-2.637l7.474,2.473
			c0.88,0.291,1.843-0.076,2.306-0.879l1.867-3.232c0.175-0.303,0.265-0.648,0.26-1v-3.059c0-0.043-0.022-0.082-0.024-0.127
			c-0.009-0.184-0.042-0.365-0.101-0.541c-0.02-0.07-0.043-0.141-0.071-0.207c-0.106-0.24-0.261-0.457-0.453-0.633l-5.652-5.037
			v-2.537L-734.951-30161.219z M-749.75-30154.305c-0.1,0.297-0.22,0.584-0.359,0.863c-0.106,0.221-0.224,0.438-0.353,0.648
			c-0.1,0.156-0.223,0.301-0.335,0.443c-0.135,0.174-0.271,0.352-0.422,0.512c-0.125,0.133-0.262,0.254-0.4,0.375
			c-0.167,0.154-0.343,0.299-0.525,0.432c-0.142,0.102-0.287,0.201-0.438,0.301c-0.206,0.125-0.419,0.242-0.637,0.346
			c-0.148,0.07-0.3,0.143-0.449,0.205c-0.257,0.098-0.52,0.18-0.787,0.242c-0.135,0.035-0.266,0.082-0.405,0.109
			c-0.842,0.172-1.71,0.172-2.552,0c-0.139-0.027-0.268-0.074-0.399-0.105c-0.268-0.066-0.531-0.148-0.789-0.246
			c-0.154-0.061-0.3-0.133-0.449-0.201c-0.218-0.105-0.433-0.219-0.639-0.344c-0.15-0.096-0.3-0.191-0.436-0.293
			c-0.183-0.135-0.357-0.283-0.525-0.436c-0.136-0.123-0.271-0.242-0.4-0.375c-0.152-0.162-0.287-0.34-0.424-0.514
			c-0.112-0.146-0.235-0.285-0.335-0.441c-0.129-0.209-0.245-0.424-0.351-0.645c-0.142-0.283-0.263-0.576-0.363-0.875
			c-0.069-0.199-0.143-0.404-0.191-0.617c0.868-3.635,4.518-5.877,8.151-5.01c2.48,0.594,4.417,2.529,5.009,5.01
			C-749.606-30154.717-749.681-30154.51-749.75-30154.305L-749.75-30154.305z"/>
		<g id="Group_6726" transform="translate(294.023 238.512)">
			<path id="Path_18698" fill="#D1D3D4" d="M-1034.624-30400.938l5.651-5.037c0.427-0.381,0.665-0.928,0.651-1.5v-3.059
				c0.006-0.35-0.084-0.695-0.258-1l-1.865-3.232c-0.463-0.803-1.426-1.168-2.306-0.877l-7.474,2.471
				c-1.357-1.133-2.899-2.023-4.559-2.637l-1.594-7.699c-0.188-0.908-0.987-1.559-1.914-1.559h-3.731
				c-0.927,0-1.726,0.652-1.914,1.559l-1.594,7.699c-1.659,0.613-3.2,1.504-4.559,2.637l-7.474-2.471
				c-0.879-0.293-1.843,0.074-2.306,0.877l-1.867,3.232c-0.175,0.305-0.264,0.65-0.258,1v3.059c-0.013,0.572,0.226,1.119,0.651,1.5
				l5.652,5.037v2.537l-5.651,5.035c-0.427,0.381-0.665,0.928-0.651,1.5v3.061c-0.006,0.352,0.084,0.697,0.258,1l1.867,3.232
				c0.463,0.803,1.427,1.17,2.306,0.879l7.474-2.473c1.358,1.133,2.899,2.025,4.559,2.637l1.594,7.701
				c0.188,0.906,0.987,1.559,1.914,1.559h3.732c0.927-0.002,1.726-0.652,1.914-1.559l1.594-7.701
				c1.659-0.611,3.201-1.504,4.56-2.637l7.473,2.473c0.88,0.291,1.843-0.076,2.306-0.879l1.865-3.232
				c0.175-0.303,0.265-0.648,0.258-1v-3.059c0.013-0.57-0.225-1.119-0.65-1.5l-5.652-5.035v-2.539H-1034.624z M-1050.158-30394.457
				c-3.137-0.004-5.862-2.16-6.586-5.211c0.861-3.639,4.508-5.889,8.145-5.027c2.492,0.59,4.438,2.535,5.027,5.027
				C-1044.296-30396.617-1047.021-30394.461-1050.158-30394.457z"/>
			<g id="Group_6725" transform="translate(0)">
				<g id="Group_6722" transform="translate(16.321)">
					<path id="Path_18699" fill="#FFFFFF" d="M-1060.959-30415.105H-1072l1.741-8.406c0.188-0.908,0.987-1.559,1.914-1.559h3.731
						c0.927,0,1.726,0.65,1.914,1.559L-1060.959-30415.105z"/>
					<path id="Path_18700" fill="#FFFFFF" d="M-1072-30387.357h11.041l-1.742,8.406c-0.188,0.908-0.987,1.561-1.914,1.559h-3.731
						c-0.927,0-1.726-0.65-1.914-1.559L-1072-30387.357z"/>
				</g>
				<g id="Group_6723" transform="translate(0.003 9.325)">
					<path id="Path_18701" fill="#FFFFFF" d="M-1064.936-30408.398l5.521,9.561l-8.151,2.701c-0.879,0.291-1.843-0.076-2.306-0.879
						l-1.867-3.23c-0.464-0.805-0.3-1.822,0.394-2.438L-1064.936-30408.398z"/>
					<path id="Path_18702" fill="#FFFFFF" d="M-1035.386-30412.711l-5.521-9.563l8.151-2.699c0.88-0.293,1.843,0.074,2.306,0.877
						l1.865,3.232c0.465,0.803,0.3,1.82-0.394,2.438L-1035.386-30412.711z"/>
				</g>
				<g id="Group_6724" transform="translate(0 9.325)">
					<path id="Path_18703" fill="#FFFFFF" d="M-1040.904-30398.838l5.521-9.561l6.411,5.711c0.69,0.617,0.854,1.635,0.393,2.438
						l-1.861,3.234c-0.463,0.803-1.426,1.17-2.306,0.879L-1040.904-30398.838z"/>
					<path id="Path_18704" fill="#FFFFFF" d="M-1059.414-30422.273l-5.521,9.561l-6.41-5.711c-0.691-0.617-0.855-1.635-0.394-2.438
						l1.867-3.232c0.463-0.803,1.427-1.17,2.306-0.877L-1059.414-30422.273z"/>
				</g>
			</g>
			<path id="Path_18705" fill="#FFFFFF" d="M-1050.158-30416.766c-8.579,0-15.534,6.955-15.534,15.535
				c0,8.578,6.955,15.533,15.534,15.533s15.534-6.955,15.534-15.533l0,0c0-8.578-6.953-15.535-15.532-15.535
				C-1050.157-30416.766-1050.157-30416.766-1050.158-30416.766z M-1050.158-30394.457c-3.74,0-6.773-3.033-6.773-6.773
				c0-3.742,3.033-6.773,6.773-6.773s6.773,3.031,6.773,6.773l0,0C-1043.385-30397.49-1046.418-30394.457-1050.158-30394.457z"/>
			<path id="Path_18706" fill="#E6E7E8" d="M-1050.158-30416.766c-8.579,0-15.534,6.955-15.534,15.535
				c0,8.578,6.955,15.533,15.534,15.533s15.534-6.955,15.534-15.533l0,0c0-8.578-6.953-15.535-15.532-15.535
				C-1050.157-30416.766-1050.157-30416.766-1050.158-30416.766z M-1050.158-30389.313c-6.583,0-11.919-5.336-11.919-11.918
				s5.336-11.92,11.919-11.92s11.919,5.338,11.919,11.92S-1043.575-30389.313-1050.158-30389.313z"/>
		</g>
		<path id="Path_18707" fill="#E43D91" d="M-989.508-30319.758h-34.247c-0.932,0-1.688,0.754-1.688,1.688l0,0v38.813
			c0,0.932,0.754,1.688,1.686,1.688c0.001,0,0.001,0,0.002,0h34.247c0.932,0,1.688-0.754,1.688-1.686c0-0.002,0-0.002,0-0.002
			v-38.813C-987.821-30319.004-988.577-30319.758-989.508-30319.758L-989.508-30319.758z"/>
		<g id="Group_6727" transform="translate(46.557 99.068)">
			<path id="Path_18708" fill="#BCBEC0" d="M-1036.065-30382.885h-34.247c-0.932,0-1.688-0.754-1.688-1.686c0,0,0-0.002,0-0.002
				v-36.957c-0.002-0.932,0.75-1.689,1.682-1.691c0.002,0,0.004,0,0.006,0h34.247c0.932,0,1.688,0.754,1.688,1.686
				c0,0,0,0.002,0,0.002v36.957c0.002,0.932-0.751,1.689-1.683,1.691C-1036.062-30382.885-1036.063-30382.885-1036.065-30382.885z"
				/>
			<path id="Path_18709" fill="#F7CB15" d="M-1036.065-30384.738h-34.247c-0.932,0-1.688-0.754-1.688-1.688c0,0,0,0,0,0v-36.957
				c0-0.934,0.754-1.688,1.686-1.689c0.001,0,0.001,0,0.002,0h34.247c0.932,0,1.688,0.756,1.688,1.686c0,0.002,0,0.002,0,0.004
				v36.957c0,0.93-0.754,1.688-1.686,1.688C-1036.064-30384.738-1036.064-30384.738-1036.065-30384.738z"/>
			<path id="Path_18710" fill="#FFFFFF" d="M-1061.227-30402.324l-10.765,15.811c0.042,0.99,0.856,1.773,1.848,1.775h23.957
				l-11.973-17.586c-0.577-0.846-1.73-1.066-2.578-0.488C-1060.93-30402.682-1061.096-30402.516-1061.227-30402.324z"/>
			<path id="Path_18711" fill="#FFFFFF" d="M-1034.377-30405.611l-4.769-7.006c-0.576-0.848-1.73-1.066-2.577-0.49
				c-0.192,0.131-0.359,0.297-0.49,0.49l-18.983,27.881h24.965c1.024,0,1.855-0.83,1.856-1.854c0-0.002,0-0.002,0-0.004v-19.018
				H-1034.377z"/>
			<circle id="Ellipse_2265" fill="#FFFFFF" cx="-1059.693" cy="-30413.15" r="4.755"/>
		</g>
		<path id="Path_18712" fill="#E43D91" d="M-855.004-30089.238c0.268,0,0.533-0.027,0.795-0.078
			c0.254-0.053,0.502-0.131,0.741-0.232c0.469-0.197,0.895-0.486,1.255-0.844c0.741-0.74,1.156-1.744,1.155-2.791
			c-0.003-0.23-0.026-0.463-0.071-0.691c-0.015-0.078-0.031-0.152-0.05-0.23c-0.015-0.055-0.021-0.111-0.037-0.168
			c0,0.008-0.006,0.014-0.008,0.021c-0.474-1.697-2.019-2.873-3.781-2.877h-18.463l2.2-7.09c1.012-3.27-0.611-6.773-3.758-8.117
			c-0.209-0.086-0.422-0.166-0.641-0.234c-0.107-0.031-0.215-0.055-0.326-0.066l0,0c-0.283-0.031-0.57,0.008-0.836,0.113l0,0l0,0
			c-0.498,0.191-0.881,0.602-1.041,1.109l-0.605,1.951c0,0-6.848,15.51-10.71,15.424v-0.963c0-1.447-1.174-2.621-2.622-2.621
			h-10.756c-1.448,0-2.622,1.174-2.622,2.621v28.283c0,1.447,1.174,2.621,2.622,2.621h10.752c1.448,0,2.622-1.174,2.622-2.621v-0.91
			h2.087c1.212-0.002,2.397,0.357,3.406,1.031c1.009,0.672,2.194,1.031,3.407,1.031h19.399c1.046,0.002,2.051-0.414,2.79-1.156
			c0.359-0.359,0.646-0.785,0.845-1.254c0.102-0.238,0.179-0.486,0.229-0.74c0.053-0.262,0.08-0.529,0.08-0.795l0,0
			c-0.002-0.232-0.025-0.465-0.07-0.691c-0.016-0.078-0.031-0.154-0.051-0.23c-0.014-0.057-0.021-0.113-0.036-0.17
			c0,0.008-0.007,0.016-0.009,0.023c-0.473-1.697-2.018-2.873-3.78-2.877h1.958c2.178-0.002,3.944-1.768,3.945-3.945
			c-0.003-0.234-0.026-0.465-0.071-0.691c-0.015-0.078-0.031-0.154-0.05-0.23c-0.016-0.057-0.021-0.113-0.037-0.17
			c0,0.008-0.006,0.014-0.008,0.021c-0.475-1.695-2.019-2.871-3.781-2.877h1.96c2.157,0.021,3.923-1.709,3.945-3.865
			c0.003-0.258-0.021-0.516-0.068-0.77c-0.015-0.08-0.031-0.156-0.05-0.234c-0.016-0.055-0.021-0.111-0.035-0.168
			c0,0.008-0.006,0.016-0.008,0.023c-0.474-1.699-2.019-2.875-3.781-2.879h1.966L-855.004-30089.238z"/>
		<g id="Group_6728" transform="translate(166.817 306.129)">
			<path id="Path_18713" fill="#FEDE3A" d="M-1045.294-30421.877c0,0-6.848,15.51-10.71,15.424
				c-3.862-0.086,3.319,2.914,3.319,2.914l6.09-4l4.41-10.135L-1045.294-30421.877z"/>
			<path id="Path_18714" fill="#FEDE3A" d="M-1048.964-30409.549l-3.094,3.096h-3.946v26.406h2.087c1.212,0,2.397,0.359,3.406,1.031
				l0,0c1.009,0.672,2.194,1.031,3.407,1.031h15.75v-31.563h-17.609V-30409.549z"/>
			<path id="Path_18715" fill="#F7CB15" d="M-1050.51-30381.197c-1.008-0.674-2.193-1.031-3.406-1.033h-2.088v2.184h2.087
				c1.212-0.002,2.397,0.357,3.406,1.031c1.009,0.672,2.194,1.031,3.407,1.031h15.75v-2.18h-15.75
				C-1048.316-30380.166-1049.501-30380.523-1050.51-30381.197z"/>
			<path id="Path_18716" fill="#E7AD27" d="M-1044.108-30409.549c3.15,4.383,2.152,10.488-2.229,13.639
				c-0.352,0.25-0.718,0.48-1.098,0.684c-0.525,0.291-0.714,0.953-0.422,1.477c0.099,0.178,0.245,0.324,0.422,0.422
				c3.18,1.705,5.165,5.02,5.164,8.629c0.001,0.529-0.043,1.059-0.129,1.582c-0.363,2.443,1.325,4.719,3.77,5.082
				c0.229,0.035,0.459,0.051,0.689,0.049h6.59v-31.563H-1044.108z"/>
			<path id="Path_18717" fill="#FEDE3A" d="M-1038.085-30416.641l-4.241,13.684l-8.057-2.5l5.701-18.379
				c0.287-0.926,1.271-1.445,2.199-1.158l0,0l0,0c3.521,1.092,5.49,4.83,4.399,8.35
				C-1038.085-30416.643-1038.085-30416.641-1038.085-30416.641z"/>
			<path id="Path_18718" fill="#FEDE3A" d="M-1023.782-30393.766h-10.057c-2.179,0-3.945-1.768-3.945-3.945l0,0
				c0-2.18,1.767-3.945,3.945-3.945h10.057c2.179,0,3.945,1.766,3.945,3.945l0,0
				C-1019.837-30395.533-1021.604-30393.766-1023.782-30393.766z"/>
			<path id="Path_18719" fill="#F7CB15" d="M-1023.782-30395.945h-10.057c-1.758,0-3.304-1.164-3.789-2.854
				c-0.606,2.088,0.596,4.273,2.684,4.879c0.359,0.105,0.731,0.158,1.105,0.156h10.057c2.175,0.004,3.941-1.756,3.945-3.93
				c0-0.375-0.052-0.746-0.156-1.105C-1020.479-30397.109-1022.024-30395.945-1023.782-30395.945z"/>
			<path id="Path_18720" fill="#FEDE3A" d="M-1025.742-30385.875h-10.058c-2.178,0-3.943-1.766-3.944-3.945l0,0
				c0.001-2.178,1.767-3.945,3.944-3.945h10.058c2.179,0,3.944,1.768,3.945,3.945l0,0
				C-1021.798-30387.641-1023.563-30385.875-1025.742-30385.875z"/>
			<path id="Path_18721" fill="#F7CB15" d="M-1025.742-30388.059h-10.058c-1.758,0-3.303-1.164-3.788-2.855
				c-0.606,2.09,0.595,4.273,2.684,4.881c0.359,0.104,0.731,0.158,1.104,0.156h10.058c2.175,0.004,3.941-1.756,3.945-3.932
				c0.001-0.373-0.052-0.746-0.156-1.105C-1022.438-30389.223-1023.983-30388.059-1025.742-30388.059z"/>
			<path id="Path_18722" fill="#FEDE3A" d="M-1027.702-30377.984h-10.057c-2.179,0-3.945-1.766-3.945-3.945l0,0
				c0-2.178,1.767-3.945,3.945-3.945h10.057c2.179,0,3.944,1.768,3.945,3.945l0,0
				C-1023.758-30379.75-1025.523-30377.984-1027.702-30377.984z"/>
			<path id="Path_18723" fill="#F7CB15" d="M-1027.702-30380.164h-10.057c-1.758-0.004-3.303-1.168-3.789-2.855
				c-0.606,2.088,0.595,4.273,2.684,4.879c0.359,0.105,0.731,0.156,1.105,0.156h10.057c2.175,0.004,3.941-1.756,3.945-3.93
				c0-0.375-0.052-0.746-0.156-1.105C-1024.399-30381.332-1025.944-30380.168-1027.702-30380.164z"/>
			<path id="Path_18724" fill="#FEDE3A" d="M-1021.823-30401.656h-10.057c-2.179-0.002-3.945-1.768-3.945-3.945l0,0
				c0-2.18,1.767-3.945,3.945-3.945h10.057c2.179,0,3.945,1.766,3.945,3.945l0,0c0.001,2.178-1.764,3.943-3.941,3.945
				C-1021.82-30401.656-1021.821-30401.656-1021.823-30401.656z"/>
			<path id="Path_18725" fill="#F7CB15" d="M-1021.823-30403.844h-10.057c-1.758,0-3.304-1.164-3.789-2.855
				c-0.606,2.09,0.596,4.273,2.684,4.881c0.359,0.104,0.731,0.156,1.105,0.156h10.057c2.175,0.004,3.941-1.756,3.945-3.932
				c0-0.373-0.052-0.746-0.156-1.105C-1018.519-30405.008-1020.064-30403.844-1021.823-30403.844z"/>
			<path id="Path_18726" fill="#FFFFFF" d="M-1058.626-30376.516h-10.752c-1.448,0-2.622-1.174-2.622-2.621v-28.281
				c0-1.447,1.174-2.621,2.622-2.621h10.752c1.448,0,2.622,1.174,2.622,2.621v28.281
				C-1056.004-30377.689-1057.178-30376.516-1058.626-30376.516z"/>
			<path id="Path_18727" fill="#D1D3D4" d="M-1058.626-30381.758h-10.752c-1.448,0-2.622-1.176-2.622-2.623v5.246
				c0,1.447,1.174,2.623,2.622,2.623h10.752c1.448,0,2.622-1.176,2.622-2.623v-5.246
				C-1056.004-30382.934-1057.178-30381.758-1058.626-30381.758z"/>
			<path id="Path_18728" fill="#F7CB15" d="M-1038.085-30416.641c1.092-3.52-0.879-7.258-4.398-8.35
				c-0.001,0-0.002-0.002-0.002-0.002l0,0c-0.105-0.031-0.215-0.055-0.324-0.066l-0.838,0.113l-0.017,0.008
				c0.169,0.027,1.746,0.428,2.793,5.713c1.106,5.59-1.459,16.264-1.459,16.264L-1038.085-30416.641z"/>
		</g>
		<g id="Group_6729" transform="translate(46.312 246.817)">
			<path id="Path_18729" fill="#E43D91" d="M-1037.382-30403.969c0.01,10.246-17.284,22.1-17.284,22.1s-17.317-11.824-17.326-22.07
				v-4.801c-0.014-5.014,4.04-9.092,9.056-9.105c3.529-0.01,6.744,2.025,8.244,5.219c2.125-4.543,7.53-6.504,12.074-4.381
				c3.197,1.496,5.238,4.707,5.235,8.238L-1037.382-30403.969z"/>
			<path id="Path_18730" fill="#D1D3D4" d="M-1037.386-30411.176c0.01,10.246-17.284,22.1-17.284,22.1s-17.317-11.822-17.326-22.068
				v-4.801c-0.014-5.016,4.04-9.094,9.056-9.105c3.529-0.012,6.744,2.023,8.244,5.219c2.125-4.545,7.53-6.506,12.074-4.381
				c3.197,1.494,5.238,4.707,5.235,8.236L-1037.386-30411.176z"/>
			<path id="Path_18731" fill="#FFFFFF" d="M-1062.911-30425.055c3.517,0.004,6.716,2.037,8.211,5.221
				c2.125-4.543,7.53-6.504,12.074-4.381c3.197,1.496,5.239,4.707,5.235,8.238c0.01,10.246-17.284,22.1-17.284,22.1
				s-17.317-11.824-17.326-22.07C-1072.005-30420.973-1067.936-30425.049-1062.911-30425.055z"/>
		</g>
	</g>
</g>
</svg>
