<?xml version="1.0" encoding="utf-8"?>
<!-- Generator: Adobe Illustrator 16.0.0, SVG Export Plug-In . SVG Version: 6.00 Build 0)  -->
<!DOCTYPE svg PUBLIC "-//W3C//DTD SVG 1.1//EN" "http://www.w3.org/Graphics/SVG/1.1/DTD/svg11.dtd">
<svg version="1.1" id="Layer_1" xmlns="http://www.w3.org/2000/svg" xmlns:xlink="http://www.w3.org/1999/xlink" x="0px" y="0px"
	 width="495.6px" height="495px" viewBox="0 0 495.6 495" enable-background="new 0 0 495.6 495" xml:space="preserve">
<filter  id="Ellipse_2245" x="0" y="0" width="495.6" height="495.6" filterUnits="userSpaceOnUse">
	<feOffset  dy="3" input="SourceAlpha"></feOffset>
	<feGaussianBlur  result="blur" stdDeviation="3"></feGaussianBlur>
	<feFlood  flood-opacity="0.161"></feFlood>
	<feComposite  in2="blur" operator="in"></feComposite>
	<feComposite  in="SourceGraphic" operator="over"></feComposite>
</filter>
<g id="Group_7016" transform="translate(-119 -119.027)">
	<g id="Social_Marketing" transform="translate(226 29086.027)">
		<g id="Group_6648">
			<g id="Group_6646">
				<g transform="matrix(1, 0, 0, 1, -9, -6)" filter="url(#Ellipse_2245)">
					<circle id="Ellipse_2245-2_1_" fill="#382B73" cx="149.8" cy="-28716.199" r="238.8"/>
				</g>
			</g>
			<g id="Group_6647" transform="translate(32.202 32.202)">
				<circle id="Ellipse_2246" fill="#473080" cx="108.598" cy="-28754.4" r="206.598"/>
			</g>
		</g>
		<path id="Path_18510" fill="#382B73" d="M244.632-28859.633H88.082c-6.431,0-11.644,5.213-11.644,11.643v10.037H45.044
			c-3.355,0-6.075,2.719-6.074,6.074l0,0v50.828c-0.001,3.354,2.719,6.074,6.074,6.074l0,0h4.748l5.262,7.152
			c1.689,2.297,4.92,2.789,7.217,1.1c0.419-0.309,0.79-0.68,1.099-1.1l5.262-7.152h7.806v8l0,0v27.953
			c-0.76,0.182-1.54,0.346-2.338,0.494c-1.564,0.283-3.216,0.5-4.986,0.641c-1.77,0.143-3.664,0.217-5.712,0.217l-28.09,0.012l0,0
			l-34.326,0.016c-5.597,0.002-10.133,4.541-10.132,10.139c0,0.002,0,0.002,0,0.004l0,0l0,0v0.141v5.814l0,0h-9.472
			c-2.239,0-4.054,1.816-4.054,4.055c0,0,0,0.002,0,0.002l0,0v0.006l0.008,18.09c0.001,2.24,1.817,4.055,4.056,4.055h9.472v5.584
			v0.373c0,0.063,0.018,0.123,0.02,0.188c0.076,4.738,3.436,8.789,8.08,9.738c0.672,0.137,1.356,0.207,2.042,0.207h7.408
			l2.418,16.008l0.99,0.83l6.11,5.123l1.358,9.646l0.512,3.635c0.379,2.35,1.537,4.504,3.286,6.117
			c0.03,0.027,0.054,0.061,0.084,0.09c4.213,3.645,10.584,3.184,14.229-1.029c1.901-2.197,2.763-5.107,2.364-7.986l-0.094-0.664
			l-4.472-31.785h0.134l28.09-0.012c4.375-0.07,8.742,0.377,13.01,1.334v8.033l0,0v26.699
			c-10.179,3.156-18.792,10.037-24.118,19.268c-0.654,1.133-1.228,2.289-1.768,3.455c-0.142,0.307-0.278,0.615-0.412,0.926
			c-0.448,1.029-0.858,2.07-1.218,3.119c-0.052,0.154-0.116,0.307-0.168,0.461c-0.392,1.184-0.716,2.377-1,3.578
			c-0.072,0.311-0.136,0.619-0.2,0.932c-0.212,1-0.39,2.012-0.528,3.023c-0.032,0.24-0.076,0.48-0.106,0.721
			c-0.144,1.199-0.23,2.41-0.27,3.615c-0.01,0.285-0.006,0.572-0.01,0.859c-0.006,0.5-0.028,1-0.016,1.5v7.137
			c0.359,23.463,19.671,42.191,43.133,41.832c12.782-0.195,24.797-6.137,32.712-16.174H244.63
			c6.427-0.002,11.636-5.211,11.635-11.637c0-0.002,0-0.002,0-0.004v-267.398c0.002-6.424-5.205-11.635-11.63-11.635
			C244.634-28859.633,244.633-28859.633,244.632-28859.633z M-9.135-28699.426l-0.008-20.199l0,0l0.006,12.131l0,0v8.064
			L-9.135-28699.426z"/>
		<g id="Group_6694" transform="translate(75.33 87.366)">
			<g id="Group_6693">
				<g id="Group_6650" transform="translate(99.108)">
					<g id="Group_6649">
						<path id="Path_18511" fill="#FFFFFF" d="M-98-28681.977v-267.379c0-6.43,5.213-11.643,11.644-11.645h156.55
							c6.427,0,11.636,5.211,11.636,11.637v267.395c0,6.426-5.209,11.635-11.636,11.635h-156.55
							C-92.787-28670.334-98-28675.547-98-28681.977z"/>
						<path id="Path_18512" fill="#1CAEE4" d="M-90.498-28683.193v-264.945c0-2.707,2.194-4.9,4.9-4.9l0,0h155.03
							c2.706,0,4.899,2.193,4.899,4.9v264.947c0,2.707-2.193,4.9-4.899,4.9h-155.03c-2.706,0-4.9-2.193-4.9-4.9
							C-90.498-28683.191-90.498-28683.191-90.498-28683.193z"/>
						<path id="Path_18513" fill="#009ADD" d="M-90.498-28703.336v20.145c0,2.707,2.194,4.9,4.9,4.9h155.03
							c2.706,0,4.899-2.193,4.899-4.9v-20.145H-90.498z"/>
					</g>
				</g>
				<g id="Group_6651" transform="translate(184.162 27.132)">
					<path id="Path_18514" fill="#009ADD" d="M-59.334-28785.928c-21.353-0.004-38.663,17.303-38.667,38.654
						c-0.002,10.156,3.992,19.902,11.119,27.137c0.488,0.488,0.976,0.977,1.479,1.414c1.99,1.824,4.163,3.436,6.484,4.813
						c0.016,0,0.016,0.016,0.032,0c1.265,0.758,2.579,1.432,3.934,2.016c0.212,0.113,0.422,0.195,0.634,0.293h0.017
						c1.873,0.789,3.809,1.426,5.785,1.898c0.424,0.115,0.846,0.213,1.252,0.293c1.646,0.34,3.314,0.574,4.99,0.699
						c0.977,0.082,1.95,0.115,2.942,0.115s1.966-0.033,2.941-0.115c1.677-0.125,3.344-0.359,4.99-0.699h0.017
						c0.405-0.1,0.827-0.18,1.235-0.293c1.978-0.473,3.913-1.109,5.786-1.898h0.017c0.212-0.102,0.422-0.18,0.634-0.293
						c1.358-0.586,2.678-1.26,3.95-2.016l0.016-0.016c2.324-1.365,4.498-2.973,6.486-4.795c0.5-0.455,1.008-0.926,1.479-1.43
						c14.981-15.207,14.799-39.68-0.408-54.66C-39.425-28781.939-49.177-28785.934-59.334-28785.928z"/>
					<path id="Path_18515" fill="#009ADD" d="M-59.334-28873.465c-21.353-0.004-38.663,17.303-38.667,38.654
						c-0.002,10.154,3.992,19.902,11.119,27.137c0.488,0.488,0.976,0.975,1.479,1.414c1.99,1.822,4.163,3.436,6.484,4.811
						c0.016,0,0.016,0.018,0.032,0c1.265,0.76,2.579,1.434,3.934,2.018c0.212,0.113,0.422,0.193,0.634,0.291h0.017
						c1.873,0.791,3.809,1.426,5.785,1.9c0.424,0.115,0.846,0.213,1.252,0.291c1.646,0.344,3.313,0.576,4.99,0.701
						c0.977,0.082,1.95,0.115,2.942,0.115s1.966-0.033,2.941-0.115c1.677-0.125,3.344-0.357,4.99-0.701h0.017
						c0.405-0.098,0.827-0.176,1.235-0.291c1.978-0.475,3.913-1.109,5.786-1.9h0.017c0.212-0.1,0.422-0.178,0.634-0.291
						c1.358-0.588,2.678-1.26,3.95-2.018l0.016-0.016c2.325-1.367,4.499-2.975,6.486-4.799c0.5-0.455,1.008-0.926,1.479-1.43
						c14.981-15.205,14.8-39.678-0.405-54.658c-7.237-7.131-16.99-11.125-27.148-11.119V-28873.465z"/>
					<path id="Path_18516" fill="#009ADD" d="M-85.402-28893.797c1.99,1.824,4.163,3.436,6.484,4.813c0.016,0,0.016,0.016,0.032,0
						c1.265,0.758,2.579,1.432,3.934,2.016c0.212,0.115,0.422,0.201,0.634,0.293h0.017c1.873,0.789,3.809,1.426,5.785,1.9
						c0.424,0.113,0.846,0.211,1.252,0.291c1.646,0.342,3.313,0.576,4.99,0.699c0.977,0.082,1.95,0.115,2.942,0.115
						s1.966-0.033,2.941-0.115c1.677-0.125,3.344-0.359,4.99-0.699h0.017c0.405-0.1,0.827-0.178,1.235-0.291
						c1.978-0.475,3.913-1.111,5.786-1.9h0.02c0.212-0.1,0.422-0.178,0.634-0.293c1.358-0.586,2.678-1.26,3.95-2.016l0.016-0.016
						c2.324-1.365,4.499-2.973,6.486-4.793c0.5-0.457,1.008-0.928,1.479-1.432c14.973-15.219,14.773-39.695-0.446-54.668
						c-15.221-14.973-39.696-14.773-54.67,0.447c-14.806,15.051-14.799,39.195,0.017,54.238
						C-86.393-28894.723-85.906-28894.234-85.402-28893.797z"/>
				</g>
				<g id="Group_6676" transform="translate(184.16 19.13)">
					<g id="Group_6659" transform="translate(0 175.074)">
						<path id="Path_18517" fill="#136DA0" d="M-20.664-28922.334c0.021,10.15-3.977,19.896-11.118,27.109
							c-0.472,0.5-0.976,0.977-1.48,1.43c-1.985,1.822-4.159,3.43-6.483,4.795l-0.017,0.016c-1.271,0.756-2.591,1.43-3.949,2.016
							c-0.212,0.113-0.422,0.195-0.635,0.293h-0.016c-1.873,0.789-3.809,1.426-5.786,1.898c-0.406,0.115-0.828,0.201-1.235,0.293
							H-51.4c-1.646,0.342-3.313,0.574-4.99,0.699c-0.976,0.082-1.949,0.115-2.941,0.115s-1.966-0.033-2.942-0.115
							c-1.676-0.125-3.344-0.359-4.99-0.699c-0.406-0.082-0.83-0.178-1.252-0.293c-1.977-0.473-3.912-1.109-5.785-1.898h-0.017
							c-0.212-0.102-0.422-0.18-0.634-0.293c-1.354-0.584-2.668-1.258-3.934-2.016c-0.017,0.016-0.017,0-0.033,0
							c-2.32-1.377-4.494-2.988-6.485-4.811c-0.5-0.438-0.992-0.926-1.478-1.414c-14.981-15.217-14.791-39.697,0.427-54.678
							c15.217-14.982,39.697-14.791,54.679,0.426C-24.655-28942.227-20.664-28932.484-20.664-28922.334L-20.664-28922.334z"/>
						<g id="Group_6658" transform="translate(11.12 15.514)">
							<g id="Group_6657">
								<g id="Group_6656">
									<path id="Path_18518" fill="#D1D3D4" d="M-56.164-28916.85l-0.91-0.422h-0.017l-0.015-0.014h-26.689l-14.205,6.564
										c0.488,0.488,0.976,0.977,1.478,1.414c1.99,1.824,4.163,3.436,6.486,4.811c0.016,0,0.016,0.016,0.032,0
										c1.265,0.758,2.579,1.432,3.934,2.016c0.212,0.113,0.422,0.195,0.634,0.293h0.017c1.873,0.789,3.809,1.426,5.785,1.898
										c0.422,0.115,0.846,0.213,1.252,0.293c1.646,0.342,3.313,0.574,4.99,0.699c0.977,0.082,1.95,0.115,2.942,0.115
										s1.966-0.033,2.941-0.115c1.677-0.125,3.344-0.359,4.99-0.699h0.017c0.405-0.1,0.83-0.178,1.235-0.293
										c1.978-0.473,3.913-1.107,5.786-1.898h0.017c0.212-0.102,0.422-0.18,0.634-0.293c1.358-0.586,2.678-1.26,3.95-2.016
										l0.016-0.016c2.324-1.365,4.498-2.973,6.484-4.795c0.5-0.455,1.008-0.926,1.479-1.43L-56.164-28916.85z"/>
									<rect id="Rectangle_1242" x="-81.209" y="-28929.344" fill="#E7AD27" width="21.515" height="19.574"/>
									<path id="Path_18519" fill="#009ADD" d="M-70.45-28899.182c-0.992,0-1.966-0.033-2.942-0.115l0.324-3.119l0.212-1.918
										l0.292-2.701h4.227l0.292,2.701l0.212,1.918l0.325,3.119C-68.484-28899.215-69.46-28899.182-70.45-28899.182z"/>
									<path id="Path_18520" fill="#136DA0" d="M-68.335-28907.039h-4.232l-0.492,4.623l0.114,0.115
										c1.377,1.375,3.609,1.377,4.986,0c0.001,0,0.001,0,0.002,0l0.113-0.115L-68.335-28907.039z"/>
									<path id="Path_18521" fill="#1CAEE4" d="M-65.336-28907.039l-2.622,2.623c-1.377,1.377-3.609,1.377-4.987,0.002
										c0,0,0-0.002-0.001-0.002l-2.622-2.623c-0.275-0.27-0.281-0.713-0.01-0.988c0.003-0.004,0.006-0.008,0.01-0.012
										l5.116-5.115l5.116,5.115c0.275,0.271,0.28,0.715,0.01,0.99C-65.329-28907.045-65.333-28907.041-65.336-28907.039z"/>
									<path id="Path_18522" fill="#EF5A9D" d="M-56.164-28916.85l-0.91-0.422h-0.017l-0.016-0.014l-0.438,1.398l-0.229,0.717
										l-0.357,1.17l-4.372,14.01c0.405-0.1,0.83-0.18,1.235-0.291c1.978-0.475,3.913-1.109,5.786-1.9h0.017
										c0.212-0.1,0.422-0.178,0.634-0.293c1.358-0.586,2.678-1.26,3.95-2.016l0.016-0.016c2.324-1.365,4.498-2.973,6.486-4.795
										c0.5-0.455,1.008-0.926,1.479-1.43L-56.164-28916.85z"/>
									<path id="Path_18523" fill="#EF5A9D" d="M-78.382-28899.994c-0.406-0.082-0.83-0.178-1.252-0.291
										c-1.977-0.475-3.912-1.109-5.785-1.9h-0.017c-0.212-0.1-0.422-0.178-0.634-0.293c-1.354-0.584-2.668-1.258-3.934-2.016
										c-0.017,0.016-0.017,0-0.032,0c-2.321-1.377-4.495-2.988-6.486-4.811c-0.5-0.438-0.991-0.926-1.478-1.414l14.205-6.566
										l0.438,1.4l0.228,0.713l0.391,1.27L-78.382-28899.994z"/>
									<path id="Path_18524" fill="#F06EA9" d="M-83.129-28915.176h-0.666l-0.422,0.193l-0.894,0.424l-0.032,0.016l-11.378,5.234
										c-0.5-0.438-0.991-0.926-1.478-1.414l14.205-6.563l0.438,1.398L-83.129-28915.176z"/>
									<path id="Path_18525" fill="#F06EA9" d="M-56.164-28916.85l13.262,6.111c-0.472,0.5-0.976,0.977-1.48,1.43l-11.378-5.234
										l-0.016-0.016l-0.91-0.424l-0.422-0.193h-0.666l0.229-0.715l0.438-1.398l0.016,0.016h0.017L-56.164-28916.85z"/>
									<g id="Group_6652" transform="translate(14.206 41.972)">
										<path id="Path_18526" fill="#E6E7E8" d="M-84.658-28955.129l-8.593,10.965l-4.75-15.102l1.787-1.434
											c0.451-0.361,1.078-0.41,1.582-0.123L-84.658-28955.129z"/>
									</g>
									<g id="Group_6653" transform="translate(27.554 41.973)">
										<path id="Path_18527" fill="#E6E7E8" d="M-98-28955.129l8.592,10.965l4.744-15.1l-1.782-1.432
											c-0.451-0.363-1.078-0.414-1.582-0.127L-98-28955.129z"/>
									</g>
									<path id="Path_18528" fill="#FFFFFF" d="M-60.474-28917.1c0.503-0.289,1.131-0.238,1.582,0.125l1.344,1.08l0.438-1.391
										l-1.782-1.43c-0.451-0.363-1.078-0.414-1.582-0.127l-9.972,5.686l0.944,1.199L-60.474-28917.1z"/>
									<path id="Path_18529" fill="#FFFFFF" d="M-80.425-28917.1c-0.504-0.289-1.132-0.238-1.582,0.125l-1.345,1.08l-0.438-1.391
										l1.783-1.43c0.451-0.363,1.078-0.414,1.582-0.127l9.972,5.689l-0.944,1.199L-80.425-28917.1z"/>
									
										<ellipse id="Ellipse_2247" transform="matrix(-0.1779 -0.984 0.984 -0.1779 28373.75 -34174.6172)" fill="#F7CB15" cx="-87.711" cy="-28938.898" rx="6.004" ry="4.674"/>
									
										<ellipse id="Ellipse_2248" transform="matrix(-0.984 -0.1779 0.1779 -0.984 5043.771 -57425.5)" fill="#F7CB15" cx="-52.941" cy="-28938.9" rx="4.674" ry="6.003"/>
									<path id="Path_18530" fill="#FFF335" d="M-88.806-28943.801c2.541-0.459,5.076,1.814,5.666,5.076
										c0.051,0.291,0.084,0.584,0.1,0.877c0.047-0.631,0.013-1.264-0.1-1.887c-0.59-3.262-3.125-5.535-5.666-5.076
										c-2.31,0.418-3.82,2.953-3.632,5.861C-92.261-28941.414-90.843-28943.432-88.806-28943.801z"/>
									<path id="Path_18531" fill="#FFF335" d="M-57.568-28938.723c0.59-3.262,3.126-5.535,5.666-5.074
										c2.038,0.367,3.456,2.385,3.632,4.854c0.188-2.91-1.322-5.445-3.632-5.863c-2.54-0.459-5.078,1.814-5.666,5.076
										c-0.112,0.623-0.146,1.256-0.1,1.887C-57.652-28938.139-57.619-28938.432-57.568-28938.723z"/>
									<path id="Path_18532" fill="#E7AD27" d="M-86.67-28934.896c-2.541,0.461-5.078-1.814-5.666-5.076
										c-0.026-0.139-0.043-0.277-0.059-0.416c-0.101,0.771-0.081,1.555,0.059,2.32c0.59,3.262,3.125,5.537,5.666,5.076
										c2.43-0.439,3.978-3.223,3.59-6.322C-83.384-28937.047-84.752-28935.244-86.67-28934.896z"/>
									<path id="Path_18533" fill="#E7AD27" d="M-48.37-28939.973c-0.59,3.262-3.126,5.537-5.666,5.076
										c-1.916-0.346-3.286-2.15-3.59-4.418c-0.389,3.1,1.157,5.883,3.59,6.322c2.54,0.461,5.076-1.814,5.666-5.076
										c0.141-0.766,0.16-1.549,0.058-2.32C-48.328-28940.252-48.348-28940.111-48.37-28939.973z"/>
									<path id="Path_18534" fill="#FEDE3A" d="M-70.45-28960.998c-9.654,0-17.481,7.238-17.481,18.799
										c0,11.563,7.825,23.07,17.481,23.07s17.481-11.508,17.481-23.07C-52.968-28953.76-60.796-28960.998-70.45-28960.998z"/>
									<path id="Path_18535" fill="#F7CB15" d="M-70.45-28922.48c-9.185,0-16.708-10.412-17.42-21.377
										c-0.036,0.543-0.06,1.094-0.06,1.658c0,11.561,7.825,23.07,17.481,23.07s17.481-11.51,17.481-23.07
										c0-0.564-0.023-1.117-0.06-1.658C-53.744-28932.893-61.27-28922.48-70.45-28922.48z"/>
									<path id="Path_18536" fill="#1CAEE4" d="M-70.45-28960.998c-5.312-0.09-10.355,2.326-13.616,6.52
										c4.511,7.52,14.264,9.959,21.783,5.447c2.235-1.34,4.105-3.211,5.447-5.447
										C-60.096-28958.672-65.139-28961.086-70.45-28960.998z"/>
									<path id="Path_18537" fill="#1CAEE4" d="M-70.45-28960.998c-5.312-0.09-10.355,2.326-13.616,6.52
										c4.511,7.52,14.264,9.959,21.783,5.447c2.235-1.34,4.105-3.211,5.447-5.447
										C-60.096-28958.672-65.139-28961.086-70.45-28960.998z"/>
									<path id="Path_18538" fill="#009ADD" d="M-70.452-28948.184c-5.242,0-10.146-2.588-13.101-6.918
										c-0.174,0.199-0.346,0.41-0.51,0.623c4.512,7.52,14.264,9.959,21.783,5.447c2.235-1.34,4.105-3.211,5.447-5.447
										c-0.164-0.213-0.336-0.42-0.511-0.623C-60.299-28950.77-65.207-28948.18-70.452-28948.184z"/>
									<path id="Path_18539" fill="#1CAEE4" d="M-86.548-28935.371c0.342,0,0.619-0.277,0.617-0.619
										c0-0.035-0.002-0.07-0.009-0.105c-0.212-1.289-0.319-2.594-0.321-3.9c0-10.457,7.08-17,15.812-17s15.812,6.547,15.812,17
										c-0.002,1.307-0.109,2.611-0.321,3.9c-0.06,0.336,0.166,0.658,0.502,0.717c0.035,0.006,0.07,0.008,0.105,0.008l0,0
										c0.288,0.002,0.539-0.193,0.608-0.473c0.509-2.08,0.769-4.215,0.773-6.355c0-11.563-7.825-18.801-17.481-18.801
										s-17.482,7.238-17.482,18.801c0.007,2.141,0.267,4.273,0.774,6.355C-87.088-28935.564-86.836-28935.371-86.548-28935.371z"
										/>
									<g id="Group_6654" transform="translate(10.774 7.89)">
										<path id="Path_18540" fill="#009ADD" d="M-69.809-28961c-0.141,0.17-0.282,0.34-0.43,0.5
											c3.247,3.379,4.989,7.928,4.829,12.613c-0.002,1.305-0.109,2.609-0.321,3.898c-0.063,0.334,0.158,0.654,0.491,0.717
											c0.164,0.029,0.333-0.008,0.469-0.104c0.213-1.328,0.321-2.67,0.324-4.016
											C-64.448-28953.199-66.509-28957.869-69.809-28961z"/>
										<path id="Path_18541" fill="#009ADD" d="M-92.216-28960.496c-0.147-0.164-0.29-0.334-0.431-0.5
											c-3.291,3.131-5.354,7.799-5.354,13.611c0.003,1.346,0.111,2.686,0.324,4.014c0.276,0.197,0.66,0.133,0.856-0.145
											c0.097-0.135,0.134-0.303,0.104-0.467c-0.214-1.289-0.321-2.594-0.321-3.9
											C-97.199-28952.566-95.46-28957.115-92.216-28960.496z"/>
									</g>
									<g id="Group_6655" transform="translate(10.068)">
										<path id="Path_18542" fill="#27C1E6" d="M-96.331-28938.234c0.001,0.891,0.053,1.781,0.155,2.666
											c0.136-0.141,0.198-0.336,0.168-0.529c-0.163-0.998-0.263-2.006-0.3-3.016
											C-96.324-28938.824-96.331-28938.529-96.331-28938.234z"/>
										<path id="Path_18543" fill="#27C1E6" d="M-80.518-28959.236c9.357,0,17,6.801,17.46,17.746
											c0.006-0.236,0.021-0.475,0.021-0.709c0-11.563-7.825-18.801-17.481-18.801s-17.481,7.238-17.481,18.801
											c0,0.234,0.016,0.473,0.021,0.709C-97.518-28952.436-89.876-28959.236-80.518-28959.236z"/>
										<path id="Path_18544" fill="#27C1E6" d="M-64.724-28939.113c-0.037,1.01-0.137,2.018-0.3,3.016
											c-0.031,0.191,0.03,0.389,0.166,0.529c0.102-0.885,0.154-1.775,0.155-2.666
											C-64.706-28938.529-64.714-28938.824-64.724-28939.113z"/>
									</g>
								</g>
								<path id="Path_18545" fill="#E43D91" d="M-79.634-28900.289c-1.977-0.473-3.912-1.107-5.785-1.898h-0.017
									c-0.212-0.102-0.422-0.18-0.634-0.293c-1.354-0.584-2.668-1.258-3.934-2.016c-0.017,0.016-0.017,0-0.032,0l4.892-10.043
									l0.65-1.316v0.031l0.275,0.846L-79.634-28900.289z"/>
								<path id="Path_18546" fill="#F06EA9" d="M-78.382-28899.994c-0.406-0.082-0.83-0.178-1.252-0.291
									c-1.977-0.475-3.912-1.109-5.785-1.9h-0.017c-0.212-0.1-0.422-0.178-0.634-0.293c-1.354-0.584-2.668-1.258-3.934-2.016
									l4.892-10.061l0.618-1.268l0.699-1.463l0.438,1.402l0.228,0.713l0.391,1.268L-78.382-28899.994z"/>
								<path id="Path_18547" fill="#E43D91" d="M-55.639-28914.314l-0.113-0.229l-0.017-0.016l-0.634-1.299l-0.276,0.877
									l-4.584,14.695c1.978-0.475,3.913-1.109,5.786-1.9h0.017c0.212-0.1,0.422-0.178,0.634-0.293
									c1.358-0.588,2.678-1.26,3.95-2.016l0.016-0.016L-55.639-28914.314z"/>
								<path id="Path_18548" fill="#F06EA9" d="M-50.882-28904.496c-1.271,0.756-2.591,1.43-3.949,2.016
									c-0.212,0.113-0.422,0.195-0.635,0.293h-0.016c-1.873,0.789-3.809,1.426-5.786,1.898c-0.406,0.115-0.828,0.201-1.235,0.293
									l4.371-14.01l0.374-1.17l0.666-2.1h0.017l0.666,1.414l0.634,1.299l0.016,0.016l0.114,0.229L-50.882-28904.496z"/>
							</g>
						</g>
					</g>
					<g id="Group_6667" transform="translate(0 87.536)">
						<path id="Path_18549" fill="#136DA0" d="M-20.664-28922.332c0.021,10.152-3.977,19.898-11.118,27.111
							c-0.472,0.5-0.976,0.975-1.48,1.43c-1.985,1.822-4.159,3.43-6.483,4.795l-0.017,0.016c-1.271,0.754-2.591,1.428-3.949,2.016
							c-0.212,0.113-0.422,0.193-0.635,0.291h-0.016c-1.873,0.791-3.809,1.428-5.786,1.9c-0.406,0.113-0.828,0.199-1.235,0.293
							H-51.4c-1.646,0.34-3.313,0.574-4.99,0.699c-0.976,0.082-1.949,0.113-2.941,0.113s-1.966-0.031-2.942-0.113
							c-1.676-0.125-3.344-0.359-4.99-0.699c-0.406-0.082-0.83-0.18-1.252-0.293c-1.977-0.473-3.912-1.109-5.785-1.9h-0.017
							c-0.212-0.1-0.422-0.178-0.634-0.291c-1.354-0.586-2.668-1.258-3.934-2.016c-0.017,0.016-0.017,0-0.033,0
							c-2.321-1.377-4.494-2.99-6.485-4.813c-0.5-0.438-0.992-0.926-1.478-1.414c-14.981-15.217-14.791-39.697,0.427-54.68
							c15.217-14.98,39.697-14.789,54.679,0.428C-24.655-28942.227-20.664-28932.482-20.664-28922.332L-20.664-28922.332z"/>
						<g id="Group_6666" transform="translate(11.12 15.516)">
							<g id="Group_6665">
								<g id="Group_6664">
									<path id="Path_18550" fill="#D1D3D4" d="M-56.164-28916.85l-0.91-0.422h-0.017l-0.016-0.016h-26.688l-14.205,6.57
										c0.488,0.488,0.976,0.977,1.478,1.414c1.991,1.822,4.164,3.436,6.486,4.813c0.016,0,0.016,0.016,0.032,0
										c1.265,0.758,2.579,1.432,3.934,2.016c0.212,0.113,0.422,0.193,0.634,0.291h0.017c1.873,0.791,3.809,1.426,5.785,1.9
										c0.422,0.115,0.846,0.213,1.252,0.293c1.646,0.342,3.313,0.574,4.99,0.699c0.977,0.082,1.95,0.115,2.942,0.115
										s1.966-0.033,2.941-0.115c1.677-0.125,3.344-0.359,4.99-0.699h0.017c0.405-0.1,0.83-0.182,1.235-0.293
										c1.978-0.475,3.913-1.109,5.786-1.9h0.017c0.212-0.1,0.422-0.178,0.634-0.291c1.358-0.588,2.678-1.26,3.95-2.016
										l0.016-0.018c2.324-1.363,4.498-2.971,6.484-4.793c0.5-0.457,1.008-0.926,1.479-1.43L-56.164-28916.85z"/>
									<rect id="Rectangle_1243" x="-81.209" y="-28929.346" fill="#E7AD27" width="21.515" height="19.574"/>
									<path id="Path_18551" fill="#009ADD" d="M-70.45-28899.18c-0.992,0-1.966-0.033-2.942-0.115l0.324-3.123l0.212-1.918
										l0.292-2.699h4.227l0.292,2.699l0.212,1.918l0.325,3.123C-68.484-28899.215-69.46-28899.18-70.45-28899.18z"/>
									<path id="Path_18552" fill="#136DA0" d="M-68.335-28907.037h-4.232l-0.492,4.623l0.114,0.113
										c1.377,1.377,3.609,1.379,4.986,0.002c0.001-0.002,0.001-0.002,0.002-0.002l0.113-0.113L-68.335-28907.037z"/>
									<path id="Path_18553" fill="#1CAEE4" d="M-65.336-28907.039l-2.622,2.621c-1.377,1.379-3.609,1.379-4.987,0.002
										c0,0,0,0-0.001-0.002l-2.622-2.621c-0.275-0.27-0.281-0.713-0.01-0.99c0.003-0.002,0.006-0.006,0.01-0.01l5.116-5.115
										l5.116,5.115c0.275,0.27,0.28,0.715,0.01,0.99C-65.329-28907.045-65.333-28907.043-65.336-28907.039z"/>
									<path id="Path_18554" fill="#EF5A9D" d="M-56.164-28916.85l-0.91-0.422h-0.017l-0.016-0.016l-0.438,1.4l-0.229,0.715
										l-0.357,1.172l-4.372,14.01c0.405-0.1,0.83-0.182,1.235-0.293c1.978-0.475,3.913-1.109,5.786-1.9h0.017
										c0.212-0.1,0.422-0.178,0.634-0.291c1.358-0.588,2.678-1.26,3.95-2.016l0.016-0.018c2.325-1.365,4.499-2.975,6.486-4.799
										c0.5-0.455,1.008-0.926,1.479-1.43L-56.164-28916.85z"/>
									<path id="Path_18555" fill="#EF5A9D" d="M-78.382-28899.996c-0.406-0.082-0.83-0.18-1.252-0.291
										c-1.977-0.475-3.912-1.109-5.785-1.9h-0.017c-0.212-0.1-0.422-0.178-0.634-0.291c-1.354-0.584-2.668-1.258-3.934-2.018
										c-0.017,0.018-0.017,0-0.032,0c-2.322-1.375-4.495-2.988-6.486-4.811c-0.5-0.439-0.991-0.926-1.478-1.414l14.205-6.566
										l0.438,1.4l0.228,0.715l0.391,1.268L-78.382-28899.996z"/>
									<path id="Path_18556" fill="#F06EA9" d="M-83.129-28915.176h-0.666l-0.422,0.201l-0.894,0.424l-0.032,0.016l-11.378,5.234
										c-0.5-0.438-0.991-0.926-1.478-1.414l14.205-6.566l0.438,1.4L-83.129-28915.176z"/>
									<path id="Path_18557" fill="#F06EA9" d="M-56.164-28916.848l13.262,6.111c-0.472,0.5-0.976,0.975-1.48,1.43l-11.378-5.234
										l-0.016-0.016l-0.91-0.424l-0.422-0.199h-0.666l0.229-0.715l0.438-1.4l0.016,0.016h0.017L-56.164-28916.848z"/>
									<g id="Group_6660" transform="translate(14.206 41.972)">
										<path id="Path_18558" fill="#E6E7E8" d="M-84.658-28955.123l-8.593,10.963l-4.75-15.1l1.787-1.434
											c0.451-0.361,1.078-0.412,1.582-0.127L-84.658-28955.123z"/>
									</g>
									<g id="Group_6661" transform="translate(27.554 41.974)">
										<path id="Path_18559" fill="#E6E7E8" d="M-98-28955.125l8.592,10.963l4.746-15.1l-1.782-1.432
											c-0.451-0.361-1.078-0.412-1.582-0.127L-98-28955.125z"/>
									</g>
									<path id="Path_18560" fill="#FFFFFF" d="M-60.474-28917.1c0.503-0.287,1.131-0.236,1.582,0.127l1.344,1.08l0.438-1.391
										l-1.782-1.432c-0.451-0.361-1.078-0.412-1.582-0.125l-9.972,5.689l0.944,1.199L-60.474-28917.1z"/>
									<path id="Path_18561" fill="#FFFFFF" d="M-80.425-28917.1c-0.504-0.287-1.132-0.236-1.582,0.127l-1.345,1.08l-0.438-1.391
										l1.783-1.432c0.451-0.361,1.078-0.412,1.582-0.125l9.972,5.689l-0.944,1.199L-80.425-28917.1z"/>
									
										<ellipse id="Ellipse_2249" transform="matrix(-0.1779 -0.984 0.984 -0.1779 28373.7383 -34174.6211)" fill="#F7CB15" cx="-87.718" cy="-28938.895" rx="6.004" ry="4.674"/>
									
										<ellipse id="Ellipse_2250" transform="matrix(-0.984 -0.1779 0.1779 -0.984 5043.7554 -57425.5195)" fill="#F7CB15" cx="-52.949" cy="-28938.91" rx="4.674" ry="6.004"/>
									<path id="Path_18562" fill="#FFF335" d="M-88.806-28943.799c2.541-0.459,5.076,1.814,5.666,5.076
										c0.051,0.289,0.084,0.584,0.1,0.879c0.047-0.631,0.013-1.266-0.1-1.887c-0.59-3.262-3.125-5.537-5.666-5.076
										c-2.31,0.418-3.82,2.951-3.632,5.861C-92.261-28941.414-90.843-28943.43-88.806-28943.799z"/>
									<path id="Path_18563" fill="#FFF335" d="M-57.568-28938.723c0.59-3.262,3.126-5.535,5.666-5.076
										c2.038,0.369,3.456,2.385,3.632,4.854c0.188-2.91-1.322-5.443-3.632-5.861c-2.54-0.461-5.078,1.814-5.666,5.076
										c-0.112,0.621-0.146,1.256-0.1,1.887C-57.652-28938.139-57.619-28938.434-57.568-28938.723z"/>
									<path id="Path_18564" fill="#E7AD27" d="M-86.67-28934.896c-2.541,0.457-5.078-1.814-5.666-5.076
										c-0.026-0.141-0.043-0.277-0.059-0.416c-0.1,0.771-0.08,1.555,0.061,2.32c0.59,3.264,3.125,5.537,5.666,5.076
										c2.43-0.439,3.978-3.223,3.59-6.322C-83.384-28937.047-84.752-28935.242-86.67-28934.896z"/>
									<path id="Path_18565" fill="#E7AD27" d="M-48.37-28939.969c-0.59,3.262-3.126,5.535-5.666,5.076
										c-1.916-0.346-3.286-2.152-3.59-4.418c-0.389,3.1,1.157,5.881,3.59,6.322c2.54,0.459,5.076-1.814,5.666-5.076
										c0.141-0.768,0.16-1.551,0.058-2.322C-48.328-28940.25-48.348-28940.113-48.37-28939.969z"/>
									<path id="Path_18566" fill="#FEDE3A" d="M-70.45-28961c-9.654,0-17.481,7.238-17.481,18.801s7.825,23.07,17.481,23.07
										s17.481-11.508,17.481-23.07S-60.796-28961-70.45-28961z"/>
									<path id="Path_18567" fill="#F7CB15" d="M-70.45-28922.479c-9.185,0-16.708-10.412-17.42-21.379
										c-0.036,0.545-0.06,1.096-0.06,1.658c0,11.563,7.825,23.07,17.481,23.07s17.478-11.508,17.478-23.072
										c0-0.564-0.023-1.117-0.06-1.658C-53.744-28932.891-61.27-28922.479-70.45-28922.479z"/>
									<path id="Path_18568" fill="#1CAEE4" d="M-70.45-28961c-5.312-0.09-10.356,2.326-13.616,6.521
										c4.511,7.52,14.264,9.959,21.783,5.447c2.235-1.342,4.105-3.213,5.447-5.447
										C-60.096-28958.672-65.139-28961.088-70.45-28961z"/>
									<path id="Path_18569" fill="#1CAEE4" d="M-70.45-28961c-5.312-0.09-10.356,2.326-13.616,6.521
										c4.511,7.52,14.264,9.959,21.783,5.447c2.235-1.342,4.105-3.213,5.447-5.447
										C-60.096-28958.672-65.139-28961.088-70.45-28961z"/>
									<path id="Path_18570" fill="#009ADD" d="M-70.452-28948.186c-5.242,0.002-10.146-2.588-13.101-6.918
										c-0.174,0.201-0.346,0.41-0.51,0.625c4.512,7.52,14.264,9.959,21.783,5.447c2.235-1.342,4.105-3.213,5.447-5.447
										c-0.164-0.215-0.336-0.42-0.511-0.625C-60.298-28950.77-65.207-28948.18-70.452-28948.186z"/>
									<path id="Path_18571" fill="#1CAEE4" d="M-86.548-28935.371c0.342-0.002,0.619-0.279,0.617-0.621
										c0-0.035-0.002-0.07-0.009-0.105c-0.212-1.289-0.319-2.594-0.321-3.9c0-10.459,7.08-17,15.812-17s15.812,6.547,15.812,17
										c-0.002,1.307-0.109,2.611-0.321,3.9c-0.06,0.336,0.166,0.656,0.502,0.717c0.035,0.006,0.07,0.01,0.105,0.01l0,0
										c0.288,0,0.539-0.195,0.608-0.475c0.509-2.08,0.769-4.213,0.773-6.354c0-11.563-7.825-18.801-17.481-18.801
										s-17.482,7.238-17.482,18.801c0.007,2.141,0.267,4.273,0.774,6.354C-87.088-28935.566-86.836-28935.371-86.548-28935.371z"
										/>
									<g id="Group_6662" transform="translate(10.774 7.888)">
										<path id="Path_18572" fill="#009ADD" d="M-69.809-28961c-0.141,0.17-0.282,0.34-0.43,0.5
											c3.247,3.379,4.989,7.93,4.829,12.613c-0.002,1.309-0.109,2.611-0.321,3.902c-0.063,0.332,0.158,0.652,0.491,0.715
											c0.164,0.029,0.333-0.008,0.469-0.104c0.213-1.328,0.321-2.67,0.324-4.014
											C-64.448-28953.197-66.509-28957.867-69.809-28961z"/>
										<path id="Path_18573" fill="#009ADD" d="M-92.216-28960.496c-0.147-0.164-0.29-0.332-0.431-0.5
											c-3.291,3.133-5.354,7.801-5.354,13.613c0.003,1.344,0.111,2.686,0.324,4.014c0.276,0.197,0.66,0.131,0.856-0.145
											c0.097-0.135,0.134-0.305,0.104-0.467c-0.214-1.289-0.321-2.594-0.321-3.902
											C-97.199-28952.564-95.459-28957.113-92.216-28960.496z"/>
									</g>
									<g id="Group_6663" transform="translate(10.068)">
										<path id="Path_18574" fill="#27C1E6" d="M-96.331-28938.23c0.001,0.891,0.053,1.781,0.155,2.666
											c0.136-0.141,0.198-0.336,0.168-0.529c-0.163-0.998-0.263-2.006-0.3-3.016
											C-96.324-28938.822-96.331-28938.529-96.331-28938.23z"/>
										<path id="Path_18575" fill="#27C1E6" d="M-80.518-28959.234c9.357,0,17,6.799,17.46,17.746
											c0.006-0.236,0.021-0.475,0.021-0.711c0-11.563-7.825-18.801-17.481-18.801s-17.481,7.238-17.481,18.801
											c0,0.236,0.016,0.475,0.021,0.711C-97.518-28952.436-89.876-28959.234-80.518-28959.234z"/>
										<path id="Path_18576" fill="#27C1E6" d="M-64.724-28939.113c-0.037,1.012-0.137,2.018-0.3,3.016
											c-0.031,0.193,0.03,0.391,0.166,0.531c0.102-0.887,0.153-1.775,0.155-2.666
											C-64.706-28938.529-64.714-28938.822-64.724-28939.113z"/>
									</g>
								</g>
								<path id="Path_18577" fill="#E43D91" d="M-79.634-28900.287c-1.977-0.475-3.912-1.109-5.785-1.9h-0.017
									c-0.212-0.1-0.422-0.178-0.634-0.291c-1.354-0.584-2.668-1.258-3.934-2.018c-0.017,0.018-0.017,0-0.032,0l4.892-10.043
									l0.65-1.316v0.033l0.275,0.846L-79.634-28900.287z"/>
								<path id="Path_18578" fill="#F06EA9" d="M-78.382-28899.996c-0.406-0.082-0.83-0.18-1.252-0.291
									c-1.977-0.475-3.912-1.109-5.785-1.9h-0.017c-0.212-0.1-0.422-0.178-0.634-0.291c-1.354-0.584-2.668-1.258-3.934-2.018
									l4.892-10.059l0.618-1.268l0.699-1.463l0.438,1.4l0.228,0.713l0.391,1.27L-78.382-28899.996z"/>
								<path id="Path_18579" fill="#E43D91" d="M-55.639-28914.313l-0.113-0.229l-0.017-0.016l-0.634-1.301l-0.276,0.879
									l-4.584,14.691c1.978-0.475,3.913-1.109,5.786-1.9h0.017c0.212-0.1,0.422-0.178,0.634-0.291
									c1.358-0.588,2.678-1.26,3.95-2.018l0.016-0.016L-55.639-28914.313z"/>
								<path id="Path_18580" fill="#F06EA9" d="M-50.882-28904.496c-1.271,0.754-2.591,1.428-3.949,2.016
									c-0.212,0.113-0.422,0.193-0.635,0.291h-0.016c-1.873,0.791-3.809,1.428-5.786,1.9c-0.406,0.113-0.828,0.199-1.235,0.293
									l4.371-14.012l0.374-1.168l0.666-2.102h0.017l0.666,1.414l0.634,1.301l0.016,0.016l0.114,0.229L-50.882-28904.496z"/>
							</g>
						</g>
					</g>
					<g id="Group_6675">
						<path id="Path_18581" fill="#136DA0" d="M-20.664-28922.334c0.021,10.15-3.977,19.896-11.118,27.109
							c-0.472,0.5-0.976,0.977-1.48,1.432c-1.985,1.82-4.159,3.43-6.483,4.793l-0.017,0.016c-1.271,0.756-2.591,1.43-3.949,2.016
							c-0.212,0.115-0.422,0.195-0.635,0.293h-0.016c-1.873,0.789-3.809,1.426-5.786,1.898c-0.406,0.115-0.828,0.201-1.235,0.293
							H-51.4c-1.646,0.342-3.313,0.576-4.99,0.699c-0.976,0.082-1.949,0.115-2.941,0.115s-1.966-0.033-2.942-0.115
							c-1.676-0.125-3.344-0.359-4.99-0.699c-0.406-0.082-0.83-0.18-1.252-0.293c-1.977-0.473-3.912-1.107-5.785-1.898h-0.017
							c-0.212-0.102-0.422-0.178-0.634-0.293c-1.354-0.584-2.668-1.258-3.934-2.016c-0.017,0.016-0.017,0-0.033,0
							c-2.32-1.375-4.494-2.988-6.485-4.809c-0.5-0.439-0.992-0.928-1.478-1.414c-14.981-15.219-14.791-39.699,0.427-54.68
							c15.217-14.98,39.697-14.789,54.679,0.426C-24.655-28942.227-20.664-28932.484-20.664-28922.334L-20.664-28922.334z"/>
						<g id="Group_6674" transform="translate(11.12 15.516)">
							<g id="Group_6673">
								<g id="Group_6672">
									<path id="Path_18582" fill="#D1D3D4" d="M-56.164-28916.85l-0.91-0.422h-0.017l-0.016-0.016h-26.688l-14.205,6.564
										c0.488,0.488,0.976,0.977,1.478,1.414c1.99,1.824,4.163,3.436,6.486,4.811c0.016,0,0.016,0.016,0.032,0
										c1.265,0.76,2.579,1.432,3.934,2.016c0.212,0.115,0.422,0.195,0.634,0.293h0.017c1.873,0.791,3.809,1.426,5.785,1.9
										c0.422,0.113,0.846,0.211,1.252,0.291c1.646,0.342,3.313,0.576,4.99,0.701c0.977,0.082,1.95,0.113,2.942,0.113
										s1.966-0.031,2.941-0.113c1.677-0.127,3.344-0.359,4.99-0.701h0.017c0.405-0.1,0.83-0.18,1.235-0.291
										c1.978-0.475,3.913-1.109,5.786-1.9h0.017c0.212-0.1,0.422-0.178,0.634-0.293c1.358-0.586,2.678-1.26,3.95-2.016
										l0.016-0.016c2.324-1.365,4.498-2.973,6.484-4.795c0.5-0.455,1.008-0.926,1.479-1.43L-56.164-28916.85z"/>
									<rect id="Rectangle_1244" x="-81.209" y="-28929.346" fill="#E7AD27" width="21.515" height="19.574"/>
									<path id="Path_18583" fill="#009ADD" d="M-70.45-28899.184c-0.992,0-1.966-0.031-2.942-0.113l0.324-3.121l0.212-1.918
										l0.292-2.699h4.227l0.292,2.699l0.212,1.918l0.325,3.121C-68.484-28899.215-69.46-28899.184-70.45-28899.184z"/>
									<path id="Path_18584" fill="#136DA0" d="M-68.335-28907.037h-4.232l-0.492,4.621l0.114,0.115
										c1.377,1.377,3.609,1.377,4.986,0c0.001,0,0.001,0,0.002,0l0.113-0.115L-68.335-28907.037z"/>
									<path id="Path_18585" fill="#1CAEE4" d="M-65.336-28907.039l-2.622,2.621c-1.377,1.377-3.609,1.379-4.987,0.002
										c0-0.002,0-0.002-0.001-0.002l-2.622-2.621c-0.275-0.271-0.281-0.715-0.01-0.99c0.003-0.004,0.006-0.008,0.01-0.01
										l5.116-5.117l5.116,5.117c0.275,0.27,0.28,0.713,0.01,0.988C-65.329-28907.047-65.333-28907.043-65.336-28907.039z"/>
									<path id="Path_18586" fill="#EF5A9D" d="M-56.164-28916.852l-0.91-0.424h-0.017l-0.016-0.016l-0.438,1.4l-0.229,0.715
										l-0.357,1.168l-4.372,14.012c0.405-0.102,0.83-0.18,1.235-0.293c1.978-0.473,3.913-1.109,5.786-1.898h0.017
										c0.212-0.102,0.422-0.18,0.634-0.293c1.358-0.588,2.678-1.262,3.95-2.016l0.016-0.016c2.324-1.367,4.498-2.973,6.486-4.795
										c0.5-0.455,1.008-0.926,1.479-1.43L-56.164-28916.852z"/>
									<path id="Path_18587" fill="#EF5A9D" d="M-78.382-28899.996c-0.406-0.082-0.83-0.18-1.252-0.291
										c-1.977-0.475-3.912-1.109-5.785-1.9h-0.017c-0.212-0.1-0.422-0.178-0.634-0.293c-1.354-0.584-2.668-1.258-3.934-2.016
										c-0.017,0.016-0.017,0-0.032,0c-2.321-1.375-4.495-2.988-6.486-4.809c-0.5-0.439-0.991-0.928-1.478-1.414l14.205-6.566
										l0.438,1.398l0.228,0.715l0.391,1.268L-78.382-28899.996z"/>
									<path id="Path_18588" fill="#F06EA9" d="M-83.129-28915.176h-0.666l-0.422,0.193l-0.894,0.424l-0.032,0.016l-11.378,5.234
										c-0.5-0.438-0.991-0.926-1.478-1.414l14.205-6.564l0.438,1.4L-83.129-28915.176z"/>
									<path id="Path_18589" fill="#F06EA9" d="M-56.164-28916.85l13.262,6.111c-0.472,0.5-0.976,0.977-1.48,1.43l-11.378-5.234
										l-0.016-0.016l-0.91-0.424l-0.422-0.193h-0.666l0.229-0.715l0.438-1.398l0.016,0.016h0.017L-56.164-28916.85z"/>
									<g id="Group_6668" transform="translate(14.206 41.97)">
										<path id="Path_18590" fill="#E6E7E8" d="M-84.658-28955.125l-8.593,10.965l-4.75-15.1l1.787-1.436
											c0.451-0.361,1.078-0.41,1.582-0.123L-84.658-28955.125z"/>
									</g>
									<g id="Group_6669" transform="translate(27.554 41.971)">
										<path id="Path_18591" fill="#E6E7E8" d="M-98-28955.123l8.592,10.963l4.746-15.1l-1.782-1.432
											c-0.451-0.361-1.078-0.412-1.582-0.125L-98-28955.123z"/>
									</g>
									<path id="Path_18592" fill="#FFFFFF" d="M-60.474-28917.102c0.503-0.289,1.131-0.238,1.582,0.125l1.344,1.082l0.438-1.391
										l-1.782-1.436c-0.451-0.363-1.079-0.412-1.582-0.127l-9.972,5.691l0.944,1.199L-60.474-28917.102z"/>
									<path id="Path_18593" fill="#FFFFFF" d="M-80.425-28917.102c-0.504-0.289-1.132-0.238-1.582,0.125l-1.345,1.082
										l-0.438-1.391l1.783-1.434c0.451-0.361,1.078-0.412,1.582-0.125l9.972,5.689l-0.944,1.201L-80.425-28917.102z"/>
									
										<ellipse id="Ellipse_2251" transform="matrix(-0.1779 -0.984 0.984 -0.1779 28373.7891 -34174.4297)" fill="#F7CB15" cx="-87.718" cy="-28938.908" rx="6.004" ry="4.674"/>
									
										<ellipse id="Ellipse_2252" transform="matrix(-0.984 -0.1779 0.1779 -0.984 5043.7573 -57425.5195)" fill="#F7CB15" cx="-52.948" cy="-28938.91" rx="4.674" ry="6.004"/>
									<path id="Path_18594" fill="#FFF335" d="M-88.806-28943.801c2.541-0.459,5.076,1.814,5.666,5.078
										c0.051,0.289,0.084,0.582,0.1,0.875c0.047-0.631,0.013-1.264-0.1-1.887c-0.59-3.262-3.125-5.535-5.666-5.074
										c-2.31,0.418-3.82,2.951-3.632,5.861C-92.261-28941.416-90.843-28943.432-88.806-28943.801z"/>
									<path id="Path_18595" fill="#FFF335" d="M-57.568-28938.723c0.59-3.264,3.126-5.537,5.666-5.078
										c2.038,0.369,3.456,2.387,3.632,4.855c0.188-2.91-1.322-5.445-3.632-5.863c-2.54-0.459-5.078,1.814-5.666,5.078
										c-0.112,0.621-0.146,1.254-0.1,1.885C-57.652-28938.141-57.619-28938.434-57.568-28938.723z"/>
									<path id="Path_18596" fill="#E7AD27" d="M-86.67-28934.9c-2.541,0.459-5.078-1.814-5.666-5.076
										c-0.026-0.141-0.043-0.277-0.059-0.416c-0.101,0.771-0.081,1.555,0.059,2.32c0.59,3.262,3.125,5.535,5.666,5.076
										c2.43-0.441,3.978-3.225,3.59-6.322C-83.384-28937.051-84.752-28935.244-86.67-28934.9z"/>
									<path id="Path_18597" fill="#E7AD27" d="M-48.37-28939.973c-0.59,3.262-3.126,5.535-5.666,5.074
										c-1.916-0.346-3.286-2.152-3.59-4.418c-0.389,3.102,1.157,5.883,3.59,6.322c2.54,0.461,5.076-1.814,5.666-5.076
										c0.141-0.766,0.16-1.549,0.058-2.32C-48.328-28940.252-48.348-28940.113-48.37-28939.973z"/>
									<path id="Path_18598" fill="#FEDE3A" d="M-70.45-28961c-9.654,0-17.481,7.238-17.481,18.801s7.825,23.07,17.481,23.07
										s17.479-11.508,17.479-23.07S-60.796-28961-70.45-28961z"/>
									<path id="Path_18599" fill="#F7CB15" d="M-70.45-28922.48c-9.185,0-16.708-10.41-17.42-21.377
										c-0.036,0.545-0.06,1.094-0.06,1.658c0,11.563,7.825,23.07,17.481,23.07s17.478-11.506,17.478-23.07
										c0-0.564-0.023-1.117-0.06-1.658C-53.744-28932.895-61.27-28922.48-70.45-28922.48z"/>
									<path id="Path_18600" fill="#1CAEE4" d="M-70.45-28961c-5.312-0.09-10.355,2.326-13.616,6.52
										c4.511,7.52,14.264,9.959,21.783,5.449c2.235-1.342,4.105-3.213,5.447-5.449
										C-60.096-28958.674-65.139-28961.09-70.45-28961z"/>
									<path id="Path_18601" fill="#1CAEE4" d="M-70.45-28961c-5.312-0.09-10.355,2.326-13.616,6.52
										c4.511,7.52,14.264,9.959,21.783,5.449c2.235-1.342,4.105-3.213,5.447-5.449
										C-60.096-28958.674-65.139-28961.09-70.45-28961z"/>
									<path id="Path_18602" fill="#009ADD" d="M-70.452-28948.186c-5.242,0.002-10.146-2.588-13.101-6.918
										c-0.174,0.199-0.346,0.41-0.51,0.623c4.512,7.52,14.264,9.959,21.783,5.449c2.235-1.342,4.105-3.213,5.447-5.449
										c-0.164-0.213-0.336-0.42-0.511-0.623C-60.299-28950.771-65.207-28948.182-70.452-28948.186z"/>
									<path id="Path_18603" fill="#1CAEE4" d="M-86.548-28935.371c0.343-0.002,0.619-0.281,0.618-0.623
										c-0.001-0.035-0.003-0.07-0.01-0.105c-0.212-1.289-0.319-2.594-0.321-3.9c0-10.457,7.08-17,15.812-17
										s15.812,6.547,15.812,17c-0.002,1.307-0.109,2.611-0.321,3.9c-0.06,0.338,0.166,0.66,0.504,0.719
										c0.034,0.006,0.069,0.01,0.104,0.01l0,0c0.288,0,0.539-0.195,0.608-0.475c0.509-2.08,0.769-4.213,0.773-6.354
										c0-11.563-7.825-18.801-17.481-18.801s-17.482,7.238-17.482,18.801c0.007,2.141,0.267,4.273,0.774,6.354
										C-87.089-28935.566-86.837-28935.371-86.548-28935.371z"/>
									<g id="Group_6670" transform="translate(10.774 7.888)">
										<path id="Path_18604" fill="#009ADD" d="M-69.809-28961c-0.141,0.17-0.282,0.34-0.43,0.5
											c3.247,3.379,4.989,7.93,4.829,12.613c-0.002,1.307-0.109,2.611-0.321,3.9c-0.063,0.334,0.158,0.654,0.491,0.717
											c0.164,0.029,0.333-0.008,0.469-0.105c0.213-1.326,0.321-2.668,0.324-4.014
											C-64.448-28953.199-66.509-28957.867-69.809-28961z"/>
										<path id="Path_18605" fill="#009ADD" d="M-92.216-28960.496c-0.147-0.164-0.29-0.334-0.431-0.5
											c-3.291,3.133-5.354,7.801-5.354,13.611c0.003,1.346,0.111,2.688,0.324,4.014c0.276,0.197,0.66,0.133,0.856-0.143
											c0.097-0.137,0.134-0.305,0.104-0.469c-0.214-1.289-0.321-2.594-0.321-3.9
											C-97.199-28952.566-95.46-28957.115-92.216-28960.496z"/>
									</g>
									<g id="Group_6671" transform="translate(10.068)">
										<path id="Path_18606" fill="#27C1E6" d="M-96.331-28938.234c0.001,0.891,0.053,1.781,0.155,2.666
											c0.136-0.141,0.198-0.336,0.168-0.529c-0.163-0.998-0.263-2.006-0.3-3.016
											C-96.324-28938.824-96.331-28938.531-96.331-28938.234z"/>
										<path id="Path_18607" fill="#27C1E6" d="M-80.518-28959.236c9.357,0,17,6.801,17.46,17.746
											c0.006-0.236,0.021-0.475,0.021-0.709c0-11.563-7.825-18.801-17.481-18.801s-17.481,7.238-17.481,18.801
											c0,0.234,0.016,0.473,0.021,0.709C-97.518-28952.438-89.876-28959.236-80.518-28959.236z"/>
										<path id="Path_18608" fill="#27C1E6" d="M-64.724-28939.115c-0.037,1.01-0.137,2.018-0.3,3.016
											c-0.031,0.193,0.03,0.389,0.166,0.529c0.102-0.885,0.154-1.773,0.155-2.666
											C-64.706-28938.531-64.714-28938.824-64.724-28939.115z"/>
									</g>
								</g>
								<path id="Path_18609" fill="#E43D91" d="M-79.634-28900.287c-1.977-0.475-3.912-1.109-5.785-1.9h-0.017
									c-0.212-0.1-0.422-0.178-0.634-0.293c-1.354-0.584-2.668-1.258-3.934-2.016c-0.017,0.016-0.017,0-0.032,0l4.892-10.043
									l0.65-1.316v0.031l0.275,0.848L-79.634-28900.287z"/>
								<path id="Path_18610" fill="#F06EA9" d="M-78.382-28899.996c-0.406-0.082-0.83-0.18-1.252-0.291
									c-1.977-0.475-3.912-1.109-5.785-1.9h-0.017c-0.212-0.1-0.422-0.178-0.634-0.293c-1.354-0.584-2.668-1.258-3.934-2.016
									l4.892-10.059l0.618-1.27l0.699-1.461l0.438,1.398l0.228,0.715l0.391,1.268L-78.382-28899.996z"/>
								<path id="Path_18611" fill="#E43D91" d="M-55.639-28914.316l-0.113-0.227l-0.017-0.016l-0.634-1.301l-0.276,0.877
									l-4.584,14.695c1.978-0.475,3.913-1.109,5.786-1.9h0.017c0.212-0.1,0.422-0.178,0.634-0.293
									c1.358-0.586,2.678-1.26,3.95-2.016l0.016-0.016L-55.639-28914.316z"/>
								<path id="Path_18612" fill="#F06EA9" d="M-50.882-28904.498c-1.271,0.756-2.591,1.43-3.949,2.016
									c-0.212,0.115-0.422,0.195-0.635,0.293h-0.016c-1.873,0.791-3.809,1.426-5.786,1.9c-0.406,0.113-0.828,0.199-1.235,0.291
									l4.371-14.01l0.374-1.17l0.666-2.1h0.017l0.666,1.414l0.634,1.299l0.016,0.018l0.114,0.227L-50.882-28904.498z"/>
							</g>
						</g>
					</g>
				</g>
				<g id="Group_6677" transform="translate(99.108 107.752)">
					<path id="Path_18613" fill="#D1D3D4" d="M-90.498-28942.727c-2.415,1.092-4.925,1.957-7.5,2.586v61.111
						c2.572,0.619,5.082,1.469,7.5,2.541V-28942.727z"/>
					<path id="Path_18614" fill="#009ADD" d="M-40.336-28927.377c-0.08-0.012-0.156-0.025-0.236-0.037
						c-0.736-0.094-1.477-0.145-2.218-0.148l0,0l0.008,17.939l-0.016-34.232l0,0v-4.285c-0.027-7.115-5.817-12.861-12.932-12.834
						c-2.325,0.008-4.604,0.646-6.596,1.846l-10.792,6.547l-0.638,0.389c-6.72,4.076-11.7,7.229-16.74,9.459v66.238
						c0.644,0.283,1.286,0.572,1.93,0.887c0.568,0.277,1.139,0.564,1.714,0.863c3.9,2.039,8.008,4.609,13.136,7.713l4.812,2.912
						l6.626,4.012c6.084,3.672,13.993,1.717,17.665-4.367c1.208-2.002,1.848-4.295,1.851-6.633l-0.01-20.572h0.008
						c0.741-0.006,1.48-0.055,2.214-0.15c0.076-0.012,0.152-0.025,0.228-0.035c0.695-0.096,1.385-0.232,2.064-0.41l0,0
						c7.911-2.039,13.433-9.18,13.417-17.35l0,0l0,0C-24.848-28918.584-31.462-28926.16-40.336-28927.377z"/>
				</g>
				<g id="Group_6680" transform="translate(0 99.744)">
					<g id="Group_6679">
						<path id="Path_18615" fill="#EF5A9D" d="M-39.99-28880.375l-34.328,0.016c-5.599,0.002-10.139-4.533-10.142-10.133
							l-0.018-38.117c-0.002-5.598,4.534-10.139,10.132-10.143l34.328-0.016L-39.99-28880.375z"/>
						<path id="Path_18616" fill="#E43D91" d="M-84.466-28908.6l0.008,18.107c0.002,5.598,4.542,10.135,10.14,10.133
							c0,0,0.001,0,0.002,0l34.326-0.016l-0.008-15.389l-31.606,0.014c-7.1,0.004-12.858-5.748-12.862-12.848
							C-84.466-28908.598-84.466-28908.598-84.466-28908.6z"/>
						<path id="Path_18617" fill="#F06EA9" d="M-74.344-28938.752c-5.598,0.002-10.134,4.543-10.132,10.141c0,0,0,0.002,0,0.002v7
							c-0.001-7.1,5.752-12.855,12.852-12.857c0.001,0,0.002,0,0.004,0l31.608-0.014v-4.285L-74.344-28938.752z"/>
						<g id="Group_6678" transform="translate(0 38.344)">
							<path id="Path_18618" fill="#E43D91" d="M-84.464-28934.793h-9.472c-2.238,0.002-4.054-1.813-4.056-4.051
								c0,0,0-0.002,0-0.004l-0.008-18.1c-0.001-2.238,1.813-4.055,4.052-4.057c0.001,0,0.001,0,0.002,0h9.472L-84.464-28934.793z"
								/>
							<path id="Path_18619" fill="#EF5A9D" d="M-93.946-28960.992c-2.239,0-4.053,1.816-4.054,4.055v3.639
								c-0.001-3.188,2.581-5.771,5.768-5.771l0,0h7.756v-1.922H-93.946z"/>
							<path id="Path_18620" fill="#A72973" d="M-97.992-28944.643v5.799c0.001,2.24,1.817,4.055,4.056,4.055h9.472v-4.088h-7.756
								C-95.406-28938.877-97.989-28941.457-97.992-28944.643z"/>
						</g>
						<path id="Path_18621" fill="#EF5A9D" d="M56.316-28927.555c9.908-0.004,17.943,8.023,17.949,17.932l0,0
							c0.004,9.908-8.025,17.943-17.933,17.947L56.316-28927.555z"/>
						<path id="Path_18622" fill="#E43D91" d="M56.332-28891.676c1.524-0.006,3.042-0.207,4.516-0.6l-0.016-34.688
							c-1.474-0.391-2.992-0.59-4.516-0.596L56.332-28891.676z"/>
						<path id="Path_18623" fill="#E43D91" d="M56.328-28899.363v7.688c9.863,0.041,17.892-7.924,17.933-17.787
							c0.005-1.348-0.143-2.689-0.439-4.004C72.024-28905.242,64.747-28899.375,56.328-28899.363z"/>
						<path id="Path_18624" fill="#FEDE3A" d="M56.342-28871.102c0.001,7.102-5.754,12.857-12.855,12.859
							c-2.349,0-4.652-0.643-6.661-1.859l-11.436-6.924c-14.506-8.783-20.9-13.373-37.288-13.365l-28.09,0.012l-0.026-58.395
							l28.09-0.012c16.386-0.008,22.778-4.6,37.276-13.4l11.43-6.934c6.072-3.684,13.979-1.746,17.662,4.326
							c1.218,2.008,1.863,4.311,1.864,6.66L56.342-28871.102z"/>
						<path id="Path_18625" fill="#F7CB15" d="M36.818-28875.189l-11.436-6.924c-14.508-8.785-20.9-13.371-37.29-13.367
							l-28.09,0.014l0.006,15.09l28.09-0.014c16.386-0.008,22.782,4.582,37.29,13.367l11.436,6.924
							c6.074,3.678,13.979,1.736,17.657-4.338c1.216-2.01,1.859-4.313,1.859-6.662l-0.004-15.096
							c0.005,7.102-5.746,12.861-12.846,12.867C41.138-28873.326,38.83-28873.971,36.818-28875.189z"/>
						<path id="Path_18626" fill="#FFF335" d="M36.78-28959.113l-11.43,6.936c-14.5,8.799-20.892,13.393-37.276,13.4l-28.09,0.012
							v4.285l28.09-0.012c16.386-0.008,22.778-4.6,37.276-13.4l11.432-6.936c6.072-3.684,13.979-1.746,17.662,4.326
							c1.218,2.008,1.863,4.311,1.864,6.66v-4.287c-0.005-7.102-5.766-12.854-12.867-12.848
							C41.092-28960.977,38.788-28960.332,36.78-28959.113z"/>
						<path id="Path_18627" fill="#FEDE3A" d="M-45.536-28836.441L-45.536-28836.441c-5.026,0.002-9.286-3.699-9.986-8.676
							l-1.87-13.285l-7.1-5.953l-2.418-16.008l26.786-0.012l4.566,32.447c0.776,5.512-3.063,10.611-8.576,11.387
							C-44.598-28836.477-45.067-28836.441-45.536-28836.441z"/>
						<path id="Path_18628" fill="#F7CB15" d="M-35.954-28850.736c-1.332,4.17-5.206,7.004-9.584,7.008l0,0
							c-5.026,0.002-9.286-3.699-9.986-8.676l-1.87-13.283l-7.1-5.953l-1.32-8.727h-1.1l2.418,16.008l7.1,5.953l1.87,13.283
							c0.701,4.977,4.96,8.678,9.986,8.674l0,0c5.566,0,10.076-4.516,10.075-10.08c0-0.471-0.033-0.939-0.099-1.404
							L-35.954-28850.736z"/>
						<path id="Path_18629" fill="#F7CB15" d="M-39.832-28878.293l-4.868,0.699c-2.072,0.299-3.511,2.219-3.214,4.293l2.464,17.148
							c0.297,2.074,2.219,3.512,4.291,3.215c0,0,0.001,0,0.001,0l4.8-0.689L-39.832-28878.293z"/>
						<path id="Path_18630" fill="#F06EA9" d="M74.093-28907.881c0.088-0.578,0.146-1.158,0.174-1.742
							c-0.004-9.906-8.037-17.934-17.944-17.93c-0.001,0-0.002,0-0.004,0v3.482C65.529-28924.059,73.224-28917.051,74.093-28907.881
							z"/>
					</g>
				</g>
				<path id="Path_18631" fill="#D1D3D4" d="M13.51-28678.293c-2.706,0-4.9-2.195-4.9-4.9v-20.143h46.65
					c-0.088-0.389-0.156-0.785-0.256-1.174c-0.062-0.242-0.11-0.486-0.176-0.729c-0.3-1.111-0.66-2.205-1.052-3.289
					c-0.114-0.318-0.238-0.633-0.36-0.947c-0.368-0.949-0.768-1.885-1.2-2.809c-0.084-0.178-0.158-0.359-0.244-0.537
					c-0.518-1.053-1.09-2.082-1.7-3.094c-0.166-0.277-0.338-0.549-0.51-0.824c-0.58-0.922-1.19-1.824-1.844-2.705
					c-0.082-0.107-0.154-0.221-0.236-0.33c-0.728-0.961-1.514-1.883-2.33-2.785c-0.21-0.232-0.424-0.461-0.64-0.688
					c-0.808-0.855-1.644-1.689-2.532-2.48c-0.052-0.047-0.1-0.102-0.15-0.143c-0.934-0.826-1.924-1.6-2.94-2.354
					c-0.252-0.188-0.508-0.371-0.768-0.553c-1.044-0.736-2.116-1.445-3.242-2.1l-0.008-0.006
					c-10.295-5.959-22.618-7.32-33.966-3.754v52.66c0,6.432,5.213,11.643,11.644,11.645h40.314c1.068-2.568,1.882-5.234,2.43-7.959
					H13.51V-28678.293z"/>
				<path id="Path_18632" fill="#136DA0" d="M8.61-28683.193c0,2.705,2.194,4.9,4.9,4.9h41.986c0.621-3.055,0.9-6.17,0.834-9.285
					v-6.887c0-0.086,0-0.17,0-0.254c-0.01-0.561-0.05-1.119-0.08-1.676c-0.016-0.283-0.02-0.564-0.042-0.844
					c-0.086-1.141-0.228-2.275-0.4-3.4c-0.054-0.35-0.12-0.693-0.184-1.039c-0.1-0.557-0.238-1.1-0.36-1.654H8.61V-28683.193z"/>
				<g id="Group_6689" transform="translate(53.722 198.868)">
					<path id="Path_18633" fill="#A72973" d="M-82.424-28894.859c0.317,23.484,19.612,42.264,43.095,41.945
						c23.483-0.316,42.263-19.609,41.946-43.094c-0.002-0.146-0.005-0.293-0.008-0.441v-6.885c0-0.086,0-0.17,0-0.256
						c-0.315-23.484-19.608-42.266-43.091-41.949c-23.483,0.314-42.265,19.607-41.949,43.09c0.002,0.148,0.005,0.297,0.008,0.447
						V-28894.859z"/>
					<g id="Group_6683">
						<g id="Group_6682">
							<g id="Group_6681">
								<circle id="Ellipse_2253" fill="#EF5A9D" cx="-39.918" cy="-28902.916" r="42.519"/>
							</g>
						</g>
					</g>
					<path id="Path_18634" fill="#E43D91" d="M-16.09-28904.504c0.48-0.43,0.748-1.047,0.732-1.691v-3.441
						c0-0.082-0.022-0.168-0.03-0.25c-0.005-0.078-0.015-0.154-0.028-0.23c-0.043-0.225-0.123-0.441-0.234-0.641l-2.1-3.633
						c-0.521-0.902-1.603-1.314-2.592-0.988l-5.386,1.781l-3.016,1l-0.012-0.008c-0.698-0.574-1.439-1.092-2.218-1.551
						c-0.11-0.066-0.214-0.133-0.324-0.199c-0.759-0.43-1.55-0.801-2.366-1.111c-0.07-0.029-0.134-0.07-0.206-0.1l-1.792-8.66
						c-0.102-0.496-0.372-0.941-0.764-1.258c-0.392-0.32-0.881-0.494-1.386-0.496h-4.194c-0.764,0.002-1.472,0.398-1.872,1.049
						c-0.133,0.215-0.227,0.451-0.278,0.701l-1.794,8.66c-0.072,0.025-0.134,0.068-0.206,0.098
						c-0.815,0.313-1.606,0.684-2.366,1.113c-0.11,0.063-0.216,0.133-0.324,0.199c-0.778,0.459-1.52,0.977-2.218,1.551
						c-0.003,0.004-0.007,0.006-0.012,0.008l-8.4-2.777c-0.989-0.326-2.071,0.086-2.592,0.988l-2.1,3.633
						c-0.112,0.199-0.19,0.416-0.234,0.641c-0.013,0.076-0.022,0.154-0.028,0.23c-0.008,0.086-0.03,0.168-0.03,0.25v3.441
						c-0.015,0.645,0.252,1.262,0.732,1.691l6.354,5.662v2.854l-0.8,0.715l-5.552,4.945c-0.217,0.199-0.391,0.441-0.51,0.711
						c-0.03,0.076-0.057,0.152-0.08,0.23c-0.068,0.197-0.107,0.402-0.116,0.609c0,0.047-0.028,0.094-0.026,0.141v3.441
						c-0.006,0.395,0.095,0.781,0.292,1.121l2.1,3.633c0.521,0.9,1.603,1.313,2.592,0.988l8.4-2.777
						c1.527,1.271,3.261,2.273,5.126,2.963l1.794,8.66c0.212,1.02,1.11,1.752,2.152,1.752h4.194c1.041,0,1.939-0.73,2.153-1.748
						l1.792-8.66c1.865-0.689,3.599-1.691,5.126-2.963l8.4,2.777c0.989,0.324,2.071-0.086,2.592-0.988l2.1-3.633
						c0.196-0.34,0.297-0.727,0.292-1.121v-3.439c0-0.049-0.026-0.096-0.028-0.143c-0.008-0.207-0.047-0.412-0.116-0.607
						c-0.022-0.08-0.048-0.158-0.08-0.234c-0.119-0.27-0.293-0.512-0.51-0.711l-6.354-5.662v-2.854L-16.09-28904.504z
						 M-32.728-28896.73c-0.208,0.594-0.477,1.164-0.8,1.701c-0.114,0.176-0.25,0.332-0.378,0.5
						c-0.148,0.199-0.308,0.393-0.476,0.576c-0.14,0.148-0.294,0.283-0.446,0.422c-0.19,0.17-0.384,0.336-0.592,0.488
						c-0.158,0.117-0.322,0.227-0.492,0.332c-0.232,0.141-0.471,0.271-0.716,0.387c-0.166,0.08-0.332,0.162-0.506,0.23
						c-0.289,0.109-0.584,0.201-0.884,0.273c-0.152,0.041-0.3,0.09-0.456,0.121c-0.947,0.191-1.923,0.191-2.87,0
						c-0.156-0.031-0.3-0.08-0.456-0.121c-0.3-0.072-0.596-0.164-0.886-0.273c-0.172-0.068-0.338-0.15-0.5-0.23
						c-0.247-0.117-0.486-0.246-0.718-0.389c-0.168-0.1-0.332-0.215-0.49-0.33c-0.206-0.152-0.4-0.318-0.592-0.488
						c-0.152-0.139-0.3-0.273-0.444-0.42c-0.172-0.182-0.324-0.381-0.478-0.578c-0.126-0.164-0.264-0.322-0.376-0.5
						c-0.145-0.234-0.276-0.477-0.394-0.727c-0.159-0.318-0.296-0.645-0.41-0.982c-0.078-0.229-0.16-0.455-0.216-0.693
						c0.971-4.088,5.071-6.613,9.158-5.643c2.795,0.664,4.978,2.848,5.642,5.643c-0.063,0.238-0.137,0.473-0.224,0.703V-28896.73z"
						/>
					<g id="Group_6688" transform="translate(33.535 28.008)">
						<path id="Path_18635" fill="#D1D3D4" d="M-55.98-28933.867l6.354-5.66c0.48-0.43,0.748-1.047,0.732-1.691v-3.441
							c0.006-0.393-0.095-0.781-0.292-1.121l-2.1-3.633c-0.521-0.9-1.603-1.313-2.592-0.988l-8.4,2.779
							c-1.527-1.273-3.261-2.275-5.126-2.965l-1.792-8.658c-0.212-1.021-1.11-1.752-2.152-1.754h-4.2
							c-1.042,0.002-1.94,0.732-2.152,1.754l-1.794,8.658c-1.865,0.689-3.598,1.691-5.126,2.965l-8.4-2.779
							c-0.989-0.324-2.07,0.088-2.592,0.988l-2.1,3.633c-0.196,0.34-0.297,0.729-0.292,1.121v3.441
							c-0.016,0.645,0.252,1.262,0.732,1.691l6.354,5.66v2.854l-6.354,5.662c-0.48,0.43-0.748,1.049-0.732,1.691v3.441
							c-0.006,0.393,0.095,0.781,0.292,1.121l2.1,3.633c0.521,0.9,1.603,1.313,2.592,0.988l8.4-2.779
							c1.528,1.273,3.261,2.275,5.126,2.965l1.794,8.66c0.212,1.02,1.11,1.75,2.152,1.752h4.2c1.042-0.002,1.94-0.732,2.152-1.752
							l1.792-8.66c1.865-0.689,3.599-1.691,5.126-2.965l8.4,2.779c0.989,0.324,2.071-0.088,2.592-0.988l2.1-3.633
							c0.196-0.34,0.297-0.729,0.292-1.121v-3.441c0.016-0.643-0.252-1.262-0.732-1.691l-6.354-5.662V-28933.867L-55.98-28933.867z
							 M-73.444-28926.58c-3.525-0.004-6.587-2.428-7.4-5.857c0.966-4.09,5.065-6.621,9.154-5.654
							c2.803,0.662,4.992,2.85,5.654,5.654C-66.85-28929.004-69.916-28926.58-73.444-28926.58L-73.444-28926.58z"/>
						<g id="Group_6687" transform="translate(0.003)">
							<g id="Group_6684" transform="translate(18.347)">
								<path id="Path_18636" fill="#FFFFFF" d="M-85.588-28949.795H-98l1.958-9.451c0.212-1.02,1.11-1.752,2.152-1.752h4.2
									c1.042,0,1.94,0.732,2.152,1.752L-85.588-28949.795z"/>
								<path id="Path_18637" fill="#FFFFFF" d="M-98-28918.6h12.412l-1.958,9.451c-0.212,1.02-1.11,1.75-2.152,1.752h-4.2
									c-1.042-0.002-1.94-0.732-2.152-1.752L-98-28918.6z"/>
							</g>
							<g id="Group_6685" transform="translate(0.001 10.485)">
								<path id="Path_18638" fill="#FFFFFF" d="M-90.058-28942.258l6.206,10.75l-9.164,3.033c-0.989,0.326-2.071-0.088-2.592-0.988
									l-2.1-3.631c-0.519-0.902-0.335-2.045,0.44-2.738L-90.058-28942.258z"/>
								<path id="Path_18639" fill="#FFFFFF" d="M-56.836-28947.105l-6.206-10.75l9.164-3.031c0.989-0.326,2.071,0.086,2.592,0.988
									l2.1,3.631c0.519,0.902,0.334,2.045-0.442,2.738L-56.836-28947.105z"/>
							</g>
							<g id="Group_6686" transform="translate(0 10.487)">
								<path id="Path_18640" fill="#FFFFFF" d="M-63.043-28931.512l6.206-10.75l7.208,6.422c0.776,0.695,0.961,1.836,0.442,2.738
									l-2.1,3.633c-0.521,0.902-1.604,1.313-2.592,0.988L-63.043-28931.512z"/>
								<path id="Path_18641" fill="#FFFFFF" d="M-83.85-28957.857l-6.206,10.75l-7.208-6.422c-0.778-0.693-0.962-1.838-0.44-2.738
									l2.1-3.631c0.521-0.902,1.603-1.314,2.592-0.988L-83.85-28957.857z"/>
							</g>
						</g>
						<path id="Path_18642" fill="#FFFFFF" d="M-73.447-28951.662c-9.645,0-17.464,7.818-17.464,17.463
							c0,9.646,7.819,17.465,17.464,17.465s17.464-7.818,17.464-17.465C-55.983-28943.844-63.802-28951.662-73.447-28951.662
							L-73.447-28951.662z M-73.447-28926.58c-4.207,0-7.616-3.41-7.616-7.615c0-4.207,3.41-7.617,7.616-7.617
							c4.206,0,7.616,3.41,7.616,7.617l0,0C-65.831-28929.99-69.241-28926.58-73.447-28926.58z"/>
						<path id="Path_18643" fill="#E6E7E8" d="M-73.447-28951.662c-9.645,0-17.464,7.818-17.464,17.463
							c0,9.646,7.819,17.465,17.464,17.465s17.464-7.818,17.464-17.465C-55.983-28943.844-63.802-28951.662-73.447-28951.662
							L-73.447-28951.662z M-73.447-28920.797c-7.401,0-13.4-6-13.4-13.398c0-7.402,5.999-13.4,13.4-13.4
							c7.4,0,13.4,5.998,13.4,13.4l0,0C-60.047-28926.797-66.046-28920.797-73.447-28920.797z"/>
					</g>
				</g>
				<rect id="Rectangle_1245" x="1.108" y="-28931.32" fill="#D1D3D4" width="7.502" height="62.976"/>
				<path id="Path_18644" fill="#009ADD" d="M50.266-28931.32H8.61v62.979h41.656c3.354,0,6.074-2.721,6.074-6.074
					c0-0.002,0-0.002,0-0.002v-50.824c0.002-3.355-2.716-6.074-6.071-6.078C50.268-28931.32,50.267-28931.32,50.266-28931.32z"/>
				<g id="Group_6692" transform="translate(61.64 21.682)">
					<g id="Group_6690">
						<path id="Path_18645" fill="#BCBEC0" d="M-91.926-28954.572h80.552c3.354,0,6.073,2.719,6.074,6.072v44.4
							c0,3.355-2.72,6.074-6.074,6.074h-56.964l-5.262,7.15c-1.689,2.297-4.921,2.789-7.217,1.1c-0.419-0.309-0.79-0.68-1.099-1.1
							l-5.262-7.15h-4.748c-3.354,0-6.073-2.719-6.074-6.074v-44.4C-97.999-28951.854-95.281-28954.572-91.926-28954.572z"/>
						<path id="Path_18646" fill="#FFFFFF" d="M-91.926-28961h80.552c3.355,0.002,6.074,2.723,6.074,6.078l0,0v44.398
							c0,3.355-2.72,6.074-6.074,6.074h-58.18l-6.23,8.688c-0.782,1.092-2.3,1.342-3.391,0.561c-0.216-0.154-0.405-0.344-0.56-0.561
							l-6.23-8.688h-5.962c-3.354,0-6.073-2.719-6.074-6.074v-44.398C-98.001-28958.277-95.281-28960.998-91.926-28961z"/>
					</g>
					<g id="Group_6691" transform="translate(20.137 12.906)">
						<path id="Path_18647" fill="#009ADD" d="M-83.22-28959.566c-0.326-0.859-1.146-1.428-2.064-1.43h-1.136
							c-0.918,0.002-1.739,0.57-2.064,1.43l-9.378,25.055c-0.425,1.139,0.152,2.406,1.291,2.832
							c0.248,0.092,0.511,0.139,0.775,0.139h1.014c0.919-0.002,1.74-0.574,2.064-1.434l2.254-6.051h9.211l2.268,6.055
							c0.321,0.859,1.144,1.43,2.062,1.43h1.016c1.215,0.002,2.202-0.98,2.205-2.195c0-0.266-0.047-0.529-0.141-0.779
							L-83.22-28959.566z M-83.244-28944.359h-5.234l2.625-7.016L-83.244-28944.359z"/>
						<path id="Path_18648" fill="#009ADD" d="M-49.113-28954.604c-1.04-1.963-2.608-3.598-4.528-4.717
							c-1.937-1.121-4.139-1.701-6.376-1.68h-6.934c-1.213,0.004-2.196,0.988-2.2,2.201v25.053c0.004,1.215,0.986,2.197,2.2,2.201
							h7.034c2.245,0.008,4.45-0.594,6.38-1.74c1.918-1.145,3.478-2.805,4.5-4.789c1.056-2.063,1.594-4.352,1.566-6.668v-3.277
							C-47.47-28950.316-48.034-28952.576-49.113-28954.604z M-52.807-28947.854v3.207c0.01,1.42-0.326,2.818-0.98,4.08
							c-0.581,1.127-1.467,2.07-2.558,2.717c-1.111,0.656-2.381,0.992-3.67,0.973h-3.8v-18.791h3.912
							c1.279,0,2.534,0.352,3.628,1.016c1.081,0.652,1.957,1.596,2.526,2.723C-53.11-28950.666-52.787-28949.268-52.807-28947.854z"
							/>
					</g>
				</g>
			</g>
		</g>
	</g>
</g>
</svg>
