<svg xmlns="http://www.w3.org/2000/svg" width="121.342" height="123.233" viewBox="0 0 121.342 123.233">
  <g id="Group_3353" data-name="Group 3353" transform="translate(-695.662 20.556) rotate(-13)">
    <rect id="Rectangle_84" data-name="Rectangle 84" width="100.703" height="103.225" transform="translate(677.36 158.533)" fill="#2b83fd"/>
    <g id="Group_669" data-name="Group 669" transform="translate(701.402 186.321)">
      <path id="Path_1624" data-name="Path 1624" d="M715.5,178.717H698.2a36.378,36.378,0,0,0,2.071-5.581,23.434,23.434,0,0,0,0-4.226,4.06,4.06,0,0,0-4.059-4.059H694.19v6.266s-7.1,8.272-7.1,11.654v19.776a4.059,4.059,0,0,0,4.054,4.059h14.2a6.41,6.41,0,0,0,5.536-4.059l7.2-19.776C718.891,180.529,717.734,178.717,715.5,178.717Z" transform="translate(-668.352 -164.852)" fill="#fff"/>
      <rect id="Rectangle_85" data-name="Rectangle 85" width="5.406" height="22.144" transform="translate(15.867 17.073)" fill="#fff"/>
      <rect id="Rectangle_86" data-name="Rectangle 86" width="9.637" height="27.891" transform="translate(0 13.865)" fill="#fff"/>
    </g>
  </g>
</svg>
