<?xml version="1.0" encoding="utf-8"?>
<!-- Generator: Adobe Illustrator 16.0.0, SVG Export Plug-In . SVG Version: 6.00 Build 0)  -->
<!DOCTYPE svg PUBLIC "-//W3C//DTD SVG 1.1//EN" "http://www.w3.org/Graphics/SVG/1.1/DTD/svg11.dtd">
<svg version="1.1" id="Layer_1" xmlns="http://www.w3.org/2000/svg" xmlns:xlink="http://www.w3.org/1999/xlink" x="0px" y="0px"
	 width="478.8px" height="484.185px" viewBox="0 0 478.8 484.185" enable-background="new 0 0 478.8 484.185" xml:space="preserve">
<g id="Multi_Screen_Marketing" transform="translate(1321.4 29662.031)">
	<g id="Group_6035" transform="translate(8.6 8.6)">
		<g id="Group_6033">
			<circle id="Ellipse_2075" fill="#382B73" cx="-1090.6" cy="-29431.23" r="239.4"/>
		</g>
		<g id="Group_6034" transform="translate(32.283 32.283)">
			<circle id="Ellipse_2076" fill="#473080" cx="-1122.883" cy="-29463.516" r="207.117"/>
		</g>
	</g>
	<path id="Path_16965" fill="#382B73" d="M-925.442-29399.303c0.754,0,1.363-0.611,1.365-1.365v-13.453
		c-0.002-0.754-0.611-1.365-1.365-1.365h-0.176v-6.48c0-1.746-1.174-3.275-2.861-3.723c-7.318-1.934-14.83-3.039-22.395-3.295
		v-74.738c0.004-4.672-3.781-8.463-8.453-8.467c-0.004,0-0.01,0-0.014,0h-222.946c-0.058,0-0.112,0.018-0.172,0.018
		c-4.615,0.063-8.317,3.834-8.295,8.449v23.75h-42.807c-3.517,0-6.368,2.852-6.368,6.369v146.225c0,3.518,2.851,6.367,6.368,6.367
		l0,0h85.615c3.515,0,6.364-2.848,6.364-6.363l0,0v-25.221h46.321c-0.013,4.363-0.584,8.707-1.7,12.926l0,0
		c-0.351,1.338-0.774,2.67-1.231,3.988c-0.092,0.264-0.184,0.529-0.281,0.791c-0.487,1.336-1.015,2.664-1.614,3.973l-0.361,0.785
		h-2.837c-2.642,0-4.783,2.143-4.783,4.785c0,2.641,2.142,4.781,4.783,4.781h64.939c2.642,0,4.782-2.141,4.782-4.781
		c0-2.643-2.141-4.785-4.782-4.785h-2.835l-0.361-0.785c-0.6-1.309-1.127-2.637-1.613-3.973c-0.101-0.262-0.188-0.527-0.281-0.791
		c-0.457-1.322-0.881-2.65-1.231-3.988l0,0c-1.116-4.219-1.688-8.563-1.7-12.926h62.947v24.895c0,1.744,1.174,3.273,2.859,3.723
		c17.063,4.549,35.018,4.549,52.08,0c1.686-0.451,2.859-1.979,2.861-3.723v-64.182c0.85,0,1.541-0.689,1.541-1.541
		c0,0,0-0.002,0-0.002v-2.313c0-0.852-0.689-1.541-1.541-1.541v-2.023H-925.442z"/>
	<g id="Group_6060" transform="translate(90.076 144.408)">
		<g id="Group_6050">
			<g id="Group_6037" transform="translate(49.171)">
				<g id="Group_6036">
					<path id="Path_16966" fill="#BCBEC0" d="M-1098.587-29511.039h-222.946c-4.676,0-8.467-3.793-8.467-8.469v-135.885
						c0-4.676,3.791-8.467,8.467-8.467h222.946c4.678,0,8.469,3.791,8.469,8.467l0,0v135.885
						C-1090.12-29514.832-1093.909-29511.041-1098.587-29511.039z"/>
					<path id="Path_16967" fill="#E6E7E8" d="M-1098.587-29517.813h-222.946c-4.676,0-8.467-3.791-8.467-8.467v-135.887
						c0-4.676,3.791-8.467,8.467-8.467h222.946c4.678,0,8.467,3.791,8.469,8.467v135.887
						C-1090.12-29521.605-1093.911-29517.814-1098.587-29517.813z"/>
					<path id="Path_16968" fill="#D1D3D4" d="M-1180.427-29488.574h-59.266l0.361-0.787c3.638-7.83,5.26-16.447,4.72-25.064h49.105
						c-0.541,8.617,1.081,17.234,4.72,25.064L-1180.427-29488.574z"/>
					<path id="Path_16969" fill="#E6E7E8" d="M-1183.914-29498.113h-52.291c-0.787,3.002-1.833,5.93-3.126,8.752l-0.361,0.785
						h59.265l-0.361-0.785C-1182.081-29492.184-1183.126-29495.111-1183.914-29498.113z"/>
					<path id="Path_16970" fill="#FFFFFF" d="M-1177.59-29479.01h-64.939c-2.641,0-4.783-2.141-4.783-4.781c0,0,0,0,0-0.002l0,0
						c0-2.641,2.141-4.783,4.782-4.783h64.939c2.641,0,4.781,2.141,4.781,4.783c0,0,0,0,0,0l0,0
						C-1172.81-29481.152-1174.949-29479.012-1177.59-29479.01z"/>
					<path id="Path_16971" fill="#1CAEE4" d="M-1098.587-29670.633h-222.946c-4.676,0.002-8.466,3.791-8.467,8.467v114.299h239.878
						v-114.299c0-4.674-3.787-8.465-8.461-8.467C-1098.583-29670.633-1098.585-29670.633-1098.587-29670.633z"/>
					<path id="Path_16972" fill="#009ADD" d="M-1100.56-29662.164h-219c-1.87-0.002-3.386,1.514-3.387,3.383
						c0,0.002,0,0.002,0,0.002v99.057c0,1.871,1.516,3.387,3.386,3.387c0,0,0.001,0,0.001,0h219c1.869,0,3.385-1.516,3.385-3.387
						l0,0v-99.057C-1097.175-29660.648-1098.691-29662.164-1100.56-29662.164L-1100.56-29662.164z"/>
					<circle id="Ellipse_2077" fill="#1CAEE4" cx="-1210.06" cy="-29534.322" r="6.137"/>
				</g>
			</g>
			<g id="Group_6043" transform="translate(0 32.215)">
				<g id="Group_6038">
					<path id="Path_16973" fill="#FFFFFF" d="M-1330-29518.039v-146.225c0-3.516,2.848-6.367,6.364-6.369h85.615
						c3.515,0,6.364,2.85,6.364,6.363v146.236c0,3.516-2.849,6.365-6.364,6.365h-85.615
						C-1327.152-29511.672-1330.001-29514.523-1330-29518.039z"/>
					<path id="Path_16974" fill="#1CAEE4" d="M-1325.898-29518.703v-144.895c0-1.479,1.198-2.68,2.677-2.68c0.001,0,0.001,0,0.002,0
						h84.783c1.479,0,2.678,1.199,2.679,2.678c0,0,0,0.002,0,0.002v144.9c0,1.479-1.198,2.678-2.677,2.678c0,0-0.001,0-0.002,0
						h-84.783c-1.479,0-2.678-1.197-2.679-2.676C-1325.898-29518.699-1325.898-29518.701-1325.898-29518.703z"/>
					<path id="Path_16975" fill="#009ADD" d="M-1325.898-29529.721v11.02c0,1.479,1.198,2.678,2.677,2.68c0.001,0,0.001,0,0.002,0
						h84.783c1.479,0,2.678-1.197,2.679-2.678c0,0,0,0,0-0.002v-11.02H-1325.898z"/>
				</g>
				<g id="Group_6039" transform="translate(10.039 8.896)">
					<path id="Path_16976" fill="#136DA0" d="M-1325.034-29660.699c-2.743,0-4.966-2.223-4.966-4.967
						c0-2.742,2.223-4.965,4.966-4.965s4.966,2.223,4.966,4.965C-1320.07-29662.924-1322.292-29660.701-1325.034-29660.699z
						 M-1325.034-29667.5c-1.015,0-1.838,0.82-1.839,1.836c-0.001,1.014,0.82,1.838,1.835,1.84c1.015,0,1.838-0.822,1.839-1.836
						c0,0,0-0.002,0-0.002c0-1.014-0.82-1.838-1.835-1.84V-29667.5z"/>
				</g>
				<g id="Group_6042" transform="translate(80.77 9.845)">
					<g id="Group_6040">
						<rect id="Rectangle_1173" x="-1330" y="-29670.633" fill="#136DA0" width="6.783" height="3.13"/>
					</g>
					<g id="Group_6041" transform="translate(0 4.91)">
						<rect id="Rectangle_1174" x="-1330" y="-29670.633" fill="#136DA0" width="6.783" height="3.13"/>
					</g>
				</g>
			</g>
			<g id="Group_6049" transform="translate(256.507 83.087)">
				<g id="Group_6044">
					<path id="Path_16977" fill="#BCBEC0" d="M-1275.06-29565.512L-1275.06-29565.512c-17.063,4.549-35.018,4.549-52.08,0l0,0
						c-1.686-0.449-2.859-1.977-2.859-3.723v-90.412c-0.002-1.746,1.172-3.273,2.859-3.723l0,0c17.063-4.549,35.018-4.549,52.08,0
						l0,0c1.686,0.451,2.859,1.979,2.861,3.723v90.41C-1272.2-29567.49-1273.374-29565.963-1275.06-29565.512z"/>
					<path id="Path_16978" fill="#FFFFFF" d="M-1275.06-29569.363L-1275.06-29569.363c-17.063,4.551-35.018,4.551-52.08,0l0,0
						c-1.686-0.449-2.859-1.977-2.859-3.723v-90.41c-0.002-1.746,1.172-3.275,2.859-3.723l0,0c17.063-4.551,35.018-4.551,52.08,0
						l0,0c1.686,0.449,2.859,1.977,2.861,3.723v90.41C-1272.2-29571.34-1273.374-29569.814-1275.06-29569.363z"/>
					<path id="Path_16979" fill="#1CAEE4" d="M-1277.015-29577.117L-1277.015-29577.117c-15.697,4.805-32.473,4.805-48.17,0l0,0
						c-0.646-0.199-1.09-0.797-1.09-1.475v-79.406c0-0.678,0.443-1.275,1.09-1.475l0,0c15.697-4.805,32.473-4.805,48.17,0l0,0
						c0.648,0.199,1.09,0.797,1.09,1.475v79.41C-1275.927-29577.912-1276.368-29577.316-1277.015-29577.117z"/>
					<path id="Path_16980" fill="#009ADD" d="M-1277.015-29659.471L-1277.015-29659.471c-15.697-4.807-32.473-4.807-48.17,0l0,0
						c-0.646,0.197-1.09,0.795-1.09,1.475v2.73c0-0.678,0.443-1.275,1.09-1.475l0,0c15.697-4.807,32.473-4.807,48.17,0l0,0
						c0.648,0.199,1.09,0.797,1.09,1.475v-2.732C-1275.925-29658.676-1276.368-29659.273-1277.015-29659.471z"/>
					<circle id="Ellipse_2078" fill="#009ADD" cx="-1285.816" cy="-29665.688" r="1.389"/>
					<path id="Path_16981" fill="#009ADD" d="M-1305.898-29665.691c3.191-0.225,6.395-0.225,9.588,0
						c0.523,0.039,0.98-0.354,1.02-0.877c0.002-0.023,0.004-0.047,0.004-0.068l0,0c0-0.502-0.385-0.918-0.885-0.957
						c-3.285-0.238-6.582-0.238-9.867,0c-0.5,0.039-0.885,0.455-0.885,0.957l0,0c0.002,0.523,0.428,0.949,0.951,0.947
						C-1305.946-29665.689-1305.923-29665.689-1305.898-29665.691z"/>
					<path id="Path_16982" fill="#D1D3D4" d="M-1294.31-29571.305c-4.52,0.32-9.055,0.32-13.574,0
						c-0.742-0.057-1.389,0.5-1.445,1.24c-0.004,0.033-0.004,0.066-0.004,0.1l0,0c-0.002,0.709,0.543,1.299,1.25,1.354
						c4.65,0.338,9.318,0.338,13.969,0c0.707-0.057,1.252-0.645,1.252-1.354l0,0c-0.002-0.742-0.604-1.344-1.346-1.344
						C-1294.241-29571.309-1294.276-29571.307-1294.31-29571.305z"/>
					<path id="Path_16983" fill="#D1D3D4" d="M-1272.025-29640.834h-0.172v-16.184h0.176c0.754,0.002,1.365,0.611,1.365,1.365
						v13.455c0,0.754-0.611,1.363-1.365,1.363C-1272.023-29640.834-1272.025-29640.834-1272.025-29640.834z"/>
					<path id="Path_16984" fill="#D1D3D4" d="M-1272.196-29633.416L-1272.196-29633.416v-5.4l0,0c0.852,0,1.541,0.689,1.543,1.541
						c0,0,0,0.002,0,0.002v2.316C-1270.655-29634.105-1271.345-29633.416-1272.196-29633.416z"/>
				</g>
				<g id="Group_6045" transform="translate(7.713 15.963)">
					<path id="Path_16985" fill="#136DA0" d="M-1326.497-29663.627c-1.934,0-3.5-1.566-3.5-3.5c0-1.932,1.566-3.5,3.5-3.5
						s3.5,1.568,3.5,3.5C-1323.001-29665.195-1324.566-29663.631-1326.497-29663.627z M-1326.497-29668.426
						c-0.717,0-1.299,0.582-1.299,1.299c0,0.719,0.582,1.301,1.299,1.301c0.719,0,1.301-0.582,1.301-1.301
						C-1325.198-29667.844-1325.781-29668.426-1326.497-29668.426L-1326.497-29668.426z"/>
				</g>
				<g id="Group_6048" transform="translate(44.58 15.961)">
					<g id="Group_6046">
						<rect id="Rectangle_1175" x="-1329.999" y="-29670.633" fill="#136DA0" width="4.781" height="2.21"/>
					</g>
					<g id="Group_6047" transform="translate(0 3.465)">
						<rect id="Rectangle_1176" x="-1329.999" y="-29670.633" fill="#136DA0" width="4.781" height="2.21"/>
					</g>
				</g>
				<path id="Path_16986" fill="#009ADD" d="M-1326.275-29585.482v6.893c0,0.68,0.443,1.277,1.09,1.475
					c15.697,4.805,32.473,4.805,48.17,0c0.648-0.197,1.09-0.795,1.09-1.475v-6.893H-1326.275z"/>
			</g>
		</g>
		<path id="Path_16987" fill="#136DA0" d="M-1089.48-29611.09c-0.008-5.879-3.984-11.012-9.676-12.49l0,0
			c-0.488-0.127-0.984-0.225-1.486-0.295l-0.168-0.025c-0.529-0.068-1.064-0.105-1.6-0.107l0,0l0.006,12.922l-0.012-24.66l0,0v-3.09
			c-0.012-5.117-4.17-9.258-9.289-9.248c-1.684,0.004-3.334,0.467-4.775,1.338l-7.05,4.275l-1.185,0.721
			c-9.141,5.543-13.809,8.771-22.741,9.5c-1.274,0.1-2.64,0.156-4.114,0.156l-20.237,0.01l-19.918,0.01h-0.006h-4.806
			c-4.032,0-7.3,3.27-7.3,7.301c0,0.002,0,0.004,0,0.006v4.291l0,0h-4.9h-1.925c-1.613,0-2.92,1.309-2.919,2.922v2.621l0,0v6.238
			l0,0v4.18c0,1.613,1.307,2.92,2.919,2.92c0.001,0,0.003,0,0.004,0h1.925l0,0h4.856h0.042v4.291c0,4.031,3.268,7.301,7.3,7.301
			c0.002,0,0.004,0,0.006,0h4.81h0.527l1.742,11.531l0.383,0.322l4.732,3.965l1.159,8.232l0.188,1.338
			c0.051,0.305,0.122,0.605,0.211,0.9c1.067,3.859,5.062,6.123,8.921,5.055c3.501-0.967,5.746-4.377,5.25-7.977l-0.047-0.334
			l-3.243-23.043l-17.9,0.01l18-0.01l20.236-0.01c9.16,0,14,2,20.58,5.844c0.51,0.299,1.031,0.607,1.566,0.926
			c1.458,0.875,3,1.822,4.721,2.861l3.467,2.1l4.773,2.889c1.793,1.104,3.914,1.553,6,1.271c1.973-0.27,3.81-1.16,5.244-2.539
			c1.82-1.74,2.84-4.152,2.82-6.668l-0.006-14.82l0,0c0.535-0.004,1.068-0.041,1.6-0.111l0.164-0.025
			c0.502-0.07,0.998-0.168,1.488-0.295l0,0c0.605-0.152,1.199-0.348,1.775-0.588c0.385-0.162,0.762-0.344,1.129-0.545
			c0.637-0.35,1.242-0.754,1.811-1.205C-1091.301-29603.375-1089.477-29607.121-1089.48-29611.09z M-1203.841-29619.09v8.055
			V-29619.09z"/>
		<g id="Group_6052" transform="translate(116.418 16.515)">
			<path id="Path_16988" fill="#EF5A9D" d="M-1288.21-29612.551l-19.918,0.012c-6.69,0.004-12.116-5.418-12.12-12.105
				c0-0.002,0-0.004,0-0.004l-0.008-17.84c-0.004-6.691,5.416-12.117,12.106-12.121c0,0,0.001,0,0.002,0l19.918-0.01
				L-1288.21-29612.551z"/>
			<path id="Path_16989" fill="#E43D91" d="M-1320.252-29632.881l0.006,13.045c0,4.031,3.269,7.301,7.3,7.301
				c0.002,0,0.004,0,0.006,0l24.73-0.012l-0.006-11.086l-22.771,0.01c-5.114,0.002-9.262-4.143-9.265-9.256
				C-1320.252-29632.879-1320.252-29632.879-1320.252-29632.881z"/>
			<path id="Path_16990" fill="#F06EA9" d="M-1312.958-29654.605c-4.032,0-7.3,3.268-7.3,7.299c0,0.002,0,0.004,0,0.006v5.047
				c-0.002-5.115,4.143-9.266,9.259-9.266l0,0l22.771-0.012v-3.088L-1312.958-29654.605z"/>
			<g id="Group_6051" transform="translate(0 27.626)">
				<path id="Path_16991" fill="#E43D91" d="M-1320.248-29651.754h-4.9c-2.676,0-4.847-2.168-4.848-4.844l0,0v-9.188
					c-0.001-2.676,2.167-4.848,4.844-4.848l0,0h4.9L-1320.248-29651.754z"/>
				<path id="Path_16992" fill="#EF5A9D" d="M-1327.081-29670.631c-1.612,0-2.919,1.307-2.919,2.918c0,0.002,0,0.002,0,0.004v2.621
					c-0.001-2.295,1.859-4.156,4.154-4.158h5.588v-1.387L-1327.081-29670.631z"/>
				<path id="Path_16993" fill="#A72973" d="M-1329.997-29658.852v4.18c0,1.613,1.307,2.92,2.919,2.92c0.001,0,0.003,0,0.004,0
					h6.823v-2.945h-5.588c-2.294,0.002-4.155-1.854-4.158-4.148C-1329.997-29658.848-1329.997-29658.85-1329.997-29658.852z"/>
			</g>
			<path id="Path_16994" fill="#EF5A9D" d="M-1218.826-29646.537c7.137-0.004,12.926,5.779,12.93,12.918l0,0
				c0.002,7.137-5.781,12.926-12.918,12.93l0,0L-1218.826-29646.537z"/>
			<path id="Path_16995" fill="#E43D91" d="M-1218.814-29620.688c1.098-0.006,2.189-0.15,3.252-0.432l-0.012-24.992
				c-1.063-0.279-2.156-0.424-3.254-0.428L-1218.814-29620.688z"/>
			<path id="Path_16996" fill="#E43D91" d="M-1218.816-29626.23v5.541c7.107,0.025,12.889-5.717,12.914-12.826
				c0.004-0.965-0.102-1.93-0.314-2.875C-1207.51-29630.465-1212.752-29626.238-1218.816-29626.23z"/>
			<path id="Path_16997" fill="#FEDE3A" d="M-1218.807-29605.867c0.002,5.115-4.143,9.264-9.258,9.266
				c-1.692,0.002-3.354-0.461-4.802-1.338l-8.239-4.99c-10.449-6.328-15.06-9.633-26.863-9.627l-20.236,0.01l-0.018-42.066
				l20.237-0.01c11.801-0.006,16.409-3.316,26.855-9.654l8.234-5c4.375-2.652,10.071-1.258,12.725,3.115
				c0.877,1.447,1.342,3.107,1.344,4.801L-1218.807-29605.867z"/>
			<path id="Path_16998" fill="#F7CB15" d="M-1232.872-29608.811l-8.239-4.99c-10.451-6.326-15.06-9.633-26.863-9.627l-20.236,0.01
				v10.871l20.236-0.01c11.801-0.006,16.414,3.299,26.863,9.627l8.239,4.99c4.376,2.648,10.071,1.25,12.72-3.127
				c0.877-1.447,1.34-3.109,1.34-4.801l-0.006-10.871c0.002,5.113-4.144,9.262-9.258,9.264
				C-1229.768-29607.473-1231.426-29607.936-1232.872-29608.811z"/>
			<path id="Path_16999" fill="#FFF335" d="M-1232.9-29669.273l-8.234,5c-10.446,6.336-15.053,9.646-26.855,9.65l-20.237,0.01v3.09
				l20.237-0.012c11.807-0.006,16.409-3.316,26.855-9.652l8.234-5c4.375-2.652,10.071-1.258,12.725,3.117
				c0.877,1.447,1.342,3.107,1.342,4.801v-3.09c0-5.113-4.148-9.26-9.264-9.26
				C-1229.791-29670.617-1231.452-29670.152-1232.9-29669.273z"/>
			<path id="Path_17000" fill="#FEDE3A" d="M-1292.203-29580.898L-1292.203-29580.898c-3.621,0-6.689-2.666-7.194-6.25l-1.347-9.57
				l-5.115-4.289l-1.742-11.531l19.3-0.008l3.287,23.375c0.559,3.973-2.209,7.645-6.18,8.201
				C-1291.528-29580.924-1291.865-29580.898-1292.203-29580.898z"/>
			<path id="Path_17001" fill="#F7CB15" d="M-1285.3-29591.191c-0.96,3.006-3.751,5.047-6.905,5.051l0,0
				c-3.622,0-6.691-2.666-7.194-6.254l-1.347-9.57l-5.115-4.285l-0.95-6.289h-0.79l1.742,11.533l5.115,4.287l1.347,9.57
				c0.504,3.586,3.573,6.25,7.194,6.25l0,0c4.011-0.002,7.261-3.254,7.259-7.266c0-0.336-0.024-0.674-0.071-1.008L-1285.3-29591.191
				z"/>
			<path id="Path_17002" fill="#F7CB15" d="M-1288.095-29611.049l-3.507,0.5c-1.493,0.215-2.53,1.6-2.316,3.092l1.774,12.355
				c0.214,1.492,1.598,2.529,3.091,2.316c0,0,0.001,0,0.001,0l3.457-0.5L-1288.095-29611.049z"/>
			<path id="Path_17003" fill="#F06EA9" d="M-1206.021-29632.365c0.064-0.416,0.105-0.834,0.127-1.256
				c-0.004-7.137-5.793-12.922-12.93-12.918v2.508C-1212.191-29644.018-1206.65-29638.971-1206.021-29632.365z"/>
		</g>
		<path id="Path_17004" fill="#136DA0" d="M-1026.775-29538.186c0.359-0.32,0.561-0.783,0.547-1.266v-2.574
			c-0.004-0.063-0.012-0.125-0.023-0.186c-0.002-0.059-0.01-0.117-0.02-0.172c-0.031-0.168-0.09-0.33-0.174-0.479l-1.57-2.717
			c-0.389-0.676-1.199-0.984-1.938-0.738l-6.287,2.078l-0.008-0.004c-0.523-0.43-1.078-0.816-1.66-1.162
			c-0.082-0.049-0.16-0.1-0.242-0.146c-0.568-0.32-1.16-0.598-1.771-0.832c-0.053-0.02-0.1-0.051-0.152-0.07l-1.342-6.479
			c-0.158-0.764-0.83-1.311-1.609-1.311h-3.139c-0.779,0-1.451,0.547-1.609,1.311l-1.342,6.479c-0.055,0.02-0.1,0.051-0.154,0.07
			c-0.609,0.234-1.201,0.512-1.77,0.832c-0.082,0.047-0.162,0.102-0.242,0.148c-0.582,0.344-1.139,0.73-1.66,1.16l-0.008,0.004
			l-6.287-2.078c-0.74-0.244-1.549,0.064-1.939,0.738l-1.568,2.717c-0.084,0.148-0.143,0.311-0.176,0.479
			c-0.01,0.055-0.016,0.113-0.02,0.172c-0.006,0.061-0.021,0.123-0.021,0.186v2.572c-0.012,0.482,0.188,0.945,0.547,1.266
			l4.754,4.234v2.135l-4.754,4.234c-0.162,0.148-0.293,0.33-0.381,0.531c-0.023,0.057-0.043,0.115-0.061,0.174
			c-0.051,0.146-0.08,0.301-0.086,0.455c0,0.035-0.02,0.07-0.02,0.105v2.574c-0.004,0.295,0.07,0.584,0.219,0.838l1.57,2.717
			c0.389,0.676,1.199,0.984,1.939,0.738l6.285-2.08c1.143,0.953,2.441,1.703,3.836,2.219l1.342,6.479
			c0.158,0.764,0.83,1.311,1.609,1.311h3.139c0.779,0,1.451-0.547,1.609-1.311l1.342-6.479c1.395-0.516,2.691-1.266,3.836-2.219
			l6.285,2.08c0.74,0.244,1.549-0.064,1.939-0.738l1.57-2.717c0.146-0.254,0.223-0.543,0.219-0.838v-2.572
			c-0.006-0.035-0.012-0.07-0.02-0.105c-0.008-0.156-0.037-0.309-0.086-0.455c-0.021-0.059-0.033-0.115-0.059-0.174
			c-0.09-0.201-0.219-0.383-0.381-0.531l-4.754-4.234v-2.137L-1026.775-29538.186z M-1039.221-29532.377
			c-0.084,0.25-0.184,0.494-0.301,0.732c-0.09,0.188-0.189,0.367-0.299,0.545c-0.084,0.129-0.188,0.246-0.281,0.371
			c-0.115,0.146-0.23,0.299-0.357,0.432c-0.1,0.113-0.219,0.215-0.334,0.316c-0.141,0.129-0.289,0.25-0.441,0.363
			c-0.119,0.086-0.242,0.168-0.365,0.248c-0.174,0.107-0.354,0.205-0.537,0.293c-0.125,0.061-0.25,0.119-0.377,0.172
			c-0.217,0.084-0.439,0.152-0.664,0.207c-0.115,0.029-0.223,0.068-0.34,0.09c-0.707,0.145-1.438,0.145-2.145,0
			c-0.115-0.021-0.227-0.061-0.342-0.09c-0.225-0.055-0.447-0.123-0.664-0.207c-0.127-0.049-0.252-0.111-0.377-0.172
			c-0.184-0.088-0.363-0.186-0.537-0.293c-0.123-0.078-0.246-0.158-0.363-0.248c-0.154-0.113-0.301-0.236-0.443-0.363
			c-0.115-0.102-0.229-0.201-0.334-0.316c-0.127-0.135-0.24-0.281-0.354-0.43c-0.102-0.125-0.201-0.242-0.283-0.373
			c-0.109-0.176-0.207-0.357-0.295-0.543c-0.117-0.236-0.217-0.48-0.301-0.73c-0.059-0.172-0.119-0.346-0.162-0.523
			c0.729-3.057,3.797-4.943,6.854-4.215c2.088,0.498,3.717,2.127,4.215,4.215
			C-1039.102-29532.721-1039.162-29532.551-1039.221-29532.377L-1039.221-29532.377z"/>
		<g id="Group_6057" transform="translate(267.035 112.372)">
			<path id="Path_17005" fill="#D1D3D4" d="M-1298.562-29650.332l4.754-4.234c0.359-0.32,0.561-0.785,0.547-1.266v-2.576
				c0.004-0.295-0.072-0.584-0.219-0.838l-1.57-2.717c-0.389-0.676-1.199-0.984-1.939-0.738l-6.285,2.08
				c-1.145-0.953-2.441-1.703-3.836-2.219l-1.342-6.479c-0.158-0.764-0.83-1.311-1.609-1.311h-3.139
				c-0.779,0-1.451,0.547-1.609,1.311l-1.342,6.479c-1.395,0.516-2.693,1.266-3.836,2.219l-6.285-2.08
				c-0.74-0.244-1.551,0.064-1.939,0.738l-1.57,2.717c-0.146,0.254-0.223,0.543-0.219,0.838v2.574
				c-0.012,0.482,0.188,0.943,0.547,1.264l4.754,4.236v2.133l-4.754,4.234c-0.359,0.322-0.561,0.783-0.547,1.266v2.574
				c-0.004,0.295,0.07,0.584,0.219,0.838l1.57,2.717c0.389,0.676,1.199,0.984,1.939,0.738l6.285-2.08
				c1.143,0.953,2.439,1.703,3.836,2.219l1.342,6.479c0.158,0.762,0.83,1.309,1.609,1.309h3.139c0.777,0,1.451-0.547,1.609-1.309
				l1.342-6.479c1.395-0.516,2.691-1.266,3.836-2.219l6.285,2.08c0.74,0.244,1.549-0.064,1.939-0.738l1.57-2.717
				c0.146-0.254,0.223-0.543,0.219-0.838v-2.574c0.012-0.482-0.189-0.943-0.547-1.266l-4.754-4.234v-2.133V-29650.332z
				 M-1311.629-29644.883c-2.639,0-4.93-1.814-5.537-4.383c0.721-3.059,3.785-4.953,6.844-4.23c2.1,0.494,3.736,2.133,4.232,4.23
				C-1306.697-29646.697-1308.99-29644.883-1311.629-29644.883L-1311.629-29644.883z"/>
			<g id="Group_6056" transform="translate(0.003)">
				<g id="Group_6053" transform="translate(13.726)">
					<path id="Path_17006" fill="#FFFFFF" d="M-1320.715-29662.248H-1330l1.465-7.072c0.158-0.764,0.83-1.311,1.609-1.311h3.139
						c0.779,0,1.451,0.547,1.609,1.311L-1320.715-29662.248z"/>
					<path id="Path_17007" fill="#FFFFFF" d="M-1330-29638.91h9.285l-1.465,7.072c-0.156,0.764-0.83,1.311-1.609,1.311h-3.137
						c-0.779,0-1.451-0.547-1.609-1.311L-1330-29638.91z"/>
				</g>
				<g id="Group_6054" transform="translate(0 7.845)">
					<path id="Path_17008" fill="#FFFFFF" d="M-1324.058-29656.611l4.637,8.041l-6.854,2.27c-0.74,0.242-1.551-0.064-1.939-0.738
						l-1.57-2.719c-0.389-0.674-0.252-1.529,0.33-2.047L-1324.058-29656.611z"/>
					<path id="Path_17009" fill="#FFFFFF" d="M-1299.206-29660.238l-4.643-8.041l6.854-2.268c0.74-0.246,1.551,0.063,1.939,0.738
						l1.57,2.715c0.391,0.676,0.252,1.531-0.33,2.051L-1299.206-29660.238z"/>
				</g>
				<g id="Group_6055" transform="translate(0.003 7.846)">
					<path id="Path_17010" fill="#FFFFFF" d="M-1303.85-29648.572l4.645-8.043l5.393,4.801c0.582,0.518,0.719,1.373,0.33,2.049
						l-1.57,2.717c-0.389,0.676-1.199,0.982-1.938,0.738L-1303.85-29648.572z"/>
					<path id="Path_17011" fill="#FFFFFF" d="M-1319.416-29668.281l-4.643,8.043l-5.391-4.801c-0.582-0.518-0.719-1.373-0.33-2.049
						l1.568-2.717c0.391-0.676,1.201-0.984,1.939-0.738L-1319.416-29668.281z"/>
				</g>
			</g>
			<path id="Path_17012" fill="#FFFFFF" d="M-1311.627-29663.645c-7.217,0.002-13.063,5.854-13.061,13.068
				c0.002,7.217,5.854,13.064,13.068,13.061c7.215-0.002,13.061-5.852,13.061-13.064c0-7.215-5.848-13.064-13.063-13.064
				C-1311.623-29663.645-1311.625-29663.645-1311.627-29663.645z M-1311.627-29644.883c-3.148,0-5.701-2.551-5.701-5.699
				s2.553-5.699,5.701-5.699s5.699,2.551,5.699,5.699l0,0C-1305.928-29647.434-1308.478-29644.883-1311.627-29644.883z"/>
			<path id="Path_17013" fill="#E6E7E8" d="M-1311.627-29663.645c-7.217,0.002-13.063,5.854-13.061,13.068
				c0.002,7.217,5.854,13.064,13.068,13.061c7.215-0.002,13.061-5.852,13.061-13.064c0-7.215-5.848-13.064-13.063-13.064
				C-1311.623-29663.645-1311.625-29663.645-1311.627-29663.645z M-1311.627-29640.555c-5.537,0-10.025-4.488-10.025-10.025
				s4.488-10.025,10.025-10.025s10.025,4.488,10.025,10.025l0,0C-1301.603-29645.043-1306.09-29640.555-1311.627-29640.555z"/>
		</g>
		<path id="Path_17014" fill="#136DA0" d="M-1252.072-29582.32h-57.508c-2.73,0-4.944,2.213-4.944,4.943l0,0v41.377
			c0.002,2.729,2.215,4.939,4.944,4.939h3.866l4.283,5.822c1.374,1.869,4.002,2.27,5.872,0.896c0.343-0.252,0.646-0.555,0.897-0.896
			l4.282-5.822h38.31c2.73,0,4.945-2.213,4.946-4.943v-41.373C-1247.125-29580.109-1249.34-29582.322-1252.072-29582.32
			L-1252.072-29582.32z"/>
		<g id="Group_6058" transform="translate(15.471 82.296)">
			<path id="Path_17015" fill="#BCBEC0" d="M-1325.051-29665.4h57.51c2.73,0,4.944,2.213,4.944,4.943l0,0v36.145
				c0,2.73-2.213,4.943-4.944,4.943l0,0h-38.31l-4.283,5.822c-1.374,1.867-4.002,2.27-5.872,0.896
				c-0.343-0.252-0.646-0.555-0.897-0.896l-4.283-5.822h-3.865c-2.73,0-4.944-2.213-4.944-4.943l0,0v-36.145
				C-1329.995-29663.188-1327.781-29665.4-1325.051-29665.4L-1325.051-29665.4z"/>
			<path id="Path_17016" fill="#FFFFFF" d="M-1325.052-29670.633h57.512c2.73,0,4.944,2.213,4.944,4.943l0,0v36.143
				c0,2.73-2.213,4.945-4.944,4.945l0,0h-39.302l-5.073,7.072c-0.636,0.887-1.871,1.092-2.759,0.455
				c-0.176-0.125-0.33-0.279-0.456-0.455l-5.073-7.072h-4.85c-2.73,0-4.944-2.215-4.944-4.945l0,0v-36.143
				C-1329.994-29668.418-1327.781-29670.631-1325.052-29670.633z"/>
		</g>
		<g id="Group_6059" transform="translate(31.923 94.737)">
			<path id="Path_17017" fill="#009ADD" d="M-1319.909-29669.656c-0.223-0.586-0.783-0.973-1.41-0.975h-0.776
				c-0.627,0.002-1.188,0.389-1.41,0.975l-6.4,17.107c-0.291,0.775,0.102,1.641,0.877,1.932c0.17,0.064,0.351,0.098,0.532,0.096
				h0.694c0.627-0.002,1.189-0.391,1.41-0.979l1.54-4.131h6.29l1.548,4.131c0.219,0.588,0.781,0.977,1.408,0.977h0.694
				c0.829,0.004,1.503-0.664,1.507-1.492c0.001-0.184-0.032-0.367-0.097-0.539L-1319.909-29669.656z M-1319.923-29659.271h-3.575
				l1.79-4.791L-1319.923-29659.271z"/>
			<path id="Path_17018" fill="#009ADD" d="M-1296.619-29666.264c-0.709-1.342-1.78-2.457-3.092-3.221
				c-1.322-0.766-2.826-1.16-4.353-1.145h-4.733c-0.827,0.004-1.496,0.672-1.5,1.5v17.1c0.004,0.826,0.673,1.496,1.5,1.5h4.8
				c1.533,0.006,3.039-0.406,4.357-1.189c1.309-0.781,2.372-1.914,3.07-3.27c0.721-1.408,1.087-2.971,1.069-4.553v-2.238
				C-1295.504-29663.344-1295.888-29664.883-1296.619-29666.264z M-1299.141-29661.654v2.189c0.007,0.969-0.223,1.926-0.67,2.787
				c-0.396,0.77-1.001,1.412-1.746,1.857c-0.758,0.447-1.625,0.676-2.506,0.664h-2.6v-12.834h2.671c0.873,0,1.729,0.24,2.476,0.693
				c0.738,0.445,1.336,1.09,1.724,1.859C-1299.352-29663.576-1299.129-29662.621-1299.141-29661.654z"/>
		</g>
	</g>
</g>
</svg>
