<svg xmlns="http://www.w3.org/2000/svg" width="282.339" height="700.457" viewBox="0 0 282.339 700.457">
  <g id="Group_3716" data-name="Group 3716" transform="translate(-3645.797 -2462.179)">
    <g id="Group_3703" data-name="Group 3703" transform="translate(3762.569 2583.165)">
      <path id="Path_12923" data-name="Path 12923" d="M3966.4,2633.139a44.06,44.06,0,0,0-4.37-4.124l15.076-13.852c1.4-1.291,1.3-3.17-.276-4.881l-.1-.1c-1.572-1.713-4.016-2.609-5.419-1.32l-21.293,19.57-1,.918-8.374,7.7c-5.334,4.9-5.248,13.672.189,19.589s14.171,6.741,19.5,1.841l8.806-8.092C3974.483,2645.479,3971.841,2639.057,3966.4,2633.139Z" transform="translate(-3812.523 -2608.247)" fill="#faa284"/>
      <path id="Path_12924" data-name="Path 12924" d="M3906.542,2652.818c-21.452,14.849-54.3,28.434-54.3,28.434-35.69-22.231-54.668-29.239-54.668-29.239-11.854,6.6-10.768,41.438-10.768,41.438s33.03,19.688,63.46,23.268c23.423,2.756,56.315-23.364,75.214-44.853C3922.848,2663.606,3912.834,2652.006,3906.542,2652.818Z" transform="translate(-3786.778 -2615.762)" fill="#d4d5d6"/>
    </g>
    <g id="Group_3704" data-name="Group 3704" transform="translate(3682.436 3094.015)">
      <path id="Path_12925" data-name="Path 12925" d="M3712.434,3240.31s15.03,54.251,9.508,55.079h-30.025s-4.485,1.539.383-53.982l10.939-1.3Z" transform="translate(-3690.032 -3227.597)" fill="#353b42"/>
      <path id="Path_12926" data-name="Path 12926" d="M3712.9,3237.392l5.01,41.089c-2.61.552-16.473-2.171-21.66,1.656a310.414,310.414,0,0,1-3.485-42.7l9.282-12.431Z" transform="translate(-3690.502 -3225.005)" fill="#faa284"/>
    </g>
    <g id="Group_3705" data-name="Group 3705" transform="translate(3773.626 3097.406)">
      <path id="Path_12927" data-name="Path 12927" d="M3808.422,3239.96c6.833,19.585,24.494,41.089,24.494,41.089l15.385,1.759,15.409,3.742s3.855,3.845.479,9.643H3825.04l-13.386-33.355.91,33.355h-4.09l-8.347-41.325S3800.968,3245.049,3808.422,3239.96Z" transform="translate(-3800.127 -3230.964)" fill="#353b42"/>
      <path id="Path_12928" data-name="Path 12928" d="M3810.142,3238.044l9.836-8.945,11.066,8.933s11.937,37.941,18.977,42.911l-14.064-.1S3816.976,3257.629,3810.142,3238.044Z" transform="translate(-3801.847 -3229.099)" fill="#faa284"/>
    </g>
    <g id="Group_3706" data-name="Group 3706" transform="translate(3665.936 2745.136)">
      <path id="Path_12929" data-name="Path 12929" d="M3771.7,2803.8l-72.483.961c-42.518,45.281-29.542,144.166-16.487,217.648,0,0-16.586,34.062,4.8,142.567h23.546s2-118.928,5.073-133.563c3.851-18.341,18.24-106.078,19.739-132.159l5.317-.351s9.679,63.546,22.709,120.063c0,0-8.059,33.236,2.178,70.023,4.594,16.506,14.223,55.281,14.576,75.988h30.013s-10.884-103.782-9.767-126.753C3810.681,2837.595,3771.7,2803.8,3771.7,2803.8Z" transform="translate(-3670.111 -2803.798)" fill="#3f464f"/>
      <path id="Path_12930" data-name="Path 12930" d="M3819.887,3079.7c-.051,1.06-.1,2.05-.151,3.12-1.117,22.971,9.767,126.753,9.767,126.753h-30.013c-.353-20.707-9.982-59.478-14.576-75.983-10.238-36.788-2.178-70.052-2.178-70.052C3802.215,3096.283,3819.853,3079.735,3819.887,3079.7Z" transform="translate(-3688.933 -2848.4)" fill="#353b42"/>
      <path id="Path_12931" data-name="Path 12931" d="M3716.469,3082.882v.066c-2.485,28.162-4.057,127.355-4.057,127.355h-23.546c-21.389-108.505-4.926-142.526-4.926-142.526C3699.286,3095.358,3716.469,3082.882,3716.469,3082.882Z" transform="translate(-3671.447 -2849.128)" fill="#353b42"/>
      <path id="Path_12932" data-name="Path 12932" d="M3755.944,2916.379s13.287-4.431,22.674-10.9c0,0-11.652,30.5-18.389,37.14Z" transform="translate(-3684.85 -2821.259)" fill="#353b42"/>
    </g>
    <g id="Group_3708" data-name="Group 3708" transform="translate(3676.999 2578.408)">
      <path id="Path_12933" data-name="Path 12933" d="M3710.137,2646.213s15.2-3.36,23.479-3.451,21.018,2.96,21.018,2.96c13.04,1.938,25.172,4.7,25.172,4.7l1.6,24.075c12.986,16.619,13.716,22.1,13.716,29.456,0,12.731-11.266,22.19-11.266,22.19l-9.865,50c-43.187,16.787-72.835.961-72.835.961-4.79-32.627-17.686-74.456-17.686-74.456v-48.49C3690.093,2651.131,3703.4,2648.156,3710.137,2646.213Z" transform="translate(-3683.467 -2609.417)" fill="#e8ebef"/>
      <path id="Path_12934" data-name="Path 12934" d="M3757.014,2673.754l-12.562-11.733-6.569,14.495s-20.23-11.811-21.736-30.312c.9-.2,15.24-3.352,23.257-3.441,8.281-.093,20.928,2.96,20.928,2.96.156.041.307.083.462.123C3761.356,2651.249,3761.786,2662.889,3757.014,2673.754Z" transform="translate(-3689.079 -2609.417)" fill="#b8bbbf"/>
      <g id="Group_3707" data-name="Group 3707" transform="translate(36.21 0)">
        <path id="Path_12935" data-name="Path 12935" d="M3752.389,2633.5l.08,20.5-25.083.1-.1-26.668A38.115,38.115,0,0,0,3752.389,2633.5Z" transform="translate(-3727.201 -2606.784)" fill="#faa284"/>
        <path id="Path_12936" data-name="Path 12936" d="M3727.265,2623.147l-.08-20.544,25.083-.1.105,26.714A38.115,38.115,0,0,1,3727.265,2623.147Z" transform="translate(-3727.184 -2602.505)" fill="#ef8d72"/>
      </g>
      <path id="Path_12937" data-name="Path 12937" d="M3750.468,2634.757s.523,12.9-7.725,17.651c0,0-16.2-4.422-17.358-17.651l-9.292,10.082s5.883,17.257,21,24.3l6.169-13.829,12.711,12.562s5.155-14.666,4.3-24.3Z" transform="translate(-3689.069 -2608.043)" fill="#e8ebef"/>
      <path id="Path_12938" data-name="Path 12938" d="M3794.534,2724.7s-3.278,2.775-10.41,3.391c-14.392,1.242-38,3.831-58.808.486-8.729-1.4-15.148-5.811-21.723-10.966,0,0,3.919,22.377,31.276,21.925S3792.819,2742.445,3794.534,2724.7Z" transform="translate(-3686.923 -2622.271)" opacity="0.1"/>
    </g>
    <path id="Path_12939" data-name="Path 12939" d="M3773.506,2810.219s-39.576-2.807-78.992-14.362a78.435,78.435,0,0,1,7.119-8.822c-.065-.034.108-.053.108-.053-4.79-32.627-17.274-74.456-17.274-74.456v-6.771l15.98-5.486,20.77,45.354,57.549,17.523-4.6,23.746h0s13.734,11.965,22.855,63.589l-30.675-1.782Z" transform="translate(-6.64 -40.884)" opacity="0.1"/>
    <g id="Group_3710" data-name="Group 3710" transform="translate(3662.159 2623.152)">
      <g id="Group_3709" data-name="Group 3709" transform="translate(109.27 63.827)">
        <path id="Path_12940" data-name="Path 12940" d="M3799.408,2841.4l-1.933-2.182,25.505-105.634,62.615,1.077,2.573,2.86Z" transform="translate(-3797.475 -2733.583)" fill="#c8ced6"/>
        <path id="Path_12941" data-name="Path 12941" d="M3826.193,2737.577l-26.384,104.508,61.3-.019,27.459-103.86Z" transform="translate(-3797.876 -2734.269)" fill="#edf2ee"/>
      </g>
      <path id="Path_12942" data-name="Path 12942" d="M3781.989,2796.635l9.581-7.883s8.923-3.274,13.558-5.117c4.757-1.889,5.9-3.567,5.9-3.567l-1.9,7.86s26.455-3.592,27.382.124a5.752,5.752,0,0,1-.31,3.418s4.036-.061,3.031,4.578c0,0,.114.277-2.439.976,0,0,2.351,3.244-1.752,5.433,0,0,1.16,2.8-2.245,4.376s-21.358,5.777-21.358,5.777-15.724.495-21.948-3.518Z" transform="translate(-3685.546 -2677.739)" fill="#faa284"/>
      <path id="Path_12943" data-name="Path 12943" d="M3773.761,2764.067a223.818,223.818,0,0,1-61.427-21.668c-15.868-63.437-31.53-85.875-31.53-85.875-33.408,9.516-3.878,107.606,12.374,115.732,8.8,4.4,47.718,17.755,75.475,17.234C3772.3,2785.454,3776.448,2774.833,3773.761,2764.067Z" transform="translate(-3665.552 -2656.524)" fill="#e8ebef"/>
    </g>
    <g id="Group_3715" data-name="Group 3715" transform="translate(3645.797 2462.178)">
      <path id="Path_12944" data-name="Path 12944" d="M3789.25,2560.013s21.3,12.08,6.943,30.633C3796.193,2590.646,3800.254,2572.309,3789.25,2560.013Z" transform="translate(-3670.431 -2478.979)" fill="#72382a"/>
      <path id="Path_12945" data-name="Path 12945" d="M3706.838,2477.952s-16-29.874-41.4-7.4c0,0-19.846,15.236-12.289,25.811s-19.774,22.871-.064,45.506-22.624,28.21,8.981,55.736c0,0,9.013,8.962,1.082,20.582,0,0,32.184-4.508,28.688-31.326,0,0,5.026,9.894.633,20.267,0,0,17.225-16.448,11.395-31.493s-5.7-29.3-.289-35.3S3721.751,2506.8,3706.838,2477.952Z" transform="translate(-3645.797 -2462.179)" fill="#5b2a21"/>
      <path id="Path_12946" data-name="Path 12946" d="M3722.718,2479.686s-6.292-9.094-17.637-.731-3.151,14.35-3.151,14.35Z" transform="translate(-3654.945 -2464.452)" fill="#e0b155"/>
      <path id="Path_12947" data-name="Path 12947" d="M3773.533,2546.778l1.875-6.644a38.2,38.2,0,0,1,8.139.229s17.7-43.488-22.36-51.178c0,0-23.208-20.817-54.408-5.356,0,0-36.188,14.213-18.808,59.747L3712.556,2565Z" transform="translate(-3652.228 -2464.915)" fill="#72382a"/>
      <path id="Path_12948" data-name="Path 12948" d="M3699.262,2517.955c41.338,7.3,68.1-12.865,77.11-21.175,11.005,6.309,13.875,16.975,13.818,26.531C3738.277,2538.484,3699.262,2517.955,3699.262,2517.955Z" transform="translate(-3654.978 -2468.12)" fill="#89493d"/>
      <path id="Path_12949" data-name="Path 12949" d="M3696.367,2547.444l.662.224h0s16.995,10.489,19.479-31.339c6.626,7.455,6.731,25.774,6.731,25.774,8.658-1.765,26.474-.429,26.474-.429,3.079-29.818-5.177-39.5-5.177-39.5,15.108,7.115,11.416,39.4,11.416,39.4a25.742,25.742,0,0,1,11.647,1.37l6.037.644s.162,19.562-.572,27.6c-1.44,15.737-9.619,27.25-25.056,30.891-37.223,8.775-47.716-26.586-47.716-26.586s-13.992.295-15.617-17.8C3683.348,2542.893,3696.367,2547.444,3696.367,2547.444Z" transform="translate(-3652.457 -2469.046)" fill="#faa284"/>
      <path id="Path_12950" data-name="Path 12950" d="M3703.784,2584.283s10.091,26.148,30.954,28.968c12.7,1.718,23.621-3.7,30.226-8.208a31.2,31.2,0,0,1-16.736,9.664c-37.223,8.775-47.716-26.586-47.716-26.586s-11.084.144-14.655-12.432C3695.159,2588.594,3703.784,2584.283,3703.784,2584.283Z" transform="translate(-3652.676 -2481.67)" fill="#ef8d72"/>
      <g id="Group_3711" data-name="Group 3711" transform="translate(93.057 88.654)" opacity="0.9">
        <path id="Path_12951" data-name="Path 12951" d="M3758.147,2584.355a15.061,15.061,0,1,0,14.978-15.144A15.063,15.063,0,0,0,3758.147,2584.355Z" transform="translate(-3758.147 -2569.212)" fill="#ea7460" opacity="0"/>
        <path id="Path_12952" data-name="Path 12952" d="M3773.406,2570.81a13.738,13.738,0,1,0,13.814,13.661A13.738,13.738,0,0,0,3773.406,2570.81Z" transform="translate(-3758.421 -2569.486)" fill="#ea7460" opacity="0.091"/>
        <path id="Path_12953" data-name="Path 12953" d="M3773.688,2572.407a12.415,12.415,0,1,0,12.484,12.346A12.415,12.415,0,0,0,3773.688,2572.407Z" transform="translate(-3758.696 -2569.76)" fill="#ea7460" opacity="0.182"/>
        <path id="Path_12954" data-name="Path 12954" d="M3773.97,2574a11.092,11.092,0,1,0,11.152,11.03A11.093,11.093,0,0,0,3773.97,2574Z" transform="translate(-3758.97 -2570.034)" fill="#ea7460" opacity="0.273"/>
        <path id="Path_12955" data-name="Path 12955" d="M3774.251,2575.6a9.768,9.768,0,1,0,9.822,9.713A9.769,9.769,0,0,0,3774.251,2575.6Z" transform="translate(-3759.244 -2570.309)" fill="#ea7460" opacity="0.364"/>
        <path id="Path_12956" data-name="Path 12956" d="M3774.533,2577.2a8.445,8.445,0,1,0,8.492,8.4A8.446,8.446,0,0,0,3774.533,2577.2Z" transform="translate(-3759.519 -2570.583)" fill="#ea7460" opacity="0.455"/>
        <path id="Path_12957" data-name="Path 12957" d="M3774.815,2578.8a7.122,7.122,0,1,0,7.161,7.083A7.121,7.121,0,0,0,3774.815,2578.8Z" transform="translate(-3759.793 -2570.858)" fill="#ea7460" opacity="0.545"/>
        <path id="Path_12958" data-name="Path 12958" d="M3775.1,2580.4a5.8,5.8,0,1,0,5.83,5.766A5.8,5.8,0,0,0,3775.1,2580.4Z" transform="translate(-3760.067 -2571.132)" fill="#ea7460" opacity="0.636"/>
        <path id="Path_12959" data-name="Path 12959" d="M3775.378,2581.992a4.475,4.475,0,1,0,4.5,4.45A4.476,4.476,0,0,0,3775.378,2581.992Z" transform="translate(-3760.341 -2571.406)" fill="#ea7460" opacity="0.727"/>
        <path id="Path_12960" data-name="Path 12960" d="M3775.66,2583.589a3.152,3.152,0,1,0,3.169,3.135A3.153,3.153,0,0,0,3775.66,2583.589Z" transform="translate(-3760.616 -2571.68)" fill="#ea7460" opacity="0.818"/>
        <path id="Path_12961" data-name="Path 12961" d="M3775.942,2585.187a1.829,1.829,0,1,0,1.838,1.819A1.83,1.83,0,0,0,3775.942,2585.187Z" transform="translate(-3760.89 -2571.955)" fill="#ea7460" opacity="0.909"/>
        <path id="Path_12962" data-name="Path 12962" d="M3775.72,2587.293a.506.506,0,1,0,.5-.51A.506.506,0,0,0,3775.72,2587.293Z" transform="translate(-3761.165 -2572.229)" fill="#ea7460"/>
      </g>
      <g id="Group_3712" data-name="Group 3712" transform="translate(50.962 85.711)" opacity="0.9">
        <path id="Path_12963" data-name="Path 12963" d="M3707.325,2583.15a17.394,17.394,0,1,0,17.3-17.491A17.394,17.394,0,0,0,3707.325,2583.15Z" transform="translate(-3707.325 -2565.659)" fill="#ea7460" opacity="0"/>
        <path id="Path_12964" data-name="Path 12964" d="M3724.949,2567.5a15.866,15.866,0,1,0,15.954,15.779A15.869,15.869,0,0,0,3724.949,2567.5Z" transform="translate(-3707.642 -2565.976)" fill="#ea7460" opacity="0.091"/>
        <path id="Path_12965" data-name="Path 12965" d="M3725.275,2569.35a14.337,14.337,0,1,0,14.416,14.258A14.338,14.338,0,0,0,3725.275,2569.35Z" transform="translate(-3707.958 -2566.292)" fill="#ea7460" opacity="0.182"/>
        <path id="Path_12966" data-name="Path 12966" d="M3725.6,2571.194a12.81,12.81,0,1,0,12.88,12.739A12.81,12.81,0,0,0,3725.6,2571.194Z" transform="translate(-3708.276 -2566.609)" fill="#ea7460" opacity="0.273"/>
        <path id="Path_12967" data-name="Path 12967" d="M3725.924,2573.04a11.281,11.281,0,1,0,11.343,11.218A11.283,11.283,0,0,0,3725.924,2573.04Z" transform="translate(-3708.592 -2566.926)" fill="#ea7460" opacity="0.364"/>
        <path id="Path_12968" data-name="Path 12968" d="M3726.25,2574.885a9.753,9.753,0,1,0,9.807,9.7A9.754,9.754,0,0,0,3726.25,2574.885Z" transform="translate(-3708.909 -2567.243)" fill="#ea7460" opacity="0.455"/>
        <path id="Path_12969" data-name="Path 12969" d="M3726.575,2576.73a8.225,8.225,0,1,0,8.27,8.178A8.225,8.225,0,0,0,3726.575,2576.73Z" transform="translate(-3709.226 -2567.56)" fill="#ea7460" opacity="0.545"/>
        <path id="Path_12970" data-name="Path 12970" d="M3726.9,2578.575a6.7,6.7,0,1,0,6.733,6.659A6.7,6.7,0,0,0,3726.9,2578.575Z" transform="translate(-3709.543 -2567.877)" fill="#ea7460" opacity="0.636"/>
        <path id="Path_12971" data-name="Path 12971" d="M3727.226,2580.421a5.168,5.168,0,1,0,5.2,5.139A5.167,5.167,0,0,0,3727.226,2580.421Z" transform="translate(-3709.859 -2568.194)" fill="#ea7460" opacity="0.727"/>
        <path id="Path_12972" data-name="Path 12972" d="M3727.551,2582.266a3.64,3.64,0,1,0,3.661,3.619A3.638,3.638,0,0,0,3727.551,2582.266Z" transform="translate(-3710.177 -2568.51)" fill="#ea7460" opacity="0.818"/>
        <path id="Path_12973" data-name="Path 12973" d="M3727.877,2584.111a2.111,2.111,0,1,0,2.123,2.1A2.109,2.109,0,0,0,3727.877,2584.111Z" transform="translate(-3710.493 -2568.827)" fill="#ea7460" opacity="0.909"/>
        <path id="Path_12974" data-name="Path 12974" d="M3727.621,2586.543a.584.584,0,1,0,.58-.587A.583.583,0,0,0,3727.621,2586.543Z" transform="translate(-3710.81 -2569.144)" fill="#ea7460"/>
      </g>
      <g id="Group_3713" data-name="Group 3713" transform="translate(75.267 110.739)">
        <path id="Path_12975" data-name="Path 12975" d="M3761.65,2595.922s-9.6,3-24.982-.046c0,0,3.724,12.472,14.2,11.666C3760.2,2606.822,3761.65,2595.922,3761.65,2595.922Z" transform="translate(-3736.668 -2595.876)" fill="#b22828"/>
        <path id="Path_12976" data-name="Path 12976" d="M3761.416,2596.678s-9.983,3.41-23.991-.044c0,0,2.353,5.211,13.383,4.877C3760.613,2601.215,3761.416,2596.678,3761.416,2596.678Z" transform="translate(-3736.798 -2596.006)" fill="#fff"/>
      </g>
      <path id="Path_12977" data-name="Path 12977" d="M3768.238,2552.464s7.267-2.831,15.235,2.9c0,0,.084-.981-1.547-2.652a13.7,13.7,0,0,0-11.647-3.027S3767.155,2551.446,3768.238,2552.464Z" transform="translate(-3666.783 -2477.153)" fill="#72382a"/>
      <path id="Path_12978" data-name="Path 12978" d="M3740.787,2553.067s-8.339-3.486-17.659,2.746c0,0-.078-1.119,1.843-2.962s7.64-4.537,13.512-3.027C3738.483,2549.825,3742.059,2551.948,3740.787,2553.067Z" transform="translate(-3659.076 -2477.153)" fill="#72382a"/>
      <g id="Group_3714" data-name="Group 3714" transform="translate(88.713 87.928)">
        <path id="Path_12979" data-name="Path 12979" d="M3752.9,2586.552c7.417,3.339,11.617-.049,12.056-3.6a5.112,5.112,0,0,0-3.143-5.385c-4.522-1.97-7.485-9.157-7.514-9.23h0c-.083,1.621,1.318,7.786,7.01,11.4,1.23.779,1.985,1.583,1.845,2.728-.245,1.991-3.251,4.866-10.254,4.088Z" transform="translate(-3752.902 -2568.335)" fill="#d3755f"/>
      </g>
      <path id="Path_12980" data-name="Path 12980" d="M3731.79,2560.953s4.638-.163,5.2-1.933a2.777,2.777,0,0,1-2.068,3.383,7.009,7.009,0,0,1,1.666,4.334c.158,3.313-1.734,6.092-4.227,6.212s-4.64-2.471-4.8-5.784S3729.3,2561.073,3731.79,2560.953Z" transform="translate(-3659.837 -2478.808)" fill="#754439"/>
      <path id="Path_12981" data-name="Path 12981" d="M3772.789,2560.728s4.638-.163,5.2-1.931a2.776,2.776,0,0,1-2.069,3.381,7.006,7.006,0,0,1,1.667,4.334c.158,3.313-1.735,6.093-4.227,6.212s-4.64-2.47-4.8-5.783S3770.3,2560.847,3772.789,2560.728Z" transform="translate(-3666.876 -2478.77)" fill="#754439"/>
      <path id="Path_12982" data-name="Path 12982" d="M3699.262,2555.491s16.941,5.506,9.141,31.9C3708.4,2587.391,3727.76,2565.16,3699.262,2555.491Z" transform="translate(-3654.978 -2478.202)" fill="#72382a"/>
    </g>
  </g>
</svg>
