<svg xmlns="http://www.w3.org/2000/svg" width="392.973" height="682.492" viewBox="0 0 392.973 682.492">
  <g id="Group_3702" data-name="Group 3702" transform="translate(-3592.172 -242.936)">
    <g id="Group_3692" data-name="Group 3692" transform="translate(3592.172 401.395)">
      <path id="Path_12887" data-name="Path 12887" d="M3648.133,536.4s-26.575-3.688-40.389-2.766-24.667,1.152-4.343-7.377c0,0,7.829-3.687,15.524-3.226,0,0-1.447-4.429,11.906-3.995,12.87.418,18.91.358,24.075,4.685Z" transform="translate(-3592.172 -453.631)" fill="#faa284"/>
      <path id="Path_12888" data-name="Path 12888" d="M3673.976,548.236l-17.056-6.915s-1.691-16.9,8.529-22.28l15.9,4.61Z" transform="translate(-3604.403 -453.638)" fill="#f0f2f1"/>
      <path id="Path_12889" data-name="Path 12889" d="M3808.016,438.375s-21.172,16.539-61.95,86.762c0,0-16.308-7.972-64.471-18.689,0,0-13.375,10.236-9.994,26.524,0,0,58.389,29.5,86.97,29.2,0,0,15.411-3.863,53.029-67.918C3811.6,494.25,3820.582,445.5,3808.016,438.375Z" transform="translate(-3607.097 -438.375)" fill="#1b2320"/>
    </g>
    <g id="Group_3693" data-name="Group 3693" transform="translate(3879.43 889.446)">
      <path id="Path_12890" data-name="Path 12890" d="M3946.52,1069.007h46.215s2.716-12.469-6.93-28.685l-31.138.48S3945.709,1053.6,3946.52,1069.007Z" transform="translate(-3946.468 -1040.322)" fill="#3f332b"/>
      <rect id="Rectangle_570" data-name="Rectangle 570" width="46.215" height="7.297" transform="translate(0.431 28.685)" fill="#261e18"/>
      <path id="Path_12891" data-name="Path 12891" d="M3988.4,1058.063c0,3.162-7.8,5.726-17.432,5.726s-17.432-2.564-17.432-5.726,7.8-5.725,17.432-5.725S3988.4,1054.9,3988.4,1058.063Z" transform="translate(-3947.805 -1042.596)" fill="#5e4f45"/>
    </g>
    <g id="Group_3694" data-name="Group 3694" transform="translate(3747.269 882.706)">
      <path id="Path_12892" data-name="Path 12892" d="M3869.665,1035.918s3.581,18.544.879,31.516h-87.025s-2.972-19.062,34.864-19.017l24.273-16.407Z" transform="translate(-3783.464 -1032.01)" fill="#3f332b"/>
      <path id="Path_12893" data-name="Path 12893" d="M3870.754,1083h-29.467l-.354-5.216a81.539,81.539,0,0,1-28.226,4.8c-8.022,0-28.708.221-28.708.221v-7.1h86.754Z" transform="translate(-3783.566 -1040.277)" fill="#261e18"/>
      <path id="Path_12894" data-name="Path 12894" d="M3816.212,1052.159s-1.28,13.409-31.309,12.772C3784.9,1064.931,3789.04,1052.725,3816.212,1052.159Z" transform="translate(-3783.737 -1035.823)" fill="#5e4f45"/>
      <path id="Path_12895" data-name="Path 12895" d="M3856.2,1070.529s.843-22.03,28.529-22.164c0,0,1.47,14.867-.692,22.164Z" transform="translate(-3797.227 -1035.105)" fill="#352b25"/>
    </g>
    <path id="Path_12896" data-name="Path 12896" d="M3836.153,667.7l-1.621,302.116s23.647,11.793,45.944,2.52l8.52-251.65,6.583-.332,32.193,251.938s17.026,7.814,42.161-1.454L3944.419,667.7Z" transform="translate(-45.858 -80.371)" fill="#25302c"/>
    <path id="Path_12897" data-name="Path 12897" d="M3835.155,888.354l-.623,116.177s23.647,11.841,45.944,2.568l5.264-155.424C3873.258,901.318,3846.142,893.807,3835.155,888.354Z" transform="translate(-45.858 -115.182)" fill="#131917"/>
    <path id="Path_12898" data-name="Path 12898" d="M3976.2,874.226c-16.7,45.289-38.794,16.228-48.272.03l17.519,137.11s17.027,7.719,42.161-1.548Z" transform="translate(-63.529 -119.449)" fill="#131917"/>
    <path id="Path_12899" data-name="Path 12899" d="M3945.076,667.7H3838v41.88c8.919,3.9,26.158,10.161,52.064,14.717l-.115-3.633,6.435-.321.654,5.183a396.059,396.059,0,0,0,52.819,4.449Z" transform="translate(-46.514 -80.371)" fill="#131917"/>
    <path id="Path_12900" data-name="Path 12900" d="M3936.337,431.077c-16.4-3.575-36.514-5.675-57.321-2.4.131,13.577.525,72.208,13.884,118.811C3892.9,547.488,3930.4,462.339,3936.337,431.077Z" transform="translate(-54.275 -34.836)" fill="#d4d6d5"/>
    <path id="Path_12901" data-name="Path 12901" d="M3891.705,449.923l7.45,13.152-18.183,80.47,12.33,15.97,12.773-11.594,1.233-84.249,6.474-10.391-9.215-13.4Z" transform="translate(-54.645 -37.266)" fill="#c94949"/>
    <g id="Group_3695" data-name="Group 3695" transform="translate(3837.258 358.082)">
      <path id="Path_12902" data-name="Path 12902" d="M3895.005,416l-.551,20.06,33.23.913.717-26.1A65.385,65.385,0,0,1,3895.005,416Z" transform="translate(-3894.454 -389.859)" fill="#faa284"/>
      <path id="Path_12903" data-name="Path 12903" d="M3928.53,405.97l.553-20.1-33.23-.914-.718,26.139A65.385,65.385,0,0,0,3928.53,405.97Z" transform="translate(-3894.583 -384.954)" fill="#ef8d72"/>
    </g>
    <path id="Path_12904" data-name="Path 12904" d="M3965.724,444.132a176.876,176.876,0,0,0-41.986-15.36c-5.941,31.261-40.222,118.815-40.222,118.815-13.358-46.6-10.573-106.438-10.7-120.015-10.492,1.651-23.471,3.457-33.929,8.342,0,0-14.087,63.265-7.884,207.316,0,0,46.821,16.834,121.969,2.5,0,0-7.07-100.889,2.692-140.338C3955.658,505.395,3962.636,468.929,3965.724,444.132Z" transform="translate(-44.891 -34.936)" fill="#25302c"/>
    <path id="Path_12905" data-name="Path 12905" d="M3892.306,419.77s1.536,11.593,12.17,16.3c0,0,19.8-3.387,21.193-16.33l9.987,9.746s-6.117,18.527-21.458,24.249l-9.591-14.621-13.033,12.06s-12.052-14.426-11.019-23.855Z" transform="translate(-54.554 -33.455)" fill="#f0f2f1"/>
    <path id="Path_12906" data-name="Path 12906" d="M3868.653,471.8l-5.8,5.27s15.51,61.007,26.655,83.124c0,0,32.174-53.894,42.3-77.445l-4.843-7.685,10.62-3.263s4.258-22.291,3.065-40.23c-3.463-1.03-7.1-1.987-10.843-2.8-5.941,31.261-40.222,118.815-40.222,118.815-13.358-46.6-10.573-106.438-10.7-120.015-3.082.485-6.458,1.2-9.949,2.076l-7.418,35.229Z" transform="translate(-50.964 -34.936)" fill="#1b2320"/>
    <g id="Group_3700" data-name="Group 3700" transform="translate(3801.612 242.935)">
      <path id="Path_12907" data-name="Path 12907" d="M3930.317,293.038s-32.012,15.238-39.723,14.4-32.4-12.663-32.4-12.663c-3.174,14.828,4.613,27.684,4.613,27.684l69.572,16.067,11.731,3.086c3.18-12.553,5.878-25.425,5.854-32.816A29.415,29.415,0,0,1,3930.317,293.038Z" transform="translate(-3851.802 -252.415)" fill="#3b221d"/>
      <path id="Path_12908" data-name="Path 12908" d="M3939.839,275.109c-6.253-25.2-49.263-26.922-49.263-26.922-22.6-13.745-14.116,3.838-14.116,3.838-37.818-13.531-19.8,20.525-19.8,20.525-14-.492.221,12.746.221,12.746s24.693,11.826,32.4,12.663,39.723-14.4,39.723-14.4a29.415,29.415,0,0,0,19.644,15.759C3948.573,276.884,3939.839,275.109,3939.839,275.109Z" transform="translate(-3850.49 -242.935)" fill="#502f26"/>
      <path id="Path_12909" data-name="Path 12909" d="M3942.348,332.493l-5.223,4.4a61.6,61.6,0,0,1-2.717-8.075c-4.22-15.883-2.876-35.784-2.876-35.784-36.488,14.156-67.684,3.918-67.684,3.918,1.744,18.1-4.248,57.983,9.621,78.449,4.132,6.1,9.355,11.216,18.118,12.588,38.176,5.978,47.987-31.369,47.987-31.369s11.965,3.188,14.4-14.448C3956,327.567,3942.348,332.493,3942.348,332.493Z" transform="translate(-3853.017 -252.415)" fill="#faa284"/>
      <path id="Path_12910" data-name="Path 12910" d="M3926.132,299.522s3.062,16.851,7.714,27.027c-3.529-15.158-2.314-33.511-2.314-33.511-36.488,14.156-67.684,3.918-67.684,3.918.19,1.974.264,4.23.273,6.685C3878.312,305.611,3903.727,307.354,3926.132,299.522Z" transform="translate(-3853.017 -252.415)" fill="#ef8d72"/>
      <path id="Path_12911" data-name="Path 12911" d="M3887.833,345.908c-.032,3.284-2.025,5.791-4.454,5.594s-4.37-3.015-4.337-6.3,2.026-5.791,4.454-5.6S3887.866,342.622,3887.833,345.908Z" transform="translate(-3855.892 -261.225)" fill="#502f26"/>
      <path id="Path_12912" data-name="Path 12912" d="M3928.987,344.711c-.031,3.284-2.025,5.791-4.455,5.6s-4.371-3.017-4.337-6.3,2.028-5.79,4.454-5.6S3929.021,341.427,3928.987,344.711Z" transform="translate(-3863.678 -260.998)" fill="#502f26"/>
      <g id="Group_3696" data-name="Group 3696" transform="translate(32.096 85.448)">
        <path id="Path_12913" data-name="Path 12913" d="M3901.752,366.2c-7.382,2.984-11.361-.49-11.657-3.982a5.006,5.006,0,0,1,3.28-5.149c4.5-1.756,7.668-8.672,7.7-8.744h0c.019,1.59-1.584,7.567-7.291,10.886-1.232.718-2,1.475-1.908,2.6.166,1.957,3,4.881,9.875,4.389Z" transform="translate(-3890.076 -348.324)" fill="#db7c65"/>
      </g>
      <g id="Group_3697" data-name="Group 3697" transform="translate(16.617 63.993)">
        <path id="Path_12914" data-name="Path 12914" d="M3871.307,325.608l-.323-2.223a58.063,58.063,0,0,1,17.042-1.358l.079,3.485C3880.78,324.428,3871.425,325.6,3871.307,325.608Z" transform="translate(-3870.984 -321.862)" fill="#502f26"/>
      </g>
      <g id="Group_3698" data-name="Group 3698" transform="translate(53.969 62.953)">
        <path id="Path_12915" data-name="Path 12915" d="M3934.206,326.53c-5.975-2.316-17.049-2.748-17.153-2.771l.728-3.178c.436.089,10.479.439,17.174,4.015Z" transform="translate(-3917.053 -320.58)" fill="#502f26"/>
      </g>
      <path id="Path_12916" data-name="Path 12916" d="M3860.355,250.382s15.917,15.641,53.089,15.6c0,0-24.28,16.932-57.351,5.646C3856.093,271.632,3847.659,251.563,3860.355,250.382Z" transform="translate(-3851.03 -244.344)" fill="#674434"/>
      <path id="Path_12917" data-name="Path 12917" d="M3937.936,364.936c-3.243,9.459-15.338,32.769-41.423,31.35-14.116-.768-21.28-10.081-25.985-16.583a38.336,38.336,0,0,0,4.206,8.415c4.132,6.1,9.355,11.216,18.118,12.588,38.176,5.978,47.987-31.369,47.987-31.369s9.159,2.557,13.212-9.111C3946.926,372.063,3937.936,364.936,3937.936,364.936Z" transform="translate(-3854.281 -265.128)" fill="#ef8d72"/>
      <g id="Group_3699" data-name="Group 3699" transform="translate(29.795 108.455)">
        <path id="Path_12918" data-name="Path 12918" d="M3914.048,376.7s-13.893,2.838-26.811,0c0,0,2.288,11.883,13.406,11.858C3911.123,388.536,3913.926,379,3914.048,376.7Z" transform="translate(-3887.238 -376.701)" fill="#823321"/>
        <path id="Path_12919" data-name="Path 12919" d="M3900.575,382.406c-8.544,0-11.053-3.544-12.129-5.474,10.027,1.979,18.11.8,25.151-.075C3912.834,379,3908.632,382.406,3900.575,382.406Z" transform="translate(-3887.467 -376.73)" fill="#fff"/>
      </g>
    </g>
    <g id="Group_3701" data-name="Group 3701" transform="translate(3867.129 409.197)">
      <path id="Path_12920" data-name="Path 12920" d="M3983.819,647.314l-7.458-4.814-5.421,1.33c-5.222-1.465-7.631-4.771-10.229-5.063s-6.736-2.839-6.736-2.839c-2.229,3.695,2.561,7.376,2.561,7.376l-1.088-.176c-.89-.144-1.781-.294-2.675-.435-1.138-.178-2.273-.378-3.413-.552-1.1-.166-2.2-.379-3.3-.527a19.415,19.415,0,0,0-2.573-.257,10.913,10.913,0,0,0-2.627.426c-1.09.263-6.788,2.54-7.75,2.8l-1.377.366a3.883,3.883,0,0,0,.171,3.3c1.061,1.756,3.68,1.623,5,1.339a22.932,22.932,0,0,0,3.259-1.113,2.72,2.72,0,0,1,2.05-.4,22.823,22.823,0,0,1,2.5.465q2.719.495,5.435,1.026l1.236.239s-8.632,1.929-11.31,2.8c-2.005.649-7.5,6.367-7.5,6.367-3.97,4.086,2.547,5.354,2.547,5.354a2.714,2.714,0,0,0-.706,1.584,1.675,1.675,0,0,0,.638,1.074,4.073,4.073,0,0,0,1.779.853,6.408,6.408,0,0,0,3.559.07,8.223,8.223,0,0,0,.967-.376c.309-.142.614-.3.916-.459.384-.207.758-.431,1.134-.658a31.314,31.314,0,0,0,3.388-2.283c.13-.1.422-.456.588-.472l6.73-.656c-2.227,1.332-4.416,5.545-7.424,7.554a6.13,6.13,0,0,0-1.281,1.078,2.1,2.1,0,0,0-.638,1.6c.1.585.651.733,1.062.878a6.764,6.764,0,0,0,4.1.01,8.576,8.576,0,0,0,2.044-.885,9.592,9.592,0,0,0,1.374-.98,5.555,5.555,0,0,0,.567-.525c3.918-4.716,8.4-7.18,14.367-4.385,8.6,4.026,14.728-8.8,14.728-8.8Z" transform="translate(-3931.295 -483.556)" fill="#faa284"/>
      <path id="Path_12921" data-name="Path 12921" d="M3978.039,641.295c4.484-5.619,7.055-7.7,11.336-13.988,8.423,7.734,9.074,8.3,18.689,17.941a126.094,126.094,0,0,1-12.871,12.926C3982.934,653.392,3978.039,641.295,3978.039,641.295Z" transform="translate(-3940.14 -481.925)" fill="#f0f2f1"/>
      <path id="Path_12922" data-name="Path 12922" d="M3995.138,448s66.433,76.036,64.178,98.767c0,0,4.836,23.809-51.509,69.029,0,0-12.122-2.9-21.877-18.711l32.316-53.674L3985.593,506.5S3980.444,468.268,3995.138,448Z" transform="translate(-3941.404 -447.997)" fill="#25302c"/>
    </g>
  </g>
</svg>
