<?xml version="1.0" encoding="utf-8"?>
<!-- Generator: Adobe Illustrator 16.0.0, SVG Export Plug-In . SVG Version: 6.00 Build 0)  -->
<!DOCTYPE svg PUBLIC "-//W3C//DTD SVG 1.1//EN" "http://www.w3.org/Graphics/SVG/1.1/DTD/svg11.dtd">
<svg version="1.1" id="Layer_1" xmlns="http://www.w3.org/2000/svg" xmlns:xlink="http://www.w3.org/1999/xlink" x="0px" y="0px"
	 width="1920px" height="3480.002px" viewBox="1401 0 1920 3480.002" enable-background="new 1401 0 1920 3480.002"
	 xml:space="preserve">
<g id="Group_7029" transform="translate(1401 -20709.609)">
	<g id="Group_5384" transform="translate(-1400.943 20709.996)">
		
			<linearGradient id="Rectangle_1102_1_" gradientUnits="userSpaceOnUse" x1="1659.527" y1="2010.5254" x2="1659.527" y2="2011.5254" gradientTransform="matrix(4682 0 0 -3480 -7767568.5 7000109)">
			<stop  offset="0" style="stop-color:#FFFFFF"/>
			<stop  offset="0.587" style="stop-color:#3084FF"/>
			<stop  offset="0.66" style="stop-color:#2F7AF9"/>
			<stop  offset="0.78" style="stop-color:#2C62EA"/>
			<stop  offset="0.931" style="stop-color:#283AD1"/>
			<stop  offset="0.995" style="stop-color:#2627C6"/>
		</linearGradient>
		<rect id="Rectangle_1102" x="-0.057" y="-0.387" fill="url(#Rectangle_1102_1_)" width="4682" height="3480"/>
		<g id="Group_5383" transform="translate(0.311 -0.385)">
			<g>
				<defs>
					<rect id="SVGID_1_" x="-0.369" y="0" width="4682" height="3480"/>
				</defs>
				<clipPath id="SVGID_2_">
					<use xlink:href="#SVGID_1_"  overflow="visible"/>
				</clipPath>
				<g id="Group_5382" transform="translate(0 0)" clip-path="url(#SVGID_2_)">
					<g id="Group_5381" transform="translate(-214.41 190.721)">
						<g id="Group_5360" transform="translate(1484.997 2378.478)" opacity="0.5">
							<g id="Group_5359" transform="translate(0)">
								<path id="Path_15637" fill="#FFFFFF" d="M2527.632,482.308c-38.022-5.33-74.586,6.1-100.974,28.258
									c-25.601-37.9-68.231-65.688-119.838-72.924c-79.351-11.112-154.067,29.886-183.808,95.163
									c-22.848-24.347-54.771-41.653-91.989-46.865c-44.41-6.228-87.146,6.075-119.309,30.478
									c25.969-184.836-112.785-355.817-313.54-383.95c-176.422-24.716-342.637,69.041-403.908,216.726
									c-20.514-14.211-44.097-23.372-68.825-26.734c-50.42-7.063-98.713,9.68-131.768,41.007
									c-14.626-73.877-78.357-134.5-163.362-146.412c-17.643-2.425-35.521-2.619-53.212-0.578
									C758.166,108.969,666.182,20.194,543.159,2.958C390.534-18.425,248.016,78.373,224.831,219.158
									c-12.767,77.535,13.38,152.192,64.892,207.247c-23.084,28.099-38.72,61.559-45.465,97.292
									c-119.52,4.551-222.7,86.514-241.332,199.692c-21.144,128.432,74.585,248.366,213.821,267.874
									c90.574,12.686,177.221-20.276,232.561-80.2c25.727,96.646,112.224,174.259,225.507,190.132
									c138.174,19.358,267.832-59.904,305.176-180.688c31.837,35.216,77.046,60.37,130.058,67.8
									c75.5,10.577,147.531-17.333,193.239-67.635c36.85,52.035,96.623,89.943,168.48,100.013
									c110.45,15.469,214.813-39.649,259.393-128.751c44.771,46.5,106.735,79.388,178.605,89.457
									c163.331,22.879,315.85-80.7,340.658-231.374l0.031-0.222c1.623,0.271,3.178,0.675,4.818,0.899
									c69.924,9.8,136.357-20.833,171.509-72.909c18.276,15.205,40.468,24.953,64.03,28.125
									c66.939,9.381,129.446-33.072,139.615-94.822C2640.597,549.339,2594.57,491.688,2527.632,482.308z"/>
								<path id="Path_15638" fill="#FFFFFF" d="M2494.247,692.667c36.231,4.7,71.022-8.058,94.282-31.277
									c-81.123,32.308-143.955-60.393-143.955-60.393c-117.365,120.301-235.976,21.188-235.976,21.188
									c-2.26,112.385-94.026,205.558-229.009,213.95c-134.982,8.392-251.977-90.516-243.411-179.242
									c-43.692,91.788-303.49,106.846-299.894-25.162c158.5-32.753,208.64-134.359,208.64-134.359
									c-204.214,148.638-458.649-1.58-458.649-1.58c6.918,84.642,143.885,128.277,143.885,128.277
									c-43.36,132.941-216.293,217.116-253.174,166.654c-55.789,62.813-130.157-1.635-130.157-1.635
									c-88.427,136.231-291.13,58.199-267.2-77.26c127.087-21.6,176.57-108.063,176.57-108.063
									c-246.848,103.522-484.568-15.592-484.568-15.592c27.28,91.844,213.234,128.125,213.234,128.125
									C431.204,934.577,114.599,848.634,27.172,688.486c-4.363,11.987-7.609,24.352-9.7,36.936
									c-9.639,58.541,6.013,117.033,44.073,164.705s93.951,78.832,157.407,87.718l2.722,0.368
									c81.814,10.601,162.732-17.793,216.443-75.95l18.635-20.179l6.842,25.746c25.2,94.676,108.971,165.31,213.421,179.943
									l2.94,0.4c127.654,16.539,250.564-57.143,285.892-171.394l7.622-24.681l17.816,19.713
									c30.789,34.061,73.756,56.46,120.975,63.078l2.2,0.3c67.276,8.719,133.653-14.919,177.552-63.237l12.747-14.015
									l10.85,15.315c35.882,50.671,93.601,84.934,158.362,94.008l2.609,0.354c99.806,12.929,199-36.977,241.22-121.376
									l9.426-18.83l14.926,15.51c43.974,45.662,104.276,75.867,169.817,85.054l3.214,0.431
									c153.55,19.895,297.409-78.984,320.688-220.421l0.012-0.083l0.007-0.027l2.129-13.966l15.07,2.533
									c0.894,0.146,1.778,0.327,2.647,0.508c0.58,0.118,1.154,0.25,1.741,0.327l1.772,0.244
									c61.384,7.953,122.242-18.309,155.041-66.905l9.334-13.825l13.059,10.965c16.084,13.371,35.605,21.945,56.333,24.744
									L2494.247,692.667z"/>
								<path id="Path_15639" fill="#FFFFFF" d="M341.692,513.83c0,0-71.347-20.312-51.963-87.425
									c-23.088,28.097-38.727,61.558-45.471,97.292c-91.341,3.479-172.994,52.258-214.807,125.544
									c61.492-70.151,192.363-95.651,219.191-66.351C248.643,582.89,267.543,512.94,341.692,513.83z"/>
								<g id="Group_5358" transform="translate(221.627)">
									<path id="Path_15640" fill="#FFFFFF" d="M1690.08,516.412c25.976-184.828-112.779-355.811-313.534-383.943
										c-176.421-24.717-342.638,69.033-403.907,216.726c-20.512-14.214-44.096-23.375-68.824-26.733
										c-50.421-7.063-98.714,9.679-131.768,41.006c-14.626-73.877-78.357-134.5-163.362-146.412
										c-17.643-2.425-35.521-2.619-53.212-0.578C536.538,108.969,444.554,20.194,321.531,2.958
										C168.908-18.425,26.388,78.373,3.208,219.156C-9.559,296.693,16.592,371.35,68.107,426.405
										c-35.77-116.899-5.793-237.873,121.219-291.452c0,0-55.56,61.316-45.483,114.399c0,0,80.785-140.274,252.306-52.578
										c0,0-8.683-51.367-81.553-71.47c111.188-3.862,190.094,95.781,171,188.677c0,0,102.553-66.438,219.489,11.142
										c48.873,36.789,28.647,82.899,28.647,82.899s-78.863-13.271-121.301,26.908c0,0,100.961-23.457,235.6,13.784
										c0,0-3.064-23.234-67.188-57.428c0,0,90.006-59.905,218.7,5.5c0,0,101.473-189.359,323.665-174.267
										c0,0-102.154,9.601-129.54,59.341c0,0,146.888-54.053,268,28.642c0,0-17.461-47.943-55.428-69.612
										c0,0,123.283-4.35,223.709,156.891c27.854,44.723,33.859,135.334,23.971,156.9c0,0,114.789-83.85,247.468-21.863
										c-22.848-24.347-54.772-41.652-91.989-46.865C1764.984,479.712,1722.248,492.015,1690.08,516.412z"/>
									<path id="Path_15641" fill="#FFFFFF" d="M2145.952,457.705c-18.889-10.27-39.469-17.063-60.759-20.055
										c-79.35-11.119-154.067,29.879-183.807,95.156C1901.386,532.806,2008.611,425.925,2145.952,457.705z"/>
								</g>
							</g>
						</g>
						<g id="Group_5361" transform="translate(3458.162 30.832)">
							<path id="Path_15642" fill="#E5F0FF" d="M994.449,300.059c-23.917-0.089-47.423,6.225-68.075,18.287
								c-0.806-18.362-10.925-34.507-26.219-44.645c28.24-16.721,46.938-45.7,46.938-78.665c0-51.784-46.089-93.764-102.939-93.764
								c-15.809-0.04-31.443,3.306-45.852,9.811C775.123,46.599,708.57-0.001,630.029-0.001
								c-97.79,0-177.064,72.207-177.064,161.282c0.001,8.412,0.717,16.809,2.142,25.1c-17.861-9.161-37.658-13.909-57.731-13.847
								c-59.292,0-108.29,40.06-116.212,92.081c-15.383-6.343-31.865-9.592-48.505-9.562c-24.661-0.122-48.803,7.077-69.368,20.688
								c-15.693-22.552-43.268-37.568-74.755-37.568c-48.892,0-88.533,36.107-88.533,80.642c0,44.533,39.642,80.647,88.533,80.647
								c10.94-0.005,21.799-1.884,32.104-5.553c14.92,43.427,59.424,74.942,112.018,74.942c42.874,0,80.354-20.952,100.837-52.209
								c10.935,17.715,31.735,29.703,55.635,29.703c21.313,0,40.134-9.554,51.726-24.173c4.396,72.021,69.887,129.19,150.048,129.19
								c67.176,0,124.04-40.144,143.3-95.525c16.087,8.602,34.059,13.072,52.3,13.012c34.39,0,64.823-15.378,83.52-38.987
								c8.265,55.899,60.8,99,124.427,99c69.361,0,125.594-51.214,125.594-114.4C1120.042,351.276,1063.812,300.059,994.449,300.059
								z"/>
							<path id="Path_15643" fill="#CCDAF1" d="M728.31,454.139l2.348-6.742l6.686,3.6c15.128,8.067,32.016,12.268,49.16,12.226
								c30.982,0,60.334-13.699,78.514-36.643l9.058-11.447l2.071,13.986c7.929,53.656,58.793,94.119,118.301,94.119
								c65.847,0,119.415-48.8,119.415-108.774c-124.222,99.645-220.987-6.005-191.474-73.14
								c-67.256,15.872-74.123-33.762-74.123-33.762c-24.709,15-53.53,11.252-53.53,11.252
								c20.588-18.753,32.942-52.509,32.942-52.509c-53.531,56.26-156.478,67.518-156.478,67.518c28.821,7.5,70,3.751,70,3.751
								s-8.24,71.261-86.479,78.762c-78.238,7.501-107.06-52.508-107.06-52.508c-53.53,41.256-102.946,0-102.946,0
								c-65.885,26.254-90.593-7.5-90.593-7.5c45.3,0,70-18.753,70-18.753c-107.06,18.753-152.356-33.762-152.356-33.762
								c0,22.51,28.821,41.263,28.821,41.263c-94.706,45.007-144.122-33.762-144.122-33.762c-66.914,60.267-135.545,29.01-150.3,7.5
								c0,41.367,36.943,75.019,82.353,75.019c10.176-0.005,20.276-1.751,29.863-5.163l6.162-2.191l1.973,5.755
								c14.588,42.46,57.231,70.989,106.123,70.989c38.936,0,75.543-18.955,95.537-49.467l5.463-8.336l5.225,8.462
								c10.219,16.555,29.471,26.839,50.253,26.839c18.409,0,35.876-8.162,46.719-21.835l10.207-12.873l0.968,15.858
								c4.239,69.459,67.432,123.874,143.879,123.874C654.042,545.74,709.257,508.93,728.31,454.139z"/>
							<path id="Path_15644" fill="#FFFFFF" d="M288.245,281.307c0,0,12.46-102.838,125.563-107.699
								c-5.45-0.707-10.94-1.065-16.437-1.072c-59.292,0-108.29,40.06-116.212,92.081c-15.383-6.343-31.865-9.592-48.505-9.562
								c-22.925-0.079-45.428,6.156-65.042,18.022C182.47,269.464,251.62,254.621,288.245,281.307z"/>
							<path id="Path_15645" fill="#FFFFFF" d="M892.877,132.522c0,0-39.541-27.249-94.575-21.439
								C775.123,46.599,708.571-0.001,630.026-0.001c-97.79,0-177.064,72.207-177.064,161.282c0,8.412,0.717,16.809,2.141,25.1
								v14.286c0,0-69.399-9.38-70.771,49.384c0,0,37.743-46.886,92.646-22.5c0,0,38.435-95.023,142.754-101.899
								c0,0-41.868-11.252-90.592,8.127c0,0,94.707-85.018,219.614,3.124c0,0-54.899-0.619-63.823,41.89
								c0,0,48.723-45.64,114.613-18.134C799.544,160.655,829.739,120.646,892.877,132.522z"/>
							<path id="Path_15646" fill="#FFFFFF" d="M1106.606,363.005c-20.682-37.332-63.125-62.946-112.16-62.946
								c-23.918-0.089-47.422,6.225-68.075,18.287C926.371,318.346,1037.629,291.006,1106.606,363.005z"/>
						</g>
						<g id="Group_5362" transform="translate(2722.174 2485.959)">
							<path id="Path_15647" fill="#F8FBFF" d="M2301.372,694.417c-58.081,0-112.135,15.58-157.538,42.314
								c-1.866-42.5-25.294-79.862-60.677-103.319c65.36-38.688,108.627-105.74,108.627-182.039c0-119.853-106.661-217-238.236-217
								c-36.586-0.089-72.768,7.657-106.111,22.719c-53.629-149.244-207.66-257.085-389.425-257.085
								c-226.306,0-409.769,167.106-409.769,373.249c0.004,19.464,1.664,38.893,4.963,58.075
								c-41.341-21.192-87.154-32.177-133.61-32.036c-137.212,0-250.6,92.707-268.931,213.094
								c-35.598-14.684-73.74-22.206-112.248-22.136c-60.072,0-115.563,17.8-160.533,47.874
								c-36.326-52.188-100.138-86.938-173-86.938c-113.153,0-204.881,83.557-204.881,186.625
								c0,103.069,91.725,186.623,204.879,186.623c25.318-0.005,50.448-4.35,74.299-12.845
								c34.521,100.5,137.524,173.431,259.236,173.431c99.207,0,185.96-48.479,233.354-120.825
								c25.307,41,73.45,68.741,128.766,68.741c49.316,0,92.87-22.1,119.7-55.932c10.163,166.667,161.727,298.975,347.244,298.975
								c155.451,0,287.046-92.899,331.617-221.068c37.228,19.905,78.816,30.252,121.031,30.109
								c79.601,0,150.021-35.594,193.289-90.217c19.121,129.344,140.708,229.1,287.952,229.1
								c160.521,0,290.649-118.528,290.649-264.745C2592.02,812.942,2461.893,694.417,2301.372,694.417z"/>
							<path id="Path_15648" fill="#F0F6FF" d="M1685.466,1050.982l5.432-15.607l15.469,8.329
								c35.007,18.672,74.09,28.394,113.765,28.3c71.709,0,139.634-31.71,181.7-84.815l20.976-26.478l4.788,32.357
								c18.354,124.18,136.058,217.817,273.781,217.817c152.375,0,276.354-112.928,276.354-251.727
								c-287.472,230.6-511.418-13.9-443.117-169.264c-155.653,36.74-171.534-78.121-171.534-78.121
								c-57.176,34.722-123.884,26.039-123.884,26.039c47.648-43.4,76.233-121.522,76.233-121.522
								c-123.878,130.206-362.12,156.244-362.12,156.244c66.709,17.36,162,8.685,162,8.685s-19.061,164.922-200.121,182.282
								c-181.06,17.361-247.768-121.521-247.768-121.521c-123.884,95.476-238.236,0-238.236,0
								c-152.469,60.76-209.65-17.362-209.65-17.362c104.825,0,162-43.399,162-43.399c-247.762,43.399-352.587-78.13-352.587-78.13
								c0,52.083,66.709,95.483,66.709,95.483c-219.183,104.168-333.535-78.122-333.535-78.122
								c-154.853,139.46-313.677,67.128-347.824,17.362c0,95.726,85.5,173.6,190.587,173.6c23.551-0.008,46.926-4.051,69.111-11.954
								l14.258-5.065l4.57,13.3c33.754,98.272,132.449,164.3,245.6,164.3c90.105,0,174.817-43.866,221.081-114.479l12.642-19.301
								l12.089,19.604c23.646,38.306,68.213,62.1,116.306,62.1c42.605,0,83.02-18.892,108.115-50.531l23.615-29.789l2.242,36.691
								c9.807,160.753,156.063,286.672,332.973,286.672C1513.589,1262.963,1641.38,1177.778,1685.466,1050.982z"/>
							<path id="Path_15649" fill="#FFFFFF" d="M667.063,651.015c0,0,28.835-237.992,290.58-249.25
								c-12.617-1.635-25.326-2.462-38.049-2.478c-137.211,0-250.6,92.707-268.931,213.095
								c-35.598-14.682-73.74-22.2-112.247-22.128c-53.05-0.178-105.125,14.249-150.521,41.7
								C422.266,623.597,582.302,589.251,667.063,651.015z"/>
							<path id="Path_15650" fill="#FFFFFF" d="M2066.307,306.698c0,0-91.511-63.071-218.871-49.613
								C1793.805,107.841,1639.776,0,1458.01,0c-226.306,0-409.769,167.106-409.769,373.249c0.005,19.464,1.665,38.893,4.963,58.075
								v33.067c0,0-160.608-21.701-163.787,114.291c0,0,87.353-108.5,214.414-52.082c0,0,88.944-219.9,330.357-235.813
								c0,0-96.886-26.038-209.651,18.81c0,0,219.178-196.75,508.24,7.236c0,0-127.061-1.447-147.706,96.924
								c0,0,112.767-105.607,265.235-41.951C1850.307,371.8,1920.193,279.217,2066.307,306.698z"/>
							<path id="Path_15651" fill="#FFFFFF" d="M2560.94,840.073c-47.862-86.382-146.083-145.66-259.567-145.66
								c-58.081,0-112.136,15.58-157.538,42.314C2143.834,736.728,2401.291,673.454,2560.94,840.073z"/>
						</g>
						<g id="Group_5363" transform="translate(3787.833 1550.332)">
							<path id="Path_15652" fill="#E5F0FF" d="M1379.643,386.671c-34.821,0-67.228,8.677-94.444,23.561
								c-1.117-23.666-15.163-44.463-36.375-57.531c39.185-21.543,65.122-58.882,65.122-101.363
								c0-66.738-63.943-120.833-142.824-120.833c-21.832-0.069-43.457,4.229-63.602,12.644
								C1075.364,60.047,983.03-0.001,874.064-0.001c-135.67,0-245.651,93.055-245.651,207.833
								c0.004,10.85,1.001,21.676,2.978,32.343c-25.031-11.855-52.402-17.952-80.1-17.841c-82.259,0-150.229,51.624-161.221,118.662
								c-21.487-8.202-44.301-12.38-67.301-12.324c-36.006,0-69.273,9.909-96.234,26.658c-21.773-29.065-60.029-48.41-103.708-48.41
								c-67.838,0-122.829,46.524-122.829,103.917s54.993,103.917,122.831,103.917c15.133,0.003,30.169-2.412,44.541-7.153
								c20.694,55.967,82.438,96.576,155.399,96.576c59.48,0,111.48-27,139.9-67.281c15.169,22.832,44.029,38.278,77.19,38.278
								c29.564,0,55.678-12.31,71.758-31.146c6.101,92.811,96.954,166.479,208.171,166.479c93.189,0,172.083-51.729,198.801-123.1
								c22.559,11.142,47.401,16.884,72.563,16.77c47.712,0,89.938-19.817,115.869-50.239
								c11.467,72.025,84.355,127.568,172.626,127.568c96.229,0,174.235-66,174.235-147.414S1475.871,386.671,1379.643,386.671z"/>
							<path id="Path_15653" fill="#CCDAF1" d="M1010.417,585.222l3.252-8.69l9.276,4.634c21.21,10.451,44.554,15.846,68.199,15.761
								c42.987,0,83.707-17.661,108.922-47.227l12.572-14.745l2.871,18.015c11.006,69.146,81.566,121.292,164.13,121.292
								c91.349,0,165.672-62.883,165.672-140.17c-172.339,128.4-306.592-7.738-265.646-94.252
								c-93.308,20.458-102.828-43.5-102.828-43.5c-34.278,19.338-74.269,14.5-74.269,14.5c28.566-24.166,45.7-67.663,45.7-67.663
								c-74.268,72.5-217.086,87-217.086,87c39.99,9.665,97.116,4.829,97.116,4.829s-11.424,91.837-119.97,101.5
								s-148.53-67.671-148.53-67.671c-74.268,53.169-142.818,0-142.818,0c-91.399,33.839-125.682-9.665-125.682-9.665
								c62.838,0,97.116-24.166,97.116-24.166c-148.529,24.166-211.374-43.5-211.374-43.5c0,29,39.99,53.162,39.99,53.162
								c-131.395,58.005-199.95-43.5-199.95-43.5c-92.827,77.656-188.046,37.374-208.515,9.665c0,53.3,51.258,96.666,114.258,96.666
								c14.075,0.005,28.061-2.241,41.427-6.652l8.552-2.825l2.74,7.411c20.232,54.722,79.4,91.489,147.225,91.489
								c54.018,0,104.807-24.424,132.536-63.746l7.579-10.744l7.254,10.9c14.17,21.334,40.889,34.583,69.717,34.583
								c25.545,0,49.772-10.521,64.817-28.14l14.158-16.582l1.342,20.43c5.88,89.513,93.558,159.626,199.613,159.626
								C907.378,703.257,983.987,655.822,1010.417,585.222z"/>
							<path id="Path_15654" fill="#FFFFFF" d="M399.9,362.504c0,0,17.279-132.516,174.193-138.785
								c-7.566-0.913-15.18-1.376-22.801-1.385c-82.258,0-150.229,51.625-161.221,118.662c-21.487-8.202-44.301-12.38-67.301-12.324
								c-31.574-0.161-62.654,7.837-90.229,23.22C253.148,347.237,349.085,328.109,399.9,362.504z"/>
							<path id="Path_15655" fill="#FFFFFF" d="M1238.721,170.777c0,0-54.859-35.119-131.206-27.632
								C1075.359,60.045,983.025-0.003,874.061-0.003c-135.67,0-245.651,93.055-245.651,207.833
								c0.003,10.85,1.001,21.675,2.978,32.343v18.414c0,0-96.285-12.087-98.189,63.643c0,0,52.363-60.42,128.535-29
								c0,0,53.317-122.447,198.045-131.301c0,0-58.08-14.5-125.682,10.473c0,0,131.395-109.561,304.682,4.021
								c0,0-76.172-0.8-88.551,53.977c0,0,67.601-58.806,159.012-23.359C1109.238,207.032,1151.125,155.471,1238.721,170.777z"/>
							<path id="Path_15656" fill="#FFFFFF" d="M1535.251,467.78c-28.7-48.101-87.577-81.107-155.609-81.107
								c-34.821,0-67.227,8.677-94.444,23.562C1285.197,410.231,1439.541,375.002,1535.251,467.78z"/>
						</g>
						<g id="Group_5365" transform="translate(0.003 580.948)">
							<path id="Path_15657" fill="#E5F0FF" d="M1071.882,204.53c-15.324-2.235-30.879,2.117-42.817,11.981
								c-10.856-16.067-28.935-27.854-50.821-30.923c-33.648-4.711-65.335,12.678-77.945,40.359
								c-10.349-10.889-24.114-17.904-39.006-19.881c-17.914-2.584-36.121,2.068-50.6,12.93
								c11.012-78.387-47.831-150.894-132.961-162.82c-74.817-10.479-145.3,29.274-171.284,91.907
								c-26.303-18.047-61.583-15.539-85.068,6.047c-6.2-31.327-33.229-57.031-69.274-62.083
								c-7.482-1.032-15.064-1.114-22.567-0.243C321.51,46.213,282.5,8.568,230.331,1.254
								C165.609-7.812,105.175,33.234,95.343,92.937c-5.412,32.878,5.674,64.539,27.517,87.886
								c-9.791,11.917-16.42,26.109-19.277,41.266c-50.684,1.927-94.438,36.685-102.341,84.677
								c-8.971,54.47,31.625,105.329,90.673,113.601c38.411,5.386,75.148-8.595,98.62-34.007
								c10.906,40.985,47.587,73.9,95.63,80.628c58.593,8.211,113.578-25.405,129.415-76.627
								c14.435,15.767,33.961,25.946,55.153,28.752c32.012,4.488,62.563-7.348,81.946-28.683
								c15.625,22.072,40.97,38.146,71.446,42.412c46.838,6.562,91.092-16.812,110-54.6c18.984,19.72,45.265,33.665,75.735,37.937
								c69.268,9.7,133.946-34.228,144.466-98.121l0.012-0.1c0.688,0.118,1.348,0.292,2.041,0.39
								c29.652,4.154,57.825-8.837,72.732-30.923c7.75,6.45,17.162,10.586,27.154,11.934c28.386,3.974,54.892-14.027,59.2-40.213
								C1119.775,232.96,1100.267,208.509,1071.882,204.53z"/>
							<path id="Path_15658" fill="#CCDAF1" d="M1057.724,293.737c14.659,1.971,29.409-2.922,39.984-13.264
								c-34.4,13.7-61.046-25.614-61.046-25.614c-49.772,51.02-100.069,8.99-100.069,8.99
								c-0.961,47.658-39.878,87.168-97.115,90.725c-57.238,3.556-106.854-38.383-103.229-76.007
								c-18.528,38.926-128.7,45.307-127.174-10.667c67.22-13.889,88.481-56.981,88.481-56.981
								c-86.6,63.036-194.5-0.668-194.5-0.668c2.934,35.891,61.015,54.394,61.015,54.394
								c-18.384,56.377-91.722,92.074-107.36,70.678c-23.659,26.637-55.2-0.7-55.2-0.7c-37.5,57.775-123.453,24.682-113.309-32.76
								c53.9-9.157,74.88-45.828,74.88-45.828c-104.682,43.899-205.493-6.61-205.493-6.61
								c11.568,38.946,90.424,54.331,90.424,54.331c-65.157,92.569-199.416,56.122-236.489-11.792
								c-1.853,5.082-3.231,10.324-4.116,15.661c-4.089,24.828,2.547,49.627,18.69,69.849s39.84,33.428,66.746,37.2L94,414.825
								c34.7,4.5,69.012-7.543,91.791-32.21l7.9-8.553l2.9,10.918c10.687,40.144,46.214,70.101,90.511,76.307l1.242,0.167
								c54.136,7.021,106.261-24.229,121.237-72.681l3.234-10.466l7.554,8.364c13.444,14.643,31.598,24.107,51.3,26.748l0.93,0.125
								c28.529,3.695,56.683-6.325,75.3-26.818l5.406-5.942l4.6,6.5c15.213,21.479,39.69,36.017,67.158,39.864l1.1,0.146
								c42.325,5.482,84.387-15.677,102.291-51.471l4-7.981l6.336,6.576c18.64,19.358,44.216,32.169,72.008,36.065l1.367,0.181
								c65.11,8.44,126.119-33.491,135.995-93.472v-0.035l0.006-0.008l0.9-5.929l6.392,1.079c0.381,0.063,0.755,0.139,1.124,0.216
								c0.243,0.049,0.487,0.101,0.737,0.14l0.749,0.1c26.031,3.375,51.845-7.759,65.753-28.369l3.958-5.866l5.537,4.655
								c6.82,5.67,15.1,9.307,23.89,10.493L1057.724,293.737z"/>
							<path id="Path_15659" fill="#FFFFFF" d="M144.896,217.896c0,0-30.251-8.613-22.036-37.07
								c-9.79,11.915-16.42,26.105-19.278,41.26c-38.735,1.468-73.363,22.155-91.092,53.231
								c26.069-29.739,81.572-40.561,92.946-28.133C105.437,247.184,113.452,217.525,144.896,217.896z"/>
							<g id="Group_5364" transform="translate(93.984)">
								<path id="Path_15660" fill="#FFFFFF" d="M716.709,218.996c11.012-78.387-47.831-150.894-132.961-162.82
									c-74.817-10.479-145.3,29.274-171.284,91.907c-26.303-18.047-61.583-15.539-85.068,6.047
									c-6.2-31.327-33.229-57.031-69.274-62.083c-7.482-1.032-15.064-1.114-22.567-0.243
									c-8.028-45.591-47.038-83.236-99.207-90.55C71.625-7.812,11.191,33.234,1.359,92.937
									c-5.412,32.878,5.674,64.539,27.517,87.886C13.713,131.25,26.423,79.947,80.284,57.222c0,0-23.56,26-19.29,48.515
									c0,0,34.259-59.487,107-22.296c0,0-3.683-21.786-34.584-30.311c47.15-1.642,80.61,40.616,72.514,80.015
									c0,0,43.486-28.175,93.077,4.726c20.725,15.594,12.148,35.146,12.148,35.146s-33.442-5.622-51.439,11.412
									c0,0,42.812-9.944,99.906,5.845c0,0-1.3-9.853-28.485-24.354c0,0,38.167-25.4,92.74,2.338c0,0,43.03-80.307,137.256-73.905
									c0,0-43.317,4.071-54.935,25.169c0,0,62.294-22.921,113.652,12.143c0,0-7.4-20.332-23.5-29.519
									c0,0,52.275-1.844,94.862,66.529c11.811,18.969,14.357,57.393,10.169,66.536c0,0,48.673-35.557,104.943-9.27
									c-10.35-10.889-24.117-17.904-39.01-19.88C749.394,203.48,731.188,208.133,716.709,218.996z"/>
								<path id="Path_15661" fill="none" stroke="#FFFFFF" stroke-miterlimit="10" d="M910.022,194.092
									c-8.011-4.351-16.736-7.229-25.763-8.5c-33.648-4.711-65.335,12.678-77.945,40.359
									C806.314,225.949,851.779,180.62,910.022,194.092z"/>
							</g>
						</g>
						<g id="Group_5370" transform="translate(192.525 1495.155)">
							<g id="Group_5367" transform="translate(0)">
								<path id="Path_15662" fill="#E5F0FF" d="M44.72,206.989c15.509-2.265,31.251,2.143,43.332,12.129
									c10.987-16.27,29.284-28.2,51.433-31.301c34.053-4.766,66.115,12.825,78.881,40.84
									c10.475-11.018,24.407-18.115,39.478-20.11c18.126-2.615,36.547,2.089,51.2,13.075
									c-11.143-79.314,48.408-152.702,134.559-164.768c75.716-10.611,147.05,29.622,173.344,93.006
									c26.619-18.259,62.319-15.719,86.085,6.124c6.274-31.7,33.63-57.72,70.111-62.834c7.571-1.039,15.243-1.121,22.835-0.243
									c8.128-46.142,47.6-84.238,100.4-91.636c65.5-9.178,126.662,32.363,136.613,92.783c5.475,33.275-5.743,65.319-27.854,88.942
									c9.909,12.059,16.62,26.419,19.514,41.757c51.3,1.948,95.574,37.123,103.571,85.692
									c9.077,55.125-32.006,106.601-91.76,114.968c-38.872,5.44-76.061-8.7-99.807-34.423
									c-11.043,41.479-48.16,74.789-96.778,81.6c-59.3,8.308-114.945-25.712-130.97-77.545
									c-14.611,15.954-34.373,26.254-55.82,29.093c-32.4,4.544-63.313-7.432-82.927-29.022
									c-15.812,22.328-41.463,38.6-72.3,42.918c-47.406,6.646-92.19-17.014-111.324-55.25
									c-19.215,19.95-45.808,34.068-76.653,38.39c-70.092,9.817-135.551-34.64-146.195-99.3l-0.012-0.101
									c-0.7,0.118-1.367,0.292-2.073,0.391c-30.008,4.2-58.518-8.941-73.606-31.292c-7.841,6.526-17.363,10.711-27.474,12.072
									c-28.728,4.022-55.553-14.199-59.916-40.692C-3.755,235.758,15.992,211.007,44.72,206.989z"/>
								<path id="Path_15663" fill="#CCDAF1" d="M59.041,297.266c-14.833,1.994-29.758-2.957-40.458-13.423
									c34.815,13.868,61.783-25.92,61.783-25.92c50.365,51.631,101.267,9.095,101.267,9.095
									c0.968,48.229,40.352,88.212,98.283,91.816c57.931,3.604,108.134-38.842,104.464-76.928
									c18.753,39.392,130.245,45.855,128.699-10.793c-68.024-14.056-89.544-57.664-89.544-57.664
									c87.641,63.789,196.835-0.675,196.835-0.675c-2.972,36.323-61.744,55.048-61.744,55.048
									c18.6,57.053,92.82,93.181,108.651,71.525c23.94,26.957,55.853-0.7,55.853-0.7c37.949,58.466,124.938,24.975,114.67-33.157
									c-54.541-9.269-75.779-46.377-75.779-46.377c105.943,44.429,207.959-6.694,207.959-6.694
									c-11.7,39.419-91.51,54.985-91.51,54.985c65.947,93.681,201.822,56.795,239.341-11.935
									c1.873,5.145,3.268,10.45,4.164,15.851c4.139,25.12-2.578,50.227-18.915,70.684s-40.315,33.832-67.551,37.645l-1.167,0.16
									c-35.115,4.551-69.837-7.633-92.891-32.6l-8-8.656l-2.939,11.05c-10.813,40.63-46.764,70.948-91.591,77.225l-1.262,0.174
									c-54.785,7.1-107.535-24.521-122.691-73.558l-3.277-10.591l-7.633,8.463c-13.607,14.819-31.979,24.397-51.92,27.068
									l-0.943,0.125c-28.872,3.744-57.356-6.4-76.199-27.131l-5.47-6.02l-4.657,6.576c-15.399,21.745-40.171,36.448-67.963,40.345
									l-1.116,0.146c-42.837,5.553-85.4-15.865-103.527-52.084l-4.045-8.085l-6.4,6.659c-18.871,19.595-44.753,32.558-72.882,36.5
									l-1.373,0.188c-65.904,8.535-127.639-33.897-137.634-94.598l-0.006-0.028v-0.014l-0.911-6l-6.467,1.093
									c-0.387,0.063-0.768,0.139-1.136,0.216c-0.256,0.05-0.5,0.101-0.749,0.14l-0.762,0.1
									c-26.344,3.417-52.463-7.855-66.54-28.71l-4-5.937l-5.606,4.7c-6.903,5.74-15.282,9.424-24.179,10.63L59.041,297.266z"/>
								<path id="Path_15664" fill="#FFFFFF" d="M982.837,220.515c0,0,30.62-8.719,22.3-37.52
									c9.908,12.059,16.618,26.42,19.511,41.757c39.2,1.488,74.243,22.42,92.185,53.872
									c-26.388-30.101-82.553-41.048-94.063-28.475C1022.771,250.15,1014.655,220.132,982.837,220.515z"/>
								<g id="Group_5366" transform="translate(113.407)">
									<path id="Path_15665" fill="#FFFFFF" d="M195.637,221.621c-11.143-79.319,48.4-152.7,134.559-164.769
										c75.716-10.612,147.05,29.622,173.344,93.006c26.619-18.259,62.319-15.719,86.085,6.124
										c6.274-31.699,33.63-57.72,70.11-62.834c7.571-1.039,15.243-1.121,22.835-0.244c8.128-46.141,47.601-84.237,100.4-91.635
										c65.5-9.178,126.661,32.363,136.612,92.783c5.476,33.275-5.742,65.319-27.854,88.942
										c15.351-50.171,2.484-102.087-52.02-125.077c0,0,23.842,26.31,19.521,49.091c0,0-34.671-60.2-108.284-22.566
										c0,0,3.728-22.044,35-30.673c-47.718-1.656-81.584,41.11-73.388,80.976c0,0-44.01-28.517-94.194,4.779
										c-20.975,15.789-12.292,35.572-12.292,35.572s33.841-5.692,52.051,11.551c0,0-43.322-10.062-101.1,5.922
										c0,0,1.311-9.978,28.835-24.653c0,0-38.629-25.7-93.863,2.365c0,0-43.542-81.267-138.899-74.789
										c0,0,43.835,4.119,55.59,25.469c0,0-63.038-23.2-115.013,12.289c0,0,7.491-20.576,23.784-29.872
										c0,0-52.906-1.872-96,67.329c-11.955,19.19-14.533,58.082-10.288,67.33c0,0-49.267-35.982-106.205-9.381
										c10.475-11.017,24.408-18.114,39.478-20.109C162.566,205.933,180.985,210.637,195.637,221.621z"/>
									<path id="Path_15666" fill="none" stroke="#FFFFFF" stroke-miterlimit="10" d="M0,196.425
										c8.107-4.404,16.938-7.32,26.075-8.608c34.053-4.766,66.115,12.825,78.881,40.84C104.957,228.656,58.942,182.787,0,196.425
										z"/>
								</g>
							</g>
							<g id="Group_5369" transform="translate(556.836 7.576)">
								<path id="Path_15667" fill="#E5F0FF" d="M1359.497,259.418c-19.434-2.835-39.16,2.688-54.3,15.199
									c-13.771-20.381-36.7-35.334-64.454-39.224c-42.681-5.977-82.869,16.074-98.863,51.187
									c-13.129-13.811-30.59-22.707-49.479-25.211c-22.72-3.278-45.81,2.621-64.174,16.395
									c13.971-99.415-60.659-191.377-168.637-206.5c-94.888-13.3-184.287,37.13-217.242,116.561
									c-11.036-7.64-23.72-12.565-37.019-14.377c-27.118-3.8-53.101,5.2-70.872,22.052c-7.872-39.732-42.15-72.341-87.871-78.741
									c-9.488-1.306-19.103-1.41-28.616-0.313C407.781,58.622,358.31,10.872,292.138,1.604
									c-82.09-11.5-158.743,40.562-171.209,116.282c-6.867,41.7,7.2,81.858,34.9,111.467
									c-12.415,15.116-20.824,33.113-24.452,52.334c-64.286,2.442-119.783,46.531-129.8,107.4
									c-11.375,69.083,40.108,133.587,115,144.081c48.717,6.826,95.317-10.9,125.082-43.135
									c13.841,51.979,60.36,93.723,121.293,102.26c74.318,10.41,144.055-32.217,164.143-97.182
									c17.123,18.941,41.438,32.469,69.948,36.463c40.607,5.691,79.355-9.317,103.938-36.371
									c19.82,27.985,51.971,48.375,90.617,53.787c59.4,8.322,115.538-21.32,139.516-69.25
									c24.084,25.009,57.413,42.7,96.062,48.117c87.853,12.31,169.886-43.406,183.231-124.443l0.013-0.125
									c0.874,0.146,1.711,0.369,2.591,0.486c37.611,5.275,73.344-11.199,92.253-39.211c9.829,8.178,21.763,13.421,34.434,15.128
									c36.007,5.045,69.623-17.793,75.093-51.005C1420.259,295.476,1395.505,264.459,1359.497,259.418z"/>
								<path id="Path_15668" fill="#CCDAF1" d="M1341.545,372.56c18.593,2.503,37.301-3.705,50.709-16.826
									c-43.63,17.375-77.427-32.481-77.427-32.481c-63.125,64.706-126.918,11.399-126.918,11.399
									c-1.218,60.448-50.571,110.556-123.173,115.071c-72.601,4.516-135.525-48.681-130.926-96.409
									c-23.5,49.37-163.231,57.47-161.3-13.526c85.249-17.619,112.217-72.271,112.217-72.271
									c-109.84,79.943-246.685-0.856-246.685-0.856c3.721,45.528,77.389,68.992,77.389,68.992
									c-23.322,71.5-116.337,116.783-136.169,89.639c-30.008,33.783-70-0.877-70-0.877
									c-47.563,73.271-156.589,31.3-143.717-41.556c68.355-11.621,94.975-58.124,94.975-58.124
									c-132.78,55.682-260.634-8.392-260.634-8.392c14.67,49.399,114.688,68.916,114.688,68.916
									C231.93,502.668,61.639,456.437,14.614,370.305c-2.345,6.447-4.09,13.098-5.213,19.866
									c-5.188,31.479,3.228,62.938,23.7,88.587s50.527,42.4,84.662,47.178l1.461,0.2c44,5.7,87.527-9.568,116.418-40.853
									l10.026-10.849l3.683,13.847c13.546,50.923,58.605,88.914,114.789,96.784l1.579,0.216
									c68.662,8.894,134.771-30.734,153.767-92.185l4.101-13.277l9.582,10.601c16.562,18.322,39.672,30.367,65.065,33.929
									l1.187,0.16c36.182,4.683,71.883-8.03,95.493-34.013l6.86-7.543l5.831,8.238c19.3,27.256,50.346,45.689,85.18,50.567
									l1.4,0.188c53.68,6.957,107.029-19.888,129.74-65.284l5.068-10.124l8.028,8.343c23.653,24.556,56.09,40.8,91.341,45.744
									l1.723,0.229c82.59,10.7,159.967-42.48,172.489-118.557l0.007-0.042v-0.015l1.148-7.515l8.1,1.364
									c0.481,0.084,0.955,0.181,1.424,0.278c0.317,0.063,0.625,0.132,0.937,0.174l0.955,0.132
									c33.017,4.273,65.753-9.854,83.394-35.989l5.02-7.438l7.023,5.899c8.649,7.193,19.15,11.807,30.3,13.312L1341.545,372.56z"
									/>
								<path id="Path_15669" fill="#FFFFFF" d="M183.776,276.364c0,0-38.373-10.925-27.948-47.024
									c-12.414,15.115-20.823,33.113-24.451,52.334c-49.129,1.872-93.053,28.104-115.538,67.524
									c33.073-37.729,103.465-51.443,117.891-35.689C133.729,313.508,143.898,275.884,183.776,276.364z"/>
								<g id="Group_5368" transform="translate(119.203)">
									<path id="Path_15670" fill="#FFFFFF" d="M909.02,277.756c13.971-99.415-60.659-191.377-168.637-206.5
										c-94.888-13.3-184.287,37.13-217.242,116.56c-11.036-7.639-23.72-12.564-37.02-14.376c-27.118-3.8-53.1,5.2-70.872,22.051
										c-7.871-39.731-42.149-72.34-87.871-78.74c-9.487-1.306-19.102-1.411-28.615-0.313
										C288.575,58.613,239.103,10.864,172.931,1.596C90.841-9.904,14.188,42.157,1.722,117.878
										c-6.867,41.7,7.2,81.857,34.899,111.467c-19.239-62.876-3.114-127.937,65.2-156.759c0,0-29.877,32.982-24.458,61.533
										c0,0,43.448-75.45,135.7-28.279c0,0-4.669-27.632-43.86-38.445c59.8-2.074,102.241,51.521,91.966,101.488
										c0,0,55.166-35.738,118.061,5.991c26.281,19.782,15.407,44.583,15.407,44.583s-42.418-7.14-65.241,14.474
										c0,0,54.3-12.616,126.718,7.411c0,0-1.647-12.5-36.138-30.888c0,0,48.411-32.218,117.629,2.964
										c0,0,54.579-101.851,174.087-93.737c0,0-54.947,5.163-69.673,31.918c0,0,79.006-29.072,144.148,15.406
										c0,0-9.4-25.788-29.815-37.443c0,0,66.31-2.338,120.326,84.386c14.976,24.055,18.21,72.791,12.891,84.392
										c0,0,61.739-45.101,133.101-11.76c-13.129-13.811-30.59-22.707-49.479-25.21
										C950.472,258.089,927.383,263.986,909.02,277.756z"/>
									<path id="Path_15671" fill="none" stroke="#FFFFFF" stroke-miterlimit="10" d="M1154.208,246.179
										c-10.158-5.524-21.225-9.18-32.674-10.793c-42.681-5.978-82.869,16.074-98.863,51.186
										C1022.673,286.573,1080.342,229.083,1154.208,246.179z"/>
								</g>
							</g>
						</g>
						<g id="Group_5375" transform="translate(0 2697.18)">
							<g id="Group_5372">
								<path id="Path_15672" fill="#F8FBFF" d="M71.86,332.591c24.92-3.631,50.213,3.447,69.63,19.483
									c17.648-26.129,47.05-45.3,82.639-50.281c54.716-7.668,106.242,20.611,126.749,65.625
									c15.756-16.791,37.774-28.725,63.437-32.321c29.128-4.205,58.733,3.356,82.277,21.015
									c-17.91-127.457,77.77-245.368,216.212-264.761c121.655-17.049,236.275,47.6,278.531,149.445
									c14.145-9.799,30.406-16.115,47.457-18.434c34.771-4.871,68.075,6.673,90.867,28.271
									c10.088-50.941,54.036-92.748,112.654-100.959c12.165-1.674,24.494-1.809,36.693-0.399
									c13.061-74.142,76.49-135.355,161.327-147.24c105.244-14.745,203.527,52,219.508,149.091
									c8.809,53.461-9.227,104.947-44.747,142.912c15.919,19.377,26.7,42.451,31.351,67.094
									c82.421,3.138,153.573,59.66,166.421,137.707c14.589,88.566-51.426,171.268-147.443,184.725
									c-62.464,8.746-122.211-13.986-160.372-55.305c-17.74,66.641-77.389,120.164-155.509,131.109
									c-95.281,13.346-184.693-41.313-210.443-124.6c-21.955,24.285-53.132,41.639-89.688,46.76
									c-52.063,7.292-101.735-11.955-133.26-46.643c-25.407,35.886-66.627,62.021-116.182,68.965
									c-76.166,10.675-148.13-27.34-178.869-88.781c-30.875,32.064-73.612,54.742-123.166,61.686
									c-112.635,15.781-217.81-55.652-234.921-159.549l-0.019-0.16c-1.117,0.188-2.191,0.467-3.321,0.627
									c-48.218,6.756-94.032-14.362-118.272-50.275c-12.603,10.484-27.906,17.206-44.154,19.393
									c-46.164,6.471-89.269-22.81-96.279-65.388C-6.041,378.824,25.692,339.062,71.86,332.591z"/>
								<path id="Path_15673" fill="#F0F6FF" d="M94.875,477.653c-24.983,3.243-48.973-5.553-65.01-21.564
									c55.94,22.281,99.27-41.646,99.27-41.646c80.929,82.958,162.719,14.606,162.719,14.606
									c1.561,77.5,64.848,141.75,157.931,147.538c93.083,5.789,173.756-62.417,167.851-123.6
									c30.133,63.293,209.283,73.675,206.8-17.354c-109.3-22.58-143.879-92.65-143.879-92.65
									c140.826,102.5,316.281-1.086,316.281-1.086c-4.769,58.367-99.22,88.455-99.22,88.455
									c29.907,91.672,149.157,149.722,174.592,114.923c38.467,43.315,89.756-1.127,89.756-1.127
									c60.979,93.944,200.755,40.129,184.256-53.28c-87.64-14.891-121.768-74.518-121.768-74.518
									c170.235,71.386,334.159-10.758,334.159-10.758c-18.81,63.334-147.044,88.357-147.044,88.357
									c105.968,150.523,324.29,91.253,384.581-19.177c3.01,8.265,5.25,16.79,6.691,25.468c6.648,40.366-4.145,80.7-30.399,113.582
									s-64.786,54.359-108.546,60.49l-1.873,0.25c-56.421,7.313-112.218-12.269-149.261-52.376l-12.854-13.91l-4.714,17.747
									c-17.373,65.291-75.143,114-147.176,124.089l-2.022,0.271c-88.033,11.412-172.788-39.399-197.147-118.188l-5.263-17.013
									l-12.279,13.59c-21.236,23.49-50.864,38.938-83.426,43.5l-1.517,0.209c-46.39,6.012-92.166-10.291-122.437-43.608
									l-8.789-9.665l-7.484,10.563c-24.746,34.938-64.542,58.569-109.2,64.823l-1.8,0.244
									c-68.831,8.92-137.231-25.5-166.347-83.699l-6.5-12.985l-10.294,10.7c-30.32,31.486-71.908,52.313-117.1,58.646
									l-2.216,0.306c-105.889,13.719-205.09-54.47-221.146-152.006l-0.012-0.056v-0.021l-1.467-9.629l-10.399,1.752
									c-0.618,0.1-1.224,0.223-1.829,0.348c-0.4,0.076-0.793,0.167-1.2,0.223l-1.217,0.167
									c-42.331,5.483-84.3-12.623-106.923-46.134l-6.43-9.54l-9.001,7.563c-11.091,9.223-24.554,15.138-38.848,17.068
									L94.875,477.653z"/>
								<path id="Path_15674" fill="#FFFFFF" d="M1579.264,354.33c0,0,49.2-14.007,35.832-60.288
									c15.919,19.377,26.7,42.451,31.351,67.094c62.994,2.393,119.3,36.03,148.13,86.569
									c-42.4-48.368-132.649-65.952-151.146-45.752C1643.432,401.953,1630.391,353.718,1579.264,354.33z"/>
								<g id="Group_5371" transform="translate(182.23)">
									<path id="Path_15675" fill="#FFFFFF" d="M314.364,356.111c-17.91-127.457,77.771-245.368,216.212-264.761
										c121.655-17.049,236.275,47.6,278.532,149.445c14.145-9.799,30.405-16.115,47.456-18.434
										c34.771-4.871,68.075,6.673,90.867,28.271c10.088-50.941,54.036-92.748,112.654-100.959
										c12.166-1.674,24.494-1.809,36.693-0.399c13.06-74.142,76.49-135.355,161.327-147.24
										c105.244-14.745,203.527,52,219.508,149.091c8.808,53.461-9.227,104.947-44.747,142.912
										c24.664-80.613,3.989-164.037-83.594-200.986c0,0,38.311,42.286,31.369,78.888c0,0-55.715-96.729-173.987-36.253
										c0,0,5.987-35.426,56.233-49.287c-76.671-2.665-131.088,66.049-117.916,130.115c0,0-70.723-45.821-151.358,7.682
										c-33.7,25.363-19.752,57.156-19.752,57.156s54.379-9.15,83.644,18.558c0,0-69.622-16.178-162.469,9.505
										c0,0,2.116-16.025,46.332-39.6c0,0-62.069-41.313-150.814,3.792c0,0-69.974-130.581-223.2-120.179
										c0,0,70.448,6.623,89.331,40.929c0,0-101.292-37.276-184.813,19.748c0,0,12.042-33.061,38.224-48.007
										c0,0-85.012-3-154.268,108.189c-19.208,30.84-23.347,93.326-16.53,108.2c0,0-79.156-57.825-170.653-15.079
										c15.756-16.784,37.768-28.717,63.437-32.314C261.213,330.888,290.819,338.451,314.364,356.111z"/>
									<path id="Path_15676" fill="none" stroke="#FFFFFF" stroke-miterlimit="10" d="M0.001,315.628
										c13.026-7.082,27.218-11.768,41.9-13.834c54.715-7.669,106.242,20.61,126.749,65.62
										C168.65,367.414,94.712,293.708,0.001,315.628z"/>
								</g>
							</g>
							<g id="Group_5374" transform="translate(894.744 12.175)">
								<path id="Path_15677" fill="#F8FBFF" d="M2184.499,416.834c-32.861-4.607-64.461,5.267-87.266,24.416
									c-22.123-32.752-58.968-56.773-103.57-63.021c-68.575-9.6-133.148,25.83-158.855,82.248
									c-19.744-21.042-47.337-36-79.5-40.512c-36.507-5.269-73.609,4.213-103.113,26.349
									c22.447-159.744-97.472-307.521-270.979-331.825c-152.469-21.361-296.123,59.661-349.073,187.301
									c-17.729-12.28-38.109-20.195-59.479-23.101c-43.579-6.101-85.317,8.371-113.884,35.438
									c-12.641-63.85-67.719-116.239-141.188-126.531c-15.248-2.098-30.699-2.266-45.989-0.5
									c-16.361-92.916-95.86-169.639-202.178-184.53C337.52-15.916,214.348,67.738,194.314,189.412
									c-11.038,67.002,11.561,131.527,56.082,179.102c-19.953,24.283-33.469,53.201-39.3,84.085
									c-103.3,3.931-192.465,74.774-208.57,172.583c-18.278,111,64.455,214.652,184.793,231.513
									c78.281,10.968,153.162-17.521,200.991-69.312c22.23,83.521,96.985,150.6,194.894,164.322
									c119.414,16.729,231.475-51.777,263.749-156.166c27.511,30.436,66.583,52.181,112.399,58.6
									c65.247,9.137,127.5-14.975,167.008-58.451c31.851,44.973,83.508,77.732,145.608,86.43
									c95.461,13.375,185.654-34.263,224.177-111.271c38.7,40.186,92.254,68.609,154.36,77.314
									c141.164,19.776,272.976-69.752,294.419-199.963l0.025-0.195c1.399,0.229,2.746,0.584,4.164,0.779
									c60.435,8.468,117.848-18,148.229-63.01c15.793,13.143,34.972,21.566,55.334,24.307
									c57.851,8.106,111.873-28.586,120.663-81.949C2282.131,474.764,2242.356,424.933,2184.499,416.834z"/>
								<path id="Path_15678" fill="#F0F6FF" d="M2155.651,598.635c31.308,4.057,61.377-6.965,81.479-27.033
									c-70.111,27.924-124.409-52.2-124.409-52.2c-101.436,103.978-203.939,18.321-203.939,18.321
									c-1.953,97.125-81.266,177.647-197.926,184.899c-116.662,7.253-217.767-78.226-210.369-154.907
									c-37.762,79.333-262.289,92.345-259.181-21.738c136.981-28.307,180.317-116.122,180.317-116.122
									c-176.49,128.459-396.385-1.363-396.385-1.363c5.979,73.153,124.346,110.86,124.346,110.86
									c-37.469,114.9-186.928,187.64-218.8,144.032c-48.212,54.29-112.485-1.419-112.485-1.419
									c-76.422,117.743-251.607,50.3-230.925-66.773c109.838-18.663,152.605-93.389,152.605-93.389
									c-213.351,89.468-418.799-13.479-418.799-13.479c23.579,79.379,184.288,110.728,184.288,110.728
									C372.665,807.707,99.04,733.423,23.486,595.023c-3.775,10.357-6.582,21.043-8.385,31.918
									c-8.334,50.588,5.188,101.141,38.086,142.348c32.898,41.207,81.2,68.131,136.038,75.801l2.354,0.32
									c70.699,9.164,140.639-15.379,187.059-65.646l16.106-17.432l5.918,22.246c21.773,81.824,94.176,142.871,184.45,155.521
									l2.541,0.341c110.324,14.301,216.549-49.377,247.08-148.124l6.593-21.327l15.394,17.034
									c26.612,29.441,63.743,48.8,104.551,54.519l1.9,0.258c58.143,7.536,115.513-12.895,153.449-54.651l11.018-12.114
									l9.376,13.241c31.013,43.789,80.892,73.4,136.869,81.239l2.247,0.307c86.26,11.174,171.988-31.953,208.477-104.892
									l8.147-16.283l12.899,13.409c38,39.461,90.119,65.568,146.764,73.5l2.777,0.376c132.7,17.2,257.032-68.262,277.152-190.5
									l0.012-0.07l0.006-0.021l1.836-12.073l13.021,2.192c0.779,0.125,1.542,0.285,2.291,0.438c0.506,0.1,1,0.217,1.5,0.285
									l1.536,0.2c53.049,6.875,105.648-15.816,134-57.817l8.059-11.954l11.293,9.478c13.896,11.56,30.767,18.973,48.681,21.39
									L2155.651,598.635z"/>
								<path id="Path_15679" fill="#FFFFFF" d="M295.306,444.074c0,0-61.658-17.556-44.909-75.561
									c-19.953,24.283-33.469,53.201-39.3,84.085c-78.943,3.006-149.51,45.159-185.647,108.5
									c53.143-60.615,166.252-82.659,189.431-57.337C214.883,503.757,231.226,443.302,295.306,444.074z"/>
								<g id="Group_5373" transform="translate(191.544)">
									<path id="Path_15680" fill="#FFFFFF" d="M1460.65,446.313c22.449-159.744-97.472-307.521-270.978-331.825
										C1037.204,93.127,893.55,174.149,840.6,301.789c-17.729-12.28-38.109-20.195-59.479-23.101
										c-43.579-6.101-85.317,8.371-113.883,35.438c-12.642-63.85-67.719-116.239-141.189-126.531
										c-15.248-2.098-30.699-2.266-45.989-0.5c-16.361-92.916-95.86-169.639-202.178-184.53
										C145.98-15.924,22.803,67.73,2.771,189.405c-11.037,67,11.561,131.534,56.082,179.109
										c-30.912-101.029-5.007-205.579,104.764-251.888c0,0-48.019,53-39.311,98.864c0,0,69.823-121.229,218.054-45.438
										c0,0-7.5-44.396-70.479-61.771c96.092-3.34,164.286,82.784,147.781,163.07c0,0,88.632-57.421,189.7,9.63
										c42.23,31.786,24.752,71.638,24.752,71.638s-68.157-11.468-104.834,23.256c0,0,87.259-20.271,203.614,11.912
										c0,0-2.647-20.082-58.063-49.635c0,0,77.789-51.771,189.013,4.76c0,0,87.7-163.662,279.725-150.614
										c0,0-88.283,8.295-111.954,51.284c0,0,126.949-46.713,231.618,24.75c0,0-15.089-41.43-47.9-60.154
										c0,0,106.549-3.766,193.339,135.592c24.072,38.646,29.266,116.963,20.719,135.6c0,0,99.2-72.465,213.871-18.892
										c-19.744-21.042-47.337-36-79.5-40.513C1527.256,414.699,1490.155,424.178,1460.65,446.313z"/>
									<path id="Path_15681" fill="none" stroke="#FFFFFF" stroke-miterlimit="10" d="M1854.633,395.561
										c-16.326-8.874-34.112-14.744-52.513-17.333c-68.575-9.6-133.147,25.83-158.854,82.248
										C1643.266,460.475,1735.93,368.096,1854.633,395.561z"/>
								</g>
							</g>
						</g>
						<g id="Group_5377" transform="translate(1120.326)">
							<path id="Path_15682" fill="#E5F0FF" d="M1249.953,288.202c-40.339-3.146-66.708,30.3-101.218,30.394
								c-26.681,0.069-61.677-9.714-75.272-51.366c-7.591-22.065-29.134-38.885-55.959-40.979
								c-17.796-1.499-35.467,4.059-49.2,15.476c-9.85-9.012-22.454-14.431-35.77-15.379c-5.926-0.459-11.885-0.07-17.7,1.155
								c1.018-4.101,1.733-8.271,2.142-12.476c4.769-50.8-36.52-95.5-92.216-99.853c-47.5-3.716-90.112,23.137-104.594,62.625
								c-17.147-17.055-41.07-28.522-68.331-30.651c-26.006-2.168-51.949,4.842-73.325,19.811
								c-6.616-30.812-34.852-55.208-70.853-58.026c-13.162-1.052-26.39,0.953-38.648,5.859
								C455.088,54.003,398.909,6.102,327.59,0.535C240.5-6.27,163.86,52.612,156.399,132.042
								c-1.75,18.567,0.459,37.294,6.48,54.944c-14.57,8.399-24.846,22.649-26.431,39.523c-0.868,9.468,1.105,18.979,5.668,27.319
								c-7.461,8.623-13.464,18.404-17.773,28.961c-11.156-6.429-23.616-10.263-36.457-11.217
								c-44.553-3.479-83.769,26.644-87.584,67.281c-3.814,40.637,29.209,76.399,73.77,79.883c28.616,2.241,55.016-9.4,71.259-28.78
								c19.4,20.666,47.344,34.681,79.406,37.179c10.793,0.844,21.648,0.324,32.312-1.545
								c13.222,31.362,45.134,54.771,84.313,57.824c54.342,4.245,102.185-32.238,107.379-81.643
								c5.853,2.063,11.948,3.356,18.135,3.848c33.248,2.6,62.788-17.709,70.1-46.524c26.145,29.9,65.148,50.345,110.214,53.865
								c47.823,3.737,92.459-12.357,124.259-40.755c22.609,20.625,53,34.388,87.352,37.068
								c57.97,4.529,110.726-23.715,136.313-67.845c2.971,0.738,27.374,40.847,94.937,40.673c83.5-0.21,119.509-55.486,163.15-56.2
								c2.622-0.042,5.274,0.035,7.972,0.25c15.688,1.225,26.637,6.1,35.7,12.184
								C1315.344,350.758,1304.963,292.502,1249.953,288.202z"/>
							<path id="Path_15683" fill="#CCDAF1" d="M1151.608,353.534c-96.479,37.986-135.414-53.2-135.414-53.2
								s-23.354,51.757-87.391,47.554c-64.036-4.202-75.766-37.506-75.766-37.506c33.529-11.821,43.074-39.245,43.074-39.245
								c-123.067,63.161-197.76-19.153-197.76-19.153c2.116,43.337,49.836,62.173,49.836,62.173
								c-45.034,32.94-110.601,37.617-154.573-28.655c-37.487,54.192-80.024,8.769-80.024,8.769
								c-47.781,91.105-162,49.953-167.7,5.261c59.71-16.276,85.486-77.969,85.486-77.969
								c-103.64,97.536-227.499,22.656-227.499,22.656c26.156,42.662,81,56.92,81,56.92
								c-59.161,118.4-168.331,36.637-168.331,36.637c-6.149,49.641-58.118,60.837-94.987,49.62
								c12.474,14.585,31.238,24.626,52.981,26.33l1.042,0.07c25.407,1.67,49.841-8.385,65.366-26.894l4.145-4.941l4.433,4.726
								c19.289,20.548,46.164,33.129,75.685,35.432l1.517,0.111c9.788,0.637,19.617,0.104,29.278-1.587l4.538-0.793l1.654,3.933
								c13.016,30.867,43.529,51.8,79.63,54.616l1.3,0.1c50.378,3.305,95.293-31.327,100.118-77.2l0.692-6.59l6.779,2.373
								c5.365,1.891,10.953,3.077,16.624,3.528l0.843,0.056c29.958,1.969,56.633-15.984,63.418-42.7l2.578-10.145l7.116,8.147
								c26.431,30.228,64.205,48.688,106.367,51.979l2.1,0.152c43.573,2.86,86.517-11.536,117.816-39.5l3.908-3.479l3.857,3.521
								c22.461,20.5,52.263,33.144,83.925,35.613l1.866,0.14c53.388,3.5,104.058-22.136,129.091-65.319l2.066-3.563l4.264,1.059
								c2.135,0.528,3.284,1.78,5.807,4.522c7.4,8.052,29.921,32.552,77.046,35.642c3.458,0.229,7.028,0.341,10.619,0.334
								c47.118-0.118,78.213-18.142,105.643-34.04c20.226-11.718,37.693-21.842,57.433-22.163c2.129-0.035,4.281,0.042,6.424,0.16
								C1237.955,316.905,1216.543,327.969,1151.608,353.534z"/>
							<g id="Group_5376" transform="translate(0.301)">
								<path id="Path_15684" fill="#FFFFFF" d="M128.635,297.637c0,0,11.83-29.531,25.714-40.414c0,0-29.371-25.5,4.414-67.754
									c-12.5,8.58-21.176,21.7-22.617,37.04c-0.868,9.468,1.105,18.979,5.668,27.319c-7.461,8.622-13.464,18.404-17.773,28.961
									c-11.157-6.43-23.619-10.264-36.461-11.218c-44.553-3.479-83.769,26.644-87.584,67.281
									C18.764,287.062,83.637,267.758,128.635,297.637z"/>
								<path id="Path_15685" fill="#FFFFFF" d="M859.503,123.865c-11.114-4.834-22.961-7.771-35.046-8.691
									c-47.5-3.716-90.112,23.137-104.594,62.625c-17.148-17.055-41.07-28.522-68.331-30.651
									c-26.006-2.168-51.949,4.842-73.325,19.811c-6.617-30.812-34.852-55.208-70.853-58.026
									c-13.162-1.052-26.39,0.953-38.648,5.859C454.78,54.003,398.608,6.101,327.286,0.534
									c-87.09-6.805-163.73,52.077-171.189,131.507c-1.75,18.567,0.458,37.294,6.479,54.944
									c2.354,5.655,4.363,11.448,6.018,17.347c0,0-11.654,9.338-12.841,35.063c0,0,15.856-42.154,75.654-51.694
									c-14.072-3.227-28.804-1.951-42.112,3.646c0,0-18.578-83.264,66.44-124.899c19.189-9.394,35.577-6.638,35.577-6.638
									s-30.566,20.997-31.933,46.152c0,0,31.762-51.771,125.357-14.216c0,0-12.137-25.475-35.077-30.909
									c0,0,59.879-2.8,97.771,70.363c0,0-16.523,6.771-28.472,33.47c0,0,94.308-57.2,154.491,14.07
									c0,0,87.527-44.179,138.036,14.668c0,0-17.816,5-29.8,16.554c0,0,46.994-18.795,86.321-10.6
									c0,0-16.381-10.612-35.177-14.091C732.835,185.277,764.335,107.377,859.503,123.865z"/>
							</g>
							<path id="Path_15686" fill="#FFFFFF" d="M1055.913,241.829c-10.832-9.122-24.275-14.576-38.4-15.58
								c-17.795-1.499-35.467,4.06-49.2,15.476c-9.849-9.011-22.454-14.43-35.77-15.378c-5.925-0.459-11.886-0.07-17.7,1.155
								c0,0,41.282,3.758,51.1,28.376C965.929,255.88,1016.537,213.929,1055.913,241.829z"/>
						</g>
						<g id="Group_5379" transform="translate(2037.715 696.863)">
							<path id="Path_15687" fill="#E5F0FF" d="M774.77,166.743c-5.48-13.771-21.024-24.265-40.39-25.572
								c-13.571-0.919-26.244,2.895-35.514,9.658c-7.429-5.748-16.434-9.098-25.813-9.601c-4.271-0.285-8.561-0.042-12.771,0.725
								c0.729-2.548,1.245-5.152,1.542-7.786c3.44-31.7-26.356-59.592-66.552-62.307c-34.284-2.316-65.043,14.433-75.5,39.071
								c-12.373-10.639-29.641-17.793-49.316-19.122c-19.77-1.336-38.4,3.451-52.918,12.358
								c-4.775-19.227-25.152-34.451-51.139-36.2c-9.449-0.666-18.936,0.578-27.893,3.66c-10.051-37.93-50.6-67.824-102.072-71.3
								c-62.857-4.245-118.172,32.488-123.554,82.054c-1.258,11.639,0.348,23.407,4.677,34.284
								c-10.52,5.247-17.936,14.133-19.078,24.661c-0.607,5.981,0.834,11.992,4.09,17.048c-5.283,5.24-9.62,11.354-12.822,18.071
								c-8.221-4.054-17.165-6.433-26.313-7c-32.162-2.172-60.466,16.623-63.22,41.979s21.087,47.679,53.243,49.85
								c20.657,1.393,39.709-5.872,51.434-17.96c14,12.895,34.172,21.635,57.313,23.2c7.784,0.522,15.602,0.198,23.316-0.967
								c9.551,19.581,32.58,34.181,60.851,36.081c39.222,2.65,73.75-20.117,77.5-50.942c4.259,1.293,8.65,2.099,13.091,2.4
								c24,1.621,45.314-11.05,50.6-29.024c18.871,18.655,47.02,31.41,79.549,33.609c34.51,2.331,66.728-7.717,89.682-25.433
								c16.318,12.872,38.248,21.452,63.044,23.13c41.838,2.824,79.917-14.794,98.383-42.335
								C720.371,213.497,784.585,192.73,774.77,166.743z"/>
							<path id="Path_15688" fill="#CCDAF1" d="M666.026,221.102c-46.114-3.973-50.347-27.437-50.347-27.437
								c24.2-7.376,31.089-24.487,31.089-24.487c-88.83,39.412-142.729-11.947-142.729-11.947
								c1.528,27.033,35.964,38.793,35.964,38.793c-32.5,20.556-79.818,23.472-111.555-17.883
								c-27.055,33.818-57.764,5.477-57.764,5.477c-34.483,56.843-116.924,31.167-121.037,3.277
								c43.101-10.151,61.7-48.646,61.7-48.646c-74.8,60.857-164.2,14.132-164.2,14.132c18.879,26.623,58.463,35.516,58.463,35.516
								c-42.7,73.884-121.493,22.858-121.493,22.858c-4.438,30.979-41.944,37.965-68.556,30.965c9,9.1,22.541,15.371,38.241,16.429
								l0.749,0.05c18.342,1.036,35.977-5.233,47.176-16.784l2.989-3.082l3.2,2.942c13.921,12.824,33.323,20.674,54.629,22.114
								l1.092,0.07c7.059,0.395,14.14,0.063,21.131-0.988l3.271-0.5l1.2,2.456c9.399,19.261,31.419,32.322,57.475,34.075
								l0.937,0.063c36.356,2.061,68.773-19.546,72.258-48.173l0.5-4.111l4.894,1.481c3.903,1.187,7.93,1.925,12,2.2l0.606,0.042
								c21.624,1.225,40.876-9.979,45.771-26.645l1.86-6.331l5.138,5.079c19.084,18.864,46.345,30.388,76.771,32.44l1.522,0.09
								c31.444,1.788,62.438-7.195,85.03-24.64l2.815-2.171l2.789,2.199c16.213,12.783,37.725,20.674,60.572,22.219l1.348,0.084
								c38.529,2.185,75.101-13.813,93.172-40.755C714.699,211.569,703.893,224.365,666.026,221.102z"/>
							<g id="Group_5378" transform="translate(0.216)">
								<path id="Path_15689" fill="#FFFFFF" d="M92.845,185.712c0,0,8.533-18.426,18.56-25.217c0,0-21.2-15.907,3.184-42.272
									c-9.026,5.352-15.282,13.541-16.323,23.109c-0.608,5.981,0.834,11.992,4.089,17.048c-5.281,5.24-9.618,11.354-12.818,18.07
									c-8.221-4.054-17.165-6.433-26.313-7c-32.161-2.172-60.465,16.624-63.219,41.979
									C13.546,179.115,60.366,167.07,92.845,185.712z"/>
								<path id="Path_15690" fill="#FFFFFF" d="M620.343,77.286c-8.118-3.037-16.639-4.865-25.289-5.429
									c-34.283-2.31-65.041,14.439-75.5,39.078c-12.373-10.639-29.64-17.793-49.315-19.122
									c-19.771-1.336-38.399,3.451-52.918,12.358c-4.776-19.226-25.158-34.451-51.139-36.2c-9.449-0.666-18.936,0.578-27.893,3.66
									c-10.051-37.93-50.6-67.824-102.073-71.3C173.36-3.913,118.044,32.822,112.664,82.386
									c-1.258,11.639,0.348,23.407,4.676,34.284c1.69,3.506,3.141,7.124,4.34,10.827c0,0-8.409,5.824-9.265,21.877
									c0,0,11.449-26.3,54.601-32.252c-10.152-2.012-20.659-1.228-30.4,2.268c0,0-13.409-51.951,47.949-77.927
									c8.08-3.505,16.909-4.931,25.682-4.147c0,0-22.061,13.101-23.048,28.794c0,0,22.923-32.3,90.474-8.864
									c0,0-8.758-15.9-25.313-19.289c0,0,43.217-1.747,70.565,43.906c0,0-11.93,4.225-20.55,20.883c0,0,68.063-35.69,111.5,8.781
									c0,0,63.169-27.568,99.625,9.15c0,0-12.86,3.124-21.506,10.333c0,0,33.916-11.732,62.3-6.617
									c-7.953-4.228-16.517-7.192-25.382-8.788C528.911,115.605,551.663,67.001,620.343,77.286z"/>
							</g>
							<path id="Path_15691" fill="#FFFFFF" d="M762.098,150.892c-8.131-5.801-17.743-9.172-27.717-9.721
								c-13.57-0.919-26.244,2.895-35.514,9.658c-7.43-5.748-16.434-9.097-25.813-9.601c-4.271-0.285-8.562-0.042-12.772,0.725
								c0,0,29.79,2.345,36.875,17.699C697.157,159.659,733.682,133.482,762.098,150.892z"/>
						</g>
						<g id="Group_5380" transform="translate(2975.411 1185.46)">
							<path id="Path_15692" fill="#E5F0FF" d="M823.621,201.113c-51.899,0.265-68.969-43.33-81.153-61.951l-0.069,0.007
								c-10.968-18.475-29.377-31.11-50.752-32.21c-9.408-0.48-18.795,1.324-27.354,5.261c-10.838-21.786-31.195-37.04-55.16-38.271
								c-0.531-0.028-1.043,0.021-1.567,0.007c-22.616-27.847-54.766-46.058-91.086-47.93
								c-40.246-2.073-77.077,16.338-102.409,46.955C387.053,31.036,343.735,2.757,293.871,0.189
								c-66.853-3.438-125.819,40.31-151.047,104.855c-13.427-9.964-29.481-15.772-46.176-16.707
								c-50.971-2.623-94.193,41.305-96.548,98.12s37.056,105,88.027,107.619c25.157,1.294,48.399-8.789,65.8-26.122
								c26.431,46.712,72.22,78.776,125.476,81.511c42.63,2.2,82.04-14.828,111.556-44.172c17.738,5.645,37.093,2.735,52.388-7.877
								c18.121,12.222,39.22,19.298,61.046,20.472c59.985,3.09,112.372-39.3,130.4-99.846
								c10.955,18.614,29.434,31.355,50.908,32.454c12.424,0.603,24.718-2.744,35.121-9.562c0.08-0.034,0.149-0.063,0.237-0.1
								c27.724-13.416,43.492-24.633,82.321-27.437c6.873-0.494,13.371-0.641,19.52-0.551
								C849.553,213.24,838.498,201.035,823.621,201.113z"/>
							<path id="Path_15693" fill="#FFFFFF" d="M651.71,131.932c0,0,61.776-34.301,98.026,19.371l0,0
								c-2.699-4.586-5.068-8.78-7.266-12.142l-0.068,0.007c-10.969-18.475-29.377-31.111-50.752-32.21
								c-9.41-0.48-18.796,1.324-27.355,5.261c-10.837-21.787-31.194-37.04-55.16-38.271c-0.531-0.028-1.042,0.021-1.566,0.007
								c-22.617-27.847-54.767-46.058-91.087-47.93c-40.245-2.073-77.077,16.338-102.409,46.955
								C387.055,31.035,343.738,2.756,293.873,0.188c-66.853-3.438-125.819,40.31-151.047,104.855
								c-13.427-9.964-29.48-15.772-46.176-16.707c-42.837-2.206-80.191,28.475-92.422,72.04c0,0,47.319-77.642,130.233-40.811
								c-0.263,0.216-20.962,17.235-22.03,30.324c0,0,40-22.746,86.6-8.377c0,0-10.681-28.468-40.845-26.567
								c10.294-26.08,29.259-64.678,92.821-84.8c65.527-17.967,134.3,15.655,141.8,63.461c0,0-38.673,4.794-55.858,37.123
								c0,0,75.2-41.91,146.101,0c0,0-13.959-32.336-53.711-40.714c0,0,18.872-53.448,95.88-45.9
								c25.863,5.769,50.945,21.133,65.26,55.479C590.473,99.604,637.742,76.85,651.71,131.932z"/>
							<path id="Path_15694" fill="#CCDAF1" d="M719.383,214.555c-56.771,24.758-77.614-8.106-84.263-24.82
								c0.888-0.284,1.757-0.626,2.6-1.023c17.049-8.336,36.663-29.977,36.663-29.977c-49.416,23.15-85.225,3.193-85.225,3.193
								c6.648,15.5,24.5,29.789,40.166,28.885c-28.123,78.623-146.276,122.134-187.101,66.849
								c-12.067,7.125-22.573,9.206-31.282,8.872c-26.35-4.893-29.215-24.041-29.215-24.041l38.442-27.388
								c9.214,5.788,19.714,8.169,28.485,3.883c17.049-8.343,36.662-29.978,36.662-29.978c-49.416,23.151-85.224,3.188-85.224,3.188
								c3.652,8.51,10.7,16.644,18.9,22.128c-65.517,28.487-113.89-2.964-113.89-2.964c12.172,14.369,54.429,32.731,54.429,32.731
								c-5.656,33.895-41.788,43.3-42.693,43.525c-54.3,10.09-118.515-6.646-140.728-61.479
								c17.037-8.363,36.606-29.948,36.606-29.948c-49.416,23.15-85.224,3.193-85.224,3.193
								c4.975,11.607,16.25,22.553,28.179,26.943c-41.7,32.252-96.117,37.54-136.575,14.828c14.4,26.171,39.801,44.221,69.33,45.745
								c1.348,0.063,2.69,0.1,4.026,0.1c21.081,0,41.388-8.67,57.176-24.41l5.681-5.664l4.07,7.182
								c26.267,46.429,71.251,75.657,120.316,78.183c2.36,0.125,4.713,0.181,7.049,0.181c36.843,0,72.332-15.106,99.925-42.536
								l2.634-2.623l3.4,1.064c4.367,1.384,8.891,2.213,13.465,2.47c0.941,0.05,1.885,0.07,2.82,0.07
								c11.074-0.042,21.881-3.4,31.026-9.644l3.315-2.234l3.326,2.22c17.247,11.583,37.297,18.304,58.039,19.455
								c1.955,0.101,3.908,0.153,5.844,0.153c53.736,0,101.211-38.215,118.141-95.086l4.2-14.101l7.31,12.421
								c10.2,17.341,27.33,28.266,45.814,29.226c0.893,0.042,1.785,0.063,2.678,0.063c10.272-0.052,20.313-3.064,28.916-8.677
								l0.9-0.473c4.426-2.144,8.552-4.231,12.51-6.235c16.168-8.189,29.777-15.064,50.084-18.982
								C756.398,208.195,731.818,209.128,719.383,214.555z"/>
						</g>
					</g>
				</g>
			</g>
		</g>
	</g>
	<path id="Union_13" opacity="0.48" fill="#4A7CED" enable-background="new    " d="M0,24189.609v-1658.768l0,0v-1768.799
		c0,0,190.753-18.201,502.157,103.889c142.583,55.9,347.259,37.789,452.819,0l0.57-0.201l0.154-0.055l0.435-0.154l0.155-0.057
		l0.5-0.176l0.079-0.027l0.587-0.211l0.089-0.029l0.476-0.17l0.168-0.059l0.443-0.156l0.134-0.047l0.567-0.201l0.111-0.039
		l0.49-0.174l0.11-0.039l0.507-0.178l0.094-0.033l1.164-0.406l0.147-0.053l0.465-0.162l0.119-0.043l1.185-0.412l0.073-0.025
		l0.521-0.182l0.109-0.037l1.199-0.418l0.029-0.008l0.564-0.201l0.086-0.029l0.553-0.191l0.043-0.016l1.199-0.41l0.106-0.039
		l0.536-0.184l0.048-0.016l1.218-0.418l0.07-0.023l0.518-0.176l0.106-0.035l1.2-0.406l0.072-0.027l0.545-0.184l0.063-0.021
		l1.827-0.615l0.067-0.023l1.834-0.615l0.055-0.018l0.58-0.195l0.032-0.01l1.211-0.4l0.1-0.031l0.542-0.18l0.051-0.018l1.234-0.408
		l0.026-0.01l0.575-0.189l0.068-0.023c0.4-0.131,0.817-0.27,1.221-0.398l0.038-0.016l0.601-0.199h0.013l1.869-0.611l0.043-0.014
		l1.844-0.602l0.069-0.023l0.552-0.178l0.058-0.018l1.236-0.4l0.023-0.008l0.592-0.191l0.041-0.014
		c0.615-0.199,1.238-0.398,1.854-0.594l0.051-0.016c0.615-0.201,1.242-0.402,1.856-0.594l0.033-0.01l0.576-0.184l0.059-0.02
		l1.237-0.393l0.016-0.004c0.826-0.262,1.648-0.52,2.476-0.779l0.085-0.027l1.841-0.576l0.039-0.012l1.83-0.568l0.121-0.037
		l0.5-0.156l0.079-0.025l1.219-0.377l0.064-0.02l0.533-0.166l0.094-0.027l1.213-0.373l0.059-0.02l0.568-0.172l0.043-0.016
		c0.605-0.186,1.219-0.373,1.824-0.557l0.11-0.033l0.552-0.168l0.039-0.012l0.615-0.188l0.041-0.012l0.543-0.164l0.127-0.039
		l0.489-0.148l0.112-0.033c0.394-0.119,0.791-0.24,1.186-0.357l0.113-0.035l0.513-0.152l0.083-0.025l1.193-0.357l0.126-0.039
		l0.458-0.139l0.164-0.049l0.522-0.156l0.046-0.014l0.579-0.172l0.153-0.045l0.464-0.139l0.131-0.041l0.455-0.135l0.15-0.045
		l0.546-0.162l0.199-0.059l0.389-0.115l0.211-0.063l0.408-0.121l0.154-0.043l0.566-0.168l0.106-0.031l0.478-0.141l0.184-0.055
		l0.399-0.117l0.188-0.055l0.489-0.145l0.088-0.025l0.56-0.164l0.2-0.057l0.365-0.107l0.231-0.068l0.36-0.1l0.22-0.064l0.54-0.156
		l0.188-0.055l0.36-0.1l0.256-0.074l0.335-0.1l0.239-0.07l0.526-0.152l0.188-0.055l0.4-0.113l0.192-0.057l0.389-0.111l0.215-0.063
		l0.544-0.156l0.094-0.027l0.47-0.135l0.227-0.064l0.337-0.102l0.258-0.074l0.334-0.094l0.312-0.09l0.43-0.123l0.27-0.076
		l0.281-0.08l0.313-0.09l0.266-0.076l0.268-0.074l0.51-0.146l0.3-0.086l0.247-0.07l0.33-0.094l0.201-0.059l0.342-0.1l0.275-0.078
		l0.532-0.148l0.218-0.063l0.35-0.1l0.22-0.063l0.3-0.086l0.301-0.086l0.461-0.131l0.311-0.086l0.277-0.078l0.257-0.07l0.323-0.092
		l0.238-0.068l0.5-0.137l0.309-0.086l0.324-0.092l0.215-0.061l0.338-0.094l0.178-0.049l1.288-0.357l0.062-0.02l0.43-0.117l0.1-0.027
		l1.369-0.379l0.019-0.006l0.441-0.121l0.083-0.023l1.83-0.5l0.111-0.029l0.42-0.117l0.031-0.006l1.363-0.373l0.1-0.027
		c77.209-21.016,152.174-34.584,209.71-44.244H1256c42.493-7.135,75.48-12.143,92.83-16.445c50.085-12.424,233.872-12.424,349.316,0
		c115.443,12.424,221.854,45.074,221.854,45.074v1771.67h-0.008c-0.065,0.014-0.526,0.109-1.391,0.262v1595.867H0z"/>
</g>
</svg>
