<svg xmlns="http://www.w3.org/2000/svg" width="241.871" height="412.885" viewBox="0 0 241.871 412.885">
  <g id="Group_3370" data-name="Group 3370" transform="translate(-1565.665 -5170)">
    <g id="Group_3361" data-name="Group 3361" transform="translate(1069.599 4891.039)">
      <path id="Path_12187" data-name="Path 12187" d="M571.185,682.184c0,5.338,33.4,9.662,74.593,9.662s74.595-4.324,74.595-9.662-33.4-9.661-74.595-9.661S571.185,676.846,571.185,682.184Z" fill="#231f20" opacity="0.2"/>
      <g id="Group_3355" data-name="Group 3355">
        <path id="Path_12188" data-name="Path 12188" d="M659.079,672.736l11.178,0L665.369,605.8l-11.179,0Z" fill="#414042"/>
        <path id="Path_12189" data-name="Path 12189" d="M681.82,681.559l-22,.007-1.032-12.354,22.477,5.642Z" fill="#414042"/>
      </g>
      <path id="Path_12190" data-name="Path 12190" d="M624.441,606.85s-22.743,31.35-3.166,60.817l-9.932,3.3s-21.876-35.161-.135-65.471Z" fill="#414042"/>
      <path id="Path_12191" data-name="Path 12191" d="M568.487,495.163s-87.714,8.223-28.781,39.06l7.538-2.742s-39.745-17.13,23.3-24.668Z" fill="#414042"/>
      <g id="Group_3359" data-name="Group 3359">
        <g id="Group_3358" data-name="Group 3358">
          <path id="Path_12192" data-name="Path 12192" d="M540.077,385.989q-.059-.425-.091-.846L536.939,362.4c-1.141-8.509,4.38-16.268,12.331-17.333l117.087-15.688c7.953-1.066,15.324,4.967,16.463,13.474l29.1,217.174c.039.286.068.568.09.849l3.047,22.744c1.141,8.508-4.38,16.269-12.332,17.335L585.636,616.642c-7.95,1.062-15.322-4.971-16.463-13.478Z" fill="#414042"/>
          <g id="Group_3356" data-name="Group 3356">
            <path id="Path_12193" data-name="Path 12193" d="M673.6,343.777c-1.176-8.5-8.575-14.5-16.517-13.4l-117.016,16.21c-7.95,1.1-13.438,8.886-12.26,17.388l30.069,217.043c.038.286.084.564.138.841l3.147,22.73c1.178,8.5,8.574,14.5,16.523,13.406L694.7,601.784c7.945-1.1,13.434-8.89,12.258-17.391L676.888,367.348c-.038-.283-.084-.562-.14-.839Z" fill="#414042"/>
            <path id="Path_12194" data-name="Path 12194" d="M672.4,345.444c-1.147-8.361-8.383-14.274-16.16-13.207L541.7,347.952c-7.778,1.068-13.152,8.711-12.007,17.073l29.29,213.451q.059.417.136.829l3.066,22.353c1.148,8.36,8.383,14.274,16.162,13.208l114.537-15.714c7.776-1.071,13.152-8.713,12.005-17.076L675.6,368.627c-.038-.279-.084-.553-.135-.826Z" fill="#919191"/>
            <path id="Path_12195" data-name="Path 12195" d="M614.814,609.862l78.07-10.71c7.776-1.071,13.152-8.713,12.005-17.076L675.6,368.627c-.038-.279-.084-.553-.135-.826L672.4,345.444c-1.147-8.361-8.383-14.274-16.16-13.207l-31.551,4.328Z" fill="#58595b"/>
            <rect id="Rectangle_514" data-name="Rectangle 514" width="122.426" height="202.855" transform="matrix(0.991, -0.136, 0.136, 0.991, 542.955, 381.769)" fill="#fff"/>
            <path id="Path_12196" data-name="Path 12196" d="M616.3,358.134a2.867,2.867,0,0,1-2.385,3.283l-24.46,3.456a2.868,2.868,0,0,1-3.2-2.494h0a2.871,2.871,0,0,1,2.387-3.284l24.46-3.455a2.868,2.868,0,0,1,3.2,2.494Z" fill="#333538"/>
            <path id="Path_12197" data-name="Path 12197" d="M646.081,589.808a11.88,11.88,0,1,1-13.45-10.529A12.077,12.077,0,0,1,646.081,589.808Z" fill="#333538"/>
            <path id="Path_12198" data-name="Path 12198" d="M615.693,576.558l76.074-10.416L664.25,365.161l-40.578,5.556Z" fill="#ddd"/>
          </g>
          <g id="Group_3357" data-name="Group 3357">
            <path id="Path_12199" data-name="Path 12199" d="M606.214,472.58c-3.143.427-5.41-.244-6.756-2.007-4.354-5.687,3.269-20.516,4.153-22.189l1.665.878c-2.242,4.252-7.391,16.156-4.324,20.169,1.068,1.4,3.208,1.745,6.359,1.035l.414,1.836C607.2,472.422,606.693,472.515,606.214,472.58Z" fill="#231f20"/>
            <path id="Path_12200" data-name="Path 12200" d="M587.911,449.15a13.2,13.2,0,0,0-23.346,3.182L568.209,456a13.2,13.2,0,0,1,17.175-2.341Z" fill="#231f20"/>
            <path id="Path_12201" data-name="Path 12201" d="M617.552,494.371a36.564,36.564,0,0,1-29.4-8.525c4.889,18.051,18.552,30.346,32.43,28.209s23.207-17.973,22.435-36.66A36.555,36.555,0,0,1,617.552,494.371Z" fill="#a52339"/>
          </g>
        </g>
      </g>
      <g id="Group_3360" data-name="Group 3360">
        <path id="Path_12202" data-name="Path 12202" d="M547.325,321.359l8.4-4.21-7.691-36.044-22.962,11Z" fill="#0ea515"/>
        <path id="Path_12203" data-name="Path 12203" d="M569.7,315.651l9.116,2.289L596.5,285.6l-24.579-6.641Z" fill="#0ea515"/>
        <path id="Path_12204" data-name="Path 12204" d="M529.095,337.937l5.613-7.543-23.081-28.732-15.562,20.148Z" fill="#0ea515"/>
      </g>
      <path id="Path_12205" data-name="Path 12205" d="M735.4,578c-4.294,6.172-13.78,7.363-21.187,2.662s-9.931-13.516-5.637-19.687,13.78-7.364,21.188-2.662S739.691,571.829,735.4,578Z" fill="#414042"/>
      <path id="Path_12206" data-name="Path 12206" d="M700.057,499.783s49.319,25.735,10.468,54.9l.777,10.55S779.679,528,697.316,481.458Z" fill="#414042"/>
      <path id="Path_12207" data-name="Path 12207" d="M599.155,679.956h22.12V667.667l-22.12,5.619Z" fill="#414042"/>
      <path id="Path_12208" data-name="Path 12208" d="M646.609,437.076c1.235,9.48-.8,17.56-4.536,18.046s-7.77-6.8-9-16.284.8-17.561,4.536-18.047S645.377,427.594,646.609,437.076Z" fill="#231f20"/>
    </g>
    <path id="Path_12234" data-name="Path 12234" d="M549.336,539.954c-3.951,6.234-13.244,7.426-20.756,2.665s-10.4-13.675-6.447-19.907,13.244-7.427,20.756-2.665S553.287,533.722,549.336,539.954Z" transform="translate(1076.637 4894.87)" fill="#414042"/>
  </g>
</svg>
