<svg id="Group_3690" data-name="Group 3690" xmlns="http://www.w3.org/2000/svg" width="463.342" height="150.221" viewBox="0 0 463.342 150.221">
  <path id="Path_9592" data-name="Path 9592" d="M722.668,226.991l5.392.267-4.346,13.772-.169.535q-1.991.705-3.987,1.405c-10.08,3.535-20.171,6.937-30.193,10.133q-7.929,2.527-15.8,4.872c-15.941,4.743-31.622,8.85-46.761,12.012-18.615,3.888-36.409,6.349-52.848,6.8-5.147.143-16.532.31-31.757.462-13.791.136-30.73.262-49.028.344-16.578.073-34.268.112-51.747.1-54.485-.058-106.891-.675-116.946-2.53l-1.334-.25a175.262,175.262,0,0,1-19.891-4.925c-11.9-3.77-19.481-8.017-22.448-11.562h0a5.192,5.192,0,0,1-1.424-3.06c-.116-4.155,5.019-7.423,20.528-13.452l.359-.319c1.7-1.537,2.963-3,4.394-4.416.172-.172.349-.341.53-.511,5.252-4.964,13.6-9.314,52.4-13.925,46.633-5.542,243.307-2.09,243.307-2.09s43.941-12.583,51.4-15.816c5.617-2.433,52.187-56.316,61.018-66.572a4.831,4.831,0,0,1,3.659-1.676h18.9l-23,89.92,3.038.15Z" transform="translate(-279.381 -136.588)" fill="#f6f6f6"/>
  <path id="Path_9593" data-name="Path 9593" d="M414.365,136.589l-21.5,84.064H279.381c12.2-3.537,45.629-13.315,51.4-15.816,5.617-2.433,52.187-56.316,61.018-66.572a4.832,4.832,0,0,1,3.659-1.676Z" transform="translate(42.137 -136.588)" fill="#f87a36"/>
  <path id="Path_9594" data-name="Path 9594" d="M728.219,194.387c-8.356,2.981-12.109.9-31.452,20.934-53.834-2.114-296.078-5.988-324.987-4.714-32.457,1.433-82.391,9.837-83.557,10.034,1.533-.467,86.864-26.282,120.433-28.345,48.376-2.971,301.255-1.767,301.255-1.767Z" transform="translate(-286.783 -98.805)" fill="#f87a36"/>
  <path id="Path_9595" data-name="Path 9595" d="M666.958,214.893c-20.629,3.888-40.348,6.349-58.565,6.8-5.7.143-18.322.31-35.191.462-15.285.136-34.055.262-54.335.344-12.038.049-24.605.083-37.288.1-54.485-.058-106.891-.675-116.946-2.53l-1.334-.25a175.259,175.259,0,0,1-19.891-4.925Z" transform="translate(-319.531 -81.493)" fill="#bfbfbd" style="mix-blend-mode: multiply;isolation: isolate"/>
  <path id="Path_9596" data-name="Path 9596" d="M331.775,204.237l-.169.535c-11.407,4.039-22.835,7.923-34.179,11.538l-10.9-20.9,37.455-5.547,6.651-.985.1,1.317Z" transform="translate(112.558 -99.796)" fill="#bfbfbd" style="mix-blend-mode: multiply;isolation: isolate"/>
  <path id="Path_9597" data-name="Path 9597" d="M545.289,196.31v3.363a1.037,1.037,0,0,1-.716.985l-9.075,2.569a1.831,1.831,0,0,1-.973.007l-7.082-1.9-6.365-.751.356-.315c1.7-1.537,2.963-3,4.394-4.417.172-.17.349-.341.53-.509h17.954A.975.975,0,0,1,545.289,196.31Z" transform="translate(-500.545 -95.254)" fill="#999596"/>
  <path id="Path_9598" data-name="Path 9598" d="M524.908,195.786h4.564a.331.331,0,0,1,.332.331v2a.91.91,0,0,1-.593.854l-7.559,2.986,2.377-5.567A.942.942,0,0,1,524.908,195.786Z" transform="translate(-486.036 -94.937)"/>
  <path id="Path_9599" data-name="Path 9599" d="M529.78,195.949h5.126a.253.253,0,0,1,.23.359l-2.515,5.366a.469.469,0,0,1-.525.261l-6.259-1.349a.2.2,0,0,1-.1-.32l3.784-4.2A.35.35,0,0,1,529.78,195.949Z" transform="translate(-498.264 -94.822)"/>
  <path id="Path_9600" data-name="Path 9600" d="M538.987,195.891l-4.429,4.532-5.029-.37c1.7-1.537,2.963-3,4.394-4.417Z" transform="translate(-508.639 -95.043)"/>
  <g id="Group_2104" data-name="Group 2104" transform="translate(63.102 91.177)">
    <g id="Group_2066" data-name="Group 2066" transform="translate(0 0.993)">
      <path id="Path_9601" data-name="Path 9601" d="M515.658,217.9V193.174a2.486,2.486,0,0,0-2.484-2.482h-8a2.486,2.486,0,0,0-2.484,2.482V217.9a2.487,2.487,0,0,0,2.484,2.484h8A2.486,2.486,0,0,0,515.658,217.9Zm-2.484-26.793a2.068,2.068,0,0,1,2.065,2.065V217.9a2.068,2.068,0,0,1-2.065,2.066h-8a2.067,2.067,0,0,1-2.065-2.066V193.174a2.067,2.067,0,0,1,2.065-2.065Z" transform="translate(-502.692 -190.692)" fill="#1d1d1b"/>
    </g>
    <path id="Path_9602" data-name="Path 9602" d="M510.668,199.99h-5.491a.706.706,0,0,1,0-1.412h5.491a.706.706,0,0,1,0,1.412Z" transform="translate(-501.439 -184.15)" fill="#878787"/>
    <path id="Path_9603" data-name="Path 9603" d="M509.279,197.305a1.968,1.968,0,1,1-1.969-1.969A1.968,1.968,0,0,1,509.279,197.305Z" transform="translate(-500.827 -186.431)" fill="#706f6f"/>
    <path id="Path_9604" data-name="Path 9604" d="M508.639,197.118a1.515,1.515,0,1,1-1.516-1.516A1.515,1.515,0,0,1,508.639,197.118Z" transform="translate(-500.64 -186.244)" fill="#9d9d9c" style="mix-blend-mode: multiply;isolation: isolate"/>
    <g id="Group_2103" data-name="Group 2103" transform="translate(20.476)">
      <g id="Group_2067" data-name="Group 2067" transform="translate(0 11.361)">
        <rect id="Rectangle_375" data-name="Rectangle 375" width="4.391" height="6.134" rx="0.921" transform="translate(0 0)" fill="#9d9d9c" style="mix-blend-mode: multiply;isolation: isolate"/>
        <rect id="Rectangle_376" data-name="Rectangle 376" width="3.903" height="5.453" rx="0.818" transform="translate(0.244 0.341)" fill="#575756"/>
      </g>
      <g id="Group_2068" data-name="Group 2068" transform="translate(6.936 11.361)">
        <rect id="Rectangle_377" data-name="Rectangle 377" width="4.391" height="6.134" rx="0.921" transform="translate(0 0)" fill="#9d9d9c" style="mix-blend-mode: multiply;isolation: isolate"/>
        <rect id="Rectangle_378" data-name="Rectangle 378" width="3.903" height="5.453" rx="0.818" transform="translate(0.244 0.341)" fill="#575756"/>
      </g>
      <g id="Group_2069" data-name="Group 2069" transform="translate(13.871 11.361)">
        <rect id="Rectangle_379" data-name="Rectangle 379" width="4.391" height="6.134" rx="0.921" transform="translate(0 0)" fill="#9d9d9c" style="mix-blend-mode: multiply;isolation: isolate"/>
        <rect id="Rectangle_380" data-name="Rectangle 380" width="3.903" height="5.453" rx="0.818" transform="translate(0.244 0.341)" fill="#575756"/>
      </g>
      <g id="Group_2070" data-name="Group 2070" transform="translate(20.807 11.361)">
        <rect id="Rectangle_381" data-name="Rectangle 381" width="4.392" height="6.134" rx="0.921" transform="translate(0 0)" fill="#9d9d9c" style="mix-blend-mode: multiply;isolation: isolate"/>
        <rect id="Rectangle_382" data-name="Rectangle 382" width="3.903" height="5.453" rx="0.818" transform="translate(0.244 0.341)" fill="#575756"/>
      </g>
      <g id="Group_2071" data-name="Group 2071" transform="translate(27.743 11.361)">
        <rect id="Rectangle_383" data-name="Rectangle 383" width="4.392" height="6.134" rx="0.921" transform="translate(0 0)" fill="#9d9d9c" style="mix-blend-mode: multiply;isolation: isolate"/>
        <rect id="Rectangle_384" data-name="Rectangle 384" width="3.904" height="5.453" rx="0.818" transform="translate(0.244 0.341)" fill="#575756"/>
      </g>
      <g id="Group_2072" data-name="Group 2072" transform="translate(34.678 11.361)">
        <rect id="Rectangle_385" data-name="Rectangle 385" width="4.391" height="6.134" rx="0.921" transform="translate(0 0)" fill="#9d9d9c" style="mix-blend-mode: multiply;isolation: isolate"/>
        <rect id="Rectangle_386" data-name="Rectangle 386" width="3.903" height="5.453" rx="0.818" transform="translate(0.244 0.341)" fill="#575756"/>
      </g>
      <g id="Group_2073" data-name="Group 2073" transform="translate(41.614 11.361)">
        <rect id="Rectangle_387" data-name="Rectangle 387" width="4.391" height="6.134" rx="0.921" transform="translate(0 0)" fill="#9d9d9c" style="mix-blend-mode: multiply;isolation: isolate"/>
        <rect id="Rectangle_388" data-name="Rectangle 388" width="3.903" height="5.453" rx="0.818" transform="translate(0.244 0.341)" fill="#575756"/>
      </g>
      <g id="Group_2074" data-name="Group 2074" transform="translate(48.55 11.361)">
        <rect id="Rectangle_389" data-name="Rectangle 389" width="4.391" height="6.134" rx="0.921" transform="translate(0 0)" fill="#9d9d9c" style="mix-blend-mode: multiply;isolation: isolate"/>
        <rect id="Rectangle_390" data-name="Rectangle 390" width="3.903" height="5.453" rx="0.818" transform="translate(0.244 0.341)" fill="#575756"/>
      </g>
      <g id="Group_2075" data-name="Group 2075" transform="translate(55.486 11.361)">
        <rect id="Rectangle_391" data-name="Rectangle 391" width="4.391" height="6.134" rx="0.921" transform="translate(0 0)" fill="#9d9d9c" style="mix-blend-mode: multiply;isolation: isolate"/>
        <rect id="Rectangle_392" data-name="Rectangle 392" width="3.903" height="5.453" rx="0.818" transform="translate(0.244 0.341)" fill="#575756"/>
      </g>
      <g id="Group_2076" data-name="Group 2076" transform="translate(62.421 11.361)">
        <rect id="Rectangle_393" data-name="Rectangle 393" width="4.392" height="6.134" rx="0.921" transform="translate(0 0)" fill="#9d9d9c" style="mix-blend-mode: multiply;isolation: isolate"/>
        <rect id="Rectangle_394" data-name="Rectangle 394" width="3.903" height="5.453" rx="0.818" transform="translate(0.244 0.341)" fill="#575756"/>
      </g>
      <g id="Group_2077" data-name="Group 2077" transform="translate(69.357 11.361)">
        <rect id="Rectangle_395" data-name="Rectangle 395" width="4.392" height="6.134" rx="0.921" transform="translate(0 0)" fill="#9d9d9c" style="mix-blend-mode: multiply;isolation: isolate"/>
        <rect id="Rectangle_396" data-name="Rectangle 396" width="3.904" height="5.453" rx="0.818" transform="translate(0.244 0.341)" fill="#575756"/>
      </g>
      <g id="Group_2078" data-name="Group 2078" transform="translate(85.25 11.361)">
        <rect id="Rectangle_397" data-name="Rectangle 397" width="4.391" height="6.134" rx="0.921" transform="translate(0 0)" fill="#9d9d9c" style="mix-blend-mode: multiply;isolation: isolate"/>
        <rect id="Rectangle_398" data-name="Rectangle 398" width="3.903" height="5.453" rx="0.818" transform="translate(0.244 0.341)" fill="#575756"/>
      </g>
      <g id="Group_2079" data-name="Group 2079" transform="translate(92.604 11.361)">
        <rect id="Rectangle_399" data-name="Rectangle 399" width="4.391" height="6.134" rx="0.921" transform="translate(0 0)" fill="#9d9d9c" style="mix-blend-mode: multiply;isolation: isolate"/>
        <rect id="Rectangle_400" data-name="Rectangle 400" width="3.903" height="5.453" rx="0.818" transform="translate(0.244 0.341)" fill="#575756"/>
      </g>
      <g id="Group_2080" data-name="Group 2080" transform="translate(99.957 11.361)">
        <rect id="Rectangle_401" data-name="Rectangle 401" width="4.392" height="6.134" rx="0.921" transform="translate(0 0)" fill="#9d9d9c" style="mix-blend-mode: multiply;isolation: isolate"/>
        <rect id="Rectangle_402" data-name="Rectangle 402" width="3.904" height="5.453" rx="0.818" transform="translate(0.244 0.341)" fill="#575756"/>
      </g>
      <g id="Group_2081" data-name="Group 2081" transform="translate(107.311 11.361)">
        <rect id="Rectangle_403" data-name="Rectangle 403" width="4.392" height="6.134" rx="0.921" transform="translate(0 0)" fill="#9d9d9c" style="mix-blend-mode: multiply;isolation: isolate"/>
        <rect id="Rectangle_404" data-name="Rectangle 404" width="3.903" height="5.453" rx="0.818" transform="translate(0.244 0.341)" fill="#575756"/>
      </g>
      <g id="Group_2082" data-name="Group 2082" transform="translate(114.665 11.361)">
        <rect id="Rectangle_405" data-name="Rectangle 405" width="4.391" height="6.134" rx="0.921" transform="translate(0 0)" fill="#9d9d9c" style="mix-blend-mode: multiply;isolation: isolate"/>
        <rect id="Rectangle_406" data-name="Rectangle 406" width="3.903" height="5.453" rx="0.818" transform="translate(0.244 0.341)" fill="#575756"/>
      </g>
      <g id="Group_2083" data-name="Group 2083" transform="translate(122.019 11.361)">
        <rect id="Rectangle_407" data-name="Rectangle 407" width="4.391" height="6.134" rx="0.921" transform="translate(0 0)" fill="#9d9d9c" style="mix-blend-mode: multiply;isolation: isolate"/>
        <rect id="Rectangle_408" data-name="Rectangle 408" width="3.903" height="5.453" rx="0.818" transform="translate(0.244 0.341)" fill="#575756"/>
      </g>
      <g id="Group_2084" data-name="Group 2084" transform="translate(120.034 8.234)">
        <path id="Path_9605" data-name="Path 9605" d="M431.28,207.538v-9.825a2.777,2.777,0,0,0-2.773-2.772h-2.819a2.775,2.775,0,0,0-2.772,2.772v9.825a2.776,2.776,0,0,0,2.772,2.773h2.819A2.777,2.777,0,0,0,431.28,207.538Zm-2.773-12.179a2.357,2.357,0,0,1,2.354,2.354v9.825a2.357,2.357,0,0,1-2.354,2.354h-2.819a2.357,2.357,0,0,1-2.354-2.354v-9.825a2.357,2.357,0,0,1,2.354-2.354Z" transform="translate(-422.915 -194.942)" fill="#575756"/>
      </g>
      <g id="Group_2085" data-name="Group 2085" transform="translate(129.373 11.361)">
        <rect id="Rectangle_409" data-name="Rectangle 409" width="4.391" height="6.134" rx="0.921" transform="translate(0 0)" fill="#9d9d9c" style="mix-blend-mode: multiply;isolation: isolate"/>
        <rect id="Rectangle_410" data-name="Rectangle 410" width="3.903" height="5.453" rx="0.818" transform="translate(0.244 0.341)" fill="#575756"/>
      </g>
      <g id="Group_2086" data-name="Group 2086" transform="translate(136.727 11.361)">
        <rect id="Rectangle_411" data-name="Rectangle 411" width="4.391" height="6.134" rx="0.921" transform="translate(0 0)" fill="#9d9d9c" style="mix-blend-mode: multiply;isolation: isolate"/>
        <rect id="Rectangle_412" data-name="Rectangle 412" width="3.903" height="5.453" rx="0.818" transform="translate(0.244 0.341)" fill="#575756"/>
      </g>
      <g id="Group_2087" data-name="Group 2087" transform="translate(144.081 11.361)">
        <rect id="Rectangle_413" data-name="Rectangle 413" width="4.392" height="6.134" rx="0.921" transform="translate(0 0)" fill="#9d9d9c" style="mix-blend-mode: multiply;isolation: isolate"/>
        <rect id="Rectangle_414" data-name="Rectangle 414" width="3.904" height="5.453" rx="0.818" transform="translate(0.244 0.341)" fill="#575756"/>
      </g>
      <g id="Group_2088" data-name="Group 2088" transform="translate(151.435 11.361)">
        <rect id="Rectangle_415" data-name="Rectangle 415" width="4.391" height="6.134" rx="0.921" transform="translate(0 0)" fill="#9d9d9c" style="mix-blend-mode: multiply;isolation: isolate"/>
        <rect id="Rectangle_416" data-name="Rectangle 416" width="3.903" height="5.453" rx="0.818" transform="translate(0.244 0.341)" fill="#575756"/>
      </g>
      <g id="Group_2089" data-name="Group 2089" transform="translate(158.789 11.361)">
        <rect id="Rectangle_417" data-name="Rectangle 417" width="4.391" height="6.134" rx="0.921" transform="translate(0 0)" fill="#9d9d9c" style="mix-blend-mode: multiply;isolation: isolate"/>
        <rect id="Rectangle_418" data-name="Rectangle 418" width="3.903" height="5.453" rx="0.818" transform="translate(0.244 0.341)" fill="#575756"/>
      </g>
      <g id="Group_2090" data-name="Group 2090" transform="translate(166.143 11.361)">
        <rect id="Rectangle_419" data-name="Rectangle 419" width="4.391" height="6.134" rx="0.921" transform="translate(0 0)" fill="#9d9d9c" style="mix-blend-mode: multiply;isolation: isolate"/>
        <rect id="Rectangle_420" data-name="Rectangle 420" width="3.903" height="5.453" rx="0.818" transform="translate(0.244 0.341)" fill="#575756"/>
      </g>
      <g id="Group_2091" data-name="Group 2091" transform="translate(173.497 11.361)">
        <rect id="Rectangle_421" data-name="Rectangle 421" width="4.391" height="6.134" rx="0.921" transform="translate(0 0)" fill="#9d9d9c" style="mix-blend-mode: multiply;isolation: isolate"/>
        <rect id="Rectangle_422" data-name="Rectangle 422" width="3.903" height="5.453" rx="0.818" transform="translate(0.244 0.341)" fill="#575756"/>
      </g>
      <g id="Group_2092" data-name="Group 2092" transform="translate(180.851 11.361)">
        <rect id="Rectangle_423" data-name="Rectangle 423" width="4.392" height="6.134" rx="0.921" transform="translate(0 0)" fill="#9d9d9c" style="mix-blend-mode: multiply;isolation: isolate"/>
        <rect id="Rectangle_424" data-name="Rectangle 424" width="3.903" height="5.453" rx="0.818" transform="translate(0.244 0.341)" fill="#575756"/>
      </g>
      <g id="Group_2093" data-name="Group 2093" transform="translate(188.205 11.361)">
        <rect id="Rectangle_425" data-name="Rectangle 425" width="4.392" height="6.134" rx="0.921" transform="translate(0 0)" fill="#9d9d9c" style="mix-blend-mode: multiply;isolation: isolate"/>
        <rect id="Rectangle_426" data-name="Rectangle 426" width="3.904" height="5.453" rx="0.818" transform="translate(0.244 0.341)" fill="#575756"/>
      </g>
      <g id="Group_2094" data-name="Group 2094" transform="translate(195.559 11.361)">
        <rect id="Rectangle_427" data-name="Rectangle 427" width="4.391" height="6.134" rx="0.921" transform="translate(0 0)" fill="#9d9d9c" style="mix-blend-mode: multiply;isolation: isolate"/>
        <rect id="Rectangle_428" data-name="Rectangle 428" width="3.903" height="5.453" rx="0.818" transform="translate(0.244 0.341)" fill="#575756"/>
      </g>
      <g id="Group_2095" data-name="Group 2095" transform="translate(202.913 11.361)">
        <rect id="Rectangle_429" data-name="Rectangle 429" width="4.391" height="6.134" rx="0.921" transform="translate(0 0)" fill="#9d9d9c" style="mix-blend-mode: multiply;isolation: isolate"/>
        <rect id="Rectangle_430" data-name="Rectangle 430" width="3.903" height="5.453" rx="0.818" transform="translate(0.244 0.341)" fill="#575756"/>
      </g>
      <g id="Group_2096" data-name="Group 2096" transform="translate(210.267 11.361)">
        <rect id="Rectangle_431" data-name="Rectangle 431" width="4.391" height="6.134" rx="0.921" transform="translate(0 0)" fill="#9d9d9c" style="mix-blend-mode: multiply;isolation: isolate"/>
        <rect id="Rectangle_432" data-name="Rectangle 432" width="3.903" height="5.453" rx="0.818" transform="translate(0.244 0.341)" fill="#575756"/>
      </g>
      <g id="Group_2097" data-name="Group 2097" transform="translate(217.62 11.361)">
        <rect id="Rectangle_433" data-name="Rectangle 433" width="4.391" height="6.134" rx="0.921" transform="translate(0 0)" fill="#9d9d9c" style="mix-blend-mode: multiply;isolation: isolate"/>
        <rect id="Rectangle_434" data-name="Rectangle 434" width="3.903" height="5.453" rx="0.818" transform="translate(0.244 0.341)" fill="#575756"/>
      </g>
      <g id="Group_2098" data-name="Group 2098" transform="translate(224.974 11.361)">
        <rect id="Rectangle_435" data-name="Rectangle 435" width="4.392" height="6.134" rx="0.921" transform="translate(0 0)" fill="#9d9d9c" style="mix-blend-mode: multiply;isolation: isolate"/>
        <rect id="Rectangle_436" data-name="Rectangle 436" width="3.904" height="5.453" rx="0.818" transform="translate(0.244 0.341)" fill="#575756"/>
      </g>
      <g id="Group_2099" data-name="Group 2099" transform="translate(232.328 11.361)">
        <rect id="Rectangle_437" data-name="Rectangle 437" width="4.392" height="6.134" rx="0.921" transform="translate(0 0)" fill="#9d9d9c" style="mix-blend-mode: multiply;isolation: isolate"/>
        <rect id="Rectangle_438" data-name="Rectangle 438" width="3.903" height="5.453" rx="0.818" transform="translate(0.244 0.341)" fill="#575756"/>
      </g>
      <g id="Group_2100" data-name="Group 2100" transform="translate(239.682 11.361)">
        <rect id="Rectangle_439" data-name="Rectangle 439" width="4.391" height="6.134" rx="0.921" transform="translate(0 0)" fill="#9d9d9c" style="mix-blend-mode: multiply;isolation: isolate"/>
        <rect id="Rectangle_440" data-name="Rectangle 440" width="3.903" height="5.453" rx="0.818" transform="translate(0.244 0.341)" fill="#575756"/>
      </g>
      <g id="Group_2101" data-name="Group 2101" transform="translate(247.036 11.361)">
        <rect id="Rectangle_441" data-name="Rectangle 441" width="4.391" height="6.134" rx="0.921" transform="translate(0 0)" fill="#9d9d9c" style="mix-blend-mode: multiply;isolation: isolate"/>
        <rect id="Rectangle_442" data-name="Rectangle 442" width="3.903" height="5.453" rx="0.818" transform="translate(0.244 0.341)" fill="#575756"/>
      </g>
      <g id="Group_2102" data-name="Group 2102" transform="translate(273.07)">
        <path id="Path_9606" data-name="Path 9606" d="M342.615,216.247V192.826a2.721,2.721,0,0,0-2.719-2.717h-5.751a2.721,2.721,0,0,0-2.719,2.717v23.421a2.722,2.722,0,0,0,2.719,2.719H339.9A2.722,2.722,0,0,0,342.615,216.247ZM339.9,190.526a2.3,2.3,0,0,1,2.3,2.3v23.421a2.3,2.3,0,0,1-2.3,2.3h-5.751a2.3,2.3,0,0,1-2.3-2.3V192.826a2.3,2.3,0,0,1,2.3-2.3Z" transform="translate(-331.426 -190.109)" fill="#575756"/>
      </g>
    </g>
  </g>
  <g id="Group_2105" data-name="Group 2105" transform="translate(397.038 79.269)">
    <path id="Path_9607" data-name="Path 9607" d="M341.67,183.119l-.027.022-4.158,3.1-17.719,13.193c-3.083.591-6.337,1.121-9.608,1.578-12.133,1.69-24.518,2.383-29.5,1.491-.155-.027-.3-.058-.45-.087-4.835-.959-5.554-2.693-4.307-4.269,1.232-1.561,46.643-13.956,50.318-14.958.109-.032.179-.051.213-.06l.014,0,.009,0Z" transform="translate(-275.366 -183.119)" fill="#575756"/>
    <path id="Path_9608" data-name="Path 9608" d="M291.218,183.124l-.027.017c-2.118,1.291-10.029,1.825-13.82,1.889h-.026c-1.908.034-2.445-1.48-1.576-1.845a.779.779,0,0,1,.213-.06l.014,0,.009,0h15.162l.048.005Z" transform="translate(-224.914 -183.119)" fill="#f6f6f6"/>
    <path id="Path_9609" data-name="Path 9609" d="M335.925,185c-1.908.034-2.445-1.48-1.576-1.845-3.675,1-49.086,13.4-50.318,14.958-1.247,1.576-.528,3.31,4.307,4.269l1.295-.334,5.228-2.928,41.091-14.114Z" transform="translate(-283.493 -183.092)" fill="#c6c6c6"/>
    <path id="Path_9610" data-name="Path 9610" d="M305.151,184.95l-17.719,13.193c-3.083.591-6.337,1.121-9.608,1.578l23.588-14.234Z" transform="translate(-243.032 -181.831)" fill="#3c3c3b"/>
  </g>
  <g id="Group_2107" data-name="Group 2107" transform="translate(182.577 114.571)">
    <path id="Path_9611" data-name="Path 9611" d="M452.07,227.223c-13.791.136-30.73.262-49.028.344l-9.973-14.436,53.5-5.436Z" transform="translate(-371.825 -201.129)" fill="#bfbfbd" style="mix-blend-mode: multiply;isolation: isolate"/>
    <path id="Path_9612" data-name="Path 9612" d="M464.627,205.8l-55.485,16.031-32.588-2.02-1.148-.072c-.339-1.719.45-2.6,2.669-3.981,1.307-.809,63.124-11.912,64.943-11.912h.075C451.568,203.851,464.627,205.8,464.627,205.8Z" transform="translate(-354.161 -203.841)" fill="#464646"/>
    <path id="Path_9613" data-name="Path 9613" d="M455.733,203.841l-.806,1.709-64.234,14.256h-1.5l-1.148-.072c-.339-1.719.45-2.6,2.67-3.981,1.307-.809,63.124-11.912,64.943-11.912Z" transform="translate(-366.801 -203.841)" fill="#c6c6c6"/>
    <path id="Path_9614" data-name="Path 9614" d="M395.013,213.947l32.624-.734a2.843,2.843,0,0,1,1.213.24l8.566,3.768a.469.469,0,0,1-.15.9C402.56,221.1,395.439,215.069,395.013,213.947Z" transform="translate(-360.762 -197.248)" fill="#8c8c8c"/>
    <path id="Path_9615" data-name="Path 9615" d="M394.785,212.6l30.936-.693a3.11,3.11,0,0,1,1.124.184l8.341,3.039a.266.266,0,0,1-.073.515C403.2,217.953,395.629,213.369,394.785,212.6Z" transform="translate(-358.038 -198.166)" fill="#b0b0b0"/>
    <path id="Path_9616" data-name="Path 9616" d="M388.3,211.155l27.406-.678a2.818,2.818,0,0,1,1.136.206l7.107,2.859a.366.366,0,0,1-.109.705C418.518,214.667,390.257,215.1,388.3,211.155Z" transform="translate(-335.799 -199.172)" fill="#c2c2c2"/>
    <g id="Group_2106" data-name="Group 2106" transform="translate(0 7.734)">
      <path id="Path_9617" data-name="Path 9617" d="M458.885,214.1v22.166c-14.051.165-32.973-.239-41.268-2.189-2.036-.477-3.431-1.049-3.956-1.729a1.078,1.078,0,0,1-.085-.124V211.306a13.72,13.72,0,0,1,4.041-1.693C426.855,207.122,445,208.306,458.885,214.1Z" transform="translate(-413.576 -208.381)" fill="#ccccca"/>
      <path id="Path_9618" data-name="Path 9618" d="M458.8,211.735V233.9c-14.051.165-32.973-.239-41.268-2.189-2.036-.477-3.431-1.049-3.956-1.729Z" transform="translate(-413.491 -206.021)" fill="#f87a36"/>
      <path id="Path_9619" data-name="Path 9619" d="M441.842,209.1v24.457c-2.158-.5-3.6-1.118-4.043-1.852V210.8A13.712,13.712,0,0,1,441.842,209.1Z" transform="translate(-437.799 -207.872)" fill="#838584"/>
      <path id="Path_9620" data-name="Path 9620" d="M418.01,228.361l-10.735,3.348V213.024l10.735,3.348Z" transform="translate(-361.966 -205.114)" fill="#2e2a21"/>
      <path id="Path_9621" data-name="Path 9621" d="M411.032,221.849l-9.1,2.457V216.1l9.1,2.457Z" transform="translate(-345.892 -202.95)" fill="#2e2a21"/>
    </g>
  </g>
  <path id="Path_9622" data-name="Path 9622" d="M314.472,136.589l-21.819,84.065h-11.28l21.817-84.065Z" transform="translate(138.636 -136.589)" fill="#fff"/>
</svg>
