<svg xmlns="http://www.w3.org/2000/svg" width="1921.402" height="2078.64" viewBox="0 0 1921.402 2078.64">
  <path id="Union_2" data-name="Union 2" d="M1537.783,6784.624c-29.371-.153-59.672-1.521-90.5-4.473-107.319-10.274-210.9-35.063-351.266-86.708-29.562-10.876-69.567-25.218-123.034-40.928-16.677-4.9-55.036-14.357-55.036-14.357s-67.249-12.209-125.587-10.474-146.444,18.722-146.444,18.722-105.57,31.167-161.942,47.037-131.119,23.22-131.119,23.22-104.616,9.906-200.133-1.95S-40,6669.532-40,6669.532V4706.653s190.892-12.384,502.523,70.7c142.685,38.042,347.512,25.716,453.15,0l.576-.14.145-.035.442-.106.15-.038c.159-.039.316-.074.475-.114.041-.009.075-.018.114-.027l.576-.141c.032-.006.07-.015.1-.023l.458-.11c.059-.016.114-.029.173-.042.161-.039.307-.075.467-.112l.107-.027c.2-.048.391-.093.591-.142l.045-.01c.178-.043.373-.09.553-.132l.086-.021.508-.124c.041-.008.07-.015.109-.026.2-.045.389-.09.589-.139a.12.12,0,0,1,.018,0l.558-.134c.046-.011.082-.021.128-.029l.487-.115.107-.025,1.2-.285c.018,0,.034-.008.054-.013l.564-.132a.451.451,0,0,1,.055-.012c.608-.146,1.227-.29,1.839-.434a.356.356,0,0,1,.048-.011c.621-.148,1.227-.289,1.848-.433a.084.084,0,0,1,.029,0c159.9-37.321,332.166-49.327,380.943-57.551,50.121-8.455,234.042-8.455,349.569,0S1881.4,4747.33,1881.4,4747.33V5952.947l-.055.009c-.146.02-.592.081-1.347.17v782.3s-145.667,48.276-331.212,49.2q-2.684.013-5.381.014Q1540.6,6784.64,1537.783,6784.624Z" transform="translate(40 -4706)" fill="#4a7ced"/>
</svg>
